<svg xmlns="http://www.w3.org/2000/svg" xmlns:xlink="http://www.w3.org/1999/xlink" width="45.625" height="44.275" viewBox="0 0 45.625 44.275">
  <defs>
    <clipPath id="clip-path">
      <rect id="Rectángulo_402758" data-name="Rectángulo 402758" width="45.625" height="44.275" fill="#c47c1e"/>
    </clipPath>
  </defs>
  <g id="Grupo_1102510" data-name="Grupo 1102510" transform="translate(-1094.051 -1234.388)">
    <g id="Grupo_1102400" data-name="Grupo 1102400">
      <g id="Grupo_1102399" data-name="Grupo 1102399">
        <g id="Grupo_1102398" data-name="Grupo 1102398" transform="translate(1094.051 1234.388)">
          <g id="Grupo_1102397" data-name="Grupo 1102397" clip-path="url(#clip-path)">
            <path id="Trazado_875833" data-name="Trazado 875833" d="M22.855,0q7.507,0,15.013,0a7.352,7.352,0,0,1,7.746,7.739q.022,11.7,0,23.407c-.008,4.668-3.132,7.762-7.811,7.769-3.247.005-6.494.016-9.741-.013a1.3,1.3,0,0,0-1.239.649c-.88,1.309-1.8,2.591-2.724,3.87-.819,1.134-1.756,1.135-2.573,0-.923-1.28-1.844-2.562-2.724-3.871a1.3,1.3,0,0,0-1.239-.651c-3.247.029-6.494.018-9.741.013C3.14,38.91.016,35.817.009,31.152q-.017-11.7,0-23.407A7.353,7.353,0,0,1,7.752,0Q15.3,0,22.855,0M22.814,40.59c.861-1.216,1.66-2.288,2.394-3.4a1.978,1.978,0,0,1,1.855-.97c3.544.034,7.089.018,10.634.014,3.348,0,5.221-1.855,5.224-5.183q.011-11.569,0-23.139c0-3.386-1.862-5.218-5.274-5.218q-14.834,0-29.668,0c-3.414,0-5.273,1.832-5.276,5.216q-.009,11.569,0,23.139c0,3.324,1.881,5.181,5.223,5.185,3.544,0,7.089.021,10.634-.013a1.98,1.98,0,0,1,1.856.969c.734,1.115,1.534,2.186,2.4,3.4" transform="translate(0 0)" fill="#c47c1e"/>
            <path id="Trazado_875834" data-name="Trazado 875834" d="M113.1,38.7c0,1.7.083,3.4-.022,5.089a3.925,3.925,0,0,1-3.678,3.625,4.026,4.026,0,0,1-4.107-2.8,4.559,4.559,0,0,1-.2-1.316q-.025-4.6,0-9.2a3.877,3.877,0,0,1,2.4-3.759,3.808,3.808,0,0,1,4.253.642,4.006,4.006,0,0,1,1.4,3.252c0,1.489,0,2.978,0,4.467H113.1m-5.323-.028c0,1.456-.009,2.912,0,4.368.008,1.05.5,1.672,1.3,1.69s1.352-.608,1.356-1.636q.018-4.413,0-8.825c0-.979-.522-1.583-1.3-1.6-.808-.019-1.346.609-1.356,1.636-.015,1.456,0,2.912,0,4.368" transform="translate(-86.295 -24.601)" fill="#c47c1e"/>
            <path id="Trazado_875835" data-name="Trazado 875835" d="M109.188,142.731a3.989,3.989,0,0,1,4.014,4.03,4.016,4.016,0,0,1-8.032,0,3.992,3.992,0,0,1,4.018-4.027m1.314,3.987a1.317,1.317,0,0,0-2.633.039,1.317,1.317,0,1,0,2.633-.039" transform="translate(-86.375 -117.223)" fill="#c47c1e"/>
          </g>
        </g>
      </g>
    </g>
  </g>
</svg>
