<svg xmlns="http://www.w3.org/2000/svg" xmlns:xlink="http://www.w3.org/1999/xlink" width="447.854" height="301.376" viewBox="0 0 447.854 301.376">
  <defs>
    <clipPath id="clip-path">
      <rect id="Rectángulo_402774" data-name="Rectángulo 402774" width="447.853" height="296.732" fill="none"/>
    </clipPath>
  </defs>
  <g id="Grupo_1102508" data-name="Grupo 1102508" transform="translate(-958.36 -1427.663)">
    <g id="Grupo_1102409" data-name="Grupo 1102409">
      <g id="Grupo_1102405" data-name="Grupo 1102405">
        <rect id="Rectángulo_402102" data-name="Rectángulo 402102" width="369.158" height="301.376" rx="20" transform="translate(1020 1427.663)" fill="#f59b25"/>
      </g>
      <g id="Grupo_1102408" data-name="Grupo 1102408" transform="translate(958.36 1432.308)">
        <g id="Grupo_1102407" data-name="Grupo 1102407" clip-path="url(#clip-path)">
          <path id="Trazado_875943" data-name="Trazado 875943" d="M43.211,290.7S-7.206,232.941,13.847,165.046C32.742,104.11,118.175,64.672,163.572,94.852c21.96,14.6,39.7-44.082,112.587-65.563,53.9-15.885,133.6,19.742,113.355,128.844-15.39,82.948,60.95,41.593,44.278,133.229Z" transform="translate(1.48 4.368)" fill="#ededed"/>
          <path id="Trazado_875944" data-name="Trazado 875944" d="M267.282,78.583s-10.956-11.851-1.4-20c0,0,7.031-4.625,12.91-4.492,0,0-7.789,14.25-5.047,15.535s7.534-16.5,7.534-16.5,16.311-2.2,21.673.131c0,0-13.565,11.979-10.592,12.551s17.667-11.239,17.667-11.239,15.335,2.022,14.871,11.347-5.606,12.393-7.922,12.233-16.008-4.806-16.232-2.905,8.134,7.776,13.834,7.852c0,0-10.3,12.25-17.564,9.1s-8.081-8.548-12.608-10.413-8.326-1.719-6.411.285,10.046,3.717,12.76,8.123,5.112,7.357-2.318,6.523-19.638-5.788-20.4-11.958Z" transform="translate(44.539 8.872)" fill="#aad9b2"/>
          <path id="Trazado_875945" data-name="Trazado 875945" d="M317.911,64.373s-41.444-.041-50.14,12.138a29.95,29.95,0,0,1-7.806,11.876l-.87,2.678s6.888-7.83,9.436-8.384c0,0-4.563-14.512,49.381-18.307" transform="translate(44.051 10.945)" fill="#aad9b2"/>
          <path id="Trazado_875946" data-name="Trazado 875946" d="M261.119,85.059s-8.636,6.9-8.813,18.665l1.618.084s2.381-12.244,7.33-17.183-.136-1.567-.136-1.567" transform="translate(42.896 14.271)" fill="#aad9b2"/>
          <path id="Trazado_875947" data-name="Trazado 875947" d="M248.284,73.332S223.66,67.777,228.75,48.805c0,0,4.956-12.194,12.65-17.234,0,0,2.6,25.267,7.272,24.492s-4.928-27.945-4.928-27.945,19.064-17.3,28.043-19.048c0,0-6.857,27.461-2.52,25.561s12.8-30.144,12.8-30.144S303.614-6.506,311.286,5.92s3.766,20.937.639,22.785-24.889,8-23.489,10.651,17.375,2.806,24.787-2.152c0,0-2.406,24.914-14.564,27.3s-17.99-3.849-25.477-2.238-12.25,5.168-8.005,6.053,16.238-4.118,23.643-.848,13.109,4.947,2.8,10.459-30.436,9.956-36.884,2.679Z" transform="translate(38.774 0)" fill="#cfe9d3"/>
          <path id="Trazado_875948" data-name="Trazado 875948" d="M299.185,11.312s-53.435,36.7-53.84,60.1a46.858,46.858,0,0,1,.472,22.222l1.253,4.223s1.931-16.2,4.725-19.17c0,0-18.748-14.651,47.39-67.372" transform="translate(41.713 1.923)" fill="#bce1c2"/>
          <path id="Trazado_875949" data-name="Trazado 875949" d="M245.927,82.168s-5.007,16.551,5.195,31.861l2.159-1.326s-7.789-17.887-5.79-28.639-1.563-1.9-1.563-1.9" transform="translate(41.603 13.387)" fill="#bce1c2"/>
          <path id="Trazado_875950" data-name="Trazado 875950" d="M138.235,194.094s24.624-5.555,19.536-24.527c0,0-4.957-12.193-12.651-17.234,0,0-2.6,25.267-7.272,24.492s4.928-27.945,4.928-27.945-19.064-17.3-28.042-19.048c0,0,6.856,27.461,2.519,25.561s-12.8-30.144-12.8-30.144S82.9,114.256,75.233,126.682s-3.766,20.937-.639,22.785,24.889,8,23.489,10.649-17.375,2.807-24.787-2.15c0,0,2.406,24.914,14.564,27.3s17.99-3.848,25.477-2.238,12.25,5.168,8.005,6.052-16.238-4.118-23.641-.847-13.11,4.946-2.8,10.458,30.436,9.956,36.884,2.679Z" transform="translate(12.033 20.532)" fill="#cfe9d3"/>
          <path id="Trazado_875951" data-name="Trazado 875951" d="M82.416,132.074s53.436,36.7,53.84,60.1a46.858,46.858,0,0,0-.472,22.222l-1.253,4.223s-1.931-16.2-4.723-19.17c0,0,18.747-14.652-47.392-67.372" transform="translate(14.012 22.455)" fill="#bce1c2"/>
          <path id="Trazado_875952" data-name="Trazado 875952" d="M129.1,202.93s5.006,16.551-5.195,31.861l-2.158-1.326s7.788-17.886,5.789-28.639,1.563-1.9,1.563-1.9" transform="translate(20.699 33.919)" fill="#bce1c2"/>
          <rect id="Rectángulo_402760" data-name="Rectángulo 402760" width="179.212" height="251.664" transform="translate(134.322 44.065)" fill="gray"/>
          <rect id="Rectángulo_402761" data-name="Rectángulo 402761" width="166.616" height="240.034" transform="translate(140.619 51.034)" fill="#e3e3e3"/>
          <rect id="Rectángulo_402762" data-name="Rectángulo 402762" width="136.023" height="7.779" transform="translate(157.778 80.487)" fill="#b0b0b0"/>
          <rect id="Rectángulo_402763" data-name="Rectángulo 402763" width="136.023" height="3.569" transform="translate(157.778 127.967)" fill="#b0b0b0"/>
          <rect id="Rectángulo_402764" data-name="Rectángulo 402764" width="136.023" height="3.569" transform="translate(157.778 136.363)" fill="#b0b0b0"/>
          <rect id="Rectángulo_402765" data-name="Rectángulo 402765" width="136.023" height="3.569" transform="translate(157.778 144.759)" fill="#b0b0b0"/>
          <rect id="Rectángulo_402766" data-name="Rectángulo 402766" width="136.023" height="3.569" transform="translate(157.778 153.156)" fill="#b0b0b0"/>
          <rect id="Rectángulo_402767" data-name="Rectángulo 402767" width="136.023" height="3.569" transform="translate(157.778 161.553)" fill="#b0b0b0"/>
          <rect id="Rectángulo_402768" data-name="Rectángulo 402768" width="136.023" height="3.569" transform="translate(157.778 169.949)" fill="#b0b0b0"/>
          <path id="Trazado_875953" data-name="Trazado 875953" d="M171.944,188.457a10.5,10.5,0,1,1-10.5-10.5,10.5,10.5,0,0,1,10.5,10.5" transform="translate(25.665 30.257)" fill="#b0b0b0"/>
          <path id="Trazado_875954" data-name="Trazado 875954" d="M206.526,198.4a.58.58,0,0,1-.089-.007.526.526,0,0,1-.429-.606c.1-.576,2.486-14.155,10.018-18.776a.815.815,0,0,1,1.026-.026c.661.566.158,2.008-2.11,7.445-.9,2.167-1.974,4.736-2.416,6.3.8-1.052,2-2.853,2.957-4.285,2.979-4.472,3.559-5.2,4.14-5.2a.638.638,0,0,1,.53.275c.317.454.077,1.213-.745,3.442a24.945,24.945,0,0,0-.938,2.865,15.4,15.4,0,0,0,1.434-1.7c1.031-1.343,1.555-1.984,2.172-1.888a.755.755,0,0,1,.593.529,3.106,3.106,0,0,1,.123.574,1.8,1.8,0,0,0,.82,1.512c1.307.737,5.074.695,15.6-3.693a.525.525,0,1,1,.4.969c-8.887,3.7-14.291,4.894-16.519,3.639a2.792,2.792,0,0,1-1.34-2.256c-.3.316-.715.856-1.019,1.253-1.14,1.484-1.888,2.376-2.651,2.313a.72.72,0,0,1-.557-.337c-.364-.574-.007-1.7.894-4.147.144-.391.31-.839.454-1.255-.728.995-1.718,2.482-2.519,3.686-3.337,5.008-3.941,5.734-4.613,5.551a.652.652,0,0,1-.469-.644c-.067-1.171,1.026-3.891,2.7-7.907a56.763,56.763,0,0,0,2.239-5.889c-6.849,4.6-9.148,17.692-9.171,17.826a.524.524,0,0,1-.517.436" transform="translate(35.024 30.403)" fill="#b0b0b0"/>
          <path id="Trazado_875955" data-name="Trazado 875955" d="M234.617,36.412H213.485a11.37,11.37,0,1,0-21.271,0H171.082A3.079,3.079,0,0,0,168,39.491v8.536a3.078,3.078,0,0,0,3.078,3.078h63.534a3.078,3.078,0,0,0,3.078-3.078V39.491a3.079,3.079,0,0,0-3.078-3.079m-31.767.176a4.2,4.2,0,1,1,4.2-4.2,4.2,4.2,0,0,1-4.2,4.2" transform="translate(28.564 3.574)" fill="#b8a8d0"/>
          <path id="Trazado_875956" data-name="Trazado 875956" d="M170.636,48.422h63.533a3.078,3.078,0,0,0,3.078-3.078V36.807Z" transform="translate(29.011 6.258)" fill="#a894c6"/>
          <path id="Trazado_875957" data-name="Trazado 875957" d="M25.7,260.931c4.235-4.327,11.7-7.3,20.315-7.655V240.522H31.144c-.33,0-.625-.288-.811-.731a2.935,2.935,0,0,1-.208-1.116v-.646c0-1.016.459-1.847,1.019-1.847H46.012V200.556a1.711,1.711,0,0,1,3.422,0v35.626H64.3c.562,0,1.02.832,1.02,1.847v.646a2.881,2.881,0,0,1-.222,1.147c-.187.427-.475.7-.8.7H49.435v12.753c8.618.351,16.08,3.329,20.315,7.655.308.315.6.634.869.963H24.828c.27-.329.562-.648.869-.963" transform="translate(4.221 33.807)" fill="#b8a8d0"/>
          <path id="Trazado_875958" data-name="Trazado 875958" d="M42.934,245.435a19.646,19.646,0,0,1,14.174,7.592q.342.47.644.962h4.237q-.3-.491-.644-.962c-3.338-4.611-9.386-7.691-16.291-7.691q-1.076,0-2.119.1" transform="translate(7.3 41.712)" fill="#c8bcdb"/>
          <path id="Trazado_875959" data-name="Trazado 875959" d="M83,245.865s.518,8.355,2.135,8.476c.214.016,8.2.016,8.2.016l10.192-.06a3.307,3.307,0,0,0-3.046-2.975c-2.979-.518-7.965-2.613-9.771-6.55-1.9-4.143-7.709,1.093-7.709,1.093" transform="translate(14.111 41.344)" fill="#030303"/>
          <path id="Trazado_875960" data-name="Trazado 875960" d="M49.421,196.028A62.247,62.247,0,0,0,54.293,203c5.361,6.767,11.2,12.348,12.214,17.623A23.851,23.851,0,0,0,67.449,224c.425,1.209.949,2.479,1.555,3.792A116.789,116.789,0,0,0,78.077,243.3C83.95,252,88.755,257.84,88.755,257.84s1.54,1.2,5.944,1.2c1.225,0,5.352-.67,5.352-.67-.406-1.016-5.276-12.566-11.183-27.247-2.4-5.96-4.95-12.3-7.412-18.413-.328-.817-.656-1.63-.98-2.435-.752-1.871-1.493-3.712-2.216-5.506C72.712,190.981,68.293,180,68.293,180s-22.172-8.4-24.473-2.957c-1.9,4.487-.352,8.883,5.6,18.98" transform="translate(7.32 29.789)" fill="#080808"/>
          <rect id="Rectángulo_402769" data-name="Rectángulo 402769" width="33.58" height="92.929" transform="translate(94.47 202.772)" fill="#b8a8d0"/>
          <rect id="Rectángulo_402770" data-name="Rectángulo 402770" width="24.02" height="92.929" transform="translate(126.652 202.772)" fill="#d7cde5"/>
          <rect id="Rectángulo_402771" data-name="Rectángulo 402771" width="34.693" height="1.873" transform="translate(92.192 200.899)" fill="#9f89c0"/>
          <rect id="Rectángulo_402772" data-name="Rectángulo 402772" width="26.272" height="1.873" transform="translate(126.886 200.899)" fill="#c6b9da"/>
          <path id="Trazado_875961" data-name="Trazado 875961" d="M78.609,161.017s4.811,2.736,6.159,2.736,6.634-1.021,8.107-.269a17.254,17.254,0,0,1,4.643,4.772c.9,1.781-3.624.995-5.761-.522a1.346,1.346,0,0,0-1.068-.22c-1.108.241-3.408.659-4.52.248-1.493-.553-9.361-1.166-9.361-1.166Z" transform="translate(13.059 27.376)" fill="#b8a8d0"/>
          <path id="Trazado_875962" data-name="Trazado 875962" d="M47.059,129.888s4.988,35.45,13.247,38.626c4.075,1.567,22.086,5.118,27.414,5.475,0,0,1.306-1.059.987-5.368,0,0-18.87-6.928-21.551-10.7-3.99-5.607,2.477-22.907-2.53-28.173s-13.438-7.529-17.568.136" transform="translate(8.001 21.242)" fill="#de9935"/>
          <path id="Trazado_875963" data-name="Trazado 875963" d="M63.887,225.073s-7.044,4.526-6.359,6c.09.2,3.983,7.166,3.983,7.166l5.019,8.87A3.305,3.305,0,0,0,67.643,243c-1-2.855-1.6-8.229.957-11.724,2.691-3.677-4.713-6.2-4.713-6.2" transform="translate(9.773 38.266)" fill="#030303"/>
          <path id="Trazado_875964" data-name="Trazado 875964" d="M70.348,242.074s-4.957-4.6-5.733-7.452c0,0,18.136-21.732,22.071-26.6.18-.223.135-.469-.1-.738-2.969-3.35-35.97-10.157-40.284-16.868a20.819,20.819,0,0,1-2.787-6.425,15.208,15.208,0,0,1-.2-6.923l32.958-.954S103.7,193.2,106.812,204.85s-36.465,37.224-36.465,37.224" transform="translate(7.314 29.942)" fill="#1a1a1a"/>
          <path id="Trazado_875965" data-name="Trazado 875965" d="M86.51,207.064c-2.969-3.35-35.97-10.157-40.284-16.868a20.807,20.807,0,0,1-2.787-6.425V179.6l14.007-2.2S61.42,189.62,73.184,194.2C84.2,198.5,86.29,206.115,86.51,207.064" transform="translate(7.385 30.161)" fill="#080808"/>
          <path id="Trazado_875966" data-name="Trazado 875966" d="M66.3,129.494c-6.668,1.723-17.72-4.454-17.72-4.454a16.358,16.358,0,0,0,5.882-9.22c.082-.319.153-.647.219-.983.7-.149,2.016-.428,3.423-.725l5.093,4.562a43.735,43.735,0,0,1-.753,5.15c-.11.569-.236,1.178-.384,1.828a15.719,15.719,0,0,1,4.24,3.842" transform="translate(8.259 19.401)" fill="#cbbfdd"/>
          <path id="Trazado_875967" data-name="Trazado 875967" d="M42.573,155.926c.955,12.844-.3,32.379.782,35.763.935,2.919,11.589,1.183,15.841.208,1.574-.36,3.481-.875,5.45-1.485,5.492-1.7,11.476-4.129,12.118-5.931a1.71,1.71,0,0,0,.06-.208,1.663,1.663,0,0,0-.012-.756c-.214-.918-1.039-1.912-1.136-4.187-.109-2.54-.092-5.532-.187-8.748-.006-.363-.011-.757-.05-1.119v-.131c0-.069,0-.137,0-.206-.092-3.587-.281-7.359-.5-11.1-.139-2.348-.3-4.675-.483-6.9a92.3,92.3,0,0,0-1.979-14.106A22.648,22.648,0,0,0,65.2,125.784l-2.026-1.739a11.724,11.724,0,0,1-7.355-.979c-2.617-1.243-3.521-2.134-3.977-1.8-6.045,4.665-10.393,18.955-9.265,34.658" transform="translate(7.208 20.605)" fill="#eabd7c"/>
          <path id="Trazado_875968" data-name="Trazado 875968" d="M63.682,187.559c5.492-1.7,11.477-4.129,12.118-5.931a1.523,1.523,0,0,0,.06-.208q-.005-.377-.012-.756c-.214-.918-1.039-1.913-1.136-4.188-.109-2.54-.092-5.532-.187-8.749,0-.362-.011-.757-.049-1.117l0-.131c0-.07,0-.137,0-.206l-22.2-28.288s-14.925,31.079,11.416,49.574" transform="translate(8.17 23.46)" fill="#de9935"/>
          <path id="Trazado_875969" data-name="Trazado 875969" d="M62.342,118.674a43.735,43.735,0,0,1-.753,5.15c-4.973-1.608-7.228-6.1-7.981-8,.081-.319.152-.647.218-.983.7-.149,2.016-.428,3.425-.725Z" transform="translate(9.114 19.401)" fill="#b8a8d0"/>
          <path id="Trazado_875970" data-name="Trazado 875970" d="M63.056,123.267s-10.845-1.81-9.614-8.546.661-11.507,7.637-10.637,7.848,3.687,7.984,6.035-3.154,13.445-6.007,13.147" transform="translate(9.07 17.679)" fill="#cbbfdd"/>
          <path id="Trazado_875971" data-name="Trazado 875971" d="M81.949,173.751l27.085,0,7.359-23.8.961.3L109.573,175.4H81.937Z" transform="translate(13.931 25.494)" fill="#171717"/>
          <path id="Trazado_875972" data-name="Trazado 875972" d="M75.81,171.611s8.876,2.34,12.2,2.094,6.1-1.829,6.516-2.655,1.3-2.292-.969-2.022-5.36.752-5.456.317,1.847-.394,1.847-.394.587-.854-.151-.885-2.9-.617-3.7-.216-1.541,1.88-2.127,1.818-7.427-3.082-7.427-3.082Z" transform="translate(12.889 28.323)" fill="#cbbfdd"/>
          <path id="Trazado_875973" data-name="Trazado 875973" d="M48.94,131.277s1.05,35.784,8.909,39.851c3.877,2.007,21.387,7.522,26.642,8.464,0,0,1.413-.909,1.573-5.226,0,0-17.99-8.966-20.24-13.007-3.346-6.012,4.988-22.492.592-28.279s-12.526-8.965-17.475-1.8" transform="translate(8.321 21.618)" fill="#eabd7c"/>
          <path id="Trazado_875974" data-name="Trazado 875974" d="M53.939,118.2a5.131,5.131,0,0,1,1.3-3.635s-.5-2.318.42-2.7,1.107,1.567,1.528,1.26a9.362,9.362,0,0,0,3.094-3.9c.8-2.139,8.143.453,9,.838s3.606-1.028,4.141-2.174a16.092,16.092,0,0,1-2.215-2.139c-.688-.917-5.5-7.106-12.223-5.348s-7.639,4.966-7.258,7.716-.541,9.154,2.213,10.077" transform="translate(8.782 17.018)" fill="#080808"/>
          <path id="Trazado_875975" data-name="Trazado 875975" d="M71.168,190.413h0a75.529,75.529,0,0,1-29.656-6.065l-6.084-2.6a8.371,8.371,0,0,0-11.659,7.7v11.612a2.06,2.06,0,0,0,2.055,2.055H71.168a2.06,2.06,0,0,0,2.055-2.055v-8.594a2.06,2.06,0,0,0-2.055-2.055" transform="translate(4.041 30.785)" fill="#ddc773"/>
          <path id="Trazado_875976" data-name="Trazado 875976" d="M221.243,200.136a108.945,108.945,0,0,1-25.873,1.443c-7.124-.559-11.287-2.757-11.718-5.266-.391-2.273,2.248-4.879,7.629-7.535-5.156,2.545-7.657,5.411-7.3,7.479.393,2.294,4.55,3.92,11.4,4.458a109.017,109.017,0,0,0,25.67-1.681,109.044,109.044,0,0,0,24.762-6.974c6.281-2.793,9.659-5.71,9.264-8-.418-2.43-4.9-4.769-11.7-6.1-7.734-1.519-16.859-1.007-25.849.535-16.878,2.9-23.488,6.06-29.092,9.564,5.629-3.519,12.009-7.507,28.946-10.414a74.071,74.071,0,0,1,26.047-.036c6.945,1.363,11.536,3.815,11.98,6.4.431,2.509-2.929,5.49-9.458,8.391a106.118,106.118,0,0,1-24.706,7.747" transform="translate(31.218 30.002)" fill="#e4d28f"/>
          <path id="Trazado_875977" data-name="Trazado 875977" d="M311.839,170.106s-.553,5.382-1.161,6.4-3.194,4.272-4.3,4.909.673-4.286.448-5.244-.907,1.748-1.392,1.812-.36-2.374-.378-3.26,2.362-3.076,3.2-4.964,3.577.346,3.577.346" transform="translate(51.865 28.733)" fill="#cbbfdd"/>
          <path id="Trazado_875978" data-name="Trazado 875978" d="M255.65,128.874l-1.237-2.334s.613-4.158-4.6-6.79a2.545,2.545,0,0,0-2.98.778c-.99,1.431,1.887,1.172,1.733,3.62a4.5,4.5,0,0,0,2.624,4.681l1.337,1.548Z" transform="translate(41.931 20.327)" fill="#cbbfdd"/>
          <path id="Trazado_875979" data-name="Trazado 875979" d="M304.314,122.868s-4.475,21.964-29.1,29.14c-7.687,2.241-25.151-23.068-25.151-23.068s.614-2.333,4.46-1.8c0,0,17.005,11.257,19.145,12.481,1.9,1.085,14.392-13.95,20.087-16.374a14.535,14.535,0,0,1,10.561-.381" transform="translate(42.515 20.753)" fill="#4f4f4f"/>
          <rect id="Rectángulo_402773" data-name="Rectángulo 402773" width="4.6" height="23.137" transform="translate(280.601 143.848) rotate(-81.266)" fill="#e4d28f"/>
          <path id="Trazado_875980" data-name="Trazado 875980" d="M235.58,120.516l4.968,3.09.7-4.547Z" transform="translate(40.053 20.242)" fill="#cbbfdd"/>
          <path id="Trazado_875981" data-name="Trazado 875981" d="M262.5,123.977l-.221,1.438a1.619,1.619,0,0,1-1.846,1.355l-1.058-.163.7-4.547,1.15.177a1.526,1.526,0,0,1,1.276,1.74" transform="translate(44.098 20.753)" fill="#cbbfdd"/>
          <path id="Trazado_875982" data-name="Trazado 875982" d="M323.166,240.953s3.055,2.788,2.459,4.769-3.353,3.3-3.727,5.723-1.863,3.742-3.2,3.742H312.3s-.987-1.7,1.4-2.217,3.283-3.358,3.134-6a46.412,46.412,0,0,1,.223-6.162l5.066-1.175Z" transform="translate(53.062 40.742)" fill="#080808"/>
          <path id="Trazado_875983" data-name="Trazado 875983" d="M292.133,247.281s.549,6.345-.793,7l-17.164-.035s0-1.981,2.757-2.421,7.6-2.055,8.419-5.65,6.781,1.1,6.781,1.1" transform="translate(46.615 41.625)" fill="#080808"/>
          <path id="Trazado_875984" data-name="Trazado 875984" d="M277.138,170.543s.906,11.122,1.969,24.492c1.446,18.161,3.186,40.469,3.358,44.695.3,7.338,1.491,19.077,1.491,19.077s2.83,2.788,8.494,1.613a189.476,189.476,0,0,0,6.49-34.487c.022-.29.044-.583.067-.875,1.341-18.05,3.427-56.056,3.427-56.056Z" transform="translate(47.118 28.733)" fill="#1a1a1a"/>
          <path id="Trazado_875985" data-name="Trazado 875985" d="M277.138,170.543s.906,11.122,1.969,24.492l19.833,30.9c.022-.29.044-.583.067-.875,1.341-18.05,3.427-56.056,3.427-56.056Z" transform="translate(47.118 28.733)" fill="#080808"/>
          <path id="Trazado_875986" data-name="Trazado 875986" d="M280.672,172.5s16.318,40.28,27.048,59.209S321.8,255.925,321.8,255.925s6.147-2.421,6.707-4.072c0,0-4.1-36.544-11.288-45.453-4.061-5.033-8.83-20.14-9.054-25.422s-1.453-15.738-1.453-15.738Z" transform="translate(47.719 28.094)" fill="#1a1a1a"/>
          <path id="Trazado_875987" data-name="Trazado 875987" d="M301.552,120.338s-11.042,5.327-17.406,3.351a15.017,15.017,0,0,1,4.309-3.447c-.221-1.278-.392-2.387-.49-3.328a30.743,30.743,0,0,1-.269-3.4l4.259-3.35,4.04-3.207c-.318,9.016,5.558,13.379,5.558,13.379" transform="translate(48.31 18.185)" fill="#cbbfdd"/>
          <path id="Trazado_875988" data-name="Trazado 875988" d="M308.7,175.632c.025.675-1.422,1.446-2.058,1.735a45.1,45.1,0,0,1-14.126,4c-5.9.6-12.876-.724-15.276-.676a1,1,0,0,1-.661-.264c-.172-.121-.294-7.232-.172-16.174,0-.363,0-.724.026-1.086v-.121c.049-3.495.171-7.159.343-10.823.343-8.052.978-15.814,2.057-20.106a21.793,21.793,0,0,1,6.9-10.847l2.2-1.928a10.592,10.592,0,0,0,6.856-.819c2.545-1.23,5.287-2.556,5.728-2.218,3.33,2.435,5.581,7.907,6.78,14.9a77.468,77.468,0,0,1,1,13.257c0,1.736-.049,3.519-.146,5.279a166.683,166.683,0,0,0,.343,22.635c.1,1.4.171,2.484.2,3.255" transform="translate(46.985 19.765)" fill="gray"/>
          <path id="Trazado_875989" data-name="Trazado 875989" d="M306.625,173.021c-38.663-.077-7.131-41.954-7.131-41.954l6.264-2.033a121.846,121.846,0,0,1,.725,14.164c0,1.854-.035,3.76-.106,5.641-.425,10.2,0,19.058.248,24.183" transform="translate(48.859 21.938)" fill="#4f4f4f"/>
          <path id="Trazado_875990" data-name="Trazado 875990" d="M295.552,109.941s-2.79,5.086-8.1,6.509a30.762,30.762,0,0,1-.269-3.4l4.26-3.351Z" transform="translate(48.825 18.651)" fill="#b8a8d0"/>
          <path id="Trazado_875991" data-name="Trazado 875991" d="M285.818,114.931s10.533,1.723,11.522-4.753,3.014-10.613-3.669-11.987-8.37.9-9.235,2.985-1.333,13.139,1.382,13.755" transform="translate(48.245 16.623)" fill="#cbbfdd"/>
          <path id="Trazado_875992" data-name="Trazado 875992" d="M301.663,97.988c.1-.11.316-.2.807-.225a1.993,1.993,0,0,0-.917-.259,2.47,2.47,0,0,0-1.64-2.184,1.472,1.472,0,0,1,.714,1.062c-1.361-1.4-4.275-2.414-12.348-1.777-10.638.84-7.131,7.652-5.754,8.464s4.844-1.415,7.41-1.211,3.054,3.911,3.924,4.42.529-.391,1.706-.923,1.291,1.419.95,2.689,1.278,2.943,1.278,2.943l1.636-1.762c1.636-1.761,3.177-9.221,2.434-10.811l-.2-.426" transform="translate(47.75 16.052)" fill="#0a0a0a"/>
          <path id="Trazado_875993" data-name="Trazado 875993" d="M297.736,116.254s6.664,3.156,9.86,8.008c4.956,7.526,10.7,34.952,10.807,37.492s-4.193,20.469-4.193,20.469-4.361-.288-5.485-2.489c0,0,.871-18.422.319-19.607s-18.18-24.712-16.2-29.732,4.889-14.141,4.889-14.141" transform="translate(49.763 19.765)" fill="gray"/>
          <path id="Trazado_875994" data-name="Trazado 875994" d="M253.736,126.048s.363-1.431-.631-2.074-1.907-2.394-2.325-2.156c-.868.49.474,2.017.228,3.922-.085.667,1.467,2.415,2.727.309" transform="translate(42.587 20.707)" fill="#cbbfdd"/>
          <path id="Trazado_875995" data-name="Trazado 875995" d="M.4,253.762H447.456a.531.531,0,0,0,0-1.028H.4a.531.531,0,0,0,0,1.028" transform="translate(0 42.969)"/>
        </g>
      </g>
    </g>
  </g>
</svg>
