<svg xmlns="http://www.w3.org/2000/svg" xmlns:xlink="http://www.w3.org/1999/xlink" width="104" height="104" viewBox="0 0 104 104">
  <defs>
    <clipPath id="clip-path">
      <rect id="Rectángulo_402678" data-name="Rectángulo 402678" width="59.545" height="71.442" fill="none" stroke="#000" stroke-width="1"/>
    </clipPath>
  </defs>
  <g id="Grupo_1102509" data-name="Grupo 1102509" transform="translate(-180 -614.218)">
    <g id="Grupo_1102352" data-name="Grupo 1102352">
      <g id="Elipse_11492" data-name="Elipse 11492" transform="translate(180 614.218)" fill="#a98bc4" stroke="#fff" stroke-width="2">
        <circle cx="52" cy="52" r="52" stroke="none"/>
        <circle cx="52" cy="52" r="51" fill="none"/>
      </g>
      <g id="Grupo_1102351" data-name="Grupo 1102351" transform="translate(202.278 630.496)">
        <g id="Grupo_1102350" data-name="Grupo 1102350" clip-path="url(#clip-path)">
          <path id="Trazado_875673" data-name="Trazado 875673" d="M63.523,20.156c4.871,0,8.635,3.317,8.231,7.726a33.49,33.49,0,0,1-2.06,7.612c-.3.86-1.326,1.441-1.854,2.257A3.44,3.44,0,0,0,67.2,39.79c.045.411.827.919,1.364,1.064,1.524.413,3.1.638,4.642.98a7.1,7.1,0,0,1,5.723,7.835c-.058.5-.767.926-1.174,1.387-.386-.482-1.063-.934-1.114-1.449-.406-4.072-3.059-6.42-7.031-6.028-.287.028-.611.4-.79.694-2.657,4.352-7.945,4.353-10.61.009-.188-.307-.653-.706-.92-.66a19.74,19.74,0,0,0-4.166.981,4.376,4.376,0,0,0-2.679,4.118c-.027.493.1,1.073-.114,1.455s-.877.9-1.183.807a1.765,1.765,0,0,1-1.049-1.167,7.154,7.154,0,0,1,5.439-7.923c1.634-.39,3.312-.6,4.934-1.031.537-.142,1.314-.662,1.36-1.078a2.639,2.639,0,0,0-.647-2.014,7.6,7.6,0,0,1-2.815-5.664,2.684,2.684,0,0,0-.218-.99c-2.548-5.733.959-10.961,7.364-10.96m-5.549,9.508a12.09,12.09,0,0,0,1.556-1.88c.735-1.454,1.05-1.458,2.453-.706a33.7,33.7,0,0,0,5.528,2.361c1.519.49,1.879.069,1.944-1.583.121-3.081-2.416-5.324-6.006-5.311-3.474.012-5.992,2.292-5.842,5.318a14.386,14.386,0,0,0,.367,1.8m10.2,2.621L61.2,29.88a7.3,7.3,0,0,1-1.516,1.229c-.946.435-1.005,1.082-.812,1.93a4.787,4.787,0,0,0,5.022,3.75,4.57,4.57,0,0,0,4.278-4.5m-7.7,11.056A3.249,3.249,0,0,0,63.632,45.1a3.188,3.188,0,0,0,2.935-1.757l-2.316-4.1H62.834L60.47,43.341" transform="translate(-33.745 -14.164)" stroke="#000" stroke-width="1"/>
          <path id="Trazado_875674" data-name="Trazado 875674" d="M.042,35.68c0-9.556.094-19.114-.04-28.668C-.065,2.33,2.833-.613,8.4.108A1.575,1.575,0,0,1,9.456,1.226c.005.391-.6.881-1.041,1.153-.291.179-.772.052-1.167.054-3.746.01-4.817,1.1-4.817,4.9v45.75c0,3.961-.01,7.922,0,11.883C2.442,67.6,3.83,69,6.455,69.014c2.723.015,5.446,0,8.17,0,.9,0,1.992-.1,2.011,1.154.021,1.371-1.137,1.233-2.078,1.234-2.674,0-5.347.012-8.021,0-4.046-.02-6.485-2.433-6.49-6.46q-.02-14.631,0-29.262" transform="translate(0 0)" stroke="#000" stroke-width="1"/>
          <path id="Trazado_875675" data-name="Trazado 875675" d="M104.814,122.645c0,5.2.009,10.4,0,15.6-.01,4.227-2.4,6.6-6.655,6.6q-15.827.012-31.654,0c-.346,0-.787.114-1.019-.054-.427-.308-.95-.756-1.01-1.2-.043-.318.547-.846.967-1.064a3.116,3.116,0,0,1,1.318-.065q15.6,0,31.208,0c3.225,0,4.459-1.25,4.46-4.515q0-15.53,0-31.059a3.049,3.049,0,0,1,.055-1.317c.244-.452.748-1.054,1.139-1.053a1.613,1.613,0,0,1,1.121,1.05,11.185,11.185,0,0,1,.071,2.514q0,7.282,0,14.564" transform="translate(-45.305 -73.446)" stroke="#000" stroke-width="1"/>
          <path id="Trazado_875676" data-name="Trazado 875676" d="M62.22.148q9.511,0,19.022,0C85.5.156,87.9,2.519,87.9,6.741q.017,9.957,0,19.914a2.493,2.493,0,0,1-.154,1.3,1.549,1.549,0,0,1-1.169.654,1.647,1.647,0,0,1-.987-.914,3.31,3.31,0,0,1-.071-1.32q0-9.659,0-19.319c0-3.266-1.233-4.515-4.457-4.516q-19.022,0-38.044,0c-.347,0-.754.116-1.028-.025-.581-.3-1.473-.665-1.555-1.125-.18-1,.687-1.242,1.575-1.241q7.8.011,15.6,0H62.22" transform="translate(-28.397 -0.102)" stroke="#000" stroke-width="1"/>
          <path id="Trazado_875677" data-name="Trazado 875677" d="M34.206,139.3c-2.72,0-5.44-.04-8.159.017-1.37.029-2.039-.445-1.964-1.886.064-1.233.025-2.472.011-3.708-.012-1.033.455-1.567,1.512-1.567q8.6.005,17.209,0c1.058,0,1.519.54,1.509,1.571q-.021,2,0,4.005c.014,1.142-.569,1.582-1.662,1.574-2.819-.02-5.637-.007-8.456-.006m7.663-4.655H26.552v2.19H41.869Z" transform="translate(-16.919 -92.866)" stroke="#000" stroke-width="1"/>
          <path id="Trazado_875678" data-name="Trazado 875678" d="M34.248,171.3c-2.671,0-5.341.005-8.011,0-1.906,0-2.095-.2-2.1-2.16,0-1.137.012-2.275,0-3.412-.013-1.032.45-1.571,1.508-1.57q8.6,0,17.209,0c1.056,0,1.523.534,1.512,1.567-.013,1.335-.016,2.67,0,4.005.014,1.139-.563,1.585-1.658,1.577-2.819-.02-5.637-.007-8.456-.006m7.619-4.649H26.6v2.195H41.867Z" transform="translate(-16.958 -115.354)" stroke="#000" stroke-width="1"/>
          <path id="Trazado_875679" data-name="Trazado 875679" d="M34.2,203.3c-2.72,0-5.44-.041-8.159.017-1.376.029-2.032-.457-1.957-1.893.064-1.233.024-2.472.011-3.708-.011-1.036.464-1.561,1.518-1.56q8.6.006,17.209,0c1.06,0,1.514.549,1.5,1.577-.014,1.236-.053,2.475.011,3.708.075,1.451-.616,1.9-1.976,1.876-2.719-.056-5.439-.017-8.159-.017m7.67-4.655H26.552v2.191H41.869Z" transform="translate(-16.919 -137.839)" stroke="#000" stroke-width="1"/>
          <path id="Trazado_875680" data-name="Trazado 875680" d="M118.22,134.532c-2.719,0-5.438-.008-8.157,0-.851,0-1.706-.092-1.745-1.133-.043-1.15.847-1.264,1.76-1.263q8.306.012,16.611,0c.851,0,1.707.091,1.745,1.132.043,1.148-.847,1.268-1.761,1.264-2.818-.011-5.636,0-8.454,0" transform="translate(-76.115 -92.856)" stroke="#000" stroke-width="1"/>
          <path id="Trazado_875681" data-name="Trazado 875681" d="M118.368,164.144c2.768,0,5.537.007,8.305,0,.913,0,1.8.113,1.762,1.262-.038,1.04-.892,1.136-1.744,1.134q-8.305-.013-16.611,0c-.913,0-1.8-.114-1.761-1.263.038-1.042.893-1.137,1.744-1.133,2.768.012,5.537,0,8.305,0" transform="translate(-76.115 -115.342)" stroke="#000" stroke-width="1"/>
          <path id="Trazado_875682" data-name="Trazado 875682" d="M118.368,196.144c2.768,0,5.537.007,8.305,0,.913,0,1.8.113,1.762,1.262-.038,1.04-.893,1.136-1.744,1.134q-8.305-.013-16.611,0c-.913,0-1.8-.114-1.761-1.263.038-1.042.893-1.137,1.744-1.133,2.768.012,5.537,0,8.305,0" transform="translate(-76.115 -137.829)" stroke="#000" stroke-width="1"/>
          <path id="Trazado_875683" data-name="Trazado 875683" d="M112.753,150.479a20.544,20.544,0,0,1-3.247-.053c-.474-.076-.854-.73-1.277-1.121.415-.4.814-1.12,1.248-1.142,2.312-.115,4.637-.115,6.95,0,.441.022.849.73,1.272,1.121-.415.4-.793,1.081-1.253,1.142a28.031,28.031,0,0,1-3.692.055" transform="translate(-76.053 -104.054)" stroke="#000" stroke-width="1"/>
          <path id="Trazado_875684" data-name="Trazado 875684" d="M112.945,182.467a23.755,23.755,0,0,1-3.4-.052c-.483-.07-.883-.7-1.321-1.079.45-.415.88-1.162,1.351-1.188a64.951,64.951,0,0,1,6.8,0c.456.023.879.7,1.317,1.079-.45.415-.854,1.106-1.358,1.189a20.989,20.989,0,0,1-3.394.056" transform="translate(-76.053 -126.527)" stroke="#000" stroke-width="1"/>
          <path id="Trazado_875685" data-name="Trazado 875685" d="M112.961,214.467a23.892,23.892,0,0,1-3.4-.051c-.486-.07-.893-.694-1.335-1.066.444-.42.87-1.176,1.337-1.2a64.951,64.951,0,0,1,6.8-.007c.46.023.888.694,1.331,1.065-.445.42-.843,1.119-1.343,1.2a20.847,20.847,0,0,1-3.394.057" transform="translate(-76.053 -149.014)" stroke="#000" stroke-width="1"/>
        </g>
      </g>
    </g>
  </g>
</svg>
