<svg xmlns="http://www.w3.org/2000/svg" xmlns:xlink="http://www.w3.org/1999/xlink" width="104" height="104" viewBox="0 0 104 104">
  <defs>
    <clipPath id="clip-path">
      <rect id="Rectángulo_402576" data-name="Rectángulo 402576" width="42.392" height="57.725" fill="none"/>
    </clipPath>
  </defs>
  <g id="Grupo_1102507" data-name="Grupo 1102507" transform="translate(-1118.051 -1986)">
    <g id="Grupo_1102219" data-name="Grupo 1102219">
      <g id="Grupo_1102218" data-name="Grupo 1102218" transform="translate(96 1592)">
        <g id="Elipse_11492" data-name="Elipse 11492" transform="translate(1022.051 394)" fill="#95dbb3" stroke="#fff" stroke-width="2">
          <circle cx="52" cy="52" r="52" stroke="none"/>
          <circle cx="52" cy="52" r="51" fill="none"/>
        </g>
        <g id="Elipse_11500" data-name="Elipse 11500" transform="translate(1030.802 402.752)" fill="none" stroke="#000" stroke-width="2" stroke-dasharray="5">
          <circle cx="43.758" cy="43.758" r="43.758" stroke="none"/>
          <circle cx="43.758" cy="43.758" r="42.758" fill="none"/>
        </g>
      </g>
      <g id="Grupo_1102214" data-name="Grupo 1102214" transform="translate(1149.051 2009)">
        <g id="Grupo_1102213" data-name="Grupo 1102213" clip-path="url(#clip-path)">
          <path id="Trazado_875302" data-name="Trazado 875302" d="M31.538,21.638c.7,0,1.22.028,1.737,0a8.81,8.81,0,0,1,8.308,12.511A8.274,8.274,0,0,1,36.6,38.734c-1.167.415-1.172.413-1.172,1.656,0,4.871.014,9.743-.022,14.614a3.982,3.982,0,0,1-.463,1.8,1.932,1.932,0,0,1-1.82.918c-.974,0-1.949,0-2.924,0q-13.551,0-27.1,0C.744,57.722,0,56.983,0,54.631Q0,43.895,0,33.159c0-2.207.81-3.058,3-3.173.99-.052,1.039-.086,1.042-1.144.009-3.185.025-6.37,0-9.555A3.246,3.246,0,0,1,6.2,15.851c.56-.21.578-.6.592-1.064.052-1.683.062-3.369.184-5.046A10.828,10.828,0,0,1,28.159,7.854a18.218,18.218,0,0,1,.443,4.218c.022,1.14-.721,1.739-1.879,1.781-.487.018-.975.018-1.462,0a1.817,1.817,0,0,1-2.031-1.91,6.045,6.045,0,0,1-.021-1.123c.243-2.759-2.418-5.523-5.478-5.514a5.53,5.53,0,0,0-5.5,5.527c-.02,1.161-.011,2.323,0,3.485.008,1.232.045,1.277,1.256,1.279q6.185.01,12.371,0c.637,0,1.275-.009,1.912,0a3.473,3.473,0,0,1,3.765,3.591c.049.78.008,1.565.008,2.445M17.884,42.395q-7.136,0-14.271,0c-1.514,0-1.519,0-1.52,1.466q0,5.167,0,10.334c0,1.522.08,1.61,1.567,1.61q14.159.005,28.318,0c1.389,0,1.524-.143,1.527-1.568q.008-5.167,0-10.334c0-1.5,0-1.507-1.463-1.508q-7.079,0-14.159,0m7.892-7.5c-.161-.411-.233-.619-.324-.819a8.891,8.891,0,0,1-.594-5.279,8.573,8.573,0,0,1,3.711-5.675c.425-.3.91-.528.892-1.182-.027-.973.027-1.949-.026-2.92a1.264,1.264,0,0,0-1.273-1.309,7.616,7.616,0,0,0-.9-.022q-9.441,0-18.883,0a7.368,7.368,0,0,0-1.01.032,1.241,1.241,0,0,0-1.227,1.337c-.029.448-.012.9-.012,1.348,0,2.809-.007,5.618,0,8.426,0,1.07.083,1.136,1.159,1.153.862.013,1.724.021,2.585,0a3.878,3.878,0,0,1,2.423.736q2.383,1.69,4.8,3.332a3.538,3.538,0,0,0,1.564.805c2.312.089,4.628.038,7.109.038M17.7,40.305q7.139,0,14.279,0a3.865,3.865,0,0,0,1.005-.044c.192-.053.455-.321.45-.485s-.287-.344-.473-.482c-.076-.057-.218-.023-.33-.034a8.239,8.239,0,0,1-4.345-1.681,2.812,2.812,0,0,0-1.872-.573c-2.473.019-4.947-.006-7.42.014a3.985,3.985,0,0,1-2.414-.767c-1.774-1.255-3.55-2.506-5.356-3.713A2.634,2.634,0,0,0,9.893,32.1c-2.21-.045-4.422-.031-6.633-.016-1.033.007-1.153.132-1.162,1.183-.016,1.91-.01,3.821,0,5.732,0,1.3.011,1.307,1.33,1.307q7.139.005,14.279,0m9.12-9.833A6.682,6.682,0,0,0,33.5,37.207a6.749,6.749,0,1,0,.077-13.5,6.647,6.647,0,0,0-6.752,6.763M8.871,12.584c0,.7-.024,1.263.007,1.823.026.478-.2,1.182.646,1.149.823-.032.584-.733.6-1.206.031-1.122-.031-2.247.025-3.366a10.314,10.314,0,0,1,.344-2.316A7.541,7.541,0,0,1,24.9,8.415a25.586,25.586,0,0,1,.415,2.637.988.988,0,0,0,.55.659c.455.123.7-.207.665-.655a16.61,16.61,0,0,0-.215-2.112,8.776,8.776,0,0,0-16.059-2.7,10.685,10.685,0,0,0-1.391,6.337" transform="translate(0 0.001)"/>
          <path id="Trazado_875303" data-name="Trazado 875303" d="M134.254,28.343c.887-.023,1.445.627,1.13,1.266a40.819,40.819,0,0,1-2.095,3.679.866.866,0,0,1-1.282.249.9.9,0,0,1-.407-1.246c.643-1.174,1.3-2.339,2.007-3.477.155-.25.511-.376.646-.47" transform="translate(-101.924 -21.971)"/>
          <path id="Trazado_875304" data-name="Trazado 875304" d="M147.324,45.353c.185.15.578.321.693.6s.09.887-.1,1.009a41.161,41.161,0,0,1-3.929,2.3c-.224.114-.861-.243-1.064-.545a1.081,1.081,0,0,1,.163-1.055c1.246-.8,2.558-1.508,3.85-2.241a1.776,1.776,0,0,1,.384-.068" transform="translate(-110.741 -35.158)"/>
          <path id="Trazado_875305" data-name="Trazado 875305" d="M149.472,69.259c.633,0,1.266-.009,1.9,0a.937.937,0,0,1,1.04.812.915.915,0,0,1-.835,1.124,37.485,37.485,0,0,1-4.217-.017.912.912,0,0,1-.845-1.115.972.972,0,0,1,1.061-.8c.632-.018,1.265,0,1.9,0" transform="translate(-113.566 -53.686)"/>
          <path id="Trazado_875306" data-name="Trazado 875306" d="M25.542,226.177c-.709,0-1.42.029-2.127-.008-.727-.038-1.171-.448-1.107-.99a.978.978,0,0,1,1.1-.894c1.493-.012,2.986-.013,4.479,0a.863.863,0,0,1,.951.99.851.851,0,0,1-.94.889c-.783.018-1.568,0-2.351,0v0" transform="translate(-17.289 -173.859)"/>
          <path id="Trazado_875307" data-name="Trazado 875307" d="M67.355,110.551c-.187,0-.375,0-.562,0-1.837-.023-2.327-.616-1.979-2.459a2.859,2.859,0,0,0-.346-2.136,3.266,3.266,0,0,1,.751-4.249,3.467,3.467,0,0,1,4.356.065,3.376,3.376,0,0,1,.608,4.295,2.052,2.052,0,0,0-.322,1.8,4.4,4.4,0,0,1,.135,1,1.45,1.45,0,0,1-1.407,1.67,12.287,12.287,0,0,1-1.235.007v.013m-.4-2.181c.8.163.855-.183.756-.735a2.358,2.358,0,0,1,.608-2.556,1.1,1.1,0,0,0-.1-1.688,1.23,1.23,0,0,0-1.786,1.69,2.043,2.043,0,0,1,.606,2.319,5.328,5.328,0,0,0-.082.971" transform="translate(-49.61 -78.272)"/>
          <path id="Trazado_875308" data-name="Trazado 875308" d="M134.073,122.063c-.462-.489-.84-.892-1.221-1.291-.259-.271-.534-.527-.784-.805-.423-.469-.6-1-.092-1.492a1.073,1.073,0,0,1,1.53.023c.376.307.7.675,1.054,1.012.319.305.644.605,1.044.979.362-.323.667-.583.956-.858.353-.335.678-.7,1.044-1.023a1.183,1.183,0,0,1,1.618-.167,1.155,1.155,0,0,1-.136,1.615c-.594.66-1.229,1.282-1.909,1.987.356.389.623.69.9.982.206.218.425.424.635.638.828.842,1,1.554.5,2.022-.478.443-1.152.268-1.944-.5-.506-.493-1.013-.984-1.6-1.557-.358.311-.666.563-.956.835-.41.384-.782.813-1.216,1.166a1.059,1.059,0,0,1-1.526,0c-.5-.5-.31-1.035.118-1.492.632-.676,1.283-1.333,1.993-2.068" transform="translate(-102.066 -91.601)"/>
        </g>
      </g>
    </g>
  </g>
</svg>
