<svg xmlns="http://www.w3.org/2000/svg" xmlns:xlink="http://www.w3.org/1999/xlink" width="83.184" height="83.184" viewBox="0 0 83.184 83.184">
  <defs>
    <clipPath id="clip-path">
      <rect id="Rectángulo_403404" data-name="Rectángulo 403404" width="83.184" height="83.184" fill="none"/>
    </clipPath>
  </defs>
  <g id="Grupo_1103770" data-name="Grupo 1103770" transform="translate(-644.054 -11289.379)">
    <g id="Grupo_1103722" data-name="Grupo 1103722" transform="translate(644.054 11289.379)">
      <g id="Grupo_1103721" data-name="Grupo 1103721" clip-path="url(#clip-path)">
        <path id="Trazado_877041" data-name="Trazado 877041" d="M41.592,0A41.592,41.592,0,1,1,0,41.592,41.592,41.592,0,0,1,41.592,0" transform="translate(0 0)" fill="#a98bc4"/>
        <circle id="Elipse_11539" data-name="Elipse 11539" cx="40.592" cy="40.592" r="40.592" transform="translate(1 1)" fill="none" stroke="#fff" stroke-width="2"/>
        <circle id="Elipse_11540" data-name="Elipse 11540" cx="34" cy="34" r="34" transform="translate(8 8)" fill="none" stroke="#000" stroke-width="2" stroke-dasharray="5 5"/>
        <path id="Trazado_877042" data-name="Trazado 877042" d="M45.2,39.423l1.337,1.413L48.4,38.423" transform="translate(0 0)" fill="none" stroke="#000" stroke-linecap="round" stroke-linejoin="round" stroke-width="1.289"/>
        <path id="Trazado_877043" data-name="Trazado 877043" d="M50.939,39.423l1.337,1.413,1.861-2.413" transform="translate(0 0)" fill="none" stroke="#000" stroke-linecap="round" stroke-linejoin="round" stroke-width="1.289"/>
        <path id="Trazado_877044" data-name="Trazado 877044" d="M56.681,39.423l1.337,1.413,1.861-2.413" transform="translate(0 0)" fill="none" stroke="#000" stroke-linecap="round" stroke-linejoin="round" stroke-width="1.289"/>
        <path id="Trazado_877045" data-name="Trazado 877045" d="M23.419,58.983a2.089,2.089,0,1,0,3.622.048" transform="translate(0 0)" fill="none" stroke="#000" stroke-linejoin="round" stroke-width="1.289"/>
        <path id="Trazado_877046" data-name="Trazado 877046" d="M34.345,59.032a2.089,2.089,0,1,0,3.622-.048" transform="translate(0 0)" fill="none" stroke="#000" stroke-linejoin="round" stroke-width="1.289"/>
        <rect id="Rectángulo_403395" data-name="Rectángulo 403395" width="9.835" height="8.105" transform="translate(25.775 24.827)" fill="none" stroke="#000" stroke-linecap="round" stroke-linejoin="round" stroke-width="1.289"/>
        <path id="Trazado_877047" data-name="Trazado 877047" d="M33.352,32.932v-.213a2.634,2.634,0,0,0-2.634-2.634h-.049a2.634,2.634,0,0,0-2.635,2.634v.213Z" transform="translate(0 0)" fill="none" stroke="#000" stroke-linecap="round" stroke-linejoin="round" stroke-width="1.289"/>
        <line id="Línea_783" data-name="Línea 783" y2="15.117" transform="translate(25.07 38.271)" fill="none" stroke="#000" stroke-linecap="round" stroke-linejoin="round" stroke-width="1.289"/>
        <line id="Línea_784" data-name="Línea 784" y2="15.117" transform="translate(28.819 38.271)" fill="none" stroke="#000" stroke-linecap="round" stroke-linejoin="round" stroke-width="1.289"/>
        <line id="Línea_785" data-name="Línea 785" y2="15.117" transform="translate(32.567 38.271)" fill="none" stroke="#000" stroke-linecap="round" stroke-linejoin="round" stroke-width="1.289"/>
        <line id="Línea_786" data-name="Línea 786" y2="15.117" transform="translate(36.316 38.271)" fill="none" stroke="#000" stroke-linecap="round" stroke-linejoin="round" stroke-width="1.289"/>
        <path id="Trazado_877048" data-name="Trazado 877048" d="M21.008,49.018v7.074a2.94,2.94,0,0,0,2.94,2.94H37.439a2.939,2.939,0,0,0,2.939-2.94V35.872a2.939,2.939,0,0,0-2.939-2.94H23.948a2.94,2.94,0,0,0-2.94,2.94V46.01" transform="translate(0 0)" fill="none" stroke="#000" stroke-linecap="round" stroke-linejoin="round" stroke-width="1.289"/>
        <rect id="Rectángulo_403396" data-name="Rectángulo 403396" width="2.149" height="3.954" rx="0.43" transform="translate(40.041 26.897)" fill="none" stroke="#000" stroke-linecap="round" stroke-linejoin="round" stroke-width="1.289"/>
        <rect id="Rectángulo_403397" data-name="Rectángulo 403397" width="2.149" height="3.954" rx="0.43" transform="translate(57.144 26.897)" fill="none" stroke="#000" stroke-linecap="round" stroke-linejoin="round" stroke-width="1.289"/>
        <path id="Trazado_877049" data-name="Trazado 877049" d="M40.328,35.335h23.4V30.621a1.29,1.29,0,0,0-1.289-1.29H59.293" transform="translate(0 0)" fill="none" stroke="#000" stroke-linejoin="round" stroke-width="1.289"/>
        <line id="Línea_787" data-name="Línea 787" x2="17.066" transform="translate(39.709 57.959)" fill="none" stroke="#000" stroke-linecap="round" stroke-linejoin="round" stroke-width="1.289"/>
        <path id="Trazado_877050" data-name="Trazado 877050" d="M59.784,57.959h2.651a1.289,1.289,0,0,0,1.288-1.289V35.336" transform="translate(0 0)" fill="none" stroke="#000" stroke-linecap="round" stroke-linejoin="round" stroke-width="1.289"/>
        <path id="Trazado_877051" data-name="Trazado 877051" d="M27.262,22.083H24.9a.429.429,0,0,0-.429.429V24.4a.429.429,0,0,0,.429.429H36.482a.429.429,0,0,0,.429-.429V22.512a.429.429,0,0,0-.429-.429H30.27" transform="translate(0 0)" fill="none" stroke="#000" stroke-linecap="round" stroke-linejoin="round" stroke-width="1.289"/>
        <line id="Línea_788" data-name="Línea 788" x1="4.43" transform="translate(35.611 29.332)" fill="none" stroke="#000" stroke-linejoin="round" stroke-width="1.289"/>
        <line id="Línea_789" data-name="Línea 789" x1="14.955" transform="translate(42.189 29.332)" fill="none" stroke="#000" stroke-linejoin="round" stroke-width="1.289"/>
        <rect id="Rectángulo_403398" data-name="Rectángulo 403398" width="3.547" height="5.826" transform="translate(40.378 43.734)" fill="none" stroke="#000" stroke-linecap="round" stroke-linejoin="round" stroke-width="1.289"/>
        <rect id="Rectángulo_403399" data-name="Rectángulo 403399" width="5.742" height="5.826" transform="translate(43.925 43.734)" fill="none" stroke="#000" stroke-linecap="round" stroke-linejoin="round" stroke-width="1.289"/>
        <rect id="Rectángulo_403400" data-name="Rectángulo 403400" width="5.742" height="5.826" transform="translate(49.667 43.734)" fill="none" stroke="#000" stroke-linecap="round" stroke-linejoin="round" stroke-width="1.289"/>
        <path id="Trazado_877052" data-name="Trazado 877052" d="M55.409,43.734h5.312a.43.43,0,0,1,.43.43v5.4H55.409Z" transform="translate(0 0)" fill="none" stroke="#000" stroke-linecap="round" stroke-linejoin="round" stroke-width="1.289"/>
        <rect id="Rectángulo_403401" data-name="Rectángulo 403401" width="3.547" height="5.826" transform="translate(40.378 49.56)" fill="none" stroke="#000" stroke-linecap="round" stroke-linejoin="round" stroke-width="1.289"/>
        <rect id="Rectángulo_403402" data-name="Rectángulo 403402" width="5.742" height="5.826" transform="translate(43.925 49.56)" fill="none" stroke="#000" stroke-linecap="round" stroke-linejoin="round" stroke-width="1.289"/>
        <rect id="Rectángulo_403403" data-name="Rectángulo 403403" width="5.742" height="5.826" transform="translate(49.667 49.56)" fill="none" stroke="#000" stroke-linecap="round" stroke-linejoin="round" stroke-width="1.289"/>
        <path id="Trazado_877053" data-name="Trazado 877053" d="M55.409,49.56h5.742v5.4a.431.431,0,0,1-.43.43H55.409Z" transform="translate(0 0)" fill="none" stroke="#000" stroke-linecap="round" stroke-linejoin="round" stroke-width="1.289"/>
      </g>
    </g>
  </g>
</svg>
