<svg xmlns="http://www.w3.org/2000/svg" xmlns:xlink="http://www.w3.org/1999/xlink" width="132.145" height="221.02" viewBox="0 0 132.145 221.02">
  <defs>
    <clipPath id="clip-path">
      <rect id="Rect치ngulo_402097" data-name="Rect치ngulo 402097" width="132.145" height="221.02" fill="none"/>
    </clipPath>
    <clipPath id="clip-path-3">
      <rect id="Rect치ngulo_402095" data-name="Rect치ngulo 402095" width="20.379" height="74.516" fill="none"/>
    </clipPath>
  </defs>
  <g id="Grupo_1102505" data-name="Grupo 1102505" transform="translate(-1287.855 -858.083)">
    <g id="Grupo_1101274" data-name="Grupo 1101274" transform="translate(1287.855 858.083)">
      <g id="Grupo_1101113" data-name="Grupo 1101113" clip-path="url(#clip-path)">
        <g id="Grupo_1101112" data-name="Grupo 1101112">
          <g id="Grupo_1101111" data-name="Grupo 1101111" clip-path="url(#clip-path)">
            <path id="Trazado_873714" data-name="Trazado 873714" d="M30.138,55.727h0a7.5,7.5,0,0,1-10.414-1.839L1.344,27.625A7.478,7.478,0,0,1,13.6,19.05L31.977,45.313a7.5,7.5,0,0,1-1.839,10.414" transform="translate(0 -5.936)" fill="#ffd9c9"/>
            <path id="Trazado_873715" data-name="Trazado 873715" d="M37.451,51.717,24.341,32.983a9.244,9.244,0,0,1-9.709,12.211L25.2,60.292a7.478,7.478,0,0,0,12.253-8.575" transform="translate(-5.474 -12.34)" fill="#e6c4b5"/>
            <path id="Trazado_873716" data-name="Trazado 873716" d="M103.944,151.986c-2.793,21.919-24.191,21.953-37.619,20-12.932-1.881-15.7,2.137-23.824-1.456-13.186-5.829-11.418-26.6-11.418-26.6Z" transform="translate(-11.599 -53.847)" fill="#ffd9c9"/>
            <path id="Trazado_873717" data-name="Trazado 873717" d="M35.447,164.362c7.909-1.275,23.378-2.938,47.526-2.114,8.48.289,15.026-2.079,20.087-5.9a30.058,30.058,0,0,0,.884-4.36l-72.861-8.059s-1.023,12.113,4.364,20.435" transform="translate(-11.6 -53.847)" fill="#e6c4b5"/>
            <path id="Trazado_873718" data-name="Trazado 873718" d="M9.628,126.239S21,144.4,27.5,146.2s5.827-19.966,5.827-19.966Z" transform="translate(-3.602 -47.229)" fill="#e6c4b5"/>
            <path id="Trazado_873719" data-name="Trazado 873719" d="M122.782,42.089h0a1.368,1.368,0,0,1-1.364-1.364V25.713a1.364,1.364,0,0,1,2.729,0V40.725a1.368,1.368,0,0,1-1.364,1.364" transform="translate(-45.426 -9.11)" fill="#fdfdfd"/>
            <path id="Trazado_873720" data-name="Trazado 873720" d="M122.782,64.528h0a1.368,1.368,0,0,1-1.364-1.364V58.234a1.364,1.364,0,0,1,2.729,0v4.929a1.368,1.368,0,0,1-1.364,1.364" transform="translate(-45.426 -21.277)" fill="#fdfdfd"/>
            <path id="Trazado_873721" data-name="Trazado 873721" d="M83.566,105.988H30.8a3.878,3.878,0,0,1-3.867-3.867V3.866A3.878,3.878,0,0,1,30.8,0H83.566a3.878,3.878,0,0,1,3.867,3.867v98.256a3.878,3.878,0,0,1-3.867,3.867" transform="translate(-10.076 0)" fill="#28549b"/>
            <path id="Trazado_873722" data-name="Trazado 873722" d="M83.8,101.994H33.7A2.574,2.574,0,0,1,31.13,99.42V18.442A2.574,2.574,0,0,1,33.7,15.868H83.8a2.574,2.574,0,0,1,2.574,2.574V99.42a2.574,2.574,0,0,1-2.574,2.574" transform="translate(-11.647 -5.937)" fill="#fdfdfd"/>
            <path id="Trazado_873723" data-name="Trazado 873723" d="M78.779,75.045,31.13,27.4V60.733L62.11,91.713Z" transform="translate(-11.647 -10.249)" fill="#d1ebff"/>
            <path id="Trazado_873724" data-name="Trazado 873724" d="M86.58,123.833,97.449,134.7h7.1a2.574,2.574,0,0,0,2.574-2.574V103.291Z" transform="translate(-32.392 -38.644)" fill="#d1ebff"/>
            <path id="Trazado_873725" data-name="Trazado 873725" d="M31.129,103.614v28.634a2.574,2.574,0,0,0,2.574,2.574H62.337Z" transform="translate(-11.646 -38.765)" fill="#d1ebff"/>
            <path id="Trazado_873726" data-name="Trazado 873726" d="M105.811,38.6V18.441a2.574,2.574,0,0,0-2.574-2.574H83.075Z" transform="translate(-31.081 -5.936)" fill="#d1ebff"/>
            <path id="Trazado_873727" data-name="Trazado 873727" d="M83.031,67.007,86.9,63.134V46.052L56.718,15.867H34.231a2.552,2.552,0,0,0-1.692.648Z" transform="translate(-12.174 -5.936)" fill="#d1ebff"/>
            <path id="Trazado_873728" data-name="Trazado 873728" d="M77.983,8.73H59.189a1.778,1.778,0,1,1,0-3.556H77.983a1.778,1.778,0,1,1,0,3.556" transform="translate(-21.479 -1.936)" fill="#fdfdfd"/>
            <path id="Trazado_873729" data-name="Trazado 873729" d="M61.433,7.568a.746.746,0,1,1-.746-.746.746.746,0,0,1,.746.746" transform="translate(-22.426 -2.552)" fill="#28549b"/>
            <path id="Trazado_873730" data-name="Trazado 873730" d="M89.912,7.452a.94.94,0,1,1-.94-.94.94.94,0,0,1,.94.94" transform="translate(-32.935 -2.436)" fill="#8ab2d4"/>
            <path id="Trazado_873731" data-name="Trazado 873731" d="M76.348,160.973H69.76a.408.408,0,0,1-.407-.407v-.023a.408.408,0,0,1,.407-.407h6.588a.408.408,0,0,1,.407.407v.023a.408.408,0,0,1-.407.407" transform="translate(-25.947 -59.912)" fill="#fdfdfd"/>
            <path id="Trazado_873732" data-name="Trazado 873732" d="M76.348,164.307H69.76a.408.408,0,0,1-.407-.407v-.023a.408.408,0,0,1,.407-.407h6.588a.408.408,0,0,1,.407.407v.023a.408.408,0,0,1-.407.407" transform="translate(-25.947 -61.159)" fill="#fdfdfd"/>
            <path id="Trazado_873733" data-name="Trazado 873733" d="M76.348,157.64H69.76a.408.408,0,0,1-.407-.407v-.023a.408.408,0,0,1,.407-.407h6.588a.408.408,0,0,1,.407.407v.023a.408.408,0,0,1-.407.407" transform="translate(-25.947 -58.665)" fill="#fdfdfd"/>
            <path id="Trazado_873734" data-name="Trazado 873734" d="M65.861,113.437,81.595,78.884S67.37,85.469,65.861,85.469s-15.734-6.585-15.734-6.585Z" transform="translate(-18.754 -29.513)" fill="#c74b56"/>
            <path id="Trazado_873735" data-name="Trazado 873735" d="M69.552,103.186a18.558,18.558,0,0,1-9.559-2.636l9.559,20.992L79.11,100.55a18.556,18.556,0,0,1-9.558,2.636" transform="translate(-22.445 -37.619)" fill="#ff7883"/>
            <path id="Trazado_873736" data-name="Trazado 873736" d="M64.116,37.818A18.653,18.653,0,1,0,82.768,56.471,18.653,18.653,0,0,0,64.116,37.818m0,26.621a7.968,7.968,0,1,1,7.968-7.969,7.968,7.968,0,0,1-7.968,7.969" transform="translate(-17.009 -14.149)" fill="#ff7883"/>
            <g id="Grupo_1101110" data-name="Grupo 1101110" transform="translate(56.977 31.472)" opacity="0.1" style="mix-blend-mode: multiply;isolation: isolate">
              <g id="Grupo_1101109" data-name="Grupo 1101109">
                <g id="Grupo_1101108" data-name="Grupo 1101108" clip-path="url(#clip-path-3)">
                  <path id="Trazado_873737" data-name="Trazado 873737" d="M111.416,120.935V50.285c-3.5,1.544-5.965,5.135-6.893,13.466-1.108,9.954,3.258,9.911,2.163,18.211s-13.1,8.272-15.373,27.4c-.742,6.248.035,11.48,2.012,15.438h14.224a3.878,3.878,0,0,0,3.867-3.867" transform="translate(-91.036 -50.285)"/>
                </g>
              </g>
            </g>
            <path id="Trazado_873738" data-name="Trazado 873738" d="M26.619,124.772h0c-2.719,3.086-7.785,3.106-11.258.045l-7.567-6.65c-3.472-3.061-4.088-8.089-1.369-11.174s7.785-3.106,11.258-.046l7.566,6.65c3.472,3.061,4.089,8.089,1.369,11.174" transform="translate(-1.769 -39.158)" fill="#ffd9c9"/>
            <path id="Trazado_873739" data-name="Trazado 873739" d="M25.917,113.187l-7.1-6.236c-3.388-2.987-8.289-3.03-11.051-.163l7.633,6.17c3.253,2.686,7.773,2.716,10.513.23" transform="translate(-2.907 -39.161)" fill="#e6c4b5"/>
            <path id="Trazado_873740" data-name="Trazado 873740" d="M24.93,127.305s-.559-4.414,5.416-5.766a3.993,3.993,0,0,1,.556,5.518c-2.248,3.228-5.971.248-5.971.248" transform="translate(-9.322 -45.471)" fill="#ffe6db"/>
            <path id="Trazado_873741" data-name="Trazado 873741" d="M25.219,102.43h0c-2.618,3.172-7.651,3.38-11.186.463l-9.24-7.47c-3.534-2.917-4.284-7.9-1.667-11.071s7.652-3.38,11.186-.463l9.24,7.47c3.534,2.917,4.284,7.9,1.666,11.07" transform="translate(-0.585 -30.615)" fill="#ffd9c9"/>
            <path id="Trazado_873742" data-name="Trazado 873742" d="M24,89.946,16.51,83.893a8.374,8.374,0,0,0-9.072-1.229l5.379,5.994C15.9,92.106,20.932,92.684,24,89.946" transform="translate(-2.783 -30.619)" fill="#e6c4b5"/>
            <path id="Trazado_873743" data-name="Trazado 873743" d="M22.433,77.953h0c-3.064,2.743-8.1,2.166-11.184-1.284l-6.729-7.5c-3.087-3.449-3.1-8.515-.041-11.258s8.1-2.165,11.184,1.284l6.729,7.5c3.087,3.449,3.1,8.515.041,11.258" transform="translate(-0.82 -21.019)" fill="#ffd9c9"/>
            <path id="Trazado_873744" data-name="Trazado 873744" d="M20.434,81.582s-.124-4.847,6.5-5.661a4.351,4.351,0,0,1,0,6.045c-2.79,3.255-6.5-.384-6.5-.384" transform="translate(-7.645 -28.404)" fill="#ffe6db"/>
            <path id="Trazado_873745" data-name="Trazado 873745" d="M25.156,106.972s-.609-4.81,5.9-6.284a4.352,4.352,0,0,1,.606,6.015c-2.45,3.518-6.508.27-6.508.27" transform="translate(-9.406 -37.67)" fill="#ffe6db"/>
            <path id="Trazado_873746" data-name="Trazado 873746" d="M119.246,49.927a2.955,2.955,0,0,0-3.681-2.8c-5.176,1.342-8.623,4.592-8.544,15.494.073,10.015,4.4,9.457,4.3,17.829s-12.036,9.759-12.036,29.022c0,15.524,8.444,23.823,20.165,21.579,8.567-1.64,13.6-15.161,7.741-37.206S123.278,72.36,121.6,65.941a81.576,81.576,0,0,1-2.358-16.014" transform="translate(-37.143 -17.597)" fill="#ffd9c9"/>
            <path id="Trazado_873747" data-name="Trazado 873747" d="M130.181,61.152s-2.939.552-3.966-1.267c-1.18-2.09-.093-7.894,1.983-9.056s1.263,1.418,1.728,3.673,1.208,6.694.255,6.651" transform="translate(-47.038 -18.908)" fill="#ffe6db"/>
            <path id="Trazado_873748" data-name="Trazado 873748" d="M71.265,160.7l18.4,39.1,42.93-17.045-27.958-46.48Z" transform="translate(-26.662 -50.984)" fill="#ffd9c9"/>
            <path id="Trazado_873749" data-name="Trazado 873749" d="M125.727,178.61c-12.017,14.436-33.5,16.114-40.683,16.258l9.773,20.77,42.929-17.045Z" transform="translate(-31.817 -66.823)" fill="#e6c4b5"/>
            <path id="Trazado_873750" data-name="Trazado 873750" d="M150.684,224.594l-48.737,19.23,20.631,61.223h47.708V249.455Z" transform="translate(-38.141 -84.027)" fill="#8eb0c2"/>
            <path id="Trazado_873751" data-name="Trazado 873751" d="M177.733,257.883c1.791,16.154,1.681,43.762-8.366,49.66-10.47,6.146-27.346,3.486-39.029,1.466L133.2,317.5h47.708V261.91Z" transform="translate(-48.763 -96.481)" fill="#7da5ba"/>
            <path id="Trazado_873752" data-name="Trazado 873752" d="M150.684,224.594l-48.737,19.23,8.255,24.5c3.511-9.811,10.319-21.7,23.381-27.582,8.456-3.808,17.884-4.638,26.605-4.091Z" transform="translate(-38.141 -84.027)" fill="#7da5ba"/>
            <path id="Trazado_873753" data-name="Trazado 873753" d="M89.5,212.029l44.065-23.3a2.83,2.83,0,0,1,3.674.927l11.693,17.461a2.83,2.83,0,0,1-1.219,4.168L97.283,233.323a2.831,2.831,0,0,1-3.822-1.711l-5.323-16.2a2.831,2.831,0,0,1,1.366-3.386" transform="translate(-32.922 -70.487)" fill="#7498ab"/>
            <path id="Trazado_873754" data-name="Trazado 873754" d="M106.866,236.6a4.468,4.468,0,1,1-4.469-4.468,4.469,4.469,0,0,1,4.469,4.468" transform="translate(-36.638 -86.847)" fill="#fff"/>
          </g>
        </g>
      </g>
    </g>
  </g>
</svg>
