<svg xmlns="http://www.w3.org/2000/svg" xmlns:xlink="http://www.w3.org/1999/xlink" width="73.035" height="73.035" viewBox="0 0 73.035 73.035">
  <defs>
    <clipPath id="clip-path">
      <rect id="Rectángulo_402666" data-name="Rectángulo 402666" width="43.536" height="43.512" fill="none"/>
    </clipPath>
  </defs>
  <g id="Grupo_1102510" data-name="Grupo 1102510" transform="translate(-805.669 -9251.982)">
    <g id="Grupo_1102298" data-name="Grupo 1102298">
      <g id="Elipse_11493" data-name="Elipse 11493" transform="translate(805.669 9251.982)" fill="#95dbb3" stroke="#fff" stroke-width="2">
        <circle cx="36.518" cy="36.518" r="36.518" stroke="none"/>
        <circle cx="36.518" cy="36.518" r="35.518" fill="none"/>
      </g>
      <g id="Grupo_1102297" data-name="Grupo 1102297" transform="translate(820.418 9266.744)">
        <g id="Grupo_1102296" data-name="Grupo 1102296" clip-path="url(#clip-path)">
          <path id="Trazado_875609" data-name="Trazado 875609" d="M7.309,19.323A5.1,5.1,0,0,1,4.3,15.529c-.316-.081-.625-.14-.921-.237a2.834,2.834,0,0,1-1.806-3.586,3.689,3.689,0,0,0,.1-1.83c-.558-2.372-.152-4.4,1.816-5.99a1.905,1.905,0,0,0,.4-.563A5.948,5.948,0,0,1,8.712.091,19.552,19.552,0,0,1,13.254.18a7.623,7.623,0,0,1,6.3,8.926,5.485,5.485,0,0,0,.021,2.97c.562,1.6-.648,2.989-2.741,3.443A5.263,5.263,0,0,1,13.642,19.4a3.561,3.561,0,0,0,.628.415c1.153.393,2.312.767,3.47,1.143a1.412,1.412,0,0,0,.42.091c2.8.005,5.605,0,8.53,0v-.973q0-6.27,0-12.54c0-1.484.44-1.916,1.936-1.921q1.71-.006,3.42-.015A1.211,1.211,0,0,0,32.3,5.51c0-1.212,0-2.459,0-3.706C32.31.485,32.782.007,34.1,0q3.858-.009,7.717,0c1.209,0,1.715.5,1.718,1.7q.013,4.6,0,9.208c0,1.21-.5,1.719-1.692,1.724q-3.9.014-7.8,0c-1.245,0-1.723-.5-1.73-1.774-.007-1.249,0-2.5,0-3.791H28.16V21H32.3c0-1.23,0-2.473,0-3.717.005-1.377.465-1.843,1.834-1.846q3.815-.007,7.629,0c1.266,0,1.761.489,1.764,1.74q.011,4.6,0,9.208c0,1.156-.51,1.676-1.646,1.681q-3.946.017-7.892,0c-1.186,0-1.679-.517-1.688-1.728-.009-1.253,0-2.507,0-3.821H28.145v13.9H32.3c0-1.25,0-2.5,0-3.743.006-1.32.478-1.8,1.789-1.8q3.858-.009,7.717,0c1.21,0,1.718.5,1.721,1.694q.013,4.6,0,9.208c0,1.211-.5,1.723-1.689,1.727q-3.946.014-7.892,0c-1.136-.005-1.635-.525-1.645-1.682-.011-1.279,0-2.558,0-3.927-1.327,0-2.576.005-3.824,0-1.311-.007-1.786-.483-1.788-1.806q-.007-6.27,0-12.54V22.524H19.6c.131.225.249.44.379.65a6.983,6.983,0,0,1,1.1,3.731c0,2.163-.01,4.326.008,6.489a1.56,1.56,0,0,1-1.032,1.65.65.65,0,0,0-.378.361,2.97,2.97,0,0,1-2.805,2.537c0,1.287.008,2.57,0,3.852-.009,1.205-.5,1.721-1.707,1.7-1.513-.02-3.026-.133-4.539-.132-1.542,0-3.084.111-4.627.133-1.26.018-1.749-.489-1.758-1.743s0-2.509,0-3.8A3,3,0,0,1,1.423,35.37c-.027-.151-.354-.226-.473-.386-.326-.44-.861-.9-.878-1.364-.085-2.394-.1-4.795-.013-7.189a7.009,7.009,0,0,1,5.764-6.418c.505-.1,1.005-.229,1.508-.344l-.022-.346m9.851,7.051c-.575,2.474-.144,4.876-.3,7.259h2.818c0-2.143,0-4.239,0-6.336-.008-3.426-2.084-5.678-5.643-6.023.294,3.561-.166,6.854-3.48,9.046-3.29-2.209-3.781-5.49-3.466-9.058-3.181.4-5.283,2.1-5.535,4.841-.228,2.481-.048,5-.048,7.516H4.238c0-1.021.015-1.982,0-2.943-.028-1.435-.079-2.87-.12-4.306l-.26-.029.939-.891c1.561,2.17.464,4.591.955,6.755h9.621c.457-2.241-.611-4.62,1-6.815l.789.983M5.65,12.011c0,.935-.024,1.87.005,2.8A3.476,3.476,0,0,0,9.07,18.235c.992.032,1.987.032,2.978,0a3.448,3.448,0,0,0,3.4-3.342c.053-1.839.008-3.68.019-5.519,0-.664-.3-.958-.958-.949-1.022.014-2.044-.006-3.067,0a4.671,4.671,0,0,1-2.99-1.052A1.683,1.683,0,0,0,7.272,7.1,2.008,2.008,0,0,0,5.654,9.12c-.027.963-.006,1.927,0,2.891M42.064,1.482H33.758v9.707h8.306Zm.023,15.428H33.781v9.707h8.306ZM42.063,42.1V32.353h-8.3v9.712c.183.013.323.031.463.032,2.594,0,5.188,0,7.842,0M12.7,2.857c2.14.092,3.033,1.6,2.5,4.188a2.351,2.351,0,0,1,1.677,2.741l1.011.166a6.311,6.311,0,0,0-5.226-8.459,17.894,17.894,0,0,0-3.761-.015,4.685,4.685,0,0,0-3.86,2.672,2.852,2.852,0,0,1-.7.86A3.92,3.92,0,0,0,3.3,9.971l.932-.213A3.716,3.716,0,0,1,7.209,5.6L7.045,4.254H8.417l-.21.191A10.181,10.181,0,0,0,9.692,6.484a3.807,3.807,0,0,0,3.439.389,1.539,1.539,0,0,0,.862-1.144c.035-.417-.369-.9-.657-1.3-.127-.176-.443-.216-.635-.3ZM11.324,33.7v4.813a3.687,3.687,0,0,1,4.067-.012V33.7ZM5.7,33.729v4.806A3.692,3.692,0,0,1,9.789,38.5V33.729Zm5.618,8.315h4.107c.112-1.693-.725-2.758-2.1-2.746a2.183,2.183,0,0,0-2.011,2.746m-1.5.022A2.246,2.246,0,0,0,8.8,39.591a1.94,1.94,0,0,0-2.224.086,2.172,2.172,0,0,0-.867,2.39ZM8.61,19.74c1.193,1.346,2.935,1.326,3.82,0Zm8.284-5.749c.959-.194,1.413-.691,1.37-1.436a1.275,1.275,0,0,0-1.37-1.23ZM4.238,11.261c-1,.23-1.443.724-1.391,1.466a1.257,1.257,0,0,0,1.391,1.2V11.261M10.493,28.5c.814-.646.777-2.173-.123-3.35.123,1.2-1.1,2.242.123,3.35M2.936,35.12l-.219.256L4,36.606l.189-.184v-1.3Zm13.982,1.312.224.176,1.25-1.263-.18-.214H16.918ZM9.784,23.345c.28.181.538.478.789.473s.492-.315.757-.506c-.788-.728-.788-.728-1.547.033" transform="translate(0 0)"/>
          <path id="Trazado_875610" data-name="Trazado 875610" d="M47.293,72.336c.2,2.391-1.285,4.151-3.454,4.153s-3.649-1.747-3.463-4.153Zm-5.36,1.371a1.987,1.987,0,0,0,2.074,1.365,1.9,1.9,0,0,0,1.735-1.365Z" transform="translate(-33.282 -59.648)"/>
          <path id="Trazado_875611" data-name="Trazado 875611" d="M73.133,54.3c.32.487.648.769.638,1.038-.008.227-.463.651-.624.61a1.065,1.065,0,0,1-.667-.685c-.041-.208.317-.5.653-.963" transform="translate(-59.765 -44.775)"/>
          <path id="Trazado_875612" data-name="Trazado 875612" d="M41.111,58.047c-.319-.535-.634-.831-.612-1.1a.646.646,0,0,1,1.289.044c0,.269-.328.544-.677,1.055" transform="translate(-33.395 -46.481)"/>
          <rect id="Rectángulo_402654" data-name="Rectángulo 402654" width="5.532" height="1.308" transform="translate(35.143 5.673)"/>
          <rect id="Rectángulo_402655" data-name="Rectángulo 402655" width="5.539" height="1.272" transform="translate(35.172 8.489)"/>
          <rect id="Rectángulo_402656" data-name="Rectángulo 402656" width="2.734" height="1.285" transform="translate(37.962 2.879)"/>
          <rect id="Rectángulo_402657" data-name="Rectángulo 402657" width="1.332" height="1.286" transform="translate(35.17 2.863)"/>
          <rect id="Rectángulo_402658" data-name="Rectángulo 402658" width="5.52" height="1.326" transform="translate(35.166 21.099)"/>
          <rect id="Rectángulo_402659" data-name="Rectángulo 402659" width="5.509" height="1.305" transform="translate(35.148 23.902)"/>
          <rect id="Rectángulo_402660" data-name="Rectángulo 402660" width="2.703" height="1.305" transform="translate(37.984 18.304)"/>
          <rect id="Rectángulo_402661" data-name="Rectángulo 402661" width="1.297" height="1.333" transform="translate(35.172 18.28)"/>
          <rect id="Rectángulo_402662" data-name="Rectángulo 402662" width="5.542" height="1.301" transform="translate(35.148 36.547)"/>
          <rect id="Rectángulo_402663" data-name="Rectángulo 402663" width="5.542" height="1.303" transform="translate(35.146 39.353)"/>
          <rect id="Rectángulo_402664" data-name="Rectángulo 402664" width="2.717" height="1.302" transform="translate(37.954 33.742)"/>
          <rect id="Rectángulo_402665" data-name="Rectángulo 402665" width="1.332" height="1.286" transform="translate(35.17 33.734)"/>
        </g>
      </g>
    </g>
  </g>
</svg>
