<svg xmlns="http://www.w3.org/2000/svg" xmlns:xlink="http://www.w3.org/1999/xlink" width="73.035" height="73.035" viewBox="0 0 73.035 73.035">
  <defs>
    <clipPath id="clip-path">
      <rect id="Rectángulo_402667" data-name="Rectángulo 402667" width="50.293" height="50.311" fill="none"/>
    </clipPath>
  </defs>
  <g id="Grupo_1102511" data-name="Grupo 1102511" transform="translate(-1106.669 -9251.982)">
    <g id="Grupo_1102302" data-name="Grupo 1102302">
      <g id="Grupo_1102301" data-name="Grupo 1102301">
        <g id="Elipse_11493" data-name="Elipse 11493" transform="translate(1106.669 9251.982)" fill="#95dbb3" stroke="#fff" stroke-width="2">
          <circle cx="36.518" cy="36.518" r="36.518" stroke="none"/>
          <circle cx="36.518" cy="36.518" r="35.518" fill="none"/>
        </g>
        <g id="Grupo_1102300" data-name="Grupo 1102300" transform="translate(1118.04 9263.345)">
          <g id="Grupo_1102299" data-name="Grupo 1102299" clip-path="url(#clip-path)">
            <path id="Trazado_875613" data-name="Trazado 875613" d="M129.789,42.863c.185.194.433.337.477.528.073.313.14.768-.026.958a.973.973,0,0,1-.933.179,16.576,16.576,0,0,1-2.381-1.872,1.192,1.192,0,0,1,0-1.107A18.668,18.668,0,0,1,128.4,39.6c.327-.412.712-.742,1.241-.341.5.382.395.836.053,1.281-.114.148-.209.312-.433.651a15.945,15.945,0,0,0,11.986-8.306,16.036,16.036,0,0,0,.662-14.191c-.187.115-.306.145-.335.213-.824,1.914-2.5,1.4-3.97,1.343-.694-.027-.85-.588-.634-1.241.563-1.7,1.108-3.413,1.656-5.121.1-.305.178-.616.3-1.036-1.807-.15-3.523-.312-5.243-.412a1.368,1.368,0,0,0-.8.412,2.017,2.017,0,0,0-.509.713c-.667,1.552-1.942,1.742-3.4,1.572-.873-.1-1.157-.459-.935-1.322a22.932,22.932,0,0,1,.722-2.336,3.617,3.617,0,0,0-.015-2.659,21.552,21.552,0,0,1-.713-2.338c-.206-.826.055-1.174.892-1.245.487-.041.98,0,1.469-.025a1.573,1.573,0,0,1,1.456.793c1.465,2.1,1.479,2.08,4,1.751.967-.126,1.942-.185,3.022-.284a3.824,3.824,0,0,1-.231-1.163c.043-.331.26-.809.512-.895a1.033,1.033,0,0,1,.913.432,10.624,10.624,0,0,1,.73,2.122c.15.592-.2.943-.77,1.016-.938.119-1.881.208-2.823.3-1.332.123-2.664.286-4,.315A1.879,1.879,0,0,1,132,9.008c-.471-.486-.783-1.123-1.207-1.66a1.555,1.555,0,0,0-.874-.476,6.86,6.86,0,0,1-.207,6.546l.317.132a2.343,2.343,0,0,0,.586-.314,4.786,4.786,0,0,0,.52-.709c1.3-1.86,1.3-1.873,3.541-1.691,1.691.138,3.382.286,5.067.487,1.092.13,1.265.455.924,1.522-.5,1.554-1.011,3.1-1.513,4.653-.108.333-.194.673-.289,1.006.693.353,1.018.018,1.34-.464,1.288-1.929,2.626-3.825,3.888-5.77a1.781,1.781,0,0,1,1.773-.917c1.075.058,2.156.029,3.233.009,1-.019,1.483-.416,1.493-1.176s-.442-1.165-1.468-1.195c-1.143-.033-2.288-.044-3.43,0a1.6,1.6,0,0,1-1.531-.821c-1.314-1.99-2.675-3.949-4-5.932-.305-.457-.626-.739-1.259-.446a2.828,2.828,0,0,1,.161,1.009,1.285,1.285,0,0,1-.579.849.96.96,0,0,1-.836-.421,11.013,11.013,0,0,1-.749-2.218c-.132-.59.271-.932.838-.961a11.543,11.543,0,0,1,2.346.024,1.84,1.84,0,0,1,1.035.764c1.3,1.841,2.585,3.695,3.795,5.6a1.821,1.821,0,0,0,1.843.955,21,21,0,0,1,2.936.049,2.664,2.664,0,0,1,2.53,2.627,2.652,2.652,0,0,1-2.415,2.832,27.085,27.085,0,0,1-3.424.072,1.319,1.319,0,0,0-1.284.686,29.043,29.043,0,0,1-1.71,2.509,1.425,1.425,0,0,0-.145,1.681,17.727,17.727,0,0,1-9.386,23.732c-1.284.527-2.653.846-4.071,1.288" transform="translate(-101.932 0)"/>
            <path id="Trazado_875614" data-name="Trazado 875614" d="M13.346,71.743a2.7,2.7,0,0,1-.184-.982,1.325,1.325,0,0,1,.56-.865.953.953,0,0,1,.845.4,12.112,12.112,0,0,1,.761,2.215.741.741,0,0,1-.721.962,13.341,13.341,0,0,1-2.637-.028c-.337-.045-.683-.469-.912-.8-1.3-1.878-2.6-3.767-3.847-5.68a1.562,1.562,0,0,0-1.525-.807,26.4,26.4,0,0,1-3.036-.039,2.758,2.758,0,0,1-.062-5.509,19.455,19.455,0,0,1,2.937-.03,1.667,1.667,0,0,0,1.76-.912A16.943,16.943,0,0,1,8.769,57.48a1.562,1.562,0,0,0,.179-1.851,17.754,17.754,0,0,1,11.71-24.449c.59-.156,1.19-.273,1.779-.407-.012-.112,0-.192-.028-.227-.38-.407-.9-.813-.336-1.4.524-.548,1.006-.16,1.457.2.564.445,1.134.883,1.7,1.329a.876.876,0,0,1,.167,1.366q-.712.936-1.447,1.855c-.318.4-.678.788-1.229.407-.579-.4-.4-.885-.061-1.355.112-.153.216-.311.353-.508A16.014,16.014,0,0,0,10.381,54.774c.083-.036.215-.051.241-.111.811-1.912,2.485-1.423,3.958-1.386.676.017.892.524.646,1.308-.537,1.712-1.1,3.417-1.645,5.125-.088.275-.16.556-.28.974,1.82.151,3.56.312,5.3.42a1.166,1.166,0,0,0,.716-.385,2.445,2.445,0,0,0,.564-.795c.667-1.6,2-1.673,3.427-1.513.815.091,1.087.459.878,1.28-.233.916-.6,1.8-.78,2.726A4.934,4.934,0,0,0,23.4,64.3c.183.924.547,1.81.783,2.725.223.866-.052,1.209-.949,1.286-.227.019-.461-.013-.685.02a2.214,2.214,0,0,1-2.545-1.34,4.723,4.723,0,0,0-.731-1.039.942.942,0,0,0-.626-.342c-1.751.122-3.5.288-5.321.447a3.751,3.751,0,0,1,.25,1.143c-.043.336-.237.814-.489.913a1.018,1.018,0,0,1-.922-.4,8.78,8.78,0,0,1-.746-2.217c-.15-.814.526-.954,1.132-1.012,1.722-.166,3.473-.166,5.162-.493A2.806,2.806,0,0,1,21.1,65.688c.221.414.385,1.107,1.247.94a13.58,13.58,0,0,1-.827-3.3,12.493,12.493,0,0,1,.826-3.175l-.178-.179a3.539,3.539,0,0,0-.713.547c-.442.565-.785,1.214-1.262,1.744a1.541,1.541,0,0,1-1.053.522c-2.214-.141-4.426-.337-6.632-.571-1.114-.118-1.286-.442-.949-1.5.494-1.554,1.009-3.1,1.511-4.654.109-.336.2-.677.3-1.015-.676-.371-1.006-.049-1.331.436-1.307,1.956-2.656,3.883-3.946,5.85a1.648,1.648,0,0,1-1.609.854c-1.174-.051-2.353-.041-3.528,0-.956.033-1.467.637-1.3,1.439.152.718.712.9,1.329.917,1.143.031,2.289.054,3.43.005a1.728,1.728,0,0,1,1.7.882c1.284,1.971,2.635,3.9,3.942,5.853.3.45.609.762,1.29.458" transform="translate(0 -23.213)"/>
            <path id="Trazado_875615" data-name="Trazado 875615" d="M91.189,82.238a9.041,9.041,0,1,1-9.027,9.078,9.115,9.115,0,0,1,9.027-9.078m-4.682,6.373a12.224,12.224,0,0,0-1.734.026.978.978,0,0,0-.647.556,6.439,6.439,0,0,0,.014,4.218.88.88,0,0,0,.582.51,15.328,15.328,0,0,0,1.785.024Zm9.388,5.334c.57,0,1.184.035,1.789-.02a.78.78,0,0,0,.546-.425,6.531,6.531,0,0,0,.015-4.4.783.783,0,0,0-.521-.457c-.626-.058-1.262-.022-1.829-.022Zm-5.562-5.287c-.379-.022-.635-.046-.891-.049-1.178-.015-1.256.039-1.334,1.23a20.891,20.891,0,0,0-.033,2.334c.088,1.876.212,1.964,2.078,1.72.056-.007.1-.071.179-.124Zm1.732,5.293c.537,0,.956-.029,1.37.007.5.044.76-.205.768-.651q.038-2.034,0-4.069c-.009-.458-.29-.676-.779-.637-.438.035-.881.007-1.356.007ZM88.4,84.465a5.783,5.783,0,0,0-3.009,2.492,2.84,2.84,0,0,0,1.835-.355A8.278,8.278,0,0,0,88.4,84.465m5.863-.07-.205.214c.243.439.5.872.726,1.319.616,1.2.9,1.317,2.477.8l-3-2.331m-8.8,11.33a4.318,4.318,0,0,0,2.869,2.188c-.253-.457-.515-.9-.748-1.36-.565-1.112-.749-1.189-2.121-.828m11.637.228-.168-.255c-1.67-.357-2.009-.076-2.656,2.468L97.1,95.953m-8.127-9.208.15.233,1.2-.067V85.04l-.182-.076-1.167,1.782m4.606.189-1.344-1.968-.141.123v1.845ZM90.118,97.593l.2-.11V95.642H88.879l1.238,1.951m1.939-.107.224.111,1.27-2.041-1.493.1Z" transform="translate(-66.054 -66.115)"/>
          </g>
        </g>
      </g>
    </g>
  </g>
</svg>
