<svg xmlns="http://www.w3.org/2000/svg" xmlns:xlink="http://www.w3.org/1999/xlink" width="73.035" height="73.035" viewBox="0 0 73.035 73.035">
  <defs>
    <clipPath id="clip-path">
      <rect id="Rectángulo_402669" data-name="Rectángulo 402669" width="50.736" height="50.783" fill="none"/>
    </clipPath>
  </defs>
  <g id="Grupo_1102513" data-name="Grupo 1102513" transform="translate(-658.669 -9358.982)">
    <g id="Grupo_1102308" data-name="Grupo 1102308">
      <g id="Elipse_11493" data-name="Elipse 11493" transform="translate(658.669 9358.982)" fill="#95dbb3" stroke="#fff" stroke-width="2">
        <circle cx="36.518" cy="36.518" r="36.518" stroke="none"/>
        <circle cx="36.518" cy="36.518" r="35.518" fill="none"/>
      </g>
      <g id="Grupo_1102307" data-name="Grupo 1102307" transform="translate(669.818 9370.108)">
        <g id="Grupo_1102306" data-name="Grupo 1102306" clip-path="url(#clip-path)">
          <path id="Trazado_875617" data-name="Trazado 875617" d="M34.439,41.761c.082,1.448-.4,2.729.825,3.815a2.387,2.387,0,0,1,.518,3,3.344,3.344,0,0,1-2.937,2.178c-2.474.024-4.948.009-7.422.009-2.375,0-4.752-.044-7.126.015a3.458,3.458,0,0,1-3.329-2.206,2.77,2.77,0,0,1,.832-3.392,1.442,1.442,0,0,0,.483-.816c.047-1.572.022-3.147.022-4.82L14,39.935a7.709,7.709,0,0,1,.051,6.654,7.223,7.223,0,0,1-3.429,3.436,7.4,7.4,0,0,1-8.949-1.968c-2.4-2.951-2.193-6.445.465-9.921a15.31,15.31,0,0,1-.456-3.321A4.213,4.213,0,0,1,8.57,32.029a2.271,2.271,0,0,0,1.868.512c2.772-.39,5.554-.7,8.363-1.229a6.037,6.037,0,0,0-.916-.145c-1.748-.014-3.5-.037-5.245,0a4.053,4.053,0,0,1-3.963-2.1,3.936,3.936,0,0,1,.389-4.457,3.826,3.826,0,0,0,.613-1.119A2.268,2.268,0,0,0,8.707,20.9a4.9,4.9,0,0,1-2.129-4.531,5.965,5.965,0,0,1,.672-2.243q2.7-5.005,5.512-9.946A7.93,7.93,0,0,1,22.814.633a6.009,6.009,0,0,0,5.114,0,7.907,7.907,0,0,1,10,3.465c1.929,3.339,3.787,6.719,5.628,10.107a5.083,5.083,0,0,1-1.27,6.517c-1.623,1.378-1.782,2.195-.54,3.96a4.021,4.021,0,0,1-2.351,6.385,7.493,7.493,0,0,1-1.476.09c-1.934.009-3.868,0-5.887,0l7.948,4.826c1.035-.918,2-1.864,3.06-2.684A2.617,2.617,0,0,0,44.185,31,3.23,3.23,0,0,1,48.4,27.959a3.286,3.286,0,0,1,2.334,3,7.714,7.714,0,0,1-1.516,4.916c-1.494,2.053-3,4.1-4.569,6.1a5.882,5.882,0,0,1-7.82,1.344c-.749-.461-1.475-.958-2.387-1.553M25.453,16.469c-2.506,0-5.013-.006-7.519,0-1.056,0-1.481.432-1.484,1.494-.007,2.012-.032,4.025.011,6.036a7.088,7.088,0,0,0,6.029,6.924,29.109,29.109,0,0,0,4.536.157,7.261,7.261,0,0,0,7.27-7.319c.025-1.913.01-3.826,0-5.739,0-1.134-.409-1.551-1.525-1.554-2.441-.007-4.881,0-7.322,0m.8-9.527a17.094,17.094,0,0,1,1.957-.353,5.773,5.773,0,0,1,6.2,5.76c.032.658-.012,1.323.062,1.975a2.186,2.186,0,0,0,2.3,1.974,1.165,1.165,0,0,0,.761-.7c.053-.172-.346-.559-.617-.729a2.388,2.388,0,0,0-.86-.154V13.193a2.474,2.474,0,0,1,3.167,1.975,3.533,3.533,0,0,1-.374,1.779C38.3,17.992,37.2,18.1,36.109,18.142c-.28,3.818.758,7.788-2.022,11.2,1.835,0,3.471.079,5.094-.03a2.029,2.029,0,0,0,1.65-1.963,3.258,3.258,0,0,0-.822-2.164A3.7,3.7,0,0,1,39.732,21a7.038,7.038,0,0,1,1.455-1.583,3.414,3.414,0,0,0,.867-4.373C40.2,11.63,38.325,8.222,36.383,4.854A6.162,6.162,0,0,0,31.758,1.81c-2.024-.319-3.727.566-5.5,1.3ZM14.713,14.734c-.278.034-.472.059-.666.081-.518.058-.931.282-.86.859s.524.688,1.041.647A2.263,2.263,0,0,0,16.27,14.36c.078-.652.039-1.317.067-1.975a5.693,5.693,0,0,1,4.79-5.7,17.346,17.346,0,0,1,3.347.111V3.066c-.931-.355-1.807-.742-2.715-1.026A6.22,6.22,0,0,0,14.5,4.665c-2.051,3.455-3.967,6.992-5.877,10.527a3.317,3.317,0,0,0,.847,4.128c.172.154.359.29.534.44a3.871,3.871,0,0,1,.807,5.317,11.794,11.794,0,0,0-.673,1.092,2.161,2.161,0,0,0,1.59,3.173c1.562.139,3.145.031,4.832.031-.206-.359-.356-.64-.524-.909a8.828,8.828,0,0,1-1.331-4.4c-.053-1.449-.016-2.9-.018-4.353,0-.518,0-1.035,0-1.536-2.42-.3-3.423-1.277-3.2-2.98a2.489,2.489,0,0,1,3.226-1.964Zm3.353,18.592c0,3.543-.027,6.938.015,10.331a3.523,3.523,0,0,1-1.119,2.828c-.724.677-.672,1.247-.029,1.967a1.828,1.828,0,0,0,1.48.633c4.65-.015,9.3-.008,13.951-.009.165,0,.38.055.485-.027a5.614,5.614,0,0,0,1.35-1.2c.311-.481.022-1.024-.421-1.394A3.32,3.32,0,0,1,32.67,43.63c.041-3.1.024-6.2,0-9.3,0-.318-.113-.814-.325-.919a5.068,5.068,0,0,0-2.722-.563c-.48,3.235-1.742,4.733-4.021,4.841a4.085,4.085,0,0,1-2.688-.816,4.644,4.644,0,0,1-1.733-3.955l-3.116.407m21.283,5.939-.357.045c1.046-1.65-.229-1.972-1.076-2.537-.219-.146-.443-.285-.666-.425l-2.818-1.779c0,1.736-.021,3.241.022,4.745a1.073,1.073,0,0,0,.473.67c.914.644,1.842,1.274,2.795,1.86a4.157,4.157,0,0,0,5.647-1.018c1.513-1.952,2.977-3.942,4.448-5.926a6.424,6.424,0,0,0,1.213-3.5,1.6,1.6,0,1,0-3.19-.2,4.71,4.71,0,0,0,0,.888,1.725,1.725,0,0,1-.792,1.757c-.855.61-1.629,1.336-2.439,2.01a4.447,4.447,0,0,0-1.566,2.561c-.059.279-.1.562-.157.847ZM16.266,33.531c-2,.255-3.864.475-5.722.738-1.057.149-2.049.313-2.838-.729a2.5,2.5,0,0,0-1.3-.642A2.38,2.38,0,0,0,3.737,33.9a2.722,2.722,0,0,0,.135,2.926c3.168-1.393,6.086-1.107,8.7,1.279a.837.837,0,0,0,.6.21c1.03-.16,2.054-.367,3.09-.559Zm16.221-22.1a3.858,3.858,0,0,0-5.225-2.877,5.237,5.237,0,0,1-3.784-.007,3.928,3.928,0,0,0-4.9,1.84,7.808,7.808,0,0,0-.378,1.044Zm-14.38,3.2h14.5V13.227h-14.5Zm5.012,18.2a2.4,2.4,0,0,0,.979,2.777,2.476,2.476,0,0,0,2.766-.154,2.238,2.238,0,0,0,.72-2.623ZM8.32,37.875v4.578h1.4L10.84,38.9a4.142,4.142,0,0,0-2.52-1.029m0,6.393V49.12l2.543-1.174L9.718,44.268ZM6.5,49.109V44.281H5.065l-1.151,3.7L6.5,49.109M3.935,38.784c.343,1.19.6,2.2.94,3.189a1.052,1.052,0,0,0,.646.536,3.156,3.156,0,0,0,.967-.027V37.659L3.935,38.784M2.722,40.572l-.307-.04-.663,1.951H3.24l-.518-1.912m10.324,1.912-.72-2-.247.013-.493,1.983ZM2.431,46.23l.3-.046.514-1.9h-1.5l.688,1.949m9.118-1.943.55,1.972h.251l.68-1.972Z" transform="translate(0 0)"/>
          <path id="Trazado_875618" data-name="Trazado 875618" d="M90.988,93.537a2.429,2.429,0,0,1,2.555-2.43,2.5,2.5,0,0,1,2.415,2.505,2.579,2.579,0,0,1-2.489,2.463,2.5,2.5,0,0,1-2.48-2.538m2.329.9.35-.01c.175-.3.523-.626.477-.884-.05-.28-.468-.494-.725-.737-.245.266-.654.514-.684.8-.027.253.372.551.583.829" transform="translate(-72.984 -73.078)"/>
          <path id="Trazado_875619" data-name="Trazado 875619" d="M145.34,93.54a2.5,2.5,0,0,1-2.481,2.537,2.579,2.579,0,0,1-2.488-2.464,2.5,2.5,0,0,1,2.514-2.5,2.426,2.426,0,0,1,2.455,2.432m-1.357-.006c-.543-.346-.868-.716-1.136-.679a1.1,1.1,0,0,0-.678.758.578.578,0,0,0,.739.673c.312-.071.57-.384,1.075-.752" transform="translate(-112.594 -73.08)"/>
          <path id="Trazado_875620" data-name="Trazado 875620" d="M115.982,135.949v-1.807c.983,0,1.895.006,2.806,0,1.32-.01,1.629-.235,2.109-1.554H122.4a2.865,2.865,0,0,1-2.363,3.135,34.211,34.211,0,0,1-4.058.226" transform="translate(-93.032 -106.352)"/>
          <path id="Trazado_875621" data-name="Trazado 875621" d="M99.333,198.738h11.405v6.451H99.333Zm8.473,4.756a26.053,26.053,0,0,1-2.14-2.176c-.885-1.136-1.985-.978-3.361-.805a17.59,17.59,0,0,1,1.94,1.935c.9,1.239,2.078,1.278,3.561,1.047m1.188-1.481V200.5h-1.533l1.533,1.516m-7.885-.172v1.683H102.8l-1.693-1.683" transform="translate(-79.678 -159.413)"/>
        </g>
      </g>
    </g>
  </g>
</svg>
