<svg xmlns="http://www.w3.org/2000/svg" width="50.055" height="51.937" viewBox="0 0 50.055 51.937">
  <g id="Grupo_1102509" data-name="Grupo 1102509" transform="translate(-197.473 -12053)">
    <g id="Grupo_1101364" data-name="Grupo 1101364" transform="translate(197.473 12053)">
      <path id="Trazado_113538" data-name="Trazado 113538" d="M43.182,6.593c-1.969,0-2.941-1.587-3.721-2.863s-1.326-2.082-2.335-2.082-1.543.791-2.332,2.082-1.753,2.863-3.72,2.863S28.133,5.006,27.353,3.73,26.027,1.648,25.02,1.648s-1.542.791-2.332,2.082-1.753,2.863-3.72,2.863-2.94-1.587-3.719-2.863-1.325-2.082-2.331-2.082-1.541.791-2.331,2.082S8.835,6.593,6.867,6.593,3.928,5.006,3.148,3.73,1.823,1.648.817,1.648A.824.824,0,0,1,.817,0c1.967,0,2.939,1.588,3.72,2.864S5.861,4.945,6.867,4.945,8.408,4.154,9.2,2.864,10.951,0,12.918,0s2.939,1.588,3.719,2.863c.79,1.291,1.325,2.082,2.332,2.082S20.51,4.154,21.3,2.863C22.08,1.588,23.052,0,25.02,0s2.94,1.588,3.721,2.863c.789,1.291,1.325,2.082,2.333,2.082s1.542-.791,2.332-2.082C34.186,1.588,35.158,0,37.126,0s2.942,1.588,3.722,2.863c.791,1.291,1.326,2.082,2.334,2.082s1.544-.791,2.335-2.082C46.3,1.588,47.27,0,49.239,0a.82.82,0,0,1,.816.824.819.819,0,0,1-.816.824c-1.008,0-1.544.791-2.335,2.082S45.152,6.593,43.182,6.593Z" transform="translate(50.055 29.559) rotate(180)" fill="#a98bc4"/>
      <path id="Trazado_126936" data-name="Trazado 126936" d="M43.182,6.593c-1.969,0-2.941-1.587-3.721-2.863s-1.326-2.082-2.335-2.082-1.543.791-2.332,2.082-1.753,2.863-3.72,2.863S28.133,5.006,27.353,3.73,26.027,1.648,25.02,1.648s-1.542.791-2.332,2.082-1.753,2.863-3.72,2.863-2.94-1.587-3.719-2.863-1.325-2.082-2.331-2.082-1.541.791-2.331,2.082S8.835,6.593,6.867,6.593,3.928,5.006,3.148,3.73,1.823,1.648.817,1.648A.824.824,0,0,1,.817,0c1.967,0,2.939,1.588,3.72,2.864S5.861,4.945,6.867,4.945,8.408,4.154,9.2,2.864,10.951,0,12.918,0s2.939,1.588,3.719,2.863c.79,1.291,1.325,2.082,2.332,2.082S20.51,4.154,21.3,2.863C22.08,1.588,23.052,0,25.02,0s2.94,1.588,3.721,2.863c.789,1.291,1.325,2.082,2.333,2.082s1.542-.791,2.332-2.082C34.186,1.588,35.158,0,37.126,0s2.942,1.588,3.722,2.863c.791,1.291,1.326,2.082,2.334,2.082s1.544-.791,2.335-2.082C46.3,1.588,47.27,0,49.239,0a.82.82,0,0,1,.816.824.819.819,0,0,1-.816.824c-1.008,0-1.544.791-2.335,2.082S45.152,6.593,43.182,6.593Z" transform="translate(50.055 51.937) rotate(180)" fill="#a98bc4"/>
      <path id="Trazado_126924" data-name="Trazado 126924" d="M43.182,6.593c-1.969,0-2.941-1.587-3.721-2.863s-1.326-2.082-2.335-2.082-1.543.791-2.332,2.082-1.753,2.863-3.72,2.863S28.133,5.006,27.353,3.73,26.027,1.648,25.02,1.648s-1.542.791-2.332,2.082-1.753,2.863-3.72,2.863-2.94-1.587-3.719-2.863-1.325-2.082-2.331-2.082-1.541.791-2.331,2.082S8.835,6.593,6.867,6.593,3.928,5.006,3.148,3.73,1.823,1.648.817,1.648A.824.824,0,0,1,.817,0c1.967,0,2.939,1.588,3.72,2.864S5.861,4.945,6.867,4.945,8.408,4.154,9.2,2.864,10.951,0,12.918,0s2.939,1.588,3.719,2.863c.79,1.291,1.325,2.082,2.332,2.082S20.51,4.154,21.3,2.863C22.08,1.588,23.052,0,25.02,0s2.94,1.588,3.721,2.863c.789,1.291,1.325,2.082,2.333,2.082s1.542-.791,2.332-2.082C34.186,1.588,35.158,0,37.126,0s2.942,1.588,3.722,2.863c.791,1.291,1.326,2.082,2.334,2.082s1.544-.791,2.335-2.082C46.3,1.588,47.27,0,49.239,0a.82.82,0,0,1,.816.824.819.819,0,0,1-.816.824c-1.008,0-1.544.791-2.335,2.082S45.152,6.593,43.182,6.593Z" transform="translate(50.055 14.248) rotate(180)" fill="#a98bc4"/>
      <path id="Trazado_126938" data-name="Trazado 126938" d="M43.182,6.593c-1.969,0-2.941-1.587-3.721-2.863s-1.326-2.082-2.335-2.082-1.543.791-2.332,2.082-1.753,2.863-3.72,2.863S28.133,5.006,27.353,3.73,26.027,1.648,25.02,1.648s-1.542.791-2.332,2.082-1.753,2.863-3.72,2.863-2.94-1.587-3.719-2.863-1.325-2.082-2.331-2.082-1.541.791-2.331,2.082S8.835,6.593,6.867,6.593,3.928,5.006,3.148,3.73,1.823,1.648.817,1.648A.824.824,0,0,1,.817,0c1.967,0,2.939,1.588,3.72,2.864S5.861,4.945,6.867,4.945,8.408,4.154,9.2,2.864,10.951,0,12.918,0s2.939,1.588,3.719,2.863c.79,1.291,1.325,2.082,2.332,2.082S20.51,4.154,21.3,2.863C22.08,1.588,23.052,0,25.02,0s2.94,1.588,3.721,2.863c.789,1.291,1.325,2.082,2.333,2.082s1.542-.791,2.332-2.082C34.186,1.588,35.158,0,37.126,0s2.942,1.588,3.722,2.863c.791,1.291,1.326,2.082,2.334,2.082s1.544-.791,2.335-2.082C46.3,1.588,47.27,0,49.239,0a.82.82,0,0,1,.816.824.819.819,0,0,1-.816.824c-1.008,0-1.544.791-2.335,2.082S45.152,6.593,43.182,6.593Z" transform="translate(50.055 36.626) rotate(180)" fill="#a98bc4"/>
      <path id="Trazado_113539" data-name="Trazado 113539" d="M43.182,6.593c-1.969,0-2.941-1.587-3.721-2.863s-1.326-2.082-2.335-2.082-1.543.791-2.332,2.082-1.753,2.863-3.72,2.863S28.133,5.006,27.353,3.73,26.027,1.648,25.02,1.648s-1.542.791-2.332,2.082-1.753,2.863-3.72,2.863-2.94-1.587-3.719-2.863-1.325-2.082-2.331-2.082-1.541.791-2.331,2.082S8.835,6.593,6.867,6.593,3.928,5.006,3.148,3.73,1.823,1.648.817,1.648A.824.824,0,0,1,.817,0c1.967,0,2.939,1.588,3.72,2.864S5.861,4.945,6.867,4.945,8.408,4.154,9.2,2.864,10.951,0,12.918,0s2.939,1.588,3.719,2.863c.79,1.291,1.325,2.082,2.332,2.082S20.51,4.154,21.3,2.863C22.08,1.588,23.052,0,25.02,0s2.94,1.588,3.721,2.863c.789,1.291,1.325,2.082,2.333,2.082s1.542-.791,2.332-2.082C34.186,1.588,35.158,0,37.126,0s2.942,1.588,3.722,2.863c.791,1.291,1.326,2.082,2.334,2.082s1.544-.791,2.335-2.082C46.3,1.588,47.27,0,49.239,0a.82.82,0,0,1,.816.824.819.819,0,0,1-.816.824c-1.008,0-1.544.791-2.335,2.082S45.152,6.593,43.182,6.593Z" transform="translate(50.055 21.904) rotate(180)" fill="#a98bc4"/>
      <path id="Trazado_126937" data-name="Trazado 126937" d="M43.182,6.593c-1.969,0-2.941-1.587-3.721-2.863s-1.326-2.082-2.335-2.082-1.543.791-2.332,2.082-1.753,2.863-3.72,2.863S28.133,5.006,27.353,3.73,26.027,1.648,25.02,1.648s-1.542.791-2.332,2.082-1.753,2.863-3.72,2.863-2.94-1.587-3.719-2.863-1.325-2.082-2.331-2.082-1.541.791-2.331,2.082S8.835,6.593,6.867,6.593,3.928,5.006,3.148,3.73,1.823,1.648.817,1.648A.824.824,0,0,1,.817,0c1.967,0,2.939,1.588,3.72,2.864S5.861,4.945,6.867,4.945,8.408,4.154,9.2,2.864,10.951,0,12.918,0s2.939,1.588,3.719,2.863c.79,1.291,1.325,2.082,2.332,2.082S20.51,4.154,21.3,2.863C22.08,1.588,23.052,0,25.02,0s2.94,1.588,3.721,2.863c.789,1.291,1.325,2.082,2.333,2.082s1.542-.791,2.332-2.082C34.186,1.588,35.158,0,37.126,0s2.942,1.588,3.722,2.863c.791,1.291,1.326,2.082,2.334,2.082s1.544-.791,2.335-2.082C46.3,1.588,47.27,0,49.239,0a.82.82,0,0,1,.816.824.819.819,0,0,1-.816.824c-1.008,0-1.544.791-2.335,2.082S45.152,6.593,43.182,6.593Z" transform="translate(50.055 44.281) rotate(180)" fill="#a98bc4"/>
      <path id="Trazado_126923" data-name="Trazado 126923" d="M43.182,6.593c-1.969,0-2.941-1.587-3.721-2.863s-1.326-2.082-2.335-2.082-1.543.791-2.332,2.082-1.753,2.863-3.72,2.863S28.133,5.006,27.353,3.73,26.027,1.648,25.02,1.648s-1.542.791-2.332,2.082-1.753,2.863-3.72,2.863-2.94-1.587-3.719-2.863-1.325-2.082-2.331-2.082-1.541.791-2.331,2.082S8.835,6.593,6.867,6.593,3.928,5.006,3.148,3.73,1.823,1.648.817,1.648A.824.824,0,0,1,.817,0c1.967,0,2.939,1.588,3.72,2.864S5.861,4.945,6.867,4.945,8.408,4.154,9.2,2.864,10.951,0,12.918,0s2.939,1.588,3.719,2.863c.79,1.291,1.325,2.082,2.332,2.082S20.51,4.154,21.3,2.863C22.08,1.588,23.052,0,25.02,0s2.94,1.588,3.721,2.863c.789,1.291,1.325,2.082,2.333,2.082s1.542-.791,2.332-2.082C34.186,1.588,35.158,0,37.126,0s2.942,1.588,3.722,2.863c.791,1.291,1.326,2.082,2.334,2.082s1.544-.791,2.335-2.082C46.3,1.588,47.27,0,49.239,0a.82.82,0,0,1,.816.824.819.819,0,0,1-.816.824c-1.008,0-1.544.791-2.335,2.082S45.152,6.593,43.182,6.593Z" transform="translate(50.055 6.593) rotate(180)" fill="#a98bc4"/>
    </g>
  </g>
</svg>
