<svg xmlns="http://www.w3.org/2000/svg" xmlns:xlink="http://www.w3.org/1999/xlink" width="104" height="104" viewBox="0 0 104 104">
  <defs>
    <clipPath id="clip-path">
      <rect id="Rect치ngulo_402673" data-name="Rect치ngulo 402673" width="55.194" height="55.204" fill="none"/>
    </clipPath>
  </defs>
  <g id="Grupo_1102510" data-name="Grupo 1102510" transform="translate(-1073.77 -687.804)">
    <g id="Grupo_1102326" data-name="Grupo 1102326" transform="translate(0.051)">
      <g id="Grupo_1102325" data-name="Grupo 1102325">
        <g id="Grupo_1102222" data-name="Grupo 1102222" transform="translate(-44.332 -1298.196)">
          <g id="Grupo_1102218" data-name="Grupo 1102218" transform="translate(96 1592)">
            <g id="Elipse_11492" data-name="Elipse 11492" transform="translate(1022.051 394)" fill="#95dbb3" stroke="#fff" stroke-width="2">
              <circle cx="52" cy="52" r="52" stroke="none"/>
              <circle cx="52" cy="52" r="51" fill="none"/>
            </g>
            <g id="Elipse_11500" data-name="Elipse 11500" transform="translate(1030.802 402.752)" fill="none" stroke="#000" stroke-width="2" stroke-dasharray="5">
              <circle cx="43.758" cy="43.758" r="43.758" stroke="none"/>
              <circle cx="43.758" cy="43.758" r="42.758" fill="none"/>
            </g>
          </g>
        </g>
        <g id="Grupo_1102324" data-name="Grupo 1102324" transform="translate(1100.051 710.604)">
          <g id="Grupo_1102323" data-name="Grupo 1102323" clip-path="url(#clip-path)">
            <path id="Trazado_875629" data-name="Trazado 875629" d="M5.379,3.667C5.787.916,6.619-.047,8.429,0c1.694.046,2.5,1.052,2.816,3.578h7.005c.033-.269.082-.558.1-.848A2.82,2.82,0,0,1,23.99,2.7c.019.264.037.527.069.962h7.027c.044-.355.094-.644.114-.934A2.82,2.82,0,0,1,36.836,2.7c.019.264.038.527.062.876h7.044c.033-.267.083-.555.1-.846A2.82,2.82,0,0,1,49.682,2.7c.019.264.037.527.068.965.8,0,1.59-.008,2.376,0A2.785,2.785,0,0,1,55.188,6.72q.011,22.706,0,45.412A2.776,2.776,0,0,1,52.144,55.2q-24.534.011-49.067,0A2.776,2.776,0,0,1,.005,52.16Q-.006,29.453,0,6.747A2.788,2.788,0,0,1,3.039,3.669c.76-.01,1.52,0,2.34,0M2.03,14.866c-.023.446-.054.783-.054,1.12q0,17.782,0,35.564c0,1.457.214,1.678,1.64,1.679q23.97,0,47.94,0c1.442,0,1.665-.221,1.665-1.654q0-17.839,0-35.678c0-.33-.048-.66-.078-1.03Zm-.052-2.1H53.209c0-2.1.013-4.117-.008-6.135a.915.915,0,0,0-.936-.966c-.825-.038-1.654-.01-2.455-.01C49.437,8.233,48.7,9.259,47.1,9.27a3.882,3.882,0,0,1-1.924-.54C44.08,8.073,44,6.866,44,5.72H36.952c-.357,2.51-1.1,3.54-2.7,3.55a3.888,3.888,0,0,1-1.924-.541c-1.1-.657-1.168-1.867-1.179-3.008H24.1c-.35,2.5-1.1,3.54-2.7,3.55a3.9,3.9,0,0,1-1.923-.543c-1.1-.657-1.163-1.869-1.18-3.006H11.255c-.343,2.5-1.1,3.541-2.7,3.549a3.888,3.888,0,0,1-1.923-.545c-1.1-.658-1.163-1.87-1.178-3.081-.887,0-1.647-.015-2.406,0A.99.99,0,0,0,1.982,6.735c-.012,1.981,0,3.962,0,6.028m7.2-8.134c0-.494,0-.989,0-1.484,0-.6-.214-1.116-.869-1.111-.583.005-.816.488-.82,1.042-.007,1.065-.011,2.131,0,3.2.008.557.271,1.016.86,1s.813-.489.822-1.044c.008-.533,0-1.065,0-1.6m12.843.045h0c0-.571.019-1.142-.006-1.712A.856.856,0,0,0,21.2,2.03a.821.821,0,0,0-.849.888c-.031,1.14-.025,2.282-.006,3.423a.839.839,0,0,0,.81.931c.591.006.844-.444.862-1,.017-.532,0-1.065,0-1.6m11.164,0h0c0,.533-.012,1.066,0,1.6.016.559.271,1.006.86,1a.838.838,0,0,0,.812-.93c.02-1.141.026-2.283-.005-3.423A.822.822,0,0,0,34,2.03a.854.854,0,0,0-.813.932c-.024.57-.006,1.141-.006,1.712m12.847-.036c0,.571-.02,1.142.006,1.712a.85.85,0,0,0,.818.926.825.825,0,0,0,.842-.9c.03-1.14.026-2.282,0-3.423a.842.842,0,0,0-.818-.926c-.531-.011-.813.387-.844.9-.033.569-.008,1.141-.009,1.711" transform="translate(0 0)"/>
            <path id="Trazado_875630" data-name="Trazado 875630" d="M72.2,87.093H70.34V78.078H58.153c.33.162.633.327.948.463,2.138.922,4.267,1.868,6.425,2.74a1.762,1.762,0,0,1,1.26,1.9c-.042,5.695-.02,11.39-.02,17.085v1.341H70.25V92.64h1.927a9.244,9.244,0,0,1,.089.932q.011,4.3,0,8.6c0,1.234-.261,1.491-1.471,1.505-1.291.015-2.583,0-4.03,0,0,1.358.006,2.606,0,3.853-.009,1.642-.527,1.977-2.055,1.322-3.825-1.638-7.636-3.308-11.478-4.907a1.842,1.842,0,0,1-1.3-1.983c.036-8.065.019-16.13.021-24.2,0-1.606.153-1.754,1.791-1.754q8.368,0,16.737,0c1.641,0,1.792.148,1.794,1.752q.006,4.071,0,8.141c0,.372-.042.744-.068,1.182M54,78.66c-.033.389-.079.681-.08.974,0,7.151.008,14.3-.02,21.451a1.256,1.256,0,0,0,.931,1.34c2.995,1.252,5.97,2.549,8.956,3.824.269.114.556.184.911.3.037-.345.089-.6.089-.856,0-7.189-.008-14.377.02-21.566a1.255,1.255,0,0,0-.93-1.341c-2.995-1.252-5.97-2.549-8.955-3.824-.268-.115-.556-.183-.922-.3" transform="translate(-40.019 -58.582)"/>
            <path id="Trazado_875631" data-name="Trazado 875631" d="M132.854,122.519l2.824-2.91H124.407v-1.9h10.942l.135-.24-2.692-2.832,1.527-1.292c.682.679,1.38,1.371,2.073,2.067.781.784,1.563,1.566,2.335,2.359a1.019,1.019,0,0,1,.129,1.531c-1.5,1.563-3.035,3.085-4.68,4.748l-1.323-1.532" transform="translate(-95.875 -87.351)"/>
            <rect id="Rect치ngulo_402672" data-name="Rect치ngulo 402672" width="1.806" height="3.648" transform="translate(21.174 34.954)"/>
          </g>
        </g>
      </g>
    </g>
  </g>
</svg>
