<svg xmlns="http://www.w3.org/2000/svg" xmlns:xlink="http://www.w3.org/1999/xlink" width="104" height="104" viewBox="0 0 104 104">
  <defs>
    <clipPath id="clip-path">
      <rect id="Rectángulo_402674" data-name="Rectángulo 402674" width="56.633" height="53.43" fill="none"/>
    </clipPath>
  </defs>
  <g id="Grupo_1102511" data-name="Grupo 1102511" transform="translate(-758.719 -1106.804)">
    <g id="Grupo_1102331" data-name="Grupo 1102331">
      <g id="Grupo_1102330" data-name="Grupo 1102330">
        <g id="Grupo_1102222" data-name="Grupo 1102222" transform="translate(-359.332 -879.196)">
          <g id="Grupo_1102218" data-name="Grupo 1102218" transform="translate(96 1592)">
            <g id="Elipse_11492" data-name="Elipse 11492" transform="translate(1022.051 394)" fill="#95dbb3" stroke="#fff" stroke-width="2">
              <circle cx="52" cy="52" r="52" stroke="none"/>
              <circle cx="52" cy="52" r="51" fill="none"/>
            </g>
            <g id="Elipse_11500" data-name="Elipse 11500" transform="translate(1030.802 402.752)" fill="none" stroke="#000" stroke-width="2" stroke-dasharray="5">
              <circle cx="43.758" cy="43.758" r="43.758" stroke="none"/>
              <circle cx="43.758" cy="43.758" r="42.758" fill="none"/>
            </g>
          </g>
        </g>
        <g id="Grupo_1102329" data-name="Grupo 1102329" transform="translate(785.051 1132.089)">
          <g id="Grupo_1102328" data-name="Grupo 1102328" clip-path="url(#clip-path)">
            <path id="Trazado_875632" data-name="Trazado 875632" d="M14.537,39.948q-5.679,0-11.357-.005a7.979,7.979,0,0,1-1.533-.124A1.872,1.872,0,0,1,.021,37.895c-.032-.77-.012-1.543-.012-2.315q0-14.445,0-28.89c0-2.02.687-2.706,2.7-2.722.184,0,.367,0,.551,0C4.54,3.961,4.688,4.074,4.8,2.626A2.422,2.422,0,0,1,7.224.1a52.885,52.885,0,0,1,8.793.164C17.955.54,19.8,1.6,21.764,2.122a2.873,2.873,0,0,1,1.377,1.051,1.824,1.824,0,0,0,1.786.8,15.248,15.248,0,0,1,1.543-.008c1.977.018,2.756.774,2.762,2.73.011,3.639,0,7.278,0,10.916q0,4.907,0,9.814a8.626,8.626,0,0,1-.018.881c-.062.608-.325,1.109-1.01,1.067-.617-.038-.845-.508-.846-1.093,0-.514.009-1.029-.01-1.543a3.563,3.563,0,0,0-3.786-3.7c-1.544-.013-3.088.022-4.631-.014A1.023,1.023,0,0,0,17.8,23.8a3.392,3.392,0,0,1-6.467-.075.858.858,0,0,0-.944-.687c-1.727.016-3.456-.03-5.182.019a3.333,3.333,0,0,0-3.3,3.32c-.039,3.528,0,7.057-.029,10.585-.007.769.277,1.029,1.031,1.027q11.743-.024,23.487,0c.7,0,.99-.242.971-.967-.037-1.432-.006-2.866-.009-4.3,0-.641.106-1.239.9-1.235.766,0,.958.59.964,1.225.016,1.654.043,3.309-.006,4.962-.043,1.445-.876,2.216-2.441,2.262-1.689.05-3.381.017-5.072.018q-3.584,0-7.167,0m.1-32.21v.009c-1.506,0-3.013-.031-4.518.011-1.033.028-1.391.4-1.406,1.431-.027,1.983-.048,3.968.014,5.95a3.706,3.706,0,0,0,3.611,3.6c1.394.047,2.791.036,4.187.013a3.878,3.878,0,0,0,3.991-3.959c.04-1.8.024-3.6,0-5.4-.014-1.2-.45-1.623-1.7-1.645-1.4-.025-2.791-.006-4.187-.006M27.355,22.459V21.323q0-7.059,0-14.117c0-.221.073-.486-.024-.652-.156-.268-.4-.633-.649-.676-2.056-.354-2.272-.155-2.273,1.888,0,.368.017.736,0,1.1a3.236,3.236,0,0,0,.6,2.144,3.5,3.5,0,0,1-2.041,5.374,1.661,1.661,0,0,0-.983.672,6.387,6.387,0,0,1-3.422,3.273,2.526,2.526,0,0,0-.573.471l.1.263c.348.028.7.077,1.043.08,1.14.01,2.281.039,3.419,0a6.848,6.848,0,0,1,4.809,1.316M1.887,22.2a8.922,8.922,0,0,1,5.2-1.05c1.065,0,2.13.018,3.194-.016a2.363,2.363,0,0,0,.738-.3c-.181-.192-.327-.466-.549-.562a6.2,6.2,0,0,1-3.287-3.249,1.3,1.3,0,0,0-.777-.6,3.534,3.534,0,0,1-2.173-5.6,2.44,2.44,0,0,0,.455-1.081c.063-1.024.038-2.055.015-3.083C4.7,6.427,4.583,6,4.485,5.989a8.7,8.7,0,0,0-2.27-.019C2.04,6,1.9,6.781,1.9,7.217c-.022,4.59-.014,9.179-.014,13.769V22.2M6.694,8.379a3.64,3.64,0,0,1,3.829-2.606c2.2-.025,4.4-.034,6.6,0,.845.015,1.088-.328,1.026-1.121a2.756,2.756,0,0,0-2.727-2.628c-2.527-.064-5.056-.017-7.584-.038-.862-.007-1.157.418-1.146,1.228.022,1.72.007,3.441.007,5.162m9.443,13.757.187-.1c-.234-.461-.375-1.228-.716-1.331-1.978-.6-2.867.278-2.477,2.29a1.369,1.369,0,0,0,1.45,1.233,1.478,1.478,0,0,0,1.5-1.214,4.009,4.009,0,0,0,.057-.877m6.341-13.12c.209-3.748-.08-4.938-2.44-5.473a12.072,12.072,0,0,0,.024,1.731,1.275,1.275,0,0,0,.52.845,3.684,3.684,0,0,1,1.9,2.9m.022,5.456a1.385,1.385,0,0,0,1.155-1.645A1.273,1.273,0,0,0,22.5,11.452Zm-15.871-3A1.375,1.375,0,0,0,5.46,12.96a1.437,1.437,0,0,0,1.169,1.511Z" transform="translate(-0.002 0)"/>
            <path id="Trazado_875633" data-name="Trazado 875633" d="M28.22,199.234q-12.517,0-25.035,0a7.687,7.687,0,0,1-1.533-.107,1.868,1.868,0,0,1-1.63-1.928q-.044-4.025,0-8.051a1.9,1.9,0,0,1,1.922-2.014c1.722-.095,3.453-.054,5.18-.03.59.008,1.136.262,1.126.956s-.529.9-1.15.9c-1.4,0-2.795.029-4.191-.006-.758-.019-1.046.264-1.034,1.03q.05,3.142,0,6.286c-.013.79.33,1.06,1.058,1,.219-.017.441,0,.662,0H53c.331,0,.662-.008.992-.01.488,0,.749-.224.748-.735q-.007-3.419,0-6.837c0-.519-.276-.722-.759-.721-.331,0-.662-.006-.992-.006q-20.348,0-40.7,0a3.75,3.75,0,0,1-1.2-.063c-.29-.1-.68-.445-.688-.693a1.255,1.255,0,0,1,.515-.945,2.35,2.35,0,0,1,1.173-.175q20.9-.011,41.8,0c2.04,0,2.731.7,2.734,2.7,0,2.316.007,4.632,0,6.948-.007,1.72-.739,2.45-2.487,2.5-.331.01-.662,0-.993,0H28.22" transform="translate(0 -145.806)"/>
            <path id="Trazado_875634" data-name="Trazado 875634" d="M151.032,30.081q-4.906,0-9.812,0A8.521,8.521,0,0,1,139.9,30a1.963,1.963,0,0,1-1.868-2.177c-.019-2.5-.015-5,0-7.5a2.119,2.119,0,0,1,2.365-2.4c1.727-.029,3.454-.009,5.181-.009q4.41,0,8.82,0c.33,0,.737-.081.97.079a1.726,1.726,0,0,1,.772,1c.026.225-.519.6-.873.761a2.511,2.511,0,0,1-.981.037q-6.56,0-13.119,0c-1.244,0-1.252.007-1.256,1.194-.007,1.984.04,3.97-.02,5.953-.029.947.344,1.179,1.223,1.175q10.032-.04,20.065,0c.828,0,1.189-.221,1.164-1.123-.056-2.056-.037-4.116-.007-6.173.011-.735-.2-1.1-1-1.035-.694.054-1.4.012-2.094,0-.556-.009-1.018-.3-.918-.844.068-.367.515-.909.832-.939a16.2,16.2,0,0,1,3.4.017,1.872,1.872,0,0,1,1.637,2.033q.031,3.914,0,7.827a1.924,1.924,0,0,1-1.814,2.1,8.894,8.894,0,0,1-1.427.087q-4.961.011-9.922,0" transform="translate(-107.577 -13.956)"/>
            <path id="Trazado_875635" data-name="Trazado 875635" d="M151.127,96c-3.527,0-7.054.006-10.581,0-1.867,0-2.505-.652-2.509-2.523-.005-2.388-.011-4.776,0-7.165a2.085,2.085,0,0,1,2.284-2.358q10.8-.029,21.6,0a2.076,2.076,0,0,1,2.28,2.354q.019,3.693,0,7.385c-.008,1.59-.695,2.3-2.278,2.3-3.6.016-7.2.005-10.8.006m-.023-1.884c3.38,0,6.76-.017,10.14.013.791.007,1.121-.22,1.1-1.062-.046-2.093-.033-4.188-.006-6.282.009-.7-.215-.974-.948-.972q-10.251.03-20.5,0c-.812,0-1,.325-.986,1.048.03,1.984.006,3.968.011,5.952,0,1.3.008,1.3,1.267,1.307q4.96.008,9.92,0" transform="translate(-107.584 -65.423)"/>
            <path id="Trazado_875636" data-name="Trazado 875636" d="M151.193,150.98c3.455,0,6.91-.006,10.365,0,1.948,0,2.641.713,2.647,2.664,0,.625.017,1.25-.008,1.874a1.9,1.9,0,0,1-1.69,1.985,7.658,7.658,0,0,1-1.424.112q-9.979.01-19.958,0a7.575,7.575,0,0,1-1.316-.1,1.938,1.938,0,0,1-1.772-2.035c-.023-.587-.008-1.176-.007-1.764.005-2.078.675-2.74,2.8-2.743q4.576-.007,9.152,0h1.213m.034,1.878c-3.417,0-6.835-.008-10.252.013-.33,0-.925.147-.943.287a5.738,5.738,0,0,0,.022,2.163c.056.214.887.317,1.364.319q9.7.03,19.4.013c.257,0,.514-.011.772-.009a.635.635,0,0,0,.731-.741,7.428,7.428,0,0,1,.011-.991c.092-.825-.26-1.078-1.074-1.069-3.343.037-6.687.015-10.031.015" transform="translate(-107.578 -117.675)"/>
            <path id="Trazado_875637" data-name="Trazado 875637" d="M41.172,203.721q9.091,0,18.183,0c.693,0,1.488-.122,1.64.854.1.643-.52,1.021-1.637,1.021q-18.238.006-36.475,0c-.292,0-.66.065-.86-.082-.315-.231-.717-.622-.707-.933.009-.29.467-.645.805-.819a2.333,2.333,0,0,1,.978-.042H41.172" transform="translate(-16.614 -158.76)"/>
            <path id="Trazado_875638" data-name="Trazado 875638" d="M124.09,219.886q-6,0-12,0a2.345,2.345,0,0,1-.977-.054c-.313-.157-.712-.494-.734-.78a1.253,1.253,0,0,1,.59-.9,2.15,2.15,0,0,1,1.069-.14q12.112-.01,24.225,0c1.267,0,1.817.3,1.749.994-.11,1.112-1,.874-1.7.877-4.074.016-8.148.008-12.222.008" transform="translate(-86.029 -169.918)"/>
            <path id="Trazado_875639" data-name="Trazado 875639" d="M17.465,135.853a4.472,4.472,0,0,1-.026-8.944,4.556,4.556,0,0,1,4.536,4.468,4.5,4.5,0,0,1-4.51,4.475m.029-1.889a2.631,2.631,0,0,0,2.6-2.59,2.665,2.665,0,0,0-2.63-2.575,2.544,2.544,0,0,0-2.539,2.611,2.491,2.491,0,0,0,2.572,2.555" transform="translate(-10.164 -98.915)"/>
            <path id="Trazado_875640" data-name="Trazado 875640" d="M174.108,50.656c-2.2,0-4.4,0-6.6,0a2.013,2.013,0,0,1-.964-.112c-.274-.164-.607-.549-.583-.806a1.4,1.4,0,0,1,.642-.88,2,2,0,0,1,.969-.083q6.546-.006,13.092,0c.257,0,.574-.083.757.036a7.168,7.168,0,0,1,.96.879c-.3.316-.549.74-.916.917a2.97,2.97,0,0,1-1.194.054q-3.081,0-6.161,0" transform="translate(-129.351 -37.99)"/>
            <path id="Trazado_875641" data-name="Trazado 875641" d="M173.96,33.728q3.244,0,6.488,0a2.052,2.052,0,0,1,.868.036c.349.184.891.548.863.776a1.826,1.826,0,0,1-.781,1c-.2.146-.567.069-.859.069q-6.488,0-12.977,0c-1.266,0-1.845-.3-1.772-.972.126-1.164,1.068-.89,1.792-.9,2.126-.022,4.252-.008,6.378-.008" transform="translate(-129.215 -26.266)"/>
            <path id="Trazado_875642" data-name="Trazado 875642" d="M66.741,142.814q-2.2,0-4.4,0c-.643,0-1.223-.135-1.228-.92s.567-.955,1.209-.956q4.456-.009,8.913,0c.656,0,1.213.243,1.187.989-.023.678-.552.885-1.169.885q-2.256,0-4.511,0" transform="translate(-47.632 -109.847)"/>
            <path id="Trazado_875643" data-name="Trazado 875643" d="M62.725,219.891q-2.148,0-4.3,0c-.64,0-1.234-.119-1.219-.918.014-.768.6-.947,1.235-.95q4.185-.018,8.371,0c.677,0,1.307.188,1.274,1.021-.032.794-.668.85-1.29.849q-2.038,0-4.075,0" transform="translate(-44.59 -169.924)"/>
            <path id="Trazado_875644" data-name="Trazado 875644" d="M65.554,157.689c-1.061,0-2.123.01-3.184,0-.68-.009-1.3-.2-1.256-1.029.038-.793.669-.842,1.289-.841q3.184.005,6.367,0c.63,0,1.245.083,1.258.874.014.833-.621.989-1.292,1-1.061.013-2.122,0-3.184,0" transform="translate(-47.632 -121.445)"/>
            <path id="Trazado_875645" data-name="Trazado 875645" d="M208.484,205.661c-.767,0-1.537.031-2.3-.01-.561-.031-1-.308-1-.945s.426-.893,1.012-.9c1.572-.008,3.146-.049,4.714.034a1.343,1.343,0,0,1,.959.78c.177.589-.3.971-.866,1.01-.836.058-1.68.015-2.52.015v.011" transform="translate(-159.925 -158.839)"/>
            <path id="Trazado_875646" data-name="Trazado 875646" d="M156.333,35.13c-.328.265-.667.752-.98.736-.335-.017-.647-.507-.969-.79.284-.316.53-.827.863-.892.305-.06.7.361,1.063.57Z" transform="translate(-120.329 -26.639)"/>
            <path id="Trazado_875647" data-name="Trazado 875647" d="M106.464,157.05c-.614.414-.991.867-1.3.826-.33-.043-.6-.557-.894-.864.308-.29.6-.783.929-.811s.677.427,1.269.849" transform="translate(-81.267 -121.745)"/>
            <path id="Trazado_875648" data-name="Trazado 875648" d="M156.578,50.07c-.588.453-.937.929-1.247.905-.336-.025-.638-.517-.954-.8.288-.315.544-.833.873-.885.312-.05.7.39,1.328.785" transform="translate(-120.323 -38.411)"/>
            <path id="Trazado_875649" data-name="Trazado 875649" d="M32.957,220.444c-.232-.341-.65-.687-.641-1.022.008-.306.534-.88.731-.84a1.347,1.347,0,0,1,.924.807c.06.3-.388.693-.611,1.046l-.4.009" transform="translate(-25.187 -170.365)"/>
            <path id="Trazado_875650" data-name="Trazado 875650" d="M43.515,220.426c-.24-.343-.707-.723-.66-1.021a1.357,1.357,0,0,1,.895-.847c.193-.049.747.5.766.808.021.339-.381.7-.6,1.057l-.4,0" transform="translate(-33.399 -170.346)"/>
            <path id="Trazado_875651" data-name="Trazado 875651" d="M22.155,217.69c.251.34.68.672.7,1.023.014.285-.417.757-.74.857a.7.7,0,0,1-.929-.762c.037-.382.39-.733.6-1.1l.369-.021" transform="translate(-16.508 -169.671)"/>
            <path id="Trazado_875652" data-name="Trazado 875652" d="M54.058,65.509a3.467,3.467,0,0,1-3.316-2.547c-.149-.6-.091-1.13.566-1.34.59-.189.978.119,1.174.686a1.612,1.612,0,0,0,1.562,1.3,1.663,1.663,0,0,0,1.642-1.348.871.871,0,0,1,1.207-.624c.6.218.67.715.553,1.267a3.455,3.455,0,0,1-3.389,2.6" transform="translate(-39.496 -47.985)"/>
            <path id="Trazado_875653" data-name="Trazado 875653" d="M59.617,45.917c.194.226.437.381.454.557a1.8,1.8,0,0,1-.1,1.156,1.093,1.093,0,0,1-1.058.133A4.09,4.09,0,0,1,57.571,46.5a1.49,1.49,0,0,1,.084-1.189,5.163,5.163,0,0,1,.887-1.106.942.942,0,0,1,1.356-.255c.572.407.469.926.094,1.432-.107.145-.209.294-.375.53" transform="translate(-44.799 -34.111)"/>
            <path id="Trazado_875654" data-name="Trazado 875654" d="M48.2,42.876c-.011.178-.016.325-.029.471-.058.629-.234,1.22-1,1.2-.685-.021-.878-.577-.92-1.164a2.262,2.262,0,0,1,.035-1.084c.2-.405.549-.928.924-1.015.583-.136.869.4.933.97.024.218.038.437.054.625" transform="translate(-36.011 -32.158)"/>
            <path id="Trazado_875655" data-name="Trazado 875655" d="M78.933,42.96c-.016.256.06.578-.067.752-.234.32-.589.765-.89.762a1.261,1.261,0,0,1-.867-.772,4.075,4.075,0,0,1-.049-1.523c.041-.583.393-1.061.971-.926.346.081.635.581.856.949.113.188.02.5.02.757Z" transform="translate(-60.026 -32.136)"/>
            <path id="Trazado_875656" data-name="Trazado 875656" d="M164.018,116.831q-3.908,0-7.817,0a2.25,2.25,0,0,1-.974-.076,1.236,1.236,0,0,1-.649-.771,1.1,1.1,0,0,1,.516-.848,2.546,2.546,0,0,1,1.17-.177q7.762-.015,15.523-.006h.22c.694,0,1.448.059,1.472.934.024.9-.725.95-1.425.948q-4.018-.008-8.037,0" transform="translate(-120.48 -89.594)"/>
            <path id="Trazado_875657" data-name="Trazado 875657" d="M160.755,101.759q-2.473,0-4.946,0c-.683,0-1.333-.156-1.317-.966s.683-.922,1.357-.921q4.891.007,9.782,0c.682,0,1.327.13,1.31.959s-.678.93-1.35.928c-1.612,0-3.224,0-4.836,0" transform="translate(-120.414 -77.843)"/>
            <path id="Trazado_875658" data-name="Trazado 875658" d="M217.88,99.172a7.557,7.557,0,0,1,1.849.04c.364.094.625.581.933.892-.309.3-.6.845-.929.873a23.518,23.518,0,0,1-3.82.005,1.233,1.233,0,0,1-.846-.877,1.306,1.306,0,0,1,.853-.9,8.64,8.64,0,0,1,1.96-.041Z" transform="translate(-167.627 -77.264)"/>
          </g>
        </g>
      </g>
    </g>
  </g>
</svg>
