<svg xmlns="http://www.w3.org/2000/svg" xmlns:xlink="http://www.w3.org/1999/xlink" width="73" height="73" viewBox="0 0 73 73">
  <defs>
    <clipPath id="clip-path">
      <rect id="Rectángulo_402596" data-name="Rectángulo 402596" width="36.449" height="36.487" fill="none"/>
    </clipPath>
  </defs>
  <g id="Grupo_1102510" data-name="Grupo 1102510" transform="translate(-598.051 -3895)">
    <g id="Grupo_1102251" data-name="Grupo 1102251" transform="translate(93)">
      <g id="Grupo_1102224" data-name="Grupo 1102224" transform="translate(-613 1909)">
        <g id="Grupo_1102237" data-name="Grupo 1102237" transform="translate(1118.051 1986)">
          <g id="Grupo_1102218" data-name="Grupo 1102218">
            <g id="Elipse_11492" data-name="Elipse 11492" fill="#95dbb3" stroke="#fff" stroke-width="2">
              <circle cx="36.5" cy="36.5" r="36.5" stroke="none"/>
              <circle cx="36.5" cy="36.5" r="35.5" fill="none"/>
            </g>
            <g id="Elipse_11500" data-name="Elipse 11500" transform="translate(6.146 6.146)" fill="none" stroke="#000" stroke-width="2" stroke-dasharray="5">
              <circle cx="30.728" cy="30.728" r="30.728" stroke="none"/>
              <circle cx="30.728" cy="30.728" r="29.728" fill="none"/>
            </g>
          </g>
        </g>
      </g>
      <g id="Grupo_1102250" data-name="Grupo 1102250" transform="translate(523.326 3913.274)">
        <g id="Grupo_1102249" data-name="Grupo 1102249" clip-path="url(#clip-path)">
          <path id="Trazado_875335" data-name="Trazado 875335" d="M36.449,35.344v1.143H0V35.372H13.524c-.207-2.1.538-4.23-.86-6.11A10.062,10.062,0,0,1,12,28.083a15.464,15.464,0,0,1-1.139-2.132,14.786,14.786,0,0,1-.446-2.359H2.976V2.992H6.984V.02h.772C9.373.02,10.991.071,12.6.007a5.659,5.659,0,0,1,5.543,2.736c.079-.022.144-.021.162-.049A5.614,5.614,0,0,1,23.618.008c1.9.055,3.793.011,5.782.011V2.967h4.079v20.58h-7.42c-.082.1-.136.141-.134.174.15,1.8-.691,3.328-1.45,4.845a8.5,8.5,0,0,0-.974,4.661c.06.678.01,1.365.01,2.117ZM8.266,1.25V19.983H10.55c0-1.654-.005-3.264,0-4.873.006-1.244.679-1.759,1.9-1.469a3.517,3.517,0,0,1,2.812,3.479c.021.944,0,1.888,0,2.85H17.66V11.256h1.172v8.731h9.331V1.192H23.493c-3.061,0-4.69,1.641-4.691,4.723,0,1.348,0,2.7,0,4.068H17.633c0-1.579.022-3.118-.005-4.657a3.951,3.951,0,0,0-3.568-4.042c-1.9-.158-3.832-.034-5.794-.034M17.049,26.5a7.232,7.232,0,0,0-2.7-5.385,1.148,1.148,0,0,1-.252-.757c-.028-1.092.008-2.185-.02-3.277a2.244,2.244,0,0,0-2.266-2.273,2.806,2.806,0,0,0-.058.407c0,3.135-.016,6.27.016,9.4a2.992,2.992,0,0,0,.374,1.272c.77,1.5,1.574,2.975,2.394,4.445a.734.734,0,0,0,.544.3q3.419.03,6.839,0a.7.7,0,0,0,.529-.311c.686-1.511,1.387-3.018,1.974-4.569a10.491,10.491,0,0,0,.337-2.156h-3.63a3.128,3.128,0,0,1-2.658,2.344c-.16.025-.275.35-.426.557ZM29.4,21.248H16.356a31.709,31.709,0,0,1,1.431,2.893c.242.634.558.681,1.064.477a1.657,1.657,0,0,0,1.092-1.38c.035-.254.046-.51.075-.838H32.294V4.183H29.4ZM4.151,4.182V22.347h6.337V21.2H7.027V4.182Zm15.786,30H14.728v1.129H22.3V34.223l-1.073-.1V33.015l1.065-.075v-1.07H14.734V33h5.2Z" transform="translate(0 0)"/>
          <rect id="Rectángulo_402582" data-name="Rectángulo 402582" width="7.006" height="1.096" transform="translate(20.027 6.543)"/>
          <rect id="Rectángulo_402583" data-name="Rectángulo 402583" width="6.971" height="1.108" transform="translate(9.433 11.234)"/>
          <rect id="Rectángulo_402584" data-name="Rectángulo 402584" width="7.005" height="1.069" transform="translate(9.406 4.195)"/>
          <rect id="Rectángulo_402585" data-name="Rectángulo 402585" width="7.003" height="1.075" transform="translate(20.006 4.193)"/>
          <rect id="Rectángulo_402586" data-name="Rectángulo 402586" width="6.998" height="1.064" transform="translate(9.434 8.906)"/>
          <rect id="Rectángulo_402587" data-name="Rectángulo 402587" width="6.997" height="1.064" transform="translate(20.006 8.908)"/>
          <rect id="Rectángulo_402588" data-name="Rectángulo 402588" width="7.002" height="1.066" transform="translate(20.028 13.035)"/>
          <rect id="Rectángulo_402589" data-name="Rectángulo 402589" width="7.004" height="1.078" transform="translate(20.022 17.737)"/>
          <rect id="Rectángulo_402590" data-name="Rectángulo 402590" width="1.095" height="1.112" transform="translate(14.727 6.528)"/>
          <rect id="Rectángulo_402591" data-name="Rectángulo 402591" width="1.081" height="1.124" transform="translate(20.634 15.363)"/>
          <rect id="Rectángulo_402592" data-name="Rectángulo 402592" width="1.075" height="1.109" transform="translate(12.382 6.541)"/>
          <rect id="Rectángulo_402593" data-name="Rectángulo 402593" width="1.094" height="1.112" transform="translate(22.963 15.369)"/>
          <rect id="Rectángulo_402594" data-name="Rectángulo 402594" width="1.085" height="1.11" transform="translate(25.347 15.359)"/>
          <rect id="Rectángulo_402595" data-name="Rectángulo 402595" width="1.098" height="1.095" transform="translate(10.013 6.548)"/>
        </g>
      </g>
    </g>
  </g>
</svg>
