<svg xmlns="http://www.w3.org/2000/svg" xmlns:xlink="http://www.w3.org/1999/xlink" width="813.522" height="689.342" viewBox="0 0 813.522 689.342">
  <defs>
    <clipPath id="clip-path">
      <rect id="Rectángulo_402408" data-name="Rectángulo 402408" width="55.683" height="68.367" fill="none"/>
    </clipPath>
  </defs>
  <g id="Grupo_1102511" data-name="Grupo 1102511" transform="translate(-393.051 -4031)">
    <path id="Trazado_874670" data-name="Trazado 874670" d="M-6471.5-6941.424h-1V-7546.7h1Z" transform="translate(6865.572 11661.766)" fill="#e8e8e8"/>
    <path id="Trazado_874671" data-name="Trazado 874671" d="M-6471.5-6940.636h-1V-7546.7h1Z" transform="translate(6906.572 11660.977)" fill="#e8e8e8"/>
    <path id="Trazado_874698" data-name="Trazado 874698" d="M-6471.5-6940.636h-1V-7546.7h1Z" transform="translate(7254.572 11660.977)" fill="#e8e8e8"/>
    <path id="Trazado_874678" data-name="Trazado 874678" d="M-6471.5-6940.636h-1V-7546.7h1Z" transform="translate(7080.572 11660.977)" fill="#e8e8e8"/>
    <path id="Trazado_874691" data-name="Trazado 874691" d="M-6471.5-6940.636h-1V-7546.7h1Z" transform="translate(7428.572 11660.977)" fill="#e8e8e8"/>
    <path id="Trazado_874676" data-name="Trazado 874676" d="M-6471.5-6940.636h-1V-7546.7h1Z" transform="translate(6981.572 11660.977)" fill="#e8e8e8"/>
    <path id="Trazado_874693" data-name="Trazado 874693" d="M-6471.5-6940.636h-1V-7546.7h1Z" transform="translate(7329.572 11660.977)" fill="#e8e8e8"/>
    <path id="Trazado_874681" data-name="Trazado 874681" d="M-6471.5-6940.636h-1V-7546.7h1Z" transform="translate(7155.572 11660.977)" fill="#e8e8e8"/>
    <path id="Trazado_874686" data-name="Trazado 874686" d="M-6471.5-6940.636h-1V-7546.7h1Z" transform="translate(7503.572 11660.977)" fill="#e8e8e8"/>
    <path id="Trazado_874702" data-name="Trazado 874702" d="M-6471.5-6940.636h-1V-7546.7h1Z" transform="translate(7603.572 11660.977)" fill="#e8e8e8"/>
    <path id="Trazado_874672" data-name="Trazado 874672" d="M-6471.5-6940.136h-1V-7546.7h1Z" transform="translate(6932.572 11660.479)" fill="#e8e8e8"/>
    <path id="Trazado_874697" data-name="Trazado 874697" d="M-6471.5-6940.636h-1V-7546.7h1Z" transform="translate(7280.572 11660.977)" fill="#e8e8e8"/>
    <path id="Trazado_874679" data-name="Trazado 874679" d="M-6471.5-6940.636h-1V-7546.7h1Z" transform="translate(7106.572 11660.977)" fill="#e8e8e8"/>
    <path id="Trazado_874689" data-name="Trazado 874689" d="M-6471.5-6940.636h-1V-7546.7h1Z" transform="translate(7454.572 11660.977)" fill="#e8e8e8"/>
    <path id="Trazado_874675" data-name="Trazado 874675" d="M-6471.5-6940.636h-1V-7546.7h1Z" transform="translate(7005.572 11660.977)" fill="#e8e8e8"/>
    <path id="Trazado_874694" data-name="Trazado 874694" d="M-6471.5-6940.636h-1V-7546.7h1Z" transform="translate(7353.572 11660.977)" fill="#e8e8e8"/>
    <path id="Trazado_874682" data-name="Trazado 874682" d="M-6471.5-6940.636h-1V-7546.7h1Z" transform="translate(7179.572 11660.977)" fill="#e8e8e8"/>
    <path id="Trazado_874687" data-name="Trazado 874687" d="M-6471.5-6940.636h-1V-7546.7h1Z" transform="translate(7527.572 11660.977)" fill="#e8e8e8"/>
    <path id="Trazado_874701" data-name="Trazado 874701" d="M-6471.5-6940.636h-1V-7546.7h1Z" transform="translate(7627.572 11660.977)" fill="#e8e8e8"/>
    <path id="Trazado_874673" data-name="Trazado 874673" d="M-6471.5-6940.636h-1V-7546.7h1Z" transform="translate(6956.572 11660.977)" fill="#e8e8e8"/>
    <path id="Trazado_874695" data-name="Trazado 874695" d="M-6471.5-6940.636h-1V-7546.7h1Z" transform="translate(7304.572 11660.977)" fill="#e8e8e8"/>
    <path id="Trazado_874680" data-name="Trazado 874680" d="M-6471.5-6940.636h-1V-7546.7h1Z" transform="translate(7130.572 11660.977)" fill="#e8e8e8"/>
    <path id="Trazado_874690" data-name="Trazado 874690" d="M-6471.5-6940.636h-1V-7546.7h1Z" transform="translate(7478.572 11660.977)" fill="#e8e8e8"/>
    <path id="Trazado_874696" data-name="Trazado 874696" d="M-6471.5-6940.636h-1V-7546.7h1Z" transform="translate(7379.572 11660.977)" fill="#e8e8e8"/>
    <path id="Trazado_874683" data-name="Trazado 874683" d="M-6471.5-6940.636h-1V-7546.7h1Z" transform="translate(7205.572 11660.977)" fill="#e8e8e8"/>
    <path id="Trazado_874688" data-name="Trazado 874688" d="M-6471.5-6940.636h-1V-7546.7h1Z" transform="translate(7553.572 11660.977)" fill="#e8e8e8"/>
    <path id="Trazado_874699" data-name="Trazado 874699" d="M-6471.5-6940.636h-1V-7546.7h1Z" transform="translate(7653.572 11660.977)" fill="#e8e8e8"/>
    <path id="Trazado_874677" data-name="Trazado 874677" d="M-6471.5-6940.636h-1V-7546.7h1Z" transform="translate(7056.572 11660.977)" fill="#e8e8e8"/>
    <path id="Trazado_874692" data-name="Trazado 874692" d="M-6471.5-6940.636h-1V-7546.7h1Z" transform="translate(7404.572 11660.977)" fill="#e8e8e8"/>
    <path id="Trazado_874684" data-name="Trazado 874684" d="M-6471.5-6940.636h-1V-7546.7h1Z" transform="translate(7230.572 11660.977)" fill="#e8e8e8"/>
    <path id="Trazado_874685" data-name="Trazado 874685" d="M-6471.5-6940.636h-1V-7546.7h1Z" transform="translate(7578.572 11660.977)" fill="#e8e8e8"/>
    <path id="Trazado_874700" data-name="Trazado 874700" d="M-6471.5-6940.636h-1V-7546.7h1Z" transform="translate(7677.572 11660.977)" fill="#e8e8e8"/>
    <path id="Trazado_874704" data-name="Trazado 874704" d="M.5,812.522h-1V0h1Z" transform="translate(1205.572 4326.821) rotate(90)" fill="#e8e8e8"/>
    <path id="Trazado_874705" data-name="Trazado 874705" d="M.5,812.522h-1V0h1Z" transform="translate(1205.572 4169.821) rotate(90)" fill="#e8e8e8"/>
    <path id="Trazado_874706" data-name="Trazado 874706" d="M.5,812.522h-1V0h1Z" transform="translate(1205.572 4533.821) rotate(90)" fill="#e8e8e8"/>
    <path id="Trazado_874708" data-name="Trazado 874708" d="M.5,812.522h-1V0h1Z" transform="translate(1205.572 4396.821) rotate(90)" fill="#e8e8e8"/>
    <path id="Trazado_874709" data-name="Trazado 874709" d="M.5,812.522h-1V0h1Z" transform="translate(1205.572 4239.821) rotate(90)" fill="#e8e8e8"/>
    <path id="Trazado_874710" data-name="Trazado 874710" d="M.5,812.522h-1V0h1Z" transform="translate(1205.572 4601.821) rotate(90)" fill="#e8e8e8"/>
    <path id="Trazado_874711" data-name="Trazado 874711" d="M.5,812.522h-1V0h1Z" transform="translate(1205.572 4694.821) rotate(90)" fill="#e8e8e8"/>
    <path id="Trazado_874737" data-name="Trazado 874737" d="M.5,812.522h-1V0h1Z" transform="translate(1205.572 4719.821) rotate(90)" fill="#e8e8e8"/>
    <path id="Trazado_874713" data-name="Trazado 874713" d="M.5,812.522h-1V0h1Z" transform="translate(1205.572 4350.821) rotate(90)" fill="#e8e8e8"/>
    <path id="Trazado_874714" data-name="Trazado 874714" d="M.5,812.522h-1V0h1Z" transform="translate(1205.572 4190.821) rotate(90)" fill="#e8e8e8"/>
    <path id="Trazado_874715" data-name="Trazado 874715" d="M.5,812.522h-1V0h1Z" transform="translate(1205.572 4555.821) rotate(90)" fill="#e8e8e8"/>
    <path id="Trazado_874717" data-name="Trazado 874717" d="M.5,812.522h-1V0h1Z" transform="translate(1205.572 4420.821) rotate(90)" fill="#e8e8e8"/>
    <path id="Trazado_874718" data-name="Trazado 874718" d="M.5,812.522h-1V0h1Z" transform="translate(1205.572 4259.821) rotate(90)" fill="#e8e8e8"/>
    <path id="Trazado_874719" data-name="Trazado 874719" d="M.5,812.522h-1V0h1Z" transform="translate(1205.572 4623.821) rotate(90)" fill="#e8e8e8"/>
    <path id="Trazado_874722" data-name="Trazado 874722" d="M.5,812.522h-1V0h1Z" transform="translate(1205.572 4372.821) rotate(90)" fill="#e8e8e8"/>
    <path id="Trazado_874723" data-name="Trazado 874723" d="M.5,812.522h-1V0h1Z" transform="translate(1205.572 4214.821) rotate(90)" fill="#e8e8e8"/>
    <path id="Trazado_874724" data-name="Trazado 874724" d="M.5,812.522h-1V0h1Z" transform="translate(1205.572 4578.821) rotate(90)" fill="#e8e8e8"/>
    <path id="Trazado_874726" data-name="Trazado 874726" d="M.5,812.522h-1V0h1Z" transform="translate(1205.572 4464.821) rotate(90)" fill="#e8e8e8"/>
    <path id="Trazado_874735" data-name="Trazado 874735" d="M.5,812.522h-1V0h1Z" transform="translate(1205.572 4441.821) rotate(90)" fill="#e8e8e8"/>
    <path id="Trazado_874727" data-name="Trazado 874727" d="M.5,812.522h-1V0h1Z" transform="translate(1205.572 4282.821) rotate(90)" fill="#e8e8e8"/>
    <path id="Trazado_874728" data-name="Trazado 874728" d="M.5,812.522h-1V0h1Z" transform="translate(1205.572 4646.821) rotate(90)" fill="#e8e8e8"/>
    <path id="Trazado_874730" data-name="Trazado 874730" d="M.5,812.522h-1V0h1Z" transform="translate(1205.572 4145.821) rotate(90)" fill="#e8e8e8"/>
    <path id="Trazado_874731" data-name="Trazado 874731" d="M.5,812.522h-1V0h1Z" transform="translate(1205.572 4509.821) rotate(90)" fill="#e8e8e8"/>
    <path id="Trazado_874736" data-name="Trazado 874736" d="M.5,812.522h-1V0h1Z" transform="translate(1205.572 4487.821) rotate(90)" fill="#e8e8e8"/>
    <path id="Trazado_874732" data-name="Trazado 874732" d="M.5,812.522h-1V0h1Z" transform="translate(1205.572 4304.821) rotate(90)" fill="#e8e8e8"/>
    <path id="Trazado_874733" data-name="Trazado 874733" d="M.5,812.522h-1V0h1Z" transform="translate(1205.572 4671.821) rotate(90)" fill="#e8e8e8"/>
    <path id="Trazado_876088" data-name="Trazado 876088" d="M10.977,17H8.445V12.438H3.8V17H1.281V5.8H3.8v4.469H8.445V5.8h2.531Zm12.414,0h-2.75l-.8-2.492H15.859L15.07,17H12.336L16.414,5.8h2.992Zm-4.125-4.43L18.063,8.8A4.907,4.907,0,0,1,17.875,7.8h-.062a4.273,4.273,0,0,1-.2.977L16.4,12.57ZM24.789,17V5.8h4.078a5.093,5.093,0,0,1,2.883.688,2.211,2.211,0,0,1,1.008,1.938,2.293,2.293,0,0,1-.613,1.586,3.222,3.222,0,0,1-1.566.945v.031a3.1,3.1,0,0,1,1.91.883,2.469,2.469,0,0,1,.715,1.789A2.99,2.99,0,0,1,32.1,16.1a4.61,4.61,0,0,1-3.008.9Zm2.523-9.344v2.656h1.109a1.849,1.849,0,0,0,1.23-.379A1.291,1.291,0,0,0,30.1,8.891q0-1.234-1.844-1.234Zm0,4.531v2.953H28.68a2.1,2.1,0,0,0,1.371-.406,1.357,1.357,0,0,0,.5-1.109,1.266,1.266,0,0,0-.488-1.055,2.16,2.16,0,0,0-1.363-.383Z" transform="translate(397.33 4127.5)" fill="#12263f"/>
    <path id="Trazado_876089" data-name="Trazado 876089" d="M6.5,5.547V17H4.039V8.328a2.947,2.947,0,0,1-.48.34,4.96,4.96,0,0,1-.59.289,5.267,5.267,0,0,1-.648.219,4.736,4.736,0,0,1-.664.129V7.227a10.266,10.266,0,0,0,1.813-.719,10.315,10.315,0,0,0,1.539-.961ZM13.742,17.2q-4,0-4-5.617a7.643,7.643,0,0,1,1.082-4.441,3.605,3.605,0,0,1,3.137-1.527q3.906,0,3.906,5.711A7.526,7.526,0,0,1,16.8,15.68,3.513,3.513,0,0,1,13.742,17.2Zm.109-9.7q-1.6,0-1.6,4.023,0,3.789,1.57,3.789,1.531,0,1.531-3.906T13.852,7.492ZM24.906,5.547V17H22.445V8.328a2.947,2.947,0,0,1-.48.34,4.96,4.96,0,0,1-.59.289,5.267,5.267,0,0,1-.648.219,4.736,4.736,0,0,1-.664.129V7.227a10.266,10.266,0,0,0,1.813-.719,10.315,10.315,0,0,0,1.539-.961ZM3.352,37.953H8.1V40H.648v-.844a3.927,3.927,0,0,1,.289-1.543,5.12,5.12,0,0,1,.727-1.227,6.3,6.3,0,0,1,.957-.961q.52-.418.988-.754Q4.1,34.32,4.473,34a4.919,4.919,0,0,0,.625-.637,2.421,2.421,0,0,0,.379-.641,1.905,1.905,0,0,0,.125-.691A1.39,1.39,0,0,0,5.2,30.945a1.806,1.806,0,0,0-1.242-.367,4.172,4.172,0,0,0-2.766,1.148V29.555a5.937,5.937,0,0,1,3.3-.945,4.869,4.869,0,0,1,1.527.223,3.231,3.231,0,0,1,1.145.637,2.716,2.716,0,0,1,.715,1,3.388,3.388,0,0,1,.246,1.316,3.712,3.712,0,0,1-.238,1.375,4.225,4.225,0,0,1-.633,1.094,5.74,5.74,0,0,1-.91.9q-.516.41-1.07.793-.375.266-.723.527A6.851,6.851,0,0,0,3.93,37a2.8,2.8,0,0,0-.422.5A.856.856,0,0,0,3.352,37.953ZM13.742,40.2q-4,0-4-5.617a7.643,7.643,0,0,1,1.082-4.441,3.605,3.605,0,0,1,3.137-1.527q3.906,0,3.906,5.711A7.526,7.526,0,0,1,16.8,38.68,3.513,3.513,0,0,1,13.742,40.2Zm.109-9.7q-1.6,0-1.6,4.023,0,3.789,1.57,3.789,1.531,0,1.531-3.906T13.852,30.492Zm11.055-1.945V40H22.445V31.328a2.947,2.947,0,0,1-.48.34,4.96,4.96,0,0,1-.59.289,5.267,5.267,0,0,1-.648.219,4.737,4.737,0,0,1-.664.129V30.227a10.435,10.435,0,0,0,3.352-1.68ZM3.352,60.953H8.1V63H.648v-.844a3.927,3.927,0,0,1,.289-1.543,5.12,5.12,0,0,1,.727-1.227,6.3,6.3,0,0,1,.957-.961q.52-.418.988-.754Q4.1,57.32,4.473,57a4.919,4.919,0,0,0,.625-.637,2.421,2.421,0,0,0,.379-.641,1.905,1.905,0,0,0,.125-.691A1.39,1.39,0,0,0,5.2,53.945a1.806,1.806,0,0,0-1.242-.367,4.172,4.172,0,0,0-2.766,1.148V52.555a5.937,5.937,0,0,1,3.3-.945,4.869,4.869,0,0,1,1.527.223,3.231,3.231,0,0,1,1.145.637,2.716,2.716,0,0,1,.715,1,3.388,3.388,0,0,1,.246,1.316,3.712,3.712,0,0,1-.238,1.375,4.225,4.225,0,0,1-.633,1.094,5.74,5.74,0,0,1-.91.9q-.516.41-1.07.793-.375.266-.723.527A6.851,6.851,0,0,0,3.93,60a2.8,2.8,0,0,0-.422.5A.856.856,0,0,0,3.352,60.953ZM13.742,63.2q-4,0-4-5.617a7.643,7.643,0,0,1,1.082-4.441,3.605,3.605,0,0,1,3.137-1.527q3.906,0,3.906,5.711A7.526,7.526,0,0,1,16.8,61.68,3.513,3.513,0,0,1,13.742,63.2Zm.109-9.7q-1.6,0-1.6,4.023,0,3.789,1.57,3.789,1.531,0,1.531-3.906T13.852,53.492Zm7.906,7.461h4.75V63H19.055v-.844a3.927,3.927,0,0,1,.289-1.543,5.12,5.12,0,0,1,.727-1.227,6.3,6.3,0,0,1,.957-.961q.52-.418.988-.754.492-.352.863-.672a4.919,4.919,0,0,0,.625-.637,2.421,2.421,0,0,0,.379-.641,1.905,1.905,0,0,0,.125-.691,1.39,1.39,0,0,0-.406-1.086,1.806,1.806,0,0,0-1.242-.367,4.172,4.172,0,0,0-2.766,1.148V52.555a5.937,5.937,0,0,1,3.3-.945,4.869,4.869,0,0,1,1.527.223,3.231,3.231,0,0,1,1.145.637,2.716,2.716,0,0,1,.715,1,3.388,3.388,0,0,1,.246,1.316,3.712,3.712,0,0,1-.238,1.375,4.225,4.225,0,0,1-.633,1.094,5.74,5.74,0,0,1-.91.9q-.516.41-1.07.793-.375.266-.723.527a6.851,6.851,0,0,0-.613.516,2.8,2.8,0,0,0-.422.5A.856.856,0,0,0,21.758,60.953Zm-18.406,23H8.1V86H.648v-.844a3.927,3.927,0,0,1,.289-1.543,5.12,5.12,0,0,1,.727-1.227,6.3,6.3,0,0,1,.957-.961q.52-.418.988-.754Q4.1,80.32,4.473,80a4.919,4.919,0,0,0,.625-.637,2.421,2.421,0,0,0,.379-.641,1.905,1.905,0,0,0,.125-.691A1.39,1.39,0,0,0,5.2,76.945a1.806,1.806,0,0,0-1.242-.367,4.172,4.172,0,0,0-2.766,1.148V75.555a5.937,5.937,0,0,1,3.3-.945,4.869,4.869,0,0,1,1.527.223,3.231,3.231,0,0,1,1.145.637,2.716,2.716,0,0,1,.715,1,3.388,3.388,0,0,1,.246,1.316,3.712,3.712,0,0,1-.238,1.375,4.225,4.225,0,0,1-.633,1.094,5.74,5.74,0,0,1-.91.9q-.516.41-1.07.793-.375.266-.723.527A6.85,6.85,0,0,0,3.93,83a2.8,2.8,0,0,0-.422.5A.856.856,0,0,0,3.352,83.953ZM13.742,86.2q-4,0-4-5.617a7.643,7.643,0,0,1,1.082-4.441,3.605,3.605,0,0,1,3.137-1.527q3.906,0,3.906,5.711A7.526,7.526,0,0,1,16.8,84.68,3.513,3.513,0,0,1,13.742,86.2Zm.109-9.7q-1.6,0-1.6,4.023,0,3.789,1.57,3.789,1.531,0,1.531-3.906T13.852,76.492Zm5.469,9.141V83.484a4.336,4.336,0,0,0,2.625.82,2.363,2.363,0,0,0,1.473-.406,1.349,1.349,0,0,0,.527-1.133,1.288,1.288,0,0,0-.652-1.156A3.38,3.38,0,0,0,21.5,81.2H20.461V79.313h.961q2.188,0,2.188-1.453,0-1.367-1.68-1.367a3.829,3.829,0,0,0-2.187.727V75.2a6.042,6.042,0,0,1,2.75-.594,4.15,4.15,0,0,1,2.676.773,2.461,2.461,0,0,1,.957,2.008,2.611,2.611,0,0,1-2.227,2.75v.039a3.027,3.027,0,0,1,1.875.863,2.434,2.434,0,0,1,.688,1.754,3.006,3.006,0,0,1-1.148,2.484,4.965,4.965,0,0,1-3.172.914A6.13,6.13,0,0,1,19.32,85.633ZM3.352,106.953H8.1V109H.648v-.844a3.927,3.927,0,0,1,.289-1.543,5.12,5.12,0,0,1,.727-1.227,6.3,6.3,0,0,1,.957-.961q.52-.418.988-.754.492-.352.863-.672a4.919,4.919,0,0,0,.625-.637,2.421,2.421,0,0,0,.379-.641,1.905,1.905,0,0,0,.125-.691A1.39,1.39,0,0,0,5.2,99.945a1.806,1.806,0,0,0-1.242-.367,4.172,4.172,0,0,0-2.766,1.148V98.555a5.937,5.937,0,0,1,3.3-.945,4.869,4.869,0,0,1,1.527.223,3.231,3.231,0,0,1,1.145.637,2.716,2.716,0,0,1,.715,1,3.388,3.388,0,0,1,.246,1.316,3.712,3.712,0,0,1-.238,1.375,4.225,4.225,0,0,1-.633,1.094,5.74,5.74,0,0,1-.91.9q-.516.41-1.07.793-.375.266-.723.527A6.85,6.85,0,0,0,3.93,106a2.8,2.8,0,0,0-.422.5A.856.856,0,0,0,3.352,106.953ZM13.742,109.2q-4,0-4-5.617a7.643,7.643,0,0,1,1.082-4.441,3.605,3.605,0,0,1,3.137-1.527q3.906,0,3.906,5.711A7.526,7.526,0,0,1,16.8,107.68,3.513,3.513,0,0,1,13.742,109.2Zm.109-9.7q-1.6,0-1.6,4.023,0,3.789,1.57,3.789,1.531,0,1.531-3.906T13.852,99.492Zm11.992-1.7v7.063h1.344V106.7H25.844V109h-2.25v-2.3H18.711v-1.93q.648-.727,1.344-1.59t1.344-1.777q.648-.914,1.207-1.84a18.443,18.443,0,0,0,.949-1.77Zm-4.922,7.063h2.672v-3.914q-.273.508-.594,1.027T22.328,103q-.352.5-.711.977T20.922,104.859ZM3.352,129.953H8.1V132H.648v-.844a3.927,3.927,0,0,1,.289-1.543,5.12,5.12,0,0,1,.727-1.227,6.3,6.3,0,0,1,.957-.961q.52-.418.988-.754.492-.352.863-.672a4.919,4.919,0,0,0,.625-.637,2.421,2.421,0,0,0,.379-.641,1.905,1.905,0,0,0,.125-.691,1.39,1.39,0,0,0-.406-1.086,1.806,1.806,0,0,0-1.242-.367,4.172,4.172,0,0,0-2.766,1.148v-2.172a5.937,5.937,0,0,1,3.3-.945,4.869,4.869,0,0,1,1.527.223,3.231,3.231,0,0,1,1.145.637,2.716,2.716,0,0,1,.715,1,3.388,3.388,0,0,1,.246,1.316,3.712,3.712,0,0,1-.238,1.375,4.225,4.225,0,0,1-.633,1.094,5.74,5.74,0,0,1-.91.9q-.516.41-1.07.793-.375.266-.723.527A6.853,6.853,0,0,0,3.93,129a2.8,2.8,0,0,0-.422.5A.856.856,0,0,0,3.352,129.953ZM13.742,132.2q-4,0-4-5.617a7.643,7.643,0,0,1,1.082-4.441,3.605,3.605,0,0,1,3.137-1.527q3.906,0,3.906,5.711A7.526,7.526,0,0,1,16.8,130.68,3.513,3.513,0,0,1,13.742,132.2Zm.109-9.7q-1.6,0-1.6,4.023,0,3.789,1.57,3.789,1.531,0,1.531-3.906T13.852,122.492Zm5.664,9.219V129.6a4.605,4.605,0,0,0,2.445.7,2.3,2.3,0,0,0,1.527-.465,1.565,1.565,0,0,0,.551-1.262q0-1.664-2.352-1.664a17.414,17.414,0,0,0-2,.133l.422-6.25h5.93v2.016H21.992l-.156,2.242q.6-.047,1.039-.047a3.821,3.821,0,0,1,2.7.906,3.165,3.165,0,0,1,.977,2.438,3.6,3.6,0,0,1-1.164,2.77,4.473,4.473,0,0,1-3.156,1.074A6.754,6.754,0,0,1,19.516,131.711ZM3.352,152.953H8.1V155H.648v-.844a3.927,3.927,0,0,1,.289-1.543,5.12,5.12,0,0,1,.727-1.227,6.3,6.3,0,0,1,.957-.961q.52-.418.988-.754.492-.352.863-.672a4.92,4.92,0,0,0,.625-.637,2.421,2.421,0,0,0,.379-.641,1.905,1.905,0,0,0,.125-.691,1.39,1.39,0,0,0-.406-1.086,1.806,1.806,0,0,0-1.242-.367,4.172,4.172,0,0,0-2.766,1.148v-2.172a5.937,5.937,0,0,1,3.3-.945,4.869,4.869,0,0,1,1.527.223,3.231,3.231,0,0,1,1.145.637,2.716,2.716,0,0,1,.715,1,3.388,3.388,0,0,1,.246,1.316,3.712,3.712,0,0,1-.238,1.375,4.225,4.225,0,0,1-.633,1.094,5.74,5.74,0,0,1-.91.9q-.516.41-1.07.793-.375.266-.723.527A6.853,6.853,0,0,0,3.93,152a2.8,2.8,0,0,0-.422.5A.856.856,0,0,0,3.352,152.953ZM13.742,155.2q-4,0-4-5.617a7.643,7.643,0,0,1,1.082-4.441,3.605,3.605,0,0,1,3.137-1.527q3.906,0,3.906,5.711A7.526,7.526,0,0,1,16.8,153.68,3.513,3.513,0,0,1,13.742,155.2Zm.109-9.7q-1.6,0-1.6,4.023,0,3.789,1.57,3.789,1.531,0,1.531-3.906T13.852,145.492Zm13.227,5.781a4.107,4.107,0,0,1-.289,1.547,3.776,3.776,0,0,1-.8,1.246,3.723,3.723,0,0,1-1.227.828,4.208,4.208,0,0,1-3.246-.051,3.414,3.414,0,0,1-1.262-1.02,4.767,4.767,0,0,1-.789-1.637,8.088,8.088,0,0,1-.273-2.2,9.039,9.039,0,0,1,.355-2.621,6.018,6.018,0,0,1,1.016-2.012,4.562,4.562,0,0,1,1.6-1.293,4.751,4.751,0,0,1,2.109-.457,5.32,5.32,0,0,1,2.016.3v2.063a3.7,3.7,0,0,0-1.859-.484,2.6,2.6,0,0,0-1.133.242,2.5,2.5,0,0,0-.871.688,3.324,3.324,0,0,0-.57,1.074,4.781,4.781,0,0,0-.223,1.4h.047a2.717,2.717,0,0,1,2.352-1.1,3.064,3.064,0,0,1,1.258.25,2.729,2.729,0,0,1,.961.707,3.243,3.243,0,0,1,.617,1.1A4.379,4.379,0,0,1,27.078,151.273Zm-2.414.156q0-1.8-1.477-1.8a1.449,1.449,0,0,0-.609.125,1.356,1.356,0,0,0-.469.352,1.6,1.6,0,0,0-.3.535,2.1,2.1,0,0,0-.105.684,2.644,2.644,0,0,0,.109.773,2.054,2.054,0,0,0,.309.629,1.528,1.528,0,0,0,.473.426,1.206,1.206,0,0,0,.609.156,1.319,1.319,0,0,0,.605-.137,1.356,1.356,0,0,0,.461-.383,1.76,1.76,0,0,0,.293-.594A2.708,2.708,0,0,0,24.664,151.43ZM3.352,175.953H8.1V178H.648v-.844a3.927,3.927,0,0,1,.289-1.543,5.12,5.12,0,0,1,.727-1.227,6.3,6.3,0,0,1,.957-.961q.52-.418.988-.754.492-.352.863-.672a4.92,4.92,0,0,0,.625-.637,2.421,2.421,0,0,0,.379-.641,1.905,1.905,0,0,0,.125-.691,1.39,1.39,0,0,0-.406-1.086,1.806,1.806,0,0,0-1.242-.367,4.172,4.172,0,0,0-2.766,1.148v-2.172a5.937,5.937,0,0,1,3.3-.945,4.869,4.869,0,0,1,1.527.223,3.231,3.231,0,0,1,1.145.637,2.716,2.716,0,0,1,.715,1,3.388,3.388,0,0,1,.246,1.316,3.712,3.712,0,0,1-.238,1.375,4.225,4.225,0,0,1-.633,1.094,5.74,5.74,0,0,1-.91.9q-.516.41-1.07.793-.375.266-.723.527A6.853,6.853,0,0,0,3.93,175a2.8,2.8,0,0,0-.422.5A.856.856,0,0,0,3.352,175.953ZM13.742,178.2q-4,0-4-5.617a7.643,7.643,0,0,1,1.082-4.441,3.605,3.605,0,0,1,3.137-1.527q3.906,0,3.906,5.711A7.526,7.526,0,0,1,16.8,176.68,3.513,3.513,0,0,1,13.742,178.2Zm.109-9.7q-1.6,0-1.6,4.023,0,3.789,1.57,3.789,1.531,0,1.531-3.906T13.852,168.492Zm13.1-.273q-.75,1.352-1.344,2.535t-1.047,2.336a22.03,22.03,0,0,0-.773,2.344A22.638,22.638,0,0,0,23.266,178H20.688a21.094,21.094,0,0,1,.578-2.516,23.592,23.592,0,0,1,.832-2.348q.473-1.137,1.047-2.215t1.215-2.109h-5.2V166.8h7.8Zm-23.6,30.734H8.1V201H.648v-.844a3.927,3.927,0,0,1,.289-1.543,5.12,5.12,0,0,1,.727-1.227,6.3,6.3,0,0,1,.957-.961q.52-.418.988-.754.492-.352.863-.672a4.92,4.92,0,0,0,.625-.637,2.421,2.421,0,0,0,.379-.641,1.905,1.905,0,0,0,.125-.691,1.39,1.39,0,0,0-.406-1.086,1.806,1.806,0,0,0-1.242-.367,4.172,4.172,0,0,0-2.766,1.148v-2.172a5.937,5.937,0,0,1,3.3-.945,4.869,4.869,0,0,1,1.527.223,3.231,3.231,0,0,1,1.145.637,2.716,2.716,0,0,1,.715,1,3.388,3.388,0,0,1,.246,1.316,3.712,3.712,0,0,1-.238,1.375,4.225,4.225,0,0,1-.633,1.094,5.74,5.74,0,0,1-.91.9q-.516.41-1.07.793-.375.266-.723.527A6.853,6.853,0,0,0,3.93,198a2.8,2.8,0,0,0-.422.5A.856.856,0,0,0,3.352,198.953ZM13.742,201.2q-4,0-4-5.617a7.643,7.643,0,0,1,1.082-4.441,3.605,3.605,0,0,1,3.137-1.527q3.906,0,3.906,5.711A7.526,7.526,0,0,1,16.8,199.68,3.513,3.513,0,0,1,13.742,201.2Zm.109-9.7q-1.6,0-1.6,4.023,0,3.789,1.57,3.789,1.531,0,1.531-3.906T13.852,191.492Zm5.18,6.492a2.983,2.983,0,0,1,.137-.9,2.734,2.734,0,0,1,.41-.8,3.019,3.019,0,0,1,.684-.664,3.672,3.672,0,0,1,.965-.48,3.46,3.46,0,0,1-1.32-1.082,2.473,2.473,0,0,1-.469-1.465,2.649,2.649,0,0,1,.27-1.187,2.881,2.881,0,0,1,.746-.945,3.49,3.49,0,0,1,1.137-.621,4.485,4.485,0,0,1,1.441-.223,4.573,4.573,0,0,1,1.461.223,3.573,3.573,0,0,1,1.145.617,2.8,2.8,0,0,1,.746.934,2.615,2.615,0,0,1,.266,1.172,2.326,2.326,0,0,1-.5,1.449,3.722,3.722,0,0,1-1.383,1.074,3.769,3.769,0,0,1,.961.48,3.093,3.093,0,0,1,.7.668,2.736,2.736,0,0,1,.422.816,3.006,3.006,0,0,1,.141.918,2.933,2.933,0,0,1-.289,1.309,2.979,2.979,0,0,1-.816,1.016,3.853,3.853,0,0,1-1.258.66,5.661,5.661,0,0,1-3.211,0,3.839,3.839,0,0,1-1.258-.652,3.025,3.025,0,0,1-.824-1.012A2.852,2.852,0,0,1,19.031,197.984Zm2.336-.211a1.9,1.9,0,0,0,.117.688,1.406,1.406,0,0,0,.336.516,1.5,1.5,0,0,0,.52.324,1.906,1.906,0,0,0,.676.113,1.8,1.8,0,0,0,.66-.117,1.549,1.549,0,0,0,.52-.328,1.493,1.493,0,0,0,.344-.516,1.86,1.86,0,0,0,.008-1.32,1.523,1.523,0,0,0-.336-.527,1.635,1.635,0,0,0-1.2-.488,1.76,1.76,0,0,0-.656.121,1.5,1.5,0,0,0-.523.344,1.622,1.622,0,0,0-.344.527A1.733,1.733,0,0,0,21.367,197.773Zm.344-4.961a1.48,1.48,0,0,0,.105.559,1.441,1.441,0,0,0,.285.453,1.3,1.3,0,0,0,.426.3,1.3,1.3,0,0,0,1.043,0,1.331,1.331,0,0,0,.426-.3,1.459,1.459,0,0,0,.395-1.008,1.552,1.552,0,0,0-.1-.566,1.339,1.339,0,0,0-.715-.754,1.342,1.342,0,0,0-1.07,0,1.308,1.308,0,0,0-.422.3,1.369,1.369,0,0,0-.273.453A1.585,1.585,0,0,0,21.711,192.813ZM3.352,221.953H8.1V224H.648v-.844a3.927,3.927,0,0,1,.289-1.543,5.12,5.12,0,0,1,.727-1.227,6.3,6.3,0,0,1,.957-.961q.52-.418.988-.754.492-.352.863-.672a4.92,4.92,0,0,0,.625-.637,2.421,2.421,0,0,0,.379-.641,1.905,1.905,0,0,0,.125-.691,1.39,1.39,0,0,0-.406-1.086,1.806,1.806,0,0,0-1.242-.367,4.172,4.172,0,0,0-2.766,1.148v-2.172a5.937,5.937,0,0,1,3.3-.945,4.869,4.869,0,0,1,1.527.223,3.231,3.231,0,0,1,1.145.637,2.716,2.716,0,0,1,.715,1,3.388,3.388,0,0,1,.246,1.316,3.712,3.712,0,0,1-.238,1.375,4.225,4.225,0,0,1-.633,1.094,5.74,5.74,0,0,1-.91.9q-.516.41-1.07.793-.375.266-.723.527A6.853,6.853,0,0,0,3.93,221a2.8,2.8,0,0,0-.422.5A.856.856,0,0,0,3.352,221.953ZM13.742,224.2q-4,0-4-5.617a7.643,7.643,0,0,1,1.082-4.441,3.605,3.605,0,0,1,3.137-1.527q3.906,0,3.906,5.711A7.526,7.526,0,0,1,16.8,222.68,3.513,3.513,0,0,1,13.742,224.2Zm.109-9.7q-1.6,0-1.6,4.023,0,3.789,1.57,3.789,1.531,0,1.531-3.906T13.852,214.492ZM26.9,217.859a9.937,9.937,0,0,1-.328,2.668,5.723,5.723,0,0,1-.957,1.988,4.227,4.227,0,0,1-1.535,1.246,4.7,4.7,0,0,1-2.055.434,5.838,5.838,0,0,1-2.367-.437v-2.031a3.793,3.793,0,0,0,2.125.578,2.446,2.446,0,0,0,1.992-.867,3.869,3.869,0,0,0,.727-2.508l-.047-.016a2.537,2.537,0,0,1-2.258,1.1,3.1,3.1,0,0,1-1.27-.258,3.05,3.05,0,0,1-1.008-.715,3.267,3.267,0,0,1-.664-1.09,3.917,3.917,0,0,1-.238-1.391,4.318,4.318,0,0,1,.289-1.609,3.684,3.684,0,0,1,.809-1.25,3.568,3.568,0,0,1,1.246-.809,4.37,4.37,0,0,1,1.609-.285,3.684,3.684,0,0,1,1.641.355,3.447,3.447,0,0,1,1.238,1.027,4.8,4.8,0,0,1,.781,1.648A8.352,8.352,0,0,1,26.9,217.859Zm-2.492-1.312a2.9,2.9,0,0,0-.109-.809,2.128,2.128,0,0,0-.3-.652,1.483,1.483,0,0,0-.477-.434,1.226,1.226,0,0,0-.617-.16,1.256,1.256,0,0,0-.59.141,1.438,1.438,0,0,0-.465.387,1.832,1.832,0,0,0-.3.59,2.435,2.435,0,0,0-.109.742,2.536,2.536,0,0,0,.109.777,1.66,1.66,0,0,0,.309.574,1.3,1.3,0,0,0,.48.355,1.564,1.564,0,0,0,.625.121,1.342,1.342,0,0,0,.594-.129A1.431,1.431,0,0,0,24,217.7a1.574,1.574,0,0,0,.3-.516A1.9,1.9,0,0,0,24.406,216.547Z" transform="translate(402.33 4148.821)" fill="#12263f"/>
    <path id="Trazado_876090" data-name="Trazado 876090" d="M3.352,14.953H8.1V17H.648v-.844a3.927,3.927,0,0,1,.289-1.543,5.12,5.12,0,0,1,.727-1.227,6.3,6.3,0,0,1,.957-.961q.52-.418.988-.754Q4.1,11.32,4.473,11a4.919,4.919,0,0,0,.625-.637,2.421,2.421,0,0,0,.379-.641A1.905,1.905,0,0,0,5.6,9.031,1.39,1.39,0,0,0,5.2,7.945a1.806,1.806,0,0,0-1.242-.367A4.172,4.172,0,0,0,1.188,8.727V6.555a5.937,5.937,0,0,1,3.3-.945,4.869,4.869,0,0,1,1.527.223,3.231,3.231,0,0,1,1.145.637,2.716,2.716,0,0,1,.715,1,3.388,3.388,0,0,1,.246,1.316,3.712,3.712,0,0,1-.238,1.375,4.225,4.225,0,0,1-.633,1.094,5.74,5.74,0,0,1-.91.9q-.516.41-1.07.793-.375.266-.723.527A6.851,6.851,0,0,0,3.93,14a2.8,2.8,0,0,0-.422.5A.856.856,0,0,0,3.352,14.953ZM15.7,5.547V17H13.242V8.328a2.947,2.947,0,0,1-.48.34,4.96,4.96,0,0,1-.59.289,5.267,5.267,0,0,1-.648.219,4.736,4.736,0,0,1-.664.129V7.227a10.266,10.266,0,0,0,1.813-.719,10.315,10.315,0,0,0,1.539-.961Zm9.2,0V17H22.445V8.328a2.947,2.947,0,0,1-.48.34,4.96,4.96,0,0,1-.59.289,5.267,5.267,0,0,1-.648.219,4.736,4.736,0,0,1-.664.129V7.227a10.266,10.266,0,0,0,1.813-.719,10.315,10.315,0,0,0,1.539-.961ZM3.352,37.953H8.1V40H.648v-.844a3.927,3.927,0,0,1,.289-1.543,5.12,5.12,0,0,1,.727-1.227,6.3,6.3,0,0,1,.957-.961q.52-.418.988-.754Q4.1,34.32,4.473,34a4.919,4.919,0,0,0,.625-.637,2.421,2.421,0,0,0,.379-.641,1.905,1.905,0,0,0,.125-.691A1.39,1.39,0,0,0,5.2,30.945a1.806,1.806,0,0,0-1.242-.367,4.172,4.172,0,0,0-2.766,1.148V29.555a5.937,5.937,0,0,1,3.3-.945,4.869,4.869,0,0,1,1.527.223,3.231,3.231,0,0,1,1.145.637,2.716,2.716,0,0,1,.715,1,3.388,3.388,0,0,1,.246,1.316,3.712,3.712,0,0,1-.238,1.375,4.225,4.225,0,0,1-.633,1.094,5.74,5.74,0,0,1-.91.9q-.516.41-1.07.793-.375.266-.723.527A6.851,6.851,0,0,0,3.93,37a2.8,2.8,0,0,0-.422.5A.856.856,0,0,0,3.352,37.953ZM15.7,28.547V40H13.242V31.328a2.947,2.947,0,0,1-.48.34,4.96,4.96,0,0,1-.59.289,5.267,5.267,0,0,1-.648.219,4.737,4.737,0,0,1-.664.129V30.227a10.435,10.435,0,0,0,3.352-1.68Zm6.055,9.406h4.75V40H19.055v-.844a3.927,3.927,0,0,1,.289-1.543,5.12,5.12,0,0,1,.727-1.227,6.3,6.3,0,0,1,.957-.961q.52-.418.988-.754.492-.352.863-.672a4.919,4.919,0,0,0,.625-.637,2.421,2.421,0,0,0,.379-.641,1.905,1.905,0,0,0,.125-.691,1.39,1.39,0,0,0-.406-1.086,1.806,1.806,0,0,0-1.242-.367,4.172,4.172,0,0,0-2.766,1.148V29.555a5.937,5.937,0,0,1,3.3-.945,4.869,4.869,0,0,1,1.527.223,3.231,3.231,0,0,1,1.145.637,2.716,2.716,0,0,1,.715,1,3.388,3.388,0,0,1,.246,1.316,3.712,3.712,0,0,1-.238,1.375,4.225,4.225,0,0,1-.633,1.094,5.74,5.74,0,0,1-.91.9q-.516.41-1.07.793-.375.266-.723.527a6.851,6.851,0,0,0-.613.516,2.8,2.8,0,0,0-.422.5A.856.856,0,0,0,21.758,37.953ZM.914,62.633V60.484a4.336,4.336,0,0,0,2.625.82A2.363,2.363,0,0,0,5.012,60.9a1.349,1.349,0,0,0,.527-1.133,1.288,1.288,0,0,0-.652-1.156A3.38,3.38,0,0,0,3.094,58.2H2.055V56.313h.961q2.187,0,2.188-1.453,0-1.367-1.68-1.367a3.829,3.829,0,0,0-2.187.727V52.2a6.042,6.042,0,0,1,2.75-.594,4.15,4.15,0,0,1,2.676.773,2.461,2.461,0,0,1,.957,2.008,2.611,2.611,0,0,1-2.227,2.75v.039a3.027,3.027,0,0,1,1.875.863A2.434,2.434,0,0,1,8.055,59.8a3.006,3.006,0,0,1-1.148,2.484,4.965,4.965,0,0,1-3.172.914A6.13,6.13,0,0,1,.914,62.633Zm12.828.563q-4,0-4-5.617a7.643,7.643,0,0,1,1.082-4.441,3.605,3.605,0,0,1,3.137-1.527q3.906,0,3.906,5.711A7.526,7.526,0,0,1,16.8,61.68,3.513,3.513,0,0,1,13.742,63.2Zm.109-9.7q-1.6,0-1.6,4.023,0,3.789,1.57,3.789,1.531,0,1.531-3.906T13.852,53.492Zm11.055-1.945V63H22.445V54.328a2.947,2.947,0,0,1-.48.34,4.96,4.96,0,0,1-.59.289,5.267,5.267,0,0,1-.648.219,4.737,4.737,0,0,1-.664.129V53.227a10.435,10.435,0,0,0,3.352-1.68ZM.914,85.633V83.484a4.336,4.336,0,0,0,2.625.82A2.363,2.363,0,0,0,5.012,83.9a1.349,1.349,0,0,0,.527-1.133,1.288,1.288,0,0,0-.652-1.156A3.38,3.38,0,0,0,3.094,81.2H2.055V79.313h.961q2.187,0,2.188-1.453,0-1.367-1.68-1.367a3.829,3.829,0,0,0-2.187.727V75.2a6.042,6.042,0,0,1,2.75-.594,4.15,4.15,0,0,1,2.676.773,2.461,2.461,0,0,1,.957,2.008,2.611,2.611,0,0,1-2.227,2.75v.039a3.027,3.027,0,0,1,1.875.863A2.434,2.434,0,0,1,8.055,82.8a3.006,3.006,0,0,1-1.148,2.484,4.965,4.965,0,0,1-3.172.914A6.13,6.13,0,0,1,.914,85.633Zm12.828.563q-4,0-4-5.617a7.643,7.643,0,0,1,1.082-4.441,3.605,3.605,0,0,1,3.137-1.527q3.906,0,3.906,5.711A7.526,7.526,0,0,1,16.8,84.68,3.513,3.513,0,0,1,13.742,86.2Zm.109-9.7q-1.6,0-1.6,4.023,0,3.789,1.57,3.789,1.531,0,1.531-3.906T13.852,76.492Zm7.906,7.461h4.75V86H19.055v-.844a3.927,3.927,0,0,1,.289-1.543,5.12,5.12,0,0,1,.727-1.227,6.3,6.3,0,0,1,.957-.961q.52-.418.988-.754.492-.352.863-.672a4.919,4.919,0,0,0,.625-.637,2.421,2.421,0,0,0,.379-.641,1.905,1.905,0,0,0,.125-.691,1.39,1.39,0,0,0-.406-1.086,1.806,1.806,0,0,0-1.242-.367,4.172,4.172,0,0,0-2.766,1.148V75.555a5.937,5.937,0,0,1,3.3-.945,4.869,4.869,0,0,1,1.527.223,3.231,3.231,0,0,1,1.145.637,2.716,2.716,0,0,1,.715,1,3.388,3.388,0,0,1,.246,1.316,3.712,3.712,0,0,1-.238,1.375,4.225,4.225,0,0,1-.633,1.094,5.74,5.74,0,0,1-.91.9q-.516.41-1.07.793-.375.266-.723.527a6.85,6.85,0,0,0-.613.516,2.8,2.8,0,0,0-.422.5A.856.856,0,0,0,21.758,83.953ZM.914,108.633v-2.148a4.336,4.336,0,0,0,2.625.82,2.363,2.363,0,0,0,1.473-.406,1.349,1.349,0,0,0,.527-1.133,1.288,1.288,0,0,0-.652-1.156,3.38,3.38,0,0,0-1.793-.406H2.055v-1.891h.961q2.187,0,2.188-1.453,0-1.367-1.68-1.367a3.829,3.829,0,0,0-2.187.727V98.2a6.042,6.042,0,0,1,2.75-.594,4.15,4.15,0,0,1,2.676.773,2.461,2.461,0,0,1,.957,2.008,2.611,2.611,0,0,1-2.227,2.75v.039a3.027,3.027,0,0,1,1.875.863,2.434,2.434,0,0,1,.688,1.754,3.006,3.006,0,0,1-1.148,2.484,4.965,4.965,0,0,1-3.172.914A6.13,6.13,0,0,1,.914,108.633Zm12.828.563q-4,0-4-5.617a7.643,7.643,0,0,1,1.082-4.441,3.605,3.605,0,0,1,3.137-1.527q3.906,0,3.906,5.711A7.526,7.526,0,0,1,16.8,107.68,3.513,3.513,0,0,1,13.742,109.2Zm.109-9.7q-1.6,0-1.6,4.023,0,3.789,1.57,3.789,1.531,0,1.531-3.906T13.852,99.492Zm5.469,9.141v-2.148a4.336,4.336,0,0,0,2.625.82,2.363,2.363,0,0,0,1.473-.406,1.349,1.349,0,0,0,.527-1.133,1.288,1.288,0,0,0-.652-1.156A3.38,3.38,0,0,0,21.5,104.2H20.461v-1.891h.961q2.188,0,2.188-1.453,0-1.367-1.68-1.367a3.829,3.829,0,0,0-2.187.727V98.2a6.042,6.042,0,0,1,2.75-.594,4.15,4.15,0,0,1,2.676.773,2.461,2.461,0,0,1,.957,2.008,2.611,2.611,0,0,1-2.227,2.75v.039a3.027,3.027,0,0,1,1.875.863,2.434,2.434,0,0,1,.688,1.754,3.006,3.006,0,0,1-1.148,2.484,4.965,4.965,0,0,1-3.172.914A6.13,6.13,0,0,1,19.32,108.633Zm-18.406,23v-2.148a4.336,4.336,0,0,0,2.625.82,2.363,2.363,0,0,0,1.473-.406,1.349,1.349,0,0,0,.527-1.133,1.288,1.288,0,0,0-.652-1.156,3.38,3.38,0,0,0-1.793-.406H2.055v-1.891h.961q2.187,0,2.188-1.453,0-1.367-1.68-1.367a3.829,3.829,0,0,0-2.187.727V121.2a6.042,6.042,0,0,1,2.75-.594,4.15,4.15,0,0,1,2.676.773,2.461,2.461,0,0,1,.957,2.008,2.611,2.611,0,0,1-2.227,2.75v.039a3.027,3.027,0,0,1,1.875.863,2.434,2.434,0,0,1,.688,1.754,3.006,3.006,0,0,1-1.148,2.484,4.965,4.965,0,0,1-3.172.914A6.13,6.13,0,0,1,.914,131.633Zm12.828.563q-4,0-4-5.617a7.643,7.643,0,0,1,1.082-4.441,3.605,3.605,0,0,1,3.137-1.527q3.906,0,3.906,5.711A7.526,7.526,0,0,1,16.8,130.68,3.513,3.513,0,0,1,13.742,132.2Zm.109-9.7q-1.6,0-1.6,4.023,0,3.789,1.57,3.789,1.531,0,1.531-3.906T13.852,122.492Zm11.992-1.7v7.063h1.344V129.7H25.844V132h-2.25v-2.3H18.711v-1.93q.648-.727,1.344-1.59t1.344-1.777q.648-.914,1.207-1.84a18.443,18.443,0,0,0,.949-1.77Zm-4.922,7.063h2.672v-3.914q-.273.508-.594,1.027T22.328,126q-.352.5-.711.977T20.922,127.859ZM.914,154.633v-2.148a4.336,4.336,0,0,0,2.625.82,2.363,2.363,0,0,0,1.473-.406,1.349,1.349,0,0,0,.527-1.133,1.288,1.288,0,0,0-.652-1.156,3.38,3.38,0,0,0-1.793-.406H2.055v-1.891h.961q2.187,0,2.188-1.453,0-1.367-1.68-1.367a3.829,3.829,0,0,0-2.187.727V144.2a6.042,6.042,0,0,1,2.75-.594,4.15,4.15,0,0,1,2.676.773,2.461,2.461,0,0,1,.957,2.008,2.611,2.611,0,0,1-2.227,2.75v.039a3.027,3.027,0,0,1,1.875.863,2.434,2.434,0,0,1,.688,1.754,3.006,3.006,0,0,1-1.148,2.484,4.965,4.965,0,0,1-3.172.914A6.13,6.13,0,0,1,.914,154.633Zm12.828.563q-4,0-4-5.617a7.643,7.643,0,0,1,1.082-4.441,3.605,3.605,0,0,1,3.137-1.527q3.906,0,3.906,5.711A7.526,7.526,0,0,1,16.8,153.68,3.513,3.513,0,0,1,13.742,155.2Zm.109-9.7q-1.6,0-1.6,4.023,0,3.789,1.57,3.789,1.531,0,1.531-3.906T13.852,145.492Zm5.664,9.219V152.6a4.605,4.605,0,0,0,2.445.7,2.3,2.3,0,0,0,1.527-.465,1.565,1.565,0,0,0,.551-1.262q0-1.664-2.352-1.664a17.412,17.412,0,0,0-2,.133l.422-6.25h5.93v2.016H21.992l-.156,2.242q.6-.047,1.039-.047a3.821,3.821,0,0,1,2.7.906,3.165,3.165,0,0,1,.977,2.438,3.6,3.6,0,0,1-1.164,2.77,4.473,4.473,0,0,1-3.156,1.074A6.754,6.754,0,0,1,19.516,154.711ZM.914,177.633v-2.148a4.336,4.336,0,0,0,2.625.82,2.363,2.363,0,0,0,1.473-.406,1.349,1.349,0,0,0,.527-1.133,1.288,1.288,0,0,0-.652-1.156,3.38,3.38,0,0,0-1.793-.406H2.055v-1.891h.961q2.187,0,2.188-1.453,0-1.367-1.68-1.367a3.829,3.829,0,0,0-2.187.727V167.2a6.042,6.042,0,0,1,2.75-.594,4.15,4.15,0,0,1,2.676.773,2.461,2.461,0,0,1,.957,2.008,2.611,2.611,0,0,1-2.227,2.75v.039a3.027,3.027,0,0,1,1.875.863,2.434,2.434,0,0,1,.688,1.754,3.006,3.006,0,0,1-1.148,2.484,4.965,4.965,0,0,1-3.172.914A6.13,6.13,0,0,1,.914,177.633Zm12.828.563q-4,0-4-5.617a7.643,7.643,0,0,1,1.082-4.441,3.605,3.605,0,0,1,3.137-1.527q3.906,0,3.906,5.711A7.526,7.526,0,0,1,16.8,176.68,3.513,3.513,0,0,1,13.742,178.2Zm.109-9.7q-1.6,0-1.6,4.023,0,3.789,1.57,3.789,1.531,0,1.531-3.906T13.852,168.492Zm13.227,5.781a4.107,4.107,0,0,1-.289,1.547,3.776,3.776,0,0,1-.8,1.246,3.723,3.723,0,0,1-1.227.828,4.208,4.208,0,0,1-3.246-.051,3.414,3.414,0,0,1-1.262-1.02,4.767,4.767,0,0,1-.789-1.637,8.088,8.088,0,0,1-.273-2.2,9.039,9.039,0,0,1,.355-2.621,6.018,6.018,0,0,1,1.016-2.012,4.562,4.562,0,0,1,1.6-1.293,4.751,4.751,0,0,1,2.109-.457,5.32,5.32,0,0,1,2.016.3v2.063a3.7,3.7,0,0,0-1.859-.484,2.6,2.6,0,0,0-1.133.242,2.5,2.5,0,0,0-.871.688,3.324,3.324,0,0,0-.57,1.074,4.781,4.781,0,0,0-.223,1.4h.047a2.717,2.717,0,0,1,2.352-1.1,3.064,3.064,0,0,1,1.258.25,2.729,2.729,0,0,1,.961.707,3.243,3.243,0,0,1,.617,1.1A4.379,4.379,0,0,1,27.078,174.273Zm-2.414.156q0-1.8-1.477-1.8a1.449,1.449,0,0,0-.609.125,1.356,1.356,0,0,0-.469.352,1.6,1.6,0,0,0-.3.535,2.1,2.1,0,0,0-.105.684,2.644,2.644,0,0,0,.109.773,2.054,2.054,0,0,0,.309.629,1.528,1.528,0,0,0,.473.426,1.206,1.206,0,0,0,.609.156,1.319,1.319,0,0,0,.605-.137,1.356,1.356,0,0,0,.461-.383,1.76,1.76,0,0,0,.293-.594A2.708,2.708,0,0,0,24.664,174.43Zm-23.75,26.2v-2.148a4.336,4.336,0,0,0,2.625.82,2.363,2.363,0,0,0,1.473-.406,1.349,1.349,0,0,0,.527-1.133,1.288,1.288,0,0,0-.652-1.156,3.38,3.38,0,0,0-1.793-.406H2.055v-1.891h.961q2.187,0,2.188-1.453,0-1.367-1.68-1.367a3.829,3.829,0,0,0-2.187.727V190.2a6.042,6.042,0,0,1,2.75-.594,4.15,4.15,0,0,1,2.676.773,2.461,2.461,0,0,1,.957,2.008,2.611,2.611,0,0,1-2.227,2.75v.039a3.027,3.027,0,0,1,1.875.863,2.434,2.434,0,0,1,.688,1.754,3.006,3.006,0,0,1-1.148,2.484,4.965,4.965,0,0,1-3.172.914A6.13,6.13,0,0,1,.914,200.633Zm12.828.563q-4,0-4-5.617a7.643,7.643,0,0,1,1.082-4.441,3.605,3.605,0,0,1,3.137-1.527q3.906,0,3.906,5.711A7.526,7.526,0,0,1,16.8,199.68,3.513,3.513,0,0,1,13.742,201.2Zm.109-9.7q-1.6,0-1.6,4.023,0,3.789,1.57,3.789,1.531,0,1.531-3.906T13.852,191.492Zm13.1-.273q-.75,1.352-1.344,2.535t-1.047,2.336a22.03,22.03,0,0,0-.773,2.344A22.638,22.638,0,0,0,23.266,201H20.688a21.094,21.094,0,0,1,.578-2.516,23.592,23.592,0,0,1,.832-2.348q.473-1.137,1.047-2.215t1.215-2.109h-5.2V189.8h7.8ZM.914,223.633v-2.148a4.336,4.336,0,0,0,2.625.82,2.363,2.363,0,0,0,1.473-.406,1.349,1.349,0,0,0,.527-1.133,1.288,1.288,0,0,0-.652-1.156,3.38,3.38,0,0,0-1.793-.406H2.055v-1.891h.961q2.187,0,2.188-1.453,0-1.367-1.68-1.367a3.829,3.829,0,0,0-2.187.727V213.2a6.042,6.042,0,0,1,2.75-.594,4.15,4.15,0,0,1,2.676.773,2.461,2.461,0,0,1,.957,2.008,2.611,2.611,0,0,1-2.227,2.75v.039a3.027,3.027,0,0,1,1.875.863,2.434,2.434,0,0,1,.688,1.754,3.006,3.006,0,0,1-1.148,2.484,4.965,4.965,0,0,1-3.172.914A6.13,6.13,0,0,1,.914,223.633Zm12.828.563q-4,0-4-5.617a7.643,7.643,0,0,1,1.082-4.441,3.605,3.605,0,0,1,3.137-1.527q3.906,0,3.906,5.711A7.526,7.526,0,0,1,16.8,222.68,3.513,3.513,0,0,1,13.742,224.2Zm.109-9.7q-1.6,0-1.6,4.023,0,3.789,1.57,3.789,1.531,0,1.531-3.906T13.852,214.492Zm5.18,6.492a2.983,2.983,0,0,1,.137-.9,2.734,2.734,0,0,1,.41-.8,3.019,3.019,0,0,1,.684-.664,3.672,3.672,0,0,1,.965-.48,3.46,3.46,0,0,1-1.32-1.082,2.473,2.473,0,0,1-.469-1.465,2.649,2.649,0,0,1,.27-1.187,2.881,2.881,0,0,1,.746-.945,3.49,3.49,0,0,1,1.137-.621,4.485,4.485,0,0,1,1.441-.223,4.573,4.573,0,0,1,1.461.223,3.573,3.573,0,0,1,1.145.617,2.8,2.8,0,0,1,.746.934,2.615,2.615,0,0,1,.266,1.172,2.326,2.326,0,0,1-.5,1.449,3.722,3.722,0,0,1-1.383,1.074,3.769,3.769,0,0,1,.961.48,3.093,3.093,0,0,1,.7.668,2.736,2.736,0,0,1,.422.816,3.006,3.006,0,0,1,.141.918,2.933,2.933,0,0,1-.289,1.309,2.979,2.979,0,0,1-.816,1.016,3.853,3.853,0,0,1-1.258.66,5.661,5.661,0,0,1-3.211,0,3.839,3.839,0,0,1-1.258-.652,3.025,3.025,0,0,1-.824-1.012A2.852,2.852,0,0,1,19.031,220.984Zm2.336-.211a1.9,1.9,0,0,0,.117.688,1.406,1.406,0,0,0,.336.516,1.5,1.5,0,0,0,.52.324,1.906,1.906,0,0,0,.676.113,1.8,1.8,0,0,0,.66-.117,1.549,1.549,0,0,0,.52-.328,1.493,1.493,0,0,0,.344-.516,1.86,1.86,0,0,0,.008-1.32,1.523,1.523,0,0,0-.336-.527,1.635,1.635,0,0,0-1.2-.488,1.76,1.76,0,0,0-.656.121,1.5,1.5,0,0,0-.523.344,1.622,1.622,0,0,0-.344.527A1.733,1.733,0,0,0,21.367,220.773Zm.344-4.961a1.48,1.48,0,0,0,.105.559,1.441,1.441,0,0,0,.285.453,1.3,1.3,0,0,0,.426.3,1.3,1.3,0,0,0,1.043,0,1.331,1.331,0,0,0,.426-.3,1.459,1.459,0,0,0,.395-1.008,1.552,1.552,0,0,0-.1-.566,1.339,1.339,0,0,0-.715-.754,1.342,1.342,0,0,0-1.07,0,1.308,1.308,0,0,0-.422.3,1.369,1.369,0,0,0-.273.453A1.585,1.585,0,0,0,21.711,215.813Zm-20.8,30.82v-2.148a4.336,4.336,0,0,0,2.625.82,2.363,2.363,0,0,0,1.473-.406,1.349,1.349,0,0,0,.527-1.133,1.288,1.288,0,0,0-.652-1.156,3.38,3.38,0,0,0-1.793-.406H2.055v-1.891h.961q2.187,0,2.188-1.453,0-1.367-1.68-1.367a3.829,3.829,0,0,0-2.187.727V236.2a6.042,6.042,0,0,1,2.75-.594,4.15,4.15,0,0,1,2.676.773,2.461,2.461,0,0,1,.957,2.008,2.611,2.611,0,0,1-2.227,2.75v.039a3.027,3.027,0,0,1,1.875.863,2.434,2.434,0,0,1,.688,1.754,3.006,3.006,0,0,1-1.148,2.484,4.965,4.965,0,0,1-3.172.914A6.13,6.13,0,0,1,.914,246.633Zm12.828.563q-4,0-4-5.617a7.643,7.643,0,0,1,1.082-4.441,3.605,3.605,0,0,1,3.137-1.527q3.906,0,3.906,5.711A7.526,7.526,0,0,1,16.8,245.68,3.513,3.513,0,0,1,13.742,247.2Zm.109-9.7q-1.6,0-1.6,4.023,0,3.789,1.57,3.789,1.531,0,1.531-3.906T13.852,237.492ZM26.9,240.859a9.937,9.937,0,0,1-.328,2.668,5.723,5.723,0,0,1-.957,1.988,4.227,4.227,0,0,1-1.535,1.246,4.7,4.7,0,0,1-2.055.434,5.838,5.838,0,0,1-2.367-.437v-2.031a3.793,3.793,0,0,0,2.125.578,2.446,2.446,0,0,0,1.992-.867,3.869,3.869,0,0,0,.727-2.508l-.047-.016a2.537,2.537,0,0,1-2.258,1.1,3.1,3.1,0,0,1-1.27-.258,3.05,3.05,0,0,1-1.008-.715,3.267,3.267,0,0,1-.664-1.09,3.917,3.917,0,0,1-.238-1.391,4.318,4.318,0,0,1,.289-1.609,3.684,3.684,0,0,1,.809-1.25,3.568,3.568,0,0,1,1.246-.809,4.37,4.37,0,0,1,1.609-.285,3.684,3.684,0,0,1,1.641.355,3.447,3.447,0,0,1,1.238,1.027,4.8,4.8,0,0,1,.781,1.648A8.352,8.352,0,0,1,26.9,240.859Zm-2.492-1.312a2.9,2.9,0,0,0-.109-.809,2.128,2.128,0,0,0-.3-.652,1.483,1.483,0,0,0-.477-.434,1.226,1.226,0,0,0-.617-.16,1.256,1.256,0,0,0-.59.141,1.438,1.438,0,0,0-.465.387,1.832,1.832,0,0,0-.3.59,2.435,2.435,0,0,0-.109.742,2.536,2.536,0,0,0,.109.777,1.66,1.66,0,0,0,.309.574,1.3,1.3,0,0,0,.48.355,1.564,1.564,0,0,0,.625.121,1.342,1.342,0,0,0,.594-.129A1.431,1.431,0,0,0,24,240.7a1.574,1.574,0,0,0,.3-.516A1.9,1.9,0,0,0,24.406,239.547ZM.914,269.633v-2.148a4.336,4.336,0,0,0,2.625.82,2.363,2.363,0,0,0,1.473-.406,1.349,1.349,0,0,0,.527-1.133,1.288,1.288,0,0,0-.652-1.156,3.38,3.38,0,0,0-1.793-.406H2.055v-1.891h.961q2.187,0,2.188-1.453,0-1.367-1.68-1.367a3.829,3.829,0,0,0-2.187.727V259.2a6.041,6.041,0,0,1,2.75-.594,4.15,4.15,0,0,1,2.676.773,2.461,2.461,0,0,1,.957,2.008,2.611,2.611,0,0,1-2.227,2.75v.039a3.027,3.027,0,0,1,1.875.863,2.434,2.434,0,0,1,.688,1.754,3.006,3.006,0,0,1-1.148,2.484,4.965,4.965,0,0,1-3.172.914A6.13,6.13,0,0,1,.914,269.633ZM15.7,258.547V270H13.242v-8.672a2.948,2.948,0,0,1-.48.34,4.959,4.959,0,0,1-.59.289,5.268,5.268,0,0,1-.648.219,4.733,4.733,0,0,1-.664.129v-2.078a10.435,10.435,0,0,0,3.352-1.68ZM22.945,270.2q-4,0-4-5.617a7.643,7.643,0,0,1,1.082-4.441,3.605,3.605,0,0,1,3.137-1.527q3.906,0,3.906,5.711A7.526,7.526,0,0,1,26,268.68,3.513,3.513,0,0,1,22.945,270.2Zm.109-9.7q-1.6,0-1.6,4.023,0,3.789,1.57,3.789,1.531,0,1.531-3.906T23.055,260.492ZM.914,292.633v-2.148a4.336,4.336,0,0,0,2.625.82,2.363,2.363,0,0,0,1.473-.406,1.349,1.349,0,0,0,.527-1.133,1.288,1.288,0,0,0-.652-1.156,3.38,3.38,0,0,0-1.793-.406H2.055v-1.891h.961q2.187,0,2.188-1.453,0-1.367-1.68-1.367a3.829,3.829,0,0,0-2.187.727V282.2a6.041,6.041,0,0,1,2.75-.594,4.15,4.15,0,0,1,2.676.773,2.461,2.461,0,0,1,.957,2.008,2.611,2.611,0,0,1-2.227,2.75v.039a3.027,3.027,0,0,1,1.875.863,2.434,2.434,0,0,1,.688,1.754,3.006,3.006,0,0,1-1.148,2.484,4.965,4.965,0,0,1-3.172.914A6.13,6.13,0,0,1,.914,292.633ZM15.7,281.547V293H13.242v-8.672a2.948,2.948,0,0,1-.48.34,4.959,4.959,0,0,1-.59.289,5.268,5.268,0,0,1-.648.219,4.733,4.733,0,0,1-.664.129v-2.078a10.435,10.435,0,0,0,3.352-1.68Zm9.2,0V293H22.445v-8.672a2.948,2.948,0,0,1-.48.34,4.959,4.959,0,0,1-.59.289,5.268,5.268,0,0,1-.648.219,4.733,4.733,0,0,1-.664.129v-2.078a10.435,10.435,0,0,0,3.352-1.68ZM.914,315.633v-2.148a4.336,4.336,0,0,0,2.625.82,2.363,2.363,0,0,0,1.473-.406,1.349,1.349,0,0,0,.527-1.133,1.288,1.288,0,0,0-.652-1.156,3.38,3.38,0,0,0-1.793-.406H2.055v-1.891h.961q2.187,0,2.188-1.453,0-1.367-1.68-1.367a3.829,3.829,0,0,0-2.187.727V305.2a6.041,6.041,0,0,1,2.75-.594,4.15,4.15,0,0,1,2.676.773,2.461,2.461,0,0,1,.957,2.008,2.611,2.611,0,0,1-2.227,2.75v.039a3.027,3.027,0,0,1,1.875.863,2.434,2.434,0,0,1,.688,1.754,3.006,3.006,0,0,1-1.148,2.484,4.965,4.965,0,0,1-3.172.914A6.13,6.13,0,0,1,.914,315.633ZM15.7,304.547V316H13.242v-8.672a2.948,2.948,0,0,1-.48.34,4.959,4.959,0,0,1-.59.289,5.268,5.268,0,0,1-.648.219,4.733,4.733,0,0,1-.664.129v-2.078a10.435,10.435,0,0,0,3.352-1.68Zm6.055,9.406h4.75V316H19.055v-.844a3.927,3.927,0,0,1,.289-1.543,5.12,5.12,0,0,1,.727-1.227,6.3,6.3,0,0,1,.957-.961q.52-.418.988-.754.492-.352.863-.672a4.919,4.919,0,0,0,.625-.637,2.421,2.421,0,0,0,.379-.641,1.905,1.905,0,0,0,.125-.691,1.39,1.39,0,0,0-.406-1.086,1.806,1.806,0,0,0-1.242-.367,4.172,4.172,0,0,0-2.766,1.148v-2.172a5.937,5.937,0,0,1,3.3-.945,4.869,4.869,0,0,1,1.527.223,3.231,3.231,0,0,1,1.145.637,2.716,2.716,0,0,1,.715,1,3.388,3.388,0,0,1,.246,1.316,3.712,3.712,0,0,1-.238,1.375,4.225,4.225,0,0,1-.633,1.094,5.74,5.74,0,0,1-.91.9q-.516.41-1.07.793-.375.266-.723.527a6.847,6.847,0,0,0-.613.516,2.8,2.8,0,0,0-.422.5A.856.856,0,0,0,21.758,313.953Z" transform="translate(402.33 4399.663)" fill="#12263f"/>
    <path id="Trazado_876091" data-name="Trazado 876091" d="M6.5,5.547V17H4.039V8.328a2.947,2.947,0,0,1-.48.34,4.96,4.96,0,0,1-.59.289,5.267,5.267,0,0,1-.648.219,4.736,4.736,0,0,1-.664.129V7.227a10.266,10.266,0,0,0,1.813-.719,10.315,10.315,0,0,0,1.539-.961Zm24.431,9.406h4.75V17H28.228v-.844a3.927,3.927,0,0,1,.289-1.543,5.12,5.12,0,0,1,.727-1.227,6.3,6.3,0,0,1,.957-.961q.52-.418.988-.754.492-.352.863-.672a4.919,4.919,0,0,0,.625-.637,2.421,2.421,0,0,0,.379-.641,1.905,1.905,0,0,0,.125-.691,1.39,1.39,0,0,0-.406-1.086,1.806,1.806,0,0,0-1.242-.367,4.172,4.172,0,0,0-2.766,1.148V6.555a5.937,5.937,0,0,1,3.3-.945,4.869,4.869,0,0,1,1.527.223,3.231,3.231,0,0,1,1.145.637,2.716,2.716,0,0,1,.715,1A3.388,3.388,0,0,1,35.7,8.789a3.712,3.712,0,0,1-.238,1.375,4.225,4.225,0,0,1-.633,1.094,5.74,5.74,0,0,1-.91.9q-.516.41-1.07.793-.375.266-.723.527a6.851,6.851,0,0,0-.613.516,2.8,2.8,0,0,0-.422.5A.856.856,0,0,0,30.931,14.953Zm25.142,1.68V14.484a4.336,4.336,0,0,0,2.625.82A2.363,2.363,0,0,0,60.17,14.9a1.349,1.349,0,0,0,.527-1.133,1.288,1.288,0,0,0-.652-1.156,3.38,3.38,0,0,0-1.793-.406H57.213V10.313h.961q2.187,0,2.188-1.453,0-1.367-1.68-1.367a3.829,3.829,0,0,0-2.187.727V6.2a6.042,6.042,0,0,1,2.75-.594,4.15,4.15,0,0,1,2.676.773,2.461,2.461,0,0,1,.957,2.008,2.611,2.611,0,0,1-2.227,2.75v.039a3.027,3.027,0,0,1,1.875.863,2.434,2.434,0,0,1,.688,1.754,3.006,3.006,0,0,1-1.148,2.484,4.965,4.965,0,0,1-3.172.914A6.13,6.13,0,0,1,56.073,16.633ZM85.618,5.8v7.063h1.344V14.7H85.618V17h-2.25V14.7H78.485v-1.93q.648-.727,1.344-1.59t1.344-1.777q.648-.914,1.207-1.84a18.442,18.442,0,0,0,.949-1.77ZM80.7,12.859h2.672V8.945q-.273.508-.594,1.027T82.1,11q-.352.5-.711.977T80.7,12.859Zm21.615,3.852V14.6a4.605,4.605,0,0,0,2.445.7,2.3,2.3,0,0,0,1.527-.465,1.565,1.565,0,0,0,.551-1.262q0-1.664-2.352-1.664a17.413,17.413,0,0,0-2,.133L102.9,5.8h5.93V7.813h-4.047l-.156,2.242q.6-.047,1.039-.047a3.821,3.821,0,0,1,2.7.906,3.165,3.165,0,0,1,.977,2.438,3.6,3.6,0,0,1-1.164,2.77,4.473,4.473,0,0,1-3.156,1.074A6.754,6.754,0,0,1,102.311,16.711Zm39.7-3.437a4.107,4.107,0,0,1-.289,1.547,3.776,3.776,0,0,1-.8,1.246,3.723,3.723,0,0,1-1.227.828,4.208,4.208,0,0,1-3.246-.051,3.414,3.414,0,0,1-1.262-1.02,4.767,4.767,0,0,1-.789-1.637,8.088,8.088,0,0,1-.273-2.2,9.038,9.038,0,0,1,.355-2.621,6.018,6.018,0,0,1,1.016-2.012,4.562,4.562,0,0,1,1.6-1.293,4.751,4.751,0,0,1,2.109-.457,5.321,5.321,0,0,1,2.016.3V7.977a3.7,3.7,0,0,0-1.859-.484,2.6,2.6,0,0,0-1.133.242,2.5,2.5,0,0,0-.871.688,3.324,3.324,0,0,0-.57,1.074,4.781,4.781,0,0,0-.223,1.4h.047a2.717,2.717,0,0,1,2.352-1.1,3.064,3.064,0,0,1,1.258.25,2.729,2.729,0,0,1,.961.707,3.243,3.243,0,0,1,.617,1.1A4.379,4.379,0,0,1,142.011,13.273Zm-2.414.156q0-1.8-1.477-1.8a1.449,1.449,0,0,0-.609.125,1.356,1.356,0,0,0-.469.352,1.6,1.6,0,0,0-.3.535,2.1,2.1,0,0,0-.105.684,2.644,2.644,0,0,0,.109.773,2.054,2.054,0,0,0,.309.629,1.528,1.528,0,0,0,.473.426,1.206,1.206,0,0,0,.609.156,1.319,1.319,0,0,0,.605-.137,1.356,1.356,0,0,0,.461-.383,1.759,1.759,0,0,0,.293-.594A2.709,2.709,0,0,0,139.6,13.43Zm29.868-6.211q-.75,1.352-1.344,2.535t-1.047,2.336a22.032,22.032,0,0,0-.773,2.344A22.638,22.638,0,0,0,165.778,17H163.2a21.094,21.094,0,0,1,.578-2.516,23.589,23.589,0,0,1,.832-2.348q.473-1.137,1.047-2.215t1.215-2.109h-5.2V5.8h7.8Zm19.657,6.766a2.983,2.983,0,0,1,.137-.9,2.734,2.734,0,0,1,.41-.8,3.019,3.019,0,0,1,.684-.664,3.672,3.672,0,0,1,.965-.48A3.46,3.46,0,0,1,190,10.051a2.473,2.473,0,0,1-.469-1.465A2.649,2.649,0,0,1,189.8,7.4a2.881,2.881,0,0,1,.746-.945,3.49,3.49,0,0,1,1.137-.621,4.485,4.485,0,0,1,1.441-.223,4.573,4.573,0,0,1,1.461.223,3.573,3.573,0,0,1,1.145.617,2.8,2.8,0,0,1,.746.934,2.615,2.615,0,0,1,.266,1.172,2.326,2.326,0,0,1-.5,1.449,3.722,3.722,0,0,1-1.383,1.074,3.769,3.769,0,0,1,.961.48,3.092,3.092,0,0,1,.7.668,2.736,2.736,0,0,1,.422.816,3.006,3.006,0,0,1,.141.918,2.933,2.933,0,0,1-.289,1.309,2.979,2.979,0,0,1-.816,1.016,3.853,3.853,0,0,1-1.258.66,5.661,5.661,0,0,1-3.211,0,3.839,3.839,0,0,1-1.258-.652,3.026,3.026,0,0,1-.824-1.012A2.852,2.852,0,0,1,189.123,13.984Zm2.336-.211a1.9,1.9,0,0,0,.117.688,1.406,1.406,0,0,0,.336.516,1.5,1.5,0,0,0,.52.324,1.906,1.906,0,0,0,.676.113,1.8,1.8,0,0,0,.66-.117,1.549,1.549,0,0,0,.52-.328,1.493,1.493,0,0,0,.344-.516,1.86,1.86,0,0,0,.008-1.32,1.523,1.523,0,0,0-.336-.527,1.635,1.635,0,0,0-1.2-.488,1.761,1.761,0,0,0-.656.121,1.5,1.5,0,0,0-.523.344,1.622,1.622,0,0,0-.344.527A1.733,1.733,0,0,0,191.458,13.773Zm.344-4.961a1.48,1.48,0,0,0,.105.559,1.441,1.441,0,0,0,.285.453,1.3,1.3,0,0,0,.426.3,1.3,1.3,0,0,0,1.043,0,1.331,1.331,0,0,0,.426-.3,1.459,1.459,0,0,0,.395-1.008,1.552,1.552,0,0,0-.1-.566,1.339,1.339,0,0,0-.715-.754,1.342,1.342,0,0,0-1.07,0,1.309,1.309,0,0,0-.422.3,1.369,1.369,0,0,0-.273.453A1.585,1.585,0,0,0,191.8,8.813Zm28.209,2.047a9.937,9.937,0,0,1-.328,2.668,5.723,5.723,0,0,1-.957,1.988,4.226,4.226,0,0,1-1.535,1.246,4.7,4.7,0,0,1-2.055.434,5.838,5.838,0,0,1-2.367-.437V14.727a3.793,3.793,0,0,0,2.125.578,2.446,2.446,0,0,0,1.992-.867,3.869,3.869,0,0,0,.727-2.508l-.047-.016a2.537,2.537,0,0,1-2.258,1.1,3.1,3.1,0,0,1-1.27-.258,3.05,3.05,0,0,1-1.008-.715,3.267,3.267,0,0,1-.664-1.09,3.917,3.917,0,0,1-.238-1.391,4.318,4.318,0,0,1,.289-1.609,3.684,3.684,0,0,1,.809-1.25,3.568,3.568,0,0,1,1.246-.809,4.37,4.37,0,0,1,1.609-.285,3.685,3.685,0,0,1,1.641.355,3.447,3.447,0,0,1,1.238,1.027,4.8,4.8,0,0,1,.781,1.648A8.352,8.352,0,0,1,220.011,10.859Zm-2.492-1.312a2.9,2.9,0,0,0-.109-.809,2.128,2.128,0,0,0-.3-.652,1.483,1.483,0,0,0-.477-.434,1.226,1.226,0,0,0-.617-.16,1.256,1.256,0,0,0-.59.141,1.438,1.438,0,0,0-.465.387,1.832,1.832,0,0,0-.3.59,2.435,2.435,0,0,0-.109.742,2.536,2.536,0,0,0,.109.777,1.66,1.66,0,0,0,.309.574,1.3,1.3,0,0,0,.48.355,1.565,1.565,0,0,0,.625.121,1.342,1.342,0,0,0,.594-.129,1.431,1.431,0,0,0,.457-.348,1.573,1.573,0,0,0,.3-.516A1.9,1.9,0,0,0,217.519,9.547Zm23.521-4V17h-2.461V8.328a2.947,2.947,0,0,1-.48.34,4.96,4.96,0,0,1-.59.289,5.267,5.267,0,0,1-.648.219,4.736,4.736,0,0,1-.664.129V7.227a10.265,10.265,0,0,0,1.813-.719,10.315,10.315,0,0,0,1.539-.961ZM248.426,17.2q-4,0-4-5.617a7.643,7.643,0,0,1,1.082-4.441,3.605,3.605,0,0,1,3.137-1.527q3.906,0,3.906,5.711a7.526,7.526,0,0,1-1.066,4.359A3.513,3.513,0,0,1,248.426,17.2Zm.109-9.7q-1.6,0-1.6,4.023,0,3.789,1.57,3.789,1.531,0,1.531-3.906T248.536,7.492ZM268.85,5.547V17H266.39V8.328a2.946,2.946,0,0,1-.48.34,4.96,4.96,0,0,1-.59.289,5.267,5.267,0,0,1-.648.219,4.736,4.736,0,0,1-.664.129V7.227a10.266,10.266,0,0,0,1.813-.719,10.315,10.315,0,0,0,1.539-.961Zm9.347,0V17h-2.461V8.328a2.946,2.946,0,0,1-.48.34,4.96,4.96,0,0,1-.59.289,5.267,5.267,0,0,1-.648.219,4.736,4.736,0,0,1-.664.129V7.227a10.266,10.266,0,0,0,1.813-.719,10.315,10.315,0,0,0,1.539-.961Zm13.905,0V17h-2.461V8.328a2.946,2.946,0,0,1-.48.34,4.96,4.96,0,0,1-.59.289,5.267,5.267,0,0,1-.648.219,4.736,4.736,0,0,1-.664.129V7.227a10.266,10.266,0,0,0,1.813-.719,10.315,10.315,0,0,0,1.539-.961Zm6.2,9.406h4.75V17H295.6v-.844a3.927,3.927,0,0,1,.289-1.543,5.121,5.121,0,0,1,.727-1.227,6.3,6.3,0,0,1,.957-.961q.52-.418.988-.754.492-.352.863-.672a4.919,4.919,0,0,0,.625-.637,2.421,2.421,0,0,0,.379-.641,1.905,1.905,0,0,0,.125-.691,1.39,1.39,0,0,0-.406-1.086,1.806,1.806,0,0,0-1.242-.367,4.172,4.172,0,0,0-2.766,1.148V6.555a5.937,5.937,0,0,1,3.3-.945,4.869,4.869,0,0,1,1.527.223,3.231,3.231,0,0,1,1.145.637,2.716,2.716,0,0,1,.715,1,3.388,3.388,0,0,1,.246,1.316,3.712,3.712,0,0,1-.238,1.375,4.225,4.225,0,0,1-.633,1.094,5.741,5.741,0,0,1-.91.9q-.516.41-1.07.793-.375.266-.723.527a6.851,6.851,0,0,0-.613.516,2.8,2.8,0,0,0-.422.5A.856.856,0,0,0,298.3,14.953Zm21.612-9.406V17h-2.461V8.328a2.946,2.946,0,0,1-.48.34,4.96,4.96,0,0,1-.59.289,5.267,5.267,0,0,1-.648.219,4.736,4.736,0,0,1-.664.129V7.227a10.266,10.266,0,0,0,1.813-.719,10.315,10.315,0,0,0,1.539-.961Zm3.761,11.086V14.484a4.336,4.336,0,0,0,2.625.82,2.363,2.363,0,0,0,1.473-.406,1.349,1.349,0,0,0,.527-1.133,1.288,1.288,0,0,0-.652-1.156,3.38,3.38,0,0,0-1.793-.406h-1.039V10.313h.961q2.188,0,2.188-1.453,0-1.367-1.68-1.367a3.83,3.83,0,0,0-2.187.727V6.2a6.042,6.042,0,0,1,2.75-.594,4.15,4.15,0,0,1,2.676.773,2.461,2.461,0,0,1,.957,2.008,2.611,2.611,0,0,1-2.227,2.75v.039a3.027,3.027,0,0,1,1.875.863,2.434,2.434,0,0,1,.688,1.754,3.006,3.006,0,0,1-1.148,2.484,4.965,4.965,0,0,1-3.172.914A6.13,6.13,0,0,1,323.674,16.633ZM343.166,5.547V17H340.7V8.328a2.946,2.946,0,0,1-.48.34,4.96,4.96,0,0,1-.59.289,5.267,5.267,0,0,1-.648.219,4.736,4.736,0,0,1-.664.129V7.227a10.266,10.266,0,0,0,1.813-.719,10.315,10.315,0,0,0,1.539-.961Zm10.285.25v7.063h1.344V14.7H353.45V17H351.2V14.7h-4.883v-1.93q.648-.727,1.344-1.59T349,9.406q.648-.914,1.207-1.84a18.439,18.439,0,0,0,.949-1.77Zm-4.922,7.063H351.2V8.945q-.273.508-.594,1.027T349.935,11q-.352.5-.711.977T348.528,12.859Zm17.89-7.312V17h-2.461V8.328a2.946,2.946,0,0,1-.48.34,4.96,4.96,0,0,1-.59.289,5.267,5.267,0,0,1-.648.219,4.736,4.736,0,0,1-.664.129V7.227a10.266,10.266,0,0,0,1.813-.719,10.315,10.315,0,0,0,1.539-.961Zm3.957,11.164V14.6a4.605,4.605,0,0,0,2.445.7,2.3,2.3,0,0,0,1.527-.465,1.565,1.565,0,0,0,.551-1.262q0-1.664-2.352-1.664a17.413,17.413,0,0,0-2,.133l.422-6.25h5.93V7.813h-4.047l-.156,2.242q.6-.047,1.039-.047a3.821,3.821,0,0,1,2.7.906,3.165,3.165,0,0,1,.977,2.438,3.6,3.6,0,0,1-1.164,2.77,4.473,4.473,0,0,1-3.156,1.074A6.754,6.754,0,0,1,370.374,16.711ZM394.228,5.547V17h-2.461V8.328a2.946,2.946,0,0,1-.48.34,4.96,4.96,0,0,1-.59.289,5.267,5.267,0,0,1-.648.219,4.736,4.736,0,0,1-.664.129V7.227a10.266,10.266,0,0,0,1.813-.719,10.315,10.315,0,0,0,1.539-.961Zm11.519,7.727a4.106,4.106,0,0,1-.289,1.547,3.776,3.776,0,0,1-.8,1.246,3.723,3.723,0,0,1-1.227.828,4.208,4.208,0,0,1-3.246-.051,3.414,3.414,0,0,1-1.262-1.02,4.767,4.767,0,0,1-.789-1.637,8.089,8.089,0,0,1-.273-2.2,9.039,9.039,0,0,1,.355-2.621,6.018,6.018,0,0,1,1.016-2.012,4.562,4.562,0,0,1,1.6-1.293,4.751,4.751,0,0,1,2.109-.457,5.32,5.32,0,0,1,2.016.3V7.977a3.7,3.7,0,0,0-1.859-.484,2.6,2.6,0,0,0-1.133.242,2.5,2.5,0,0,0-.871.688,3.324,3.324,0,0,0-.57,1.074,4.78,4.78,0,0,0-.223,1.4h.047a2.717,2.717,0,0,1,2.352-1.1,3.064,3.064,0,0,1,1.258.25,2.729,2.729,0,0,1,.961.707,3.244,3.244,0,0,1,.617,1.1A4.379,4.379,0,0,1,405.747,13.273Zm-2.414.156q0-1.8-1.477-1.8a1.449,1.449,0,0,0-.609.125,1.356,1.356,0,0,0-.469.352,1.6,1.6,0,0,0-.3.535,2.1,2.1,0,0,0-.105.684,2.644,2.644,0,0,0,.109.773,2.054,2.054,0,0,0,.309.629,1.528,1.528,0,0,0,.473.426,1.206,1.206,0,0,0,.609.156,1.319,1.319,0,0,0,.605-.137,1.356,1.356,0,0,0,.461-.383,1.76,1.76,0,0,0,.293-.594A2.708,2.708,0,0,0,403.333,13.43Zm18.705-7.883V17h-2.461V8.328a2.946,2.946,0,0,1-.48.34,4.96,4.96,0,0,1-.59.289,5.267,5.267,0,0,1-.648.219,4.736,4.736,0,0,1-.664.129V7.227a10.266,10.266,0,0,0,1.813-.719,10.315,10.315,0,0,0,1.539-.961Zm11.394,1.672q-.75,1.352-1.344,2.535t-1.047,2.336a22.025,22.025,0,0,0-.773,2.344A22.638,22.638,0,0,0,429.745,17h-2.578a21.094,21.094,0,0,1,.578-2.516,23.6,23.6,0,0,1,.832-2.348q.473-1.137,1.047-2.215t1.215-2.109h-5.2V5.8h7.8Zm11.858-1.672V17H442.83V8.328a2.946,2.946,0,0,1-.48.34,4.96,4.96,0,0,1-.59.289,5.267,5.267,0,0,1-.648.219,4.736,4.736,0,0,1-.664.129V7.227a10.266,10.266,0,0,0,1.813-.719,10.315,10.315,0,0,0,1.539-.961Zm3.472,8.438a2.982,2.982,0,0,1,.137-.9,2.735,2.735,0,0,1,.41-.8,3.019,3.019,0,0,1,.684-.664,3.672,3.672,0,0,1,.965-.48,3.46,3.46,0,0,1-1.32-1.082,2.473,2.473,0,0,1-.469-1.465,2.649,2.649,0,0,1,.27-1.187,2.881,2.881,0,0,1,.746-.945,3.49,3.49,0,0,1,1.137-.621,4.485,4.485,0,0,1,1.441-.223,4.573,4.573,0,0,1,1.461.223,3.572,3.572,0,0,1,1.145.617,2.8,2.8,0,0,1,.746.934,2.615,2.615,0,0,1,.266,1.172,2.325,2.325,0,0,1-.5,1.449,3.722,3.722,0,0,1-1.383,1.074,3.769,3.769,0,0,1,.961.48,3.093,3.093,0,0,1,.7.668,2.736,2.736,0,0,1,.422.816,3.006,3.006,0,0,1,.141.918,2.933,2.933,0,0,1-.289,1.309,2.979,2.979,0,0,1-.816,1.016,3.853,3.853,0,0,1-1.258.66,5.661,5.661,0,0,1-3.211,0,3.84,3.84,0,0,1-1.258-.652,3.025,3.025,0,0,1-.824-1.012A2.852,2.852,0,0,1,448.763,13.984Zm2.336-.211a1.9,1.9,0,0,0,.117.688,1.406,1.406,0,0,0,.336.516,1.5,1.5,0,0,0,.52.324,1.906,1.906,0,0,0,.676.113,1.8,1.8,0,0,0,.66-.117,1.549,1.549,0,0,0,.52-.328,1.493,1.493,0,0,0,.344-.516,1.86,1.86,0,0,0,.008-1.32,1.523,1.523,0,0,0-.336-.527,1.635,1.635,0,0,0-1.2-.488,1.761,1.761,0,0,0-.656.121,1.5,1.5,0,0,0-.523.344,1.622,1.622,0,0,0-.344.527A1.733,1.733,0,0,0,451.1,13.773Zm.344-4.961a1.48,1.48,0,0,0,.105.559,1.442,1.442,0,0,0,.285.453,1.3,1.3,0,0,0,.426.3,1.3,1.3,0,0,0,1.043,0,1.331,1.331,0,0,0,.426-.3,1.459,1.459,0,0,0,.395-1.008,1.552,1.552,0,0,0-.1-.566,1.339,1.339,0,0,0-.715-.754,1.342,1.342,0,0,0-1.07,0,1.309,1.309,0,0,0-.422.3,1.369,1.369,0,0,0-.273.453A1.585,1.585,0,0,0,451.443,8.813ZM473.1,5.547V17h-2.461V8.328a2.946,2.946,0,0,1-.48.34,4.96,4.96,0,0,1-.59.289,5.267,5.267,0,0,1-.648.219,4.736,4.736,0,0,1-.664.129V7.227a10.266,10.266,0,0,0,1.813-.719,10.315,10.315,0,0,0,1.539-.961Zm11.339,5.313a9.937,9.937,0,0,1-.328,2.668,5.723,5.723,0,0,1-.957,1.988,4.227,4.227,0,0,1-1.535,1.246,4.7,4.7,0,0,1-2.055.434,5.838,5.838,0,0,1-2.367-.437V14.727a3.793,3.793,0,0,0,2.125.578,2.446,2.446,0,0,0,1.992-.867,3.869,3.869,0,0,0,.727-2.508L482,11.914a2.537,2.537,0,0,1-2.258,1.1,3.1,3.1,0,0,1-1.27-.258,3.05,3.05,0,0,1-1.008-.715,3.267,3.267,0,0,1-.664-1.09,3.917,3.917,0,0,1-.238-1.391,4.318,4.318,0,0,1,.289-1.609,3.685,3.685,0,0,1,.809-1.25,3.568,3.568,0,0,1,1.246-.809,4.37,4.37,0,0,1,1.609-.285,3.685,3.685,0,0,1,1.641.355,3.447,3.447,0,0,1,1.238,1.027,4.8,4.8,0,0,1,.781,1.648A8.352,8.352,0,0,1,484.441,10.859Zm-2.492-1.312a2.9,2.9,0,0,0-.109-.809,2.127,2.127,0,0,0-.3-.652,1.483,1.483,0,0,0-.477-.434,1.226,1.226,0,0,0-.617-.16,1.256,1.256,0,0,0-.59.141,1.438,1.438,0,0,0-.465.387,1.831,1.831,0,0,0-.3.59,2.435,2.435,0,0,0-.109.742,2.536,2.536,0,0,0,.109.777,1.66,1.66,0,0,0,.309.574,1.3,1.3,0,0,0,.48.355,1.565,1.565,0,0,0,.625.121,1.342,1.342,0,0,0,.594-.129,1.43,1.43,0,0,0,.457-.348,1.574,1.574,0,0,0,.3-.516A1.9,1.9,0,0,0,481.949,9.547Zm11.257,5.406h4.75V17H490.5v-.844a3.927,3.927,0,0,1,.289-1.543,5.121,5.121,0,0,1,.727-1.227,6.3,6.3,0,0,1,.957-.961q.52-.418.988-.754.492-.352.863-.672a4.919,4.919,0,0,0,.625-.637,2.421,2.421,0,0,0,.379-.641,1.905,1.905,0,0,0,.125-.691,1.39,1.39,0,0,0-.406-1.086,1.806,1.806,0,0,0-1.242-.367,4.172,4.172,0,0,0-2.766,1.148V6.555a5.937,5.937,0,0,1,3.3-.945,4.869,4.869,0,0,1,1.527.223,3.231,3.231,0,0,1,1.145.637,2.716,2.716,0,0,1,.715,1,3.388,3.388,0,0,1,.246,1.316,3.712,3.712,0,0,1-.238,1.375,4.225,4.225,0,0,1-.633,1.094,5.741,5.741,0,0,1-.91.9q-.516.41-1.07.793-.375.266-.723.527a6.851,6.851,0,0,0-.613.516,2.8,2.8,0,0,0-.422.5A.856.856,0,0,0,493.206,14.953ZM503.74,17.2q-4,0-4-5.617a7.643,7.643,0,0,1,1.082-4.441,3.605,3.605,0,0,1,3.137-1.527q3.906,0,3.906,5.711A7.526,7.526,0,0,1,506.8,15.68,3.513,3.513,0,0,1,503.74,17.2Zm.109-9.7q-1.6,0-1.6,4.023,0,3.789,1.57,3.789,1.531,0,1.531-3.906T503.85,7.492Zm17.166,7.461h4.75V17h-7.453v-.844a3.928,3.928,0,0,1,.289-1.543,5.119,5.119,0,0,1,.727-1.227,6.3,6.3,0,0,1,.957-.961q.52-.418.988-.754.492-.352.863-.672a4.919,4.919,0,0,0,.625-.637,2.421,2.421,0,0,0,.379-.641,1.906,1.906,0,0,0,.125-.691,1.39,1.39,0,0,0-.406-1.086,1.806,1.806,0,0,0-1.242-.367,4.172,4.172,0,0,0-2.766,1.148V6.555a5.937,5.937,0,0,1,3.3-.945,4.869,4.869,0,0,1,1.527.223,3.231,3.231,0,0,1,1.145.637,2.716,2.716,0,0,1,.715,1,3.388,3.388,0,0,1,.246,1.316,3.711,3.711,0,0,1-.238,1.375,4.226,4.226,0,0,1-.633,1.094,5.739,5.739,0,0,1-.91.9q-.516.41-1.07.793-.375.266-.723.527a6.851,6.851,0,0,0-.613.516,2.8,2.8,0,0,0-.422.5A.856.856,0,0,0,521.016,14.953Zm12.5-9.406V17H531.05V8.328a2.949,2.949,0,0,1-.48.34,4.96,4.96,0,0,1-.59.289,5.267,5.267,0,0,1-.648.219,4.735,4.735,0,0,1-.664.129V7.227a10.265,10.265,0,0,0,1.813-.719,10.315,10.315,0,0,0,1.539-.961Zm10.757,9.406h4.75V17h-7.453v-.844a3.928,3.928,0,0,1,.289-1.543,5.119,5.119,0,0,1,.727-1.227,6.3,6.3,0,0,1,.957-.961q.52-.418.988-.754.492-.352.863-.672a4.919,4.919,0,0,0,.625-.637,2.421,2.421,0,0,0,.379-.641,1.906,1.906,0,0,0,.125-.691,1.39,1.39,0,0,0-.406-1.086,1.806,1.806,0,0,0-1.242-.367A4.172,4.172,0,0,0,542.1,8.727V6.555a5.937,5.937,0,0,1,3.3-.945,4.869,4.869,0,0,1,1.527.223,3.231,3.231,0,0,1,1.145.637,2.716,2.716,0,0,1,.715,1,3.388,3.388,0,0,1,.246,1.316,3.711,3.711,0,0,1-.238,1.375,4.226,4.226,0,0,1-.633,1.094,5.739,5.739,0,0,1-.91.9q-.516.41-1.07.793-.375.266-.723.527a6.851,6.851,0,0,0-.613.516,2.8,2.8,0,0,0-.422.5A.856.856,0,0,0,544.268,14.953Zm9.347,0h4.75V17h-7.453v-.844a3.928,3.928,0,0,1,.289-1.543,5.119,5.119,0,0,1,.727-1.227,6.3,6.3,0,0,1,.957-.961q.52-.418.988-.754.492-.352.863-.672a4.919,4.919,0,0,0,.625-.637,2.421,2.421,0,0,0,.379-.641,1.906,1.906,0,0,0,.125-.691,1.39,1.39,0,0,0-.406-1.086,1.806,1.806,0,0,0-1.242-.367,4.172,4.172,0,0,0-2.766,1.148V6.555a5.937,5.937,0,0,1,3.3-.945,4.869,4.869,0,0,1,1.527.223,3.231,3.231,0,0,1,1.145.637,2.716,2.716,0,0,1,.715,1,3.388,3.388,0,0,1,.246,1.316,3.711,3.711,0,0,1-.238,1.375,4.226,4.226,0,0,1-.633,1.094,5.739,5.739,0,0,1-.91.9q-.516.41-1.07.793-.375.266-.723.527a6.851,6.851,0,0,0-.613.516,2.8,2.8,0,0,0-.422.5A.856.856,0,0,0,553.615,14.953Zm13.905,0h4.75V17h-7.453v-.844a3.928,3.928,0,0,1,.289-1.543,5.119,5.119,0,0,1,.727-1.227,6.3,6.3,0,0,1,.957-.961q.52-.418.988-.754.492-.352.863-.672a4.919,4.919,0,0,0,.625-.637,2.421,2.421,0,0,0,.379-.641,1.906,1.906,0,0,0,.125-.691,1.39,1.39,0,0,0-.406-1.086,1.806,1.806,0,0,0-1.242-.367,4.172,4.172,0,0,0-2.766,1.148V6.555a5.937,5.937,0,0,1,3.3-.945,4.869,4.869,0,0,1,1.527.223,3.231,3.231,0,0,1,1.145.637,2.716,2.716,0,0,1,.715,1,3.388,3.388,0,0,1,.246,1.316,3.711,3.711,0,0,1-.238,1.375,4.226,4.226,0,0,1-.633,1.094,5.739,5.739,0,0,1-.91.9q-.516.41-1.07.793-.375.266-.723.527A6.851,6.851,0,0,0,568.1,14a2.8,2.8,0,0,0-.422.5A.856.856,0,0,0,567.52,14.953Zm6.91,1.68V14.484a4.336,4.336,0,0,0,2.625.82,2.363,2.363,0,0,0,1.473-.406,1.349,1.349,0,0,0,.527-1.133,1.288,1.288,0,0,0-.652-1.156,3.38,3.38,0,0,0-1.793-.406h-1.039V10.313h.961q2.187,0,2.188-1.453,0-1.367-1.68-1.367a3.829,3.829,0,0,0-2.187.727V6.2a6.041,6.041,0,0,1,2.75-.594,4.15,4.15,0,0,1,2.676.773,2.462,2.462,0,0,1,.957,2.008,2.611,2.611,0,0,1-2.227,2.75v.039a3.027,3.027,0,0,1,1.875.863,2.434,2.434,0,0,1,.688,1.754,3.006,3.006,0,0,1-1.148,2.484,4.966,4.966,0,0,1-3.172.914A6.13,6.13,0,0,1,574.43,16.633Zm20.9-1.68h4.75V17h-7.453v-.844a3.928,3.928,0,0,1,.289-1.543,5.119,5.119,0,0,1,.727-1.227,6.3,6.3,0,0,1,.957-.961q.52-.418.988-.754.492-.352.863-.672a4.919,4.919,0,0,0,.625-.637,2.421,2.421,0,0,0,.379-.641,1.906,1.906,0,0,0,.125-.691,1.39,1.39,0,0,0-.406-1.086,1.806,1.806,0,0,0-1.242-.367,4.172,4.172,0,0,0-2.766,1.148V6.555a5.937,5.937,0,0,1,3.3-.945,4.869,4.869,0,0,1,1.527.223,3.231,3.231,0,0,1,1.145.637,2.716,2.716,0,0,1,.715,1,3.388,3.388,0,0,1,.246,1.316,3.711,3.711,0,0,1-.238,1.375,4.226,4.226,0,0,1-.633,1.094,5.739,5.739,0,0,1-.91.9q-.516.41-1.07.793-.375.266-.723.527a6.851,6.851,0,0,0-.613.516,2.8,2.8,0,0,0-.422.5A.856.856,0,0,0,595.331,14.953ZM608.764,5.8v7.063h1.344V14.7h-1.344V17h-2.25V14.7h-4.883v-1.93q.648-.727,1.344-1.59t1.344-1.777q.648-.914,1.207-1.84a18.452,18.452,0,0,0,.949-1.77Zm-4.922,7.063h2.672V8.945q-.273.508-.594,1.027T605.248,11q-.352.5-.711.977T603.842,12.859Zm19.3,2.094h4.75V17h-7.453v-.844a3.928,3.928,0,0,1,.289-1.543,5.119,5.119,0,0,1,.727-1.227,6.3,6.3,0,0,1,.957-.961q.52-.418.988-.754.492-.352.863-.672a4.919,4.919,0,0,0,.625-.637,2.421,2.421,0,0,0,.379-.641,1.906,1.906,0,0,0,.125-.691,1.39,1.39,0,0,0-.406-1.086,1.806,1.806,0,0,0-1.242-.367,4.172,4.172,0,0,0-2.766,1.148V6.555a5.937,5.937,0,0,1,3.3-.945,4.869,4.869,0,0,1,1.527.223,3.231,3.231,0,0,1,1.145.637,2.716,2.716,0,0,1,.715,1,3.388,3.388,0,0,1,.246,1.316,3.711,3.711,0,0,1-.238,1.375,4.226,4.226,0,0,1-.633,1.094,5.739,5.739,0,0,1-.91.9q-.516.41-1.07.793-.375.266-.723.527a6.851,6.851,0,0,0-.613.516,2.8,2.8,0,0,0-.422.5A.856.856,0,0,0,623.141,14.953Zm7.1,1.758V14.6a4.605,4.605,0,0,0,2.445.7,2.3,2.3,0,0,0,1.527-.465,1.565,1.565,0,0,0,.551-1.262q0-1.664-2.352-1.664a17.413,17.413,0,0,0-2,.133l.422-6.25h5.93V7.813h-4.047l-.156,2.242q.6-.047,1.039-.047a3.821,3.821,0,0,1,2.7.906,3.165,3.165,0,0,1,.977,2.438,3.6,3.6,0,0,1-1.164,2.77,4.473,4.473,0,0,1-3.156,1.074A6.754,6.754,0,0,1,630.246,16.711Zm16.147-1.758h4.75V17H643.69v-.844a3.928,3.928,0,0,1,.289-1.543,5.119,5.119,0,0,1,.727-1.227,6.3,6.3,0,0,1,.957-.961q.52-.418.988-.754.492-.352.863-.672a4.919,4.919,0,0,0,.625-.637,2.421,2.421,0,0,0,.379-.641,1.906,1.906,0,0,0,.125-.691,1.39,1.39,0,0,0-.406-1.086,1.806,1.806,0,0,0-1.242-.367,4.172,4.172,0,0,0-2.766,1.148V6.555a5.937,5.937,0,0,1,3.3-.945,4.869,4.869,0,0,1,1.527.223,3.231,3.231,0,0,1,1.145.637,2.716,2.716,0,0,1,.715,1,3.388,3.388,0,0,1,.246,1.316,3.711,3.711,0,0,1-.238,1.375,4.226,4.226,0,0,1-.633,1.094,5.739,5.739,0,0,1-.91.9q-.516.41-1.07.793-.375.266-.723.527a6.851,6.851,0,0,0-.613.516,2.8,2.8,0,0,0-.422.5A.856.856,0,0,0,646.393,14.953Zm14.667-1.68a4.107,4.107,0,0,1-.289,1.547,3.776,3.776,0,0,1-.8,1.246,3.723,3.723,0,0,1-1.227.828,4.208,4.208,0,0,1-3.246-.051,3.414,3.414,0,0,1-1.262-1.02,4.767,4.767,0,0,1-.789-1.637,8.088,8.088,0,0,1-.273-2.2,9.038,9.038,0,0,1,.355-2.621,6.018,6.018,0,0,1,1.016-2.012,4.562,4.562,0,0,1,1.6-1.293,4.751,4.751,0,0,1,2.109-.457,5.321,5.321,0,0,1,2.016.3V7.977a3.7,3.7,0,0,0-1.859-.484,2.6,2.6,0,0,0-1.133.242,2.5,2.5,0,0,0-.871.688,3.324,3.324,0,0,0-.57,1.074,4.782,4.782,0,0,0-.223,1.4h.047a2.717,2.717,0,0,1,2.352-1.1,3.064,3.064,0,0,1,1.258.25,2.729,2.729,0,0,1,.961.707,3.243,3.243,0,0,1,.617,1.1A4.38,4.38,0,0,1,661.061,13.273Zm-2.414.156q0-1.8-1.477-1.8a1.449,1.449,0,0,0-.609.125,1.355,1.355,0,0,0-.469.352,1.6,1.6,0,0,0-.3.535,2.1,2.1,0,0,0-.105.684,2.643,2.643,0,0,0,.109.773,2.055,2.055,0,0,0,.309.629,1.528,1.528,0,0,0,.473.426,1.206,1.206,0,0,0,.609.156,1.319,1.319,0,0,0,.605-.137,1.356,1.356,0,0,0,.461-.383,1.759,1.759,0,0,0,.293-.594A2.709,2.709,0,0,0,658.647,13.43ZM674.2,14.953h4.75V17H671.5v-.844a3.928,3.928,0,0,1,.289-1.543,5.119,5.119,0,0,1,.727-1.227,6.3,6.3,0,0,1,.957-.961q.52-.418.988-.754.492-.352.863-.672a4.919,4.919,0,0,0,.625-.637,2.421,2.421,0,0,0,.379-.641,1.906,1.906,0,0,0,.125-.691,1.39,1.39,0,0,0-.406-1.086,1.806,1.806,0,0,0-1.242-.367,4.172,4.172,0,0,0-2.766,1.148V6.555a5.937,5.937,0,0,1,3.3-.945,4.869,4.869,0,0,1,1.527.223,3.231,3.231,0,0,1,1.145.637,2.716,2.716,0,0,1,.715,1,3.388,3.388,0,0,1,.246,1.316,3.711,3.711,0,0,1-.238,1.375,4.226,4.226,0,0,1-.633,1.094,5.739,5.739,0,0,1-.91.9q-.516.41-1.07.793-.375.266-.723.527a6.851,6.851,0,0,0-.613.516,2.8,2.8,0,0,0-.422.5A.856.856,0,0,0,674.2,14.953Zm14.542-7.734Q688,8.57,687.4,9.754t-1.047,2.336a22.039,22.039,0,0,0-.773,2.344A22.638,22.638,0,0,0,685.058,17H682.48a21.094,21.094,0,0,1,.578-2.516,23.582,23.582,0,0,1,.832-2.348q.473-1.137,1.047-2.215t1.215-2.109h-5.2V5.8h7.8Zm8.71,7.734h4.75V17h-7.453v-.844a3.928,3.928,0,0,1,.289-1.543,5.119,5.119,0,0,1,.727-1.227,6.3,6.3,0,0,1,.957-.961q.52-.418.988-.754.492-.352.863-.672a4.919,4.919,0,0,0,.625-.637,2.421,2.421,0,0,0,.379-.641,1.906,1.906,0,0,0,.125-.691,1.39,1.39,0,0,0-.406-1.086,1.806,1.806,0,0,0-1.242-.367,4.172,4.172,0,0,0-2.766,1.148V6.555a5.937,5.937,0,0,1,3.3-.945,4.869,4.869,0,0,1,1.527.223,3.231,3.231,0,0,1,1.145.637,2.716,2.716,0,0,1,.715,1,3.388,3.388,0,0,1,.246,1.316,3.711,3.711,0,0,1-.238,1.375,4.226,4.226,0,0,1-.633,1.094,5.739,5.739,0,0,1-.91.9q-.516.41-1.07.793-.375.266-.723.527a6.851,6.851,0,0,0-.613.516,2.8,2.8,0,0,0-.422.5A.856.856,0,0,0,697.456,14.953Zm6.621-.969a2.983,2.983,0,0,1,.137-.9,2.733,2.733,0,0,1,.41-.8,3.019,3.019,0,0,1,.684-.664,3.671,3.671,0,0,1,.965-.48,3.46,3.46,0,0,1-1.32-1.082,2.473,2.473,0,0,1-.469-1.465,2.649,2.649,0,0,1,.27-1.187,2.882,2.882,0,0,1,.746-.945,3.489,3.489,0,0,1,1.137-.621,4.485,4.485,0,0,1,1.441-.223,4.572,4.572,0,0,1,1.461.223,3.573,3.573,0,0,1,1.145.617,2.8,2.8,0,0,1,.746.934,2.615,2.615,0,0,1,.266,1.172,2.326,2.326,0,0,1-.5,1.449,3.722,3.722,0,0,1-1.383,1.074,3.77,3.77,0,0,1,.961.48,3.092,3.092,0,0,1,.7.668,2.736,2.736,0,0,1,.422.816,3.006,3.006,0,0,1,.141.918,2.934,2.934,0,0,1-.289,1.309,2.978,2.978,0,0,1-.816,1.016,3.852,3.852,0,0,1-1.258.66,5.661,5.661,0,0,1-3.211,0A3.839,3.839,0,0,1,705.2,16.3a3.026,3.026,0,0,1-.824-1.012A2.852,2.852,0,0,1,704.076,13.984Zm2.336-.211a1.9,1.9,0,0,0,.117.688,1.406,1.406,0,0,0,.336.516,1.5,1.5,0,0,0,.52.324,1.906,1.906,0,0,0,.676.113,1.8,1.8,0,0,0,.66-.117,1.549,1.549,0,0,0,.52-.328,1.493,1.493,0,0,0,.344-.516,1.86,1.86,0,0,0,.008-1.32,1.523,1.523,0,0,0-.336-.527,1.635,1.635,0,0,0-1.2-.488,1.761,1.761,0,0,0-.656.121,1.5,1.5,0,0,0-.523.344,1.622,1.622,0,0,0-.344.527A1.733,1.733,0,0,0,706.412,13.773Zm.344-4.961a1.48,1.48,0,0,0,.105.559,1.441,1.441,0,0,0,.285.453,1.3,1.3,0,0,0,.426.3,1.3,1.3,0,0,0,1.043,0,1.331,1.331,0,0,0,.426-.3,1.459,1.459,0,0,0,.395-1.008,1.553,1.553,0,0,0-.1-.566,1.339,1.339,0,0,0-.715-.754,1.342,1.342,0,0,0-1.07,0,1.309,1.309,0,0,0-.422.3,1.37,1.37,0,0,0-.273.453A1.584,1.584,0,0,0,706.756,8.813Zm18.51,6.141h4.75V17h-7.453v-.844a3.928,3.928,0,0,1,.289-1.543,5.119,5.119,0,0,1,.727-1.227,6.3,6.3,0,0,1,.957-.961q.52-.418.988-.754.492-.352.863-.672a4.919,4.919,0,0,0,.625-.637,2.421,2.421,0,0,0,.379-.641,1.906,1.906,0,0,0,.125-.691,1.39,1.39,0,0,0-.406-1.086,1.806,1.806,0,0,0-1.242-.367A4.172,4.172,0,0,0,723.1,8.727V6.555a5.937,5.937,0,0,1,3.3-.945,4.869,4.869,0,0,1,1.527.223,3.231,3.231,0,0,1,1.145.637,2.716,2.716,0,0,1,.715,1,3.388,3.388,0,0,1,.246,1.316,3.711,3.711,0,0,1-.238,1.375,4.226,4.226,0,0,1-.633,1.094,5.739,5.739,0,0,1-.91.9q-.516.41-1.07.793-.375.266-.723.527a6.851,6.851,0,0,0-.613.516,2.8,2.8,0,0,0-.422.5A.856.856,0,0,0,725.266,14.953Zm14.488-4.094a9.937,9.937,0,0,1-.328,2.668,5.723,5.723,0,0,1-.957,1.988,4.226,4.226,0,0,1-1.535,1.246,4.7,4.7,0,0,1-2.055.434,5.838,5.838,0,0,1-2.367-.437V14.727a3.793,3.793,0,0,0,2.125.578,2.446,2.446,0,0,0,1.992-.867,3.868,3.868,0,0,0,.727-2.508l-.047-.016a2.537,2.537,0,0,1-2.258,1.1,3.1,3.1,0,0,1-1.27-.258,3.05,3.05,0,0,1-1.008-.715,3.267,3.267,0,0,1-.664-1.09,3.917,3.917,0,0,1-.238-1.391,4.318,4.318,0,0,1,.289-1.609,3.684,3.684,0,0,1,.809-1.25,3.568,3.568,0,0,1,1.246-.809,4.37,4.37,0,0,1,1.609-.285,3.685,3.685,0,0,1,1.641.355A3.447,3.447,0,0,1,738.7,6.992a4.8,4.8,0,0,1,.781,1.648A8.352,8.352,0,0,1,739.754,10.859Zm-2.492-1.312a2.9,2.9,0,0,0-.109-.809,2.129,2.129,0,0,0-.3-.652,1.483,1.483,0,0,0-.477-.434,1.226,1.226,0,0,0-.617-.16,1.256,1.256,0,0,0-.59.141,1.438,1.438,0,0,0-.465.387,1.832,1.832,0,0,0-.3.59,2.434,2.434,0,0,0-.109.742,2.535,2.535,0,0,0,.109.777,1.66,1.66,0,0,0,.309.574,1.3,1.3,0,0,0,.48.355,1.565,1.565,0,0,0,.625.121,1.342,1.342,0,0,0,.594-.129,1.431,1.431,0,0,0,.457-.348,1.573,1.573,0,0,0,.3-.516A1.9,1.9,0,0,0,737.262,9.547Z" transform="translate(442.33 4127.5)" fill="#12263f"/>
    <path id="Trazado_874674" data-name="Trazado 874674" d="M-6471.5-6940.638h-1V-7546.7h1Z" transform="translate(7031.572 11660.977)" fill="#e8e8e8"/>
    <path id="Trazado_876092" data-name="Trazado 876092" d="M0,0H664.5V79.567H0Z" transform="translate(542.072 4035)" fill="#eaf8f0"/>
    <path id="Trazado_876093" data-name="Trazado 876093" d="M12.822-9.385a4.554,4.554,0,0,1-.728,2.549A4.741,4.741,0,0,1,10.02-5.112a7.533,7.533,0,0,1-3.135.61H5.6V0H1.377V-14H7.119a6.8,6.8,0,0,1,4.331,1.123A4.256,4.256,0,0,1,12.822-9.385Zm-4.463.146a1.641,1.641,0,0,0-.5-1.3A2.152,2.152,0,0,0,6.4-10.977H5.6V-7.52h.947Q8.359-7.52,8.359-9.238ZM14.492,0V-14h4.219V-3.3h4.824V0Zm19.6,0-.615-2.578H29.3L28.633,0H24.072L28.9-14h5.234L38.672,0ZM31.436-10.957h-.1a6.8,6.8,0,0,1-.137.771q-.117.537-1.182,4.609H32.7l-.977-3.809A12.044,12.044,0,0,1,31.436-10.957ZM50.1,0,45.156-6.758A16.106,16.106,0,0,1,44.2-8.2H44.16q.059,1.035.059,2.324V0H40.313V-14H44.3l4.736,6.426q.088.127.215.3t.254.361q.127.186.239.361a2.223,2.223,0,0,1,.171.313h.039a12.692,12.692,0,0,1-.059-1.484V-14H53.8V0Zm16.24,0L61.4-6.758A16.106,16.106,0,0,1,60.439-8.2H60.4q.059,1.035.059,2.324V0H56.553V-14h3.984l4.736,6.426q.088.127.215.3t.254.361q.127.186.239.361a2.223,2.223,0,0,1,.171.313h.039a12.692,12.692,0,0,1-.059-1.484V-14h3.906V0Zm6.455,0V-14h4.219V0ZM89.551,0,84.609-6.758A16.107,16.107,0,0,1,83.652-8.2h-.039q.059,1.035.059,2.324V0H79.766V-14H83.75l4.736,6.426q.088.127.215.3t.254.361q.127.186.239.361a2.223,2.223,0,0,1,.171.313H89.4a12.692,12.692,0,0,1-.059-1.484V-14h3.906V0Zm18.721-.918a9.03,9.03,0,0,1-2.363.806,13.567,13.567,0,0,1-3,.356A8.1,8.1,0,0,1,97.227-1.6a6.66,6.66,0,0,1-2-5.161,7.689,7.689,0,0,1,1.011-3.955,6.56,6.56,0,0,1,2.847-2.627,9.74,9.74,0,0,1,4.326-.9,16.1,16.1,0,0,1,3.9.518v3.682a8.285,8.285,0,0,0-1.855-.61,10.306,10.306,0,0,0-1.943-.171,3.712,3.712,0,0,0-2.769,1.045A3.912,3.912,0,0,0,99.707-6.9a4.01,4.01,0,0,0,.864,2.734,3.044,3.044,0,0,0,2.417.986,5.233,5.233,0,0,0,1.064-.078v-2h-2.686V-8.457h6.9Zm19.277-8.467a4.554,4.554,0,0,1-.728,2.549,4.741,4.741,0,0,1-2.075,1.724,7.533,7.533,0,0,1-3.135.61h-1.289V0H116.1V-14h5.742a6.8,6.8,0,0,1,4.331,1.123A4.256,4.256,0,0,1,127.549-9.385Zm-4.463.146a1.641,1.641,0,0,0-.5-1.3,2.152,2.152,0,0,0-1.465-.439h-.8V-7.52h.947Q123.086-7.52,123.086-9.238Zm19.453,2.2a7.753,7.753,0,0,1-.908,3.774,6.475,6.475,0,0,1-2.539,2.588,7.285,7.285,0,0,1-3.652.923,7.292,7.292,0,0,1-3.589-.894,6.324,6.324,0,0,1-2.515-2.51,7.4,7.4,0,0,1-.9-3.657,8.07,8.07,0,0,1,.908-3.848,6.452,6.452,0,0,1,2.549-2.642,7.414,7.414,0,0,1,3.73-.933,7.206,7.206,0,0,1,3.6.894,6.092,6.092,0,0,1,2.451,2.549A7.991,7.991,0,0,1,142.539-7.041Zm-4.473.117a4.861,4.861,0,0,0-.664-2.725,2.075,2.075,0,0,0-1.816-1,2.3,2.3,0,0,0-1.963.957,4.5,4.5,0,0,0-.7,2.705,4.452,4.452,0,0,0,.7,2.666,2.228,2.228,0,0,0,1.9.957,2.175,2.175,0,0,0,1.318-.43,2.752,2.752,0,0,0,.908-1.23A5.091,5.091,0,0,0,138.066-6.924ZM151.787,0l-1.045-3.018a3.752,3.752,0,0,0-.786-1.4,1.435,1.435,0,0,0-1.05-.508h-.166V0h-4.219V-14h5.605a7.772,7.772,0,0,1,4.341.962,3.267,3.267,0,0,1,1.4,2.886,3.651,3.651,0,0,1-.815,2.422,4.647,4.647,0,0,1-2.427,1.416v.039a3.391,3.391,0,0,1,1.479.889,5.5,5.5,0,0,1,1.06,1.826L156.543,0Zm-.4-9.561a1.466,1.466,0,0,0-.43-1.113,1.9,1.9,0,0,0-1.348-.41h-.869v3.2h.762a1.934,1.934,0,0,0,1.367-.479A1.567,1.567,0,0,0,151.387-9.561ZM173.506,0l-4.941-6.758a16.105,16.105,0,0,1-.957-1.445h-.039q.059,1.035.059,2.324V0h-3.906V-14h3.984l4.736,6.426q.088.127.215.3t.254.361q.127.186.239.361a2.222,2.222,0,0,1,.171.313h.039a12.692,12.692,0,0,1-.059-1.484V-14h3.906V0Zm18.662-6.4a7.087,7.087,0,0,1-1.538,5A6.222,6.222,0,0,1,185.889.244a5.952,5.952,0,0,1-4.536-1.636A6.932,6.932,0,0,1,179.8-6.318V-14h4.238v7.842a3.626,3.626,0,0,0,.5,2.075,1.646,1.646,0,0,0,1.44.728,1.665,1.665,0,0,0,1.44-.684,3.442,3.442,0,0,0,.493-2.021V-14h4.248ZM186.5-15.3h-2.939l2.92-3.135h3.5ZM207.588,0V-7.676q0-1.084.068-2.383l.029-.645h-.117q-.312,1.65-.479,2.285L205.029,0h-3.965l-2.158-8.32q-.088-.312-.459-2.383h-.117q.137,3.281.137,4.1V0h-3.7V-14h6.318L203.008-6.4a9.39,9.39,0,0,1,.181.952q.112.718.142,1.108h.059q.107-.889.342-2.1l1.8-7.568h6.221V0ZM214.5,0V-14h8.721v3.3h-4.5v2.041h4.229v3.3h-4.229V-3.3h4.824V0Zm18.3,0-1.045-3.018a3.752,3.752,0,0,0-.786-1.4,1.435,1.435,0,0,0-1.05-.508h-.166V0h-4.219V-14h5.605a7.772,7.772,0,0,1,4.341.962,3.267,3.267,0,0,1,1.4,2.886,3.651,3.651,0,0,1-.815,2.422,4.647,4.647,0,0,1-2.427,1.416v.039a3.391,3.391,0,0,1,1.479.889,5.5,5.5,0,0,1,1.06,1.826L237.559,0Zm-.4-9.561a1.466,1.466,0,0,0-.43-1.113,1.9,1.9,0,0,0-1.348-.41h-.869v3.2h.762a1.934,1.934,0,0,0,1.367-.479A1.567,1.567,0,0,0,232.4-9.561Zm20.1,2.52a7.753,7.753,0,0,1-.908,3.774,6.475,6.475,0,0,1-2.539,2.588A7.285,7.285,0,0,1,245.4.244a7.292,7.292,0,0,1-3.589-.894,6.324,6.324,0,0,1-2.515-2.51,7.4,7.4,0,0,1-.9-3.657,8.07,8.07,0,0,1,.908-3.848,6.452,6.452,0,0,1,2.549-2.642,7.414,7.414,0,0,1,3.73-.933,7.206,7.206,0,0,1,3.6.894,6.092,6.092,0,0,1,2.451,2.549A7.991,7.991,0,0,1,252.5-7.041Zm-4.473.117a4.861,4.861,0,0,0-.664-2.725,2.075,2.075,0,0,0-1.816-1,2.3,2.3,0,0,0-1.963.957,4.5,4.5,0,0,0-.7,2.705,4.452,4.452,0,0,0,.7,2.666,2.228,2.228,0,0,0,1.9.957,2.175,2.175,0,0,0,1.318-.43,2.752,2.752,0,0,0,.908-1.23A5.091,5.091,0,0,0,248.027-6.924Zm25.215-.254a7.726,7.726,0,0,1-.894,3.765,6.158,6.158,0,0,1-2.554,2.524A7.988,7.988,0,0,1,265.967,0h-5.928V-14h5.8Q273.242-14,273.242-7.178Zm-4.482.039a4.03,4.03,0,0,0-.415-1.846,3,3,0,0,0-1.187-1.27,3.546,3.546,0,0,0-1.816-.449h-1.084v7.4h1.182a3.04,3.04,0,0,0,2.417-1.04A4.119,4.119,0,0,0,268.76-7.139ZM275.215,0V-14h8.721v3.3h-4.5v2.041h4.229v3.3h-4.229V-3.3h4.824V0Zm25.654,0V-5.225h-4.844V0h-4.219V-14h4.219v5.186h4.844V-14h4.219V0Zm15.762,0-.615-2.578h-4.18L311.172,0h-4.561l4.824-14h5.234l4.541,14Zm-2.656-10.957h-.1a6.805,6.805,0,0,1-.137.771q-.117.537-1.182,4.609h2.676l-.977-3.809A12.046,12.046,0,0,1,313.975-10.957Zm20.84,6.66a3.783,3.783,0,0,1-1.445,3.179A6.631,6.631,0,0,1,329.238,0h-6.387V-14H328.8q5.576,0,5.576,3.389a2.643,2.643,0,0,1-.352,1.343A3.162,3.162,0,0,1,332.954-8.2a4.475,4.475,0,0,1-1.577.625v.039a4.446,4.446,0,0,1,1.787.591,3.488,3.488,0,0,1,1.221,1.182A2.794,2.794,0,0,1,334.814-4.3Zm-4.922-5.586q0-1.3-2.041-1.3h-.781v2.646h1.221a1.735,1.735,0,0,0,1.152-.376A1.209,1.209,0,0,0,329.893-9.883Zm.439,5.566a1.274,1.274,0,0,0-.439-1A1.684,1.684,0,0,0,328.73-5.7h-1.66v2.861h1.406a2.125,2.125,0,0,0,1.357-.4A1.3,1.3,0,0,0,330.332-4.316ZM336.67,0V-14h4.219V0Zm14.053-10.7V0h-4.238V-10.7h-3.916V-14h12.119v3.3ZM365.146,0l-.615-2.578h-4.18L359.688,0h-4.561l4.824-14h5.234l4.541,14ZM362.49-10.957h-.1a6.805,6.805,0,0,1-.137.771q-.117.537-1.182,4.609h2.676l-.977-3.809A12.046,12.046,0,0,1,362.49-10.957Zm19.3,10.576a11.837,11.837,0,0,1-4.014.625,8.168,8.168,0,0,1-3.857-.854,5.851,5.851,0,0,1-2.476-2.432,7.516,7.516,0,0,1-.854-3.638,8.008,8.008,0,0,1,.957-3.945,6.619,6.619,0,0,1,2.705-2.671,8.346,8.346,0,0,1,4.023-.942,13.984,13.984,0,0,1,3.516.439v3.9a4.961,4.961,0,0,0-1.4-.547,6.98,6.98,0,0,0-1.641-.2,3.672,3.672,0,0,0-2.71.986,3.606,3.606,0,0,0-.991,2.676,3.543,3.543,0,0,0,.991,2.651,3.624,3.624,0,0,0,2.651.972,6.879,6.879,0,0,0,3.1-.781ZM383.965,0V-14h4.219V0Zm20.293-7.041a7.753,7.753,0,0,1-.908,3.774,6.475,6.475,0,0,1-2.539,2.588,7.285,7.285,0,0,1-3.652.923,7.292,7.292,0,0,1-3.589-.894,6.324,6.324,0,0,1-2.515-2.51,7.4,7.4,0,0,1-.9-3.657,8.07,8.07,0,0,1,.908-3.848,6.452,6.452,0,0,1,2.549-2.642,7.415,7.415,0,0,1,3.73-.933,7.206,7.206,0,0,1,3.6.894,6.092,6.092,0,0,1,2.451,2.549A7.991,7.991,0,0,1,404.258-7.041Zm-4.473.117a4.861,4.861,0,0,0-.664-2.725,2.075,2.075,0,0,0-1.816-1,2.3,2.3,0,0,0-1.963.957,4.5,4.5,0,0,0-.7,2.705,4.452,4.452,0,0,0,.7,2.666,2.227,2.227,0,0,0,1.9.957,2.175,2.175,0,0,0,1.318-.43,2.752,2.752,0,0,0,.908-1.23A5.091,5.091,0,0,0,399.785-6.924ZM416.025,0l-4.941-6.758a16.109,16.109,0,0,1-.957-1.445h-.039q.059,1.035.059,2.324V0H406.24V-14h3.984l4.736,6.426q.088.127.215.3t.254.361q.127.186.239.361a2.224,2.224,0,0,1,.171.313h.039a12.692,12.692,0,0,1-.059-1.484V-14h3.906V0Zm6.455,0V-14H431.2v3.3h-4.5v2.041h4.229v3.3H426.7V-3.3h4.824V0Zm20.762-4.238a4.045,4.045,0,0,1-.747,2.432A4.428,4.428,0,0,1,440.4-.264a9.213,9.213,0,0,1-3.242.508A10.59,10.59,0,0,1,433.135-.5V-4.336a7.947,7.947,0,0,0,1.943,1.04,5.716,5.716,0,0,0,1.982.4,1.957,1.957,0,0,0,1.074-.249.815.815,0,0,0,.381-.728.986.986,0,0,0-.19-.6,1.87,1.87,0,0,0-.576-.483,10.732,10.732,0,0,0-1.431-.615q-3.379-1.3-3.379-4.2a3.924,3.924,0,0,1,1.543-3.247,6.508,6.508,0,0,1,4.141-1.216q.732,0,1.348.059t1.118.146q.5.088,1.411.332v3.564a7.211,7.211,0,0,0-3.477-.967,2.145,2.145,0,0,0-1.133.264.811.811,0,0,0-.43.723.906.906,0,0,0,.347.728,6.5,6.5,0,0,0,1.45.747,8.041,8.041,0,0,1,3.081,1.924A3.669,3.669,0,0,1,443.242-4.238Z" transform="translate(578.201 4084)" fill="#12263f"/>
    <path id="Trazado_876094" data-name="Trazado 876094" d="M14.2,0V-7.676q0-1.084.068-2.383L14.3-10.7H14.18q-.312,1.65-.479,2.285L11.641,0H7.676L5.518-8.32Q5.43-8.633,5.059-10.7H4.941q.137,3.281.137,4.1V0h-3.7V-14H7.7L9.619-6.4a9.39,9.39,0,0,1,.181.952q.112.718.142,1.108H10q.107-.889.342-2.1L12.139-14h6.221V0Zm6.914,0V-14h8.721v3.3h-4.5v2.041h4.229v3.3H25.332V-3.3h4.824V0ZM41.875-4.238a4.045,4.045,0,0,1-.747,2.432A4.428,4.428,0,0,1,39.033-.264a9.213,9.213,0,0,1-3.242.508A10.59,10.59,0,0,1,31.768-.5V-4.336A7.947,7.947,0,0,0,33.711-3.3a5.716,5.716,0,0,0,1.982.4,1.957,1.957,0,0,0,1.074-.249.815.815,0,0,0,.381-.728.986.986,0,0,0-.19-.6,1.87,1.87,0,0,0-.576-.483,10.732,10.732,0,0,0-1.431-.615q-3.379-1.3-3.379-4.2a3.924,3.924,0,0,1,1.543-3.247,6.508,6.508,0,0,1,4.141-1.216q.732,0,1.348.059t1.118.146q.5.088,1.411.332v3.564a7.211,7.211,0,0,0-3.477-.967,2.145,2.145,0,0,0-1.133.264.811.811,0,0,0-.43.723.906.906,0,0,0,.347.728,6.5,6.5,0,0,0,1.45.747,8.041,8.041,0,0,1,3.081,1.924A3.669,3.669,0,0,1,41.875-4.238ZM42.207,2.9V1.738h8.3V2.9Zm8.3,0V1.738h8.3V2.9Z" transform="translate(1104.443 4083)" fill="#12263f"/>
    <g id="Grupo_1102081" data-name="Grupo 1102081" transform="translate(434.572 4040.6)">
      <g id="Grupo_1102078" data-name="Grupo 1102078">
        <g id="Grupo_1102077" data-name="Grupo 1102077" clip-path="url(#clip-path)">
          <path id="Trazado_874738" data-name="Trazado 874738" d="M56.365,32.317V31.3h-2.28V22.145h1.978a.127.127,0,0,0,.122-.164l-2.67-8.827a.128.128,0,0,0-.122-.091H43.186a13.362,13.362,0,0,0-26.717,0H6.1a.128.128,0,0,0-.122.091L3.306,21.98a.127.127,0,0,0,.122.164H5.407V31.3H3.451v1.019H5.407v10.2H3.289v1.019H56.2V42.519H54.085v-10.2ZM6.171,28.229H53.32v.305H6.171Zm1.164.687h.577V31.3H7.335Zm1.087,0H9V31.3H8.422Zm1.087,0h.577V31.3H9.509Zm1.087,0h.577V31.3H10.6Zm1.087,0h.577V31.3h-.577Zm1.087,0h.577V31.3H12.77Zm1.087,0h.577V31.3h-.577Zm1.087,0h.577V31.3h-.577Zm1.087,0h.577V31.3h-.577Zm1.087,0H17.7V31.3h-.577Zm1.087,0h.577V31.3H18.2Zm1.087,0h.577V31.3h-.577Zm1.087,0h.577V31.3h-.577Zm1.087,0h.577V31.3h-.577Zm1.087,0h.577V31.3h-.577Zm1.087,0h.577V31.3h-.577Zm1.087,0H25.3V31.3h-.577Zm1.087,0h.577V31.3h-.577Zm1.087,0h.577V31.3H26.9Zm1.087,0h.577V31.3h-.577Zm1.087,0h.577V31.3h-.577Zm1.087,0h.577V31.3h-.577Zm1.087,0h.483V31.3h-.483Zm.993,0h.577V31.3h-.577Zm1.087,0H33.9V31.3h-.577Zm1.087,0h.577V31.3h-.577Zm1.087,0h.577V31.3H35.5Zm1.087,0h.577V31.3h-.577Zm1.087,0h.577V31.3h-.577Zm1.087,0h.577V31.3h-.577Zm1.087,0h.577V31.3h-.577Zm1.087,0h.577V31.3h-.577Zm1.087,0H42.6V31.3h-.577Zm1.087,0h.577V31.3H43.11Zm1.087,0h.577V31.3H44.2Zm1.087,0h.577V31.3h-.577Zm1.087,0h.577V31.3h-.577Zm1.087,0h.483V31.3h-.483Zm.993,0h.577V31.3H48.45Zm1.087,0h.577V31.3h-.577Zm1.087,0H51.2V31.3h-.577Zm1.087,0h.577V31.3h-.577Zm1.087,0h.523V31.3H52.8ZM29.827.967a12.412,12.412,0,0,1,12.392,12.1H17.435A12.412,12.412,0,0,1,29.827.967M53.32,27.846H6.171v-5.7H53.32ZM6.171,28.916h.655V31.3H6.171Zm47.149,13.6H6.171v-10.2H53.32Z" transform="translate(-2.325)"/>
          <path id="Trazado_874739" data-name="Trazado 874739" d="M28.407,78.613H24.279v4.128h4.128Zm-.382,1.73H24.661V80.03h3.364ZM24.661,79h3.364v.652H24.661Zm3.364,3.364H24.661V80.726h3.364Z" transform="translate(-17.166 -55.581)"/>
          <path id="Trazado_874740" data-name="Trazado 874740" d="M53.387,78.613H49.259v4.128h4.128ZM53,80.343H49.641V80.03H53ZM49.641,79H53v.652H49.641ZM53,82.359H49.641V80.726H53Z" transform="translate(-34.827 -55.581)"/>
          <path id="Trazado_874741" data-name="Trazado 874741" d="M78.366,78.613H74.238v4.128h4.128ZM74.62,80.03h3.364v.313H74.62Zm0-1.035h3.364v.652H74.62Zm3.364,3.364H74.62V80.726h3.364Z" transform="translate(-52.488 -55.581)"/>
          <rect id="Rectángulo_402398" data-name="Rectángulo 402398" width="4.765" height="8.369" transform="translate(22.548 33.476)"/>
          <rect id="Rectángulo_402399" data-name="Rectángulo 402399" width="4.765" height="8.369" transform="translate(27.753 33.476)"/>
          <rect id="Rectángulo_402400" data-name="Rectángulo 402400" width="3.283" height="7.272" transform="translate(15.276 33.476)"/>
          <rect id="Rectángulo_402401" data-name="Rectángulo 402401" width="3.283" height="7.272" transform="translate(36.562 33.476)"/>
          <rect id="Rectángulo_402402" data-name="Rectángulo 402402" width="3.283" height="7.272" transform="translate(43.658 33.476)"/>
          <rect id="Rectángulo_402403" data-name="Rectángulo 402403" width="3.283" height="7.272" transform="translate(8.18 33.476)"/>
          <path id="Trazado_874742" data-name="Trazado 874742" d="M102.252,78.613H98.124v4.128h4.128Zm-.382,1.73H98.506V80.03h3.364ZM98.506,79h3.364v.652H98.506Zm3.364,3.364H98.506V80.726h3.364Z" transform="translate(-69.376 -55.581)"/>
          <path id="Trazado_874743" data-name="Trazado 874743" d="M127.231,78.613H123.1v4.128h4.128Zm-.382,1.73h-3.364V80.03h3.364ZM123.485,79h3.364v.652h-3.364Zm3.364,3.364h-3.364V80.726h3.364Z" transform="translate(-87.036 -55.581)"/>
          <path id="Trazado_874744" data-name="Trazado 874744" d="M152.21,78.613h-4.128v4.128h4.128Zm-3.746,1.417h3.364v.313h-3.364Zm0-1.035h3.364v.652h-3.364Zm3.364,3.364h-3.364V80.726h3.364Z" transform="translate(-104.697 -55.581)"/>
          <rect id="Rectángulo_402404" data-name="Rectángulo 402404" width="14.89" height="1.019" transform="translate(19.975 49.611)"/>
          <rect id="Rectángulo_402405" data-name="Rectángulo 402405" width="13.106" height="1.019" transform="translate(20.867 47.842)"/>
          <rect id="Rectángulo_402406" data-name="Rectángulo 402406" width="10.813" height="1.019" transform="translate(22.014 46.073)"/>
          <rect id="Rectángulo_402407" data-name="Rectángulo 402407" width="7.806" height="1.019" transform="translate(23.517 44.303)"/>
        </g>
      </g>
      <path id="Trazado_874745" data-name="Trazado 874745" d="M6.719,179.774v4.54H1.737v-4.54H0v10.588H1.737v-4.631H6.719v4.631H8.455V179.774Z" transform="translate(0 -127.104)"/>
      <g id="Grupo_1102080" data-name="Grupo 1102080" transform="translate(10.542 52.533)">
        <g id="Grupo_1102100" data-name="Grupo 1102100">
          <path id="Trazado_874746" data-name="Trazado 874746" d="M38.672,189.446a5.134,5.134,0,0,1-1.965-1.935,5.747,5.747,0,0,1,0-5.584A5.153,5.153,0,0,1,38.672,180a5.711,5.711,0,0,1,5.454,0,5.1,5.1,0,0,1,1.958,1.927,5.8,5.8,0,0,1,0,5.584,5.082,5.082,0,0,1-1.958,1.935,5.711,5.711,0,0,1-5.454,0m4.593-1.295a3.328,3.328,0,0,0,1.287-1.371,4.4,4.4,0,0,0,.465-2.064,4.358,4.358,0,0,0-.465-2.057,3.29,3.29,0,0,0-1.287-1.356,3.954,3.954,0,0,0-3.748,0,3.288,3.288,0,0,0-1.287,1.356,4.355,4.355,0,0,0-.465,2.057,4.4,4.4,0,0,0,.465,2.064,3.326,3.326,0,0,0,1.287,1.371,3.9,3.9,0,0,0,3.748,0" transform="translate(-35.983 -179.307)"/>
          <path id="Trazado_874747" data-name="Trazado 874747" d="M80.971,189.765a3.148,3.148,0,0,1-1.341-1.059,2.688,2.688,0,0,1-.488-1.6H81a1.677,1.677,0,0,0,.541,1.127,1.916,1.916,0,0,0,1.348.442,2.077,2.077,0,0,0,1.4-.434,1.412,1.412,0,0,0,.5-1.12,1.224,1.224,0,0,0-.312-.868,2.093,2.093,0,0,0-.777-.518,11.77,11.77,0,0,0-1.287-.4,12.025,12.025,0,0,1-1.683-.556,2.78,2.78,0,0,1-1.1-.876,2.531,2.531,0,0,1-.457-1.584,2.816,2.816,0,0,1,.457-1.6,2.919,2.919,0,0,1,1.28-1.051,4.649,4.649,0,0,1,1.9-.366,3.97,3.97,0,0,1,2.521.769,2.839,2.839,0,0,1,1.089,2.11h-1.92a1.391,1.391,0,0,0-.548-.99,2.027,2.027,0,0,0-1.325-.411,1.881,1.881,0,0,0-1.219.381,1.327,1.327,0,0,0-.472,1.1,1.113,1.113,0,0,0,.3.8,2.1,2.1,0,0,0,.754.5,11.68,11.68,0,0,0,1.249.4,13.086,13.086,0,0,1,1.714.579,2.856,2.856,0,0,1,1.127.891,2.563,2.563,0,0,1,.465,1.607,2.889,2.889,0,0,1-.434,1.523,3.132,3.132,0,0,1-1.264,1.15,4.17,4.17,0,0,1-1.958.434,4.738,4.738,0,0,1-1.92-.373" transform="translate(-66.498 -179.306)"/>
          <path id="Trazado_874748" data-name="Trazado 874748" d="M118.251,179.774v1.417h-2.818v9.171H113.7v-9.171h-2.834v-1.417Z" transform="translate(-88.924 -179.637)"/>
          <path id="Trazado_874749" data-name="Trazado 874749" d="M145.1,181.139v3.108h3.656v1.417H145.1v3.245h4.113v1.417h-5.85v-10.6h5.85v1.417Z" transform="translate(-111.903 -179.6)"/>
          <path id="Trazado_874750" data-name="Trazado 874750" d="M173.647,188.961h3.58v1.4H171.91V179.774h1.737Z" transform="translate(-132.086 -179.637)"/>
        </g>
      </g>
    </g>
    <path id="Trazado_874778" data-name="Trazado 874778" d="M.5,812.522h-1V0h1Z" transform="translate(1205.572 4114.779) rotate(90)" fill="#e8e8e8"/>
    <path id="Trazado_876087" data-name="Trazado 876087" d="M0,0H813.521V5H0Z" transform="translate(393.051 4031)" fill="#e7c96e"/>
  </g>
</svg>
