<svg xmlns="http://www.w3.org/2000/svg" xmlns:xlink="http://www.w3.org/1999/xlink" width="73.035" height="73.035" viewBox="0 0 73.035 73.035">
  <defs>
    <clipPath id="clip-path">
      <rect id="Rectángulo_402781" data-name="Rectángulo 402781" width="45.754" height="45.709" fill="none"/>
    </clipPath>
  </defs>
  <g id="Grupo_1102516" data-name="Grupo 1102516" transform="translate(-956.583 -1567.046)">
    <g id="Grupo_1102463" data-name="Grupo 1102463">
      <g id="Elipse_11493" data-name="Elipse 11493" transform="translate(956.583 1567.046)" fill="#95dbb3" stroke="#fff" stroke-width="2">
        <circle cx="36.518" cy="36.518" r="36.518" stroke="none"/>
        <circle cx="36.518" cy="36.518" r="35.518" fill="none"/>
      </g>
      <g id="Grupo_1102462" data-name="Grupo 1102462" transform="translate(970.224 1579.02)">
        <g id="Grupo_1102461" data-name="Grupo 1102461" clip-path="url(#clip-path)">
          <path id="Trazado_876009" data-name="Trazado 876009" d="M1.022,31.739C-.331,29.8-.345,24.784,1.009,22.794.052,21.919.054,20.737.061,19.53c.02-3.8-.3-3.557,2.775-5.914A3.563,3.563,0,0,0,4.519,9.964a9.934,9.934,0,0,1-.008-1.872A2.17,2.17,0,0,1,6.821,5.9q2.81-.027,5.621,0a2.212,2.212,0,0,1,2.374,2.33c.035,1.07.041,2.143,0,3.212a1.388,1.388,0,0,0,.621,1.273c.87.672,1.691,1.408,2.547,2.1a3.139,3.139,0,0,1,1.246,2.634c-.022,1.244-.005,2.489-.005,3.838l2.586-.649c-.289-1.529-.539-3.022-.858-4.5a7.092,7.092,0,0,1,1.832-6.966c-.972-1.3-1.932-2.581-2.884-3.866-.94-1.268-.851-2.59.219-3.382a2.311,2.311,0,0,1,3.327.737,12.4,12.4,0,0,0,1.668,1.91c0-.44-.013-.881,0-1.321a8.939,8.939,0,0,1,.111-1.594A2.139,2.139,0,0,1,27.556.011,2.193,2.193,0,0,1,29.521,2c.037.443.017.892.019,1.338,0,.416,0,.831,0,1.515.415-.522.695-.868.967-1.22.327-.424.63-.867.973-1.278a2.249,2.249,0,0,1,3.041-.46,2.181,2.181,0,0,1,.491,3.086c-1,1.4-2.051,2.766-3.07,4.133,2.21,3.172,2.21,3.172,1.634,8.006l5.737-5.753a14.532,14.532,0,0,1,3.16,18.02l.555.132a3.2,3.2,0,0,1,2.426,4.554A17.9,17.9,0,0,1,32.894,45.116a18.435,18.435,0,0,1-4.583.56c-8.3.053-16.6.028-24.894.023-2.2,0-3.341-1.152-3.347-3.365-.006-2.529.021-5.058-.012-7.586a3.7,3.7,0,0,1,.964-3.01m6.862,2.219a6.577,6.577,0,0,0,.257.71c2.537,5.013,6.523,8.268,12.063,9.191A41.542,41.542,0,0,0,29,44.181c6.552-.32,11.391-3.5,14.477-9.305.146-.275.252-.572.4-.918Zm-2.12-1.509c-.7,0-1.528-.005-2.355,0-1.386.01-1.869.491-1.873,1.89q-.011,3.927,0,7.854c0,1.558.476,2.038,2.017,2.039q5.755,0,11.51,0c.211,0,.422-.032.842-.065C10.8,41.618,7.338,37.931,5.764,32.448M28.756,22.254c.753-.758,1.662-1.656,2.546-2.578a1.456,1.456,0,0,0,.355-.686c.274-1.369.561-2.738.762-4.119a5.132,5.132,0,0,0-4.681-5.987,5.012,5.012,0,0,0-5.5,5.366,58.393,58.393,0,0,0,1,6.083l5.527,1.92m-13.84,7.114H30.942a8.072,8.072,0,0,0-8.479-7.237c-3.885.146-7.41,3.525-7.548,7.237m.83-5.92.176.152a8.677,8.677,0,0,1,1.072-.88,1.494,1.494,0,0,0,.77-1.536c-.055-1.217,0-2.439-.028-3.658-.01-.37-.039-.889-.272-1.081-1.77-1.457-3.127-3.706-5.971-3.2a11.906,11.906,0,0,1-1.96.017c-1.337.01-2.8-.308-3.978.129-1.213.449-2.152,1.637-3.21,2.5a1.4,1.4,0,0,0-.328.3,2.068,2.068,0,0,0-.433.853A35.172,35.172,0,0,0,1.6,20.876,1.463,1.463,0,0,0,3.455,22.1a1.285,1.285,0,0,0,1.07-1.466A4.12,4.12,0,0,1,7.041,16.65a4.29,4.29,0,0,1,4.692.578,2.5,2.5,0,0,0,1.178.451,3.722,3.722,0,0,1,3.11,5.052c-.091.239-.183.477-.275.716M6.262,22.035c-1.5.91-1.96,1.7-1.7,2.8a2.237,2.237,0,0,0,1.969,1.681c1.122.1,1.781-.463,2.513-2.15h1.418a6.531,6.531,0,0,1-.374,1.344.866.866,0,0,0,.249,1.218c.743.682,1.427,1.429,2.158,2.125a5.006,5.006,0,0,0,.815.507c.135-.688.205-1.215.346-1.723a4.514,4.514,0,0,1,.574-1.578c.874-1.118.582-1.941-.449-2.693-.033-.024-.028-.1-.049-.185a2.381,2.381,0,0,0,.836-2.984,2.125,2.125,0,0,0-2.1-1.22,2.3,2.3,0,0,0-2.123,2.151H8.965a3.711,3.711,0,0,1,1.575-3.06,2.69,2.69,0,0,0-3.27-.06,3.008,3.008,0,0,0-1.008,3.823M44.125,32.381c-.227-1.1-.71-1.423-2.116-1.423q-16.15,0-32.3,0a3.844,3.844,0,0,0-.972.089,1.52,1.52,0,0,0-1.2,1.332ZM29.6,23.346a10.124,10.124,0,0,1,2.9,6.123c1.359,0,2.633.012,3.907-.012a.953.953,0,0,0,.612-.269A10.054,10.054,0,0,0,39.8,22.853c-3.125,0-6.176-.012-9.227.019-.3,0-.588.276-.98.473M10.561,29.471l.12-.253a16.419,16.419,0,0,1-1.308-1.2,1.017,1.017,0,0,0-1.364-.287,3.6,3.6,0,0,1-4.821-2.349,10.8,10.8,0,0,1-.2-1.738c-.953.132-1.41.541-1.434,1.452-.039,1.455-.042,2.912,0,4.367A1.423,1.423,0,0,0,3.11,30.936c.771.028,1.546-.023,2.316.019a2.3,2.3,0,0,0,1.657-.6,6.249,6.249,0,0,1,2.17-.863,5.031,5.031,0,0,1,1.308-.02M37.7,15.9l-5.447,5.435h7.47A8.65,8.65,0,0,0,37.7,15.9M38.88,29.4c1.821.193,1.874.2,2.576-1.339a12.875,12.875,0,0,0-1.391-13.77c-.167-.229-.375-.427-.576-.653l-.912.819c3.6,4.941,3.676,9.87.3,14.943M6.044,8.792h7.173c.183-1.182.006-1.42-1.071-1.426q-2.5-.015-5,0c-1.053.006-1.244.256-1.106,1.426M6,11.735h7.252V10.389H6Zm17.931-3.5c1.418-.556,1.419-.557.584-1.672-.782-1.043-1.53-2.116-2.375-3.106-.214-.251-.74-.236-1.123-.342-.014.393-.192.9-.013,1.162.917,1.343,1.926,2.623,2.928,3.958m6.786.029c1.024-1.366,2.062-2.7,3.026-4.088.155-.222-.023-.676-.047-1.022-.369.054-.9-.029-1.079.184-1.017,1.24-1.963,2.539-2.888,3.85-.09.128.065.531.221.7a2.437,2.437,0,0,0,.767.372m-2.646-.927c0-1.747.031-3.4-.031-5.049a1.116,1.116,0,0,0-.675-.747c-.155-.055-.686.357-.693.57-.058,1.732-.033,3.466-.033,5.225Z" transform="translate(0 0)"/>
          <path id="Trazado_876010" data-name="Trazado 876010" d="M58.749,196.882l1.164-.761a14.117,14.117,0,0,0,11.2,6.292v1.346c-4.055.477-10.142-2.9-12.365-6.877" transform="translate(-48.266 -161.127)"/>
          <rect id="Rectángulo_402777" data-name="Rectángulo 402777" width="1.357" height="1.383" transform="translate(24.434 41.329)"/>
          <rect id="Rectángulo_402778" data-name="Rectángulo 402778" width="7.273" height="1.359" transform="translate(23.7 11.842)"/>
          <rect id="Rectángulo_402779" data-name="Rectángulo 402779" width="4.303" height="1.385" transform="translate(25.177 14.784)"/>
          <rect id="Rectángulo_402780" data-name="Rectángulo 402780" width="4.319" height="1.337" transform="translate(25.186 17.749)"/>
          <path id="Trazado_876011" data-name="Trazado 876011" d="M128.7,132.439a6.358,6.358,0,0,1,6.039,4.1l-1.251.54a5.4,5.4,0,0,0-4.787-3.232Z" transform="translate(-105.735 -108.804)"/>
        </g>
      </g>
    </g>
  </g>
</svg>
