<svg xmlns="http://www.w3.org/2000/svg" xmlns:xlink="http://www.w3.org/1999/xlink" width="73.035" height="73.035" viewBox="0 0 73.035 73.035">
  <defs>
    <clipPath id="clip-path">
      <rect id="Rectángulo_402783" data-name="Rectángulo 402783" width="46.467" height="48.307" fill="none"/>
    </clipPath>
  </defs>
  <g id="Grupo_1102518" data-name="Grupo 1102518" transform="translate(-807.583 -1674.046)">
    <g id="Grupo_1102469" data-name="Grupo 1102469">
      <g id="Elipse_11493" data-name="Elipse 11493" transform="translate(807.583 1674.046)" fill="#95dbb3" stroke="#fff" stroke-width="2">
        <circle cx="36.518" cy="36.518" r="36.518" stroke="none"/>
        <circle cx="36.518" cy="36.518" r="35.518" fill="none"/>
      </g>
      <g id="Grupo_1102468" data-name="Grupo 1102468" transform="translate(820.867 1689.063)">
        <g id="Grupo_1102467" data-name="Grupo 1102467" transform="translate(0 -1)" clip-path="url(#clip-path)">
          <path id="Trazado_876020" data-name="Trazado 876020" d="M34.478,157.017c.461-.244.8-.41,1.127-.6,2.492-1.446,4.977-2.905,7.475-4.34a7.3,7.3,0,0,1,3.843-1.2,3.02,3.02,0,0,1,2.991,2.18,3.175,3.175,0,0,1-1.306,3.661q-7.016,4.352-14.062,8.656a5.855,5.855,0,0,1-4.769.626c-2.965-.805-5.939-1.575-8.9-2.41a1.822,1.822,0,0,0-2.011.516c.163.307.351.632.514.968a1.913,1.913,0,0,1-.756,2.684c-.656.415-1.338.79-2.025,1.151a1.956,1.956,0,0,1-2.884-.832c-.931-1.593-1.824-3.208-2.733-4.814-1.132-2-2.271-4-3.392-6a2.03,2.03,0,0,1,.877-3.162q.755-.439,1.522-.86a2.048,2.048,0,0,1,3.178.838c.1.161.212.315.353.522,1.766-1.02,3.492-2.031,5.233-3.016a19.455,19.455,0,0,1,2.078-1.047,5.537,5.537,0,0,1,3.98-.108c2.488.81,5,1.561,7.5,2.312a3.106,3.106,0,0,1,2.261,3.661c-.027.15-.048.3-.1.613m-16.5,5.55a2.515,2.515,0,0,0,.484-.234,2.718,2.718,0,0,1,2.723-.361c2.888.833,5.806,1.561,8.7,2.359a5.086,5.086,0,0,0,4.268-.612c4.392-2.742,8.813-5.439,13.22-8.158.965-.595,1.261-1.326.9-2.172a1.6,1.6,0,0,0-2.146-.785,12.516,12.516,0,0,0-2.485,1.061c-2.509,1.412-4.986,2.883-7.477,4.329a5.537,5.537,0,0,1-4.1.77c-1.607-.361-3.2-.766-4.8-1.16a5.6,5.6,0,0,1-1.476-.443,1.061,1.061,0,0,1-.44-.908c.074-.261.525-.489.852-.577.246-.066.559.11.84.183,1.408.364,2.806.777,4.227,1.077a1.272,1.272,0,0,0,1.712-.99,1.464,1.464,0,0,0-1.188-1.635c-2.471-.753-4.949-1.487-7.4-2.289a3.637,3.637,0,0,0-2.923.049c-2.4,1.262-4.757,2.6-7.206,3.942l3.711,6.552m-9.287-6.693,6.7,11.824c.7-.391,1.266-.7,1.825-1.018.88-.5.892-.528.394-1.41q-2.864-5.072-5.741-10.137c-.138-.244-.313-.467-.515-.765l-2.665,1.507" transform="translate(-5.775 -120.931)"/>
          <path id="Trazado_876021" data-name="Trazado 876021" d="M137.308,90.574c-.548-.147-.99-.417-1.333-.324-.616.167-1.331.314-1.528,1.156a.972.972,0,0,1-.642.623,12.374,12.374,0,0,1-2.419,0c-.236-.024-.5-.376-.641-.638a1.717,1.717,0,0,0-2.34-.937,1.691,1.691,0,0,1-.375.093c-.981.079-2.535-1.931-2.208-2.851a1.659,1.659,0,0,0-.948-2.178,1.1,1.1,0,0,1-.752-1.2,9.871,9.871,0,0,0,0-1.262,1.21,1.21,0,0,1,.89-1.4,1.6,1.6,0,0,0,.817-2.067,1.188,1.188,0,0,1,.344-1.55,7.79,7.79,0,0,0,.825-.823,1.212,1.212,0,0,1,1.628-.352,1.6,1.6,0,0,0,1.992-.8,1.279,1.279,0,0,1,1.478-.943,9.493,9.493,0,0,0,1.262,0,1.081,1.081,0,0,1,1.133.721,1.7,1.7,0,0,0,2.325.952,1.168,1.168,0,0,1,.9.025,12.274,12.274,0,0,1,1.7,1.715c.149.183.079.622-.01.905a1.726,1.726,0,0,0,1,2.312,1.687,1.687,0,0,1,.336.191c.753.631.432,3.155-.45,3.577a1.685,1.685,0,0,0-.892,2.2,1.1,1.1,0,0,1-.286,1.389c-.381.351-.716.752-1.111,1.085a3.4,3.4,0,0,1-.7.384m-11.687-7.306c.184.353.265.768.513.935a3.857,3.857,0,0,1,1.46,3.535c-.12.461.295,1.115.613.933,1.034-.592,1.805.09,2.623.439a5.735,5.735,0,0,1,1.136.907c.2.161.425.412.637.412a.9.9,0,0,0,.629-.417,4.021,4.021,0,0,1,3.482-1.421.959.959,0,0,0,.735-.2.765.765,0,0,0,.137-.648,3.864,3.864,0,0,1,1.485-3.518c.441-.269.59-.965.2-1.083-1.086-.327-1.089-1.335-1.533-2.077a1.636,1.636,0,0,1-.045-1.813c.026-.045-.005-.122-.014-.24l-.627-.568a1.614,1.614,0,0,1-2-.021,2.2,2.2,0,0,0-.714-.293,1.446,1.446,0,0,1-1.12-.944c-.265-.626-.888-.618-1.233-.042a3.8,3.8,0,0,1-3.521,1.464.681.681,0,0,0-.9.811,3.579,3.579,0,0,1-1.943,3.848" transform="translate(-99.985 -60.499)"/>
          <path id="Trazado_876022" data-name="Trazado 876022" d="M172.823,13.563a7.8,7.8,0,0,0-1.459.115,1.151,1.151,0,0,0-.66.608,1.153,1.153,0,0,1-1.286.788,6.8,6.8,0,0,1-1.255-.032,1.76,1.76,0,0,1-.965-.624c-.54-.829-.992-1.092-1.887-.8A1.119,1.119,0,0,1,164,13.31c-.282-.311-.585-.605-.892-.893a1.049,1.049,0,0,1-.268-1.307,1.339,1.339,0,0,0-.736-1.794,1.135,1.135,0,0,1-.76-1.209c.018-.388.014-.777,0-1.165a1.1,1.1,0,0,1,.71-1.141,1.341,1.341,0,0,0,.77-1.856,1.016,1.016,0,0,1,.243-1.228,5.915,5.915,0,0,1,.975-.938,1.919,1.919,0,0,1,1.207-.291,1.526,1.526,0,0,0,1.963-.849A1.748,1.748,0,0,1,168.2.046a7.086,7.086,0,0,1,1.256-.029,1.12,1.12,0,0,1,1.22.735,1.286,1.286,0,0,0,1.719.762,1.172,1.172,0,0,1,1.469.338,5.9,5.9,0,0,1,.865.91,1.757,1.757,0,0,1,.231,1.129,1.535,1.535,0,0,0,.826,1.969,1.708,1.708,0,0,1,.609.974,6.718,6.718,0,0,1,.028,1.353,1.083,1.083,0,0,1-.723,1.128,1.308,1.308,0,0,0-.733,1.8,1.089,1.089,0,0,1-.294,1.31c-.332.308-.623.663-.975.945a4.406,4.406,0,0,1-.817.42l-.056-.233m-6.886-1.949c.737.585,1.974.354,2.5,1.491.24.517.605.49.926-.007a3.626,3.626,0,0,1,3.07-1.318c.621.124.775-.073.712-.7a3.143,3.143,0,0,1,1.3-3.061c.473-.341.448-.616-.015-.958a3.123,3.123,0,0,1-1.277-3.067c.073-.619-.1-.8-.733-.673a3.807,3.807,0,0,1-3.023-1.255c-.369-.585-.638-.58-1.009.017a3.767,3.767,0,0,1-3.026,1.231c-.613-.126-.837.083-.71.66a3.709,3.709,0,0,1-1.261,3.09c-.533.347-.532.619.005.968a3.65,3.65,0,0,1,1.247,3.093c-.147.6.1.776.64.688a5.81,5.81,0,0,0,.655-.2" transform="translate(-129.976 0)"/>
          <path id="Trazado_876023" data-name="Trazado 876023" d="M5.557,11.849a4.176,4.176,0,0,1,.68.488,1.12,1.12,0,0,1,.273.611c.235,1.687,1.306,2.17,2.846,2.043a1.15,1.15,0,0,1,1.34.716,1.078,1.078,0,0,1-.635,1.366,2.285,2.285,0,0,0-1.116,3.393,1.126,1.126,0,0,1-.276,1.495,1.091,1.091,0,0,1-1.5-.171A2.274,2.274,0,0,0,3.6,21.77a1.115,1.115,0,0,1-1.5.214,1.136,1.136,0,0,1-.287-1.565,2.217,2.217,0,0,0-1.091-3.31,1.133,1.133,0,0,1-.645-1.457A1.064,1.064,0,0,1,1.351,15a2.356,2.356,0,0,0,2.943-2.179,1.136,1.136,0,0,1,1.263-.969M3.8,19.657a2.1,2.1,0,0,1,3.1-.125,2.161,2.161,0,0,1,.974-2.9,2.178,2.178,0,0,1-2.5-1.91,2.206,2.206,0,0,1-2.534,1.931c1.315.708,1.412,1.714.964,3" transform="translate(0 -9.546)"/>
          <path id="Trazado_876024" data-name="Trazado 876024" d="M8.238,100.089a1.988,1.988,0,0,1-.637-.322,2.34,2.34,0,0,0-3.729.03.426.426,0,0,1-.25.14c-.4,0-.9.113-1.157-.082A1.187,1.187,0,0,1,2.1,98.786c.8-1.743.475-3.027-1.253-3.979a1.306,1.306,0,0,1-.358-1.161c.07-.289.567-.519.918-.68a1.544,1.544,0,0,1,.859-.089c1.374.236,1.988-.478,2.242-1.7a1.441,1.441,0,0,1,.282-.712c.278-.276.646-.641.972-.637a1.37,1.37,0,0,1,.939.665c.409.72.5,1.767,1.081,2.2.547.409,1.567.139,2.354.294a1.335,1.335,0,0,1,.9.7,1.176,1.176,0,0,1-.329,1.076c-1.75.961-2.056,2.265-1.311,4.054.3.709-.3,1.311-1.158,1.277m-.925-2.53A2.06,2.06,0,0,1,8.407,94.6a5.185,5.185,0,0,1-1.763-.409,5.752,5.752,0,0,1-1.018-1.575c-.143,1.536-1.077,1.974-2.436,1.969,1.325.71,1.44,1.714.983,2.981a2.107,2.107,0,0,1,3.14-.008" transform="translate(-0.376 -72.361)"/>
          <path id="Trazado_876025" data-name="Trazado 876025" d="M67.368,93.636c1.391,0,2.781,0,4.172,0,.584,0,1.18.1,1.168.841-.011.727-.593.831-1.185.831-2.814,0-5.628.018-8.441-.024a1.436,1.436,0,0,1-1.035-.514c-.364-.544.112-1.106.954-1.124,1.455-.031,2.91-.009,4.366-.009v0" transform="translate(-49.886 -75.429)"/>
          <path id="Trazado_876026" data-name="Trazado 876026" d="M69.555,20.083c-1.326,0-2.652.006-3.978,0-.58,0-1.176-.091-1.18-.834s.58-.85,1.166-.851q3.977-.009,7.955,0c.587,0,1.176.11,1.183.838s-.582.845-1.169.849c-1.326.007-2.652,0-3.978,0" transform="translate(-51.879 -14.816)"/>
          <path id="Trazado_876027" data-name="Trazado 876027" d="M69.655,49.827h3.974c.57,0,1.085.145,1.071.825-.013.663-.522.823-1.092.823q-4.071,0-8.143,0c-.57,0-1.072-.169-1.069-.842,0-.691.528-.8,1.09-.8q2.084,0,4.168,0" transform="translate(-51.878 -40.14)"/>
          <path id="Trazado_876028" data-name="Trazado 876028" d="M70.533,125.006c1.294,0,2.587,0,3.88,0,.579,0,1.082.147,1.071.823s-.515.812-1.092.811q-3.977-.008-7.955,0c-.577,0-1.071-.152-1.066-.832s.521-.8,1.088-.8c1.358,0,2.716,0,4.074,0" transform="translate(-52.663 -100.704)"/>
          <path id="Trazado_876029" data-name="Trazado 876029" d="M82.257,110.825h-2.8c-.551,0-.986-.2-.987-.806s.425-.823.978-.823q2.8,0,5.606,0c.551,0,.981.213.986.815s-.424.815-.976.815q-1.4,0-2.8,0" transform="translate(-63.213 -87.966)"/>
          <path id="Trazado_876030" data-name="Trazado 876030" d="M84.656,35.746q-1.309,0-2.618,0c-.566,0-.962-.235-.944-.847.016-.559.4-.77.921-.769q2.618,0,5.236,0c.526,0,.9.246.9.793s-.353.81-.879.817c-.873.011-1.746,0-2.618,0v0" transform="translate(-65.328 -27.494)"/>
          <path id="Trazado_876031" data-name="Trazado 876031" d="M23.395,177.92c.372.525.774.845.747,1.123s-.475.759-.729.754a1.075,1.075,0,0,1-.764-.737c-.033-.276.374-.606.747-1.139" transform="translate(-18.244 -143.332)"/>
          <path id="Trazado_876032" data-name="Trazado 876032" d="M149.438,104.97a4.421,4.421,0,1,1,4.459-4.413,4.374,4.374,0,0,1-4.459,4.413m-2.747-4.444a2.752,2.752,0,0,0,2.726,2.806,2.8,2.8,0,0,0,2.852-2.8,2.85,2.85,0,0,0-2.8-2.777,2.791,2.791,0,0,0-2.778,2.775" transform="translate(-116.85 -77.44)"/>
          <path id="Trazado_876033" data-name="Trazado 876033" d="M187.58,22.263a3.981,3.981,0,0,1-3.945,3.973,4,4,0,1,1-.054-7.994,3.993,3.993,0,0,1,4,4.021m-6.28-.091a2.328,2.328,0,0,0,2.242,2.421,2.35,2.35,0,0,0,.141-4.7,2.321,2.321,0,0,0-2.383,2.277" transform="translate(-144.689 -14.696)"/>
        </g>
      </g>
    </g>
  </g>
</svg>
