<svg xmlns="http://www.w3.org/2000/svg" xmlns:xlink="http://www.w3.org/1999/xlink" width="295" height="259" viewBox="0 0 295 259">
  <defs>
    <clipPath id="clip-path">
      <rect id="Rectángulo_403454" data-name="Rectángulo 403454" width="245.937" height="203.912" fill="none"/>
    </clipPath>
    <clipPath id="clip-path-3">
      <rect id="Rectángulo_403430" data-name="Rectángulo 403430" width="240.839" height="162.436" fill="none"/>
    </clipPath>
    <clipPath id="clip-path-4">
      <path id="Trazado_877139" data-name="Trazado 877139" d="M3.888,175.586c-.837,9.41,1.088,19.15,7.06,26.774,6.8,8.683,19.51,13.836,30.624,10.587,7.39-2.159,13.419-7.615,21.056-8.865,6.487-1.06,13.156,1.138,18.7,4.4s10.255,7.563,15.4,11.333c13.094,9.595,30.518,15.845,46.705,11.834,11.469-2.841,20.769-10.347,31.312-15.363,11.754-5.592,24.96-8.038,37.251-12.561s24.383-11.947,28.951-23.335a27.34,27.34,0,0,0,1.425-4.807Z" transform="translate(-3.702 -175.586)" fill="none"/>
    </clipPath>
    <linearGradient id="linear-gradient" x1="-0.01" y1="0.954" x2="-0.007" y2="0.954" gradientUnits="objectBoundingBox">
      <stop offset="0" stop-color="#5024d8"/>
      <stop offset="1" stop-color="#9e62be"/>
    </linearGradient>
    <clipPath id="clip-path-6">
      <rect id="Rectángulo_403435" data-name="Rectángulo 403435" width="22.375" height="27.023" fill="none"/>
    </clipPath>
    <clipPath id="clip-path-7">
      <rect id="Rectángulo_403436" data-name="Rectángulo 403436" width="19.376" height="24.664" fill="none"/>
    </clipPath>
    <clipPath id="clip-path-8">
      <rect id="Rectángulo_403437" data-name="Rectángulo 403437" width="14.028" height="17.142" fill="none"/>
    </clipPath>
  </defs>
  <g id="Grupo_1103775" data-name="Grupo 1103775" transform="translate(-1125.051 -391)">
    <g id="Grupo_1103769" data-name="Grupo 1103769">
      <rect id="Rectángulo_402102" data-name="Rectángulo 402102" width="295" height="259" transform="translate(1125.051 391)" fill="#eee8f3"/>
      <g id="Grupo_1103765" data-name="Grupo 1103765" transform="translate(1149.582 418.544)">
        <g id="Grupo_1103764" data-name="Grupo 1103764" clip-path="url(#clip-path)">
          <g id="Grupo_1103750" data-name="Grupo 1103750">
            <g id="Grupo_1103749" data-name="Grupo 1103749" clip-path="url(#clip-path)">
              <g id="Grupo_1103748" data-name="Grupo 1103748" transform="translate(5.098)" opacity="0.4">
                <g id="Grupo_1103747" data-name="Grupo 1103747">
                  <g id="Grupo_1103746" data-name="Grupo 1103746" clip-path="url(#clip-path-3)">
                    <path id="Trazado_877134" data-name="Trazado 877134" d="M264.1,194.236a.851.851,0,0,0,.589-.224.71.71,0,0,0,.244-.539.742.742,0,0,0-.244-.539.918.918,0,0,0-1.177,0,.743.743,0,0,0-.245.539.732.732,0,0,0,.245.539.861.861,0,0,0,.589.224" transform="translate(-48.539 -31.801)" fill="#ffab32"/>
                    <path id="Trazado_877135" data-name="Trazado 877135" d="M223.724,160.726h0a.866.866,0,0,1-.605-.239.719.719,0,0,1,.033-1.079.888.888,0,0,1,1.177.031.719.719,0,0,1-.033,1.078.856.856,0,0,1-.572.209m1.976-1.785h0a.865.865,0,0,1-.578-.214.72.72,0,0,1-.016-1.083.888.888,0,0,1,1.177-.011.719.719,0,0,1,.016,1.079.887.887,0,0,1-.6.229m1.9-1.857h0a.857.857,0,0,1-.555-.193.716.716,0,0,1-.062-1.079.883.883,0,0,1,1.177-.055.723.723,0,0,1,.061,1.078.87.87,0,0,1-.621.249m1.815-1.922h0a.85.85,0,0,1-.528-.179.717.717,0,0,1-.111-1.073.883.883,0,0,1,1.172-.1.718.718,0,0,1,.11,1.074.867.867,0,0,1-.644.275m1.738-1.989h0a.9.9,0,0,1-.511-.158.719.719,0,0,1-.15-1.068.876.876,0,0,1,1.166-.137.72.72,0,0,1,.155,1.068.87.87,0,0,1-.66.295m1.643-2.045h0a.859.859,0,0,1-.478-.142.72.72,0,0,1-.2-1.063.89.89,0,0,1,1.161-.184.726.726,0,0,1,.2,1.068.864.864,0,0,1-.683.321m1.561-2.106h0a.929.929,0,0,1-.456-.122.725.725,0,0,1-.238-1.058.88.88,0,0,1,1.149-.224.726.726,0,0,1,.245,1.058.861.861,0,0,1-.7.346m1.471-2.157h0a.906.906,0,0,1-.428-.107.733.733,0,0,1-.289-1.048.885.885,0,0,1,1.144-.265.734.734,0,0,1,.289,1.049.853.853,0,0,1-.716.371m1.383-2.208h0a.839.839,0,0,1-.4-.1.727.727,0,0,1-.333-1.033.875.875,0,0,1,1.133-.306.734.734,0,0,1,.327,1.038.843.843,0,0,1-.727.4m-198-1.7h0a.9.9,0,0,1-.478-.133v-.005a.72.72,0,0,1-.21-1.058.882.882,0,0,1,1.161-.194.721.721,0,0,1,.21,1.058.841.841,0,0,1-.682.331m199.282-.554h0a.9.9,0,0,1-.372-.082.734.734,0,0,1-.372-1.022.862.862,0,0,1,1.116-.341.727.727,0,0,1,.372,1.022h.006a.862.862,0,0,1-.75.423m-201.537-.931h0a.893.893,0,0,1-.5-.153v-.005a.719.719,0,0,1-.166-1.063.878.878,0,0,1,1.166-.153.716.716,0,0,1,.166,1.068.854.854,0,0,1-.666.306m202.731-1.369h0a.891.891,0,0,1-.344-.066.741.741,0,0,1-.412-1.013.867.867,0,0,1,1.1-.381.741.741,0,0,1,.417,1.012.847.847,0,0,1-.761.448m-204.919-.2h0a.884.884,0,0,1-.527-.173.722.722,0,0,1-.122-1.074.9.9,0,0,1,1.177-.112v.005a.713.713,0,0,1,.117,1.069.844.844,0,0,1-.645.285m-2.121-1.643h0a.875.875,0,0,1-.55-.188A.717.717,0,0,1,32.021,137a.894.894,0,0,1,1.177-.071v.005A.714.714,0,0,1,33.27,138a.852.852,0,0,1-.622.26m208.14-.493h0a.873.873,0,0,1-.317-.061.742.742,0,0,1-.455-.992.862.862,0,0,1,1.089-.417.743.743,0,0,1,.455.992.836.836,0,0,1-.772.478M30.593,136.555h0a.88.88,0,0,1-.571-.209.717.717,0,0,1-.033-1.078.88.88,0,0,1,1.177-.03.718.718,0,0,1,.033,1.078.884.884,0,0,1-.605.239m211.193-1.16h0a.908.908,0,0,1-.283-.046.748.748,0,0,1-.5-.976.858.858,0,0,1,1.066-.458.755.755,0,0,1,.5.983v-.006a.834.834,0,0,1-.783.5m-213.175-.62h0a.862.862,0,0,1-.595-.229.719.719,0,0,1,.005-1.079.882.882,0,0,1,1.177.011.714.714,0,0,1-.005,1.078.884.884,0,0,1-.583.219m214.075-1.785h0a.894.894,0,0,1-.256-.036.756.756,0,0,1-.539-.961.855.855,0,0,1,1.05-.493.756.756,0,0,1,.539.962.824.824,0,0,1-.794.529M26.7,132.929h0a.872.872,0,0,1-.617-.25.719.719,0,0,1,.051-1.078.882.882,0,0,1,1.177.05.719.719,0,0,1-.05,1.079.88.88,0,0,1-.56.2m-1.838-1.913h0a.847.847,0,0,1-.634-.265.721.721,0,0,1,.094-1.078.883.883,0,0,1,1.172.086.722.722,0,0,1-.094,1.079.875.875,0,0,1-.539.178m218.622-.463h0a1.052,1.052,0,0,1-.221-.026.76.76,0,0,1-.578-.941.84.84,0,0,1,1.027-.529.754.754,0,0,1,.578.936.829.829,0,0,1-.806.559M23.1,129.048h0a.861.861,0,0,1-.655-.29.716.716,0,0,1,.144-1.069.877.877,0,0,1,1.166.122.721.721,0,0,1-.139,1.074.86.86,0,0,1-.516.163m221.082-.957h0a.861.861,0,0,1-.195-.02.764.764,0,0,1-.616-.921.843.843,0,0,1,1.005-.564.766.766,0,0,1,.616.921.823.823,0,0,1-.811.584m-222.76-1.068h0a.853.853,0,0,1-.671-.311v-.005a.717.717,0,0,1,.178-1.063.89.89,0,0,1,1.166.163.723.723,0,0,1-.184,1.068.839.839,0,0,1-.488.148M244.78,125.6h0a.869.869,0,0,1-.167-.015.765.765,0,0,1-.65-.9.832.832,0,0,1,.978-.6.771.771,0,0,1,.655.9.816.816,0,0,1-.816.61m-224.953-.66h0a.854.854,0,0,1-.689-.336.719.719,0,0,1,.223-1.059.874.874,0,0,1,1.155.2.719.719,0,0,1-.222,1.058.862.862,0,0,1-.467.133M245.268,123.1h0c-.044,0-.089-.005-.134-.009a.773.773,0,0,1-.694-.871.829.829,0,0,1,.955-.635.776.776,0,0,1,.694.875.82.82,0,0,1-.822.64m-226.958-.29h0a.84.84,0,0,1-.7-.362.719.719,0,0,1,.266-1.047.874.874,0,0,1,1.144.239.728.728,0,0,1-.261,1.053.937.937,0,0,1-.445.117m-1.426-2.182h0a.845.845,0,0,1-.722-.382.726.726,0,0,1,.306-1.043.876.876,0,0,1,1.133.28.726.726,0,0,1-.306,1.043.848.848,0,0,1-.411.1m228.761-.046h0c-.033,0-.066-.005-.1-.005a.783.783,0,0,1-.728-.849.823.823,0,0,1,.922-.672.791.791,0,0,1,.733.85.816.816,0,0,1-.827.676M15.54,118.4h0a.852.852,0,0,1-.738-.4.731.731,0,0,1,.344-1.032.872.872,0,0,1,1.127.315.732.732,0,0,1-.345,1.033.894.894,0,0,1-.388.086m230.373-.351h0a.235.235,0,0,1-.062-.005.788.788,0,0,1-.772-.818.822.822,0,0,1,.9-.7.794.794,0,0,1,.767.819.813.813,0,0,1-.832.706M14.285,116.133h0a.852.852,0,0,1-.755-.428.745.745,0,0,1,.389-1.022.868.868,0,0,1,1.111.356h.005a.736.736,0,0,1-.389,1.017.818.818,0,0,1-.361.077m231.783-.62h-.028a.767.767,0,1,1,.061-1.526.788.788,0,0,1,.8.788.8.8,0,0,1-.832.738M13.119,113.823h0a.835.835,0,0,1-.761-.453.737.737,0,0,1,.428-1.007.86.86,0,0,1,1.094.392.739.739,0,0,1-.428,1.007.929.929,0,0,1-.332.061m233-.854h0a.766.766,0,1,1-.005-1.526.766.766,0,1,1,.005,1.526m-234.07-1.49h0a.835.835,0,0,1-.772-.483.743.743,0,0,1,.467-.992.864.864,0,0,1,1.082.428v.005a.739.739,0,0,1-.472.987.912.912,0,0,1-.306.056m233.988-1.053h0a.811.811,0,0,1-.833-.722.8.8,0,0,1,.788-.8.813.813,0,0,1,.878.722.8.8,0,0,1-.788.8ZM11.076,109.1h0a.843.843,0,0,1-.789-.509.752.752,0,0,1,.511-.977.85.85,0,0,1,1.06.463.75.75,0,0,1-.505.977.921.921,0,0,1-.277.046m234.742-1.211h0a.807.807,0,0,1-.827-.681.781.781,0,0,1,.738-.84.82.82,0,0,1,.916.682.777.777,0,0,1-.744.834.463.463,0,0,1-.084.005M10.2,106.682h0a.827.827,0,0,1-.794-.534.749.749,0,0,1,.544-.956.849.849,0,0,1,1.044.5.751.751,0,0,1-.55.956.774.774,0,0,1-.244.036m235.253-1.318h0a.806.806,0,0,1-.822-.64.778.778,0,0,1,.689-.875.829.829,0,0,1,.955.635.777.777,0,0,1-.689.875,1.176,1.176,0,0,1-.133.005M9.421,104.24h0a.828.828,0,0,1-.806-.564.76.76,0,0,1,.584-.936.846.846,0,0,1,1.022.539.756.756,0,0,1-.584.936,1.068,1.068,0,0,1-.216.025m235.5-1.374h0a.812.812,0,0,1-.811-.6.76.76,0,0,1,.627-.91.834.834,0,0,1,.994.575.764.764,0,0,1-.628.915,1.126,1.126,0,0,1-.183.015M8.744,101.773h0a.823.823,0,0,1-.811-.59.758.758,0,0,1,.622-.916.831.831,0,0,1,1,.57.759.759,0,0,1-.621.915.794.794,0,0,1-.189.02m235.475-1.368h0a.824.824,0,0,1-.794-.544.749.749,0,0,1,.555-.946.848.848,0,0,1,1.039.509.752.752,0,0,1-.561.951.9.9,0,0,1-.239.031M8.171,99.281h0a.812.812,0,0,1-.816-.616.77.77,0,0,1,.66-.9.832.832,0,0,1,.972.605.77.77,0,0,1-.66.9.78.78,0,0,1-.156.011M243.33,98h0a.843.843,0,0,1-.782-.488v-.005a.742.742,0,0,1,.483-.982.852.852,0,0,1,1.072.438.746.746,0,0,1-.478.986.873.873,0,0,1-.295.051M7.7,96.774h0a.811.811,0,0,1-.822-.651.775.775,0,0,1,.7-.865.83.83,0,0,1,.949.641.783.783,0,0,1-.706.869.845.845,0,0,1-.122.006m234.52-1.11h0a.846.846,0,0,1-.75-.432.733.733,0,0,1,.389-1.018.87.87,0,0,1,1.111.351.738.738,0,0,1-.389,1.023.9.9,0,0,1-.361.076M7.343,94.25h0a.8.8,0,0,1-.822-.676.782.782,0,0,1,.733-.845.822.822,0,0,1,.922.677.791.791,0,0,1-.738.844Zm233.56-.824h0a.858.858,0,0,1-.716-.367.727.727,0,0,1,.283-1.048.882.882,0,0,1,1.144.255.727.727,0,0,1-.283,1.048.866.866,0,0,1-.428.112M7.1,91.717h0a.808.808,0,0,1-.832-.707.789.789,0,0,1,.772-.813.814.814,0,0,1,.894.707.793.793,0,0,1-.778.813Zm232.249-.4h0a.853.853,0,0,1-.666-.3.721.721,0,0,1,.161-1.069.884.884,0,0,1,1.166.148.72.72,0,0,1-.161,1.068.893.893,0,0,1-.5.153m-1.794-1.943h0a.868.868,0,0,1-.605-.239.719.719,0,0,1,.033-1.079.89.89,0,0,1,1.183.036.719.719,0,0,1-.039,1.078.877.877,0,0,1-.572.2m-230.594-.2h0a.812.812,0,0,1-.833-.742.8.8,0,0,1,.811-.783.766.766,0,1,1,.05,1.526Zm228.584-1.551h0a.861.861,0,0,1-.539-.178.717.717,0,0,1-.1-1.073.89.89,0,0,1,1.177-.092.726.726,0,0,1,.094,1.079.881.881,0,0,1-.633.264M6.938,86.636H6.928a.844.844,0,1,1,.011,0m226.4-.549h0a.889.889,0,0,1-.478-.138.722.722,0,0,1-.205-1.063.873.873,0,0,1,1.155-.189.718.718,0,0,1,.211,1.059.861.861,0,0,1-.683.331M231,84.713h0a.934.934,0,0,1-.428-.107.733.733,0,0,1-.289-1.048.88.88,0,0,1,1.144-.265.727.727,0,0,1,.289,1.043.845.845,0,0,1-.716.377M7.039,84.093h-.05a.792.792,0,0,1-.783-.809.806.806,0,0,1,.878-.717.787.787,0,0,1,.783.8.8.8,0,0,1-.827.722m221.543-.621h0a.912.912,0,0,1-.394-.091.737.737,0,0,1-.344-1.033.873.873,0,0,1,1.127-.315.732.732,0,0,1,.344,1.032.843.843,0,0,1-.733.407m-2.476-1.16h0a.848.848,0,0,1-.367-.081.735.735,0,0,1-.377-1.022.862.862,0,0,1,1.116-.341.731.731,0,0,1,.377,1.022.86.86,0,0,1-.749.422M7.255,81.554h0a.524.524,0,0,1-.089-.005.781.781,0,0,1-.744-.834.822.822,0,0,1,.91-.682.786.786,0,0,1,.75.835.811.811,0,0,1-.827.686m216.363-.367h0a.847.847,0,0,1-.366-.081.737.737,0,0,1-.383-1.023.87.87,0,0,1,1.116-.346.732.732,0,0,1,.378,1.023.842.842,0,0,1-.745.427m-2.482-1.144h0a.859.859,0,0,1-.383-.087.734.734,0,0,1-.356-1.027.872.872,0,0,1,1.122-.326.732.732,0,0,1,.355,1.027.845.845,0,0,1-.738.412M7.594,79.031h0a1,1,0,0,1-.122-.01.768.768,0,0,1-.7-.864H6.766a.834.834,0,0,1,.95-.646.777.777,0,0,1,.7.87.815.815,0,0,1-.822.65m211.093-.193h0a.927.927,0,0,1-.411-.1.726.726,0,0,1-.311-1.038.878.878,0,0,1,1.138-.29.731.731,0,0,1,.311,1.043.866.866,0,0,1-.727.387m-2.371-1.323h0a.871.871,0,0,1-.456-.127.72.72,0,0,1-.239-1.053.874.874,0,0,1,1.15-.224.728.728,0,0,1,.245,1.058.86.86,0,0,1-.7.346M8.06,76.524h0a.927.927,0,0,1-.161-.015.769.769,0,0,1-.655-.9.832.832,0,0,1,.977-.6.766.766,0,0,1,.655.9.812.812,0,0,1-.817.615m206-.488h0a.86.86,0,0,1-.517-.163.724.724,0,0,1-.139-1.073.881.881,0,0,1,1.166-.127.724.724,0,0,1,.144,1.073.879.879,0,0,1-.655.29m-2.094-1.673h0a.864.864,0,0,1-.577-.214.72.72,0,0,1-.017-1.084.889.889,0,0,1,1.177-.01v-.005a.725.725,0,0,1,.017,1.084.891.891,0,0,1-.6.229M8.66,74.041h0a.9.9,0,0,1-.2-.025.766.766,0,0,1-.611-.921.842.842,0,0,1,1.01-.559.764.764,0,0,1,.61.926.825.825,0,0,1-.81.579m201.421-1.546h0a.854.854,0,0,1-.639-.274v0a.726.726,0,0,1,.105-1.078.89.89,0,0,1,1.177.1.721.721,0,0,1-.105,1.073.885.885,0,0,1-.539.178M9.393,71.59h0a.946.946,0,0,1-.239-.036.759.759,0,0,1-.561-.951H8.6a.84.84,0,0,1,1.032-.509.756.756,0,0,1,.561.951.83.83,0,0,1-.8.544m199.016-1.119h0a.852.852,0,0,1-.689-.336.726.726,0,0,1,.217-1.058.884.884,0,0,1,1.16.2.721.721,0,0,1-.216,1.058.931.931,0,0,1-.472.138m-198.144-1.3h0a.93.93,0,0,1-.284-.04.747.747,0,0,1-.5-.977.852.852,0,0,1,1.06-.463.75.75,0,0,1,.506.976.836.836,0,0,1-.783.5m196.684-.859h0a.844.844,0,0,1-.727-.392.728.728,0,0,1,.316-1.038.87.87,0,0,1,1.132.29.732.732,0,0,1-.316,1.043.879.879,0,0,1-.4.1M11.27,66.8h0a.921.921,0,0,1-.322-.061.746.746,0,0,1-.443-1,.867.867,0,0,1,1.093-.407.744.744,0,0,1,.444,1,.843.843,0,0,1-.772.468m194.418-.758h0a.858.858,0,0,1-.761-.443.738.738,0,0,1,.406-1.012.865.865,0,0,1,1.111.372.741.741,0,0,1-.406,1.012.966.966,0,0,1-.35.071M12.419,64.484h0a.947.947,0,0,1-.367-.077.733.733,0,0,1-.377-1.022.861.861,0,0,1,1.111-.346.73.73,0,0,1,.382,1.017.841.841,0,0,1-.749.428M204.611,63.7h0a.838.838,0,0,1-.777-.493.739.739,0,0,1,.483-.982.848.848,0,0,1,1.071.443v-.005a.744.744,0,0,1-.483.987.846.846,0,0,1-.295.051m-190.9-1.465h0a.916.916,0,0,1-.411-.1.732.732,0,0,1-.316-1.037.88.88,0,0,1,1.138-.291.732.732,0,0,1,.316,1.038.856.856,0,0,1-.727.392m189.993-.941h0a.828.828,0,0,1-.794-.534.753.753,0,0,1,.544-.957.847.847,0,0,1,1.044.5.745.745,0,0,1-.544.952.864.864,0,0,1-.25.035M15.146,60.053h0a.888.888,0,0,1-.45-.117.732.732,0,0,1-.25-1.058A.886.886,0,0,1,15.6,58.65a.724.724,0,0,1,.245,1.052.834.834,0,0,1-.7.352m187.805-1.206h0a.819.819,0,0,1-.8-.574.757.757,0,0,1,.605-.926.836.836,0,0,1,1.01.549.76.76,0,0,1-.605.926.96.96,0,0,1-.205.025m-186.234-.89h0a.847.847,0,0,1-.489-.148.724.724,0,0,1-.182-1.068.884.884,0,0,1,1.166-.163.717.717,0,0,1,.178,1.063.861.861,0,0,1-.672.316m185.617-1.592h0a.826.826,0,0,1-.817-.61.774.774,0,0,1,.655-.9.839.839,0,0,1,.983.6.774.774,0,0,1-.655.9.931.931,0,0,1-.166.015M18.421,55.949h0a.888.888,0,0,1-.533-.178.718.718,0,0,1-.111-1.074.883.883,0,0,1,1.171-.1.717.717,0,0,1,.111,1.074.851.851,0,0,1-.639.28m1.827-1.918h0a.865.865,0,0,1-.566-.2.719.719,0,0,1-.044-1.079.888.888,0,0,1,1.177-.041.721.721,0,0,1,.044,1.079.872.872,0,0,1-.611.244m181.592-.168h0a.81.81,0,0,1-.817-.646.767.767,0,0,1,.689-.869.826.826,0,0,1,.955.63.776.776,0,0,1-.695.875,1.184,1.184,0,0,1-.133.01M22.2,52.219h0a.854.854,0,0,1-.6-.234.714.714,0,0,1,.028-1.078.889.889,0,0,1,1.177.025.72.72,0,0,1-.028,1.079.874.874,0,0,1-.578.208m179.26-.879h0a.811.811,0,0,1-.822-.671.778.778,0,0,1,.721-.85.821.821,0,0,1,.928.666.779.779,0,0,1-.727.85.672.672,0,0,1-.1.005M24.269,50.526h0a.858.858,0,0,1-.639-.275.721.721,0,0,1,.1-1.073.888.888,0,0,1,1.171.091.713.713,0,0,1-.1,1.074.866.866,0,0,1-.534.183m2.177-1.576h0a.844.844,0,0,1-.666-.311.72.72,0,0,1,.172-1.063.883.883,0,0,1,1.166.158A.723.723,0,0,1,26.94,48.8a.861.861,0,0,1-.494.148m174.723-.138h0a.808.808,0,0,1-.827-.7.784.784,0,0,1,.75-.829.822.822,0,0,1,.911.691.794.794,0,0,1-.756.829c-.028,0-.05.005-.078.005m-172.43-1.3h0a.854.854,0,0,1-.7-.352.722.722,0,0,1,.256-1.053.876.876,0,0,1,1.149.229.726.726,0,0,1-.256,1.053.879.879,0,0,1-.444.123M99.3,46.966h0a.806.806,0,0,1-.833-.753.836.836,0,1,1,.844.753Zm-2.777-.021H96.5a.8.8,0,0,1-.811-.783.813.813,0,0,1,.861-.742.765.765,0,1,1-.028,1.526m5.554-.071h0a.81.81,0,0,1-.833-.717.794.794,0,0,1,.783-.808.81.81,0,0,1,.883.716.794.794,0,0,1-.783.809Zm-8.324-.051H93.7a.794.794,0,0,1-.778-.814.82.82,0,0,1,.889-.711.784.784,0,0,1,.772.813.8.8,0,0,1-.827.712m11.09-.173h0a.815.815,0,0,1-.827-.676.779.779,0,0,1,.733-.844.813.813,0,0,1,.921.671.777.777,0,0,1-.727.844c-.033,0-.067.005-.1.005m-13.854-.036h0a.463.463,0,0,1-.083-.005.781.781,0,0,1-.75-.829.817.817,0,0,1,.91-.686.784.784,0,0,1,.751.834.812.812,0,0,1-.827.686m-2.76-.285h0a.711.711,0,0,1-.106-.005.773.773,0,0,1-.721-.849.818.818,0,0,1,.927-.666.782.782,0,0,1,.722.854.806.806,0,0,1-.822.666m19.362-.051h0a.82.82,0,0,1-.822-.63.777.777,0,0,1,.677-.885.829.829,0,0,1,.961.615.772.772,0,0,1-.672.89c-.05.005-.1.01-.144.01m93.348-.005h0a.807.807,0,0,1-.827-.707.784.784,0,0,1,.772-.813.811.811,0,0,1,.888.7.788.788,0,0,1-.772.819ZM31.126,46.213h0a.847.847,0,0,1-.733-.4.734.734,0,0,1,.328-1.038.874.874,0,0,1,1.132.306.725.725,0,0,1-.333,1.032.836.836,0,0,1-.394.1m54.35-.229h0a1,1,0,0,1-.123-.005.782.782,0,0,1-.7-.87.831.831,0,0,1,.949-.64.772.772,0,0,1,.7.864.81.81,0,0,1-.822.651m24.832-.234h0a.831.831,0,0,1-.811-.58.763.763,0,0,1,.611-.925.835.835,0,0,1,1.005.554.758.758,0,0,1-.606.925.855.855,0,0,1-.2.026m-27.575-.163h0a.646.646,0,0,1-.139-.01.768.768,0,0,1-.684-.875.833.833,0,0,1,.956-.631.78.78,0,0,1,.688.88.821.821,0,0,1-.822.636M80,45.15h0a.75.75,0,0,1-.15-.01.777.777,0,0,1-.672-.885.83.83,0,0,1,.972-.615.773.773,0,0,1,.671.885A.82.82,0,0,1,80,45.15M33.6,45.068h0a.832.832,0,0,1-.755-.442.733.733,0,0,1,.4-1.013.862.862,0,0,1,1.1.372A.732.732,0,0,1,33.947,45h.006a.863.863,0,0,1-.35.071m79.371-.025h0a.828.828,0,0,1-.788-.524.75.75,0,0,1,.528-.962.857.857,0,0,1,1.055.483.753.753,0,0,1-.534.966.873.873,0,0,1-.261.036m-35.7-.357h0a.81.81,0,0,1-.161-.015.769.769,0,0,1-.66-.89.828.828,0,0,1,.971-.605.768.768,0,0,1,.667.89.82.82,0,0,1-.817.62m-2.732-.473h0a.863.863,0,0,1-.155-.015.768.768,0,0,1-.661-.89.831.831,0,0,1,.972-.61.77.77,0,0,1,.661.9.817.817,0,0,1-.817.62m41.041-.056h0a.836.836,0,0,1-.767-.468.747.747,0,0,1,.444-1,.866.866,0,0,1,1.089.412.739.739,0,0,1-.445,1,.9.9,0,0,1-.321.061m-79.41-.066h0a.846.846,0,0,1-.783-.5.744.744,0,0,1,.489-.982.857.857,0,0,1,1.071.448.746.746,0,0,1-.488.982.974.974,0,0,1-.289.051m35.638-.346h0a.753.753,0,0,1-.15-.016.77.77,0,0,1-.666-.89.832.832,0,0,1,.971-.61.772.772,0,0,1,.667.89.818.818,0,0,1-.822.626m128.957-.01h0a.806.806,0,0,1-.833-.717.794.794,0,0,1,.783-.809.808.808,0,0,1,.877.717.785.785,0,0,1-.777.809ZM69.074,43.293h0c-.044,0-.1-.005-.145-.01a.778.778,0,0,1-.677-.885.834.834,0,0,1,.967-.62.773.773,0,0,1,.677.885.817.817,0,0,1-.822.63M38.8,43.283h0a.827.827,0,0,1-.8-.544.761.761,0,0,1,.567-.952h-.005a.857.857,0,0,1,1.038.519.8.8,0,0,1-.8.976m79.293-.2h0a.852.852,0,0,1-.738-.412.731.731,0,0,1,.361-1.027.873.873,0,0,1,1.121.326A.73.73,0,0,1,118.476,43a.841.841,0,0,1-.383.087m-51.757-.214h0a1.2,1.2,0,0,1-.134-.01.777.777,0,0,1-.688-.875.826.826,0,0,1,.949-.63.775.775,0,0,1,.694.874.81.81,0,0,1-.822.641m-24.848-.219h0a.812.812,0,0,1-.811-.6.764.764,0,0,1,.633-.91.835.835,0,0,1,.994.579.769.769,0,0,1-.638.911,1.022,1.022,0,0,1-.178.015m22.1-.158h0a.919.919,0,0,1-.117-.005l.007-.005a.771.771,0,0,1-.711-.86.824.824,0,0,1,.939-.65.785.785,0,0,1,.711.864.816.816,0,0,1-.827.656m-19.368-.3h0a.81.81,0,0,1-.822-.646.768.768,0,0,1,.694-.87.823.823,0,0,1,.949.636.772.772,0,0,1-.694.869,1.218,1.218,0,0,1-.128.011m16.614-.016h0c-.033,0-.061-.005-.094-.005a.784.784,0,0,1-.733-.849.814.814,0,0,1,.922-.666.777.777,0,0,1,.733.844.816.816,0,0,1-.827.676m-2.765-.254h0A.376.376,0,0,1,58,41.915H58a.784.784,0,0,1-.761-.824.816.816,0,0,1,.9-.7.787.787,0,0,1,.761.824.819.819,0,0,1-.833.7m-11.095-.041h0a.8.8,0,0,1-.827-.692.783.783,0,0,1,.749-.828.809.809,0,0,1,.905.686.782.782,0,0,1-.749.834Zm73.535-.051h0a.86.86,0,0,1-.711-.361.725.725,0,0,1,.272-1.048.875.875,0,0,1,1.144.244.724.724,0,0,1-.266,1.053.909.909,0,0,1-.439.112M55.3,41.747h-.039a.8.8,0,0,1-.794-.8.814.814,0,0,1,.878-.727.794.794,0,0,1,.788.8.8.8,0,0,1-.832.728m-5.553-.036h0a.808.808,0,0,1-.833-.732.793.793,0,0,1,.8-.789.8.8,0,0,1,.866.728.793.793,0,0,1-.8.793Zm2.781-.036h0c-.005,0-.005-.005-.011-.005a.8.8,0,0,1-.827-.768.8.8,0,0,1,.838-.752.765.765,0,1,1,0,1.526M200.6,41.2h0a.812.812,0,0,1-.833-.722.8.8,0,0,1,.789-.8.812.812,0,0,1,.877.717.8.8,0,0,1-.788.809Zm-77.789-.788h0a.865.865,0,0,1-.677-.311.724.724,0,0,1,.183-1.068.884.884,0,0,1,1.166.167.728.728,0,0,1-.183,1.069.909.909,0,0,1-.488.143M125,38.852h0a.85.85,0,0,1-.639-.28.721.721,0,0,1,.106-1.073.889.889,0,0,1,1.177.1.722.722,0,0,1-.11,1.073.893.893,0,0,1-.534.178m75.446-.2h0a.807.807,0,0,1-.833-.717.784.784,0,0,1,.783-.8.8.8,0,0,1,.878.717.79.79,0,0,1-.783.8Zm-73.363-1.485h0a.877.877,0,0,1-.611-.244.724.724,0,0,1,.045-1.079.887.887,0,0,1,1.176.041.715.715,0,0,1-.044,1.078.851.851,0,0,1-.566.2m73.185-1.053h0a.81.81,0,0,1-.833-.712.789.789,0,0,1,.777-.808.808.808,0,0,1,.888.706.792.792,0,0,1-.772.814Zm-71.2-.727h0a.863.863,0,0,1-.583-.219.718.718,0,0,1-.016-1.078.887.887,0,0,1,1.176-.011.715.715,0,0,1,.017,1.079.862.862,0,0,1-.595.229m70.981-1.811h0a.8.8,0,0,1-.827-.7.785.785,0,0,1,.761-.823.815.815,0,0,1,.9.691.786.786,0,0,1-.755.829Zm-69.087-.046h0a.86.86,0,0,1-.555-.2.717.717,0,0,1-.061-1.079.887.887,0,0,1,1.171-.056.72.72,0,0,1,.067,1.079.877.877,0,0,1-.622.254m1.822-1.922h0a.884.884,0,0,1-.534-.179.722.722,0,0,1-.105-1.078h.005a.89.89,0,0,1,1.172-.092.727.727,0,0,1,.1,1.079.87.87,0,0,1-.638.27m66.994-.56h0a.815.815,0,0,1-.827-.681.783.783,0,0,1,.738-.839.821.821,0,0,1,.922.671h-.006a.774.774,0,0,1-.732.844c-.028,0-.061.005-.094.005M134.552,29.64h0a.893.893,0,0,1-.522-.168A.713.713,0,0,1,133.9,28.4a.883.883,0,0,1,1.171-.122.726.726,0,0,1,.128,1.073.862.862,0,0,1-.65.285m64.879-1.114h0a.817.817,0,0,1-.827-.656.776.776,0,0,1,.7-.864.824.824,0,0,1,.944.645.777.777,0,0,1-.706.865.907.907,0,0,1-.116.01m-63.163-.885h0a.9.9,0,0,1-.511-.158.724.724,0,0,1-.144-1.073.883.883,0,0,1,1.166-.133.725.725,0,0,1,.15,1.069.872.872,0,0,1-.661.295m62.707-1.627h0a.822.822,0,0,1-.822-.62.773.773,0,0,1,.666-.891.829.829,0,0,1,.972.61.768.768,0,0,1-.66.89,1.505,1.505,0,0,1-.156.011m-61.019-.392h0a.866.866,0,0,1-.5-.158.721.721,0,0,1-.161-1.068.883.883,0,0,1,1.166-.148.727.727,0,0,1,.161,1.073.885.885,0,0,1-.666.3m1.677-2.03h0a.88.88,0,0,1-.5-.153.718.718,0,0,1-.167-1.068v-.005a.885.885,0,0,1,1.166-.148.721.721,0,0,1,.16,1.068.851.851,0,0,1-.66.306m58.765-.066h0a.825.825,0,0,1-.811-.585.766.766,0,0,1,.622-.921.84.84,0,0,1,1,.565.763.763,0,0,1-.616.921.856.856,0,0,1-.195.02M141.3,21.563h0a.865.865,0,0,1-.5-.158.721.721,0,0,1-.161-1.068.884.884,0,0,1,1.166-.147.727.727,0,0,1,.161,1.073.869.869,0,0,1-.666.3m56.377-.493h0a.827.827,0,0,1-.8-.539.756.756,0,0,1,.555-.951.845.845,0,0,1,1.039.509.752.752,0,0,1-.555.951.976.976,0,0,1-.239.031M143,19.544h0a.9.9,0,0,1-.511-.158.725.725,0,0,1-.144-1.073.884.884,0,0,1,1.166-.133.72.72,0,0,1,.149,1.069.869.869,0,0,1-.66.295m53.784-.88h0A.836.836,0,0,1,196,18.17a.739.739,0,0,1,.483-.982.851.851,0,0,1,1.072.443.739.739,0,0,1-.483.982.825.825,0,0,1-.294.051M144.724,17.55h0a.867.867,0,0,1-.522-.168.72.72,0,0,1-.128-1.074.878.878,0,0,1,1.171-.111.713.713,0,0,1,.123,1.068.853.853,0,0,1-.645.285m50.985-1.231h0a.858.858,0,0,1-.761-.443.738.738,0,0,1,.411-1.013.865.865,0,0,1,1.1.372.74.74,0,0,1-.41,1.013.923.923,0,0,1-.345.071M146.5,15.6h0a.885.885,0,0,1-.544-.184.722.722,0,0,1-.083-1.078.881.881,0,0,1,1.171-.076.717.717,0,0,1,.083,1.078.857.857,0,0,1-.628.26m47.953-1.551h0a.85.85,0,0,1-.733-.392.732.732,0,0,1,.328-1.038.867.867,0,0,1,1.127.3h.005a.731.731,0,0,1-.327,1.038.936.936,0,0,1-.4.092m-46.088-.331h0a.886.886,0,0,1-.571-.209.719.719,0,0,1-.028-1.079.888.888,0,0,1,1.176-.03.719.719,0,0,1,.028,1.078.867.867,0,0,1-.606.24m1.961-1.806h0a.89.89,0,0,1-.6-.234.719.719,0,0,1,.023-1.079.882.882,0,0,1,1.177.021.714.714,0,0,1-.022,1.078.876.876,0,0,1-.578.214m42.684-.035h0a.859.859,0,0,1-.694-.342.725.725,0,0,1,.233-1.058.882.882,0,0,1,1.156.214.725.725,0,0,1-.234,1.058.9.9,0,0,1-.461.128m-40.635-1.684h0a.868.868,0,0,1-.627-.265.715.715,0,0,1,.077-1.073A.89.89,0,0,1,153,8.923.725.725,0,0,1,152.926,10a.913.913,0,0,1-.549.188m39-.377h0a.873.873,0,0,1-.655-.285.724.724,0,0,1,.134-1.073.884.884,0,0,1,1.171.122.714.714,0,0,1-.133,1.068.891.891,0,0,1-.517.168M154.514,8.562h0a.864.864,0,0,1-.655-.29A.726.726,0,0,1,154,7.2a.889.889,0,0,1,1.171.133.724.724,0,0,1-.139,1.073.9.9,0,0,1-.517.158M189.547,7.9h0a.85.85,0,0,1-.6-.234.72.72,0,0,1,.017-1.079.888.888,0,0,1,1.177.021.718.718,0,0,1-.017,1.078.873.873,0,0,1-.577.214m-32.8-.849h0a.855.855,0,0,1-.683-.326.724.724,0,0,1,.205-1.063.884.884,0,0,1,1.161.188.725.725,0,0,1-.206,1.063.887.887,0,0,1-.477.138m30.762-.88h0a.884.884,0,0,1-.533-.179.721.721,0,0,1-.106-1.073.89.89,0,0,1,1.177-.1.727.727,0,0,1,.106,1.079.889.889,0,0,1-.645.275m-28.436-.5h0a.841.841,0,0,1-.711-.371.73.73,0,0,1,.277-1.048h.006a.877.877,0,0,1,1.144.26.732.732,0,0,1-.283,1.048.888.888,0,0,1-.433.111m26.209-1.012h0a.9.9,0,0,1-.455-.122.726.726,0,0,1-.245-1.058.881.881,0,0,1,1.156-.219.719.719,0,0,1,.238,1.053.841.841,0,0,1-.694.346M161.5,4.431h0a.848.848,0,0,1-.744-.417.734.734,0,0,1,.367-1.028.863.863,0,0,1,1.116.336.727.727,0,0,1-.361,1.023.9.9,0,0,1-.377.086M182.867,3.4h0a.824.824,0,0,1-.362-.077v.005a.738.738,0,0,1-.388-1.022.87.87,0,0,1,1.111-.356.738.738,0,0,1,.388,1.022.842.842,0,0,1-.749.428M164.02,3.368h0a.839.839,0,0,1-.772-.473.747.747,0,0,1,.455-1,.859.859,0,0,1,1.088.417.739.739,0,0,1-.455.992.866.866,0,0,1-.316.061m2.616-.859h0a.827.827,0,0,1-.8-.539.755.755,0,0,1,.555-.951.845.845,0,0,1,1.038.5.755.755,0,0,1-.549.956,1.06,1.06,0,0,1-.244.031m13.659-.056h0a.938.938,0,0,1-.261-.036.753.753,0,0,1-.533-.961.853.853,0,0,1,1.055-.488.749.749,0,0,1,.528.961.823.823,0,0,1-.789.524m-10.972-.56h0a.821.821,0,0,1-.817-.615.775.775,0,0,1,.661-.9.829.829,0,0,1,.977.605.761.761,0,0,1-.66.89.81.81,0,0,1-.161.015m8.285-.066h0a.856.856,0,0,1-.155-.015.771.771,0,0,1-.666-.89.835.835,0,0,1,.971-.61.77.77,0,0,1,.667.89.816.816,0,0,1-.817.625m-5.536-.27h0a.808.808,0,0,1-.827-.706.788.788,0,0,1,.767-.819.812.812,0,0,1,.893.707.783.783,0,0,1-.766.813.3.3,0,0,1-.067.005m2.776-.03H174.8a.79.79,0,0,1-.783-.8A.8.8,0,0,1,174.893,0a.792.792,0,0,1,.788.8.8.8,0,0,1-.832.722" transform="translate(-6.105 0)" fill="#ffab32"/>
                    <path id="Trazado_877136" data-name="Trazado 877136" d="M48.435,172.639a.848.848,0,0,0,.589-.224.721.721,0,0,0,.183-.244.608.608,0,0,0,.044-.443.412.412,0,0,0-.044-.143,1.074,1.074,0,0,0-.078-.132.729.729,0,0,0-.105-.117.875.875,0,0,0-.75-.209.713.713,0,0,0-.155.046.685.685,0,0,0-.144.066,1.141,1.141,0,0,0-.128.1.736.736,0,0,0-.245.539.687.687,0,0,0,.067.3.706.706,0,0,0,.178.244.857.857,0,0,0,.589.224" transform="translate(-12.953 -28.235)" fill="#ffab32"/>
                  </g>
                </g>
              </g>
              <path id="Trazado_877137" data-name="Trazado 877137" d="M31.731,26.617c-7.908,3.346-16.3,6.161-22.85,11.417S-2.038,51.851.97,59.339c3.45,8.589,14.76,12.383,19.716,20.329,6.31,10.118.395,22.684-5.163,33.165-5.1,9.613-9.943,19.512-11.742,30.071s-.245,21.988,6.556,30.67,19.51,13.836,30.624,10.588c7.39-2.16,13.419-7.617,21.056-8.865,6.487-1.061,13.156,1.137,18.7,4.4s10.256,7.563,15.4,11.333c13.094,9.6,30.518,15.845,46.706,11.835,11.468-2.841,20.768-10.348,31.311-15.364,11.753-5.592,24.96-8.038,37.251-12.561S235.77,163,240.338,151.607c3.72-9.272,1.829-19.659-1.6-29.025s-8.338-18.3-10.77-27.919c-3.923-15.526-1.15-31.776-2.635-47.654s-9.161-33.219-25.457-38.8c-12.9-4.416-27.253-.187-40.04,4.5s-26.354,9.966-39.867,7.525c-8.262-1.493-15.562-5.748-22.72-9.813S82.591,2.32,74.237,1.336C64.9.236,57.317,3.654,52.194,10.55c-5.645,7.6-11.069,12.092-20.463,16.067" transform="translate(0 -0.187)" fill="#665476"/>
              <path id="Trazado_877138" data-name="Trazado 877138" d="M157.862,181.57c-10.443-10.589-25.957-15.943-41.376-17.977S85.4,162.477,69.818,162.4c-20.942-.1-41.811-2-62.633-4.137a65.2,65.2,0,0,0-2.793,10.567,45.876,45.876,0,0,0-.25,14.214,30.911,30.911,0,0,0,4.658.067c6.054-.361,11.921-2.079,17.955-2.657,9.2-.882,18.417.906,27.6,1.9,34.265,3.722,69.065-2.72,103.506-.79" transform="translate(-0.611 -26.115)" fill="#363fc9"/>
            </g>
          </g>
          <g id="Grupo_1103752" data-name="Grupo 1103752" transform="translate(3.091 146.613)">
            <g id="Grupo_1103751" data-name="Grupo 1103751" clip-path="url(#clip-path-4)">
              <rect id="Rectángulo_403432" data-name="Rectángulo 403432" width="239.322" height="60.077" transform="translate(-0.651)" fill="url(#linear-gradient)"/>
            </g>
          </g>
          <g id="Grupo_1103763" data-name="Grupo 1103763">
            <g id="Grupo_1103762" data-name="Grupo 1103762" clip-path="url(#clip-path)">
              <path id="Trazado_877140" data-name="Trazado 877140" d="M119.617,52.537s-7.741-6.591-9.243-5.482c-1.376,1.018.337,3.361.337,3.361s-1.946-1.764-2.963-.777c-1.129,1.1,1.213,3.162,1.213,3.162s-1.983-1.893-2.947-.714c-1.154,1.412,1.265,3.225,1.265,3.225s-2.821-.556-1.931,1.956c.764,2.157,12.855,9.6,12.855,9.6l7.517-11.693Z" transform="translate(-17.355 -7.744)" fill="#ffae9c"/>
              <path id="Trazado_877141" data-name="Trazado 877141" d="M110.314,61.948a.3.3,0,0,1-.164-.048c-2.641-1.693-4.806-3.621-5.148-4.586a1.83,1.83,0,0,1,.12-1.88,1.8,1.8,0,0,1,1.259-.526,3.481,3.481,0,0,1-1.03-1.822,1.6,1.6,0,0,1,.367-1.248,1.3,1.3,0,0,1,.96-.5,2.019,2.019,0,0,1,.767.122,2.424,2.424,0,0,1-.368-1.121,1.275,1.275,0,0,1,.4-.979,1.9,1.9,0,0,1,2.28,0,2.067,2.067,0,0,1,.376-2.612c1.615-1.192,8.3,4.367,9.62,5.494a.3.3,0,1,1-.394.463c-3.715-3.163-8.048-6.073-8.864-5.468-1.121.828.387,2.916.4,2.937a.3.3,0,0,1-.448.4c-.018-.016-1.759-1.55-2.548-.785a.671.671,0,0,0-.215.529,4.05,4.05,0,0,0,1.333,2.11c.053.047.085.078.093.085a.3.3,0,0,1-.411.448l-.092-.084a3.362,3.362,0,0,0-1.893-.939.705.705,0,0,0-.525.273,1,1,0,0,0-.235.79,3.833,3.833,0,0,0,1.446,2,.3.3,0,0,1-.24.542c-.319-.062-1.226-.133-1.58.279-.216.25-.219.681-.007,1.278.25.706,2.2,2.542,4.9,4.278a.3.3,0,0,1-.164.559" transform="translate(-17.295 -7.688)" fill="#060606"/>
              <path id="Trazado_877142" data-name="Trazado 877142" d="M120.759,59.9a.3.3,0,0,1-.21-.085,4.122,4.122,0,0,1-1.116-3.3,4.96,4.96,0,0,1,2.381-3.2.3.3,0,0,1,.3.528,4.43,4.43,0,0,0-2.079,2.747,3.57,3.57,0,0,0,.935,2.785.3.3,0,0,1-.212.522" transform="translate(-19.703 -8.792)" fill="#060606"/>
              <path id="Trazado_877143" data-name="Trazado 877143" d="M115.52,54.356a.3.3,0,0,1-.19-.066l-3.774-3.008a.3.3,0,1,1,.379-.475l3.774,3.008a.3.3,0,0,1-.19.542" transform="translate(-18.389 -8.373)" fill="#060606"/>
              <path id="Trazado_877144" data-name="Trazado 877144" d="M113.552,56.979a.3.3,0,0,1-.175-.056l-3.9-2.774a.3.3,0,1,1,.352-.5l3.9,2.773a.3.3,0,0,1-.176.552" transform="translate(-18.043 -8.844)" fill="#060606"/>
              <path id="Trazado_877145" data-name="Trazado 877145" d="M111.259,59.927a.3.3,0,0,1-.182-.061l-3.623-2.715a.3.3,0,0,1,.364-.487l3.624,2.716a.3.3,0,0,1-.183.547" transform="translate(-17.711 -9.34)" fill="#060606"/>
              <path id="Trazado_877146" data-name="Trazado 877146" d="M152.973,58.29,142.5,69.907,128.3,56.8,120.78,68.5l16.676,15.114A9.81,9.81,0,0,0,151.28,82.7l13.664-15.537Z" transform="translate(-19.93 -9.373)" fill="#ffae9c"/>
              <path id="Trazado_877147" data-name="Trazado 877147" d="M156.141,62.128l9.467,11.8,3.525-4.009Z" transform="translate(-25.765 -10.252)" fill="#ffae9c"/>
              <path id="Trazado_877148" data-name="Trazado 877148" d="M113.484,106.741l-37.407,9.394a10.441,10.441,0,0,1-12.666-7.581L44.929,34.972a10.441,10.441,0,0,1,7.582-12.665l37.407-9.394a10.441,10.441,0,0,1,12.665,7.581l18.482,73.582a10.441,10.441,0,0,1-7.581,12.665" transform="translate(-7.362 -2.079)" fill="#4a4ddc"/>
              <path id="Trazado_877149" data-name="Trazado 877149" d="M73.478,116.694a10.764,10.764,0,0,1-10.421-8.125L44.575,34.987a10.758,10.758,0,0,1,7.8-13.034l37.408-9.394a10.757,10.757,0,0,1,13.033,7.8L121.3,93.942a10.756,10.756,0,0,1-7.8,13.034L76.091,116.37a10.706,10.706,0,0,1-2.613.324M92.4,12.843a10.1,10.1,0,0,0-2.465.306L52.525,22.542a10.149,10.149,0,0,0-7.36,12.3L63.647,108.42a10.148,10.148,0,0,0,12.3,7.36l37.407-9.394a10.148,10.148,0,0,0,7.36-12.3L102.229,20.509A10.155,10.155,0,0,0,92.4,12.843m21.027,93.839h0Z" transform="translate(-7.302 -2.019)" fill="#060f11"/>
              <path id="Trazado_877150" data-name="Trazado 877150" d="M118.791,99.246a7.673,7.673,0,0,1-3.529,4.092,8.124,8.124,0,0,1-.769.363,7.794,7.794,0,0,1-1.012.329l-14.829,3.725-9.631,2.418-5.746,1.443-1.941.488-2.735.686a7.628,7.628,0,0,1-9.263-5.544l-.458-1.828-3.612-14.38L62.2,78.829,51.233,35.163a7.551,7.551,0,0,1,.225-4.44,7.4,7.4,0,0,1,.3-.712,7.634,7.634,0,0,1,2.361-2.855,7.192,7.192,0,0,1,.763-.5,7.654,7.654,0,0,1,1.9-.76l34.882-8.757a7.877,7.877,0,0,1,.864-.166,7.6,7.6,0,0,1,4.652.872,7.707,7.707,0,0,1,1.63,1.193,7.577,7.577,0,0,1,2.116,3.644l1.546,6.152,6.228,24.79,10.33,41.141a7.6,7.6,0,0,1-.233,4.477" transform="translate(-8.416 -2.791)" fill="#fff"/>
              <path id="Trazado_877151" data-name="Trazado 877151" d="M76.682,113.265a7.952,7.952,0,0,1-7.7-6.005L50.878,35.177a7.865,7.865,0,0,1,.233-4.618,7.362,7.362,0,0,1,.311-.742,7.956,7.956,0,0,1,2.452-2.967,7.47,7.47,0,0,1,.795-.515,7.952,7.952,0,0,1,1.973-.788l34.881-8.759a7.943,7.943,0,0,1,9.631,5.765l18.106,72.082a7.957,7.957,0,0,1-3.913,8.911,8.048,8.048,0,0,1-1.852.72l-34.881,8.76a7.946,7.946,0,0,1-1.933.24M51.468,35.029l18.105,72.082a7.338,7.338,0,0,0,8.893,5.324l34.881-8.76a7.334,7.334,0,0,0,5.324-8.893L100.565,22.7a7.337,7.337,0,0,0-8.893-5.323L56.791,26.136a7.333,7.333,0,0,0-1.823.729,6.833,6.833,0,0,0-.731.473,7.348,7.348,0,0,0-2.266,2.742,6.61,6.61,0,0,0-.287.685,7.263,7.263,0,0,0-.215,4.264" transform="translate(-8.356 -2.73)" fill="#060f11"/>
              <path id="Trazado_877152" data-name="Trazado 877152" d="M77.865,107.492a.3.3,0,0,1-.073-.6l37.121-9.322a.3.3,0,1,1,.148.59l-37.121,9.322a.329.329,0,0,1-.074.009" transform="translate(-12.798 -16.099)" fill="#060f11"/>
              <path id="Trazado_877153" data-name="Trazado 877153" d="M74.572,29.4a1.869,1.869,0,0,0,2.269,1.358L84.6,28.807a1.869,1.869,0,1,0-.91-3.625l-7.761,1.95A1.868,1.868,0,0,0,74.572,29.4" transform="translate(-12.296 -4.146)" fill="#060606"/>
              <path id="Trazado_877154" data-name="Trazado 877154" d="M157.223,192.106l-.2-9.9,13.231.695.23,9.136" transform="translate(-25.91 -30.066)" fill="#ffae9c"/>
              <path id="Trazado_877155" data-name="Trazado 877155" d="M145.346,210.07l22.93-3.108a1,1,0,0,0,.767-.554l-.674-12.43-13.26.069-1.2,4.785-7.585,7.542-1.983,2.2a1,1,0,0,0,1,1.491" transform="translate(-23.796 -32.008)" fill="#ffd400"/>
              <path id="Trazado_877156" data-name="Trazado 877156" d="M145.346,212.066l22.93-3.108a1,1,0,0,0,.767-.554l-.126-2.331-22.154,3.508c-.824.113-.828-.529-.415-1.251l-2,2.244a1,1,0,0,0,1,1.491" transform="translate(-23.796 -34.004)" fill="#060606"/>
              <path id="Trazado_877157" data-name="Trazado 877157" d="M159.548,201.189a.365.365,0,0,1-.1-.014l-3.788-1.118a.347.347,0,1,1,.2-.666l3.788,1.118a.347.347,0,0,1-.1.681" transform="translate(-25.644 -32.899)"/>
              <path id="Trazado_877158" data-name="Trazado 877158" d="M158.581,202.977a.337.337,0,0,1-.1-.016l-3.53-1.09a.347.347,0,1,1,.2-.664l3.531,1.091a.347.347,0,0,1-.1.679" transform="translate(-25.527 -33.199)"/>
              <path id="Trazado_877159" data-name="Trazado 877159" d="M167.543,207.462a.347.347,0,0,1-.311-.194,5.883,5.883,0,0,1-.18-4.731c1.2-2.41,4.094-2.478,5.284-2.4a.347.347,0,1,1-.048.693c-1.3-.09-3.64.05-4.614,2.012a5.272,5.272,0,0,0,.181,4.114.347.347,0,0,1-.311.5" transform="translate(-27.492 -33.022)"/>
              <path id="Trazado_877160" data-name="Trazado 877160" d="M170.376,187.892l-13.184,2.579-.049-2.32,13.033-.281Z" transform="translate(-25.93 -31)"/>
              <path id="Trazado_877161" data-name="Trazado 877161" d="M216.326,189.2l-2.738-9.516,12.966-2.727,2.569,8.77" transform="translate(-35.244 -29.2)" fill="#ffae9c"/>
              <path id="Trazado_877162" data-name="Trazado 877162" d="M210.222,208.925l21.362-8.893a1,1,0,0,0,.6-.732l-3.844-11.84-12.8,3.474.072,4.931-5.394,9.238-1.35,2.639a1,1,0,0,0,1.353,1.183" transform="translate(-34.46 -30.933)" fill="#ffd400"/>
              <path id="Trazado_877163" data-name="Trazado 877163" d="M210.222,210.826l21.362-8.893a1,1,0,0,0,.6-.732l-.721-2.221-20.51,9.081c-.767.321-.936-.3-.721-1.1l-1.361,2.684a1,1,0,0,0,1.353,1.183" transform="translate(-34.46 -32.834)" fill="#060606"/>
              <path id="Trazado_877164" data-name="Trazado 877164" d="M220.831,197.911h-.01l-3.948-.108a.347.347,0,0,1,.019-.695l3.948.108a.347.347,0,0,1-.009.695" transform="translate(-35.731 -32.525)"/>
              <path id="Trazado_877165" data-name="Trazado 877165" d="M220.357,199.889h-.014l-3.692-.148a.347.347,0,0,1-.333-.361.343.343,0,0,1,.361-.333l3.692.147a.347.347,0,0,1-.013.695" transform="translate(-35.694 -32.845)"/>
              <path id="Trazado_877166" data-name="Trazado 877166" d="M230.346,201.653a.345.345,0,0,1-.261-.119,5.884,5.884,0,0,1-1.39-4.526c.539-2.638,3.321-3.448,4.491-3.673a.347.347,0,1,1,.132.681c-1.284.248-3.5.984-3.943,3.13a5.251,5.251,0,0,0,1.232,3.929.347.347,0,0,1-.261.576" transform="translate(-37.723 -31.901)"/>
              <path id="Trazado_877167" data-name="Trazado 877167" d="M227.359,179.108l-11.468,7.978-.647-2.23Z" transform="translate(-35.517 -29.555)"/>
              <path id="Trazado_877168" data-name="Trazado 877168" d="M166.2,89.15l-13.677,26.094a29.922,29.922,0,0,0-3.394,15.146l2.985,42.018,21.736-.8-5.131-41.556L182.55,92.384Z" transform="translate(-24.604 -14.711)" fill="#4a4ddc"/>
              <path id="Trazado_877169" data-name="Trazado 877169" d="M164.59,102.431a.3.3,0,0,1-.024-.607,4.482,4.482,0,0,0,4.049-3.708.3.3,0,1,1,.6.1,5.089,5.089,0,0,1-4.6,4.212h-.025" transform="translate(-27.109 -16.148)" fill="#fff"/>
              <path id="Trazado_877170" data-name="Trazado 877170" d="M178.743,88.361l.811,33.774a26.352,26.352,0,0,0,3.9,13.172l21.855,36.971,19.717-9.94L200.4,121.358l-.958-30.936Z" transform="translate(-29.494 -14.58)" fill="#4a4ddc"/>
              <path id="Trazado_877171" data-name="Trazado 877171" d="M179.557,124.962a.3.3,0,0,1-.3-.3l-.5-20.705a.3.3,0,0,1,.3-.311.3.3,0,0,1,.311.3l.5,20.7a.3.3,0,0,1-.3.311h-.008" transform="translate(-29.496 -17.103)" fill="#fff"/>
              <path id="Trazado_877172" data-name="Trazado 877172" d="M176.885,49.18l-6.724-.2a14.776,14.776,0,0,0-5.73.926,10.187,10.187,0,0,0-4.909,4.135l-4.869,5.117,14.63,9.461,7.992-19.427" transform="translate(-25.519 -8.08)" fill="#ffd400"/>
              <path id="Trazado_877173" data-name="Trazado 877173" d="M179.308,49.409l12.916.468c4.568.165,8.171,3.944,7.139,11.965l-.324,28.213L163.705,86.6l5.2-29a10.236,10.236,0,0,1,10.4-8.192" transform="translate(-27.013 -8.152)" fill="#ffd400"/>
              <path id="Trazado_877174" data-name="Trazado 877174" d="M199.864,105.186a4.451,4.451,0,0,1-4.32-5.68.3.3,0,0,1,.584.168,3.847,3.847,0,0,0,4.283,4.864.3.3,0,1,1,.093.6,4.2,4.2,0,0,1-.64.048" transform="translate(-32.24 -16.383)" fill="#fff"/>
              <path id="Trazado_877175" data-name="Trazado 877175" d="M209.362,162.17a.3.3,0,0,1-.256-.139l-18.531-28.765a11.066,11.066,0,0,1-1.633-5.221l-.969-18.422a.3.3,0,0,1,.607-.032l.969,18.422a10.467,10.467,0,0,0,1.54,4.929l18.528,28.76a.3.3,0,0,1-.255.468" transform="translate(-31.017 -18.036)" fill="#fff"/>
              <path id="Trazado_877176" data-name="Trazado 877176" d="M162.421,166.51a.3.3,0,0,1-.3-.276l-2.707-30.152a15.163,15.163,0,0,1,1.082-7.113l5.257-12.733a.3.3,0,0,1,.562.232L161.056,129.2a14.551,14.551,0,0,0-1.039,6.827l2.707,30.152a.3.3,0,0,1-.276.33h-.028" transform="translate(-26.295 -19.149)" fill="#fff"/>
              <path id="Trazado_877177" data-name="Trazado 877177" d="M211.526,179.922a.3.3,0,0,1-.177-.551c2.878-2.051,10.4-7.416,10.647-7.614a.307.307,0,0,1,.421.032.3.3,0,0,1-.013.417c-.114.111-6.754,4.847-10.7,7.66a.3.3,0,0,1-.176.057" transform="translate(-34.854 -28.33)" fill="#fff"/>
              <path id="Trazado_877178" data-name="Trazado 877178" d="M168.561,182.45H157.624a.3.3,0,0,1,0-.608h10.937a.3.3,0,1,1,0,.608" transform="translate(-25.959 -30.006)" fill="#fff"/>
              <path id="Trazado_877179" data-name="Trazado 877179" d="M168.142,66.474a.3.3,0,0,1-.047,0,.3.3,0,0,1-.254-.347l1.175-7.646a.3.3,0,1,1,.6.092l-1.176,7.646a.3.3,0,0,1-.3.258" transform="translate(-27.695 -9.607)" fill="#fff"/>
              <path id="Trazado_877180" data-name="Trazado 877180" d="M184.532,53.683c-6.194,1.156-6.465-4.826-4.466-7.5l-.748-5.745,7.993-5.871,2.619,11.442s1.306,6.423-5.4,7.674" transform="translate(-29.53 -5.704)" fill="#ffae9c"/>
              <path id="Trazado_877181" data-name="Trazado 877181" d="M180.016,46.174c.877-.549,3.453-2.325,3.889-4.516l-4.314,1.221Z" transform="translate(-29.634 -6.874)" fill="#060606"/>
              <path id="Trazado_877182" data-name="Trazado 877182" d="M184.866,26.952a9.716,9.716,0,1,1-12.807-4.978,9.716,9.716,0,0,1,12.807,4.978" transform="translate(-27.434 -3.49)" fill="#ffae9c"/>
              <path id="Trazado_877183" data-name="Trazado 877183" d="M172.619,36.544a1.724,1.724,0,0,1-.571-.084,1.152,1.152,0,0,1-.749-.8,1.941,1.941,0,0,1,.493-1.579l1.415-1.962a.3.3,0,1,1,.493.355l-1.415,1.962a1.454,1.454,0,0,0-.4,1.074.545.545,0,0,0,.359.373,1.752,1.752,0,0,0,.653.04.3.3,0,0,1,.035.607c-.1.006-.207.012-.316.012" transform="translate(-28.26 -5.279)" fill="#060606"/>
              <path id="Trazado_877184" data-name="Trazado 877184" d="M175.823,39.779a2.765,2.765,0,0,1-.823-.132.3.3,0,1,1,.18-.58c1.2.372,2.136-.262,2.649-1.789a.3.3,0,1,1,.576.195c-.5,1.49-1.436,2.306-2.583,2.306" transform="translate(-28.841 -6.117)" fill="#060606"/>
              <path id="Trazado_877185" data-name="Trazado 877185" d="M177.246,32.153c-.139.5-.53.822-.874.728s-.516-.576-.382-1.07.529-.826.875-.728.514.572.381,1.07" transform="translate(-29.032 -5.126)" fill="#060606"/>
              <path id="Trazado_877186" data-name="Trazado 877186" d="M170.985,30.35c-.139.5-.53.822-.874.728s-.516-.576-.382-1.07.529-.826.875-.728.514.572.381,1.07" transform="translate(-27.999 -4.829)" fill="#060606"/>
              <path id="Trazado_877187" data-name="Trazado 877187" d="M165.713,20.535A5.525,5.525,0,0,0,167.4,23.18a4.594,4.594,0,0,0,3.147,1.1,3.944,3.944,0,0,0,2.93-1.522,3.66,3.66,0,0,0,2.759,2.492,4.091,4.091,0,0,0,3.772-1.167c.118,1.177.232,2.355.35,3.53.048.486.687,2.8,1.44,1.865.02-.024.632-.766,3.08-1.636,2.233-.793-.751,3.512-.223,3.734,6.4.807,8.763-6.409,5.267-6.669a7.459,7.459,0,0,0,.416-7.657c-1.27-2.54-3.9-3.116-5.841-3.16a6.885,6.885,0,0,0-3.763-2.858,13.56,13.56,0,0,0-5.24-.153l-2.369.241a15.5,15.5,0,0,0-1.688.235,7.769,7.769,0,0,0-4.977,3.588,6.9,6.9,0,0,0-.751,5.393" transform="translate(-27.302 -1.798)" fill="#060606"/>
              <path id="Trazado_877188" data-name="Trazado 877188" d="M190.94,30.881a2.667,2.667,0,1,1-2.966-2.33,2.667,2.667,0,0,1,2.966,2.33" transform="translate(-30.63 -4.708)" fill="#ffae9c"/>
              <path id="Trazado_877189" data-name="Trazado 877189" d="M127.393,55.006l-1.3-5.273a2.8,2.8,0,0,0-1.853-1.991l-5.213-1.693a2.843,2.843,0,1,0-1.676,5.432l5.841,1.708,1.768,5.7Z" transform="translate(-19.026 -7.576)" fill="#ffae9c"/>
              <path id="Trazado_877190" data-name="Trazado 877190" d="M123.13,53.434a.3.3,0,0,1-.085-.013L117.2,51.713a3.146,3.146,0,1,1,1.855-6.013l5.214,1.693a.3.3,0,0,1-.188.578l-5.213-1.692a2.538,2.538,0,1,0-1.5,4.85l5.842,1.709a.3.3,0,0,1-.085.6" transform="translate(-18.966 -7.515)" fill="#060f11"/>
              <path id="Trazado_877191" data-name="Trazado 877191" d="M214.894,61.454l5,17.288a14.091,14.091,0,0,1-.149,8.311L213.6,107.343l-12.261-4.371,5.927-20.05L201.44,63.8Z" transform="translate(-33.223 -10.141)" fill="#ffae9c"/>
              <path id="Trazado_877192" data-name="Trazado 877192" d="M196.334,49.931l7.353.13a11.936,11.936,0,0,1,10.755,7.223L217.5,64.8l-16.88,5.014Z" transform="translate(-32.397 -8.239)" fill="#ffd400"/>
              <path id="Trazado_877193" data-name="Trazado 877193" d="M217.02,68.366l-12.184,6.222-.727-2.386Z" transform="translate(-33.68 -11.281)" fill="#ffae9c"/>
              <path id="Trazado_877194" data-name="Trazado 877194" d="M201.014,72.2a.3.3,0,0,1-.3-.24L198.767,62.9a.3.3,0,0,1,.595-.128l1.951,9.06a.3.3,0,0,1-.233.362.342.342,0,0,1-.064.007" transform="translate(-32.797 -10.318)" fill="#fff"/>
              <path id="Trazado_877195" data-name="Trazado 877195" d="M204.836,67.806a.3.3,0,0,1-.088-.6l9.023-2.72a.3.3,0,1,1,.175.582l-9.023,2.72a.29.29,0,0,1-.088.013" transform="translate(-33.75 -10.639)" fill="#fff"/>
              <path id="Trazado_877196" data-name="Trazado 877196" d="M200.775,109.708l-6.93,7.828a1.8,1.8,0,0,0,1.34,3.312,1.746,1.746,0,0,0,.372-.137l3.4-2.371" transform="translate(-31.837 -18.103)" fill="#ffae9c"/>
              <path id="Trazado_877197" data-name="Trazado 877197" d="M194.688,122.693a2.118,2.118,0,0,1-1.83-1.054,2.109,2.109,0,0,1,.775-2.88.3.3,0,1,1,.3.528,1.5,1.5,0,0,0-.551,2.049,1.508,1.508,0,0,0,1.667.7,1.492,1.492,0,0,0,.29-.1l3.378-2.358a.3.3,0,1,1,.347.5l-3.394,2.37a.4.4,0,0,1-.036.021,1.989,1.989,0,0,1-.438.162,2.083,2.083,0,0,1-.51.063" transform="translate(-31.777 -19.59)" fill="#060606"/>
              <path id="Trazado_877198" data-name="Trazado 877198" d="M218.147,124.35l-5.784,27.462a6.406,6.406,0,0,1-7.589,4.948L160.2,147.372a6.41,6.41,0,0,1-4.953-7.59l5.784-27.462a6.411,6.411,0,0,1,7.594-4.947l44.574,9.389a6.406,6.406,0,0,1,4.948,7.589" transform="translate(-25.594 -17.695)" fill="#fff"/>
              <path id="Trazado_877199" data-name="Trazado 877199" d="M206.047,157.145a6.792,6.792,0,0,1-1.4-.146l-44.573-9.389a6.72,6.72,0,0,1-5.189-7.95l5.785-27.462a6.72,6.72,0,0,1,7.953-5.182L213.2,116.4a6.719,6.719,0,0,1,5.184,7.949L212.6,151.815a6.717,6.717,0,0,1-6.553,5.33M167.24,107.479a6.115,6.115,0,0,0-5.973,4.845l-5.784,27.462a6.112,6.112,0,0,0,4.718,7.23l44.574,9.388a6.1,6.1,0,0,0,7.229-4.714l5.784-27.462.3.063-.3-.063A6.108,6.108,0,0,0,213.076,117L168.5,107.611a6.091,6.091,0,0,0-1.261-.132" transform="translate(-25.534 -17.635)" fill="#060f11"/>
              <rect id="Rectángulo_403433" data-name="Rectángulo 403433" width="9.216" height="58.266" transform="matrix(0.206, -0.979, 0.979, 0.206, 133.353, 105.026)" fill="#ff452d"/>
              <path id="Trazado_877200" data-name="Trazado 877200" d="M216.661,136.252a.319.319,0,0,1-.063-.007l-57.015-12.009a.3.3,0,0,1-.235-.36l1.9-9.018a.3.3,0,0,1,.361-.235l57.015,12.009a.3.3,0,0,1,.235.36l-1.9,9.018a.3.3,0,0,1-.3.241M160.006,123.7l56.42,11.884,1.774-8.423-56.42-11.884Z" transform="translate(-26.293 -18.913)" fill="#060f11"/>
              <path id="Trazado_877201" data-name="Trazado 877201" d="M211.545,155.439l-10.493-2.21a.587.587,0,0,1-.453-.695l1.865-8.854a.587.587,0,0,1,.7-.453l10.493,2.21a.586.586,0,0,1,.453.695l-1.865,8.853a.586.586,0,0,1-.695.453" transform="translate(-33.099 -23.632)" fill="#b7bef8"/>
              <path id="Trazado_877202" data-name="Trazado 877202" d="M210.849,155.543a1.922,1.922,0,0,1-.4-.042l-8.47-1.784a1.927,1.927,0,0,1-1.487-2.28l1.44-6.831a1.926,1.926,0,0,1,2.279-1.486l8.471,1.784a1.923,1.923,0,0,1,1.486,2.279l-1.439,6.831a1.923,1.923,0,0,1-1.879,1.528m-.276-.636a1.317,1.317,0,0,0,1.56-1.017l1.439-6.831a1.315,1.315,0,0,0-1.017-1.559l-8.47-1.784a1.318,1.318,0,0,0-1.56,1.017l-1.439,6.831a1.318,1.318,0,0,0,1.016,1.559Z" transform="translate(-33.076 -23.609)" fill="#060f11"/>
              <rect id="Rectángulo_403434" data-name="Rectángulo 403434" width="4.875" height="16.824" transform="matrix(0.206, -0.979, 0.979, 0.206, 137.185, 117.654)" fill="#ffd400"/>
              <path id="Trazado_877203" data-name="Trazado 877203" d="M180.7,143.673a.319.319,0,0,1-.063-.007L164.172,140.2a.3.3,0,0,1-.235-.36l1-4.77a.3.3,0,0,1,.36-.235l16.463,3.468a.3.3,0,0,1,.192.131.307.307,0,0,1,.043.229l-1.005,4.771a.3.3,0,0,1-.3.241m-16.1-4.006,15.868,3.342.879-4.177-15.868-3.342Z" transform="translate(-27.05 -22.248)" fill="#060f11"/>
              <line id="Línea_790" data-name="Línea 790" x2="12.229" y2="2.576" transform="translate(136.579 120.53)" fill="#ff452d"/>
              <path id="Trazado_877204" data-name="Trazado 877204" d="M175.739,147.169a.268.268,0,0,1-.063-.008l-12.23-2.576a.3.3,0,1,1,.125-.594l12.23,2.575a.3.3,0,0,1-.063.6" transform="translate(-26.93 -23.759)" fill="#060f11"/>
              <line id="Línea_791" data-name="Línea 791" x2="4.233" y2="0.892" transform="translate(136.083 122.885)" fill="#ff452d"/>
              <path id="Trazado_877205" data-name="Trazado 877205" d="M167.149,148.3a.319.319,0,0,1-.063-.007l-4.233-.892a.3.3,0,1,1,.125-.594l4.233.892a.3.3,0,0,1-.063.6" transform="translate(-26.833 -24.224)" fill="#060f11"/>
              <path id="Trazado_877206" data-name="Trazado 877206" d="M199.888,118.341l-1.222,5.4a2.3,2.3,0,0,0,1.6,2.711,1.3,1.3,0,0,0,1.253-.662,1.581,1.581,0,0,0,2.963.822,1.826,1.826,0,0,0,3.6.274l.036-.16c-.057,2.318,2.983,1.7,3.057.343l2.218-13.225-11.684-4.132" transform="translate(-32.772 -18.103)" fill="#ffae9c"/>
              <path id="Trazado_877207" data-name="Trazado 877207" d="M198.617,125.687a.311.311,0,0,1-.068-.008.3.3,0,0,1-.229-.363l1.222-5.4a.3.3,0,1,1,.593.134l-1.222,5.4a.305.305,0,0,1-.3.237" transform="translate(-32.724 -19.749)" fill="#060606"/>
              <path id="Trazado_877208" data-name="Trazado 877208" d="M206.24,131.06a2.128,2.128,0,0,1-1.976-1.338,1.887,1.887,0,0,1-3.008-.813,1.6,1.6,0,0,1-1.079.293.424.424,0,0,1-.057-.011,2.6,2.6,0,0,1-1.812-3.071.3.3,0,0,1,.593.134,1.994,1.994,0,0,0,1.359,2.344.992.992,0,0,0,.932-.509.3.3,0,0,1,.569.159,1.277,1.277,0,0,0,2.393.663.307.307,0,0,1,.332-.149.3.3,0,0,1,.236.276,1.522,1.522,0,0,0,3,.227l.034-.158a.3.3,0,0,1,.6.072c-.026,1.042.635,1.223,1.031,1.239.636.024,1.389-.372,1.419-.92a.271.271,0,0,1,.005-.037l.832-4.657a.3.3,0,1,1,.6.107l-.828,4.64a1.9,1.9,0,0,1-2.048,1.475,1.621,1.621,0,0,1-1.405-.842,2.141,2.141,0,0,1-1.725.876" transform="translate(-32.712 -20.553)" fill="#060606"/>
              <path id="Trazado_877209" data-name="Trazado 877209" d="M209.939,129.525l-.041,0a.3.3,0,0,1-.261-.343l.547-4.066a.3.3,0,0,1,.6.081l-.548,4.066a.3.3,0,0,1-.3.264" transform="translate(-34.592 -20.602)" fill="#060606"/>
              <path id="Trazado_877210" data-name="Trazado 877210" d="M205.582,129.368a.327.327,0,0,1-.057-.005.3.3,0,0,1-.242-.356l.792-4.172a.3.3,0,0,1,.6.114l-.792,4.172a.3.3,0,0,1-.3.247" transform="translate(-33.873 -20.558)" fill="#060606"/>
              <path id="Trazado_877211" data-name="Trazado 877211" d="M202.034,128.49a.32.32,0,0,1-.063-.007.3.3,0,0,1-.235-.36l.766-3.635a.3.3,0,1,1,.594.125l-.765,3.635a.3.3,0,0,1-.3.241" transform="translate(-33.287 -20.502)" fill="#060606"/>
              <path id="Trazado_877212" data-name="Trazado 877212" d="M87.988,63.39a1.3,1.3,0,0,1-.35,2.381L70.825,70.008a1.3,1.3,0,1,1-.637-2.528L87,63.243a1.3,1.3,0,0,1,.987.147" transform="translate(-11.419 -10.429)" fill="#b7bef8"/>
              <path id="Trazado_877213" data-name="Trazado 877213" d="M82.076,73.388a1.3,1.3,0,0,1-.35,2.381l-8.977,2.262a1.3,1.3,0,1,1-.637-2.528l8.977-2.262a1.3,1.3,0,0,1,.987.147" transform="translate(-11.737 -12.079)" fill="#b7bef8"/>
              <path id="Trazado_877214" data-name="Trazado 877214" d="M109.828,67.34a1.3,1.3,0,0,1-.944,1.581l-9.065,2.285a1.3,1.3,0,0,1-.637-2.528l9.065-2.285a1.3,1.3,0,0,1,1.581.947" transform="translate(-16.204 -10.949)" fill="#b7bef8"/>
              <path id="Trazado_877215" data-name="Trazado 877215" d="M91.835,78.656a1.3,1.3,0,0,1-.35,2.381L74.672,85.274a1.3,1.3,0,1,1-.637-2.528l16.813-4.237a1.3,1.3,0,0,1,.987.147" transform="translate(-12.054 -12.948)" fill="#b7bef8"/>
              <path id="Trazado_877216" data-name="Trazado 877216" d="M112.636,74.973a1.3,1.3,0,0,1-.944,1.581L107.1,77.712a1.3,1.3,0,0,1-.637-2.528l4.594-1.157a1.3,1.3,0,0,1,1.581.947" transform="translate(-17.405 -12.209)" fill="#b7bef8"/>
              <path id="Trazado_877217" data-name="Trazado 877217" d="M88.911,87.752a1.3,1.3,0,0,1-.35,2.381L76.6,93.149a1.3,1.3,0,1,1-.637-2.528l11.965-3.015a1.3,1.3,0,0,1,.987.147" transform="translate(-12.371 -14.449)" fill="#b7bef8"/>
              <path id="Trazado_877218" data-name="Trazado 877218" d="M114.31,82.607a1.3,1.3,0,0,1-.944,1.581l-5.857,1.476a1.3,1.3,0,0,1-.637-2.528l5.857-1.475a1.3,1.3,0,0,1,1.581.947" transform="translate(-17.472 -13.468)" fill="#b7bef8"/>
              <path id="Trazado_877219" data-name="Trazado 877219" d="M95.682,93.923a1.3,1.3,0,0,1-.35,2.381l-16.813,4.237a1.3,1.3,0,1,1-.637-2.528l16.813-4.237a1.3,1.3,0,0,1,.987.147" transform="translate(-12.689 -15.467)" fill="#b7bef8"/>
              <path id="Trazado_877220" data-name="Trazado 877220" d="M78.013,107.641a.3.3,0,0,1-.073-.6l37.121-9.322a.3.3,0,1,1,.149.59l-37.122,9.322a.329.329,0,0,1-.074.009" transform="translate(-12.823 -16.123)" fill="#060f11"/>
              <path id="Trazado_877221" data-name="Trazado 877221" d="M108.937,59.855a1.3,1.3,0,0,1-.944,1.581L103.4,62.594a1.3,1.3,0,0,1-.637-2.528l4.594-1.157a1.3,1.3,0,0,1,1.581.947" transform="translate(-16.794 -9.714)" fill="#b7bef8"/>
              <path id="Trazado_877222" data-name="Trazado 877222" d="M116.483,90.24a1.3,1.3,0,0,1-.944,1.581l-4.594,1.158a1.3,1.3,0,0,1-.637-2.528l4.594-1.157a1.3,1.3,0,0,1,1.581.947" transform="translate(-18.04 -14.728)" fill="#b7bef8"/>
              <path id="Trazado_877223" data-name="Trazado 877223" d="M111.8,110.238a1.866,1.866,0,0,1,.058.774,1.7,1.7,0,0,1-.256.677,2.133,2.133,0,0,1-.536.556,3.142,3.142,0,0,1-.78.408l.179,1.042a.172.172,0,0,1,0,.072.135.135,0,0,1-.049.064.565.565,0,0,1-.114.065,1.481,1.481,0,0,1-.194.065,1.674,1.674,0,0,1-.248.053.537.537,0,0,1-.156,0,.147.147,0,0,1-.088-.05.179.179,0,0,1-.033-.094l-.165-.989c-.141.018-.276.028-.4.032a3.212,3.212,0,0,1-.355-.009,2.1,2.1,0,0,1-.284-.043.7.7,0,0,1-.192-.067.333.333,0,0,1-.123-.14,1.659,1.659,0,0,1-.11-.308c-.029-.108-.051-.2-.063-.268a.582.582,0,0,1-.011-.17.154.154,0,0,1,.038-.094.156.156,0,0,1,.077-.044.422.422,0,0,1,.2.021,3.09,3.09,0,0,0,.837.107,2.483,2.483,0,0,0,.638-.1,1.405,1.405,0,0,0,.769-.433.679.679,0,0,0,.119-.621.6.6,0,0,0-.219-.342,1.123,1.123,0,0,0-.382-.174,2.932,2.932,0,0,0-.493-.079c-.18-.013-.363-.029-.552-.048a4.689,4.689,0,0,1-.564-.1,1.974,1.974,0,0,1-.529-.205,1.525,1.525,0,0,1-.44-.387,1.791,1.791,0,0,1-.3-.64,1.757,1.757,0,0,1-.059-.679,1.555,1.555,0,0,1,.2-.6,1.782,1.782,0,0,1,.451-.5,2.835,2.835,0,0,1,.687-.385l-.167-.979a.16.16,0,0,1,0-.07.168.168,0,0,1,.048-.064.443.443,0,0,1,.113-.063,1.613,1.613,0,0,1,.2-.064,1.59,1.59,0,0,1,.248-.053.516.516,0,0,1,.16,0,.124.124,0,0,1,.085.052.279.279,0,0,1,.04.09l.152.922c.092-.011.19-.02.294-.025a2.887,2.887,0,0,1,.3,0c.094.008.18.018.259.031a.606.606,0,0,1,.169.05.392.392,0,0,1,.084.064.368.368,0,0,1,.06.09,1.012,1.012,0,0,1,.056.139c.018.054.038.117.058.19.027.1.047.179.059.244a.533.533,0,0,1,.013.151.147.147,0,0,1-.024.078.106.106,0,0,1-.052.033.46.46,0,0,1-.2-.013,3.32,3.32,0,0,0-.328-.053,3.423,3.423,0,0,0-.434-.023,1.909,1.909,0,0,0-.513.073,1.708,1.708,0,0,0-.409.164.811.811,0,0,0-.248.21.54.54,0,0,0-.105.249.66.66,0,0,0,.019.275.609.609,0,0,0,.221.342,1.079,1.079,0,0,0,.387.175,3.263,3.263,0,0,0,.5.077c.183.013.369.031.56.049a5.192,5.192,0,0,1,.57.092,1.915,1.915,0,0,1,.532.2,1.57,1.57,0,0,1,.441.378,1.712,1.712,0,0,1,.3.625" transform="translate(-17.656 -17.375)" fill="#ffd400"/>
              <path id="Trazado_877224" data-name="Trazado 877224" d="M117.691,108.618a1.867,1.867,0,0,1,.058.774,1.7,1.7,0,0,1-.256.678,2.144,2.144,0,0,1-.536.555,3.143,3.143,0,0,1-.78.408l.179,1.042a.176.176,0,0,1,0,.073.125.125,0,0,1-.049.063.527.527,0,0,1-.114.065,1.356,1.356,0,0,1-.194.066,1.653,1.653,0,0,1-.248.053.529.529,0,0,1-.155,0,.147.147,0,0,1-.089-.05.184.184,0,0,1-.033-.093l-.165-.99a3.7,3.7,0,0,1-.4.032,3.214,3.214,0,0,1-.355-.009,2.108,2.108,0,0,1-.284-.042.72.72,0,0,1-.192-.068.325.325,0,0,1-.123-.139,1.67,1.67,0,0,1-.11-.309c-.029-.107-.051-.2-.063-.268a.581.581,0,0,1-.011-.17.159.159,0,0,1,.038-.094.156.156,0,0,1,.077-.044.422.422,0,0,1,.2.021,2.971,2.971,0,0,0,.347.073,2.918,2.918,0,0,0,.491.033,2.478,2.478,0,0,0,.638-.1,1.41,1.41,0,0,0,.769-.433.68.68,0,0,0,.119-.622.609.609,0,0,0-.219-.342,1.106,1.106,0,0,0-.382-.173,2.849,2.849,0,0,0-.493-.079q-.269-.02-.552-.049a4.53,4.53,0,0,1-.564-.1,1.947,1.947,0,0,1-.529-.205,1.524,1.524,0,0,1-.44-.387,1.787,1.787,0,0,1-.3-.64,1.761,1.761,0,0,1-.059-.68,1.56,1.56,0,0,1,.2-.6,1.779,1.779,0,0,1,.451-.5,2.837,2.837,0,0,1,.687-.386l-.167-.979a.163.163,0,0,1,0-.07.16.16,0,0,1,.048-.063.442.442,0,0,1,.113-.064,1.77,1.77,0,0,1,.2-.064,1.693,1.693,0,0,1,.248-.053.488.488,0,0,1,.16,0,.124.124,0,0,1,.085.051.287.287,0,0,1,.04.09l.152.923c.092-.012.19-.02.294-.025a2.591,2.591,0,0,1,.555.034.578.578,0,0,1,.169.05.39.39,0,0,1,.084.063.385.385,0,0,1,.06.09,1.1,1.1,0,0,1,.056.139c.018.054.038.117.058.19.027.1.047.18.059.244a.537.537,0,0,1,.013.152.144.144,0,0,1-.024.078.1.1,0,0,1-.052.033.448.448,0,0,1-.2-.013c-.09-.02-.2-.037-.328-.053a3.424,3.424,0,0,0-.434-.023,1.912,1.912,0,0,0-.513.074,1.709,1.709,0,0,0-.409.163.835.835,0,0,0-.248.21.54.54,0,0,0-.105.249.658.658,0,0,0,.019.275.608.608,0,0,0,.222.343,1.053,1.053,0,0,0,.387.174,3.164,3.164,0,0,0,.5.077c.183.014.369.031.56.05a5,5,0,0,1,.57.091,1.891,1.891,0,0,1,.532.2,1.543,1.543,0,0,1,.441.378,1.7,1.7,0,0,1,.3.625" transform="translate(-18.628 -17.108)" fill="#ffd400"/>
              <path id="Trazado_877225" data-name="Trazado 877225" d="M123.587,107a1.869,1.869,0,0,1,.058.775,1.7,1.7,0,0,1-.256.677,2.133,2.133,0,0,1-.536.556,3.17,3.17,0,0,1-.78.408l.18,1.042a.187.187,0,0,1,0,.072.13.13,0,0,1-.049.064.568.568,0,0,1-.114.064,1.356,1.356,0,0,1-.194.066,1.765,1.765,0,0,1-.248.053.477.477,0,0,1-.155,0,.142.142,0,0,1-.089-.049.187.187,0,0,1-.033-.094l-.165-.989a3.9,3.9,0,0,1-.4.031,3.22,3.22,0,0,1-.355-.009,2.109,2.109,0,0,1-.284-.042.692.692,0,0,1-.192-.068.331.331,0,0,1-.123-.139,1.648,1.648,0,0,1-.11-.309c-.029-.107-.051-.2-.063-.268a.576.576,0,0,1-.011-.17.143.143,0,0,1,.114-.139.4.4,0,0,1,.2.021,3.09,3.09,0,0,0,.837.107,2.526,2.526,0,0,0,.639-.1,1.411,1.411,0,0,0,.768-.433.68.68,0,0,0,.119-.622.606.606,0,0,0-.219-.342,1.1,1.1,0,0,0-.382-.173,2.851,2.851,0,0,0-.493-.079c-.18-.013-.363-.03-.552-.048a4.687,4.687,0,0,1-.564-.1,1.949,1.949,0,0,1-.529-.206,1.512,1.512,0,0,1-.44-.387,1.787,1.787,0,0,1-.3-.64,1.761,1.761,0,0,1-.059-.68,1.552,1.552,0,0,1,.2-.6,1.771,1.771,0,0,1,.451-.5,2.808,2.808,0,0,1,.687-.385l-.167-.979a.16.16,0,0,1,0-.07.168.168,0,0,1,.048-.064.458.458,0,0,1,.113-.064,1.63,1.63,0,0,1,.2-.063,1.709,1.709,0,0,1,.248-.053.6.6,0,0,1,.16,0,.127.127,0,0,1,.085.051.288.288,0,0,1,.04.09l.152.923c.092-.011.19-.02.294-.025a2.67,2.67,0,0,1,.3,0c.094.008.18.017.259.031a.578.578,0,0,1,.169.05.315.315,0,0,1,.144.154,1,1,0,0,1,.056.138c.018.055.038.118.058.19.027.1.047.18.059.245a.532.532,0,0,1,.013.151.141.141,0,0,1-.024.078.1.1,0,0,1-.052.033.435.435,0,0,1-.2-.013q-.135-.029-.328-.053a3.435,3.435,0,0,0-.434-.022,1.909,1.909,0,0,0-.513.073,1.709,1.709,0,0,0-.409.163.825.825,0,0,0-.248.211.542.542,0,0,0-.105.249.66.66,0,0,0,.019.275.612.612,0,0,0,.222.342,1.054,1.054,0,0,0,.387.174,3.164,3.164,0,0,0,.5.077c.183.014.369.031.56.05a5,5,0,0,1,.57.092,1.864,1.864,0,0,1,.532.2,1.556,1.556,0,0,1,.441.378,1.707,1.707,0,0,1,.3.625" transform="translate(-19.601 -16.841)" fill="#ffd400"/>
              <path id="Trazado_877226" data-name="Trazado 877226" d="M101.757,47.7l-35.4,9.123a1.561,1.561,0,0,1-1.9-1.122L61.317,43.508a1.561,1.561,0,0,1,1.122-1.9l35.4-9.123a1.561,1.561,0,0,1,1.9,1.122L102.879,45.8a1.561,1.561,0,0,1-1.122,1.9" transform="translate(-10.11 -5.352)" fill="#00c09a"/>
              <path id="Trazado_877227" data-name="Trazado 877227" d="M84.045,49.773a1.038,1.038,0,0,1-.608-.2l-1.725-1.241a1.042,1.042,0,0,1,1.217-1.692l.9.647L87.005,43.1a1.042,1.042,0,1,1,1.661,1.258l-3.789,5a1.042,1.042,0,0,1-.832.412" transform="translate(-13.412 -7.044)" fill="#fff"/>
              <path id="Trazado_877228" data-name="Trazado 877228" d="M76.1,116.6s6.22,21.752-8.779,35.639C45.807,150.732,38.833,126.6,38.833,126.6c12.309-10.177,15.8-18.528,15.8-18.528S61.969,113.72,76.1,116.6" transform="translate(-6.408 -17.832)" fill="#fff"/>
              <path id="Trazado_877229" data-name="Trazado 877229" d="M67.265,152.482h-.022C56.01,151.7,48.785,144.7,44.7,138.968a46.031,46.031,0,0,1-6.221-12.349.3.3,0,0,1,.1-.319c12.1-10,15.677-18.329,15.711-18.412a.3.3,0,0,1,.466-.124c.073.057,7.456,5.645,21.347,8.475a.3.3,0,0,1,.231.215,44.281,44.281,0,0,1,1.247,12.709c-.294,6.6-2.287,15.993-10.111,23.237a.307.307,0,0,1-.206.081M39.124,126.64a45.951,45.951,0,0,0,6.085,11.99c3.99,5.6,11.031,12.421,21.946,13.235C81.013,138.922,76.335,118.89,75.8,116.8c-12.344-2.547-19.574-7.256-21.105-8.33-.81,1.679-4.855,9.271-15.569,18.171" transform="translate(-6.348 -17.772)" fill="#060f11"/>
              <path id="Trazado_877230" data-name="Trazado 877230" d="M74.02,120.454a43.134,43.134,0,0,1,.714,8.07c-.006.553-.019,1.122-.048,1.7q-.075,1.468-.25,2.868a32.253,32.253,0,0,1-1.635,6.95q-.327.9-.7,1.764a26.466,26.466,0,0,1-2.826,4.937,26.165,26.165,0,0,1-2.408,2.87c-.3-.04-.608-.083-.909-.139-6.748-1.127-12.532-4.986-17.226-11.5a43.61,43.61,0,0,1-5.057-9.33q1.735-1.514,3.226-2.963c1.1-1.064,2.111-2.1,3.029-3.092,1.349-1.46,2.507-2.831,3.5-4.094.369-.466.711-.918,1.035-1.354.9-1.223,1.635-2.315,2.219-3.248,1.084.615,2.429,1.318,4.027,2.056,1.668.767,3.615,1.57,5.835,2.343a73.419,73.419,0,0,0,7.48,2.159" transform="translate(-7.206 -18.794)" fill="#ff73ed"/>
              <path id="Trazado_877231" data-name="Trazado 877231" d="M63.367,139.361a1.218,1.218,0,0,1-.62-.17l-3.339-1.978a1.215,1.215,0,1,1,1.238-2.092l2.2,1.3,4.117-8.506a1.216,1.216,0,1,1,2.189,1.059l-4.693,9.7a1.212,1.212,0,0,1-.743.635,1.2,1.2,0,0,1-.351.052" transform="translate(-9.704 -20.995)" fill="#fff"/>
              <g id="Grupo_1103755" data-name="Grupo 1103755" transform="translate(39.69 103.798)" opacity="0.3">
                <g id="Grupo_1103754" data-name="Grupo 1103754">
                  <g id="Grupo_1103753" data-name="Grupo 1103753" clip-path="url(#clip-path-6)">
                    <path id="Trazado_877232" data-name="Trazado 877232" d="M69.908,148.464a26.252,26.252,0,0,1-2.407,2.87c-.3-.04-.609-.083-.91-.139L47.534,127.4c1.1-1.065,2.111-2.1,3.029-3.093Z" transform="translate(-47.534 -124.311)" fill="#fff"/>
                  </g>
                </g>
              </g>
              <g id="Grupo_1103758" data-name="Grupo 1103758" transform="translate(46.219 98.35)" opacity="0.3">
                <g id="Grupo_1103757" data-name="Grupo 1103757">
                  <g id="Grupo_1103756" data-name="Grupo 1103756" clip-path="url(#clip-path-7)">
                    <path id="Trazado_877233" data-name="Trazado 877233" d="M74.729,140.686c-.219.6-.452,1.189-.7,1.764L55.353,119.14c.369-.465.711-.918,1.035-1.354Z" transform="translate(-55.353 -117.786)" fill="#fff"/>
                  </g>
                </g>
              </g>
              <g id="Grupo_1103761" data-name="Grupo 1103761" transform="translate(53.5 97.159)" opacity="0.3">
                <g id="Grupo_1103760" data-name="Grupo 1103760">
                  <g id="Grupo_1103759" data-name="Grupo 1103759" clip-path="url(#clip-path-8)">
                    <path id="Trazado_877234" data-name="Trazado 877234" d="M78.1,128.93c-.006.553-.019,1.122-.048,1.7q-.075,1.468-.25,2.868l-13.73-17.142c1.667.768,3.614,1.571,5.834,2.344Z" transform="translate(-64.072 -116.359)" fill="#fff"/>
                  </g>
                </g>
              </g>
              <path id="Trazado_877235" data-name="Trazado 877235" d="M146.253,3.288l4.535,21.432A2.94,2.94,0,0,1,148.52,28.2L127.2,32.716a2.94,2.94,0,0,1-3.484-2.268L119.18,9.016a2.94,2.94,0,0,1,2.268-3.484L142.769,1.02a2.941,2.941,0,0,1,3.484,2.268" transform="translate(-19.655 -0.158)" fill="#b7bef8"/>
              <path id="Trazado_877236" data-name="Trazado 877236" d="M128.886,12.563l.23,1.084a.307.307,0,0,1-.239.363l-1.085.23a.309.309,0,0,1-.366-.236l-.23-1.085a.309.309,0,0,1,.239-.365l1.085-.23a.309.309,0,0,1,.367.238" transform="translate(-20.987 -2.033)" fill="#fff"/>
              <path id="Trazado_877237" data-name="Trazado 877237" d="M147.938,11.114l-1.131-5.336a.95.95,0,0,0-1.127-.736l-5.332,1.131a.958.958,0,0,0-.74,1.128l1.131,5.336a.954.954,0,0,0,1.131.736l5.332-1.131a.949.949,0,0,0,.736-1.127m-2.118-.018-3.152.666a.656.656,0,0,1-.78-.508L141.217,8.1a.659.659,0,0,1,.512-.78l3.152-.667a.66.66,0,0,1,.78.509l.666,3.152a.658.658,0,0,1-.508.783" transform="translate(-23.033 -0.829)" fill="#fff"/>
              <path id="Trazado_877238" data-name="Trazado 877238" d="M128.886,12.563l.23,1.084a.307.307,0,0,1-.239.363l-1.085.23a.309.309,0,0,1-.366-.236l-.23-1.085a.309.309,0,0,1,.239-.365l1.085-.23a.309.309,0,0,1,.367.238" transform="translate(-20.987 -2.033)" fill="#fff"/>
              <path id="Trazado_877239" data-name="Trazado 877239" d="M132.374,29.05l.23,1.084a.309.309,0,0,1-.239.365l-1.085.23a.311.311,0,0,1-.367-.236l-.23-1.086a.309.309,0,0,1,.239-.363l1.085-.23a.309.309,0,0,1,.366.237" transform="translate(-21.563 -4.753)" fill="#fff"/>
              <path id="Trazado_877240" data-name="Trazado 877240" d="M131.684,14.554l-1.131-5.336a.951.951,0,0,0-1.127-.736L124.09,9.613a.957.957,0,0,0-.736,1.128l1.131,5.336a.955.955,0,0,0,1.131.736l5.332-1.131a.951.951,0,0,0,.736-1.127m-2.118-.018-3.155.666a.656.656,0,0,1-.78-.508l-.667-3.155a.66.66,0,0,1,.509-.78l3.155-.667a.66.66,0,0,1,.78.509l.666,3.152a.658.658,0,0,1-.508.783" transform="translate(-20.351 -1.396)" fill="#fff"/>
              <path id="Trazado_877241" data-name="Trazado 877241" d="M135.171,31.039l-1.127-5.332a.956.956,0,0,0-1.131-.736L127.58,26.1a.953.953,0,0,0-.736,1.131l1.126,5.332a.958.958,0,0,0,1.131.736l5.336-1.131a.95.95,0,0,0,.732-1.131m-2.114-.015-3.155.666a.659.659,0,0,1-.783-.511l-.667-3.149a.661.661,0,0,1,.508-.783l3.155-.666a.662.662,0,0,1,.783.508l.666,3.152a.66.66,0,0,1-.508.783" transform="translate(-20.927 -4.117)" fill="#fff"/>
              <path id="Trazado_877242" data-name="Trazado 877242" d="M132.374,29.05l.23,1.084a.309.309,0,0,1-.239.365l-1.085.23a.311.311,0,0,1-.367-.236l-.23-1.086a.309.309,0,0,1,.239-.363l1.085-.23a.309.309,0,0,1,.366.237" transform="translate(-21.563 -4.753)" fill="#fff"/>
              <path id="Trazado_877243" data-name="Trazado 877243" d="M128.885,12.563l.231,1.081a.307.307,0,0,1-.241.366l-1.085.231a.309.309,0,0,1-.365-.237l-.228-1.085a.309.309,0,0,1,.237-.365l1.085-.229a.309.309,0,0,1,.365.238" transform="translate(-20.988 -2.033)" fill="#fff"/>
              <path id="Trazado_877244" data-name="Trazado 877244" d="M132.6,30.133a.309.309,0,0,1-.238.365l-1.085.232a.311.311,0,0,1-.368-.238l-.229-1.085a.31.31,0,0,1,.238-.366l1.085-.228a.312.312,0,0,1,.369.235Z" transform="translate(-21.563 -4.753)" fill="#fff"/>
              <rect id="Rectángulo_403438" data-name="Rectángulo 403438" width="2.219" height="4.541" transform="translate(111.61 9.429) rotate(-11.951)" fill="#fff"/>
              <rect id="Rectángulo_403439" data-name="Rectángulo 403439" width="2.219" height="2.27" transform="translate(113.311 6.749) rotate(-11.951)" fill="#fff"/>
              <rect id="Rectángulo_403440" data-name="Rectángulo 403440" width="2.219" height="2.27" transform="translate(104.88 16.774) rotate(-11.951)" fill="#fff"/>
              <rect id="Rectángulo_403441" data-name="Rectángulo 403441" width="7.238" height="2.271" transform="translate(109.325 15.834) rotate(-11.951)" fill="#fff"/>
              <rect id="Rectángulo_403442" data-name="Rectángulo 403442" width="2.308" height="2.27" transform="translate(120.718 13.424) rotate(-11.951)" fill="#fff"/>
              <rect id="Rectángulo_403443" data-name="Rectángulo 403443" width="2.308" height="2.27" transform="translate(118.591 24.658) rotate(-11.951)" fill="#fff"/>
              <rect id="Rectángulo_403444" data-name="Rectángulo 403444" width="2.308" height="6.107" transform="translate(115.089 19.256) rotate(-11.946)" fill="#fff"/>
              <rect id="Rectángulo_403445" data-name="Rectángulo 403445" width="2.219" height="2.27" transform="translate(107.521 18.536) rotate(-11.951)" fill="#fff"/>
              <rect id="Rectángulo_403446" data-name="Rectángulo 403446" width="2.219" height="2.27" transform="translate(112.448 17.494) rotate(-11.951)" fill="#fff"/>
              <rect id="Rectángulo_403447" data-name="Rectángulo 403447" width="4.407" height="2.271" transform="translate(116.876 16.557) rotate(-11.951)" fill="#fff"/>
              <rect id="Rectángulo_403448" data-name="Rectángulo 403448" width="4.407" height="2.271" transform="translate(120.034 20.333) rotate(-11.951)" fill="#fff"/>
              <rect id="Rectángulo_403449" data-name="Rectángulo 403449" width="4.407" height="2.271" transform="translate(123.233 23.676) rotate(-11.951)" fill="#fff"/>
              <rect id="Rectángulo_403450" data-name="Rectángulo 403450" width="2.438" height="4.346" transform="translate(123.446 15.167) rotate(-11.942)" fill="#fff"/>
              <rect id="Rectángulo_403451" data-name="Rectángulo 403451" width="2.438" height="4.346" transform="translate(122.345 21.742) rotate(-11.942)" fill="#fff"/>
              <rect id="Rectángulo_403452" data-name="Rectángulo 403452" width="4.541" height="2.219" transform="translate(112.091 11.702) rotate(-11.951)" fill="#fff"/>
              <path id="Trazado_877245" data-name="Trazado 877245" d="M131.927,140.343c2.827,4.744,2.754,10.629-.725,12.913-3.867,2.539-9.708-.64-12.345-6.7-2.363-5.429-.9-10.53,2.734-11.776,3.33-1.141,7.759,1.237,10.336,5.563" transform="translate(-19.423 -22.193)" fill="#ffd400"/>
              <path id="Trazado_877246" data-name="Trazado 877246" d="M132.833,140.541c2.827,4.743,2.754,10.629-.726,12.913-2.543,1.669-6.028.831-8.91-1.822,2.319,1.268,4.764,1.435,6.7.245,3.571-2.194,3.805-7.939,1.08-12.6a13.417,13.417,0,0,0-3.015-3.584,13.1,13.1,0,0,1,4.871,4.846" transform="translate(-20.329 -22.391)" fill="#f7bd06"/>
              <path id="Trazado_877247" data-name="Trazado 877247" d="M128.151,154.384a7.158,7.158,0,0,1-2.045-.312c-3.079-.918-5.987-3.773-7.588-7.452a11.326,11.326,0,0,1-.463-8.939,5.708,5.708,0,0,1,3.376-3.246c3.457-1.185,8.054,1.263,10.7,5.695,3.019,5.067,2.652,11.044-.819,13.323a5.669,5.669,0,0,1-3.157.932m-4.859-19.643a4.95,4.95,0,0,0-4.681,3.184,10.729,10.729,0,0,0,.463,8.453c1.532,3.519,4.293,6.244,7.2,7.112a5.467,5.467,0,0,0,4.7-.545c3.2-2.1,3.486-7.713.63-12.5-2.082-3.5-5.413-5.7-8.312-5.7" transform="translate(-19.362 -22.134)" fill="#060606"/>
              <path id="Trazado_877248" data-name="Trazado 877248" d="M121.19,134.837a7.574,7.574,0,0,0-5.91,7.434,14.83,14.83,0,0,0,1.2,5.533c2.607,6.194,8.539,9.426,12.53,6.806l1.789-1.3c-3.867,2.539-9.708-.64-12.345-6.7-2.363-5.429-.9-10.531,2.734-11.777" transform="translate(-19.022 -22.249)" fill="#ffd400"/>
              <path id="Trazado_877249" data-name="Trazado 877249" d="M125.853,155.771a7.287,7.287,0,0,1-2.124-.331c-3.11-.948-6.017-3.852-7.585-7.579a15.175,15.175,0,0,1-1.227-5.646,7.914,7.914,0,0,1,6.146-7.734.3.3,0,0,1,.166.584,5.118,5.118,0,0,0-3.017,2.916,10.727,10.727,0,0,0,.463,8.452c1.532,3.519,4.293,6.245,7.205,7.112a5.465,5.465,0,0,0,4.7-.545.3.3,0,0,1,.345.5l-1.788,1.3a5.887,5.887,0,0,1-3.28.976M118.5,136.313a7.259,7.259,0,0,0-2.972,5.894,14.56,14.56,0,0,0,1.179,5.417c1.5,3.565,4.26,6.337,7.2,7.234a5.659,5.659,0,0,0,4.764-.489,6.728,6.728,0,0,1-2.963-.243c-3.079-.917-5.987-3.772-7.588-7.451a11.331,11.331,0,0,1-.463-8.94,6.7,6.7,0,0,1,.841-1.421" transform="translate(-18.962 -22.189)" fill="#060f11"/>
              <path id="Trazado_877250" data-name="Trazado 877250" d="M116.5,139.151a.3.3,0,0,1-.094-.594l1.759-.7a.3.3,0,0,1,.225.564l-1.778.707a.288.288,0,0,1-.092.021H116.5" transform="translate(-19.173 -22.744)"/>
              <path id="Trazado_877251" data-name="Trazado 877251" d="M115.226,143.388a.3.3,0,0,1-.119-.584l2.031-.859a.3.3,0,0,1,.236.559l-2.03.859a.3.3,0,0,1-.119.024" transform="translate(-18.963 -23.418)"/>
              <path id="Trazado_877252" data-name="Trazado 877252" d="M115.617,147.163a.3.3,0,0,1-.122-.583l2.031-.886a.3.3,0,0,1,.244.557l-2.032.887a.308.308,0,0,1-.121.025" transform="translate(-19.028 -24.037)"/>
              <path id="Trazado_877253" data-name="Trazado 877253" d="M116.816,150.778a.3.3,0,0,1-.125-.581l2.092-.944a.3.3,0,0,1,.25.554l-2.093.944a.3.3,0,0,1-.124.027" transform="translate(-19.226 -24.624)"/>
              <path id="Trazado_877254" data-name="Trazado 877254" d="M118.792,154.175a.3.3,0,0,1-.131-.579l2.152-1.026a.3.3,0,0,1,.262.549l-2.153,1.026a.283.283,0,0,1-.129.03" transform="translate(-19.552 -25.171)"/>
              <path id="Trazado_877255" data-name="Trazado 877255" d="M121.752,157.242a.3.3,0,0,1-.136-.575l2.219-1.112a.3.3,0,1,1,.272.544l-2.219,1.111a.3.3,0,0,1-.136.033" transform="translate(-20.04 -25.663)"/>
              <path id="Trazado_877256" data-name="Trazado 877256" d="M126.681,159.5a.3.3,0,0,1-.151-.568l2.244-1.287a.3.3,0,0,1,.3.529l-2.244,1.287a.321.321,0,0,1-.151.039" transform="translate(-20.853 -26.006)"/>
              <path id="Trazado_877257" data-name="Trazado 877257" d="M129.9,145.766a3.122,3.122,0,0,1,.287,1.065,1.9,1.9,0,0,1-.138.889,1.76,1.76,0,0,1-.529.685,2.647,2.647,0,0,1-.881.45l.516,1.446a.28.28,0,0,1,.017.1.119.119,0,0,1-.044.081.455.455,0,0,1-.129.073,1.331,1.331,0,0,1-.228.063,1.793,1.793,0,0,1-.3.038.648.648,0,0,1-.2-.023.251.251,0,0,1-.125-.08.338.338,0,0,1-.068-.131l-.484-1.374a4.206,4.206,0,0,1-.506-.012,3.934,3.934,0,0,1-.454-.062,3.1,3.1,0,0,1-.373-.1,1.191,1.191,0,0,1-.263-.119.691.691,0,0,1-.195-.207,3.258,3.258,0,0,1-.226-.437c-.067-.15-.119-.276-.154-.374a.961.961,0,0,1-.062-.235.176.176,0,0,1,.023-.124.133.133,0,0,1,.085-.049.563.563,0,0,1,.261.057q.187.071.462.147a3.994,3.994,0,0,0,.635.113,2.624,2.624,0,0,0,.786-.048,1.173,1.173,0,0,0,.858-.486.9.9,0,0,0-.019-.832,1.264,1.264,0,0,0-.373-.5,1.963,1.963,0,0,0-.534-.289,4.1,4.1,0,0,0-.65-.175q-.348-.065-.716-.144a6.418,6.418,0,0,1-.745-.207,3.364,3.364,0,0,1-.731-.354,3.082,3.082,0,0,1-.667-.588,3.677,3.677,0,0,1-.559-.913,3.007,3.007,0,0,1-.264-.936,1.825,1.825,0,0,1,.089-.8,1.511,1.511,0,0,1,.435-.625,2.348,2.348,0,0,1,.768-.432l-.483-1.359a.246.246,0,0,1-.014-.1.132.132,0,0,1,.044-.081.334.334,0,0,1,.125-.072,1.576,1.576,0,0,1,.232-.061,1.864,1.864,0,0,1,.3-.038.679.679,0,0,1,.2.021.243.243,0,0,1,.123.081.628.628,0,0,1,.076.129l.448,1.279c.114,0,.236,0,.367.007a3.17,3.17,0,0,1,.378.044,3.379,3.379,0,0,1,.338.078.922.922,0,0,1,.23.092.7.7,0,0,1,.124.1.779.779,0,0,1,.1.131c.034.054.07.119.109.2s.081.166.126.268c.062.137.109.251.144.341a.987.987,0,0,1,.059.209.18.18,0,0,1-.01.1.081.081,0,0,1-.058.037.6.6,0,0,1-.255-.043c-.12-.039-.265-.078-.432-.117a4.625,4.625,0,0,0-.56-.091,2.1,2.1,0,0,0-.632.031,1.508,1.508,0,0,0-.476.167.67.67,0,0,0-.257.254.6.6,0,0,0-.066.325,1.133,1.133,0,0,0,.1.378,1.28,1.28,0,0,0,.377.5,1.89,1.89,0,0,0,.541.291,4.507,4.507,0,0,0,.659.173q.354.068.726.145a7.288,7.288,0,0,1,.751.2,3.241,3.241,0,0,1,.733.347,3.08,3.08,0,0,1,.665.577,3.483,3.483,0,0,1,.554.893" transform="translate(-20.329 -22.874)" fill="#fff"/>
              <path id="Trazado_877258" data-name="Trazado 877258" d="M28.293,68.166c-1.926,4.358-1.248,9.391,1.97,10.984,3.577,1.77,8.247-1.562,9.873-7.028,1.457-4.9-.327-9.113-3.571-9.8-2.971-.63-6.515,1.87-8.271,5.844" transform="translate(-4.492 -10.268)" fill="#ffd400"/>
              <path id="Trazado_877259" data-name="Trazado 877259" d="M28.292,68.419c-1.925,4.358-1.248,9.39,1.971,10.983,2.351,1.164,5.25.083,7.44-2.491a5.676,5.676,0,0,1-5.712.909c-3.287-1.505-4.088-6.4-2.241-10.677a11.567,11.567,0,0,1,2.209-3.385,11.3,11.3,0,0,0-3.666,4.66" transform="translate(-4.492 -10.521)" fill="#f7bd06"/>
              <path id="Trazado_877260" data-name="Trazado 877260" d="M32.256,79.875a4.88,4.88,0,0,1-2.187-.512c-3.231-1.6-4.179-6.7-2.113-11.379,1.807-4.089,5.51-6.677,8.612-6.019a4.968,4.968,0,0,1,3.258,2.447,9.818,9.818,0,0,1,.542,7.738c-.99,3.33-3.191,6.089-5.744,7.2a5.927,5.927,0,0,1-2.368.524m3.31-17.405c-2.626,0-5.533,2.317-7.054,5.76-1.936,4.381-1.117,9.131,1.826,10.589a4.676,4.676,0,0,0,4.043-.024c2.392-1.042,4.463-3.655,5.4-6.818a9.212,9.212,0,0,0-.482-7.254,4.377,4.377,0,0,0-2.862-2.163,4.2,4.2,0,0,0-.876-.09m-7.332,5.637h0Z" transform="translate(-4.433 -10.208)" fill="#060606"/>
              <path id="Trazado_877261" data-name="Trazado 877261" d="M37.166,62.341A6.535,6.535,0,0,1,43,68.091a12.792,12.792,0,0,1-.453,4.864c-1.586,5.577-6.329,8.965-10.021,7.137l-1.667-.923c3.577,1.77,8.247-1.562,9.873-7.028,1.457-4.9-.326-9.113-3.571-9.8" transform="translate(-5.093 -10.287)" fill="#ffd400"/>
              <path id="Trazado_877262" data-name="Trazado 877262" d="M34.6,80.838a5.072,5.072,0,0,1-2.268-.533l-1.679-.93a.3.3,0,0,1,.282-.538,4.676,4.676,0,0,0,4.043-.024c2.392-1.043,4.463-3.656,5.4-6.818a9.214,9.214,0,0,0-.483-7.254,4.378,4.378,0,0,0-2.861-2.163.3.3,0,0,1,.094-.6A6.87,6.87,0,0,1,43.244,68a13.129,13.129,0,0,1-.462,4.981c-.957,3.368-3.152,6.168-5.728,7.31a6.041,6.041,0,0,1-2.452.55M32.9,79.893a4.881,4.881,0,0,0,3.912-.161c2.415-1.07,4.48-3.722,5.389-6.92a12.519,12.519,0,0,0,.443-4.748,6.214,6.214,0,0,0-2.884-4.553,6.014,6.014,0,0,1,.669.919,9.811,9.811,0,0,1,.542,7.738c-.99,3.33-3.191,6.09-5.743,7.2a5.95,5.95,0,0,1-2.327.524" transform="translate(-5.033 -10.227)" fill="#060f11"/>
              <path id="Trazado_877263" data-name="Trazado 877263" d="M43.442,65.5a.31.31,0,0,1-.078-.01l-1.6-.42a.3.3,0,1,1,.154-.588l1.588.418a.3.3,0,0,1-.048.6h-.021" transform="translate(-6.855 -10.639)"/>
              <path id="Trazado_877264" data-name="Trazado 877264" d="M44.932,69a.31.31,0,0,1-.083-.012l-1.829-.524a.3.3,0,1,1,.168-.584l1.828.524a.3.3,0,0,1-.083.6" transform="translate(-7.062 -11.2)"/>
              <path id="Trazado_877265" data-name="Trazado 877265" d="M44.991,72.277a.307.307,0,0,1-.087-.013l-1.832-.547a.3.3,0,1,1,.174-.583l1.832.547a.3.3,0,0,1-.087.6" transform="translate(-7.071 -11.736)"/>
              <path id="Trazado_877266" data-name="Trazado 877266" d="M44.331,75.5a.287.287,0,0,1-.091-.014l-1.89-.59a.3.3,0,1,1,.182-.58l1.89.59a.3.3,0,0,1-.091.595" transform="translate(-6.953 -12.26)"/>
              <path id="Trazado_877267" data-name="Trazado 877267" d="M42.984,78.617a.305.305,0,0,1-.1-.016l-1.951-.655a.3.3,0,0,1,.193-.576l1.951.655a.3.3,0,0,1-.1.592" transform="translate(-6.721 -12.764)"/>
              <path id="Trazado_877268" data-name="Trazado 877268" d="M40.758,81.553a.307.307,0,0,1-.1-.018l-2.017-.721a.3.3,0,1,1,.2-.573l2.017.721a.3.3,0,0,1-.1.59" transform="translate(-6.342 -13.238)"/>
              <path id="Trazado_877269" data-name="Trazado 877269" d="M36.768,84a.3.3,0,0,1-.118-.024l-2.057-.868a.3.3,0,1,1,.236-.56l2.057.868a.3.3,0,0,1-.119.584" transform="translate(-5.678 -13.617)"/>
              <path id="Trazado_877270" data-name="Trazado 877270" d="M35.9,72.686a3.282,3.282,0,0,1-.417.916,2.983,2.983,0,0,1-.631.691,2.893,2.893,0,0,1-.8.449,3.181,3.181,0,0,1-.927.192L32.653,76.2a.329.329,0,0,1-.047.083.188.188,0,0,1-.081.057.551.551,0,0,1-.139.033,1.23,1.23,0,0,1-.209.008,1.377,1.377,0,0,1-.249-.028.37.37,0,0,1-.135-.056.115.115,0,0,1-.047-.089.283.283,0,0,1,.028-.119l.453-1.2a2.577,2.577,0,0,1-.372-.109,2.116,2.116,0,0,1-.3-.138,1.515,1.515,0,0,1-.223-.15.512.512,0,0,1-.127-.146.368.368,0,0,1-.023-.205,2.633,2.633,0,0,1,.09-.4c.039-.135.074-.246.107-.333a1.048,1.048,0,0,1,.093-.2.273.273,0,0,1,.09-.1.171.171,0,0,1,.094-.023.285.285,0,0,1,.162.1,2.312,2.312,0,0,0,.258.209,2.034,2.034,0,0,0,.409.215,1.882,1.882,0,0,0,.617.114,1.491,1.491,0,0,0,.932-.225,1.2,1.2,0,0,0,.48-.675.785.785,0,0,0,.016-.475.833.833,0,0,0-.229-.337,1.922,1.922,0,0,0-.383-.268c-.148-.08-.3-.165-.452-.256a2.984,2.984,0,0,1-.436-.311,1.425,1.425,0,0,1-.336-.429,1.474,1.474,0,0,1-.151-.6,2.588,2.588,0,0,1,.123-.846,3.1,3.1,0,0,1,.359-.807,2.731,2.731,0,0,1,.539-.625,2.539,2.539,0,0,1,.7-.421,2.949,2.949,0,0,1,.832-.2l.445-1.192a.29.29,0,0,1,.045-.079.234.234,0,0,1,.081-.057.45.45,0,0,1,.137-.033,1.493,1.493,0,0,1,.21,0,1.367,1.367,0,0,1,.249.028.368.368,0,0,1,.14.056.108.108,0,0,1,.044.089.441.441,0,0,1-.02.119L36,67.292a2.537,2.537,0,0,1,.271.077,1.75,1.75,0,0,1,.258.109,1.64,1.64,0,0,1,.207.129.39.39,0,0,1,.117.119.328.328,0,0,1,.035.1.5.5,0,0,1,0,.126,1.76,1.76,0,0,1-.034.179c-.017.07-.038.15-.065.241q-.054.184-.1.3a1.025,1.025,0,0,1-.079.18.269.269,0,0,1-.069.082.107.107,0,0,1-.065.018.311.311,0,0,1-.164-.085,2.59,2.59,0,0,0-.255-.178,2.4,2.4,0,0,0-.366-.183,1.451,1.451,0,0,0-.493-.1,1.579,1.579,0,0,0-.455.042,1.041,1.041,0,0,0-.344.155.94.94,0,0,0-.242.249,1.181,1.181,0,0,0-.149.326.78.78,0,0,0-.013.474.788.788,0,0,0,.233.34,2.183,2.183,0,0,0,.391.269q.225.123.458.258a3.464,3.464,0,0,1,.443.31,1.365,1.365,0,0,1,.343.423,1.484,1.484,0,0,1,.157.6,2.453,2.453,0,0,1-.116.829" transform="translate(-5.144 -10.87)" fill="#fff"/>
            </g>
          </g>
        </g>
      </g>
    </g>
  </g>
</svg>
