<svg xmlns="http://www.w3.org/2000/svg" xmlns:xlink="http://www.w3.org/1999/xlink" width="410.044" height="488.238" viewBox="0 0 410.044 488.238">
  <defs>
    <clipPath id="clip-path">
      <rect id="Rectángulo_402394" data-name="Rectángulo 402394" width="410.044" height="488.238" transform="translate(994.051 571.707)" fill="#fdebd3"/>
    </clipPath>
    <clipPath id="clip-path-2">
      <rect id="Rectángulo_402752" data-name="Rectángulo 402752" width="686.646" height="539.153" fill="none"/>
    </clipPath>
    <clipPath id="clip-path-4">
      <rect id="Rectángulo_402681" data-name="Rectángulo 402681" width="35.659" height="58.372" fill="none"/>
    </clipPath>
    <clipPath id="clip-path-5">
      <rect id="Rectángulo_402682" data-name="Rectángulo 402682" width="63.598" height="62.899" fill="none"/>
    </clipPath>
    <clipPath id="clip-path-6">
      <rect id="Rectángulo_402683" data-name="Rectángulo 402683" width="45.349" height="51.441" fill="none"/>
    </clipPath>
    <clipPath id="clip-path-7">
      <rect id="Rectángulo_402684" data-name="Rectángulo 402684" width="73.577" height="50.646" fill="none"/>
    </clipPath>
    <clipPath id="clip-path-8">
      <rect id="Rectángulo_402737" data-name="Rectángulo 402737" width="142.617" height="132.184" fill="none"/>
    </clipPath>
  </defs>
  <g id="Grupo_1102508" data-name="Grupo 1102508" transform="translate(-994.051 -580.707)">
    <g id="Enmascarar_grupo_1098698" data-name="Enmascarar grupo 1098698" transform="translate(0 9)" clip-path="url(#clip-path)">
      <g id="Grupo_1102377" data-name="Grupo 1102377" transform="translate(994.051 520.792)">
        <g id="Grupo_1102376" data-name="Grupo 1102376" clip-path="url(#clip-path-2)">
          <g id="Grupo_1102375" data-name="Grupo 1102375">
            <g id="Grupo_1102374" data-name="Grupo 1102374" clip-path="url(#clip-path-2)">
              <path id="Trazado_875698" data-name="Trazado 875698" d="M254.678,70.178s8.649-15.161,29.331-13.476c0,0,30.028-25.268,62.047-3.369,0,0,34.038-5.427,59.245,4.7,16.806,6.751,22.356,13.831,22.356,13.831Z" transform="translate(236.113 41.166)" fill="#aad9b2"/>
              <g id="Grupo_1102361" data-name="Grupo 1102361" transform="translate(233.985 134.103)" opacity="0.5">
                <g id="Grupo_1102360" data-name="Grupo 1102360">
                  <g id="Grupo_1102359" data-name="Grupo 1102359" clip-path="url(#clip-path-4)">
                    <path id="Trazado_875699" data-name="Trazado 875699" d="M157.077,127.959s-7.662-36.706-28.6-57.183a4.163,4.163,0,0,0-7.034,3.442c.008.066.013.129.023.2.823,6.595,24.536,32.649,35.609,53.545" transform="translate(-121.418 -69.587)" fill="#d1d1d1"/>
                  </g>
                </g>
              </g>
              <g id="Grupo_1102364" data-name="Grupo 1102364" transform="translate(209.281 139.992)" opacity="0.5">
                <g id="Grupo_1102363" data-name="Grupo 1102363">
                  <g id="Grupo_1102362" data-name="Grupo 1102362" clip-path="url(#clip-path-5)">
                    <path id="Trazado_875700" data-name="Trazado 875700" d="M172.2,135.542s-22.983-44.709-57.119-62.39A4.414,4.414,0,0,0,109.21,74.8c-.752,1.328-.967,3.322.266,6.3,3.288,7.928,41.76,32.233,62.721,54.448" transform="translate(-108.599 -72.643)" fill="#d1d1d1"/>
                  </g>
                </g>
              </g>
              <g id="Grupo_1102367" data-name="Grupo 1102367" transform="translate(549.719 307.298)" opacity="0.5">
                <g id="Grupo_1102366" data-name="Grupo 1102366">
                  <g id="Grupo_1102365" data-name="Grupo 1102365" clip-path="url(#clip-path-6)">
                    <path id="Trazado_875701" data-name="Trazado 875701" d="M285.257,210.9s14.465-34.593,38.9-50.741a4.165,4.165,0,0,1,6.257,4.71c-.019.062-.04.125-.06.189-2.056,6.321-30.271,27.419-45.094,45.842" transform="translate(-285.257 -159.461)" fill="#d1d1d1"/>
                  </g>
                </g>
              </g>
              <g id="Grupo_1102370" data-name="Grupo 1102370" transform="translate(544.57 317.71)" opacity="0.5">
                <g id="Grupo_1102369" data-name="Grupo 1102369">
                  <g id="Grupo_1102368" data-name="Grupo 1102368" clip-path="url(#clip-path-7)">
                    <path id="Trazado_875702" data-name="Trazado 875702" d="M282.585,215.51s31.024-39.556,67.89-50.461a4.417,4.417,0,0,1,5.45,2.729c.488,1.447.324,3.444-1.451,6.13-4.729,7.165-47.1,23.752-71.889,41.6" transform="translate(-282.585 -164.864)" fill="#d1d1d1"/>
                  </g>
                </g>
              </g>
              <path id="Trazado_875703" data-name="Trazado 875703" d="M432.571,199.428c-8.541-24.3-49.816-13.472-49.816-13.472s-25.218,45.485-33.408,47.127,13.968-43.1,13.968-43.1c-16.128-.37-55.495,22.264-55.495,22.264s6.309,50.438-2.031,50.012-3.309-44.944-3.309-44.944c-15.157,5.791-28.29,24.937-28.29,24.937-15.914,30.776,24.43,49.621,24.43,49.621s1.808,17.527-7.556,38.473h0a59.981,59.981,0,0,0-4.2,10.406l4.226-.31q.39-1.737.9-3.365l.008-.019.016-.046c.241-.674.588-1.634,1.023-2.8l0,0,0-.006c1.1-2.623,1.84-4.554,2.293-5.941l0-.013c3.284-8.217,8.1-18.963,11.651-21.4a8.24,8.24,0,0,1-1.046-1.871q.5.9,1.046,1.871c8.375,14.966,44.726,14.887,64.569,9.271s10.643-10.653-.884-19.076-34.079-4.321-41.061-7.442,2.567-7.46,16.074-7.415,21.212,12.981,43.061,13.451,35.378-41.56,35.378-41.56c-14.64,5.752-42.111-.536-43.526-5.625s38.4-7.5,44.489-9.508,16.02-15.2,7.479-39.506" transform="translate(250.757 170.17)" fill="#e6e6e6"/>
              <rect id="Rectángulo_402685" data-name="Rectángulo 402685" width="252.009" height="423.658" transform="translate(315.806 115.495)" fill="#d6d6d6"/>
              <rect id="Rectángulo_402686" data-name="Rectángulo 402686" width="21.083" height="0.973" transform="translate(567.815 167.525)" fill="#121212"/>
              <rect id="Rectángulo_402687" data-name="Rectángulo 402687" width="21.083" height="0.973" transform="translate(567.815 270.646)" fill="#121212"/>
              <path id="Trazado_875704" data-name="Trazado 875704" d="M321.287,225.582h0a16.313,16.313,0,0,1-16.265-16.265V94.009a16.265,16.265,0,0,1,32.529,0V209.317a16.313,16.313,0,0,1-16.265,16.265" transform="translate(282.787 72.077)" fill="#e8b872"/>
              <path id="Trazado_875705" data-name="Trazado 875705" d="M310.772,86.483h2.2v5.2h5.97v-5.2h2.2V99h-2.2V93.724h-5.97V99h-2.2Z" transform="translate(288.118 80.179)" fill="#fff"/>
              <path id="Trazado_875706" data-name="Trazado 875706" d="M310.067,105.585a6.543,6.543,0,1,1,6.525,6.469,6.411,6.411,0,0,1-6.525-6.469m10.778,0a4.287,4.287,0,0,0-4.253-4.452,4.237,4.237,0,0,0-4.218,4.452,4.288,4.288,0,0,0,4.253,4.452,4.238,4.238,0,0,0,4.218-4.452" transform="translate(287.464 91.889)" fill="#fff"/>
              <path id="Trazado_875707" data-name="Trazado 875707" d="M314.8,114h-3.968v-2.037h10.154V114h-3.97v10.476H314.8Z" transform="translate(288.169 103.804)" fill="#fff"/>
              <path id="Trazado_875708" data-name="Trazado 875708" d="M311.19,124.707h9.277v1.966h-7.078v3.255h6.275v1.966h-6.275v3.361h7.169v1.966H311.19Z" transform="translate(288.505 115.616)" fill="#fff"/>
              <path id="Trazado_875709" data-name="Trazado 875709" d="M311.426,137.448h2.2v10.51H320.2v2h-8.778Z" transform="translate(288.724 127.428)" fill="#fff"/>
              <rect id="Rectángulo_402688" data-name="Rectángulo 402688" width="48.264" height="69.909" transform="translate(493.602 153.885)" fill="#bfbfbf"/>
              <path id="Trazado_875710" data-name="Trazado 875710" d="M278.362,79.853s.516,23.306-22.225,41.388V79.853Z" transform="translate(237.465 74.032)" fill="#e3e3e3"/>
              <path id="Trazado_875711" data-name="Trazado 875711" d="M270.144,79.853s-.5,23.306,21.273,41.388V79.853Z" transform="translate(250.451 74.032)" fill="#e3e3e3"/>
              <rect id="Rectángulo_402689" data-name="Rectángulo 402689" width="1.21" height="69.909" transform="translate(517.735 153.885)" fill="#fff"/>
              <rect id="Rectángulo_402690" data-name="Rectángulo 402690" width="48.266" height="0.973" transform="translate(493.602 174.578)" fill="#fff"/>
              <rect id="Rectángulo_402691" data-name="Rectángulo 402691" width="48.266" height="0.973" transform="translate(493.602 199.921)" fill="#fff"/>
              <path id="Trazado_875712" data-name="Trazado 875712" d="M306.03,151.39H255.567V79.282H306.03Zm-48.264-2.2h46.065V81.481H257.766Z" transform="translate(236.937 73.503)" fill="#fff"/>
              <rect id="Rectángulo_402692" data-name="Rectángulo 402692" width="48.264" height="69.909" transform="translate(417.678 153.885)" fill="#bfbfbf"/>
              <path id="Trazado_875713" data-name="Trazado 875713" d="M238.964,79.853s.516,23.306-22.225,41.388V79.853Z" transform="translate(200.939 74.032)" fill="#e3e3e3"/>
              <path id="Trazado_875714" data-name="Trazado 875714" d="M230.746,79.853s-.493,23.306,21.273,41.388V79.853Z" transform="translate(213.925 74.032)" fill="#e3e3e3"/>
              <rect id="Rectángulo_402693" data-name="Rectángulo 402693" width="1.21" height="69.909" transform="translate(441.809 153.885)" fill="#fff"/>
              <rect id="Rectángulo_402694" data-name="Rectángulo 402694" width="48.266" height="0.973" transform="translate(417.678 174.578)" fill="#fff"/>
              <rect id="Rectángulo_402695" data-name="Rectángulo 402695" width="48.266" height="0.973" transform="translate(417.678 199.921)" fill="#fff"/>
              <path id="Trazado_875715" data-name="Trazado 875715" d="M266.632,151.39H216.169V79.282h50.463Zm-48.264-2.2h46.065V81.481H218.368Z" transform="translate(200.411 73.503)" fill="#fff"/>
              <rect id="Rectángulo_402696" data-name="Rectángulo 402696" width="48.264" height="69.909" transform="translate(341.754 153.885)" fill="#bfbfbf"/>
              <path id="Trazado_875716" data-name="Trazado 875716" d="M199.566,79.853s.516,23.306-22.225,41.388V79.853Z" transform="translate(164.413 74.032)" fill="#e3e3e3"/>
              <path id="Trazado_875717" data-name="Trazado 875717" d="M191.347,79.853s-.493,23.306,21.275,41.388V79.853Z" transform="translate(177.398 74.032)" fill="#e3e3e3"/>
              <rect id="Rectángulo_402697" data-name="Rectángulo 402697" width="1.21" height="69.909" transform="translate(365.885 153.885)" fill="#fff"/>
              <rect id="Rectángulo_402698" data-name="Rectángulo 402698" width="48.266" height="0.973" transform="translate(341.754 174.578)" fill="#fff"/>
              <rect id="Rectángulo_402699" data-name="Rectángulo 402699" width="48.266" height="0.973" transform="translate(341.754 199.921)" fill="#fff"/>
              <path id="Trazado_875718" data-name="Trazado 875718" d="M227.234,151.39H176.771V79.282h50.463Zm-48.264-2.2h46.065V81.481H178.97Z" transform="translate(163.885 73.503)" fill="#fff"/>
              <rect id="Rectángulo_402700" data-name="Rectángulo 402700" width="48.264" height="69.909" transform="translate(493.602 258.862)" fill="#bfbfbf"/>
              <path id="Trazado_875719" data-name="Trazado 875719" d="M278.362,134.327s.516,23.306-22.225,41.388V134.327Z" transform="translate(237.465 124.535)" fill="#e3e3e3"/>
              <path id="Trazado_875720" data-name="Trazado 875720" d="M270.144,134.327s-.5,23.306,21.273,41.388V134.327Z" transform="translate(250.451 124.535)" fill="#e3e3e3"/>
              <rect id="Rectángulo_402701" data-name="Rectángulo 402701" width="1.21" height="69.909" transform="translate(517.735 258.862)" fill="#fff"/>
              <rect id="Rectángulo_402702" data-name="Rectángulo 402702" width="48.266" height="0.973" transform="translate(493.602 279.557)" fill="#fff"/>
              <rect id="Rectángulo_402703" data-name="Rectángulo 402703" width="48.266" height="0.973" transform="translate(493.602 304.898)" fill="#fff"/>
              <path id="Trazado_875721" data-name="Trazado 875721" d="M306.03,205.865H255.567V133.757H306.03Zm-48.264-2.2h46.065V135.954H257.766Z" transform="translate(236.937 124.006)" fill="#fff"/>
              <rect id="Rectángulo_402704" data-name="Rectángulo 402704" width="48.264" height="69.909" transform="translate(417.678 258.862)" fill="#bfbfbf"/>
              <path id="Trazado_875722" data-name="Trazado 875722" d="M238.964,134.327s.516,23.306-22.225,41.388V134.327Z" transform="translate(200.939 124.535)" fill="#e3e3e3"/>
              <path id="Trazado_875723" data-name="Trazado 875723" d="M230.746,134.327s-.493,23.306,21.273,41.388V134.327Z" transform="translate(213.925 124.535)" fill="#e3e3e3"/>
              <rect id="Rectángulo_402705" data-name="Rectángulo 402705" width="1.21" height="69.909" transform="translate(441.809 258.862)" fill="#fff"/>
              <rect id="Rectángulo_402706" data-name="Rectángulo 402706" width="48.266" height="0.973" transform="translate(417.678 279.557)" fill="#fff"/>
              <rect id="Rectángulo_402707" data-name="Rectángulo 402707" width="48.266" height="0.973" transform="translate(417.678 304.898)" fill="#fff"/>
              <path id="Trazado_875724" data-name="Trazado 875724" d="M266.632,205.865H216.169V133.757h50.463Zm-48.264-2.2h46.065V135.954H218.368Z" transform="translate(200.411 124.006)" fill="#fff"/>
              <rect id="Rectángulo_402708" data-name="Rectángulo 402708" width="48.264" height="69.909" transform="translate(341.754 258.862)" fill="#bfbfbf"/>
              <path id="Trazado_875725" data-name="Trazado 875725" d="M199.566,134.327s.516,23.306-22.225,41.388V134.327Z" transform="translate(164.413 124.535)" fill="#e3e3e3"/>
              <path id="Trazado_875726" data-name="Trazado 875726" d="M191.347,134.327s-.493,23.306,21.275,41.388V134.327Z" transform="translate(177.398 124.535)" fill="#e3e3e3"/>
              <rect id="Rectángulo_402709" data-name="Rectángulo 402709" width="1.21" height="69.909" transform="translate(365.885 258.862)" fill="#fff"/>
              <rect id="Rectángulo_402710" data-name="Rectángulo 402710" width="48.266" height="0.973" transform="translate(341.754 279.557)" fill="#fff"/>
              <rect id="Rectángulo_402711" data-name="Rectángulo 402711" width="48.266" height="0.973" transform="translate(341.754 304.898)" fill="#fff"/>
              <path id="Trazado_875727" data-name="Trazado 875727" d="M227.234,205.865H176.771V133.757h50.463Zm-48.264-2.2h46.065V135.954H178.97Z" transform="translate(163.885 124.006)" fill="#fff"/>
              <rect id="Rectángulo_402712" data-name="Rectángulo 402712" width="48.264" height="69.909" transform="translate(417.678 363.839)" fill="#bfbfbf"/>
              <path id="Trazado_875728" data-name="Trazado 875728" d="M238.964,188.8s.516,23.306-22.225,41.388V188.8Z" transform="translate(200.939 175.039)" fill="#e3e3e3"/>
              <path id="Trazado_875729" data-name="Trazado 875729" d="M230.746,188.8s-.493,23.306,21.273,41.388V188.8Z" transform="translate(213.925 175.039)" fill="#e3e3e3"/>
              <rect id="Rectángulo_402713" data-name="Rectángulo 402713" width="1.21" height="69.909" transform="translate(441.809 363.841)" fill="#fff"/>
              <rect id="Rectángulo_402714" data-name="Rectángulo 402714" width="48.266" height="0.973" transform="translate(417.678 384.534)" fill="#fff"/>
              <rect id="Rectángulo_402715" data-name="Rectángulo 402715" width="48.266" height="0.973" transform="translate(417.678 409.875)" fill="#fff"/>
              <path id="Trazado_875730" data-name="Trazado 875730" d="M266.632,260.339H216.169V188.231h50.463Zm-48.264-2.2h46.065V190.432H218.368Z" transform="translate(200.411 174.509)" fill="#fff"/>
              <rect id="Rectángulo_402716" data-name="Rectángulo 402716" width="48.264" height="69.909" transform="translate(341.754 363.839)" fill="#bfbfbf"/>
              <path id="Trazado_875731" data-name="Trazado 875731" d="M199.566,188.8s.516,23.306-22.225,41.388V188.8Z" transform="translate(164.413 175.039)" fill="#e3e3e3"/>
              <path id="Trazado_875732" data-name="Trazado 875732" d="M191.347,188.8s-.493,23.306,21.275,41.388V188.8Z" transform="translate(177.398 175.039)" fill="#e3e3e3"/>
              <rect id="Rectángulo_402717" data-name="Rectángulo 402717" width="1.21" height="69.909" transform="translate(365.885 363.841)" fill="#fff"/>
              <rect id="Rectángulo_402718" data-name="Rectángulo 402718" width="48.266" height="0.973" transform="translate(341.754 384.534)" fill="#fff"/>
              <rect id="Rectángulo_402719" data-name="Rectángulo 402719" width="48.266" height="0.973" transform="translate(341.754 409.875)" fill="#fff"/>
              <path id="Trazado_875733" data-name="Trazado 875733" d="M227.234,260.339H176.771V188.231h50.463Zm-48.264-2.2h46.065V190.432H178.97Z" transform="translate(163.885 174.509)" fill="#fff"/>
              <rect id="Rectángulo_402720" data-name="Rectángulo 402720" width="258.954" height="57.933" transform="translate(312.979 481.207)" fill="#bfbfbf"/>
              <path id="Trazado_875734" data-name="Trazado 875734" d="M304.275,113.1,304.163,430.6a18.882,18.882,0,0,1-18.886,18.878l-165.97-.056a18.885,18.885,0,0,1-18.878-18.893l.11-317.492a18.883,18.883,0,0,1,18.891-18.876l165.966.058A18.882,18.882,0,0,1,304.275,113.1" transform="translate(93.109 87.293)" fill="#878787"/>
              <path id="Trazado_875735" data-name="Trazado 875735" d="M286.415,452.986l-165.97-.056A21.28,21.28,0,0,1,99.2,431.666l.11-317.492a21.278,21.278,0,0,1,21.262-21.248l165.97.058a21.278,21.278,0,0,1,21.246,21.262l-.11,317.494a21.277,21.277,0,0,1-21.262,21.246M120.569,97.667a16.531,16.531,0,0,0-16.519,16.509l-.11,317.492a16.532,16.532,0,0,0,16.508,16.521l165.97.056a16.531,16.531,0,0,0,16.519-16.508l.11-317.494a16.531,16.531,0,0,0-16.508-16.519Z" transform="translate(91.968 86.152)" fill="#121212"/>
              <path id="Trazado_875736" data-name="Trazado 875736" d="M276.2,206.107V323.6a14.109,14.109,0,0,1-14.108,14.108H125.422a14.106,14.106,0,0,1-14.1-14.108v-117.5A14.106,14.106,0,0,1,125.422,192H262.094A14.1,14.1,0,0,1,276.2,206.107" transform="translate(103.203 178.003)" fill="#ededed"/>
              <path id="Trazado_875737" data-name="Trazado 875737" d="M242.563,218.229H144.955a33.639,33.639,0,1,1,0-67.279h97.608a33.639,33.639,0,1,1,0,67.279" transform="translate(103.201 139.946)" fill="#ededed"/>
              <path id="Trazado_875738" data-name="Trazado 875738" d="M182.222,165.478H142.435a.889.889,0,1,1,0-1.779h39.787a.889.889,0,1,1,0,1.779" transform="translate(131.227 151.766)" fill="#292929"/>
              <path id="Trazado_875739" data-name="Trazado 875739" d="M208.839,168.818h-66.4a.889.889,0,1,1,0-1.779h66.4a.889.889,0,1,1,0,1.779" transform="translate(131.227 154.862)" fill="#292929"/>
              <rect id="Rectángulo_402721" data-name="Rectángulo 402721" width="38.047" height="38.047" transform="translate(225.939 307.093)" fill="#c7c7c7"/>
              <path id="Trazado_875740" data-name="Trazado 875740" d="M120.9,181.134l8.31-14.981,6.109,8.335,3.053-3.336,6.464,9.982Z" transform="translate(112.091 154.04)" fill="#b0b0b0"/>
              <path id="Trazado_875741" data-name="Trazado 875741" d="M127.271,166.072a2.151,2.151,0,1,1,2.151,2.151,2.152,2.152,0,0,1-2.151-2.151" transform="translate(117.993 151.972)" fill="#b0b0b0"/>
              <path id="Trazado_875742" data-name="Trazado 875742" d="M206.585,163.254H143.434a1.949,1.949,0,0,1,0-3.9h63.151a1.949,1.949,0,1,1,0,3.9" transform="translate(131.172 147.738)" fill="#292929"/>
              <path id="Trazado_875743" data-name="Trazado 875743" d="M151.537,175.958l5.481.79-3.962,3.87.942,5.458-4.9-2.573-4.9,2.582.931-5.459-3.97-3.86,5.481-.8,2.446-4.97Z" transform="translate(130.866 158.529)" fill="#e8b872"/>
              <path id="Trazado_875744" data-name="Trazado 875744" d="M161.386,175.958l5.481.79-3.962,3.87.942,5.458-4.9-2.573-4.9,2.582.931-5.459-3.97-3.86,5.481-.8,2.446-4.97Z" transform="translate(139.997 158.529)" fill="#e8b872"/>
              <path id="Trazado_875745" data-name="Trazado 875745" d="M171.236,175.958l5.481.79-3.962,3.87.942,5.458-4.9-2.573-4.9,2.582.931-5.459-3.97-3.86,5.479-.8,2.447-4.97Z" transform="translate(149.129 158.529)" fill="#e8b872"/>
              <path id="Trazado_875746" data-name="Trazado 875746" d="M181.085,175.958l5.481.79-3.962,3.87.942,5.458-4.9-2.573-4.9,2.582.931-5.459-3.97-3.86,5.481-.8,2.446-4.97Z" transform="translate(158.26 158.529)" fill="#e8b872"/>
              <path id="Trazado_875747" data-name="Trazado 875747" d="M190.935,175.958l5.481.79-3.962,3.87.942,5.458-4.9-2.573-4.9,2.582.931-5.459-3.97-3.86,5.481-.8,2.446-4.97Z" transform="translate(167.392 158.529)" fill="#e8b872"/>
              <path id="Trazado_875748" data-name="Trazado 875748" d="M242.563,177.776H144.955a33.639,33.639,0,0,1,0-67.279h97.608a33.639,33.639,0,0,1,0,67.279" transform="translate(103.201 102.442)" fill="#ededed"/>
              <path id="Trazado_875749" data-name="Trazado 875749" d="M182.222,125.026H142.435a.889.889,0,1,1,0-1.779h39.787a.889.889,0,1,1,0,1.779" transform="translate(131.227 114.263)" fill="#292929"/>
              <path id="Trazado_875750" data-name="Trazado 875750" d="M208.839,128.364h-66.4a.888.888,0,1,1,0-1.777h66.4a.888.888,0,1,1,0,1.777" transform="translate(131.227 117.359)" fill="#292929"/>
              <rect id="Rectángulo_402722" data-name="Rectángulo 402722" width="38.047" height="38.049" transform="translate(225.939 229.134)" fill="#c7c7c7"/>
              <path id="Trazado_875751" data-name="Trazado 875751" d="M120.9,140.681l8.31-14.981,6.109,8.335,3.053-3.336,6.464,9.982Z" transform="translate(112.091 116.536)" fill="#b0b0b0"/>
              <path id="Trazado_875752" data-name="Trazado 875752" d="M127.271,125.619a2.151,2.151,0,1,1,2.151,2.151,2.152,2.152,0,0,1-2.151-2.151" transform="translate(117.993 114.468)" fill="#b0b0b0"/>
              <path id="Trazado_875753" data-name="Trazado 875753" d="M206.585,122.8H143.434a1.949,1.949,0,0,1,0-3.9h63.151a1.949,1.949,0,1,1,0,3.9" transform="translate(131.172 110.234)" fill="#292929"/>
              <path id="Trazado_875754" data-name="Trazado 875754" d="M151.537,135.506l5.481.79-3.962,3.87.942,5.458-4.9-2.573-4.9,2.582.931-5.459-3.97-3.86,5.481-.8,2.446-4.97Z" transform="translate(130.866 121.025)" fill="#e8b872"/>
              <path id="Trazado_875755" data-name="Trazado 875755" d="M161.386,135.506l5.481.79-3.962,3.87.942,5.458-4.9-2.573-4.9,2.582.931-5.459-3.97-3.86,5.481-.8,2.446-4.97Z" transform="translate(139.997 121.025)" fill="#e8b872"/>
              <path id="Trazado_875756" data-name="Trazado 875756" d="M171.236,135.506l5.481.79-3.962,3.87.942,5.458-4.9-2.573-4.9,2.582.931-5.459-3.97-3.86,5.479-.8,2.447-4.97Z" transform="translate(149.129 121.025)" fill="#e8b872"/>
              <path id="Trazado_875757" data-name="Trazado 875757" d="M181.085,135.506l5.481.79-3.962,3.87.942,5.458-4.9-2.573-4.9,2.582.931-5.459-3.97-3.86,5.481-.8,2.446-4.97Z" transform="translate(158.26 121.025)" fill="#e8b872"/>
              <path id="Trazado_875758" data-name="Trazado 875758" d="M190.935,135.506l5.481.79-3.962,3.87.942,5.458-4.9-2.573-4.9,2.582.931-5.459-3.97-3.86,5.481-.8,2.446-4.97Z" transform="translate(167.392 121.025)" fill="#e8b872"/>
              <g id="Grupo_1102373" data-name="Grupo 1102373" transform="translate(225.652 375.315)" opacity="0.3">
                <g id="Grupo_1102372" data-name="Grupo 1102372">
                  <g id="Grupo_1102371" data-name="Grupo 1102371" clip-path="url(#clip-path-8)">
                    <path id="Trazado_875759" data-name="Trazado 875759" d="M156.866,215.352a24.769,24.769,0,0,0-3.317-.22c-.183,0-.368,0-.547.008a24.891,24.891,0,0,0,0,49.769c.179,0,.364.008.547.008a24.878,24.878,0,0,0,24.6-21.025,25.593,25.593,0,0,0,.3-3.868,24.894,24.894,0,0,0-21.576-24.673m0,41.109a16.8,16.8,0,0,1-3.317.329c-.183,0-.368,0-.547-.008a16.767,16.767,0,0,1,0-33.516c.179,0,.364-.008.547-.008a16.766,16.766,0,0,1,3.317,33.2" transform="translate(-106.374 -175.865)" fill="#878787"/>
                    <path id="Trazado_875760" data-name="Trazado 875760" d="M147.5,228.049a16.845,16.845,0,0,0,.447,3.868H117.094v-3.868Z" transform="translate(-117.094 -163.89)" fill="#878787"/>
                    <path id="Trazado_875761" data-name="Trazado 875761" d="M229.165,228.049v3.868H150.042a16.847,16.847,0,0,0,.447-3.868Z" transform="translate(-86.548 -163.89)" fill="#878787"/>
                    <path id="Trazado_875762" data-name="Trazado 875762" d="M145.154,194.757v47.721a16.8,16.8,0,0,0-3.317-.33c-.183,0-.368,0-.547.008v-47.4Z" transform="translate(-94.662 -194.755)" fill="#878787"/>
                    <path id="Trazado_875763" data-name="Trazado 875763" d="M145.154,236.578v51.588H141.29V236.9c.179,0,.364.008.547.008a16.806,16.806,0,0,0,3.317-.329" transform="translate(-94.662 -155.983)" fill="#878787"/>
                    <path id="Trazado_875764" data-name="Trazado 875764" d="M189.094,194.756v70.4h3.868v-70.1Z" transform="translate(-50.343 -194.756)" fill="#878787"/>
                    <rect id="Rectángulo_402723" data-name="Rectángulo 402723" width="3.868" height="132.184" transform="translate(95.124)" fill="#878787"/>
                    <rect id="Rectángulo_402724" data-name="Rectángulo 402724" width="19.121" height="29.695" transform="translate(55.564 4.901)" fill="#878787"/>
                    <rect id="Rectángulo_402725" data-name="Rectángulo 402725" width="18.637" height="21.337" transform="translate(0.002 27.247)" fill="#878787"/>
                    <rect id="Rectángulo_402726" data-name="Rectángulo 402726" width="37.503" height="18.637" transform="translate(0.002 4.901)" fill="#878787"/>
                    <rect id="Rectángulo_402727" data-name="Rectángulo 402727" width="13.374" height="18.458" transform="translate(77.913 4.901)" fill="#878787"/>
                    <rect id="Rectángulo_402728" data-name="Rectángulo 402728" width="13.374" height="30.845" transform="translate(77.913 27.247)" fill="#878787"/>
                    <rect id="Rectángulo_402729" data-name="Rectángulo 402729" width="13.374" height="18.261" transform="translate(77.913 71.686)" fill="#878787"/>
                    <rect id="Rectángulo_402730" data-name="Rectángulo 402730" width="10.792" height="53.192" transform="translate(107.58 4.901)" fill="#878787"/>
                    <rect id="Rectángulo_402731" data-name="Rectángulo 402731" width="13.374" height="53.192" transform="translate(121.874 4.901)" fill="#878787"/>
                    <rect id="Rectángulo_402732" data-name="Rectángulo 402732" width="37.085" height="58.553" transform="translate(105.532 73.631)" fill="#878787"/>
                    <rect id="Rectángulo_402733" data-name="Rectángulo 402733" width="36.91" height="22.146" transform="translate(54.377 110.038)" fill="#878787"/>
                    <rect id="Rectángulo_402734" data-name="Rectángulo 402734" width="36.91" height="11.738" transform="translate(54.377 94.124)" fill="#878787"/>
                    <rect id="Rectángulo_402735" data-name="Rectángulo 402735" width="33.154" height="38.06" transform="translate(0.002 94.124)" fill="#878787"/>
                    <rect id="Rectángulo_402736" data-name="Rectángulo 402736" width="13.958" height="20.508" transform="translate(0.002 70.095)" fill="#878787"/>
                  </g>
                </g>
              </g>
              <rect id="Rectángulo_402738" data-name="Rectángulo 402738" width="6.242" height="8.5" transform="translate(140.141 523.64)" fill="#121212"/>
              <rect id="Rectángulo_402739" data-name="Rectángulo 402739" width="6.242" height="8.5" transform="translate(175.443 523.64)" fill="#121212"/>
              <path id="Trazado_875765" data-name="Trazado 875765" d="M72.036,278.941a4.44,4.44,0,1,1,4.44,4.444,4.443,4.443,0,0,1-4.44-4.444" transform="translate(66.785 254.487)" fill="#242424"/>
              <path id="Trazado_875766" data-name="Trazado 875766" d="M72.942,278.1a2.7,2.7,0,1,1,2.7,2.7,2.7,2.7,0,0,1-2.7-2.7" transform="translate(67.625 255.327)" fill="#121212"/>
              <path id="Trazado_875767" data-name="Trazado 875767" d="M90.356,278.941a4.44,4.44,0,1,1,4.44,4.444,4.442,4.442,0,0,1-4.44-4.444" transform="translate(83.769 254.487)" fill="#242424"/>
              <path id="Trazado_875768" data-name="Trazado 875768" d="M91.261,278.1a2.7,2.7,0,1,1,2.7,2.7,2.7,2.7,0,0,1-2.7-2.7" transform="translate(84.608 255.327)" fill="#121212"/>
              <path id="Trazado_875769" data-name="Trazado 875769" d="M134.621,280.3H73.769a12.685,12.685,0,0,1-12.684-12.686h86.222A12.685,12.685,0,0,1,134.621,280.3" transform="translate(56.632 248.105)" fill="#de9935"/>
              <path id="Trazado_875770" data-name="Trazado 875770" d="M151.69,220.182v102.9a16.44,16.44,0,0,1-.4,3.613H139.219a9.469,9.469,0,0,0-9.47,9.477v3.207H82.466v-3.207A9.458,9.458,0,0,0,73,326.7H59.95a16.44,16.44,0,0,1-.4-3.613v-102.9a16.291,16.291,0,0,1,16.284-16.3h59.573a16.289,16.289,0,0,1,16.284,16.3" transform="translate(55.208 189.02)" fill="#e8d9a1"/>
              <path id="Trazado_875771" data-name="Trazado 875771" d="M110.326,206.42A49.558,49.558,0,0,0,84.052,203.2a33.069,33.069,0,0,0-10.1,3.17l-.769-1.339a33.733,33.733,0,0,1,10.537-3.342,51.049,51.049,0,0,1,27.17,3.291Z" transform="translate(67.85 186.429)" fill="#121212"/>
              <path id="Trazado_875772" data-name="Trazado 875772" d="M70.374,203.883V328.256A9.466,9.466,0,0,0,68,327.129V203.883Z" transform="translate(63.043 189.02)" fill="#e2cf88"/>
              <rect id="Rectángulo_402740" data-name="Rectángulo 402740" width="2.374" height="135.498" transform="translate(150.046 392.905)" fill="#e2cf88"/>
              <rect id="Rectángulo_402741" data-name="Rectángulo 402741" width="2.374" height="135.498" transform="translate(167.777 392.905)" fill="#e2cf88"/>
              <path id="Trazado_875773" data-name="Trazado 875773" d="M99.391,203.883v124.3a9.4,9.4,0,0,0-2.374,2.16V203.883Z" transform="translate(89.945 189.02)" fill="#e2cf88"/>
              <path id="Trazado_875774" data-name="Trazado 875774" d="M33.194,179.224c0-.177,2.6-5.55,1.771-5.962s-2.307-.351-2.478.59.707,5.373.707,5.373" transform="translate(30.098 160.405)" fill="#eee4ba"/>
              <path id="Trazado_875775" data-name="Trazado 875775" d="M38.36,184.629c0-.528-.609-8.572-1.966-10.173s-4.128-3.877-5-3.808-4.278,4.6-3.255,8.069,5.35,8.165,5.35,8.165Z" transform="translate(25.913 158.207)" fill="#eee4ba"/>
              <path id="Trazado_875776" data-name="Trazado 875776" d="M42.315,180.557l-7.9,2.368a.5.5,0,0,1-.617-.333L29.284,167.53a.494.494,0,0,1,.331-.617l7.9-2.368a.5.5,0,0,1,.617.333l4.513,15.062a.5.5,0,0,1-.331.617" transform="translate(27.13 152.531)" fill="#eadca8"/>
              <path id="Trazado_875777" data-name="Trazado 875777" d="M37.005,181.518h0a4.619,4.619,0,0,1-5.75-3.1l-2.147-7.165a4.618,4.618,0,0,1,3.1-5.749h0a4.619,4.619,0,0,1,5.75,3.1l2.147,7.163a4.619,4.619,0,0,1-3.1,5.75" transform="translate(26.805 153.26)" fill="#ddc773"/>
              <path id="Trazado_875778" data-name="Trazado 875778" d="M29.315,173.255s3.29-5.061,4.093-4.779c1.147.4-2.983,6.824-2.983,6.824s3.062-4.8,3.538-4.438c1.091.823-.644,3.837-2.363,6.149,0,0,3.078-2.817,3.178-2.311.351,1.779-3.378,6.086-3.378,6.086l-2.085-4.762Z" transform="translate(27.178 156.184)" fill="#eee4ba"/>
              <path id="Trazado_875779" data-name="Trazado 875779" d="M28.035,178.987c.16-.619.962-12.705,1.307-11.559s1.16,7.485,1.16,7.485Z" transform="translate(25.991 155.152)" fill="#eee4ba"/>
              <path id="Trazado_875780" data-name="Trazado 875780" d="M78.1,180.013s-.345,13.141-4.134,23.748c-2.995,8.375-8.138,15.17-16.96,12.659q-1.356-.384-2.623-.829l-.012,0c-17.926-6.244-23.725-20.537-23.725-20.537,1.335-2.2,5.2-3.012,5.2-3.012,3.609.195,19.473,6.932,20.485,7.136,3.669.738,6.633-19.425,9.019-26.411S77.5,162.654,77.5,162.654Z" transform="translate(28.418 150.797)" fill="#878787"/>
              <path id="Trazado_875781" data-name="Trazado 875781" d="M62.9,179.077l-.345,9.468c-2.993,8.377-8.136,15.17-16.96,12.661q-1.353-.384-2.623-.829c.283.037,5.683.767,7.944-1.493,2.322-2.326,2.079-10.031,6.358-15.166s5.627-4.64,5.627-4.64" transform="translate(39.837 166.011)" fill="#696969"/>
              <path id="Trazado_875782" data-name="Trazado 875782" d="M61.256,269.851s4.409,4.026,3.552,6.887-4.845,4.768-5.38,8.263-2.69,5.4-4.629,5.4H45.564s-1.422-2.461,2.02-3.2,4.741-4.851,4.525-8.664a67.184,67.184,0,0,1,.322-8.9l7.319-1.7Z" transform="translate(41.973 248.411)"/>
              <path id="Trazado_875783" data-name="Trazado 875783" d="M28.344,289.283H55.532a1.969,1.969,0,0,0,1.971-1.912,13.87,13.87,0,0,0-.973-5.862c-1.451-3.218-2.368-3.783,3.762-13.145-1.842,1.9-6.812,1.031-11.006.466-.515.833-8.294,12.852-10.009,14.085-1.9,1.362-10.349.877-10.932,6.367" transform="translate(26.278 248.801)"/>
              <path id="Trazado_875784" data-name="Trazado 875784" d="M62.609,202.4S42.9,239.594,37.539,260.075c-4.157,15.9,21.217,77.408,21.217,77.408a20.312,20.312,0,0,0,5.458-1.466,8.854,8.854,0,0,0,4.587-4.808s-1.505-43.98-6.641-65.259c-1.152-4.775,5.585-20.181,16.958-28.619s16.107-35.586,9.337-37.42-25.846,2.49-25.846,2.49" transform="translate(34.376 184.916)" fill="#121212"/>
              <path id="Trazado_875785" data-name="Trazado 875785" d="M79.9,195.5S59.176,271.468,52.89,288.527,36.633,341.79,36.633,341.79a26.268,26.268,0,0,0,14.374,1.559s30.3-44.391,31.622-64.011c.609-9.069,31.088-45.021,27.692-68.462Z" transform="translate(33.963 181.252)" fill="#242424"/>
              <path id="Trazado_875786" data-name="Trazado 875786" d="M100.117,250.893s-4.409,2.224-12.206,2.875h-.006c-8.926.75-22.295-.565-38.577-9.63,0,0-4.542-3.742,1.039-19.656,4.222-12.046,6.28-37.449,11.435-60.6,0,0,16.721-5.246,30.138-.711,10.25,3.467,9.229,19.2,11.123,35.578.175,1.53.378,3.062.617,4.592,2.8,17.932-3.563,47.549-3.563,47.549" transform="translate(44.117 149.567)" fill="#878787"/>
              <path id="Trazado_875787" data-name="Trazado 875787" d="M51.9,150.524s11.414-18.579,20.252-9.017c0,0,5.777,1.476,9.088,10.472,3.376,9.179-1.883,17.282-5.394,15.974C73.6,167.112,72.542,171,72.542,171Z" transform="translate(48.119 128.655)" fill="#171717"/>
              <path id="Trazado_875788" data-name="Trazado 875788" d="M61.5,142.8s.784-7.691,12.023-6.943c0,0-5.315.094-6.454,2.313,0,0,3.862-2.492,6.681-1.28s4.014,6.487,3.864,8.167-2.32,6.924-4.215,7.2-4.375-1.066-4.375-1.066Z" transform="translate(57.021 125.902)" fill="#171717"/>
              <path id="Trazado_875789" data-name="Trazado 875789" d="M72.1,169.137a51.842,51.842,0,0,1-3.889-14.752l-.676.237-11.343,3.995s.794,3.636,1.3,7.1c.208,1.416.357,3.941.453,6.147.1,2.255,2.316,2.467,4.571,2.363,6-.277,9.3-2.515,9.583-5.088" transform="translate(52.091 143.131)" fill="#eee4ba"/>
              <path id="Trazado_875790" data-name="Trazado 875790" d="M56.186,158.5s.8,3.636,1.3,7.1c6.508-1.125,9.1-7.585,10.042-11.092Z" transform="translate(52.09 143.245)" fill="#e8d89e"/>
              <path id="Trazado_875791" data-name="Trazado 875791" d="M73.319,164.894s2.644-5.9,2.8-10.649c.11-3.39-3.338-15.39-15.388-11.854a16.878,16.878,0,0,0-6.554,3.621c-2.413,2.189-5.706,6.639.145,16.7l1.64,3.45Z" transform="translate(47.325 131.413)" fill="#171717"/>
              <path id="Trazado_875792" data-name="Trazado 875792" d="M59.063,171.532s15.5-1.973,14.12-11.607-.3-16.375-10.258-15.521-11.347,4.8-11.669,8.13,3.741,19.263,7.807,19" transform="translate(47.504 133.81)" fill="#eee4ba"/>
              <path id="Trazado_875793" data-name="Trazado 875793" d="M53.631,146.02s5.862,10.69,12.6,11.424,9.3-1.413,9.3-1.413a18.589,18.589,0,0,1-7.583-10s-11.9-5.847-14.32-.01" transform="translate(49.721 132.973)" fill="#171717"/>
              <path id="Trazado_875794" data-name="Trazado 875794" d="M57.672,145.879s-2.8,2.979-3.214,5.542-.037,7.662-1.534,7.7c0,0-4.3-7.221-1.337-12.081,3.137-5.155,6.086-1.164,6.086-1.164" transform="translate(46.862 133.879)" fill="#171717"/>
              <path id="Trazado_875795" data-name="Trazado 875795" d="M53.968,146.987s4.721,11.4,13.465,14.006c0,0-9.244-6.088-11.067-13.8s-2.4-.206-2.4-.206" transform="translate(50.034 133.236)" fill="#171717"/>
              <path id="Trazado_875796" data-name="Trazado 875796" d="M81.99,233.5s-4.409,2.224-12.206,2.875h-.006s-6.406-8.03.74-17.03-.557-25.6,4.945-34.634c3.831-6.284,7.558-4.822,9.474-3.353.175,1.53.378,3.062.617,4.592,2.8,17.932-3.563,47.549-3.563,47.549" transform="translate(62.244 166.957)" fill="#696969"/>
              <path id="Trazado_875797" data-name="Trazado 875797" d="M91.691,200.878s.95,2.212,2.278,2.361a27.754,27.754,0,0,1,6.941,2.442c1.758,1.043,1.638,5.708-.118,6.147s-2.634-3.477-8.123-4.525c-1.862-.357-4.573.931-5.671-3.529Z" transform="translate(80.657 186.235)" fill="#eee4ba"/>
              <path id="Trazado_875798" data-name="Trazado 875798" d="M72.186,162.344c15.958,5.87,16.548,34.141,23.663,46.592,7.336,12.84,14.482,29.741,14.482,29.741s-.129.507-2.866,1.289a11.4,11.4,0,0,1-3.937.318s-15.078-13.638-19.175-19.019S70.6,190.921,70.6,190.921s-4.748-30.907,1.586-28.577" transform="translate(63.869 150.394)" fill="#878787"/>
              <path id="Trazado_875799" data-name="Trazado 875799" d="M87.2,202.953a6.036,6.036,0,0,0,2.74,3.436c2.355,1.536,4.242,3.074,4.469,2.122s-1.31-1.975-1.677-3.731-5.533-1.827-5.533-1.827" transform="translate(80.847 188.158)" fill="#eee4ba"/>
              <path id="Trazado_875800" data-name="Trazado 875800" d="M429.285,98.358H159.633l14.376-63.895h240.9Z" transform="translate(147.996 31.951)" fill="#e8b872"/>
              <rect id="Rectángulo_402742" data-name="Rectángulo 402742" width="24.731" height="24.73" transform="translate(356.637 85.38)" fill="#c7c7c7"/>
              <path id="Trazado_875801" data-name="Trazado 875801" d="M184.47,70.728h27.022V43.712H184.47ZM209.2,68.441H186.761V46H209.2Z" transform="translate(171.023 40.526)" fill="#121212"/>
              <rect id="Rectángulo_402743" data-name="Rectángulo 402743" width="2.239" height="24.731" transform="translate(367.882 85.38)" fill="#121212"/>
              <rect id="Rectángulo_402744" data-name="Rectángulo 402744" width="35.804" height="5.186" transform="translate(350.578 79.611)" fill="#121212"/>
              <rect id="Rectángulo_402745" data-name="Rectángulo 402745" width="24.731" height="24.73" transform="translate(430.239 85.38)" fill="#c7c7c7"/>
              <path id="Trazado_875802" data-name="Trazado 875802" d="M222.664,70.728h27.022V43.712H222.664Zm24.729-2.287H224.95V46h22.443Z" transform="translate(206.432 40.526)" fill="#121212"/>
              <rect id="Rectángulo_402746" data-name="Rectángulo 402746" width="2.239" height="24.731" transform="translate(441.486 85.38)" fill="#121212"/>
              <rect id="Rectángulo_402747" data-name="Rectángulo 402747" width="35.804" height="5.186" transform="translate(423.909 79.611)" fill="#121212"/>
              <rect id="Rectángulo_402748" data-name="Rectángulo 402748" width="24.731" height="24.73" transform="translate(503.571 85.38)" fill="#c7c7c7"/>
              <path id="Trazado_875803" data-name="Trazado 875803" d="M260.716,70.728h27.022V43.712H260.716Zm24.731-2.287H263V46h22.443Z" transform="translate(241.711 40.526)" fill="#121212"/>
              <rect id="Rectángulo_402749" data-name="Rectángulo 402749" width="2.239" height="24.731" transform="translate(514.816 85.38)" fill="#121212"/>
              <rect id="Rectángulo_402750" data-name="Rectángulo 402750" width="35.804" height="5.186" transform="translate(497.241 79.611)" fill="#121212"/>
              <path id="Trazado_875804" data-name="Trazado 875804" d="M1.752,298.341H36.973c1.887-1.6-1.307-5.236-4.642-5.481a20.53,20.53,0,0,0-5.377.636c-.484-6.438-3.253-35.378-13.684-34.216-11.728,1.3,0,12.746,3.317,19.52a161.252,161.252,0,0,1,6.23,15.61c-.952.206-1.939.409-2.945.594-1.555-4.772-7.338-20.828-14.7-19.893-8.635,1.1-5.165,7.533.958,11.354,4.49,2.81,10.006,6.8,12.626,8.734a37.506,37.506,0,0,1-6.889.553c-6.032-.144-8.978,1.634-10.119,2.59" transform="translate(0 240.348)" fill="#9f89c0"/>
              <path id="Trazado_875805" data-name="Trazado 875805" d="M195.128,106.574a2.137,2.137,0,1,0-2.137,2.137,2.137,2.137,0,0,0,2.137-2.137" transform="translate(176.941 96.824)" fill="#121212"/>
              <path id="Trazado_875806" data-name="Trazado 875806" d="M197.948,105.869a.7.7,0,0,1-.488-.195,4.785,4.785,0,0,0-3.453-1.526,5,5,0,0,0-3.13,1.486.712.712,0,0,1-1.058-.954,6.378,6.378,0,0,1,4.116-1.954,6.145,6.145,0,0,1,4.5,1.912.713.713,0,0,1-.489,1.231" transform="translate(175.814 95.233)" fill="#121212"/>
              <path id="Trazado_875807" data-name="Trazado 875807" d="M201.23,104.751a.7.7,0,0,1-.488-.195,7.983,7.983,0,0,0-5.776-2.53,8.323,8.323,0,0,0-5.238,2.49.713.713,0,0,1-1.06-.954,9.649,9.649,0,0,1,6.225-2.958,9.324,9.324,0,0,1,6.824,2.916.712.712,0,0,1-.488,1.231" transform="translate(174.748 93.264)" fill="#121212"/>
              <path id="Trazado_875808" data-name="Trazado 875808" d="M204.689,103.7a.7.7,0,0,1-.488-.195c-2.646-2.492-5.413-3.7-8.223-3.586a11.822,11.822,0,0,0-7.46,3.546.713.713,0,0,1-1.06-.954A13.08,13.08,0,0,1,195.9,98.5c3.214-.135,6.334,1.2,9.275,3.972a.713.713,0,0,1-.49,1.231" transform="translate(173.624 91.308)" fill="#121212"/>
              <path id="Trazado_875809" data-name="Trazado 875809" d="M127.993,101.743H114.077a.926.926,0,0,1,0-1.852h13.916a.926.926,0,0,1,0,1.852" transform="translate(104.904 92.609)" fill="#121212"/>
              <path id="Trazado_875810" data-name="Trazado 875810" d="M127.993,103.869H114.077a.926.926,0,0,1,0-1.852h13.916a.926.926,0,0,1,0,1.852" transform="translate(104.904 94.58)" fill="#121212"/>
              <path id="Trazado_875811" data-name="Trazado 875811" d="M127.993,106.141H114.077a.926.926,0,0,1,0-1.852h13.916a.926.926,0,0,1,0,1.852" transform="translate(104.904 96.687)" fill="#121212"/>
              <path id="Trazado_875812" data-name="Trazado 875812" d="M34.31,45.489s5.1-9.134,17.3-8.121c0,0,17.712-15.226,36.6-2.029,0,0,20.078-3.27,34.948,2.831,9.913,4.068,13.187,8.335,13.187,8.335Z" transform="translate(31.809 27.774)" fill="#aad9b2"/>
              <path id="Trazado_875814" data-name="Trazado 875814" d="M57.841,70.178S66.49,55.018,87.171,56.7c0,0,30.028-25.268,62.047-3.369,0,0,34.04-5.427,59.245,4.7,16.806,6.751,22.356,13.831,22.356,13.831Z" transform="translate(53.625 41.166)" fill="#aad9b2"/>
              <path id="Trazado_875815" data-name="Trazado 875815" d="M148.074,229.033a22.644,22.644,0,1,1,22.643,22.643,22.643,22.643,0,0,1-22.643-22.643" transform="translate(137.28 191.345)" fill="#ededed"/>
              <path id="Trazado_875816" data-name="Trazado 875816" d="M142.206,237.316c.653,19.5,34.541,49.582,34.541,49.582s31.8-32.277,31.148-51.781-15.887-34.829-34.027-34.222-32.316,16.916-31.662,36.42m13.422-2.523a19.364,19.364,0,1,1,20,18.7,19.4,19.4,0,0,1-20-18.7" transform="translate(131.82 186.234)" fill="#e7d79a"/>
            </g>
          </g>
        </g>
      </g>
    </g>
  </g>
</svg>
