<svg xmlns="http://www.w3.org/2000/svg" xmlns:xlink="http://www.w3.org/1999/xlink" width="104" height="104" viewBox="0 0 104 104">
  <defs>
    <clipPath id="clip-path">
      <rect id="Rectángulo_402579" data-name="Rectángulo 402579" width="53.884" height="53.472" fill="none"/>
    </clipPath>
  </defs>
  <g id="Grupo_1102510" data-name="Grupo 1102510" transform="translate(-803.051 -2889)">
    <g id="Grupo_1102239" data-name="Grupo 1102239">
      <g id="Grupo_1102234" data-name="Grupo 1102234">
        <g id="Grupo_1102223" data-name="Grupo 1102223" transform="translate(0 903)">
          <g id="Grupo_1102217" data-name="Grupo 1102217" transform="translate(-219 1592)">
            <g id="Elipse_11492" data-name="Elipse 11492" transform="translate(1022.051 394)" fill="#95dbb3" stroke="#fff" stroke-width="2">
              <circle cx="52" cy="52" r="52" stroke="none"/>
              <circle cx="52" cy="52" r="51" fill="none"/>
            </g>
            <g id="Elipse_11500" data-name="Elipse 11500" transform="translate(1030.802 402.752)" fill="none" stroke="#000" stroke-width="2" stroke-dasharray="5">
              <circle cx="43.758" cy="43.758" r="43.758" stroke="none"/>
              <circle cx="43.758" cy="43.758" r="42.758" fill="none"/>
            </g>
          </g>
          <g id="Grupo_1102233" data-name="Grupo 1102233" transform="translate(828.109 2011.264)">
            <g id="Grupo_1102232" data-name="Grupo 1102232" clip-path="url(#clip-path)">
              <path id="Trazado_875327" data-name="Trazado 875327" d="M108.978,40.551a9.05,9.05,0,0,1,3.4,8.249c-.066,1.048,0,2.1-.014,3.156-.016,1.137-.38,1.509-1.517,1.512-3.963.009-7.926,0-11.889,0q-7.47,0-14.941,0c-1.393,0-1.747-.345-1.743-1.733.005-1.753-.045-3.511.083-5.256a8.1,8.1,0,0,1,2.856-5.555c-.691-2.01-1.473-3.877-1.952-5.818a28.85,28.85,0,0,1-.277-3.971,2.065,2.065,0,0,0-.567-1.212,4.139,4.139,0,0,1-1.459-3.138c0-.245,0-.491,0-.736,0-3.528,1.217-4.8,4.743-4.961.135-.006.268-.04.559-.085-.357-3.8.378-7.25,3.364-9.924,3.008-2.693,6.648-2.638,10.426-2.386a9.056,9.056,0,0,1,4.361-7.405A8.361,8.361,0,0,1,110.262.12a8.828,8.828,0,0,1,7.53,9.2,8.944,8.944,0,0,1-9.118,8.452V21.1c.424,0,.8-.019,1.173,0a3.9,3.9,0,0,1,3.849,3.724c.158,2.108.153,4.184-2.006,5.478a1.039,1.039,0,0,0-.308.805,15.187,15.187,0,0,1-2.4,9.439M110.041,51.1c0-1.311.012-2.5,0-3.693a6.154,6.154,0,0,0-6.179-6.237,2.156,2.156,0,0,0-1.366.544c-1.433,1.341-2.788,2.765-4.19,4.14-.809.794-1.333.786-2.148-.018-1.4-1.378-2.764-2.791-4.186-4.145a1.9,1.9,0,0,0-1.166-.523,6.028,6.028,0,0,0-5.97,4.685,40.3,40.3,0,0,0-.322,5.247ZM97.5,18.275a26.8,26.8,0,0,1-4.1,2.64,28.262,28.262,0,0,1-4.855,1.112c0,1.83-.025,3.822.005,5.812a8.868,8.868,0,0,0,15.625,5.55c.18-.212.324-.454.5-.709-1.022.12-1.919.289-2.818.307a1.484,1.484,0,0,0-1.358.724c-1.016,1.453-2.55,1.646-4.138,1.377a3.327,3.327,0,0,1-2.743-2.464,3.474,3.474,0,0,1,2.014-4.237,4.14,4.14,0,0,1,5.112,1.474c.185.3.423.715.708.785a4.059,4.059,0,0,0,4.7-3.08,48.9,48.9,0,0,0,.047-5.715,10.3,10.3,0,0,1-8.7-3.578m11.475-2.885a6.527,6.527,0,1,0-6.538-6.559,6.535,6.535,0,0,0,6.538,6.559M106.189,19.5c.232-1.971.229-1.965-1.32-2.791a8.474,8.474,0,0,1-4.186-4.79A1.208,1.208,0,0,0,99.4,10.96c-1.332.005-2.671-.083-3.995.021a7.539,7.539,0,0,0-6.746,8.391,7.442,7.442,0,0,0,7.154-3.254c1.372-1.937,1.679-1.934,3.058.059a7.744,7.744,0,0,0,7.318,3.324m-20.8,11.362a12.325,12.325,0,0,0,1.669,7.954,1.162,1.162,0,0,0,.85.506c1.626-.123,3.247-.322,4.867-.515a4.805,4.805,0,0,0,.824-.249c-.22-.218-.4-.519-.665-.642a11.024,11.024,0,0,1-5.922-6.205c-.3-.788-.657-1.188-1.624-.849m21.68,8.312a11.712,11.712,0,0,0,1.789-8.644c-.384.375-.76.578-.876.882a11.384,11.384,0,0,1-6.346,6.615,4.767,4.767,0,0,0-.678.44l.088.205,6.022.5M86.153,28.4V23.473c-1-.074-2.2-.319-2.537.721a6.076,6.076,0,0,0-.05,3.413c.335,1.135,1.579.83,2.587.795M99.666,41.158c-1.25-.414-.874-1.511-1.067-2.31H95.988c-.1.94.271,2.049-1.135,2.329l2.383,2.4,2.429-2.421m9-17.673v4.887c.907.1,2.048.316,2.336-.63a6.821,6.821,0,0,0,.069-3.518c-.245-.957-1.376-.864-2.4-.739m-11.3,6.936c-.966-.008-1.538.409-1.576,1.149s.524,1.246,1.45,1.269c1.033.026,1.637-.4,1.613-1.2-.029-.95-.665-1.211-1.487-1.22" transform="translate(-63.915 -0.001)"/>
              <path id="Trazado_875328" data-name="Trazado 875328" d="M10.324,28.179q-4.313,0-8.626,0c-1.352,0-1.693-.335-1.695-1.66Q0,20.048,0,13.578c0-1.279.344-1.627,1.614-1.628q8.784-.009,17.567,0c1.291,0,1.643.342,1.645,1.6q.01,6.522,0,13.044c0,1.2-.372,1.577-1.564,1.581-2.98.01-5.961,0-8.941,0M2.377,25.79H18.44V14.317H2.377Z" transform="translate(0 -9.431)"/>
              <path id="Trazado_875329" data-name="Trazado 875329" d="M8.879,161.232l.87,1.9c.3-.1.557-.2.819-.26a2.741,2.741,0,0,1,2.847.609,8.16,8.16,0,0,1,2.215,5.811c-.128,2.81-6.135,5.7-8.517,3.34a6.212,6.212,0,0,1-1.3-1.749Q3.084,164.917.455,158.9a4.117,4.117,0,0,1,2.159-5.695c.635-.3,1.271-.594,1.927-.835a4.122,4.122,0,0,1,5.187,2c.293.557.534,1.141.79,1.717,1.112,2.5.749,3.691-1.638,5.144M9.026,166c-.327-.32-.767-.584-.961-.971-.626-1.249-1.155-2.546-1.735-3.818a1.2,1.2,0,0,1,.6-1.749c2.05-1.131,2.049-1.133,1.087-3.271-.1-.223-.19-.452-.3-.668a1.832,1.832,0,0,0-2.271-1.015c-2.248.675-3.234,1.552-3.088,2.757a1.777,1.777,0,0,0,.141.5q2.751,6.179,5.516,12.353a1.594,1.594,0,0,0,1.957,1.05c2.783-.968,4.387-1.38,2.656-4.681a6.051,6.051,0,0,1-.306-.667c-.291-.768-.8-.881-1.5-.554-.535.249-1.093.448-1.793.731" transform="translate(-0.019 -120.08)"/>
              <path id="Trazado_875330" data-name="Trazado 875330" d="M135.014,111.566c0,.279.1.611-.021.825-.2.368-.5.874-.826.931-.38.067-1.16-.236-1.2-.467a7.985,7.985,0,0,1,.04-2.614c.037-.207,1-.528,1.2-.37a6.286,6.286,0,0,1,1.069,1.535l-.264.16" transform="translate(-104.912 -86.711)"/>
              <path id="Trazado_875331" data-name="Trazado 875331" d="M177.317,111.5c-.02.312.06.684-.083.922-.212.354-.549.8-.894.862s-1.068-.259-1.1-.486a8.7,8.7,0,0,1,.037-2.616c.035-.211.774-.491,1.132-.426.949.172.911.993.907,1.743" transform="translate(-138.291 -86.648)"/>
              <path id="Trazado_875332" data-name="Trazado 875332" d="M25.391,36.7c-.715-.643-1.318-1.175-1.909-1.721a1.1,1.1,0,0,1-.2-1.666,1.118,1.118,0,0,1,1.755-.041c1.158,1.012,2.3,2.04,3.526,3.128,1.123-1,2.218-1.969,3.3-2.951.605-.549,1.258-.886,1.921-.182s.293,1.34-.326,1.885c-.548.482-1.088.973-1.739,1.556.61.466,1.156.882,1.7,1.3.622.477,1,1.056.451,1.784-.538.708-1.194.58-1.836.085-.664-.512-1.336-1.013-2.1-1.589-.874,1.039-1.819,1.136-2.739-.006-.792.595-1.511,1.142-2.239,1.678a1.159,1.159,0,1,1-1.389-1.843c.57-.453,1.148-.894,1.82-1.417" transform="translate(-18.143 -25.946)"/>
            </g>
          </g>
        </g>
      </g>
    </g>
  </g>
</svg>
