<svg xmlns="http://www.w3.org/2000/svg" xmlns:xlink="http://www.w3.org/1999/xlink" width="714.764" height="74.253" viewBox="0 0 714.764 74.253">
  <defs>
    <clipPath id="clip-path">
      <rect id="Rect치ngulo_402597" data-name="Rect치ngulo 402597" width="357.5" height="74.253" fill="#a98bc4"/>
    </clipPath>
    <clipPath id="clip-path-2">
      <rect id="Rect치ngulo_402597-2" data-name="Rect치ngulo 402597" width="367.764" height="74.253" fill="#a98bc4"/>
    </clipPath>
  </defs>
  <g id="Grupo_1102514" data-name="Grupo 1102514" transform="translate(-705.236 -5828.255)">
    <g id="Grupo_1102256" data-name="Grupo 1102256">
      <g id="Grupo_1102254" data-name="Grupo 1102254" transform="translate(705.236 5828.255)">
        <g id="Grupo_1102253" data-name="Grupo 1102253" transform="translate(0 0)" clip-path="url(#clip-path)">
          <path id="Trazado_875336" data-name="Trazado 875336" d="M318.744,14.65c-10.134,0-15.342-2.906-19.937-5.468-4.134-2.307-7.7-4.3-15.081-4.3s-10.939,1.992-15.071,4.3c-4.592,2.562-9.8,5.468-19.925,5.468S233.4,11.744,228.8,9.182c-4.132-2.307-7.7-4.3-15.076-4.3s-10.937,1.992-15.066,4.3c-4.6,2.564-9.8,5.469-19.927,5.469S163.4,11.744,158.8,9.182c-4.134-2.307-7.7-4.3-15.073-4.3s-10.939,1.992-15.071,4.3c-4.592,2.564-9.8,5.469-19.93,5.469S93.395,11.744,88.8,9.182c-4.132-2.307-7.7-4.3-15.071-4.3s-10.937,1.992-15.068,4.3c-4.593,2.564-9.8,5.469-19.925,5.469S23.4,11.744,18.811,9.182c-4.132-2.307-7.7-4.3-15.073-4.3C1.675,4.883,0,3.791,0,2.442S1.675,0,3.738,0c10.129,0,15.337,2.906,19.93,5.469,4.132,2.3,7.7,4.3,15.071,4.3s10.937-1.992,15.068-4.3C58.4,2.906,63.6,0,73.732,0S89.067,2.906,93.659,5.468c4.134,2.307,7.7,4.3,15.071,4.3s10.939-1.992,15.073-4.3C128.4,2.906,133.6,0,143.731,0s15.335,2.906,19.927,5.468c4.134,2.307,7.7,4.3,15.073,4.3s10.939-1.992,15.068-4.3C198.392,2.906,203.6,0,213.725,0s15.337,2.906,19.932,5.468c4.132,2.307,7.7,4.3,15.073,4.3s10.937-1.992,15.068-4.3C268.391,2.906,273.6,0,283.726,0s15.34,2.906,19.935,5.468c4.134,2.307,7.707,4.3,15.083,4.3s10.947-1.992,15.081-4.3C338.42,2.906,343.628,0,353.762,0c2.066,0,3.738,1.092,3.738,2.442s-1.672,2.442-3.738,2.442c-7.376,0-10.947,1.992-15.083,4.3-4.6,2.562-9.8,5.468-19.935,5.468" transform="translate(0 0)" fill="#a98bc4"/>
          <path id="Trazado_875337" data-name="Trazado 875337" d="M318.744,23.8c-10.134,0-15.342-2.906-19.937-5.468-4.134-2.307-7.7-4.3-15.081-4.3s-10.939,1.992-15.071,4.3c-4.592,2.562-9.8,5.468-19.925,5.468S233.4,20.9,228.8,18.336c-4.132-2.307-7.7-4.3-15.076-4.3s-10.937,1.992-15.066,4.3c-4.6,2.564-9.8,5.469-19.927,5.469S163.4,20.9,158.8,18.336c-4.134-2.307-7.7-4.3-15.073-4.3s-10.939,1.992-15.071,4.3c-4.592,2.564-9.8,5.469-19.93,5.469S93.395,20.9,88.8,18.336c-4.132-2.307-7.7-4.3-15.071-4.3s-10.937,1.992-15.068,4.3C54.071,20.9,48.865,23.8,38.738,23.8S23.4,20.9,18.811,18.336c-4.132-2.307-7.7-4.3-15.073-4.3C1.675,14.037,0,12.945,0,11.6S1.675,9.154,3.738,9.154c10.129,0,15.337,2.906,19.93,5.469,4.132,2.3,7.7,4.3,15.071,4.3s10.937-1.992,15.068-4.3C58.4,12.06,63.6,9.154,73.732,9.154s15.335,2.906,19.927,5.468c4.134,2.307,7.7,4.3,15.071,4.3s10.939-1.992,15.073-4.3c4.593-2.562,9.8-5.468,19.927-5.468s15.335,2.906,19.927,5.468c4.134,2.307,7.7,4.3,15.073,4.3s10.939-1.992,15.068-4.3c4.592-2.564,9.8-5.469,19.925-5.469s15.337,2.906,19.932,5.468c4.132,2.307,7.7,4.3,15.073,4.3s10.937-1.992,15.068-4.3c4.592-2.564,9.8-5.469,19.927-5.469s15.34,2.906,19.935,5.468c4.134,2.307,7.707,4.3,15.083,4.3s10.947-1.992,15.081-4.3c4.595-2.562,9.8-5.468,19.937-5.468,2.066,0,3.738,1.092,3.738,2.442s-1.672,2.442-3.738,2.442c-7.376,0-10.947,1.992-15.083,4.3-4.6,2.562-9.8,5.468-19.935,5.468" transform="translate(0 5.746)" fill="#a98bc4"/>
          <path id="Trazado_875338" data-name="Trazado 875338" d="M318.744,32.959c-10.134,0-15.342-2.906-19.937-5.468-4.134-2.307-7.7-4.3-15.081-4.3s-10.939,1.992-15.071,4.3c-4.592,2.562-9.8,5.468-19.925,5.468S233.4,30.053,228.8,27.491c-4.132-2.307-7.7-4.3-15.076-4.3s-10.937,1.992-15.066,4.3c-4.6,2.564-9.8,5.469-19.927,5.469S163.4,30.053,158.8,27.491c-4.134-2.307-7.7-4.3-15.073-4.3s-10.939,1.992-15.071,4.3c-4.592,2.564-9.8,5.469-19.93,5.469S93.395,30.053,88.8,27.491c-4.132-2.307-7.7-4.3-15.071-4.3s-10.937,1.992-15.068,4.3c-4.593,2.564-9.8,5.469-19.925,5.469S23.4,30.053,18.811,27.491c-4.132-2.307-7.7-4.3-15.073-4.3C1.675,23.192,0,22.1,0,20.751s1.675-2.442,3.738-2.442c10.129,0,15.337,2.906,19.93,5.469,4.132,2.3,7.7,4.3,15.071,4.3s10.937-1.992,15.068-4.3c4.593-2.562,9.8-5.468,19.925-5.468s15.335,2.906,19.927,5.468c4.134,2.307,7.7,4.3,15.071,4.3s10.939-1.992,15.073-4.3c4.593-2.562,9.8-5.468,19.927-5.468s15.335,2.906,19.927,5.468c4.134,2.307,7.7,4.3,15.073,4.3s10.939-1.992,15.068-4.3c4.592-2.564,9.8-5.469,19.925-5.469s15.337,2.906,19.932,5.468c4.132,2.307,7.7,4.3,15.073,4.3s10.937-1.992,15.068-4.3c4.592-2.564,9.8-5.469,19.927-5.469s15.34,2.906,19.935,5.468c4.134,2.307,7.707,4.3,15.083,4.3s10.947-1.992,15.081-4.3c4.595-2.562,9.8-5.468,19.937-5.468,2.066,0,3.738,1.092,3.738,2.442s-1.672,2.442-3.738,2.442c-7.376,0-10.947,1.992-15.083,4.3-4.6,2.562-9.8,5.468-19.935,5.468" transform="translate(0 11.493)" fill="#a98bc4"/>
          <path id="Trazado_875339" data-name="Trazado 875339" d="M318.744,42.113c-10.134,0-15.342-2.906-19.937-5.468-4.134-2.307-7.7-4.3-15.081-4.3s-10.939,1.992-15.071,4.3c-4.592,2.562-9.8,5.468-19.925,5.468S233.4,39.207,228.8,36.645c-4.132-2.307-7.7-4.3-15.076-4.3s-10.937,1.992-15.066,4.3c-4.6,2.564-9.8,5.469-19.927,5.469S163.4,39.207,158.8,36.645c-4.134-2.307-7.7-4.3-15.073-4.3s-10.939,1.992-15.071,4.3c-4.592,2.564-9.8,5.469-19.93,5.469S93.395,39.207,88.8,36.645c-4.132-2.307-7.7-4.3-15.071-4.3s-10.937,1.992-15.068,4.3c-4.593,2.564-9.8,5.469-19.925,5.469S23.4,39.207,18.811,36.645c-4.132-2.307-7.7-4.3-15.073-4.3C1.675,32.346,0,31.254,0,29.9s1.675-2.442,3.738-2.442c10.129,0,15.337,2.906,19.93,5.469,4.132,2.3,7.7,4.3,15.071,4.3s10.937-1.992,15.068-4.3c4.593-2.562,9.8-5.468,19.925-5.468s15.335,2.906,19.927,5.468c4.134,2.307,7.7,4.3,15.071,4.3s10.939-1.992,15.073-4.3c4.593-2.562,9.8-5.468,19.927-5.468s15.335,2.906,19.927,5.468c4.134,2.307,7.7,4.3,15.073,4.3s10.939-1.992,15.068-4.3c4.592-2.564,9.8-5.469,19.925-5.469s15.337,2.906,19.932,5.468c4.132,2.307,7.7,4.3,15.073,4.3s10.937-1.992,15.068-4.3c4.592-2.564,9.8-5.469,19.927-5.469s15.34,2.906,19.935,5.468c4.134,2.307,7.707,4.3,15.083,4.3s10.947-1.992,15.081-4.3c4.595-2.562,9.8-5.468,19.937-5.468,2.066,0,3.738,1.092,3.738,2.442s-1.672,2.442-3.738,2.442c-7.376,0-10.947,1.992-15.083,4.3-4.6,2.562-9.8,5.468-19.935,5.468" transform="translate(0 17.24)" fill="#a98bc4"/>
          <path id="Trazado_875340" data-name="Trazado 875340" d="M318.744,51.267c-10.134,0-15.342-2.906-19.937-5.468-4.134-2.307-7.7-4.3-15.081-4.3s-10.939,1.992-15.071,4.3c-4.592,2.562-9.8,5.468-19.925,5.468S233.4,48.361,228.8,45.8c-4.132-2.307-7.7-4.3-15.076-4.3s-10.937,1.992-15.066,4.3c-4.6,2.564-9.8,5.469-19.927,5.469S163.4,48.361,158.8,45.8c-4.134-2.307-7.7-4.3-15.073-4.3s-10.939,1.992-15.071,4.3c-4.592,2.564-9.8,5.469-19.93,5.469S93.395,48.361,88.8,45.8c-4.132-2.307-7.7-4.3-15.071-4.3s-10.937,1.992-15.068,4.3c-4.593,2.564-9.8,5.469-19.925,5.469S23.4,48.361,18.811,45.8c-4.132-2.307-7.7-4.3-15.073-4.3C1.675,41.5,0,40.408,0,39.059s1.675-2.442,3.738-2.442c10.129,0,15.337,2.906,19.93,5.469,4.132,2.3,7.7,4.3,15.071,4.3s10.937-1.992,15.068-4.3c4.593-2.562,9.8-5.468,19.925-5.468s15.335,2.906,19.927,5.468c4.134,2.307,7.7,4.3,15.071,4.3s10.939-1.992,15.073-4.3c4.593-2.562,9.8-5.468,19.927-5.468s15.335,2.906,19.927,5.468c4.134,2.307,7.7,4.3,15.073,4.3s10.939-1.992,15.068-4.3c4.592-2.564,9.8-5.469,19.925-5.469s15.337,2.906,19.932,5.468c4.132,2.307,7.7,4.3,15.073,4.3s10.937-1.992,15.068-4.3c4.592-2.564,9.8-5.469,19.927-5.469s15.34,2.906,19.935,5.468c4.134,2.307,7.707,4.3,15.083,4.3s10.947-1.992,15.081-4.3c4.595-2.562,9.8-5.468,19.937-5.468,2.066,0,3.738,1.092,3.738,2.442s-1.672,2.442-3.738,2.442c-7.376,0-10.947,1.992-15.083,4.3-4.6,2.562-9.8,5.468-19.935,5.468" transform="translate(0 22.986)" fill="#a98bc4"/>
        </g>
      </g>
      <g id="Grupo_1102255" data-name="Grupo 1102255" transform="translate(1052.236 5828.255)">
        <g id="Grupo_1102253-2" data-name="Grupo 1102253" transform="translate(0 0)" clip-path="url(#clip-path-2)">
          <path id="Trazado_875336-2" data-name="Trazado 875336" d="M327.9,14.65c-10.425,0-15.783-2.906-20.51-5.468-4.253-2.307-7.926-4.3-15.514-4.3s-11.253,1.992-15.5,4.3c-4.724,2.562-10.077,5.468-20.5,5.468s-15.775-2.906-20.5-5.468c-4.25-2.307-7.923-4.3-15.509-4.3s-11.251,1.992-15.5,4.3c-4.727,2.564-10.079,5.469-20.5,5.469s-15.775-2.906-20.5-5.468c-4.253-2.307-7.923-4.3-15.506-4.3s-11.253,1.992-15.5,4.3c-4.724,2.564-10.082,5.469-20.5,5.469s-15.775-2.906-20.5-5.468c-4.25-2.307-7.921-4.3-15.5-4.3s-11.251,1.992-15.5,4.3c-4.724,2.564-10.079,5.469-20.5,5.469s-15.775-2.906-20.5-5.468c-4.25-2.307-7.923-4.3-15.506-4.3C1.723,4.883,0,3.791,0,2.442S1.723,0,3.845,0c10.42,0,15.778,2.906,20.5,5.469,4.25,2.3,7.921,4.3,15.5,4.3s11.251-1.992,15.5-4.3C60.076,2.906,65.431,0,75.849,0s15.775,2.906,20.5,5.468c4.253,2.307,7.923,4.3,15.5,4.3s11.253-1.992,15.506-4.3C132.082,2.906,137.437,0,147.857,0s15.775,2.906,20.5,5.468c4.253,2.307,7.923,4.3,15.506,4.3s11.253-1.992,15.5-4.3C204.088,2.906,209.443,0,219.86,0s15.778,2.906,20.5,5.468c4.25,2.307,7.923,4.3,15.506,4.3s11.251-1.992,15.5-4.3C276.1,2.906,281.451,0,291.872,0s15.78,2.906,20.507,5.468c4.253,2.307,7.929,4.3,15.516,4.3s11.261-1.992,15.514-4.3C348.136,2.906,353.493,0,363.919,0c2.125,0,3.845,1.092,3.845,2.442s-1.72,2.442-3.845,2.442c-7.588,0-11.261,1.992-15.516,4.3-4.727,2.562-10.084,5.468-20.507,5.468" transform="translate(0 0)" fill="#a98bc4"/>
          <path id="Trazado_875337-2" data-name="Trazado 875337" d="M327.9,23.8c-10.425,0-15.783-2.906-20.51-5.468-4.253-2.307-7.926-4.3-15.514-4.3s-11.253,1.992-15.5,4.3c-4.724,2.562-10.077,5.468-20.5,5.468s-15.775-2.906-20.5-5.468c-4.25-2.307-7.923-4.3-15.509-4.3s-11.251,1.992-15.5,4.3c-4.727,2.564-10.079,5.469-20.5,5.469s-15.775-2.906-20.5-5.468c-4.253-2.307-7.923-4.3-15.506-4.3s-11.253,1.992-15.5,4.3c-4.724,2.564-10.082,5.469-20.5,5.469s-15.775-2.906-20.5-5.468c-4.25-2.307-7.921-4.3-15.5-4.3s-11.251,1.992-15.5,4.3C55.623,20.9,50.268,23.8,39.851,23.8s-15.775-2.906-20.5-5.468c-4.25-2.307-7.923-4.3-15.506-4.3C1.723,14.037,0,12.945,0,11.6S1.723,9.154,3.845,9.154c10.42,0,15.778,2.906,20.5,5.469,4.25,2.3,7.921,4.3,15.5,4.3s11.251-1.992,15.5-4.3c4.724-2.562,10.079-5.468,20.5-5.468s15.775,2.906,20.5,5.468c4.253,2.307,7.923,4.3,15.5,4.3s11.253-1.992,15.506-4.3c4.724-2.562,10.079-5.468,20.5-5.468s15.775,2.906,20.5,5.468c4.253,2.307,7.923,4.3,15.506,4.3s11.253-1.992,15.5-4.3c4.724-2.564,10.079-5.469,20.5-5.469s15.778,2.906,20.5,5.468c4.25,2.307,7.923,4.3,15.506,4.3s11.251-1.992,15.5-4.3c4.724-2.564,10.079-5.469,20.5-5.469s15.78,2.906,20.507,5.468c4.253,2.307,7.929,4.3,15.516,4.3s11.261-1.992,15.514-4.3c4.727-2.562,10.084-5.468,20.51-5.468,2.125,0,3.845,1.092,3.845,2.442s-1.72,2.442-3.845,2.442c-7.588,0-11.261,1.992-15.516,4.3C343.675,20.9,338.318,23.8,327.9,23.8" transform="translate(0 5.746)" fill="#a98bc4"/>
          <path id="Trazado_875338-2" data-name="Trazado 875338" d="M327.9,32.959c-10.425,0-15.783-2.906-20.51-5.468-4.253-2.307-7.926-4.3-15.514-4.3s-11.253,1.992-15.5,4.3c-4.724,2.562-10.077,5.468-20.5,5.468s-15.775-2.906-20.5-5.468c-4.25-2.307-7.923-4.3-15.509-4.3s-11.251,1.992-15.5,4.3c-4.727,2.564-10.079,5.469-20.5,5.469s-15.775-2.906-20.5-5.468c-4.253-2.307-7.923-4.3-15.506-4.3s-11.253,1.992-15.5,4.3c-4.724,2.564-10.082,5.469-20.5,5.469s-15.775-2.906-20.5-5.468c-4.25-2.307-7.921-4.3-15.5-4.3s-11.251,1.992-15.5,4.3c-4.724,2.564-10.079,5.469-20.5,5.469s-15.775-2.906-20.5-5.468c-4.25-2.307-7.923-4.3-15.506-4.3C1.723,23.192,0,22.1,0,20.751s1.723-2.442,3.845-2.442c10.42,0,15.778,2.906,20.5,5.469,4.25,2.3,7.921,4.3,15.5,4.3s11.251-1.992,15.5-4.3c4.724-2.562,10.079-5.468,20.5-5.468s15.775,2.906,20.5,5.468c4.253,2.307,7.923,4.3,15.5,4.3s11.253-1.992,15.506-4.3c4.724-2.562,10.079-5.468,20.5-5.468s15.775,2.906,20.5,5.468c4.253,2.307,7.923,4.3,15.506,4.3s11.253-1.992,15.5-4.3c4.724-2.564,10.079-5.469,20.5-5.469s15.778,2.906,20.5,5.468c4.25,2.307,7.923,4.3,15.506,4.3s11.251-1.992,15.5-4.3c4.724-2.564,10.079-5.469,20.5-5.469s15.78,2.906,20.507,5.468c4.253,2.307,7.929,4.3,15.516,4.3s11.261-1.992,15.514-4.3c4.727-2.562,10.084-5.468,20.51-5.468,2.125,0,3.845,1.092,3.845,2.442s-1.72,2.442-3.845,2.442c-7.588,0-11.261,1.992-15.516,4.3-4.727,2.562-10.084,5.468-20.507,5.468" transform="translate(0 11.493)" fill="#a98bc4"/>
          <path id="Trazado_875339-2" data-name="Trazado 875339" d="M327.9,42.113c-10.425,0-15.783-2.906-20.51-5.468-4.253-2.307-7.926-4.3-15.514-4.3s-11.253,1.992-15.5,4.3c-4.724,2.562-10.077,5.468-20.5,5.468s-15.775-2.906-20.5-5.468c-4.25-2.307-7.923-4.3-15.509-4.3s-11.251,1.992-15.5,4.3c-4.727,2.564-10.079,5.469-20.5,5.469s-15.775-2.906-20.5-5.468c-4.253-2.307-7.923-4.3-15.506-4.3s-11.253,1.992-15.5,4.3c-4.724,2.564-10.082,5.469-20.5,5.469s-15.775-2.906-20.5-5.468c-4.25-2.307-7.921-4.3-15.5-4.3s-11.251,1.992-15.5,4.3c-4.724,2.564-10.079,5.469-20.5,5.469s-15.775-2.906-20.5-5.468c-4.25-2.307-7.923-4.3-15.506-4.3C1.723,32.346,0,31.254,0,29.9s1.723-2.442,3.845-2.442c10.42,0,15.778,2.906,20.5,5.469,4.25,2.3,7.921,4.3,15.5,4.3s11.251-1.992,15.5-4.3c4.724-2.562,10.079-5.468,20.5-5.468s15.775,2.906,20.5,5.468c4.253,2.307,7.923,4.3,15.5,4.3s11.253-1.992,15.506-4.3c4.724-2.562,10.079-5.468,20.5-5.468s15.775,2.906,20.5,5.468c4.253,2.307,7.923,4.3,15.506,4.3s11.253-1.992,15.5-4.3c4.724-2.564,10.079-5.469,20.5-5.469s15.778,2.906,20.5,5.468c4.25,2.307,7.923,4.3,15.506,4.3s11.251-1.992,15.5-4.3c4.724-2.564,10.079-5.469,20.5-5.469s15.78,2.906,20.507,5.468c4.253,2.307,7.929,4.3,15.516,4.3s11.261-1.992,15.514-4.3c4.727-2.562,10.084-5.468,20.51-5.468,2.125,0,3.845,1.092,3.845,2.442s-1.72,2.442-3.845,2.442c-7.588,0-11.261,1.992-15.516,4.3-4.727,2.562-10.084,5.468-20.507,5.468" transform="translate(0 17.24)" fill="#a98bc4"/>
          <path id="Trazado_875340-2" data-name="Trazado 875340" d="M327.9,51.267c-10.425,0-15.783-2.906-20.51-5.468-4.253-2.307-7.926-4.3-15.514-4.3s-11.253,1.992-15.5,4.3c-4.724,2.562-10.077,5.468-20.5,5.468s-15.775-2.906-20.5-5.468c-4.25-2.307-7.923-4.3-15.509-4.3s-11.251,1.992-15.5,4.3c-4.727,2.564-10.079,5.469-20.5,5.469s-15.775-2.906-20.5-5.468c-4.253-2.307-7.923-4.3-15.506-4.3s-11.253,1.992-15.5,4.3c-4.724,2.564-10.082,5.469-20.5,5.469s-15.775-2.906-20.5-5.468c-4.25-2.307-7.921-4.3-15.5-4.3s-11.251,1.992-15.5,4.3c-4.724,2.564-10.079,5.469-20.5,5.469s-15.775-2.906-20.5-5.468c-4.25-2.307-7.923-4.3-15.506-4.3C1.723,41.5,0,40.408,0,39.059s1.723-2.442,3.845-2.442c10.42,0,15.778,2.906,20.5,5.469,4.25,2.3,7.921,4.3,15.5,4.3s11.251-1.992,15.5-4.3c4.724-2.562,10.079-5.468,20.5-5.468s15.775,2.906,20.5,5.468c4.253,2.307,7.923,4.3,15.5,4.3s11.253-1.992,15.506-4.3c4.724-2.562,10.079-5.468,20.5-5.468s15.775,2.906,20.5,5.468c4.253,2.307,7.923,4.3,15.506,4.3s11.253-1.992,15.5-4.3c4.724-2.564,10.079-5.469,20.5-5.469s15.778,2.906,20.5,5.468c4.25,2.307,7.923,4.3,15.506,4.3s11.251-1.992,15.5-4.3c4.724-2.564,10.079-5.469,20.5-5.469s15.78,2.906,20.507,5.468c4.253,2.307,7.929,4.3,15.516,4.3s11.261-1.992,15.514-4.3c4.727-2.562,10.084-5.468,20.51-5.468,2.125,0,3.845,1.092,3.845,2.442s-1.72,2.442-3.845,2.442c-7.588,0-11.261,1.992-15.516,4.3-4.727,2.562-10.084,5.468-20.507,5.468" transform="translate(0 22.986)" fill="#a98bc4"/>
        </g>
      </g>
    </g>
  </g>
</svg>
