<svg xmlns="http://www.w3.org/2000/svg" xmlns:xlink="http://www.w3.org/1999/xlink" width="69.993" height="69.993" viewBox="0 0 69.993 69.993">
  <defs>
    <clipPath id="clip-path">
      <rect id="Rectángulo_402598" data-name="Rectángulo 402598" width="37.011" height="37.091" fill="none"/>
    </clipPath>
  </defs>
  <g id="Grupo_1102515" data-name="Grupo 1102515" transform="translate(-215.485 -5976)">
    <g id="Grupo_1102262" data-name="Grupo 1102262" transform="translate(2 24.381)">
      <g id="Grupo_1102218" data-name="Grupo 1102218" transform="translate(213.485 5951.62)">
        <g id="Elipse_11492" data-name="Elipse 11492" transform="translate(0 0)" fill="#95dbb3" stroke="#fff" stroke-width="2">
          <circle cx="34.997" cy="34.997" r="34.997" stroke="none"/>
          <circle cx="34.997" cy="34.997" r="33.997" fill="none"/>
        </g>
        <g id="Elipse_11500" data-name="Elipse 11500" transform="translate(5.89 5.89)" fill="none" stroke="#000" stroke-width="2" stroke-dasharray="5">
          <circle cx="29.45" cy="29.45" r="29.45" stroke="none"/>
          <circle cx="29.45" cy="29.45" r="28.45" fill="none"/>
        </g>
      </g>
      <g id="Grupo_1102261" data-name="Grupo 1102261" transform="translate(229.976 5966.37)">
        <g id="Grupo_1102260" data-name="Grupo 1102260" clip-path="url(#clip-path)">
          <path id="Trazado_875341" data-name="Trazado 875341" d="M29.794,35.613c.687,0,1.312.005,1.936,0,.5-.006.887.193.889.723s-.376.734-.882.731c-.844-.005-1.688,0-2.533,0H1.347c-.241,0-.534.079-.711-.029-.27-.165-.636-.462-.635-.7s.368-.609.639-.683a6.133,6.133,0,0,1,1.478-.031v-.866c0-4.872.015-9.745-.016-14.617a1.3,1.3,0,0,1,.938-1.4c2.892-1.2,5.758-2.461,8.643-3.675a.823.823,0,0,0,.61-.9c-.034-1.64,0-3.28-.029-4.92a1.089,1.089,0,0,0-.36-.753A2.277,2.277,0,0,1,10.951,5.9a2.213,2.213,0,0,1,2.215-1.535c3.063-.01,6.127-.019,9.19.01A1.015,1.015,0,0,0,23.4,3.747a7.236,7.236,0,0,1,8.556-3.4A7.26,7.26,0,0,1,30.334,14.5c-.165.013-.329.032-.54.053ZM13.8,8.834V35.571h3.525V30.584a1.728,1.728,0,0,0-.262-.046c-.535,0-1.1-.034-1.1-.729,0-.756.607-.732,1.157-.731q3.293.007,6.586,0a7.762,7.762,0,0,1,1.586.032,1.142,1.142,0,0,1,.77.653c.1.458-.267.73-.748.764-.189.013-.378.022-.608.035v5h3.549V14.409a7.448,7.448,0,0,1-5.642-5.574Zm-1.548,7.607c-.248.084-.453.138-.646.221-2.478,1.059-4.947,2.139-7.436,3.17a.867.867,0,0,0-.606.97c.016,4.7.01,9.4.01,14.1v.656h8.679ZM29.714,13.07a5.806,5.806,0,1,0-5.78-5.8,5.8,5.8,0,0,0,5.78,5.8m-10.857,22.5h4.29V30.6h-4.29ZM22.489,5.884c-.043-.019-.086-.056-.129-.056q-4.619-.01-9.239-.012c-.117,0-.277,0-.342.076-.182.2-.462.446-.448.658a1.088,1.088,0,0,0,.478.7,1.516,1.516,0,0,0,.771.091q3.826.008,7.652,0c1.313,0,1.313,0,1.307-1.336a.387.387,0,0,0-.05-.128" transform="translate(0 -0.001)"/>
          <path id="Trazado_875342" data-name="Trazado 875342" d="M205.353,156.345c-.578,0-1.1-.048-1.107-.71-.01-.712.54-.744,1.075-.75s1.041.078,1.049.713c.009.686-.536.763-1.016.747" transform="translate(-180.291 -136.719)"/>
          <path id="Trazado_875343" data-name="Trazado 875343" d="M130.816,156.348c-.452.013-.97-.057-.985-.7-.016-.693.523-.762,1.068-.758.51,0,1.032.046,1.048.7.017.709-.527.759-1.131.756" transform="translate(-114.604 -136.723)"/>
          <path id="Trazado_875344" data-name="Trazado 875344" d="M168.145,156.346c-.581.007-1.09-.07-1.087-.724,0-.706.559-.73,1.091-.734s1.034.09,1.029.728c-.005.69-.554.747-1.034.73" transform="translate(-147.466 -136.721)"/>
          <path id="Trazado_875345" data-name="Trazado 875345" d="M205.353,218.393c-.611,0-1.134-.082-1.11-.77.025-.706.591-.679,1.108-.689s1.021.1,1.014.721c-.007.665-.536.758-1.013.738" transform="translate(-180.289 -191.49)"/>
          <path id="Trazado_875346" data-name="Trazado 875346" d="M130.833,94.3c-.528.032-1.016-.091-1-.733.021-.689.575-.724,1.112-.721s1.02.108,1,.755c-.018.714-.581.715-1.119.7" transform="translate(-114.609 -81.954)"/>
          <path id="Trazado_875347" data-name="Trazado 875347" d="M168.189,94.3c-.559.018-1.109-.008-1.107-.723,0-.65.507-.727,1.028-.731.544,0,1.088.058,1.088.745,0,.641-.5.743-1.009.709" transform="translate(-147.487 -81.953)"/>
          <path id="Trazado_875348" data-name="Trazado 875348" d="M205.326,125.3c-.557.009-1.077-.041-1.077-.707,0-.7.546-.744,1.082-.749s1.036.094,1.04.725c0,.692-.544.753-1.045.731" transform="translate(-180.294 -109.316)"/>
          <path id="Trazado_875349" data-name="Trazado 875349" d="M205.156,184.729c.516-.028.974.114.982.7.008.628-.474.755-1.011.756-.832,0-1.346-.395-1.072-.914.17-.321.651-.478.992-.709l.109.168" transform="translate(-180.057 -162.915)"/>
          <path id="Trazado_875350" data-name="Trazado 875350" d="M130.91,216.946c.544-.02,1.048.056,1.041.716-.008.7-.553.736-1.09.739s-1.029-.1-1.025-.734c0-.7.552-.747,1.074-.72" transform="translate(-114.608 -191.498)"/>
          <path id="Trazado_875351" data-name="Trazado 875351" d="M168.2,216.955c.527-.029,1.012.1.989.74-.025.69-.581.717-1.116.715s-1.019-.112-1-.758c.022-.713.587-.71,1.126-.7" transform="translate(-147.476 -191.506)"/>
          <path id="Trazado_875352" data-name="Trazado 875352" d="M130.833,125.3c-.5.027-1.009-.068-1.011-.708,0-.686.543-.752,1.086-.747.516,0,1.027.073,1.031.725,0,.713-.546.742-1.107.729" transform="translate(-114.597 -109.318)"/>
          <path id="Trazado_875353" data-name="Trazado 875353" d="M168.15,125.3c-.583.015-1.088-.063-1.077-.722.012-.7.565-.729,1.1-.732s1.03.106,1.02.741c-.01.693-.56.741-1.04.713" transform="translate(-147.478 -109.319)"/>
          <path id="Trazado_875354" data-name="Trazado 875354" d="M130.888,187.4c-.518.009-1.034-.068-1.048-.709-.015-.7.526-.753,1.07-.75.512,0,1.035.041,1.046.7.012.7-.527.764-1.068.759" transform="translate(-114.611 -164.134)"/>
          <path id="Trazado_875355" data-name="Trazado 875355" d="M168.135,187.4c-.542.006-1.081-.059-1.07-.757.01-.657.531-.7,1.045-.7.544,0,1.086.05,1.072.748-.013.641-.527.72-1.046.711" transform="translate(-147.471 -164.133)"/>
          <path id="Trazado_875356" data-name="Trazado 875356" d="M44.1,272.68c.565-.024,1.094.044,1.072.742s-.571.7-1.1.711-1.02-.109-1.024-.723c0-.672.522-.767,1.052-.73" transform="translate(-37.998 -240.693)"/>
          <path id="Trazado_875357" data-name="Trazado 875357" d="M44.077,212.226c-.52.014-1.022-.091-1.042-.708-.023-.686.508-.755,1.053-.749.8.009,1.19.31,1.073.866-.088.416-.416.6-1.084.592" transform="translate(-37.987 -186.048)"/>
          <path id="Trazado_875358" data-name="Trazado 875358" d="M44.084,243.19c-.524.024-1.023-.088-1.044-.7-.024-.681.5-.76,1.051-.752.8.012,1.207.314,1.071.864-.141.567-.6.608-1.078.591" transform="translate(-37.991 -213.383)"/>
          <path id="Trazado_875359" data-name="Trazado 875359" d="M75.046,272.672c.6-.023,1.122.038,1.106.741-.014.645-.51.7-1.027.711-.544.007-1.086-.059-1.095-.722s.514-.776,1.015-.73" transform="translate(-65.349 -240.684)"/>
          <path id="Trazado_875360" data-name="Trazado 875360" d="M44.072,179.775c.577-.01,1.111.044,1.088.748-.021.641-.529.7-1.038.708-.537.005-1.083-.063-1.089-.733s.542-.742,1.038-.722" transform="translate(-37.986 -158.687)"/>
          <path id="Trazado_875361" data-name="Trazado 875361" d="M74.885,181.086c-.781,0-1.271-.408-1.013-.9a1.365,1.365,0,0,1,.888-.527c.435-.084.952-.106,1.167.454s-.231.98-1.042.978" transform="translate(-65.146 -158.544)"/>
          <path id="Trazado_875362" data-name="Trazado 875362" d="M75.082,210.769c.533-.019,1.046.026,1.062.681.018.688-.5.767-1.044.774s-1.081-.08-1.081-.743.545-.743,1.062-.712" transform="translate(-65.339 -186.044)"/>
          <path id="Trazado_875363" data-name="Trazado 875363" d="M75.088,241.732c.535-.022,1.045.025,1.062.68.019.688-.5.767-1.042.773s-1.082-.077-1.081-.74.538-.753,1.061-.713" transform="translate(-65.345 -213.374)"/>
          <path id="Trazado_875364" data-name="Trazado 875364" d="M229.6,37.174c.66.635,1.231,1.186,1.8,1.735.4.385.821.817.285,1.337s-.958.055-1.332-.335c-.546-.57-1.087-1.146-1.728-1.822-.69.736-1.278,1.368-1.872,1.994-.351.37-.756.581-1.184.147s-.2-.832.163-1.184l1.984-1.915c-.716-.663-1.349-1.249-1.98-1.837-.374-.348-.6-.756-.172-1.183s.828-.228,1.187.149c.6.627,1.2,1.25,1.906,1.991l1.834-1.964c.345-.369.755-.61,1.188-.2.467.439.224.868-.163,1.24-.622.6-1.243,1.2-1.92,1.85" transform="translate(-198.912 -29.899)"/>
        </g>
      </g>
    </g>
  </g>
</svg>
