<svg xmlns="http://www.w3.org/2000/svg" xmlns:xlink="http://www.w3.org/1999/xlink" width="104" height="104" viewBox="0 0 104 104">
  <defs>
    <clipPath id="clip-path">
      <rect id="Rectángulo_402580" data-name="Rectángulo 402580" width="55.35" height="54.157" fill="none"/>
    </clipPath>
  </defs>
  <g id="Grupo_1102511" data-name="Grupo 1102511" transform="translate(-1118.051 -2889)">
    <g id="Grupo_1102238" data-name="Grupo 1102238">
      <g id="Grupo_1102224" data-name="Grupo 1102224" transform="translate(0 903)">
        <g id="Grupo_1102237" data-name="Grupo 1102237">
          <g id="Grupo_1102218" data-name="Grupo 1102218" transform="translate(96 1592)">
            <g id="Elipse_11492" data-name="Elipse 11492" transform="translate(1022.051 394)" fill="#95dbb3" stroke="#fff" stroke-width="2">
              <circle cx="52" cy="52" r="52" stroke="none"/>
              <circle cx="52" cy="52" r="51" fill="none"/>
            </g>
            <g id="Elipse_11500" data-name="Elipse 11500" transform="translate(1030.802 402.752)" fill="none" stroke="#000" stroke-width="2" stroke-dasharray="5">
              <circle cx="43.758" cy="43.758" r="43.758" stroke="none"/>
              <circle cx="43.758" cy="43.758" r="42.758" fill="none"/>
            </g>
          </g>
          <g id="Grupo_1102236" data-name="Grupo 1102236" transform="translate(1142.376 2010.922)">
            <g id="Grupo_1102235" data-name="Grupo 1102235" clip-path="url(#clip-path)">
              <path id="Trazado_875333" data-name="Trazado 875333" d="M6.105,50.015v-3.79c0-9.311-.018-18.623.024-27.934,0-1.124-.3-1.5-1.445-1.452-2.68.1-2.31-.3-2.315,2.388-.015,7.351,0,14.7-.007,22.053a2.583,2.583,0,0,1-.079,1.2,1.614,1.614,0,0,1-1.054.762c-.3.021-.735-.419-.928-.758A2.378,2.378,0,0,1,.225,41.4q0-15.5,0-31c0-3.018,1.492-4.5,4.516-4.507,2.573-.006,5.148-.059,7.718.024C13.639,5.962,14,5.6,13.981,4.416a4.387,4.387,0,0,1,3.7-4.369,4.5,4.5,0,0,1,5.074,3.1A6.262,6.262,0,0,1,22.94,4.96c0,.679.256.947.941.944,4.206-.016,8.413-.031,12.619.008,1.13.01.965-.707.981-1.394A4.4,4.4,0,0,1,42.089.02a4.3,4.3,0,0,1,4.354,4.348c-.021,1.268.379,1.695,1.6,1.544A15.669,15.669,0,0,1,50.128,5.9a3.9,3.9,0,0,1,4.191,4.216c.012,9.025-.006,18.051.024,27.076a8.121,8.121,0,0,0,.43,2.494,11.008,11.008,0,0,1-3.293,11.9A10.786,10.786,0,0,1,39.447,52.9a6.54,6.54,0,0,0-3.258-.758q-15.743.032-31.487.01a4.511,4.511,0,0,1-4.39-6.246,1.254,1.254,0,0,1,.96-.706,1.565,1.565,0,0,1,1.015.805,3.3,3.3,0,0,1,.076,1.327c.023,1.976.7,2.662,2.643,2.68.435,0,.87,0,1.1,0m29.42,0c.016-.234.035-.281.019-.311-.174-.321-.348-.641-.532-.956A10.807,10.807,0,0,1,33.8,40.833c.312-1.5.327-1.506-1.2-1.507q-8.638-.006-17.276,0c-1.918,0-1.866.01-2.232,1.922a1.605,1.605,0,0,1-1.065,1c-.259.053-.691-.583-.988-.956-.1-.128-.03-.4-.031-.6q0-7.719,0-15.439c0-.245-.08-.569.043-.718.3-.363.676-.845,1.069-.895.292-.037.717.489.971.845a1.354,1.354,0,0,1,.048.839c-.12.987.339,1.274,1.274,1.264a35.523,35.523,0,0,1,4.519.158,2.723,2.723,0,0,1,2.487,2.622c.014,1.212.537,1.393,1.565,1.387,6.045-.033,12.09-.011,18.134-.019a5.522,5.522,0,0,1,4.193,1.341,1.064,1.064,0,0,0,.525.287,12.061,12.061,0,0,1,6.347,3.169v-1.47q0-11.4,0-22.79c0-2.724-.5-3.232-3.192-3.235-2.427,0-2.436,0-2.507,2.422-.022.756-.134,1.456-1.076,1.455s-1.07-.7-1.068-1.458c0-1.756.037-3.514-.021-5.268a4.64,4.64,0,0,0-.437-1.871,2.13,2.13,0,0,0-2.631-.95A2.568,2.568,0,0,0,39.622,5.1c.11,1.35,1.177.575,1.791.807.036.014.1-.011.119.011.335.342.92.686.925,1.036s-.52.795-.913,1.031c-.274.164-.717.052-1.084.052q-7.719,0-15.438,0c-2.3,0-2.055-.218-2.071,2,0,.326.094.724-.056.962-.23.366-.665.892-.957.858-.394-.045-.805-.506-1.071-.886-.156-.223-.052-.634-.053-.96,0-1.756.034-3.514-.021-5.268A2.463,2.463,0,0,0,18.6,2.2a2.421,2.421,0,0,0-2.433,2c-.321,1.358-.1,1.654,1.295,1.7.082,0,.163,0,.245,0,.753,0,1.414.307,1.231,1.11a1.662,1.662,0,0,1-1.227.976c-2.365.1-4.736.03-7.1.059a2.089,2.089,0,0,0-2.358,2.339c-.023.816-.006,1.634-.006,2.45,0,1.884,0,1.885,1.944,1.885q19.053,0,38.106.01c.839,0,2.047-.311,2.038,1.068s-1.216,1.052-2.053,1.053q-19.3.022-38.6-.012c-1.107,0-1.469.277-1.464,1.432.045,9.639.024,19.278.027,28.916,0,2.193.642,2.825,2.863,2.826q11.273.005,22.545,0h1.869m17.631-6.8a8.725,8.725,0,1,0-8.633,8.757,8.867,8.867,0,0,0,8.633-8.757M39.825,33.025c-7.856,0-15.888-.021-23.92.01-3.226.013-2.683-.588-2.77,2.9-.022.867.306,1.124,1.142,1.121,6.769-.024,13.538-.006,20.307-.033a2.01,2.01,0,0,0,1.177-.453c1.393-1.161,2.739-2.377,4.064-3.54M6.1,8.118c-3.032-.365-3.74.249-3.741,3.389,0,.2,0,.407,0,.61.067,2.984-.542,2.542,2.672,2.618.9.021,1.1-.375,1.081-1.173C6.078,11.785,6.1,10.007,6.1,8.118m10.15,22.614v.006c.61,0,1.221.024,1.829-.007.526-.027,1.269.186,1.227-.735-.036-.782-.531-1.137-1.3-1.134-1.3,0-2.6.015-3.9-.008-.65-.012-.973.2-.967.908.005.665.243.987.922.973.732-.014,1.463,0,2.2,0" transform="translate(0 0.001)"/>
              <path id="Trazado_875334" data-name="Trazado 875334" d="M166.365,166.776c1.184-1.243,2.245-2.366,3.317-3.478.554-.575,1.212-.988,1.893-.28.622.645.249,1.273-.287,1.809-1.326,1.325-2.663,2.64-3.973,3.981a1.293,1.293,0,0,1-2.106.051c-.575-.577-1.16-1.146-1.731-1.727-.528-.537-.894-1.169-.268-1.814.683-.7,1.33-.287,1.9.265.348.335.7.666,1.252,1.193" transform="translate(-122.958 -122.78)"/>
            </g>
          </g>
        </g>
      </g>
    </g>
  </g>
</svg>
