<svg xmlns="http://www.w3.org/2000/svg" xmlns:xlink="http://www.w3.org/1999/xlink" width="482" height="347" viewBox="0 0 482 347">
  <defs>
    <clipPath id="clip-path">
      <rect id="Rectángulo_402611" data-name="Rectángulo 402611" width="481.949" height="331.668" fill="none"/>
    </clipPath>
  </defs>
  <g id="Grupo_1102508" data-name="Grupo 1102508" transform="translate(-938.051 -6593)">
    <g id="Grupo_1102266" data-name="Grupo 1102266">
      <rect id="Rectángulo_402226" data-name="Rectángulo 402226" width="482" height="347" rx="20" transform="translate(938.051 6593)" fill="#fbd7a8"/>
      <g id="Grupo_1102265" data-name="Grupo 1102265" transform="translate(938.051 6597.147)">
        <g id="Grupo_1102264" data-name="Grupo 1102264" clip-path="url(#clip-path)">
          <path id="Trazado_875365" data-name="Trazado 875365" d="M547.24,171.308a30.8,30.8,0,0,1-30.8,30.8c-40.857-1.622-40.845-59.987,0-61.6a30.8,30.8,0,0,1,30.8,30.8" transform="translate(-120.76 -34.927)" fill="#de9935"/>
          <path id="Trazado_875366" data-name="Trazado 875366" d="M240.541,39.931A20.343,20.343,0,0,1,220.2,60.274c-26.984-1.072-26.976-39.619,0-40.686a20.343,20.343,0,0,1,20.342,20.343" transform="translate(-49.707 -4.869)" fill="#de9935"/>
          <path id="Trazado_875367" data-name="Trazado 875367" d="M106.18,311.979A47.777,47.777,0,0,1,58.4,359.757c-63.376-2.516-63.358-93.048,0-95.555a47.777,47.777,0,0,1,47.778,47.777" transform="translate(-2.704 -65.675)" fill="#de9935"/>
          <path id="Trazado_875368" data-name="Trazado 875368" d="M447.9,29.672H273.55a6.429,6.429,0,0,0-6.429,6.428V138.85H454.332V36.1a6.429,6.429,0,0,0-6.429-6.428" transform="translate(-66.401 -7.376)" fill="#aad9b2"/>
          <path id="Trazado_875369" data-name="Trazado 875369" d="M448.58,47.774H273.328a5.291,5.291,0,0,0-5.291,5.291V316.229a5.291,5.291,0,0,0,5.291,5.291H448.58a5.291,5.291,0,0,0,5.291-5.291V53.065a5.291,5.291,0,0,0-5.291-5.291" transform="translate(-66.629 -11.876)" fill="#fff"/>
          <path id="Trazado_875370" data-name="Trazado 875370" d="M448.371,321.942H273.12a5.929,5.929,0,0,1-5.923-5.922V52.856a5.929,5.929,0,0,1,5.923-5.922H448.371a5.929,5.929,0,0,1,5.923,5.922V316.02a5.929,5.929,0,0,1-5.923,5.922M273.12,48.2a4.665,4.665,0,0,0-4.66,4.66V316.02a4.665,4.665,0,0,0,4.66,4.66H448.371a4.665,4.665,0,0,0,4.66-4.66V52.856a4.665,4.665,0,0,0-4.66-4.66Z" transform="translate(-66.42 -11.667)" fill="#222021"/>
          <rect id="Rectángulo_402600" data-name="Rectángulo 402600" width="68.628" height="73.148" transform="translate(212.362 215.477)" fill="#9f89c0"/>
          <rect id="Rectángulo_402601" data-name="Rectángulo 402601" width="68.628" height="73.148" transform="translate(302.919 215.477)" fill="#9f89c0"/>
          <rect id="Rectángulo_402602" data-name="Rectángulo 402602" width="116.049" height="4.82" transform="translate(255.498 112.903)" fill="#9f89c0"/>
          <rect id="Rectángulo_402603" data-name="Rectángulo 402603" width="116.049" height="4.82" transform="translate(255.498 127.069)" fill="#9f89c0"/>
          <path id="Trazado_875371" data-name="Trazado 875371" d="M313.146,146.487a9.738,9.738,0,0,1-9.738,9.738c-12.918-.513-12.915-18.966,0-19.477a9.738,9.738,0,0,1,9.738,9.738" transform="translate(-73.013 -33.993)" fill="#9f89c0"/>
          <path id="Trazado_875372" data-name="Trazado 875372" d="M285.959,174a19.059,19.059,0,0,1,9.828-6.991h0a19.27,19.27,0,0,1,11.042,0h0A19.081,19.081,0,0,1,316.665,174a3.484,3.484,0,0,1-1.776,5.37c-6.888,2.12-20.262,2.12-27.153,0A3.485,3.485,0,0,1,285.959,174" transform="translate(-70.918 -41.315)" fill="#9f89c0"/>
          <rect id="Rectángulo_402604" data-name="Rectángulo 402604" width="116.049" height="4.82" transform="translate(255.498 62.164)" fill="#9f89c0"/>
          <rect id="Rectángulo_402605" data-name="Rectángulo 402605" width="116.049" height="4.82" transform="translate(255.498 76.331)" fill="#9f89c0"/>
          <path id="Trazado_875373" data-name="Trazado 875373" d="M313.146,78.963a9.738,9.738,0,0,1-9.738,9.739c-12.918-.514-12.915-18.967,0-19.478a9.738,9.738,0,0,1,9.738,9.738" transform="translate(-73.013 -17.208)" fill="#9f89c0"/>
          <path id="Trazado_875374" data-name="Trazado 875374" d="M285.959,106.479a19.059,19.059,0,0,1,9.828-6.991h0a19.27,19.27,0,0,1,11.042,0h0a19.081,19.081,0,0,1,9.826,6.992,3.485,3.485,0,0,1-1.776,5.371c-6.888,2.119-20.262,2.119-27.153,0a3.485,3.485,0,0,1-1.776-5.372" transform="translate(-70.918 -24.53)" fill="#9f89c0"/>
          <rect id="Rectángulo_402606" data-name="Rectángulo 402606" width="116.049" height="4.82" transform="translate(255.498 165.497)" fill="#9f89c0"/>
          <rect id="Rectángulo_402607" data-name="Rectángulo 402607" width="116.049" height="4.82" transform="translate(255.498 179.663)" fill="#9f89c0"/>
          <path id="Trazado_875375" data-name="Trazado 875375" d="M313.146,216.481a9.738,9.738,0,0,1-9.738,9.739c-12.918-.513-12.915-18.966,0-19.477a9.738,9.738,0,0,1,9.738,9.738" transform="translate(-73.013 -51.392)" fill="#9f89c0"/>
          <path id="Trazado_875376" data-name="Trazado 875376" d="M285.959,244A19.059,19.059,0,0,1,295.787,237h0a19.27,19.27,0,0,1,11.042,0h0A19.081,19.081,0,0,1,316.665,244a3.484,3.484,0,0,1-1.776,5.37c-6.888,2.12-20.262,2.12-27.153,0A3.485,3.485,0,0,1,285.959,244" transform="translate(-70.918 -58.714)" fill="#9f89c0"/>
          <path id="Trazado_875377" data-name="Trazado 875377" d="M418.251,16.595H398.43V9.686c0-5.342-3.027-9.672-6.761-9.672H358.774c-3.735,0-6.762,4.33-6.762,9.672v6.909H332.191c-3.734,0-6.761,4.33-6.761,9.672V39.376a1.007,1.007,0,0,0,.9,1.085h97.775a1.007,1.007,0,0,0,.9-1.085V26.267c0-5.342-3.027-9.672-6.762-9.672" transform="translate(-80.896 -0.003)"/>
          <path id="Trazado_875378" data-name="Trazado 875378" d="M400.877,7.546h-29A1.572,1.572,0,0,0,370.3,9.117v1.1a1.572,1.572,0,0,0,1.572,1.571h29a1.572,1.572,0,0,0,1.572-1.571v-1.1a1.572,1.572,0,0,0-1.572-1.571" transform="translate(-92.05 -1.876)" fill="#fff"/>
          <path id="Trazado_875379" data-name="Trazado 875379" d="M227.976,167.06l-16.635-26.222a11.281,11.281,0,0,0-16.019-3.178l-2.644,1.865a11.2,11.2,0,0,0-2.319,16.116L209.638,180a11.236,11.236,0,0,0,18.338-12.938" transform="translate(-46.716 -33.708)"/>
          <path id="Trazado_875380" data-name="Trazado 875380" d="M260.5,158.126a11.331,11.331,0,0,0-15.578-4.539l-24.5,13.852a11.33,11.33,0,0,0,11.153,19.726l24.5-13.852a11.33,11.33,0,0,0,4.425-15.187" transform="translate(-53.362 -37.813)" fill="#e9dba5"/>
          <path id="Trazado_875381" data-name="Trazado 875381" d="M223.88,188.992a12.083,12.083,0,0,1-4.08-22.455l24.5-13.852a12.083,12.083,0,0,1,11.893,21.036l-24.5,13.851a11.955,11.955,0,0,1-7.812,1.42" transform="translate(-53.107 -37.566)"/>
          <path id="Trazado_875382" data-name="Trazado 875382" d="M274.6,155.532l-23.362,20.321c-4.188-4.4-6.972-12.967-9.008-19.257l19.4-12.36s12.277,9.9,12.974,11.3" transform="translate(-60.213 -35.854)" fill="#e9dba5"/>
          <path id="Trazado_875383" data-name="Trazado 875383" d="M264.806,146.885l-.984,14.545c7.244.491,15.361.362,19.6-.809,3.1-.857,8.34-7.748.543-8.285s-6.8.954-12.109-1.8Z" transform="translate(-65.581 -36.513)" fill="#e9dba5"/>
          <path id="Trazado_875384" data-name="Trazado 875384" d="M267.233,170.409a29.173,29.173,0,0,1,2.19,4.061c2.259,4.812-6.1,9.264-8.6,4.094-1.948-3.578-5.5-10.425-2.3-12.984,3.552-2.714,6.535,1.326,8.707,4.829" transform="translate(-63.944 -40.939)" fill="#e9dba5"/>
          <path id="Trazado_875385" data-name="Trazado 875385" d="M276.213,164.079a29.09,29.09,0,0,1,2.6,3.811c2.748,4.551-5.107,9.849-8.127,4.965-2.309-3.356-6.558-9.8-3.635-12.674,3.251-3.069,6.638.639,9.162,3.9" transform="translate(-66.137 -39.533)" fill="#e9dba5"/>
          <path id="Trazado_875386" data-name="Trazado 875386" d="M257.734,175.486c.732,1.244,2.022,4.434,2.162,4.766,1.221,2.911-5.932,7.245-8.641,2.873-1.111-2.3-1.61-2.393-2.4-4.611-1.267-3.55-1.667-6.624.283-8.046,3.611-2.636,6.506,1.468,8.6,5.018" transform="translate(-61.595 -42.167)" fill="#e9dba5"/>
          <path id="Trazado_875387" data-name="Trazado 875387" d="M261.062,179.236a.525.525,0,0,1-.471-.292c-.028-.056-2.762-5.564-4.139-7.867a.526.526,0,0,1,.9-.54c1.4,2.339,4.064,7.712,4.177,7.939a.529.529,0,0,1-.47.76" transform="translate(-63.73 -42.328)" fill="#222021"/>
          <path id="Trazado_875388" data-name="Trazado 875388" d="M270.431,173.569a.527.527,0,0,1-.455-.261c-.032-.056-3.293-5.66-4.919-8.011a.526.526,0,1,1,.865-.6c1.65,2.385,4.829,7.849,4.964,8.08a.53.53,0,0,1-.455.79" transform="translate(-65.865 -40.884)" fill="#222021"/>
          <path id="Trazado_875389" data-name="Trazado 875389" d="M248.477,175.657a.525.525,0,0,1-.491-.338c-1.021-2.674-1.176-5.045-.436-6.679,1.132-2.7,4.822-2.717,6.582-1.583a4.6,4.6,0,0,1,6.528-4.157c.137-2.03,1.141-4.186,3.673-4.51,3.844-.5,7.633,5.232,7.792,5.476a.526.526,0,1,1-.881.576c-.035-.054-3.584-5.416-6.778-5.009-2.964.482-2.771,3.649-2.752,4.55l-.293.2a.565.565,0,0,1-.585-.011,3.577,3.577,0,0,0-5.552,3.745.569.569,0,0,1-.911.564,4.537,4.537,0,0,0-4.309-.852,2.674,2.674,0,0,0-1.557,1.449c-.614,1.356-.446,3.5.46,5.869a.528.528,0,0,1-.491.714m5.783-7.507h0m.783-.486h0m5.607-3.954h0" transform="translate(-61.421 -39.365)" fill="#222021"/>
          <path id="Trazado_875390" data-name="Trazado 875390" d="M189.194,115.558l-8.17-2.471a34.159,34.159,0,0,1-6.619,12.482l13.382,4.046a34.159,34.159,0,0,1,1.407-14.057" transform="translate(-43.354 -28.111)" fill="#e9dba5"/>
          <path id="Trazado_875391" data-name="Trazado 875391" d="M189.7,122.664a11.044,11.044,0,0,1-7.614-4.741,38.162,38.162,0,0,0,2.978-3.977l5.99,1.812.047.029a37.669,37.669,0,0,0-1.4,6.877" transform="translate(-45.263 -28.325)" fill="#222021"/>
          <path id="Trazado_875392" data-name="Trazado 875392" d="M193.217,90.156a23.5,23.5,0,0,1-2.728-.824c-6.872-2.123-13.73,7.138-13.355,15.013a10.262,10.262,0,0,0,18.615,6.087c4.921-6.311,4.56-18.121-2.532-20.276" transform="translate(-44.028 -22.13)" fill="#e9dba5"/>
          <path id="Trazado_875393" data-name="Trazado 875393" d="M179.049,88.4c-4.412,2.963-3.257,10.616-3.257,10.616l3.187,1.516a15.137,15.137,0,0,0,5.627-6.7c2.526-5.782-2.354-7.588-5.557-5.437" transform="translate(-43.665 -21.756)" fill="#222021"/>
          <path id="Trazado_875394" data-name="Trazado 875394" d="M185.945,87.753c-.222,5.474,5.156,8.247,10.918,9.212,5.341.9,8.216-.656,9.83-5.27,0,0-3.15,1.217-6.133-2.1-.888-.987-3.166-5.576-9.1-5.727-2.219-.056-5.416,1.438-5.514,3.885" transform="translate(-46.221 -20.848)" fill="#222021"/>
          <path id="Trazado_875395" data-name="Trazado 875395" d="M192.593,113.577a2.791,2.791,0,0,1-1.369-.5.315.315,0,0,1,.358-.519c.364.22,1.171.692,1.405.107.237-.5-.3-.869-.479-1.3a2.4,2.4,0,0,1,.2-1.873.316.316,0,0,1,.54.326c-.026.005-.479,1.018-.006,1.545a1.486,1.486,0,0,1,.334,1.534.979.979,0,0,1-.983.679" transform="translate(-47.501 -27.18)" fill="#222021"/>
          <path id="Trazado_875396" data-name="Trazado 875396" d="M202.3,104.974a.315.315,0,0,1-.234-.1,4.92,4.92,0,0,0-3.443-1.229.316.316,0,0,1-.03-.63,5.464,5.464,0,0,1,3.942,1.437.318.318,0,0,1-.234.527" transform="translate(-49.294 -25.606)" fill="#222021"/>
          <path id="Trazado_875397" data-name="Trazado 875397" d="M191.663,101.579c-.244.02-1.816-1.4-3.735-.946a.316.316,0,0,1-.156-.612,5.469,5.469,0,0,1,4.078.988.318.318,0,0,1-.188.57" transform="translate(-46.618 -24.836)" fill="#222021"/>
          <path id="Trazado_875398" data-name="Trazado 875398" d="M199.372,105.56a1.931,1.931,0,0,0-2.407,1.289l-.707,2.339a.318.318,0,0,0,.213.4l3.086.933a.318.318,0,0,0,.4-.212l.707-2.339a1.931,1.931,0,0,0-1.289-2.407" transform="translate(-48.783 -26.22)" fill="#fff"/>
          <path id="Trazado_875399" data-name="Trazado 875399" d="M200.061,107.36c-1.534-.419-2.347,2.272-.839,2.773,1.533.418,2.347-2.272.839-2.773" transform="translate(-49.323 -26.677)" fill="#222021"/>
          <path id="Trazado_875400" data-name="Trazado 875400" d="M188.985,102.419a1.93,1.93,0,0,0-2.407,1.289l-.707,2.339a.318.318,0,0,0,.213.4l3.086.933a.318.318,0,0,0,.4-.212l.707-2.339a1.931,1.931,0,0,0-1.289-2.407" transform="translate(-46.201 -25.439)" fill="#fff"/>
          <path id="Trazado_875401" data-name="Trazado 875401" d="M189.7,104.227c-1.533-.419-2.347,2.272-.839,2.773,1.533.418,2.347-2.272.839-2.773" transform="translate(-46.748 -25.898)" fill="#222021"/>
          <path id="Trazado_875402" data-name="Trazado 875402" d="M186.7,114.687a.428.428,0,0,0-.735.289,2.921,2.921,0,0,0,1.83,2.889,3.133,3.133,0,0,0,3.511-.566.425.425,0,0,0-.291-.74,5.992,5.992,0,0,1-4.315-1.873" transform="translate(-46.228 -28.477)" fill="#fff"/>
          <path id="Trazado_875403" data-name="Trazado 875403" d="M179.54,103.2c-.579-1.8-2.244-2.882-3.719-2.409-3.488,1.272-1.478,7.528,2.1,6.532,1.476-.473,2.2-2.32,1.623-4.123" transform="translate(-43.255 -25.026)" fill="#e9dba5"/>
          <path id="Trazado_875404" data-name="Trazado 875404" d="M178.708,105.118a.316.316,0,0,1-.3-.224,2.488,2.488,0,0,0-2.344-1.734.315.315,0,0,1-.007-.63,3.079,3.079,0,0,1,2.955,2.181.316.316,0,0,1-.3.407" transform="translate(-43.689 -25.487)" fill="#222021"/>
          <path id="Trazado_875405" data-name="Trazado 875405" d="M218.826,350.442h-36.54l1.737,21.31h36.54Z" transform="translate(-45.313 -87.113)" fill="#e9dba5"/>
          <path id="Trazado_875406" data-name="Trazado 875406" d="M227.717,373.585c-3.847-1.834-6.785-3.169-6.785-3.169l-37.476,1.368v24.043h59.527c0-9.233-5.841-17.748-15.267-22.242" transform="translate(-45.604 -92.078)" fill="#222021"/>
          <path id="Trazado_875407" data-name="Trazado 875407" d="M226.736,382.546a.847.847,0,0,1-.6-1.432,23.146,23.146,0,0,1,14.436-6.741.842.842,0,0,1,.062,1.682,21.844,21.844,0,0,0-13.3,6.241.838.838,0,0,1-.6.25" transform="translate(-56.153 -93.062)" fill="#fff"/>
          <path id="Trazado_875408" data-name="Trazado 875408" d="M227.589,384.011a2.546,2.546,0,0,1-5.092,0,2.546,2.546,0,0,1,5.092,0" transform="translate(-55.308 -94.83)" fill="#fff"/>
          <rect id="Rectángulo_402608" data-name="Rectángulo 402608" width="59.527" height="6.631" transform="translate(137.852 303.013)"/>
          <path id="Trazado_875409" data-name="Trazado 875409" d="M207.965,259.974a16.71,16.71,0,0,0-33.171,3.616l3.656,69.159,41.074-3.075Z" transform="translate(-43.444 -61.15)" fill="#ddc773"/>
          <path id="Trazado_875410" data-name="Trazado 875410" d="M178.644,346.726a.842.842,0,0,1-.072-1.679l39.968-3.5a.841.841,0,0,1,.147,1.676c-.074,0-39.973,3.5-40.042,3.5" transform="translate(-44.201 -84.902)" fill="#fff"/>
          <path id="Trazado_875411" data-name="Trazado 875411" d="M205.661,244.182c-2.269-15.435-9.7-50.643-24.941-57.513l-14.383.851,6.322,59.9a16.759,16.759,0,0,0,18.97,14.842c8.958-1.242,15.347-9.134,14.032-18.081" transform="translate(-41.348 -46.402)" fill="#ddc773"/>
          <path id="Trazado_875412" data-name="Trazado 875412" d="M116.128,336.639,88,313.317,75.734,330.831l28.129,23.322Z" transform="translate(-18.826 -77.885)" fill="#e9dba5"/>
          <path id="Trazado_875413" data-name="Trazado 875413" d="M106.893,360.478c-1.791-3.868-3.2-6.77-3.2-6.77L73.969,330.842,58.624,349.351l45.826,37.993c5.893-7.108,6.831-17.39,2.443-26.866" transform="translate(-14.573 -82.241)" fill="#222021"/>
          <path id="Trazado_875414" data-name="Trazado 875414" d="M120.715,373.276c-.691.023-5.956-4.748-14.716-3.949a.842.842,0,0,1-.158-1.676,23.13,23.13,0,0,1,15.391,4.118.847.847,0,0,1-.517,1.506" transform="translate(-26.121 -91.366)" fill="#fff"/>
          <path id="Trazado_875415" data-name="Trazado 875415" d="M105.977,369.412a2.546,2.546,0,0,1-3.9-3.274,2.546,2.546,0,0,1,3.9,3.274" transform="translate(-25.223 -90.786)" fill="#fff"/>
          <rect id="Rectángulo_402609" data-name="Rectángulo 402609" width="6.632" height="59.527" transform="matrix(0.638, -0.77, 0.77, 0.638, 40.288, 271.648)"/>
          <path id="Trazado_875416" data-name="Trazado 875416" d="M142.614,254.449h0c-7.437-5.136-17.279-4.113-20.013-.552l-38.51,50.165,32.925,24.375,31.293-53.4c3.927-6.7,1.451-15.651-5.7-20.587" transform="translate(-20.903 -62.371)" fill="#ddc773"/>
          <path id="Trazado_875417" data-name="Trazado 875417" d="M125.461,333.51a.84.84,0,0,1-.476-.148L91.81,310.568a.842.842,0,0,1,.953-1.387l33.176,22.794a.846.846,0,0,1-.477,1.535" transform="translate(-22.732 -76.818)" fill="#fff"/>
          <path id="Trazado_875418" data-name="Trazado 875418" d="M149.732,187.794c-14.908,7.985-20.7,45.448-22.249,61.824a16.633,16.633,0,0,0,14.855,18.367h0c9.431.913,17.706-6.594,18.262-16.567l3.538-63.43Z" transform="translate(-31.67 -46.682)" fill="#ddc773"/>
          <path id="Trazado_875419" data-name="Trazado 875419" d="M172.623,214.4v27.047l1.257,9.635c.926-25.243.312-35.585-1.257-36.682" transform="translate(-42.911 -53.296)" fill="#222021"/>
          <path id="Trazado_875420" data-name="Trazado 875420" d="M193.2,132.008l-38.321-11.59c-4.288-1.3-8.774,1.916-9.3,6.662l-2.212,19.887c-2.685,27.591,31.652,37.975,44.706,13.52l9.179-17.779c2.19-4.243.237-9.4-4.05-10.7" transform="translate(-35.601 -29.862)"/>
          <path id="Trazado_875421" data-name="Trazado 875421" d="M146.435,160.425l1.232,10.273-1.412-1.04a25.719,25.719,0,0,1-3.024-13.625l13.66-5.857c-.31,4.563-10.457,10.249-10.457,10.249" transform="translate(-35.595 -37.331)" fill="#222021"/>
          <path id="Trazado_875422" data-name="Trazado 875422" d="M176.1,125.657c.169,3.889,3.191,7.943,6.681,9,3.514,1.093,6.09-1.418,5.691-5.257Z" transform="translate(-43.775 -31.236)" fill="#e9dba5"/>
          <path id="Trazado_875423" data-name="Trazado 875423" d="M202.525,158.1l3.6-1.654,1.263-10.606Z" transform="translate(-50.344 -36.252)" fill="#222021"/>
          <path id="Trazado_875424" data-name="Trazado 875424" d="M208.911,157.533,204.6,168.5a7.619,7.619,0,0,0,1.085,7.415c-1.15.679-2.278,1.338-2.371.987l-2.79-4.173Z" transform="translate(-49.847 -39.16)" fill="#222021"/>
          <path id="Trazado_875425" data-name="Trazado 875425" d="M124.373,209.43l113.057-51.25,5.87-2.661a59.281,59.281,0,0,1-8.959-22.24l-6.076,2.152-117.01,41.434a11.618,11.618,0,0,0-6.9,15.291l4.445,11.033a11.617,11.617,0,0,0,15.572,6.24" transform="translate(-25.731 -33.131)" fill="#222021"/>
          <path id="Trazado_875426" data-name="Trazado 875426" d="M393.605,73.561C361.968.921,255.924,33.157,269.16,110.475a66.047,66.047,0,0,0,9.164,22.748c44.066,64.911,142.841,14.6,115.281-59.662m-109.411,57a59.28,59.28,0,0,1-8.959-22.24C264.514,38.9,359.38,10.925,387.7,75.939c24.647,66.511-63.121,112.08-103.51,54.623" transform="translate(-66.625 -8.173)" fill="#ddc773"/>
          <path id="Trazado_875427" data-name="Trazado 875427" d="M127.161,216.451l59.7-26.981c2.284-1.032,3.507-3.245,2.785-5.037L179.43,159.069c-.722-1.792-3.137-2.539-5.5-1.7L112.2,179.308c-9.471,3.364-14.995,12.236-12.1,19.423l4.877,12.108c2.9,7.187,13.027,9.752,22.185,5.612" transform="translate(-24.691 -39.033)" fill="#aad9b2"/>
          <path id="Trazado_875428" data-name="Trazado 875428" d="M205.146,100.618a7.713,7.713,0,0,1,.776,4.349c1.691-1.046,3.317-2.726,2.507-5.527Z" transform="translate(-50.995 -24.719)" fill="#222021"/>
          <path id="Trazado_875429" data-name="Trazado 875429" d="M267.233,170.409a29.173,29.173,0,0,1,2.19,4.061c2.259,4.812-6.1,9.264-8.6,4.094-1.948-3.578-5.5-10.425-2.3-12.984,3.552-2.714,6.535,1.326,8.707,4.829" transform="translate(-63.944 -40.939)" fill="#e9dba5"/>
          <path id="Trazado_875430" data-name="Trazado 875430" d="M276.213,164.079a29.09,29.09,0,0,1,2.6,3.811c2.748,4.551-5.107,9.849-8.127,4.965-2.309-3.356-6.558-9.8-3.635-12.674,3.251-3.069,6.638.639,9.162,3.9" transform="translate(-66.137 -39.533)" fill="#e9dba5"/>
          <path id="Trazado_875431" data-name="Trazado 875431" d="M257.734,175.486c.732,1.244,2.022,4.434,2.162,4.766,1.221,2.911-5.932,7.245-8.641,2.873-1.111-2.3-1.61-2.393-2.4-4.611-1.267-3.55-1.667-6.624.283-8.046,3.611-2.636,6.506,1.468,8.6,5.018" transform="translate(-61.595 -42.167)" fill="#e9dba5"/>
          <path id="Trazado_875432" data-name="Trazado 875432" d="M261.062,179.236a.525.525,0,0,1-.471-.292c-.028-.056-2.762-5.564-4.139-7.867a.526.526,0,0,1,.9-.54c1.4,2.339,4.064,7.712,4.177,7.939a.529.529,0,0,1-.47.76" transform="translate(-63.73 -42.328)" fill="#222021"/>
          <path id="Trazado_875433" data-name="Trazado 875433" d="M270.431,173.569a.527.527,0,0,1-.455-.261c-.032-.056-3.293-5.66-4.919-8.011a.526.526,0,1,1,.865-.6c1.65,2.385,4.829,7.849,4.964,8.08a.53.53,0,0,1-.455.79" transform="translate(-65.865 -40.884)" fill="#222021"/>
          <path id="Trazado_875434" data-name="Trazado 875434" d="M248.477,175.657a.525.525,0,0,1-.491-.338c-1.021-2.674-1.176-5.045-.436-6.679,1.132-2.7,4.822-2.717,6.582-1.583a4.6,4.6,0,0,1,6.528-4.157c.137-2.03,1.141-4.186,3.673-4.51,3.844-.5,7.633,5.232,7.792,5.476a.526.526,0,1,1-.881.576c-.035-.054-3.584-5.416-6.778-5.009-2.964.482-2.771,3.649-2.752,4.55l-.293.2a.565.565,0,0,1-.585-.011,3.577,3.577,0,0,0-5.552,3.745.569.569,0,0,1-.911.564,4.537,4.537,0,0,0-4.309-.852,2.674,2.674,0,0,0-1.557,1.449c-.614,1.356-.446,3.5.46,5.869a.528.528,0,0,1-.491.714m5.783-7.507h0m.783-.486h0m5.607-3.954h0" transform="translate(-61.421 -39.365)" fill="#222021"/>
          <path id="Trazado_875435" data-name="Trazado 875435" d="M154.134,128.84,152.672,126a11.034,11.034,0,0,0-15.4-4.475L110.917,137a11.083,11.083,0,0,0,10.139,19.674l27.816-12.637a11.11,11.11,0,0,0,5.262-15.2" transform="translate(-26.211 -29.831)"/>
          <path id="Trazado_875436" data-name="Trazado 875436" d="M137.548,174.9l-11.373-25.744a11.33,11.33,0,0,0-14.678-5.9h0a11.331,11.331,0,0,0-6.05,15.056l11.373,25.744a11.33,11.33,0,0,0,20.728-9.158" transform="translate(-25.971 -35.398)" fill="#e9dba5"/>
          <path id="Trazado_875437" data-name="Trazado 875437" d="M135.92,166.345c.851,1.1-24.4,11.978-25.041,10.384,0,0-9.073-20.275-6.4-27.751a11.5,11.5,0,0,1,6.611-6.668,12.151,12.151,0,0,1,15.651,6.288Z" transform="translate(-25.849 -35.147)"/>
          <path id="Trazado_875438" data-name="Trazado 875438" d="M151.124,192.04l-24.379,18.087c-3.76-4.618-5.83-13.2-7.342-19.506l19.9-10.608s11.248,10.61,11.823,12.026" transform="translate(-29.681 -44.748)" fill="#e9dba5"/>
          <path id="Trazado_875439" data-name="Trazado 875439" d="M144.86,180.329l-2.066,14.142c7.043,1.03,14.987,1.521,19.22.7,3.091-.6,8.74-6.94,1.16-8.057s-6.722.416-11.7-2.679Z" transform="translate(-35.496 -44.826)" fill="#e9dba5"/>
          <path id="Trazado_875440" data-name="Trazado 875440" d="M137.648,224.1c3.574-2.267.467-8.058-2.405-14.856a95.581,95.581,0,0,1-4.591-11.914l-8.526,4.466a50.836,50.836,0,0,0,7.736,17.667c2.855,4.206,4.954,6.433,7.787,4.635" transform="translate(-30.358 -49.054)" fill="#e9dba5"/>
          <path id="Trazado_875441" data-name="Trazado 875441" d="M150.161,221.172c3.493-2.385.119-8.157-3.061-14.953a98.844,98.844,0,0,1-5.13-11.923l-8.375,4.738a52.528,52.528,0,0,0,8.539,17.657c3.052,4.176,5.257,6.372,8.026,4.481" transform="translate(-33.209 -48.298)" fill="#e9dba5"/>
          <path id="Trazado_875442" data-name="Trazado 875442" d="M163.435,214.823c3.027-2.878-1.371-7.661-5.765-13.438a92.574,92.574,0,0,1-7.262-10.219l-7.435,5.983a49.354,49.354,0,0,0,11.689,14.958c3.787,3.348,6.374,5,8.774,2.716" transform="translate(-35.54 -47.52)" fill="#e9dba5"/>
          <path id="Trazado_875443" data-name="Trazado 875443" d="M142.06,220.287a.525.525,0,0,1-.46-.27c-.157-.282-3.861-6.935-4.274-9.14a.526.526,0,0,1,1.034-.194c.382,2.038,4.122,8.754,4.159,8.822a.53.53,0,0,1-.459.782" transform="translate(-34.134 -52.267)" fill="#222021"/>
          <path id="Trazado_875444" data-name="Trazado 875444" d="M152.94,213.292a.525.525,0,0,1-.436-.231c-.165-.242-4.025-5.96-4.495-7.85a.526.526,0,0,1,1.02-.254c.353,1.419,3.257,5.906,4.345,7.515a.529.529,0,0,1-.435.821" transform="translate(-36.788 -50.85)" fill="#222021"/>
          <path id="Trazado_875445" data-name="Trazado 875445" d="M586.755,319.811c-4.718-15.323-13.269-61.479-11.266-72.152s-1.4-10.356-1.4-10.356l-12.8,1.728s-3.363.6,1.4,10.356,8.749,56.532,8.26,72.557c-.483,15.858-1.229,47.094,14.1,46.644l.006.045c.082-.016.159-.038.239-.055s.162,0,.245-.01l-.006-.045c14.895-3.628,5.9-33.549,1.228-48.712" transform="translate(-139.239 -58.989)" fill="#222021"/>
          <path id="Trazado_875446" data-name="Trazado 875446" d="M584.818,306.933l-3.942-31.179a2.44,2.44,0,0,0-2.725-2.114l-9.738,1.232A2.439,2.439,0,0,0,566.3,277.6l3.943,31.179a2.437,2.437,0,0,0,2.725,2.113l9.738-1.231a2.438,2.438,0,0,0,2.114-2.725" transform="translate(-140.766 -68.017)"/>
          <path id="Trazado_875447" data-name="Trazado 875447" d="M560.182,205.757l-33.608-.025,6.241,46.931,32.394-9.1Z" transform="translate(-130.896 -51.141)"/>
          <path id="Trazado_875448" data-name="Trazado 875448" d="M597.276,195.432l-32.544,8.389,4.541,37.87,33.64.749Z" transform="translate(-140.381 -48.581)"/>
          <path id="Trazado_875449" data-name="Trazado 875449" d="M532,253.375l-7.048-52.236A2.629,2.629,0,0,0,522,198.886l-4.165.562a2.629,2.629,0,0,0-2.254,2.957l7.048,52.236a2.628,2.628,0,0,0,2.957,2.254l4.164-.562A2.629,2.629,0,0,0,532,253.375" transform="translate(-128.157 -49.433)" fill="#aad9b2"/>
          <path id="Trazado_875450" data-name="Trazado 875450" d="M620.529,242.274l-6.174-52.346a2.63,2.63,0,0,0-2.919-2.3l-4.173.492a2.63,2.63,0,0,0-2.3,2.919l6.174,52.346a2.629,2.629,0,0,0,2.919,2.3l4.173-.492a2.629,2.629,0,0,0,2.3-2.919" transform="translate(-150.376 -46.635)" fill="#aad9b2"/>
          <path id="Trazado_875451" data-name="Trazado 875451" d="M573.793,241.8l-4.646-36.744a3.348,3.348,0,0,0-6.643.84l4.646,36.744a3.348,3.348,0,0,0,6.643-.84" transform="translate(-139.823 -50.251)" fill="#aad9b2"/>
          <rect id="Rectángulo_402610" data-name="Rectángulo 402610" width="105.155" height="15.14" transform="translate(310.991 282.742)" fill="#aad9b2"/>
          <path id="Trazado_875452" data-name="Trazado 875452" d="M522.587,394.541H402.257c-2.535,0-4.59,3.735-4.59,8.341,0,2.671,1.192,4.838,2.661,4.838H524.515c1.47,0,2.662-2.166,2.662-4.838,0-4.606-2.055-8.341-4.59-8.341" transform="translate(-98.852 -98.075)" fill="#222021"/>
          <path id="Trazado_875453" data-name="Trazado 875453" d="M517.929,366.156H412.18c-2.166,0-3.922,2.173-3.922,4.853s1.756,4.854,3.922,4.854H517.929c5.174-.234,5.226-9.445,0-9.708" transform="translate(-101.485 -91.019)" fill="#222021"/>
          <path id="Trazado_875454" data-name="Trazado 875454" d="M481.108,412.642H.842a.842.842,0,1,1,0-1.683H481.108a.842.842,0,0,1,0,1.683" transform="translate(0 -102.156)" fill="#222021"/>
          <path id="Trazado_875455" data-name="Trazado 875455" d="M124.818,440.831H52.93a.842.842,0,1,1,0-1.683h71.888a.842.842,0,0,1,0,1.683" transform="translate(-12.948 -109.164)" fill="#222021"/>
          <path id="Trazado_875456" data-name="Trazado 875456" d="M484.936,440.831H182.776a.842.842,0,1,1,0-1.683H484.936a.842.842,0,1,1,0,1.683" transform="translate(-45.225 -109.164)" fill="#222021"/>
          <path id="Trazado_875457" data-name="Trazado 875457" d="M538.459,318.46c1.8-.537,3.2-2.443,3.6-4.882l.216-1.332.216,1.332c.4,2.439,1.8,4.345,3.6,4.882l.981.294-.981.293c-1.8.538-3.2,2.443-3.6,4.882l-.216,1.332-.216-1.332c-.4-2.439-1.8-4.344-3.6-4.882l-.981-.293Z" transform="translate(-133.607 -77.618)" fill="#ddc773"/>
          <path id="Trazado_875458" data-name="Trazado 875458" d="M46.847,248.463c1.8-.537,3.2-2.443,3.6-4.882l.216-1.332.216,1.332c.4,2.439,1.8,4.345,3.6,4.882l.981.293-.981.294c-1.8.537-3.2,2.443-3.6,4.882l-.216,1.332-.216-1.332c-.4-2.439-1.8-4.345-3.6-4.882l-.981-.294Z" transform="translate(-11.401 -60.219)" fill="#aad9b2"/>
          <path id="Trazado_875459" data-name="Trazado 875459" d="M236.828,253.1c1.8-.537,3.2-2.443,3.6-4.882l.216-1.331.216,1.331c.4,2.439,1.8,4.345,3.6,4.882l.981.294-.981.293c-1.8.538-3.2,2.443-3.6,4.882l-.216,1.332-.216-1.332c-.4-2.439-1.8-4.344-3.6-4.882l-.981-.293Z" transform="translate(-58.627 -61.37)"/>
          <path id="Trazado_875460" data-name="Trazado 875460" d="M583.48,128.383c1.8-.537,3.2-2.443,3.6-4.882l.216-1.332.216,1.332c.4,2.439,1.8,4.345,3.6,4.882l.981.294-.981.293c-1.8.538-3.2,2.443-3.6,4.882l-.216,1.331-.216-1.331c-.4-2.439-1.8-4.344-3.6-4.882l-.98-.293Z" transform="translate(-144.798 -30.369)" fill="#aad9b2"/>
          <path id="Trazado_875461" data-name="Trazado 875461" d="M544.318,85.535c2.651-.794,4.721-3.6,5.306-7.2l.319-1.964.319,1.964c.585,3.6,2.655,6.409,5.306,7.2l1.446.433-1.446.433c-2.651.793-4.721,3.6-5.306,7.2l-.319,1.964-.319-1.964c-.585-3.6-2.655-6.409-5.306-7.2l-1.446-.433Z" transform="translate(-134.947 -18.984)"/>
          <path id="Trazado_875462" data-name="Trazado 875462" d="M60.384,134.36c2.651-.793,4.721-3.6,5.306-7.2l.319-1.964.319,1.964c.585,3.6,2.655,6.409,5.306,7.2l1.446.433-1.446.433c-2.651.793-4.721,3.6-5.306,7.2l-.319,1.964-.319-1.964c-.585-3.6-2.655-6.409-5.306-7.2l-1.446-.433Z" transform="translate(-14.651 -31.121)" fill="#ddc773"/>
          <path id="Trazado_875463" data-name="Trazado 875463" d="M125.73,64.222C103.841,76.067,76.174,60,75.772,34.973A34.073,34.073,0,0,1,108.944.022c26.4-.96,43.773,28.61,30.375,51.136l8.046,17.8Z" transform="translate(-18.833 0)" fill="#aad9b2"/>
          <path id="Trazado_875464" data-name="Trazado 875464" d="M133.757,42.641h-1.093l-6.55-20.62h.663a.177.177,0,0,0,.177-.181h1.7a.645.645,0,0,0,0-1.289h-1.7a.177.177,0,0,0-.177-.181h-2.789a.176.176,0,0,0-.176.181h-8.934a2.306,2.306,0,0,0-3.729,0h-8.934a.177.177,0,0,0-.177-.181H99.252a.176.176,0,0,0-.177.181h-1.7a.645.645,0,0,0,0,1.289h1.7a.176.176,0,0,0,.177.181h.631l-6.519,20.62H92.271c-.125,0-.189.252-.1.4l1.894,3.336a.794.794,0,0,0,.653.47h11.861a.8.8,0,0,0,.653-.47l1.894-3.336c.086-.152.023-.4-.1-.4h-1.093l-6.551-20.62h.663a.177.177,0,0,0,.177-.181h8.5a2.285,2.285,0,0,0,1.131,2.03V58.044a4.234,4.234,0,0,0-3.771,4.208h9.88a4.233,4.233,0,0,0-3.771-4.208V23.867a2.28,2.28,0,0,0,1.126-2.027h8.5a.176.176,0,0,0,.176.181h.632l-6.52,20.62h-1.092c-.125,0-.189.252-.1.4l1.894,3.336a.8.8,0,0,0,.653.47h11.862a.8.8,0,0,0,.653-.47l1.894-3.336c.086-.152.023-.4-.1-.4m-39.512,0,6.384-20.192,6.414,20.192Zm24.737,0,6.384-20.192,6.414,20.192Z" transform="translate(-22.901 -4.872)" fill="#fff"/>
        </g>
      </g>
    </g>
  </g>
</svg>
