<svg xmlns="http://www.w3.org/2000/svg" xmlns:xlink="http://www.w3.org/1999/xlink" width="73.035" height="73.035" viewBox="0 0 73.035 73.035">
  <defs>
    <clipPath id="clip-path">
      <rect id="Rect치ngulo_402652" data-name="Rect치ngulo 402652" width="46.818" height="46.876" fill="none"/>
    </clipPath>
  </defs>
  <g id="Grupo_1102508" data-name="Grupo 1102508" transform="translate(-212.051 -9251.982)">
    <g id="Grupo_1102291" data-name="Grupo 1102291">
      <g id="Grupo_1102290" data-name="Grupo 1102290" transform="translate(1)">
        <g id="Elipse_11493" data-name="Elipse 11493" transform="translate(211.051 9251.982)" fill="#95dbb3" stroke="#fff" stroke-width="2">
          <circle cx="36.518" cy="36.518" r="36.518" stroke="none"/>
          <circle cx="36.518" cy="36.518" r="35.518" fill="none"/>
        </g>
        <g id="Grupo_1102289" data-name="Grupo 1102289" transform="translate(220.094 9265.063)">
          <g id="Grupo_1102288" data-name="Grupo 1102288" clip-path="url(#clip-path)">
            <path id="Trazado_875601" data-name="Trazado 875601" d="M95.1,46.842H93.539V45.8q0-7.745,0-15.491a6.972,6.972,0,0,0-.041-1.069c-.184-1.18-.49-1.425-1.69-1.477-.47-.02-.938-.093-1.431-.144a.829.829,0,0,0,.075.236c1.1,1.29,1.056,1.44-.517,2.144a2.529,2.529,0,0,0-.735.57,1.07,1.07,0,0,0-.357.841,4.377,4.377,0,0,1-.413,1.449c-1.45,1.956-2.995,3.84-4.446,5.795a2.932,2.932,0,0,0-.547,1.568c-.06,2.171-.025,4.345-.025,6.589H81.844c0-2.055-.041-4.124.019-6.189a3.219,3.219,0,0,0-.793-2.292c-1.279-1.553-2.484-3.168-3.717-4.759-1.124-1.451-1.123-1.451.02-2.949-.828-.5-1.651-1-2.471-1.5-1.139-.694-1.155-1.1-.086-1.929.171-.133.335-.276.641-.53A4.334,4.334,0,0,0,72,27.65a.844.844,0,0,0-.277.574c-.017,3.527-.012,7.055-.012,10.881l3.023-5.246,1.228,1.022a5.356,5.356,0,0,0,.1,6.731,1.175,1.175,0,0,1,.255.617c.021,1.517.011,3.035.011,4.6H74.8c.162-2.482.109-4.962-1.562-7.089-.517,1.1-1.542,2.05-1.54,3.555a3.492,3.492,0,1,1-6.976-.129c.119-2.1.434-4.2.628-6.3.1-1.029.113-2.064.155-2.894-1.427-.524-2.725-.961-3.99-1.478a2.326,2.326,0,0,1-1.5-2.389c.01-.487,0-.974,0-1.461.009-2,1.134-2.74,2.9-1.844a5.881,5.881,0,0,0,3.5.521c-.447-1.838-.014-2.98,1.281-3.428,1.407-.486,2.315.135,3.4,2.411,1.777-1.4,3.892-1.317,5.949-1.261.441-1.355-.386-2.82.5-3.837l-2.783-4.485.234-.158a11.4,11.4,0,0,1-1.214-.3,3.021,3.021,0,0,1-1.26-4.922,2.693,2.693,0,0,0,.757-2.242,8.288,8.288,0,0,1,4.586-7.988A10.972,10.972,0,0,1,86.83.8,1.684,1.684,0,0,0,88.037.729a4.734,4.734,0,0,1,6.44,1.728,4.657,4.657,0,0,1-1.871,6.449,1.2,1.2,0,0,0-.282,1.965,3.146,3.146,0,0,1-1.835,5.617c-.06.005-.118.045-.091.034a23.191,23.191,0,0,1-1.172,2.512,19.335,19.335,0,0,1-1.6,2,21.074,21.074,0,0,1,2.465.692c2.291.939,3.45,2.731,4.286,5.061,1.092,3.04.611,6.089.7,9.134.1,3.6.024,7.2.024,10.922M76.394,11.832c0,1.072-.014,2.1,0,3.131a6.25,6.25,0,0,0,5.629,6.162A6.157,6.157,0,0,0,88.7,16.15c.206-1.1.042-2.267.182-3.386.225-1.8-.927-2.979-1.736-4.473a11.732,11.732,0,0,1-6.9,3.3c.121.89-.047,1.591-.937,1.724-1.082.162-1.322-.657-1.414-1.487Zm-1.5-1.494c1.94-.135,3.814-.208,5.674-.409a10.862,10.862,0,0,0,5.944-3.1c.879-.77,1.2-.685,1.807.326.167.278.329.559.492.839.441.759.881,1.519,1.425,2.456a7.046,7.046,0,0,0-2.649-7.378,8.541,8.541,0,0,0-9.141-.471c-2.969,1.519-3.865,4.279-3.552,7.732m-4.8,21.7c.171-2.184.2-4.229-.92-6.063-.172-.284-.683-.361-1.038-.534a6.209,6.209,0,0,0-.243,1.1c-.01.2.188.4.288.605.718,1.451.488,1.784-1.168,1.814-1.848.033-3.688.067-5.43-1.108,0,.937-.041,1.65.02,2.355a1.092,1.092,0,0,0,.432.788,7.456,7.456,0,0,0,2.5,1c1.828.151,3.676.046,5.558.046m.05,4.755H66.932c-.225,2.243-.5,4.452-.644,6.67a1.839,1.839,0,0,0,1.864,1.854,1.9,1.9,0,0,0,1.978-1.852c.045-2.195.013-4.391.013-6.673m9.567-9.736,2.95,4.427c.8-1.807,3.016-2.953,1.446-5.3l-4.4.87m-.93-4.294v2.882c1.288-.26,2.524-.515,3.763-.759,1.681-.331,1.682-.327,1.987-2.123ZM88.949,2.118a9.071,9.071,0,0,1,2.977,5.3,3.04,3.04,0,1,0-2.977-5.3M86.171,23.313c-.942,2.26-.041,5.053,1.858,5.931a4.876,4.876,0,0,0-1.858-5.931m6.242,2.992a4.624,4.624,0,0,0-4.008-3.368c.418.841.828,1.7,1.279,2.546a.874.874,0,0,0,.515.379c.71.17,1.432.291,2.215.442M67.075,35.112H70.1v-1.43H67.075ZM82.5,36.372l.242,0,1.453-4.12c-1.478,1.626-1.478,1.626-3.224-.226L82.5,36.372M74.8,11.843c-1.068.222-1.572.776-1.523,1.6A1.414,1.414,0,0,0,74.8,14.805Zm15.623.021v2.98c1.012-.146,1.521-.639,1.547-1.442.027-.839-.506-1.39-1.547-1.538M79.945,34.347l.145-.078-1.053-2.977-.8.869,1.712,2.187m5.218-.074.151.079,1.724-2.235-.845-.777-1.031,2.933m-7.6-7.153-1.321.988,2.112,1.216-.79-2.2" transform="translate(-48.315 0)"/>
            <path id="Trazado_875602" data-name="Trazado 875602" d="M15.218,41.8c.579,1.3,1.152,2.57,1.706,3.845.451,1.037.179,1.459-.933,1.489-3.041.08-3.038.078-4.891-2.281-.82-1.045-1.456-2.492-2.533-3-1.117-.531-2.667-.155-4.028-.17-.779-.009-1.559.019-2.337-.012A2.213,2.213,0,0,1,.07,39.986,2.266,2.266,0,0,1,1.159,37.5a10.569,10.569,0,0,0,1.394-1.031,4.388,4.388,0,0,1,3.538-1.018A2.159,2.159,0,0,0,8.264,34.39c1.263-1.767,2.668-3.433,3.973-5.171a1.7,1.7,0,0,1,1.628-.815c.644.056,1.3.008,1.947.012,1.336.008,1.6.392,1.069,1.59-.654,1.483-1.321,2.96-1.978,4.441-.128.289-.232.588-.388.985a11.492,11.492,0,0,0,1.645-.021,1.321,1.321,0,0,0,.826-.472c.58-.859,1.107-1.756,1.613-2.662a1.339,1.339,0,0,1,1.336-.754c2.684.043,3-.369,2.335,2.718-.278,1.286-.243,2.638-.455,3.942a1.845,1.845,0,0,1-.73,1.191c-1.319.759-2.69,1.433-4.078,2.059a8.482,8.482,0,0,1-1.787.366m-7.978-1.69c-.376-1.247-.149-1.551,1.076-1.557,1.461-.007,2.923.033,4.383-.016a1.336,1.336,0,0,1,1.5.928c.1.253.394.611.6.609a5.8,5.8,0,0,0,1.975-.281c.964-.369,1.845-.953,2.8-1.353.686-.288.844-.707.6-1.442H19.148c-3.994,0-7.988.025-11.981-.012-1.646-.015-3.267-.1-4.408,1.421-.124.165-.427.187-.578.342a6.751,6.751,0,0,0-.588.792c.3.19.589.532.893.543,1.555.056,3.113.026,4.755.026m2.165-4.677a7.958,7.958,0,0,1,1.265.009,2.267,2.267,0,0,0,2.951-1.873,29.922,29.922,0,0,1,1.49-3.489l-.187-.235c-.517.164-1.218.169-1.517.519-1.343,1.568-2.572,3.234-4,5.068m.038,4.726c1.263,1.627,2.472,3.088,3.566,4.63a1.757,1.757,0,0,0,2.117.687c-.418-.947-.8-1.83-1.2-2.711C12.7,40,12.7,40,9.443,40.159m11.4-6.946c-.953-.151-1.641.578-2.1,2.176h1.647c.084-.342.17-.647.232-.958.082-.4.145-.812.217-1.218" transform="translate(0 -22.861)"/>
            <path id="Trazado_875603" data-name="Trazado 875603" d="M208.415,174.985l1.141-.968a6.559,6.559,0,0,1,1.34,5.935,2.282,2.282,0,0,1-.318.911c-1.213,1.509-.945,3.285-.96,5.012,0,.321,0,.642,0,1.035h-1.556c0-1.53-.01-3.075.012-4.619a1.191,1.191,0,0,1,.262-.607,5.392,5.392,0,0,0,.077-6.7" transform="translate(-167.508 -140.099)"/>
            <rect id="Rect치ngulo_402651" data-name="Rect치ngulo 402651" width="1.412" height="1.482" transform="translate(30.485 40.704)"/>
            <path id="Trazado_875604" data-name="Trazado 875604" d="M164.375,80.46c.632.029,1.32-.329,1.791.494a1.1,1.1,0,0,0,.973-.009c.48-.81,1.161-.455,1.794-.479a2.279,2.279,0,1,1-4.557-.006" transform="translate(-132.336 -64.735)"/>
            <path id="Trazado_875605" data-name="Trazado 875605" d="M190.472,57.64c-.067.776-.422,1.248-1.155,1.258a1.149,1.149,0,0,1-.093-2.3,1.148,1.148,0,0,1,1.249,1.038" transform="translate(-151.474 -45.566)"/>
          </g>
        </g>
      </g>
    </g>
  </g>
</svg>
