<svg xmlns="http://www.w3.org/2000/svg" xmlns:xlink="http://www.w3.org/1999/xlink" width="83.185" height="83.185" viewBox="0 0 83.185 83.185">
  <defs>
    <clipPath id="clip-path">
      <rect id="Rectángulo_402569" data-name="Rectángulo 402569" width="47.629" height="47.647" fill="none"/>
    </clipPath>
  </defs>
  <g id="Grupo_1102505" data-name="Grupo 1102505" transform="translate(-1028.765 -404.913)">
    <g id="Grupo_1102197" data-name="Grupo 1102197" transform="translate(6.714 10.913)">
      <g id="Elipse_11492" data-name="Elipse 11492" transform="translate(1022.051 394)" fill="#95dbb3" stroke="#fff" stroke-width="2">
        <circle cx="41.592" cy="41.592" r="41.592" stroke="none"/>
        <circle cx="41.592" cy="41.592" r="40.592" fill="none"/>
      </g>
      <g id="Elipse_11500" data-name="Elipse 11500" transform="translate(1029.051 401)" fill="none" stroke="#000" stroke-width="2" stroke-dasharray="5">
        <circle cx="35" cy="35" r="35" stroke="none"/>
        <circle cx="35" cy="35" r="34" fill="none"/>
      </g>
      <g id="Grupo_1102196" data-name="Grupo 1102196" transform="translate(1040.051 412)">
        <g id="Grupo_1102195" data-name="Grupo 1102195" clip-path="url(#clip-path)">
          <path id="Trazado_875174" data-name="Trazado 875174" d="M39.242,24.261c6.978,2.6,8.907,8.705,8.275,12.962A11.811,11.811,0,0,1,37.129,47.547a12.007,12.007,0,0,1-12.873-8.276c-7.365,1.339-13.806-.465-18.988-5.991A19.275,19.275,0,0,1,.031,18.575C.574,7.723,10.467-.836,21.418.065a19.945,19.945,0,0,1,17.824,24.2M4.776,19.9c.094.891.147,1.788.29,2.67C6.4,30.8,15.125,36.558,23.152,34.531a.973.973,0,0,0,.836-.915,11.811,11.811,0,0,1,9.6-9.6c.614-.107.9-.39.924-.929a29.694,29.694,0,0,0,.157-5.439A14.964,14.964,0,0,0,18.392,4.9a15.125,15.125,0,0,0-13.616,15M25.449,35.655A10.249,10.249,0,1,0,35.761,25.468,10.2,10.2,0,0,0,25.449,35.655m-1.7.468A16.7,16.7,0,1,1,19.77,3.18,16.82,16.82,0,0,1,36.143,23.774l1.331.145c1.662-5.557-.136-14.483-7.9-19.425A18.191,18.191,0,0,0,5.189,30.639c5.21,7.115,13.944,8.426,18.71,6.817-.047-.414-.094-.835-.15-1.334" transform="translate(0 0)"/>
          <path id="Trazado_875175" data-name="Trazado 875175" d="M25.71,41.158a15.125,15.125,0,0,1,13.616-15,14.964,14.964,0,0,1,16.28,12.747,29.7,29.7,0,0,1-.157,5.439c-.026.539-.31.822-.924.929a11.81,11.81,0,0,0-9.6,9.6.973.973,0,0,1-.836.914C36.059,57.819,27.337,52.064,26,43.829c-.143-.883-.2-1.78-.29-2.671m20.657,1.6c.172-.163.7-.441.7-.722,0-.315-.46-.648-.755-.939-.091-.09-.293-.073-.446-.1-1.255-.181-2.506-.4-3.767-.522a1.122,1.122,0,0,1-1.057-.825c-1.1-2.691-2.226-5.369-3.344-8.051-.217-.52-.507-1-1.165-.739-.628.249-.612.752-.376,1.316,1.256,2.993,2.485,6,3.764,8.981a1.378,1.378,0,0,0,.826.749c1.764.318,3.545.546,5.614.848M32.006,31.121c-.425.29-.738.394-.835.6a.982.982,0,0,0-.021.837,7.687,7.687,0,0,0,1.365,1.37.949.949,0,0,0,.835-.008c.2-.1.439-.561.371-.655-.516-.723-1.1-1.4-1.715-2.143M41.6,29.273c0-.216,0-.432,0-.647,0-.574-.256-1.062-.836-.952-.32.061-.65.555-.793.924a3.258,3.258,0,0,0-.029,1.191c.014.543.181,1.015.817,1.02.69.005.857-.481.843-1.073,0-.154,0-.308,0-.462M28.839,41.945h.647c.57,0,1.064-.24.943-.836-.065-.322-.545-.652-.909-.793a3.318,3.318,0,0,0-1.191-.03c-.55.01-1.023.209-1.031.818-.009.671.482.861,1.079.843.154,0,.308,0,.462,0m23.771,0c.217,0,.372,0,.526,0,.578.014,1.092-.11,1.106-.808s-.5-.84-1.075-.855c-.154,0-.308-.007-.462,0-.688.025-1.616-.162-1.6.874.012.993.927.749,1.509.79M41.6,53.053c0-.216.076-.474-.016-.639-.2-.359-.437-.88-.75-.956-.583-.141-.852.356-.888.912-.022.338-.009.678-.008,1.017,0,.588.068,1.185.823,1.2s.858-.558.841-1.164c0-.123,0-.246,0-.37m8.942-20.9a.757.757,0,0,0-1.166-.676A6.822,6.822,0,0,0,47.944,32.9a.787.787,0,0,0,.677,1.2,3.435,3.435,0,0,0,1.918-1.946M33.964,49.159c-.3-.429-.4-.769-.606-.837a1.172,1.172,0,0,0-.928.062A5.95,5.95,0,0,0,31.2,49.619a.929.929,0,0,0-.064.83c.116.214.607.478.713.4.723-.5,1.387-1.092,2.12-1.694" transform="translate(-20.934 -21.261)" fill="#fff"/>
          <path id="Trazado_875176" data-name="Trazado 875176" d="M91.522,63.294c-2.07-.3-3.85-.53-5.614-.848a1.377,1.377,0,0,1-.826-.749c-1.279-2.983-2.508-5.988-3.764-8.981-.237-.564-.253-1.067.375-1.316.658-.261.948.218,1.165.739C83.975,54.822,85.1,57.5,86.2,60.19a1.122,1.122,0,0,0,1.057.825c1.261.12,2.512.34,3.767.522.153.022.355.005.446.1.294.291.755.624.754.939,0,.281-.531.56-.7.722" transform="translate(-66.089 -41.793)"/>
          <path id="Trazado_875177" data-name="Trazado 875177" d="M55.48,53.081c.613.747,1.2,1.419,1.715,2.143.067.095-.175.553-.371.655a.949.949,0,0,1-.835.008,7.7,7.7,0,0,1-1.365-1.37.984.984,0,0,1,.021-.837c.1-.206.41-.309.836-.6" transform="translate(-44.408 -43.221)"/>
          <path id="Trazado_875178" data-name="Trazado 875178" d="M103.786,36.053c0,.154,0,.308,0,.462.014.591-.153,1.078-.843,1.073-.636,0-.8-.477-.817-1.02a3.258,3.258,0,0,1,.029-1.191c.143-.369.473-.863.793-.924.58-.11.839.378.836.952,0,.216,0,.432,0,.647" transform="translate(-83.122 -28.041)"/>
          <path id="Trazado_875179" data-name="Trazado 875179" d="M35.8,103.9c-.154,0-.308,0-.462,0-.6.018-1.088-.172-1.078-.843.008-.609.481-.808,1.031-.818a3.318,3.318,0,0,1,1.191.03c.364.141.844.471.909.793.121.6-.373.836-.943.836H35.8" transform="translate(-27.893 -83.212)"/>
          <path id="Trazado_875180" data-name="Trazado 875180" d="M163.908,104.047c-.582-.041-1.5.2-1.509-.79-.013-1.036.916-.849,1.6-.874.154-.006.308,0,.462,0,.574.014,1.088.158,1.074.855s-.528.822-1.106.808c-.154,0-.308,0-.526,0" transform="translate(-132.232 -83.362)"/>
          <path id="Trazado_875181" data-name="Trazado 875181" d="M103.933,164.054c0,.123,0,.247,0,.37.018.606-.084,1.177-.841,1.164s-.821-.611-.823-1.2c0-.339-.014-.679.008-1.017.037-.556.305-1.053.888-.912.313.076.549.6.75.956.092.164.016.423.016.639" transform="translate(-83.269 -132.262)"/>
          <path id="Trazado_875182" data-name="Trazado 875182" d="M147.428,55.05A3.435,3.435,0,0,1,145.51,57a.788.788,0,0,1-.677-1.2,6.826,6.826,0,0,1,1.429-1.426.757.757,0,0,1,1.166.676" transform="translate(-117.823 -44.163)"/>
          <path id="Trazado_875183" data-name="Trazado 875183" d="M57.425,146.232c-.733.6-1.4,1.19-2.12,1.694-.106.074-.6-.19-.713-.4a.929.929,0,0,1,.064-.83,5.949,5.949,0,0,1,1.235-1.234,1.172,1.172,0,0,1,.928-.062c.2.068.311.408.606.837" transform="translate(-44.394 -118.334)"/>
          <path id="Trazado_875184" data-name="Trazado 875184" d="M154.415,161.813c1.836-2.275,3.624-4.484,5.405-6.7,1.541-1.916,1.661-1.931,3.569-.321,1.343,1.133,1.375,1.508.257,2.9q-3.757,4.662-7.512,9.326c-.986,1.224-1.625,1.272-2.746.206-1.144-1.088-2.29-2.173-3.424-3.271-.842-.815-.859-1.349-.089-2.225.388-.442.773-.888,1.192-1.3a1.2,1.2,0,0,1,1.813-.044c.256.224.495.467.743.7s.489.453.791.732m7.25-6.306c-.166.182-.3.311-.411.453q-2.888,3.576-5.773,7.154c-.785.97-1.086.978-2.008.1l-1.451-1.38-.883.958,3.555,3.381,7.936-9.859-.965-.808" transform="translate(-121.579 -125.09)"/>
        </g>
      </g>
    </g>
  </g>
</svg>
