<svg xmlns="http://www.w3.org/2000/svg" xmlns:xlink="http://www.w3.org/1999/xlink" width="73.035" height="73.035" viewBox="0 0 73.035 73.035">
  <defs>
    <clipPath id="clip-path">
      <rect id="Rectángulo_402653" data-name="Rectángulo 402653" width="51.016" height="50.953" fill="none"/>
    </clipPath>
  </defs>
  <g id="Grupo_1102509" data-name="Grupo 1102509" transform="translate(-507.669 -9251.982)">
    <g id="Grupo_1102295" data-name="Grupo 1102295">
      <g id="Grupo_1102294" data-name="Grupo 1102294">
        <g id="Elipse_11493" data-name="Elipse 11493" transform="translate(507.669 9251.982)" fill="#95dbb3" stroke="#fff" stroke-width="2">
          <circle cx="36.518" cy="36.518" r="36.518" stroke="none"/>
          <circle cx="36.518" cy="36.518" r="35.518" fill="none"/>
        </g>
        <g id="Grupo_1102293" data-name="Grupo 1102293" transform="translate(520.051 9263.023)">
          <g id="Grupo_1102292" data-name="Grupo 1102292" clip-path="url(#clip-path)">
            <path id="Trazado_875606" data-name="Trazado 875606" d="M32.947,139.922a2.3,2.3,0,0,0-2.362.865,2.363,2.363,0,0,1-3.676-.114,1.98,1.98,0,0,0-1.835-.788c-1.732.034-1.742.005-2.3,1.593a7.481,7.481,0,0,1-14.284-.528c-.286-1.045-.288-1.1-1.361-1.043a6.386,6.386,0,0,1-6.056-3.1,6.254,6.254,0,0,1-.247-6.624,6.157,6.157,0,0,1,5.6-3.515c.375,0,.752-.027,1.125,0a2.363,2.363,0,0,0,2.3-.9,2.392,2.392,0,0,1,3.748.207,1.624,1.624,0,0,0,1.564.7,6.968,6.968,0,0,1,1.124,0,1.628,1.628,0,0,0,1.552-.721,2.464,2.464,0,0,1,3.973.05,1.542,1.542,0,0,0,1.472.671,6.232,6.232,0,0,1,1.124,0,1.7,1.7,0,0,0,1.642-.751,2.448,2.448,0,0,1,3.9.032,1.7,1.7,0,0,0,1.554.722c1.124-.037,2.25-.008,3.375-.01,1.148,0,1.125-.011,1.446-1.079a7.141,7.141,0,0,1,5.647-5.329,7.446,7.446,0,0,1,9.037,7.16,7.555,7.555,0,0,1-6.337,7.52,7.354,7.354,0,0,1-8.362-5.574,1.063,1.063,0,0,0-1.272-.945c-1.225.053-2.454.028-3.681.009a1.308,1.308,0,0,0-1.3.6,2.569,2.569,0,0,1-4.185-.037,1.178,1.178,0,0,0-1.21-.564,6.989,6.989,0,0,1-1.022,0,2.083,2.083,0,0,0-2.01.85,2.373,2.373,0,0,1-3.683-.019,2.07,2.07,0,0,0-2.02-.83,5.418,5.418,0,0,1-.92,0,1.445,1.445,0,0,0-1.374.658,2.477,2.477,0,0,1-4.042,0,1.624,1.624,0,0,0-1.479-.66,8.17,8.17,0,0,0-3.679.665,4.9,4.9,0,0,0-2.417,5.092,4.8,4.8,0,0,0,3.932,3.792c.168.027.335.063.5.089,1.578.244,1.627.208,2.12-1.321a7.486,7.486,0,0,1,14.352.334c.285,1.048.285,1.048,1.361,1.054.341,0,.684-.022,1.022,0a1.543,1.543,0,0,0,1.476-.661,2.478,2.478,0,0,1,4.042.008,1.456,1.456,0,0,0,1.376.654,6.549,6.549,0,0,1,1.124,0,1.8,1.8,0,0,0,1.738-.767,2.5,2.5,0,0,1,3.789-.107,2.588,2.588,0,0,1-.25,3.74,2.451,2.451,0,0,1-3.346-.155,2.175,2.175,0,0,0-2.319-.923m15.259-9.507c1.511-1.872,1.135-5.307-1.1-7.184a5.686,5.686,0,0,0-7.455.312c-1.863,1.749-2.26,5.217-.746,6.85l1.84-1.556c-.864-2.19-.67-3.639.609-4.695a3.315,3.315,0,0,1,4.069-.192,4.227,4.227,0,0,1,1.288,1.648,3.825,3.825,0,0,1-.39,3.22l1.89,1.6M12.92,140.287c-.888-2.092-.673-3.644.624-4.7a3.438,3.438,0,0,1,4.255-.063c1.376,1.049,1.6,2.494.71,4.768l1.888,1.6a5.471,5.471,0,0,0-1.306-7.339,5.619,5.619,0,0,0-7.573.778c-1.606,1.721-1.893,5.078-.424,6.521l1.826-1.565M46.8,131.934a3.611,3.611,0,0,0-3.474-1.775,3.333,3.333,0,0,0-3.024,1.819,5.175,5.175,0,0,0,6.5-.044M12.5,143.393c1.366,1.616,5.311,1.554,6.435-.063a3.58,3.58,0,0,0-3.351-1.714,3.394,3.394,0,0,0-3.084,1.777m32.566-16.7a1.52,1.52,0,1,0-1.486,1.554,1.622,1.622,0,0,0,1.486-1.554m-29.3,9.98a1.521,1.521,0,0,0-.091,3.041,1.521,1.521,0,0,0,.091-3.041m-3.321-9.089c-.376-.285-.594-.579-.79-.564s-.394.323-.59.5c.18.2.34.517.546.55s.437-.241.834-.489m8.186-.071c-.4-.25-.639-.524-.833-.493a.527.527,0,0,0,.041,1.054c.2.015.415-.277.792-.561m8.184.073c-.373-.285-.591-.579-.788-.567s-.395.322-.591.5c.179.2.338.518.544.552s.438-.24.835-.487m.042,12.245c.247-.4.519-.641.488-.836a.755.755,0,0,0-.55-.5.754.754,0,0,0-.5.549c-.014.2.28.415.565.79m8.962-.856c-.4-.248-.641-.52-.835-.489s-.365.356-.545.552c.2.18.383.487.591.5s.414-.28.789-.565" transform="translate(0 -95.521)"/>
            <path id="Trazado_875607" data-name="Trazado 875607" d="M22,20.26a7.7,7.7,0,0,1-.425,1.524,2.37,2.37,0,0,1-2.262,1.3,2.279,2.279,0,0,1-2.228-1.346,2.969,2.969,0,0,0-1.368-1.448c-1.228-.658-2.467-1.3-3.726-1.894a9.835,9.835,0,0,0-1.592-.433c0,1.155,0,2.17,0,3.184,0,.921-.014,1.842,0,2.763.009.552-.214.814-.783.806-1.091-.015-2.183-.027-3.273.009a.891.891,0,0,1-1.047-.836c-.364-1.769-.806-3.522-1.157-5.293a2,2,0,0,0-1.292-1.628,3.764,3.764,0,0,1-2.39-3.516c-.023-1.262-.03-2.525,0-3.786A4.014,4.014,0,0,1,4.387,5.746a51.588,51.588,0,0,0,5.184-.4,14.911,14.911,0,0,0,6.683-2.916,2.563,2.563,0,0,0,.681-.854A2.558,2.558,0,0,1,19.863.048,2.479,2.479,0,0,1,21.858,2.43a2.911,2.911,0,0,0,.136.4,10.756,10.756,0,0,1,9.355-1.592,10.377,10.377,0,0,1,5.736,4.048,10.777,10.777,0,0,1-.731,13.439,10.175,10.175,0,0,1-6.845,3.509A10.84,10.84,0,0,1,22,20.26M7.164,15.526a19.826,19.826,0,0,1,9.583,3.11V4.463A20.347,20.347,0,0,1,7.164,7.591Zm12.921-3.875c0-2.759,0-5.518,0-8.277,0-.988-.286-1.491-.8-1.389-.777.155-.7.818-.7,1.388q-.01,8.174,0,16.349c0,.988.286,1.491.8,1.389.777-.154.7-.818.7-1.388.009-2.691,0-5.382,0-8.072M5.294,7.626c-1.55-.143-2.709.421-2.865,1.653a17.76,17.76,0,0,0,0,4.548A2.147,2.147,0,0,0,5.294,15.39Zm23.075,3.036v0h1.021c2.151,0,2.344-.278,1.84-2.423-.125-.532-.344-.746-.888-.73-.952.029-1.907.007-2.86.007-2.113,0-2.2.084-2.188,2.213,0,.068,0,.136,0,.2-.036.523.211.741.728.73.783-.016,1.566,0,2.349,0m-.011,1.776v-.005H27.133c-2,0-2.129.166-1.745,2.165a1.794,1.794,0,0,1,.048.2c.042.585.333.816.934.793,1.02-.04,2.042-.01,3.064-.01,1.853,0,1.853,0,1.927-1.848.008-.2.007-.409.015-.613.02-.468-.2-.689-.669-.682-.783.01-1.566,0-2.349,0M8.617,22.814c0-1.606.009-3.168-.012-4.729,0-.166-.159-.456-.277-.474-.781-.12-1.572-.181-2.5-.275.088.547.126.878.195,1.2.225,1.066.464,2.13.692,3.2.273,1.282.356,1.338,1.9,1.081M33.118,7.53c.075,1,.115,1.835.219,2.665a.639.639,0,0,0,.436.432c1.07.038,2.142.02,3.277.02a5.421,5.421,0,0,0-.679-2.764.781.781,0,0,0-.568-.337c-.84-.037-1.682-.016-2.686-.016m3.93,4.921c-1.141,0-2.215-.014-3.287.016a.558.558,0,0,0-.412.346c-.1.864-.153,1.734-.231,2.741,1,0,1.9.017,2.8-.016a.668.668,0,0,0,.463-.334,5.482,5.482,0,0,0,.666-2.753M26.053,5.439l.223.211h4.456a22.341,22.341,0,0,0-1.438-2.4,1.122,1.122,0,0,0-1.907-.011,19.276,19.276,0,0,0-1.334,2.2m4.554,12.229-.194-.236H26.167a4.751,4.751,0,0,0,1.174,2.4,1.175,1.175,0,0,0,1.992-.024,18.626,18.626,0,0,0,1.275-2.139M23.31,10.6c.08-1.067.151-2.021.23-3.089L21.931,7.6V10.6ZM21.9,15.5h1.671c-.1-1.049-.192-2.007-.292-3.051l-1.379.07ZM31.771,3.434c.272.714.472,1.318.736,1.892a.762.762,0,0,0,.518.389c.591.05,1.188.018,2.015.018a8,8,0,0,0-3.269-2.3M35,17.358c-.764,0-1.333-.039-1.892.019a.882.882,0,0,0-.606.414c-.274.565-.464,1.171-.75,1.924A8.151,8.151,0,0,0,35,17.358M24.932,3.342a8.558,8.558,0,0,0-3.189,2.39c.8,0,1.358.033,1.91-.019a.765.765,0,0,0,.513-.393c.263-.573.462-1.175.765-1.977M21.825,17.5a8.616,8.616,0,0,0,3.082,2.233c-.938-2.612-.962-2.63-3.082-2.233" transform="translate(-0.344 0)"/>
            <path id="Trazado_875608" data-name="Trazado 875608" d="M200.777,59.121c0,1.5-.013,2.995.007,4.491.008.611-.148.97-.852.946-.779-.027-.91-.108-.914-.975-.012-2.62,0-5.24-.007-7.86,0-1.529-.155-1.724-1.643-1.805-.63-.034-.819-.3-.816-.882,0-.565.144-.93.795-.9.305.017.612-.006.918,0a2.358,2.358,0,0,1,2.506,2.487c.025,1.5.006,2.994.006,4.491" transform="translate(-156.354 -41.475)"/>
          </g>
        </g>
      </g>
    </g>
  </g>
</svg>
