<svg xmlns="http://www.w3.org/2000/svg" xmlns:xlink="http://www.w3.org/1999/xlink" width="73.035" height="73.035" viewBox="0 0 73.035 73.035">
  <defs>
    <clipPath id="clip-path">
      <rect id="Rectángulo_402668" data-name="Rectángulo 402668" width="45.534" height="45.529" fill="none"/>
    </clipPath>
  </defs>
  <g id="Grupo_1102512" data-name="Grupo 1102512" transform="translate(-351.777 -9355.525)">
    <g id="Grupo_1102305" data-name="Grupo 1102305" transform="translate(-10.274 -3.457)">
      <g id="Elipse_11493" data-name="Elipse 11493" transform="translate(362.051 9358.982)" fill="#95dbb3" stroke="#fff" stroke-width="2">
        <circle cx="36.518" cy="36.518" r="36.518" stroke="none"/>
        <circle cx="36.518" cy="36.518" r="35.518" fill="none"/>
      </g>
      <g id="Grupo_1102304" data-name="Grupo 1102304" transform="translate(375.802 9371.5)">
        <g id="Grupo_1102303" data-name="Grupo 1102303" clip-path="url(#clip-path)">
          <path id="Trazado_875616" data-name="Trazado 875616" d="M36.036,33.464a7.662,7.662,0,0,0,1.521.677c1.311.229,2.637.381,3.959.546a4.282,4.282,0,0,1,4.011,4.491c.012,1.689.008,3.378,0,5.067,0,1-.267,1.28-1.252,1.28q-10.978.007-21.956,0c-.983,0-1.238-.269-1.25-1.289-.014-1.124,0-2.248,0-3.508H19.986q-9.245,0-18.489,0c-1.3,0-1.488-.188-1.491-1.49,0-1.1.017-2.193-.006-3.289-.017-.829.372-1.2,1.181-1.187.557.009,1.115,0,1.8,0,0-.973,0-1.852,0-2.732.006-1.267.179-1.44,1.435-1.447.324,0,.647,0,1.037,0V20.628c-.463,0-.927-.01-1.391,0a.958.958,0,0,1-1.124-1.059c-.012-1.274-.006-2.548,0-3.822,0-.73.4-1.194,1.1-1.068,1.683.3,2.4-.522,3.176-1.93a10.854,10.854,0,0,1,8.375-5.634c.622-.089.763-.337.752-.91-.032-1.659-.019-3.318-.008-4.978C16.337.258,16.579.014,17.54.008,19.288,0,21.037.016,22.784,0,23.591-.008,24.005.331,24,1.157q-.011,1.867,0,3.733c0,.821-.394,1.174-1.208,1.164-1.535-.02-3.07-.006-4.583-.006-.228.7-.054.964.633,1.067A11.38,11.38,0,0,1,27.871,13.9a1.087,1.087,0,0,0,1.18.765c2.632-.081,2.44.061,2.425,2.421,0,.677,0,1.354,0,2.084a6.606,6.606,0,0,1,6.194,1.478,6.444,6.444,0,0,1,1.274,8.032,2.266,2.266,0,0,0-.36.7,5.856,5.856,0,0,1-2.548,4.078M8.281,14.577H26.137c-1.1-3.234-4.958-5.763-8.78-5.825-3.888-.062-7.813,2.427-9.076,5.825m25.273,29.1H43.745c0-1.514,0-2.963,0-4.412a2.542,2.542,0,0,0-2.54-2.818c-1.525-.2-3.057-.376-4.562-.685a1.317,1.317,0,0,0-1.306.3,1.9,1.9,0,0,0-.706,2.518c.1.212.085.47.172.687.687,1.714.645,3.235-1.249,4.412m-.5.038a5.858,5.858,0,0,0-.788-.774,1.871,1.871,0,0,1-.755-2.5,21.956,21.956,0,0,0,.542-2.239,2.526,2.526,0,0,0-1.3-2.564.664.664,0,0,0-.335-.007c-1.747.278-3.493.573-5.242.839-1.055.161-2.041.656-2.145,1.7-.183,1.824-.051,3.68-.051,5.55ZM4.764,18.785H29.646v-2.26H4.764Zm.051,15.976H5.968c5.274,0,10.548.062,15.82-.028,2.447-.042,4.893-.353,7.332-.605a4.049,4.049,0,0,0,1.241-.628,2.343,2.343,0,0,0-2.146-1.157c-7.436.037-14.873.021-22.309.021H4.815Zm16.809,1.86H1.837v2.263h19.13l.658-2.263m-8.892-6.1h3.521v-9.83H12.732Zm-1.9-9.835H7.359v9.867h3.474Zm7.351,9.829h3.474V20.668H18.184ZM26.957,20.7H23.537v9.839h3.419Zm6.393,5.675h-.977a2.843,2.843,0,0,0-2.534,2.768,3.455,3.455,0,0,0,3.007,3.229,3.42,3.42,0,0,0,3.786-2.513,2.321,2.321,0,0,0,.012-1.447c-.634-1.294-1.42-2.493-3.2-2.039a.368.368,0,0,1-.089,0m-4.536.353a11.672,11.672,0,0,0,.849-1.163,1.821,1.821,0,0,1,1.9-.993,32.34,32.34,0,0,0,3.461,0,1.8,1.8,0,0,1,1.9.989,13.466,13.466,0,0,0,.875,1.264,4.7,4.7,0,0,0-7.243-5.2,4.635,4.635,0,0,0-1.739,5.1M18.15,4.2h4.014V1.842H18.15ZM33.226,35.371l1.508-1.241h-2.7l1.19,1.241" transform="translate(0 0.001)"/>
        </g>
      </g>
    </g>
  </g>
</svg>
