<svg xmlns="http://www.w3.org/2000/svg" xmlns:xlink="http://www.w3.org/1999/xlink" width="73.035" height="73.035" viewBox="0 0 73.035 73.035">
  <defs>
    <clipPath id="clip-path">
      <rect id="Rectángulo_402784" data-name="Rectángulo 402784" width="46.736" height="46.4" fill="none"/>
    </clipPath>
  </defs>
  <g id="Grupo_1102514" data-name="Grupo 1102514" transform="translate(-957.051 -9358.982)">
    <g id="Grupo_1102494" data-name="Grupo 1102494">
      <g id="Elipse_11493" data-name="Elipse 11493" transform="translate(957.051 9358.982)" fill="#95dbb3" stroke="#fff" stroke-width="2">
        <circle cx="36.518" cy="36.518" r="36.518" stroke="none"/>
        <circle cx="36.518" cy="36.518" r="35.518" fill="none"/>
      </g>
      <g id="Grupo_1102493" data-name="Grupo 1102493" transform="translate(970.2 9372.3)">
        <g id="Grupo_1102492" data-name="Grupo 1102492" clip-path="url(#clip-path)">
          <path id="Trazado_876034" data-name="Trazado 876034" d="M59.695,30.581c.185-.468.318-.81.454-1.15a9.177,9.177,0,0,1,3.387-4.316A7.5,7.5,0,0,1,70.024,24.1a4.035,4.035,0,0,1,3.131,3.638c.1.773.16,1.552.228,2.329a3.472,3.472,0,0,0,1.264,2.5c2.645,2.225,2.687,4.9.125,7.218a9.25,9.25,0,0,1-5.97,2.4c-.364.016-.73,0-1.257,0,0,.953.007,1.831,0,2.708-.013,1.283-.222,1.5-1.484,1.5q-13.039.006-26.078,0c-1.3,0-1.457-.174-1.461-1.5-.005-1.858-.026-3.717.006-5.575a7.766,7.766,0,0,1,4.726-7.332c1.671-.8,3.375-1.54,5.059-2.318,1.07-.494,1.14-.984.21-1.626a11.272,11.272,0,0,1-4.413-5.719A1.221,1.221,0,0,0,43.2,21.5,2.634,2.634,0,0,1,41.227,19.3a2.473,2.473,0,0,1,1.314-2.721c.552-.3.544-.714.55-1.206.019-1.558-.047-3.126.111-4.671a7.706,7.706,0,0,1,4.1-6.139,1.314,1.314,0,0,0,.814-1.162,2.7,2.7,0,0,1,2.028-2.281A8.61,8.61,0,0,1,54.978.964a3.614,3.614,0,0,1,.758.174A.986.986,0,0,0,56.989.829a2.492,2.492,0,0,1,3.063-.52,2.6,2.6,0,0,1,1.469,2.753,1.1,1.1,0,0,0,.491,1.1A24.751,24.751,0,0,1,64.6,6.741a6.443,6.443,0,0,1,1.06,2.178,2.589,2.589,0,0,1-1.423,3.249.761.761,0,0,0-.51.742c-.016.891-.046,1.783-.1,2.673a.908.908,0,0,0,.554.968,2.52,2.52,0,0,1,1.386,2.691,2.589,2.589,0,0,1-2.022,2.264,1.3,1.3,0,0,0-.961.923,11.276,11.276,0,0,1-5.012,5.913,3.935,3.935,0,0,0-.386.221c-.435.326-.423.648.084.9.76.383,1.545.714,2.423,1.113M43.849,44.726c0-.519,0-.922,0-1.324,0-.743.006-1.486,0-2.23a.839.839,0,0,1,.731-.957c.454-.071.81.316.872.944.036.368.015.743.016,1.114,0,.8,0,1.608,0,2.422H59.783c0-.753,0-1.419,0-2.085,0-.52-.017-1.043.029-1.559.044-.5.321-.866.86-.827a.768.768,0,0,1,.723.84c.012.371.012.743.013,1.115,0,.841,0,1.681,0,2.548h4.437V41.811c-.383-.172-.76-.326-1.125-.507a9.1,9.1,0,0,1-5.2-7.049c.366-1.777-.677-2.525-2.154-2.961-.241-.071-.473-.175-.7-.26C54.956,34.025,51.415,34.443,49.3,31c-2.008.929-4.079,1.762-6.027,2.822a5.862,5.862,0,0,0-3.117,5.2c-.047,1.15-.012,2.3-.014,3.456,0,.732,0,1.465,0,2.25Zm17.96-27.565c-4.841,2.414-9.216,1.928-12.749-2.3l-4.251,1.493c-.161.5-.029,1.294-.991,1.507-.827.182-1.09.606-.983,1.21s.561.9,1.432.859a.877.877,0,0,1,1,.664c.088.283.147.575.239.857a9.7,9.7,0,0,0,5.868,6.276,4.707,4.707,0,0,0,3.366.1,9.718,9.718,0,0,0,6.573-6.7c.333-1.1.33-1.1,1.49-1.126a1.178,1.178,0,0,0,1.161-.99c.056-.532-.243-.9-.837-1.151-.418-.174-.805-.421-1.322-.7M44.745,14.473a5.872,5.872,0,0,0,3.693-1.463c.725-.618,1.148-.571,1.6.238a7.678,7.678,0,0,0,10.111,2.9c1.943-.9,2.038-1.043,1.962-3.182,0-.074-.005-.149,0-.223.016-.38-.149-.57-.516-.737-2.7-1.226-5.4-2.457-8.074-3.752-1.6-.773-3.135-1.663-4.862-2.588a6.324,6.324,0,0,0-3.5,3.685,11.781,11.781,0,0,0-.41,5.12m22.829,10.92a10.859,10.859,0,0,0-1.328.234,7.751,7.751,0,0,0-5.033,8.953A7.557,7.557,0,0,0,73.4,38.843c1.867-1.5,2.39-3.425.109-5.147-.03-.023-.056-.049-.085-.072A3.829,3.829,0,0,1,71.96,31.2c-.154-.951-.262-1.909-.37-2.867a2.764,2.764,0,0,0-2.7-2.853c-.365-.057-.74-.053-1.317-.09M64.179,9.59a4.58,4.58,0,0,0-1.423-2.63A15.137,15.137,0,0,0,52.8,2.333a5.438,5.438,0,0,0-2.268.4c-1.029.4-1.112,1.153-.271,1.855a7.448,7.448,0,0,0,1.483.973q4.792,2.341,9.613,4.622a5.965,5.965,0,0,0,1.7.489c.749.1,1.113-.273,1.12-1.086M50.905,29.528a2.038,2.038,0,0,0,2.038,2.293,2.114,2.114,0,0,0,2.189-2.293Z" transform="translate(-29.927 0)"/>
          <path id="Trazado_876035" data-name="Trazado 876035" d="M1.808,122.054c.039-1.015.086-2.5.158-3.982a1.322,1.322,0,0,0-.482-1.154,3.712,3.712,0,0,1-1.059-4.712A28.041,28.041,0,0,1,2.11,109.08,3.459,3.459,0,0,1,3.057,108a2.133,2.133,0,0,1,1.285-.437c.588.059.764.621.79,1.183a2.732,2.732,0,0,0,.82,1.78c.356.378.723.747,1.075,1.128a3.341,3.341,0,0,1-.089,4.945,2.292,2.292,0,0,0-.777,2.031c.14,2.632.222,5.267.318,7.9a7.07,7.07,0,0,1-.028,1.222,2.55,2.55,0,0,1-2.294,2.22,2.506,2.506,0,0,1-2.441-1.906,4.13,4.13,0,0,1-.144-1.207c.049-1.446.137-2.892.234-4.806m.242-9.4a2.256,2.256,0,0,0-.28,2,2.477,2.477,0,0,0,2.281,1.646,2.5,2.5,0,0,0,2.289-1.639c.285-.882.074-1.4-.91-2.164a3.038,3.038,0,0,1-3.38.161m2.824,10.457H4.549c0-1.481.008-2.962-.006-4.442,0-.32.017-.7-.477-.725s-.491.333-.5.673c-.112,2.776-.234,5.552-.333,8.329-.03.846.3,1.369.8,1.386.515.018.839-.481.844-1.335.007-1.3,0-2.591,0-3.887m-1.3-13.361-.822,1.332a1.14,1.14,0,0,0,1.574.125l-.752-1.456" transform="translate(0 -83.589)"/>
          <path id="Trazado_876036" data-name="Trazado 876036" d="M177.7,60.848a2.638,2.638,0,0,1,2.721,2.623,2.693,2.693,0,0,1-2.7,2.782,2.79,2.79,0,0,1-2.7-2.705,2.737,2.737,0,0,1,2.684-2.7m.021,3.778a1.057,1.057,0,0,0,1.062-1.044,1.007,1.007,0,0,0-.976-1.108,1.086,1.086,0,0,0-1.15,1.076,1.153,1.153,0,0,0,1.063,1.076" transform="translate(-136.014 -47.287)"/>
          <path id="Trazado_876037" data-name="Trazado 876037" d="M10.411,2.767A2.645,2.645,0,0,1,13.126,5.4a2.729,2.729,0,0,1-2.719,2.773A2.767,2.767,0,0,1,7.728,5.452a2.692,2.692,0,0,1,2.683-2.685m1.1,2.661A1.039,1.039,0,0,0,10.44,4.392,1.093,1.093,0,0,0,9.348,5.423,1.16,1.16,0,0,0,10.49,6.543a1.116,1.116,0,0,0,1.017-1.115" transform="translate(-6.006 -2.15)"/>
          <path id="Trazado_876038" data-name="Trazado 876038" d="M7.1,76.713c-.351.3-.621.548-.908.773a.724.724,0,0,1-1.086-.092A.7.7,0,0,1,5.1,76.388c.235-.283.494-.546.789-.87-.271-.314-.543-.607-.789-.921a.731.731,0,0,1,.079-1.09.71.71,0,0,1,1.007-.021c.286.232.547.5.868.791.2-.16.4-.306.585-.471.669-.595,1.038-.664,1.423-.254.357.381.295.729-.242,1.349l-.523.6c.231.253.434.46.621.682.454.539.489.91.108,1.257-.47.428-.878.216-1.265-.146-.188-.175-.384-.342-.661-.589" transform="translate(-3.803 -56.955)"/>
          <path id="Trazado_876039" data-name="Trazado 876039" d="M165.4,3.816c.275.3.537.557.775.838a.727.727,0,0,1-.028,1.09.755.755,0,0,1-1.1.016c-.259-.207-.493-.446-.811-.737-.248.212-.485.424-.731.625-.511.415-.936.439-1.267.065a.765.765,0,0,1,.109-1.172c.211-.207.455-.38.746-.62-.339-.382-.605-.666-.853-.966a.729.729,0,0,1,.029-1.091.767.767,0,0,1,1.1-.009c.257.209.491.448.8.728.222-.18.444-.353.658-.535.565-.482,1.009-.544,1.35-.157.42.476.2.88-.173,1.261-.2.21-.394.433-.6.663" transform="translate(-125.901 -1.263)"/>
          <path id="Trazado_876040" data-name="Trazado 876040" d="M197.842,29.717a.923.923,0,0,1-.923-.889.863.863,0,0,1,.8-.888.908.908,0,0,1,.982.818.946.946,0,0,1-.859.959" transform="translate(-153.033 -21.707)"/>
          <path id="Trazado_876041" data-name="Trazado 876041" d="M34.69,42.577a.854.854,0,0,1-.844.846.873.873,0,1,1,.047-1.737.849.849,0,0,1,.8.89" transform="translate(-25.575 -32.394)"/>
          <path id="Trazado_876042" data-name="Trazado 876042" d="M86.3,87.366a.76.76,0,0,1-.848.659.73.73,0,0,1-.709-.821.777.777,0,0,1,.834-.71.827.827,0,0,1,.723.873" transform="translate(-65.854 -67.215)"/>
          <path id="Trazado_876043" data-name="Trazado 876043" d="M120.4,87.248a.785.785,0,0,1-1.57.006.785.785,0,0,1,1.57-.006" transform="translate(-92.347 -67.199)"/>
          <path id="Trazado_876044" data-name="Trazado 876044" d="M179.157,151.41a2.309,2.309,0,0,1,.078,4.617,2.389,2.389,0,0,1-2.342-2.217,2.362,2.362,0,0,1,2.264-2.4m.91,2.353c-.379-.308-.609-.639-.824-.63a.905.905,0,0,0-.68.517.562.562,0,0,0,.618.706c.249-.018.48-.307.886-.592" transform="translate(-137.468 -117.666)"/>
          <path id="Trazado_876045" data-name="Trazado 876045" d="M161.769,120.427a2.058,2.058,0,0,1-2.035,2.059,2,2,0,0,1-2.019-1.94,2.031,2.031,0,0,1,1.954-2.127,2.093,2.093,0,0,1,2.1,2.007" transform="translate(-122.565 -92.028)"/>
          <path id="Trazado_876046" data-name="Trazado 876046" d="M144.312,141.239a2,2,0,0,1-2.024-2.045,2.031,2.031,0,0,1,4.063.008,2.019,2.019,0,0,1-2.038,2.037" transform="translate(-110.577 -106.606)"/>
          <path id="Trazado_876047" data-name="Trazado 876047" d="M156.214,159.4a2.074,2.074,0,0,1,2.024,2.073,2,2,0,0,1-2.08,1.988,2.047,2.047,0,0,1-1.986-1.988,2.111,2.111,0,0,1,2.041-2.073" transform="translate(-119.814 -123.878)"/>
        </g>
      </g>
    </g>
  </g>
</svg>
