<svg xmlns="http://www.w3.org/2000/svg" width="118.13" height="122.571" viewBox="0 0 118.13 122.571">
  <g id="Grupo_1102508" data-name="Grupo 1102508" transform="translate(-208.52 -9696.44)">
    <g id="Grupo_1101331" data-name="Grupo 1101331" transform="translate(30.776 3101.44)">
      <path id="Trazado_113538" data-name="Trazado 113538" d="M101.91,15.559c-4.646,0-6.94-3.745-8.782-6.756C91.261,5.756,90,3.889,87.618,3.889s-3.641,1.867-5.5,4.914c-1.842,3.011-4.136,6.756-8.78,6.756s-6.94-3.745-8.782-6.756c-1.864-3.046-3.128-4.914-5.505-4.914s-3.639,1.867-5.5,4.914c-1.842,3.011-4.136,6.756-8.78,6.756S37.826,11.814,35.986,8.8c-1.864-3.046-3.126-4.914-5.5-4.914s-3.637,1.867-5.5,4.914c-1.842,3.011-4.134,6.756-8.778,6.756S9.271,11.814,7.429,8.8C5.564,5.756,4.3,3.889,1.928,3.889A1.945,1.945,0,0,1,1.928,0C6.57,0,8.863,3.748,10.706,6.759c1.862,3.044,3.126,4.911,5.5,4.911s3.637-1.867,5.5-4.911C23.55,3.748,25.843,0,30.485,0s6.936,3.748,8.776,6.756c1.864,3.046,3.126,4.914,5.5,4.914S48.4,9.8,50.267,6.756C52.109,3.748,54.4,0,59.047,0s6.938,3.748,8.782,6.756c1.862,3.046,3.126,4.914,5.505,4.914s3.639-1.867,5.5-4.914C80.678,3.748,82.974,0,87.618,0S94.56,3.748,96.4,6.756c1.866,3.046,3.13,4.914,5.507,4.914s3.643-1.867,5.51-4.914C109.262,3.748,111.558,0,116.2,0a1.935,1.935,0,0,1,1.926,1.945A1.934,1.934,0,0,1,116.2,3.889c-2.379,0-3.643,1.867-5.51,4.914C108.852,11.814,106.559,15.559,101.91,15.559Z" transform="translate(295.874 6664.759) rotate(180)" fill="#a98bc4"/>
      <path id="Trazado_126936" data-name="Trazado 126936" d="M101.91,15.559c-4.646,0-6.94-3.745-8.782-6.756C91.261,5.756,90,3.889,87.618,3.889s-3.641,1.867-5.5,4.914c-1.842,3.011-4.136,6.756-8.78,6.756s-6.94-3.745-8.782-6.756c-1.864-3.046-3.128-4.914-5.505-4.914s-3.639,1.867-5.5,4.914c-1.842,3.011-4.136,6.756-8.78,6.756S37.826,11.814,35.986,8.8c-1.864-3.046-3.126-4.914-5.5-4.914s-3.637,1.867-5.5,4.914c-1.842,3.011-4.134,6.756-8.778,6.756S9.271,11.814,7.429,8.8C5.564,5.756,4.3,3.889,1.928,3.889A1.945,1.945,0,0,1,1.928,0C6.57,0,8.863,3.748,10.706,6.759c1.862,3.044,3.126,4.911,5.5,4.911s3.637-1.867,5.5-4.911C23.55,3.748,25.843,0,30.485,0s6.936,3.748,8.776,6.756c1.864,3.046,3.126,4.914,5.5,4.914S48.4,9.8,50.267,6.756C52.109,3.748,54.4,0,59.047,0s6.938,3.748,8.782,6.756c1.862,3.046,3.126,4.914,5.505,4.914s3.639-1.867,5.5-4.914C80.678,3.748,82.974,0,87.618,0S94.56,3.748,96.4,6.756c1.866,3.046,3.13,4.914,5.507,4.914s3.643-1.867,5.51-4.914C109.262,3.748,111.558,0,116.2,0a1.935,1.935,0,0,1,1.926,1.945A1.934,1.934,0,0,1,116.2,3.889c-2.379,0-3.643,1.867-5.51,4.914C108.852,11.814,106.559,15.559,101.91,15.559Z" transform="translate(295.874 6717.571) rotate(180)" fill="#a98bc4"/>
      <path id="Trazado_126924" data-name="Trazado 126924" d="M101.91,15.559c-4.646,0-6.94-3.745-8.782-6.756C91.261,5.756,90,3.889,87.618,3.889s-3.641,1.867-5.5,4.914c-1.842,3.011-4.136,6.756-8.78,6.756s-6.94-3.745-8.782-6.756c-1.864-3.046-3.128-4.914-5.505-4.914s-3.639,1.867-5.5,4.914c-1.842,3.011-4.136,6.756-8.78,6.756S37.826,11.814,35.986,8.8c-1.864-3.046-3.126-4.914-5.5-4.914s-3.637,1.867-5.5,4.914c-1.842,3.011-4.134,6.756-8.778,6.756S9.271,11.814,7.429,8.8C5.564,5.756,4.3,3.889,1.928,3.889A1.945,1.945,0,0,1,1.928,0C6.57,0,8.863,3.748,10.706,6.759c1.862,3.044,3.126,4.911,5.5,4.911s3.637-1.867,5.5-4.911C23.55,3.748,25.843,0,30.485,0s6.936,3.748,8.776,6.756c1.864,3.046,3.126,4.914,5.5,4.914S48.4,9.8,50.267,6.756C52.109,3.748,54.4,0,59.047,0s6.938,3.748,8.782,6.756c1.862,3.046,3.126,4.914,5.505,4.914s3.639-1.867,5.5-4.914C80.678,3.748,82.974,0,87.618,0S94.56,3.748,96.4,6.756c1.866,3.046,3.13,4.914,5.507,4.914s3.643-1.867,5.51-4.914C109.262,3.748,111.558,0,116.2,0a1.935,1.935,0,0,1,1.926,1.945A1.934,1.934,0,0,1,116.2,3.889c-2.379,0-3.643,1.867-5.51,4.914C108.852,11.814,106.559,15.559,101.91,15.559Z" transform="translate(295.874 6628.627) rotate(180)" fill="#a98bc4"/>
      <path id="Trazado_126938" data-name="Trazado 126938" d="M101.91,15.559c-4.646,0-6.94-3.745-8.782-6.756C91.261,5.756,90,3.889,87.618,3.889s-3.641,1.867-5.5,4.914c-1.842,3.011-4.136,6.756-8.78,6.756s-6.94-3.745-8.782-6.756c-1.864-3.046-3.128-4.914-5.505-4.914s-3.639,1.867-5.5,4.914c-1.842,3.011-4.136,6.756-8.78,6.756S37.826,11.814,35.986,8.8c-1.864-3.046-3.126-4.914-5.5-4.914s-3.637,1.867-5.5,4.914c-1.842,3.011-4.134,6.756-8.778,6.756S9.271,11.814,7.429,8.8C5.564,5.756,4.3,3.889,1.928,3.889A1.945,1.945,0,0,1,1.928,0C6.57,0,8.863,3.748,10.706,6.759c1.862,3.044,3.126,4.911,5.5,4.911s3.637-1.867,5.5-4.911C23.55,3.748,25.843,0,30.485,0s6.936,3.748,8.776,6.756c1.864,3.046,3.126,4.914,5.5,4.914S48.4,9.8,50.267,6.756C52.109,3.748,54.4,0,59.047,0s6.938,3.748,8.782,6.756c1.862,3.046,3.126,4.914,5.505,4.914s3.639-1.867,5.5-4.914C80.678,3.748,82.974,0,87.618,0S94.56,3.748,96.4,6.756c1.866,3.046,3.13,4.914,5.507,4.914s3.643-1.867,5.51-4.914C109.262,3.748,111.558,0,116.2,0a1.935,1.935,0,0,1,1.926,1.945A1.934,1.934,0,0,1,116.2,3.889c-2.379,0-3.643,1.867-5.51,4.914C108.852,11.814,106.559,15.559,101.91,15.559Z" transform="translate(295.874 6681.437) rotate(180)" fill="#a98bc4"/>
      <path id="Trazado_113539" data-name="Trazado 113539" d="M101.91,15.559c-4.646,0-6.94-3.745-8.782-6.756C91.261,5.756,90,3.889,87.618,3.889s-3.641,1.867-5.5,4.914c-1.842,3.011-4.136,6.756-8.78,6.756s-6.94-3.745-8.782-6.756c-1.864-3.046-3.128-4.914-5.505-4.914s-3.639,1.867-5.5,4.914c-1.842,3.011-4.136,6.756-8.78,6.756S37.826,11.814,35.986,8.8c-1.864-3.046-3.126-4.914-5.5-4.914s-3.637,1.867-5.5,4.914c-1.842,3.011-4.134,6.756-8.778,6.756S9.271,11.814,7.429,8.8C5.564,5.756,4.3,3.889,1.928,3.889A1.945,1.945,0,0,1,1.928,0C6.57,0,8.863,3.748,10.706,6.759c1.862,3.044,3.126,4.911,5.5,4.911s3.637-1.867,5.5-4.911C23.55,3.748,25.843,0,30.485,0s6.936,3.748,8.776,6.756c1.864,3.046,3.126,4.914,5.5,4.914S48.4,9.8,50.267,6.756C52.109,3.748,54.4,0,59.047,0s6.938,3.748,8.782,6.756c1.862,3.046,3.126,4.914,5.505,4.914s3.639-1.867,5.5-4.914C80.678,3.748,82.974,0,87.618,0S94.56,3.748,96.4,6.756c1.866,3.046,3.13,4.914,5.507,4.914s3.643-1.867,5.51-4.914C109.262,3.748,111.558,0,116.2,0a1.935,1.935,0,0,1,1.926,1.945A1.934,1.934,0,0,1,116.2,3.889c-2.379,0-3.643,1.867-5.51,4.914C108.852,11.814,106.559,15.559,101.91,15.559Z" transform="translate(295.874 6646.694) rotate(180)" fill="#a98bc4"/>
      <path id="Trazado_126937" data-name="Trazado 126937" d="M101.91,15.559c-4.646,0-6.94-3.745-8.782-6.756C91.261,5.756,90,3.889,87.618,3.889s-3.641,1.867-5.5,4.914c-1.842,3.011-4.136,6.756-8.78,6.756s-6.94-3.745-8.782-6.756c-1.864-3.046-3.128-4.914-5.505-4.914s-3.639,1.867-5.5,4.914c-1.842,3.011-4.136,6.756-8.78,6.756S37.826,11.814,35.986,8.8c-1.864-3.046-3.126-4.914-5.5-4.914s-3.637,1.867-5.5,4.914c-1.842,3.011-4.134,6.756-8.778,6.756S9.271,11.814,7.429,8.8C5.564,5.756,4.3,3.889,1.928,3.889A1.945,1.945,0,0,1,1.928,0C6.57,0,8.863,3.748,10.706,6.759c1.862,3.044,3.126,4.911,5.5,4.911s3.637-1.867,5.5-4.911C23.55,3.748,25.843,0,30.485,0s6.936,3.748,8.776,6.756c1.864,3.046,3.126,4.914,5.5,4.914S48.4,9.8,50.267,6.756C52.109,3.748,54.4,0,59.047,0s6.938,3.748,8.782,6.756c1.862,3.046,3.126,4.914,5.505,4.914s3.639-1.867,5.5-4.914C80.678,3.748,82.974,0,87.618,0S94.56,3.748,96.4,6.756c1.866,3.046,3.13,4.914,5.507,4.914s3.643-1.867,5.51-4.914C109.262,3.748,111.558,0,116.2,0a1.935,1.935,0,0,1,1.926,1.945A1.934,1.934,0,0,1,116.2,3.889c-2.379,0-3.643,1.867-5.51,4.914C108.852,11.814,106.559,15.559,101.91,15.559Z" transform="translate(295.874 6699.504) rotate(180)" fill="#a98bc4"/>
      <path id="Trazado_126923" data-name="Trazado 126923" d="M101.91,15.559c-4.646,0-6.94-3.745-8.782-6.756C91.261,5.756,90,3.889,87.618,3.889s-3.641,1.867-5.5,4.914c-1.842,3.011-4.136,6.756-8.78,6.756s-6.94-3.745-8.782-6.756c-1.864-3.046-3.128-4.914-5.505-4.914s-3.639,1.867-5.5,4.914c-1.842,3.011-4.136,6.756-8.78,6.756S37.826,11.814,35.986,8.8c-1.864-3.046-3.126-4.914-5.5-4.914s-3.637,1.867-5.5,4.914c-1.842,3.011-4.134,6.756-8.778,6.756S9.271,11.814,7.429,8.8C5.564,5.756,4.3,3.889,1.928,3.889A1.945,1.945,0,0,1,1.928,0C6.57,0,8.863,3.748,10.706,6.759c1.862,3.044,3.126,4.911,5.5,4.911s3.637-1.867,5.5-4.911C23.55,3.748,25.843,0,30.485,0s6.936,3.748,8.776,6.756c1.864,3.046,3.126,4.914,5.5,4.914S48.4,9.8,50.267,6.756C52.109,3.748,54.4,0,59.047,0s6.938,3.748,8.782,6.756c1.862,3.046,3.126,4.914,5.505,4.914s3.639-1.867,5.5-4.914C80.678,3.748,82.974,0,87.618,0S94.56,3.748,96.4,6.756c1.866,3.046,3.13,4.914,5.507,4.914s3.643-1.867,5.51-4.914C109.262,3.748,111.558,0,116.2,0a1.935,1.935,0,0,1,1.926,1.945A1.934,1.934,0,0,1,116.2,3.889c-2.379,0-3.643,1.867-5.51,4.914C108.852,11.814,106.559,15.559,101.91,15.559Z" transform="translate(295.874 6610.559) rotate(180)" fill="#a98bc4"/>
    </g>
  </g>
</svg>
