<svg xmlns="http://www.w3.org/2000/svg" width="319.354" height="298.773" viewBox="0 0 319.354 298.773">
  <g id="Grupo_1102508" data-name="Grupo 1102508" transform="translate(-642.137 -9835.227)">
    <rect id="Rectángulo_402599" data-name="Rectángulo 402599" width="319.354" height="298.773" rx="24" transform="translate(642.137 9835.227)" fill="#f59b25"/>
    <g id="Grupo_1102503" data-name="Grupo 1102503" transform="translate(5776.051 11608)">
      <path id="Trazado_875465" data-name="Trazado 875465" d="M258.158,506.984a3.537,3.537,0,0,1-.449,1.681c-5.507,10.275-60.993,18.348-128.63,18.348S5.956,518.94.449,508.665A3.534,3.534,0,0,1,0,506.984c0-11.062,57.791-20.03,129.079-20.03s129.079,8.967,129.079,20.03" transform="translate(-5098.083 -2001.014)" fill="#ddc773"/>
      <rect id="Rectángulo_402612" data-name="Rectángulo 402612" width="90.865" height="259.977" transform="translate(-5031.226 -1758.023)" fill="#251d1c"/>
      <rect id="Rectángulo_402613" data-name="Rectángulo 402613" width="95.914" height="259.977" transform="translate(-4940.361 -1758.023)" fill="#333"/>
      <rect id="Rectángulo_402614" data-name="Rectángulo 402614" width="5.049" height="259.977" transform="translate(-4940.361 -1758.023)" fill="#251d1c"/>
      <rect id="Rectángulo_402615" data-name="Rectángulo 402615" width="68.149" height="212.862" transform="translate(-4925.216 -1743.721)" fill="#f9ecd9"/>
      <path id="Trazado_875482" data-name="Trazado 875482" d="M635.545,370.464H567.389V292.526Z" transform="translate(-5492.956 -1901.035)" fill="#f5e0c2"/>
      <rect id="Rectángulo_402616" data-name="Rectángulo 402616" width="68.156" height="77.938" transform="translate(-4925.567 -1608.509)" fill="none"/>
      <rect id="Rectángulo_402617" data-name="Rectángulo 402617" width="58.684" height="188.881" transform="translate(-4925.216 -1719.74)" fill="#f9ecd9"/>
      <rect id="Rectángulo_402618" data-name="Rectángulo 402618" width="58.684" height="188.881" transform="translate(-4925.216 -1719.74)" fill="none"/>
      <rect id="Rectángulo_402619" data-name="Rectángulo 402619" width="71.416" height="4.18" transform="translate(-4925.104 -1611.275)" fill="#251d1c"/>
      <rect id="Rectángulo_402620" data-name="Rectángulo 402620" width="4.181" height="80.125" transform="translate(-4923.013 -1610.927)" fill="#251d1c"/>
      <rect id="Rectángulo_402621" data-name="Rectángulo 402621" width="4.18" height="79.777" transform="translate(-4909.775 -1610.578)" fill="#251d1c"/>
      <rect id="Rectángulo_402622" data-name="Rectángulo 402622" width="4.181" height="79.428" transform="translate(-4896.537 -1610.23)" fill="#251d1c"/>
      <rect id="Rectángulo_402623" data-name="Rectángulo 402623" width="4.18" height="79.08" transform="translate(-4883.299 -1609.882)" fill="#251d1c"/>
      <rect id="Rectángulo_402624" data-name="Rectángulo 402624" width="4.181" height="78.731" transform="translate(-4870.062 -1609.533)" fill="#251d1c"/>
      <rect id="Rectángulo_402625" data-name="Rectángulo 402625" width="74.551" height="4.18" transform="translate(-4925.104 -1611.275)" fill="#474747"/>
      <rect id="Rectángulo_402626" data-name="Rectángulo 402626" width="4.18" height="80.125" transform="translate(-4919.878 -1610.927)" fill="#474747"/>
      <rect id="Rectángulo_402627" data-name="Rectángulo 402627" width="4.181" height="79.777" transform="translate(-4906.64 -1610.578)" fill="#474747"/>
      <rect id="Rectángulo_402628" data-name="Rectángulo 402628" width="4.18" height="79.428" transform="translate(-4893.401 -1610.23)" fill="#474747"/>
      <rect id="Rectángulo_402629" data-name="Rectángulo 402629" width="4.181" height="79.08" transform="translate(-4880.164 -1609.882)" fill="#474747"/>
      <rect id="Rectángulo_402630" data-name="Rectángulo 402630" width="4.18" height="78.731" transform="translate(-4866.926 -1609.533)" fill="#474747"/>
      <rect id="Rectángulo_402631" data-name="Rectángulo 402631" width="68.156" height="5.68" transform="translate(-4925.357 -1743.664)" fill="#f5e0c2"/>
      <rect id="Rectángulo_402632" data-name="Rectángulo 402632" width="68.156" height="5.68" transform="translate(-4925.357 -1743.664)" fill="none"/>
      <path id="Trazado_875483" data-name="Trazado 875483" d="M555.672,256.866c.4,0,.8,0,1.2-.007.587-.013,1.171-.05,1.756-.1.24-.019.476-.043.715-.068-.409.041.378-.054.454-.065a30.9,30.9,0,0,0,3.6-.748c.538-.143,1.067-.308,1.594-.479.05-.016.437-.154.511-.177.18-.068.358-.139.535-.21a28.975,28.975,0,0,0,3.159-1.5c.466-.255.92-.528,1.368-.807l.374-.246c.17-.118.339-.236.506-.356a26.168,26.168,0,0,0,2.581-2.136c.374-.349.73-.712,1.079-1.08l.1-.107.082-.094c.166-.19.326-.384.485-.578a23.281,23.281,0,0,0,1.865-2.651c.26-.425.5-.86.725-1.3l.039-.075.076-.164c.1-.224.2-.451.3-.678a21.073,21.073,0,0,0,1.011-3.047c.1-.41.188-.823.265-1.237.008-.059.071-.442.076-.491.032-.249.056-.5.079-.75a20.679,20.679,0,0,0,.02-3.3c-.029-.423-.079-.845-.136-1.266,0,.018-.077-.44-.087-.493-.047-.244-.1-.486-.158-.728a20.888,20.888,0,0,0-.976-3.06c-.091-.229-.191-.455-.29-.682-.016-.037-.146-.308-.193-.411-.2-.383-.405-.762-.622-1.137a23.315,23.315,0,0,0-1.835-2.669c-.155-.2-.317-.39-.479-.582-.025-.03-.2-.223-.285-.322-.308-.332-.628-.655-.956-.974a26.334,26.334,0,0,0-2.556-2.158c-.208-.156-.422-.306-.635-.456l-.124-.088-.108-.071c-.442-.286-.9-.555-1.359-.818a28.881,28.881,0,0,0-3.138-1.528c-.127-.053-.882-.339-.938-.366-.467-.162-.941-.311-1.418-.452a30.771,30.771,0,0,0-3.286-.762c-.28-.051-.564-.094-.846-.137-.05-.008-.412-.054-.533-.072-.5-.052-1.006-.091-1.51-.121-.694-.042-1.39-.052-2.086-.044v-5.378a37.006,37.006,0,0,1,12.786,2.238c9.038,3.316,15.786,10.814,17.581,19.088,1.9,8.751-1.442,17.851-8.9,24.026a33.555,33.555,0,0,1-21.465,7.265Z" transform="translate(-5487.559 -1862.855)" fill="#b0b0b0"/>
      <rect id="Rectángulo_402633" data-name="Rectángulo 402633" width="63.312" height="245.254" transform="translate(-5003.673 -1744.142)" fill="#191514"/>
      <path id="Trazado_875485" data-name="Trazado 875485" d="M322.612,41.35V247.9H268.977l-.32-213.964Z" transform="translate(-5355.34 -1781.911)" fill="#f6e4ca"/>
      <rect id="Rectángulo_402634" data-name="Rectángulo 402634" width="5.68" height="268.207" transform="translate(-5098.083 -1766.278)" fill="#251d1c"/>
      <rect id="Rectángulo_402635" data-name="Rectángulo 402635" width="59.847" height="4.18" transform="translate(-5085.594 -1614.527)" fill="#251d1c"/>
      <rect id="Rectángulo_402636" data-name="Rectángulo 402636" width="3.503" height="80.125" transform="translate(-5083.842 -1614.179)" fill="#251d1c"/>
      <rect id="Rectángulo_402637" data-name="Rectángulo 402637" width="3.503" height="79.777" transform="translate(-5072.749 -1613.83)" fill="#251d1c"/>
      <rect id="Rectángulo_402638" data-name="Rectángulo 402638" width="3.504" height="79.428" transform="translate(-5061.655 -1613.481)" fill="#251d1c"/>
      <rect id="Rectángulo_402639" data-name="Rectángulo 402639" width="3.504" height="79.08" transform="translate(-5050.562 -1613.134)" fill="#251d1c"/>
      <rect id="Rectángulo_402640" data-name="Rectángulo 402640" width="3.504" height="78.731" transform="translate(-5039.468 -1612.785)" fill="#251d1c"/>
      <rect id="Rectángulo_402641" data-name="Rectángulo 402641" width="62.474" height="4.18" transform="translate(-5090.006 -1614.527)" fill="#474747"/>
      <rect id="Rectángulo_402642" data-name="Rectángulo 402642" width="3.504" height="80.125" transform="translate(-5085.628 -1614.179)" fill="#474747"/>
      <rect id="Rectángulo_402643" data-name="Rectángulo 402643" width="3.504" height="79.777" transform="translate(-5074.535 -1613.83)" fill="#474747"/>
      <rect id="Rectángulo_402644" data-name="Rectángulo 402644" width="3.504" height="79.428" transform="translate(-5063.441 -1613.481)" fill="#474747"/>
      <rect id="Rectángulo_402645" data-name="Rectángulo 402645" width="3.504" height="79.08" transform="translate(-5052.348 -1613.134)" fill="#474747"/>
      <rect id="Rectángulo_402646" data-name="Rectángulo 402646" width="3.504" height="78.731" transform="translate(-5041.254 -1612.785)" fill="#474747"/>
      <path id="Trazado_875486" data-name="Trazado 875486" d="M287.379,70.209l.29,194.4h43.567V76.235Z" transform="translate(-5363.965 -1798.621)" fill="#f5e0c2"/>
      <rect id="Rectángulo_402647" data-name="Rectángulo 402647" width="43.858" height="194.398" transform="translate(-5076.587 -1728.412)" fill="none"/>
      <path id="Trazado_875487" data-name="Trazado 875487" d="M269.25,347.247v11.172h53.634V273.853Z" transform="translate(-5355.614 -1892.433)" fill="#f5e0c2"/>
      <rect id="Rectángulo_402648" data-name="Rectángulo 402648" width="53.634" height="84.566" transform="translate(-5086.364 -1618.581)" fill="none"/>
      <path id="Trazado_875488" data-name="Trazado 875488" d="M257.822,0l-.272,268.232h66.886V8.254ZM317.5,232.265H263.861L263.54,18.3,317.5,25.718Z" transform="translate(-5350.224 -1766.278)" fill="#333"/>
      <path id="Trazado_875489" data-name="Trazado 875489" d="M372.5,145.278c-4.995,6.268-10.282,12.662-16.856,17.3-1.219.861-5.5,3.01-5.949,4.58-.508,1.8,2.168,5.568,3.686,6.151,5.522,2.121,14.3-2.754,18.987-5.812,5.051-3.294,8.219-5.5,12.015-10.085l-1.15-23.939c-4.5,3.422-7.187,7.354-10.734,11.8" transform="translate(-5392.644 -1827.766)" fill="#ae9cca"/>
      <path id="Trazado_875490" data-name="Trazado 875490" d="M509.453,198.626c-4.294,2.733-8.82,1.607-10.649-1.5a31.876,31.876,0,0,1-2.472-5.322c-3.382-9.292-3.49-20.729-4.188-29.818l5.426-29.237c3.294-1.1,5.857,7.081,6.459,9.233a90.647,90.647,0,0,1,2.578,16.415,170.406,170.406,0,0,0,4.377,24.643c.506,2.142,1.033,4.314,1.571,6.544.7,2.894.119,6.994-3.1,9.042" transform="translate(-5458.293 -1827.385)" fill="#ae9cca"/>
      <path id="Trazado_875491" data-name="Trazado 875491" d="M511.881,216.732c-4.294,2.733-8.82,1.607-10.649-1.5a31.883,31.883,0,0,1-2.472-5.322c.311-2.245-.64-5.407-.821-7.386-.31-3.387-.524-6.691-.524-10.132,0-5.428.362-15.215,1.377-20.438,1.55,7.887-.613,20.516,3.071,27.982,1.8,3.635,4.844,5.283,8.739,3.3a11.017,11.017,0,0,0,2.809-2.087c.506,2.142,1.033,4.314,1.57,6.544.7,2.893.119,6.994-3.1,9.042" transform="translate(-5460.721 -1845.491)" fill="#9f89c0"/>
      <path id="Trazado_875492" data-name="Trazado 875492" d="M513.294,232.627c-2.411,2.928-3.176,5.791.99,8.568,3.487,2.325,7.621-1.507,8.137-6.33Z" transform="translate(-5467.128 -1873.441)" fill="#878787"/>
      <path id="Trazado_875493" data-name="Trazado 875493" d="M517.723,236.5l-4.263-1.163a11.816,11.816,0,0,1,1.644,2.684c.3.786.281,2.635,1.073,3.1,1.156.684,1.911-1.037,2.069-1.943a10.429,10.429,0,0,0-.523-2.681" transform="translate(-5468.113 -1874.691)" fill="#b5b5b5"/>
      <path id="Trazado_875494" data-name="Trazado 875494" d="M425.981,515.682c.39-2.437-.334-5.622-.348-8.266h-3.617c-2.051,2.432-4.677,5.131-6.4,8.266Z" transform="translate(-5423.041 -2000.027)" fill="#fff"/>
      <path id="Trazado_875495" data-name="Trazado 875495" d="M494.957,515.682c.39-2.437-.334-5.622-.348-8.266h-3.617c-2.052,2.432-4.678,5.131-6.4,8.266Z" transform="translate(-5454.816 -2000.027)" fill="#fff"/>
      <path id="Trazado_875496" data-name="Trazado 875496" d="M464.749,376.865l-5.668,0c-.312-1.68-1.927-9.574-4.159-20.4-6.185-30.032-17.105-82.642-18.118-87.9-.01-.055-.02-.106-.028-.153.566,4.5-1.615,21.266-1.77,26.225-.227,7.073-1.976,26.888-3.72,45.7-1.418,15.3-2.831,29.937-3.418,36.527l-5.729,0c-1.033-31.26-1.361-107.613-2.889-129.681l37.622-25.971c2.793.708,2.1,18.3,2.258,21.639.486,10.027,5.41,107.613,5.619,134.015" transform="translate(-5424.714 -1868.183)" fill="#aedbb6"/>
      <path id="Trazado_875497" data-name="Trazado 875497" d="M445.672,300.922c-.01-.054-.02-.106-.028-.152.566,4.5-1.615,21.266-1.77,26.224-.227,7.073-1.976,26.888-3.72,45.7v-1.491l3.72-71.9-5.373-7.851,6.2,4.133,7.851-2.067-3.307,5.784,14.573,89.505-.026.006c-6.184-30.033-17.1-82.642-18.117-87.9" transform="translate(-5433.582 -1900.542)" fill="#aad9b2"/>
      <path id="Trazado_875498" data-name="Trazado 875498" d="M412.364,155.6c1.808,13.95,2.622,40.45,8.78,45.864,3.917,3.441,35.913,4.513,33.846-5.3-1.1-5.205-3.1-9.817-1.417-23.084.022-.169.059-.351.1-.545.08-.434.182-.907.3-1.407,1.884-8.036,8.423-30.937,10.66-37.391.453-1.3-8.285-8.61-20.109-9.8L422.432,124c-2.729,1.49-5.625,1.3-7.821,3.991-4.551,5.567-4.358,11.342-2.248,27.613" transform="translate(-5420.88 -1823.369)" fill="#4d4d4d"/>
      <path id="Trazado_875499" data-name="Trazado 875499" d="M434.622,106.451c2.171,1.62,2.824,5.624,5.2,6.339,2.61.785,13.36-4.725,15.453-6.894,2.488-2.575-2.227-4.173-2.354-8.1-.027-.75-1.95-16.334-1.129-17.158L436.045,93.9a30.65,30.65,0,0,1,.22,7.393,13.532,13.532,0,0,1-1.643,5.154" transform="translate(-5431.795 -1803.423)" fill="#b5b5b5"/>
      <path id="Trazado_875500" data-name="Trazado 875500" d="M437.479,101.3c.955.51-.622,1.531.451,1.9,15.962,5.559,14.254-21.744,15.075-22.569L437.259,93.9a30.615,30.615,0,0,1,.22,7.393" transform="translate(-5433.01 -1803.423)" fill="#878787"/>
      <path id="Trazado_875501" data-name="Trazado 875501" d="M458.506,118.469c1.3.681,4.174,3.242,5.43,4.095-1.954,4.086-10.148,10.811-10.148,10.811s-8.7-2.57-9.742-2.9l-.245-.255c4.269-1.54,12.453-7.387,14.706-11.747" transform="translate(-5436.023 -1820.853)" fill="#262626"/>
      <path id="Trazado_875502" data-name="Trazado 875502" d="M435.361,118.37s-.29,5.3.136,6.5a48.682,48.682,0,0,0,2.909,5.3,12.717,12.717,0,0,1-4.516.922c-.782-2.493-2.34-9.292-2.34-9.292s3.331-3.512,3.811-3.434" transform="translate(-5430.38 -1820.807)" fill="#262626"/>
      <path id="Trazado_875503" data-name="Trazado 875503" d="M482.7,154.616c-3.345,17,.263,39.961,2.239,56.921-6.041,1.648-16.883,3.423-23.251,3.1-.3-7.164-.387-14.811-.294-22.538.376-31.663,3.748-64.65,7.468-71.137.021-.036.039-.07.059-.1,0,0,13.9,5.435,16.018,6.975,3.851,2.8,3.952,5.464,3.358,9.817-1,7.3-4.16,9.653-5.6,16.964" transform="translate(-5444.111 -1821.954)" fill="#ae9cca"/>
      <path id="Trazado_875504" data-name="Trazado 875504" d="M470.785,135.105a27.791,27.791,0,0,1,5.172,3.152c-2.576,3.15-13.041,43.12-14.24,51.927-.074.558-.186,1.343-.294,2,.376-31.662,3.748-64.65,7.468-71.137,3.676.93,7.125,3.568,9.133,5.322a40.571,40.571,0,0,0-7.239,8.732" transform="translate(-5444.142 -1822.043)" fill="#9f89c0"/>
      <path id="Trazado_875505" data-name="Trazado 875505" d="M420.612,122.776l-2.842,1.55c-5.226,2.3-11.386,3.472-11.367,10.592.02,7.4,1.071,14.459,1.751,21.708,1.065,11.354,2.357,22.978,2.9,34.346a81.962,81.962,0,0,1-1.549,19.382c-.314,1.673,9.857,3.355,11.884,3.1-.078-1.534.779-90.063-.775-90.678" transform="translate(-5418.795 -1822.837)" fill="#ae9cca"/>
      <path id="Trazado_875506" data-name="Trazado 875506" d="M433.6,242.674c.015.9.033,1.8.058,2.684,0-.92-.022-1.807-.058-2.684" transform="translate(-5431.324 -1878.07)" fill="#5c5c5c"/>
      <path id="Trazado_875507" data-name="Trazado 875507" d="M427.238,120.38c-2.325,1.55-8.252,3.931-9.817,7.234,1.691,1.489,4.045,3.1,5.451,4.91-.879,1.671-3.839,1.557-4.417,3.357-.57,1.775,8.2,57.858,8.267,59.419-.135-8.4.517-74.919.517-74.919" transform="translate(-5423.871 -1821.733)" fill="#9f89c0"/>
      <path id="Trazado_875508" data-name="Trazado 875508" d="M420.6,59.158l3.044,1.045c.2.348-.976,4-1.2,4.912a17.268,17.268,0,0,0-.768,6c-.873-1.214-2.926-3.988-3.245-5.46-.476-2.206.647-6.027,2.168-6.494" transform="translate(-5424.284 -1793.53)" fill="#141414"/>
      <path id="Trazado_875509" data-name="Trazado 875509" d="M423.986,88.747c.931-3.32-3.748-9.149-5.347-4.944-.593,1.56.189,5.259,1.646,6.691,1.548,1.52,3.086.412,3.977.559Z" transform="translate(-5424.34 -1804.207)" fill="#b5b5b5"/>
      <path id="Trazado_875510" data-name="Trazado 875510" d="M421.379,85.846l.058.1c.336-.321,1.266.061,1.636.639.461.72.215,1.007-.055,1.5-.287.521-1.229,2.737.457,2.088,2.365-.908-.764-6.731-2.1-4.328" transform="translate(-5425.694 -1805.56)" fill="#878787"/>
      <path id="Trazado_875511" data-name="Trazado 875511" d="M425.328,78.27c-1.437-5.562-2.341-9.027-1.826-16.247.34-4.782,2.375-11.708,5.448-13.676,6.387-4.089,10.965-.761,16.342,4.5,0,0,2.442,20.519.751,23.7C440.495,87.009,435.29,87.235,430.7,86.8c-4.542-.426-4.58-5.483-5.368-8.534" transform="translate(-5426.605 -1787.708)" fill="#b5b5b5"/>
      <path id="Trazado_875512" data-name="Trazado 875512" d="M450.775,86.091c.806.157,1.6.35,2.368.575-.082.778-.691.993-1.078,1.314a2.58,2.58,0,0,1-1.893.585,3.428,3.428,0,0,1-2.984-1.626,13.3,13.3,0,0,1,3.586-.849" transform="translate(-5437.584 -1805.938)" fill="#878787"/>
      <path id="Trazado_875513" data-name="Trazado 875513" d="M447.229,84.28q.752-.126,1.5-.211l.024,0a27.648,27.648,0,0,1,2.958-.168l.033,0c.473,0,.944.012,1.415.036a3,3,0,0,0-.967-2.884,3.174,3.174,0,0,0-1-.7,2,2,0,0,0-.944-.189,2.661,2.661,0,0,0-2.154,1.2,3.97,3.97,0,0,0-.21.351v0a7.872,7.872,0,0,0-.656,2.566" transform="translate(-5437.603 -1803.202)" fill="#fff"/>
      <path id="Trazado_875514" data-name="Trazado 875514" d="M448.443,81.711v0a15.8,15.8,0,0,0,.847,2.354l.024,0a27.629,27.629,0,0,1,2.958-.168l.033,0a12.356,12.356,0,0,0,.448-2.849,3.179,3.179,0,0,0-1-.7,2.013,2.013,0,0,0-.945-.189,2.661,2.661,0,0,0-2.154,1.2c-.074.113-.146.23-.21.351" transform="translate(-5438.162 -1803.203)" fill="#141414"/>
      <path id="Trazado_875515" data-name="Trazado 875515" d="M453.7,83.536c-.129.484-.1.9.05.937s.377-.326.516-.806.132-.9-.028-.937-.408.324-.538.807" transform="translate(-5440.548 -1804.388)" fill="#fff"/>
      <path id="Trazado_875516" data-name="Trazado 875516" d="M427.942,86.591c.6.159,1.182.342,1.748.549a3.644,3.644,0,0,1-.937,1.317,1.729,1.729,0,0,1-1.448.594,2.352,2.352,0,0,1-2.127-1.679,9.213,9.213,0,0,1,2.763-.779" transform="translate(-5427.445 -1806.168)" fill="#878787"/>
      <path id="Trazado_875517" data-name="Trazado 875517" d="M425.2,84.727q.568-.1,1.139-.171l.018,0a21.422,21.422,0,0,1,2.242-.148l.025,0c.359,0,.716,0,1.074.015a3.313,3.313,0,0,0-.413-2.833,2.183,2.183,0,0,0-.69-.7,1.218,1.218,0,0,0-.711-.2,2.232,2.232,0,0,0-1.8,1.146c-.067.111-.134.225-.194.345v0a8.853,8.853,0,0,0-.692,2.546" transform="translate(-5427.456 -1803.447)" fill="#fff"/>
      <path id="Trazado_875518" data-name="Trazado 875518" d="M426.486,82.178v0a15.974,15.974,0,0,0,.447,2.375l.018,0a21.732,21.732,0,0,1,2.243-.148l.025,0a20.725,20.725,0,0,0,.661-2.817,2.192,2.192,0,0,0-.69-.7,1.217,1.217,0,0,0-.711-.2,2.231,2.231,0,0,0-1.8,1.146c-.066.111-.134.225-.193.344" transform="translate(-5428.047 -1803.448)" fill="#141414"/>
      <path id="Trazado_875519" data-name="Trazado 875519" d="M430.33,84.057c-.149.479-.167.9-.054.93s.317-.323.475-.8.2-.892.082-.93-.354.319-.5.8" transform="translate(-5429.759 -1804.632)" fill="#fff"/>
      <path id="Trazado_875520" data-name="Trazado 875520" d="M452.648,73.988l.261,2.39c-.221.444-5.937,1.8-7.183,2.177-.547-.815-1.817-2.812-.928-3.361.716-.938,6.084-1.711,7.85-1.206" transform="translate(-5436.341 -1800.289)" fill="#242424"/>
      <path id="Trazado_875521" data-name="Trazado 875521" d="M424.061,73.588l-.338,2.38c.161.448,4.827,1.938,5.839,2.342a5.152,5.152,0,0,0,.941-3.332c-1.033-1.669-5.726-2.114-6.442-1.39" transform="translate(-5426.774 -1800.023)" fill="#242424"/>
      <path id="Trazado_875522" data-name="Trazado 875522" d="M437.607,85.181c-.04.283-.073.565-.1.849s-.076.559-.1.837-.09.553-.123.83l-.152.82-.186.807c-.083.264-.148.532-.225.8l-.27.779-.307.768-.094.235.168.134c.166.132.332.264.5.388a1.62,1.62,0,0,0,.271.166l.279.15a3.592,3.592,0,0,0,.585.23,6.091,6.091,0,0,0,.6.147,2.628,2.628,0,0,0,.3.046l.3.037c.2.022.4.037.594.051s.391.036.59.047c.194.027.392.046.591.066-.184-.074-.369-.15-.559-.218s-.382-.115-.573-.17c-.384-.1-.768-.194-1.133-.31a5.581,5.581,0,0,1-.532-.194l-.252-.12a1.244,1.244,0,0,1-.245-.127l-.233-.148a1.178,1.178,0,0,1-.226-.158c-.139-.123-.281-.24-.424-.356l.072.369.34-.8c.1-.273.182-.551.273-.826.072-.281.147-.56.209-.844l.139-.856q.041-.431.072-.862c.011-.287.011-.573.011-.86s-.028-.574-.045-.858-.063-.564-.1-.847" transform="translate(-5432.449 -1805.519)" fill="#878787"/>
      <path id="Trazado_875523" data-name="Trazado 875523" d="M440.756,110.7s-.012-.052-.039-.134a.921.921,0,0,0-.208-.315,1.326,1.326,0,0,0-.432-.3,1.825,1.825,0,0,0-.573-.153,1.874,1.874,0,0,0-1.059.2,1.247,1.247,0,0,0-.3.206,1.347,1.347,0,0,0-.1.1s.054.011.138.022.2.024.335.037c.266.032.6.055.916.087l.237.024c.078.01.154.018.228.03s.146.023.215.032.137.02.2.039a2.7,2.7,0,0,1,.309.083,1.329,1.329,0,0,0,.133.045" transform="translate(-5433.375 -1816.851)" fill="#878787"/>
      <path id="Trazado_875524" data-name="Trazado 875524" d="M415.148,46.014a22.535,22.535,0,0,0,2.836,5.2c1.994,2.3,13-.883,15.64-1.58.437,1.914.686,2.9,2.752,3.262,2.152.38,5.6.874,5.17,3.132-1.32,6.908.35,8.533,1.086,11.075l3.535-3.508c1.188-2.617,2.93-12.37,2.156-13.49s-5.572-3.219-6.5-3.882a10.193,10.193,0,0,1-1.127-1.953c-1.473-2.721-4.393-7.114-10.494-5.682-1.784.417-15.143,3.8-15.508,4.922a4.611,4.611,0,0,0,.457,2.5" transform="translate(-5422.588 -1783.925)" fill="#242424"/>
      <path id="Trazado_875525" data-name="Trazado 875525" d="M415.586,51.107a22.54,22.54,0,0,0,2.836,5.2c1.994,2.3,13-.883,15.64-1.58.437,1.914.685,2.9,2.752,3.262,2.152.38,5.6.874,5.17,3.132-1.32,6.908.35,8.533,1.086,11.075l3.535-3.508c1.188-2.617,2.93-12.37,2.156-13.49s-5.572-3.219-6.5-3.882a10.192,10.192,0,0,1-1.127-1.953,7.191,7.191,0,0,1-3.265,2.672,31.754,31.754,0,0,1-13.561,1.974,19.024,19.024,0,0,1-8.719-2.9" transform="translate(-5423.026 -1789.018)" fill="#141414"/>
      <path id="Trazado_875526" data-name="Trazado 875526" d="M465.768,86.512c-.935-3.4,3.954-8.877,5.573-4.539.6,1.609-.239,5.256-1.758,6.577-1.614,1.4-3.2.173-4.118.253Z" transform="translate(-5446.003 -1803.302)" fill="#b5b5b5"/>
      <path id="Trazado_875527" data-name="Trazado 875527" d="M471.059,83.877l-.061.1c-.344-.348-1.311-.036-1.7.513-.483.685-.231.993.045,1.5.291.545,1.247,2.838-.492,2.058-2.438-1.093.846-6.686,2.206-4.175" transform="translate(-5447.161 -1804.622)" fill="#878787"/>
      <path id="Trazado_875528" data-name="Trazado 875528" d="M443.241,99.879c-.92,1.635-1.847,3.5-3.888,3.981a5.242,5.242,0,0,1-3.446-.7,4.609,4.609,0,0,1-1.72-1.529v-.129a3.494,3.494,0,0,0,1.872.943,8.643,8.643,0,0,0,7.182-2.57" transform="translate(-5431.594 -1812.289)" fill="#878787"/>
      <path id="Trazado_875529" data-name="Trazado 875529" d="M444.71,99.879c-.92,1.635-1.847,3.5-3.888,3.981a5.242,5.242,0,0,1-3.446-.7,6.125,6.125,0,0,0,.152-.715,8.643,8.643,0,0,0,7.182-2.57" transform="translate(-5433.064 -1812.289)" fill="#fff"/>
      <path id="Trazado_875530" data-name="Trazado 875530" d="M494.066,326.145V242.481c0-4.752,4.639-8.617,10.341-8.617h15.054c5.7,0,10.342,3.866,10.342,8.617v83.663c0,4.752-4.64,8.618-10.342,8.618H504.407c-5.7,0-10.341-3.866-10.341-8.618m10.341-89.986c-4.438,0-8.047,2.836-8.047,6.323v83.663c0,3.487,3.609,6.324,8.047,6.324h15.054c4.437,0,8.047-2.837,8.047-6.324V242.481c0-3.487-3.61-6.323-8.047-6.323Z" transform="translate(-5459.179 -1874.012)" fill="#171414"/>
      <path id="Trazado_875531" data-name="Trazado 875531" d="M505.359,234.42a2.3,2.3,0,0,0,2.3,2.3h17.7a2.3,2.3,0,1,0,0-4.6h-17.7a2.3,2.3,0,0,0-2.3,2.3" transform="translate(-5464.381 -1873.209)" fill="#e4aa57"/>
      <path id="Trazado_875532" data-name="Trazado 875532" d="M586.951,510.361a5.232,5.232,0,1,0,5.232-5.232,5.232,5.232,0,0,0-5.232,5.232" transform="translate(-5501.968 -1998.974)" fill="#1b1616"/>
      <path id="Trazado_875533" data-name="Trazado 875533" d="M512.874,510.361a5.232,5.232,0,1,0,5.232-5.232,5.232,5.232,0,0,0-5.232,5.232" transform="translate(-5467.843 -1998.974)" fill="#1b1616"/>
      <path id="Trazado_875534" data-name="Trazado 875534" d="M494.065,347.89v76.118a8.552,8.552,0,0,0,8.551,8.552h47.9a8.552,8.552,0,0,0,8.551-8.552V347.89a8.551,8.551,0,0,0-8.551-8.551h-47.9a8.552,8.552,0,0,0-8.551,8.551" transform="translate(-5459.178 -1922.601)" fill="#e4aa57"/>
      <path id="Trazado_875535" data-name="Trazado 875535" d="M524.048,347.89v76.118c0,4.722,4.484,8.552,10.015,8.552h28.8c5.531,0,10.015-3.829,10.015-8.552V347.89c0-4.723-4.484-8.551-10.015-8.551h-28.8c-5.532,0-10.015,3.828-10.015,8.551" transform="translate(-5472.991 -1922.601)" fill="#eabd7c"/>
      <path id="Trazado_875536" data-name="Trazado 875536" d="M527.866,465.148c0,3.316,2.13,6,4.756,6h40.9c2.626,0,4.756-2.688,4.756-6V429.12c0-3.316-2.13-6-4.756-6h-40.9c-2.627,0-4.756,2.689-4.756,6Z" transform="translate(-5474.75 -1961.193)" fill="#efcc9a"/>
      <path id="Trazado_875537" data-name="Trazado 875537" d="M531.991,371.73a3.772,3.772,0,0,0,3.8,3.746h32.664a3.772,3.772,0,0,0,3.8-3.746V349.257a3.772,3.772,0,0,0-3.8-3.746H535.788a3.772,3.772,0,0,0-3.8,3.746Z" transform="translate(-5476.65 -1925.443)" fill="#efcc9a"/>
      <path id="Trazado_875538" data-name="Trazado 875538" d="M517.492,229.144c-2.092-.758-5.468,1.557-5.468,1.557,1,.408,2.332.368,3.314.736.059,1.063-.312,4.433,1.131,4.326,1.638-.122,1.569-2.737,1.685-3.835.065-.62.041-2.53-.662-2.785" transform="translate(-5467.452 -1871.767)" fill="#b5b5b5"/>
      <path id="Trazado_875539" data-name="Trazado 875539" d="M523.382,229.889c-2.427-1.716-5.9.961-5.9.961,1,.408,2.332.368,3.314.736.06,1.063-.312,4.433,1.132,4.326,1.638-.122,1.569-2.737,1.684-3.835.065-.62.378-1.757-.233-2.188" transform="translate(-5469.967 -1871.916)" fill="#b5b5b5"/>
      <path id="Trazado_875540" data-name="Trazado 875540" d="M528.844,229.8c-2.358-1.335-5.9.961-5.9.961,1,.408,2.332.368,3.314.736.06,1.063-.312,4.433,1.132,4.326,1.638-.122,1.569-2.737,1.684-3.835.065-.62.419-1.82-.233-2.188" transform="translate(-5472.483 -1871.945)" fill="#b5b5b5"/>
      <path id="Trazado_875541" data-name="Trazado 875541" d="M532.82,229.279c-2.093-.758-5.095,1.1-5.095,1.1,1,.408,2.332.368,3.314.737.06,1.063-.313,4.433,1.131,4.325,1.638-.121,1.569-2.737,1.684-3.835.065-.62-.332-2.075-1.036-2.33" transform="translate(-5474.685 -1871.815)" fill="#b5b5b5"/>
      <path id="Trazado_875542" data-name="Trazado 875542" d="M409.92,226.713h-2.325v-3.875A172.437,172.437,0,0,0,406,197.176c-.119-.8-.232-1.728-.351-2.716-.787-6.529-1.976-16.4-8.156-17.23l.311-2.3c7.962,1.074,9.334,12.456,10.153,19.256.117.971.229,1.887.342,2.649a174.7,174.7,0,0,1,1.62,26.007Z" transform="translate(-5414.691 -1846.86)" fill="#1f1f1f"/>
      <path id="Trazado_875543" data-name="Trazado 875543" d="M365.23,352.9c-.421,1.295-1.191,7.443-2.18,15.945-2.315,19.89-5.858,54.2-9.023,67.753h-3.051c-.324-15.772-.084-53.1-.477-75.239-.1-5.306-.217-9.833-.38-13.108Z" transform="translate(-5392.868 -1926.705)" fill="#b5b5b5"/>
      <path id="Trazado_875544" data-name="Trazado 875544" d="M400.85,437.619h-2.842c-2.924-13.217-8.349-44.026-12.938-65.828-1.867-8.872-3.539-16.508-4.743-21.324l15.728,1.62c-.18,1.493.38,8.894,1.188,18.849,1.679,20.755,4.276,54.153,3.607,66.683" transform="translate(-5406.783 -1927.727)" fill="#b5b5b5"/>
      <path id="Trazado_875545" data-name="Trazado 875545" d="M350.121,348.249l15.111,4.65c-.421,1.294-1.191,7.443-2.181,15.945a38.784,38.784,0,0,1-12.55-7.486c-.1-5.306-.218-9.833-.38-13.108" transform="translate(-5392.868 -1926.705)" fill="#878787"/>
      <path id="Trazado_875546" data-name="Trazado 875546" d="M397.243,370.936a29.126,29.126,0,0,1-12.173.855c-1.867-8.871-3.539-16.508-4.743-21.324l15.728,1.62c-.18,1.493.38,8.894,1.189,18.849" transform="translate(-5406.783 -1927.727)" fill="#878787"/>
      <path id="Trazado_875547" data-name="Trazado 875547" d="M352.187,517.871c.956-.781-.594-3.761-.742-5.813h-3.051c-1.3,1.771-3.186,3.839-3.882,5.813Z" transform="translate(-5390.285 -2002.166)" fill="#fff"/>
      <path id="Trazado_875548" data-name="Trazado 875548" d="M413.013,517.871c.955-.781-.885-3.761-1.034-5.813h-2.841c-1.3,1.771-3.955,3.968-4.651,5.942Z" transform="translate(-5417.913 -2002.166)" fill="#fff"/>
      <path id="Trazado_875549" data-name="Trazado 875549" d="M382.632,323.477c-.427,4.176-17.826,11.459-46.052,4.179.217-1.867.542-5.056.932-8.955,1.491-14.9,3.917-40.164,4.821-41.479l26.155-4.773,6.394-1.168c4.968,3.25,5.211,13.235,5.9,18.65.943,7.421,2.225,29.916,1.853,33.546" transform="translate(-5386.631 -1891.248)" fill="#696969"/>
      <path id="Trazado_875550" data-name="Trazado 875550" d="M382.632,323.477c-.427,4.176-17.826,11.459-46.052,4.179.217-1.867.542-5.056.932-8.955.674.371,1.369.7,2.061,1,7.585,3.325,15.9,2.4,21.748-4.331,6.131-7.05,7.872-17.963,8.306-27.313.243-5.277-.674-10.457-1.139-15.609l6.394-1.168c4.968,3.25,5.211,13.235,5.9,18.65.943,7.421,2.225,29.916,1.853,33.546" transform="translate(-5386.631 -1891.248)" fill="#4d4d4d"/>
      <path id="Trazado_875551" data-name="Trazado 875551" d="M313.138,512.855a3.951,3.951,0,1,0,3.951-3.951,3.95,3.95,0,0,0-3.951,3.951" transform="translate(-5375.832 -2000.713)" fill="#1b1616"/>
      <path id="Trazado_875552" data-name="Trazado 875552" d="M255.682,512.855a3.951,3.951,0,1,0,3.951-3.951,3.95,3.95,0,0,0-3.951,3.951" transform="translate(-5349.364 -2000.713)" fill="#1b1616"/>
      <path id="Trazado_875553" data-name="Trazado 875553" d="M242.339,443.015a7.13,7.13,0,0,0,7.13,7.129H281.2a7.13,7.13,0,0,0,7.13-7.129V384.009c0-3.937-3.521-5.556-7.13-7.13-9.728-4.241-23.9-3.706-31.732,0-3.56,1.684-7.13,3.193-7.13,7.13Z" transform="translate(-5343.217 -1938.52)" fill="#5c5c5c"/>
      <path id="Trazado_875554" data-name="Trazado 875554" d="M258.2,443.015a7.13,7.13,0,0,0,7.129,7.129h31.733a7.13,7.13,0,0,0,7.13-7.129L301.5,392.6c0-3.938-.823-14.144-4.432-15.718-9.728-4.241-23.9-3.706-31.733,0-3.559,1.684-7.129,3.193-7.129,7.13Z" transform="translate(-5350.524 -1938.52)" fill="#4a4a4a"/>
      <path id="Trazado_875555" data-name="Trazado 875555" d="M277.709,368.6v-75.2a7.858,7.858,0,0,1,7.949-7.745H297.23a7.859,7.859,0,0,1,7.95,7.745v75.2a7.859,7.859,0,0,1-7.95,7.746H285.658a7.859,7.859,0,0,1-7.949-7.746m7.949-80.88a5.956,5.956,0,0,0-6.186,5.683v75.2a5.957,5.957,0,0,0,6.186,5.684H297.23a5.958,5.958,0,0,0,6.186-5.684v-75.2a5.957,5.957,0,0,0-6.186-5.683Z" transform="translate(-5359.511 -1897.873)" fill="#171414"/>
      <path id="Trazado_875556" data-name="Trazado 875556" d="M286.391,286.161a1.934,1.934,0,0,0,1.767,2.066h13.605a2.091,2.091,0,0,0,0-4.132H288.158a1.935,1.935,0,0,0-1.767,2.066" transform="translate(-5363.51 -1897.151)" fill="#5c5c5c"/>
      <path id="Trazado_875557" data-name="Trazado 875557" d="M362.686,117.088l-27.2,3.04c-.248,1.563-1.424,26.679-.543,33.074.134,3.3-1.43,6.59.035,7.541,2.574,1.67,3.726-5.657,6.694-5.7a37.447,37.447,0,0,0,11.64-2.06c3.492-1.2,15.627,8.86,18.521,5-.678-2.137-8.044-37.412-9.149-40.9" transform="translate(-5385.603 -1820.217)" fill="#0d0d0d"/>
      <path id="Trazado_875558" data-name="Trazado 875558" d="M336.5,179.3c-4.415.2-5.625,9.884-6.144,13.24-1.088,7.05-1.483,14.191-2.835,21.184-.9,4.67-1.321,3.293-1.613,7.944-.545,8.676,5.9,6.142,8.266,2.842,2.226-3.109,2.81-5.063,3.94-8.783a36.669,36.669,0,0,0,1.17-4.845c.122-.755.285-3.357.574-2.648Z" transform="translate(-5381.697 -1848.875)" fill="#fff"/>
      <path id="Trazado_875559" data-name="Trazado 875559" d="M377.8,230.125a54.1,54.1,0,0,1-12.656,4.606,55.945,55.945,0,0,1-16.919,1.17c-2.446-.2-4.89-.618-7.3-1.059-.506-.093-1.01-.2-1.514-.318-.233-.057-.464-.117-.695-.183l.028,0c-.028-.02-.493-.166-.532-.181l-.062-.023c3.782-8.471,5.756-19.151.155-27.571a22.2,22.2,0,0,0-1.919-2.389c-2.788-3.118-3.746-5.056-2.672-9.034.692-2.555,2.844-17.973,4.65-19.634,2.279-1.459,4.929-3.829,7.211-5.033l9.595-2.2c2.932,1.935,6.412,2.635,9.9,3.108,3.341.457,5.257-.091,7.823,1.958.02.121.385.78.4.912a18.227,18.227,0,0,1-.044,6.386c-1.243,8.287-5.872,18.957-5.6,25.692.235,5.707,3.131,10.481,6,15.351a67.674,67.674,0,0,1,4.146,8.437" transform="translate(-5385.109 -1843.8)" fill="#fff"/>
      <path id="Trazado_875560" data-name="Trazado 875560" d="M367.284,168.194c-1.295,2.645-14.857,2.232-17.03,1.681a19.176,19.176,0,0,0,.6-3.05v0a15.36,15.36,0,0,0,.092-2.329,8.737,8.737,0,0,0-1.4-4.728l-.044-.065c-.3-.414-.775-1.044-1.352-1.755-.223-.277-.466-.565-.715-.858l13.474-1.194c.127.447.255.9.395,1.362.169.546.345,1.089.558,1.594a5.614,5.614,0,0,0,1.2,1.935c1.216,1.163,5.385,5.026,4.22,7.409" transform="translate(-5391.631 -1838.093)" fill="#b5b5b5"/>
      <path id="Trazado_875561" data-name="Trazado 875561" d="M360.033,156.138c-.007.06-.011.118-.018.17-.615,4.7-5.115,9.031-8.481,10.923a1.037,1.037,0,0,1-.073-.294v0a15.34,15.34,0,0,0,.092-2.329,8.734,8.734,0,0,0-1.4-4.728c-.014-.022-.03-.045-.044-.065-.3-.414-.775-1.044-1.352-1.755l.789-.991Z" transform="translate(-5392.242 -1838.206)" fill="#878787"/>
      <path id="Trazado_875562" data-name="Trazado 875562" d="M350.757,100.514l-2.211,5.641-.211.537a8.507,8.507,0,0,0-1.783.729,28.721,28.721,0,0,0-6.878,5.874,33.678,33.678,0,0,0-2.448,3.312c-1.53,2.233-2.917,4.259-3.43,3.161-3.82-8.167-4.858-15.627-.394-19.01,2.239-1.7.951-6.205,8.321-5.1.482.072,4.776.7,7.176,2.586,1.274,1,.43,2.165,1.856,2.268" transform="translate(-5383.816 -1810.266)" fill="#212121"/>
      <path id="Trazado_875563" data-name="Trazado 875563" d="M356.122,115.731a18.567,18.567,0,0,1-3.873-2.639c-.259-.213-.51-.443-.758-.686-1.063-1.042-2.041-2.3-3.115-3.3a13.242,13.242,0,0,0-6.908,1.208c-2.239,1.134-3.429,4.379-4.033,8.557a82.108,82.108,0,0,0-.557,12.171c.042,3.469,4.316,7.191,6.78,9.844,2.54,2.736,9.567-3.309,11.719-5.707a10.487,10.487,0,0,0,3.11-7.341c0-.282,0-.571-.006-.866a31.21,31.21,0,0,0-2.357-11.244" transform="translate(-5386.762 -1816.516)" fill="#b5b5b5"/>
      <path id="Trazado_875564" data-name="Trazado 875564" d="M361.5,135.173a.51.51,0,0,0,.147.646c-.556-.094-1.093-.493-.977-.872-.072.208-.141.441.063.63a1.378,1.378,0,0,1-1.048-.47c.2.637.756.661,1.285,1.027l1.608.741c-.122-.576-1.268-1.1-1.078-1.7" transform="translate(-5397.273 -1828.443)" fill="#1f1f1f"/>
      <path id="Trazado_875565" data-name="Trazado 875565" d="M358.826,137.218a5.051,5.051,0,0,0-1.138,2.311c-.092.2-.15.171-.147.39a16.944,16.944,0,0,1,5.507.659c-.02-1.259-2.244-5.263-4.222-3.36" transform="translate(-5396.287 -1829.258)" fill="#878787"/>
      <path id="Trazado_875566" data-name="Trazado 875566" d="M362.552,140.054a3.987,3.987,0,0,0-1.024-.271,17.449,17.449,0,0,0-3.324-.147,1.822,1.822,0,0,0-.388.053,1.743,1.743,0,0,1,.1-.46v0c.275-.855,1.045-2.42,1.792-2.278a3.166,3.166,0,0,1,1.861,1.382,10.329,10.329,0,0,1,.979,1.724" transform="translate(-5396.413 -1829.361)" fill="#fff"/>
      <path id="Trazado_875567" data-name="Trazado 875567" d="M361.661,138.332a3.155,3.155,0,0,1-.045,1.452,17.4,17.4,0,0,0-3.324-.147,4.639,4.639,0,0,1-.284-.407v0c.275-.855,1.045-2.42,1.792-2.278a3.166,3.166,0,0,1,1.861,1.382" transform="translate(-5396.502 -1829.362)" fill="#de9935"/>
      <path id="Trazado_875568" data-name="Trazado 875568" d="M362.573,139.6c.065.208,0,.386-.151.4s-.322-.147-.387-.355,0-.387.151-.4.322.147.387.355" transform="translate(-5398.346 -1830.424)" fill="#fff"/>
      <path id="Trazado_875569" data-name="Trazado 875569" d="M340.452,134.254a.584.584,0,0,0,.155.646c-.48-.1-.956-.5-.875-.88a.615.615,0,0,0,.082.629,1.2,1.2,0,0,1-.917-.481c.2.637.675.668,1.144,1.039l1.408.756c-.129-.575-1.133-1.109-1-1.709" transform="translate(-5387.698 -1828.017)" fill="#1f1f1f"/>
      <path id="Trazado_875570" data-name="Trazado 875570" d="M338.731,136.223a4.819,4.819,0,0,0-.329,2.216c-.024.193-.074.169-.022.37a10.807,10.807,0,0,1,4.238.135c-.3-1.154-2.845-4.637-3.888-2.722" transform="translate(-5387.45 -1828.771)" fill="#878787"/>
      <path id="Trazado_875571" data-name="Trazado 875571" d="M342.043,138.554a2.821,2.821,0,0,0-.821-.162,10.658,10.658,0,0,0-2.5.148,1.083,1.083,0,0,0-.277.081,1.946,1.946,0,0,1-.025-.43v0c.014-.808.236-2.309.822-2.242a2.97,2.97,0,0,1,1.692,1.109,12.144,12.144,0,0,1,1.113,1.5" transform="translate(-5387.477 -1828.903)" fill="#fff"/>
      <path id="Trazado_875572" data-name="Trazado 875572" d="M340.931,137.055a3.739,3.739,0,0,1,.291,1.337,10.688,10.688,0,0,0-2.5.148c-.1-.109-.2-.225-.3-.35h0c.013-.808.235-2.31.822-2.242a2.968,2.968,0,0,1,1.692,1.108" transform="translate(-5387.477 -1828.903)" fill="#de9935"/>
      <path id="Trazado_875573" data-name="Trazado 875573" d="M341.491,138.253c.095.184.084.354-.023.378s-.272-.107-.366-.293-.084-.355.024-.378.271.108.366.293" transform="translate(-5388.684 -1829.83)" fill="#fff"/>
      <path id="Trazado_875574" data-name="Trazado 875574" d="M347.228,145.476a6.762,6.762,0,0,0,.621-3.871s-.786,3.218-1.517,4.081c.818.336,1.612,1,2.428.242a1.319,1.319,0,0,1-1.532-.451" transform="translate(-5391.123 -1831.511)" fill="#878787"/>
      <path id="Trazado_875575" data-name="Trazado 875575" d="M371.766,110.623A13.1,13.1,0,0,1,371.6,114c-.842,4.564-4.015,8.1-6.929,11.554-.551-4.3.787-7.863-1.816-11.981-1.434-2.267-3.144-2.472-5.312-3.665-.137-.074-.269-.158-.4-.246a5.718,5.718,0,0,1-1.821-1.888c-.349-.609-1.808-2.755-1.86-2.791a8.35,8.35,0,0,1,.84-1.144c.033-.037.066-.077.1-.115a10.67,10.67,0,0,1,2.139-1.88c2.192-1.448,5.551-2.4,10.063-.152a9.156,9.156,0,0,1,4.26,4.956,13.69,13.69,0,0,1,.9,3.977" transform="translate(-5394.408 -1812.506)" fill="#212121"/>
      <path id="Trazado_875576" data-name="Trazado 875576" d="M348.86,107.637a13.243,13.243,0,0,0-6.908,1.208c-2.239,1.135-3.429,4.379-4.033,8.557,0,0-.076-5.461.468-6.839a8.187,8.187,0,0,1,4.754-4.3,4.582,4.582,0,0,1,4,.117,7.732,7.732,0,0,1,1.719,1.26" transform="translate(-5387.246 -1815.044)" fill="#0d0d0d"/>
      <path id="Trazado_875577" data-name="Trazado 875577" d="M371.766,113.5a13.1,13.1,0,0,1-.161,3.376c-.842,4.564-4.015,8.1-6.929,11.554-2.483-6.813.787-7.863-1.816-11.981-1.434-2.267-3.144-2.472-5.312-3.665-.137-.074-.269-.158-.4-.246a5.717,5.717,0,0,1-1.821-1.888c-.349-.609-1.808-2.755-1.86-2.79a8.35,8.35,0,0,1,.84-1.144c.033-.037.066-.077.1-.115,2.211,1.115,3.134,3.905,5.385,5.176a9.187,9.187,0,0,0,9.553-.744,9.768,9.768,0,0,0,1.525-1.508,13.69,13.69,0,0,1,.9,3.977" transform="translate(-5394.408 -1815.387)" fill="#0d0d0d"/>
      <path id="Trazado_875578" data-name="Trazado 875578" d="M381.269,140.011a2.218,2.218,0,0,0-3.107-1.763,4.315,4.315,0,0,0-2.184,5.705c.417,1.422,2.66,1.026,3.556.34a5.016,5.016,0,0,0,1.735-4.282" transform="translate(-5404.608 -1829.854)" fill="#b5b5b5"/>
      <path id="Trazado_875579" data-name="Trazado 875579" d="M378.732,140.684c-.347.743-.921,2.381-.921,2.381.012,1.186,2.364.57,2.278-.828-.039-.625-.775-1.05-.082-1.586a1,1,0,0,1,1.38.351c-.065-1.339-2.109-1.486-2.655-.318" transform="translate(-5405.624 -1830.724)" fill="#878787"/>
      <path id="Trazado_875580" data-name="Trazado 875580" d="M340.254,105.837a6.345,6.345,0,0,1,3.946-2.259l4.154,1.619c-.962.263-3.591,3.217-3.991,4.362-.827,2.368.15,5.331,1.139,7.492-1.728-1.617-4.585-4.473-3.9-7.146-1.066.978-.833,3.862-.344,5.159-1.793-.824-2.51-3.553-2.513-5.346a6.03,6.03,0,0,1,1.51-3.879" transform="translate(-5387.627 -1813.993)" fill="#212121"/>
      <path id="Trazado_875581" data-name="Trazado 875581" d="M343.774,153.253a23.459,23.459,0,0,1,2.034,2.661c.054.082.108.16.162.231a1.989,1.989,0,0,0,2.2.747c1.658-.2,2.083-2.724,3.516-3.733a13.858,13.858,0,0,1-6.08.539,11.6,11.6,0,0,1-1.829-.445" transform="translate(-5389.944 -1836.833)" fill="#878787"/>
      <path id="Trazado_875582" data-name="Trazado 875582" d="M347.166,153.7a5.663,5.663,0,0,1,.367,2.447,1.989,1.989,0,0,0,2.2.747c1.657-.2,2.083-2.724,3.516-3.733a13.859,13.859,0,0,1-6.08.539" transform="translate(-5391.507 -1836.833)" fill="#fff"/>
      <path id="Trazado_875583" data-name="Trazado 875583" d="M360.925,129.146A3.672,3.672,0,0,1,363.6,132l-.065-.153a2.91,2.91,0,0,0-2.486-1.685c-1.006-.049-2.105,1.679-2.674.564-.674-1.321,1.525-1.874,2.554-1.583" transform="translate(-5396.61 -1825.736)" fill="#0d0d0d"/>
      <path id="Trazado_875584" data-name="Trazado 875584" d="M339.572,128.629a3.179,3.179,0,0,0-2.31,2.536l.063-.143a2.178,2.178,0,0,1,2.071-1.393c.788.065,1.506,1.906,2.039.863.63-1.236-1.038-2.034-1.863-1.862" transform="translate(-5386.945 -1825.522)" fill="#0d0d0d"/>
      <path id="Trazado_875585" data-name="Trazado 875585" d="M344.421,171.031c1.5-1.483,5.014-4.906,4.791-4.172a4.666,4.666,0,0,0,1.5,4.958c4.112,2.671,9.849-4.625,9.6-9.256,0,0,7.583,4.085,9.62,5.48,1.117.765,2.714,2.213,1.411,3.608-1.057,1.13-3.4.2-4.641-.092,1.416,1.537,2.036,3.968.291,5.578-1.977,1.825-4.134.682-6.027-.538a7.271,7.271,0,0,1-3.367,6.285c-3.176,1.769-5.461-1.065-5.9-3.933-.641,2.638-3.5,4.341-5.825,2.462-2.431-1.966-1.4-4.215-.088-6.23-3.085,1.552-2.93-2.61-1.369-4.149" transform="translate(-5389.741 -1841.165)" fill="#faefdf"/>
      <path id="Trazado_875586" data-name="Trazado 875586" d="M380.445,240.686a54.1,54.1,0,0,1-12.656,4.606,55.945,55.945,0,0,1-16.919,1.17c-2.446-.2-4.89-.618-7.3-1.059-.506-.093-1.01-.2-1.514-.318-.232-.057-.464-.117-.695-.183l.028,0c-.028-.02-.493-.166-.532-.181l-.062-.023c3.782-8.471,5.756-19.151.155-27.571a22.194,22.194,0,0,0-1.919-2.389c8.51,2.524,17.768,2.1,25.025-3.361,4.979-3.748,9.942-12.209,11.84-20.176-1.243,8.287-5.872,18.957-5.6,25.692.235,5.707,3.131,10.481,6,15.351a67.684,67.684,0,0,1,4.146,8.437" transform="translate(-5387.758 -1854.36)" fill="#faefdf"/>
      <path id="Trazado_875587" data-name="Trazado 875587" d="M384.434,285.046c-.346-4.555-.966-23.727-8.28-23.46-4.264.156-8.518,19.821-7.817,26.06a14.915,14.915,0,0,0,12.2,3.786c4.03-.553,4.169-2.808,3.9-6.386" transform="translate(-5401.225 -1886.78)" fill="#333"/>
      <path id="Trazado_875588" data-name="Trazado 875588" d="M410.206,276.668c-.818,1.721-17.19,8.674-22.176,9.522a63.013,63.013,0,0,0-.12-13.846c-.633-3.985-.865-13.526-5.015-15.739,0,0,1.129-.393,2.83-.974,4.648-1.588,13.57-4.586,15.422-4.83,4.5-.589,6.991,7.626,8.2,14.956.9,5.466,1.085,10.443.864,10.911" transform="translate(-5407.966 -1881.8)" fill="#4f4f4f"/>
      <path id="Trazado_875589" data-name="Trazado 875589" d="M411.76,265.756c-.122,2.924-3.882,3.564-6.427,4.43-3.412,1.165-7.6,2.956-11,3.773.554-6.026-1.094-14.321-6.195-18.329,4.648-1.588,13.57-4.586,15.422-4.83,4.5-.59,6.991,7.626,8.2,14.956" transform="translate(-5410.383 -1881.8)" fill="#333"/>
      <path id="Trazado_875590" data-name="Trazado 875590" d="M404.672,287.95q1.318-.387,2.625-.811c.211-5.951-1.152-11.741-2.374-16.92l-2.514.593c1.245,5.281,2.646,11.221,2.262,17.138" transform="translate(-5416.956 -1890.759)" fill="#333"/>
      <path id="Trazado_875591" data-name="Trazado 875591" d="M419.371,282.477q1.332-.5,2.657-1.01c.3-6.1-1.1-12.05-2.353-17.355l-2.514.593c1.291,5.47,2.741,11.646,2.21,17.772" transform="translate(-5423.751 -1887.945)" fill="#333"/>
      <path id="Trazado_875592" data-name="Trazado 875592" d="M379.856,289.451a1.895,1.895,0,0,1-3.79,0v-2.239a1.895,1.895,0,0,1,3.79,0Z" transform="translate(-5404.82 -1897.715)" fill="#4f4f4f"/>
      <path id="Trazado_875593" data-name="Trazado 875593" d="M389.11,173.178c-2.067-.861-3.843-.508-5.458,1.646-8.679,11.572-8.308,51.967-6.941,62.6h2.338c-.623-4.385-1.062-15.759-.463-27.815.828-16.677,3.288-28.534,6.926-33.386,1.183-1.578,2.426-2.361,3.8-2.395Z" transform="translate(-5404.774 -1845.855)" fill="#1f1f1f"/>
      <path id="Trazado_875594" data-name="Trazado 875594" d="M409.582,211.017c.431-5.845-1.029-14.564-1.99-20.453-.49-3-.512-6.117-1.587-9.041a11.746,11.746,0,0,0-2.134-3.859,12.6,12.6,0,0,0-3.472-2.243l-2.59,13.956c.076.42.21.817.324,1.258,2,7.7,1.277,15.8,3.738,23.485.77,2.405,2.93,6.6,5.222,3.111,1.4-2.124,2.3-3.633,2.489-6.213" transform="translate(-5414.836 -1847.088)" fill="#fff"/>
      <path id="Trazado_875595" data-name="Trazado 875595" d="M386.462,184.46a12.469,12.469,0,0,0-1.314-4.476c-.552-1.237-2.756-2.331-2.454-.1-1.041-.213-2.593,1.653-1.6,2.784-1.132.142-2.987,1.364-1.6,2.457-1.715.614-.33,1.482.112,2.067.761,1.009.5,2.134,1.067,3.265,1.145,2.289,3.833,3.572,4.642,3.495.914-.087,1.382-.725,2.11-1.305Z" transform="translate(-5406.012 -1848.552)" fill="#b5b5b5"/>
      <path id="Trazado_875596" data-name="Trazado 875596" d="M403.1,216.842c-1.838-2.4-6.641-6.95-8.391-9.54-1.226-1.816-2.335-4.41-3.761-5.937-.873.993-4.961,2.473-4.66,3.322.691,1.955,2.292,9.238,3.1,11.14,1.923,4.527,2.725,8.2,5.442,11.981,1.936,2.693,7.859,5.291,9.348.368.68-2.25.234-9.624-1.077-11.336" transform="translate(-5409.524 -1859.04)" fill="#fff"/>
      <path id="Trazado_875597" data-name="Trazado 875597" d="M401.16,204.311c-2.179-2.958-1.177-6.627-2.08-9.634-.235,1.911-.965,3.723-1.09,5.592-.277.07-.348-.076-.48-.168l-.144.113c.664,1.024.828,2.273,1.65,3.323a40.649,40.649,0,0,1,2.458,3.551c1.489,2.353,3.218,4.773,3.5,7.671.731-4.235-1.465-7.263-3.813-10.449" transform="translate(-5414.633 -1855.959)" fill="#faefdf"/>
      <path id="Trazado_875598" data-name="Trazado 875598" d="M302.733,280.368c-3.007,1-5.443.245-8.7.6-2,.221-6.545.818-3.316,1.464.763.153,3.149,1.15,4,1.464,1.241.455-.061,2.348,1.162,2.927,2.454,1.163,6.956-1.387,8.526-2.842Z" transform="translate(-5364.986 -1895.435)" fill="#b5b5b5"/>
      <path id="Trazado_875599" data-name="Trazado 875599" d="M313.015,270.6c.961.578,6.138-3.809,7.75-6.2,3.659-5.427,7.055-9.361,9.377-15.21l-9.55-4.424c-2.847,10.5-8.393,16.643-9.988,19.806,0,1.895,1.474,5.465,2.411,6.028" transform="translate(-5374.664 -1879.032)" fill="#fff"/>
      <path id="Trazado_875600" data-name="Trazado 875600" d="M300.184,286.116c-.179,1.586-3.81,2.87-2.3,4.227.616.553,3.433-.966,5.009-1.385Z" transform="translate(-5368.637 -1898.082)" fill="#b5b5b5"/>
    </g>
  </g>
</svg>
