<svg xmlns="http://www.w3.org/2000/svg" xmlns:xlink="http://www.w3.org/1999/xlink" width="104" height="104" viewBox="0 0 104 104">
  <defs>
    <clipPath id="clip-path">
      <rect id="Rectángulo_402679" data-name="Rectángulo 402679" width="65.012" height="65.035" fill="none"/>
    </clipPath>
  </defs>
  <g id="Grupo_1102510" data-name="Grupo 1102510" transform="translate(-180.051 -779.414)">
    <g id="Grupo_1102355" data-name="Grupo 1102355">
      <g id="Elipse_11492" data-name="Elipse 11492" transform="translate(180.051 779.414)" fill="#a98bc4" stroke="#fff" stroke-width="2">
        <circle cx="52" cy="52" r="52" stroke="none"/>
        <circle cx="52" cy="52" r="51" fill="none"/>
      </g>
      <g id="Grupo_1102354" data-name="Grupo 1102354" transform="translate(199.545 796.567)">
        <g id="Grupo_1102353" data-name="Grupo 1102353" clip-path="url(#clip-path)">
          <path id="Trazado_875686" data-name="Trazado 875686" d="M29.477,65.01c-6.905,0-13.81.019-20.715-.016a11.914,11.914,0,0,1-3.539-.4A7.04,7.04,0,0,1,.086,58.241a12.277,12.277,0,0,1-.08-1.378Q0,44.3,0,31.729a7.912,7.912,0,0,1,1.717-5.4,7.248,7.248,0,0,1,5.657-2.712c.368,0,.737,0,1.1-.005,1.333-.02,2.816.314,3.957-.164s1.953-1.763,2.9-2.706Q24.467,11.614,33.6,2.485C36.094,0,39.257-.678,42.186.71a8.685,8.685,0,0,1,2.349,1.656q9.072,8.994,18.075,18.056c3.231,3.255,3.186,7.649-.035,10.951-.1.1-.2.194-.292.294-1.052,1.089-2.508,2.013-3.04,3.315s-.157,2.989-.158,4.507c-.005,5.754-.155,11.514.049,17.261a7.8,7.8,0,0,1-8.251,8.283c-7.134-.1-14.27-.024-21.405-.023m.059-38.3c-7.134,0-14.27.082-21.4-.041a4.652,4.652,0,0,0-5.041,5.012c.086,8.422.017,16.845.034,25.268.007,3.3,1.627,4.93,4.919,4.934q21.54.021,43.08,0c3.211,0,4.852-1.666,4.855-4.845.008-8.469-.075-16.939.045-25.406a4.7,4.7,0,0,0-4.951-4.963c-7.178.128-14.359.042-21.539.042m-12.56-3.442.172.344c2.432,0,4.865-.032,7.3.017a2.71,2.71,0,0,0,2.17-.877Q34.578,14.712,42.6,6.732c.313-.313.6-.655.918-1.008-.351-.371-.624-.677-.916-.965-2.231-2.2-4.685-2.228-6.9-.02q-8.46,8.422-16.891,16.873c-.582.581-1.221,1.105-1.833,1.656M50.389,12.593l-11,11.019h1.2c3.724,0,7.449-.022,11.173.013a7.322,7.322,0,0,1,7.031,5.383c.119.42.229.842.422,1.553.611-.694,1.067-1.2,1.513-1.72a4.311,4.311,0,0,0-.079-6c-3.4-3.484-6.889-6.89-10.26-10.25M30.429,23.612c.949,0,1.914-.051,2.872.015a2.564,2.564,0,0,0,2.164-.884C39.3,18.85,43.182,15,47.044,11.131c.31-.311.589-.653.815-.906L45.854,8.178,30.429,23.612" transform="translate(0 0)"/>
          <path id="Trazado_875687" data-name="Trazado 875687" d="M45.187,157.715H24.216c-.414,0-.83.02-1.241-.019a1.452,1.452,0,0,1-1.443-1.395,1.5,1.5,0,0,1,1.349-1.635,6.123,6.123,0,0,1,1.1-.047q21.179,0,42.357.006a2.578,2.578,0,0,1,1.457.22,2.152,2.152,0,0,1,.9,1.491c-.051.481-.679,1-1.176,1.3-.344.206-.9.076-1.356.076q-10.486,0-20.972,0" transform="translate(-15.576 -111.895)"/>
          <path id="Trazado_875688" data-name="Trazado 875688" d="M139.552,185.562a19.08,19.08,0,0,1-3.327.917,4.991,4.991,0,0,1-5.032-3.136,5.187,5.187,0,0,1,7.1-6.677,1.878,1.878,0,0,0,2,.007,5.2,5.2,0,1,1-.132,9.245c-.283-.144-.549-.32-.611-.356m-1.416-4.2a2.147,2.147,0,1,0-2.153,2.055,2.148,2.148,0,0,0,2.153-2.055m3.066.563c-.09,1.07.272,1.5,1.433,1.492a2.1,2.1,0,1,0-.131-4.19c-1.067.052-1.4.455-1.306,1.542.028.319,0,.643,0,1.155" transform="translate(-94.641 -127.442)"/>
          <path id="Trazado_875689" data-name="Trazado 875689" d="M27.381,117.064c-.918,0-1.838.029-2.755-.006a3.032,3.032,0,0,1-3.191-3.211c-.025-1.377-.028-2.756,0-4.133a2.99,2.99,0,0,1,3.109-3.144q2.822-.084,5.648,0a3.051,3.051,0,0,1,3.158,3.133c.056,1.422.061,2.849,0,4.27a3.057,3.057,0,0,1-3.075,3.078c-.962.053-1.928.009-2.893.009v0m-2.753-3.181h5.551V109.7H24.628Z" transform="translate(-15.498 -77.094)"/>
          <path id="Trazado_875690" data-name="Trazado 875690" d="M25.2,189.452c.732,0,1.465-.032,2.195.009a1.565,1.565,0,0,1,1.591,1.4,1.544,1.544,0,0,1-1.5,1.638,44.282,44.282,0,0,1-4.524,0,1.476,1.476,0,0,1-1.435-1.546,1.507,1.507,0,0,1,1.621-1.492c.684-.037,1.372-.007,2.058-.007" transform="translate(-15.575 -137.097)"/>
          <path id="Trazado_875691" data-name="Trazado 875691" d="M62.5,189.458c.732,0,1.466-.038,2.195.01a1.475,1.475,0,0,1,1.518,1.45,1.46,1.46,0,0,1-1.4,1.574,43.553,43.553,0,0,1-4.66,0,1.519,1.519,0,0,1-1.406-1.59,1.554,1.554,0,0,1,1.558-1.432c.729-.045,1.463-.009,2.195-.009" transform="translate(-42.511 -137.1)"/>
        </g>
      </g>
    </g>
  </g>
</svg>
