<svg xmlns="http://www.w3.org/2000/svg" xmlns:xlink="http://www.w3.org/1999/xlink" width="48.321" height="48.341" viewBox="0 0 48.321 48.341">
  <defs>
    <clipPath id="clip-path">
      <rect id="Rectángulo_402753" data-name="Rectángulo 402753" width="48.321" height="48.341" fill="#935d16"/>
    </clipPath>
  </defs>
  <g id="Grupo_1102509" data-name="Grupo 1102509" transform="translate(-464.051 -1230.663)">
    <g id="Grupo_1102392" data-name="Grupo 1102392">
      <g id="Grupo_1102391" data-name="Grupo 1102391">
        <g id="Grupo_1102390" data-name="Grupo 1102390" transform="translate(464.051 1230.663)">
          <g id="Grupo_1102389" data-name="Grupo 1102389" clip-path="url(#clip-path)">
            <path id="Trazado_875817" data-name="Trazado 875817" d="M1.614,15.853c0,1.348,0,2.66,0,3.971a7.7,7.7,0,0,1-.026.94.727.727,0,0,1-.759.691.734.734,0,0,1-.783-.666,4.24,4.24,0,0,1-.031-.751q0-5.929,0-11.859c0-2.013.982-3,3-3.024,1.035-.014,2.071,0,3.107-.006.3,0,.606-.039,1.025-.068,0-.851-.007-1.626,0-2.4A2.38,2.38,0,0,1,9.831.027c1.13-.008,2.26-.014,3.389,0A2.39,2.39,0,0,1,15.736,2.58c.012.807,0,1.615,0,2.5H32.585c0-.8.061-1.548-.013-2.283A2.541,2.541,0,0,1,35.364.009c1.092.086,2.2,0,3.294.021a2.333,2.333,0,0,1,2.514,2.533c.015.808,0,1.617,0,2.509.4.033.7.075,1,.078,1.067.009,2.134-.012,3.2.008a2.648,2.648,0,0,1,2.931,3c0,10.353-.017,20.706.021,31.059A2.76,2.76,0,0,1,45.4,42.25c-2.039.033-4.079.009-6.119,0a2.173,2.173,0,0,1-.556-.079.766.766,0,0,1-.654-.8.779.779,0,0,1,.682-.784,4.286,4.286,0,0,1,.843-.049c1.82,0,3.64,0,5.46,0,1.464,0,1.654-.185,1.655-1.605q0-11.059,0-22.118v-.889c-.756-.256-43.787-.326-45.1-.075m0-1.991c1.307.23,44.327.167,45.034-.049a4.674,4.674,0,0,0,.059-.533c0-1.725.014-3.45,0-5.176-.008-.958-.27-1.21-1.253-1.224-1.192-.017-2.385-.01-3.577,0a4.376,4.376,0,0,0-.7.132c0,.694.009,1.348,0,2a2.407,2.407,0,0,1-2.567,2.6c-1.129.014-2.261-.038-3.388.013a2.538,2.538,0,0,1-2.643-2.662c.062-.644.01-1.3.01-1.912-1.141-.29-16.133-.229-16.847.063,0,.6-.05,1.226.01,1.845a2.536,2.536,0,0,1-2.638,2.666,27.144,27.144,0,0,0-3.293.007A2.521,2.521,0,0,1,7.14,8.924c.053-.642.009-1.292.009-2.046-1.556,0-2.961-.017-4.366.006-.9.015-1.151.287-1.163,1.217-.016,1.192,0,2.384,0,3.576,0,.716,0,1.431,0,2.185M8.751,5.82h0c0,1.032-.019,2.064.006,3.1.02.8.29,1.073,1.085,1.091q1.594.037,3.19,0c.759-.018,1.087-.339,1.094-1.1q.03-3.1,0-6.192c-.008-.793-.291-1.06-1.095-1.079-1.032-.025-2.065-.022-3.1,0-.921.017-1.163.261-1.181,1.187-.019,1,0,2,0,3M34.187,5.8c0,1-.014,2,0,3,.015.881.317,1.19,1.184,1.206q1.5.029,3,0c.916-.016,1.181-.267,1.189-1.18q.026-3,0-6c-.008-.928-.259-1.176-1.173-1.195q-1.5-.03-3,0c-.951.017-1.189.271-1.2,1.263-.013.969,0,1.939,0,2.909" transform="translate(-0.01 0)" fill="#935d16"/>
            <path id="Trazado_875818" data-name="Trazado 875818" d="M20.513,129.26H19.237q-6.777,0-13.554,0c-1.832,0-2.468-.645-2.471-2.5,0-2.29.062-4.582-.021-6.868a2.287,2.287,0,0,1,2.6-2.563c3.231.051,6.463,0,9.695.03a1.324,1.324,0,0,0,1.455-.958,7.554,7.554,0,0,1,7.005-4.865,7.617,7.617,0,0,1,7.405,4.826,1.368,1.368,0,0,0,1.522,1c3.231-.041,6.463-.028,9.695,0a3.608,3.608,0,0,1,1.456.276,1.817,1.817,0,0,1,1.067,1.747c0,2.6.021,5.207-.006,7.81a1.9,1.9,0,0,1-2.14,2.07q-6.965.014-13.931,0H27.906a2.223,2.223,0,0,0-.157.433c-.125,1.306-.055,1.381,1.265,1.382,1.945,0,3.891,0,5.836,0a1.662,1.662,0,0,1,.825.1,1.407,1.407,0,0,1,.583.752c.1.374-.2.656-.564.745a4.491,4.491,0,0,1-1.02.119c-1.882.011-3.765,0-5.648.006-1.371,0-1.436.082-1.18,1.572.46.021.947.05,1.434.063,1.132.031,1.626.411,1.776,1.519a7.956,7.956,0,0,1,.016,1.873c-.076.734-.445,1.04-1.2,1.042q-5.742.018-11.483,0c-.7,0-1.087-.3-1.141-.991a9.165,9.165,0,0,1,.082-2.239,1.325,1.325,0,0,1,1.457-1.193c.528-.025,1.058,0,1.607,0a2.389,2.389,0,0,0,.17-.494c.088-1.025-.018-1.145-1.045-1.146q-8-.005-16-.008a7.686,7.686,0,0,1-1.493-.138,2.465,2.465,0,0,1-2.009-2.3c-.024-.312-.011-.627-.011-.941q0-7.01,0-14.021a5.533,5.533,0,0,1,.038-.938.773.773,0,0,1,.857-.7.7.7,0,0,1,.692.745c.019.281.013.564.013.846q0,7.058,0,14.115a3.8,3.8,0,0,0,.037.843.913.913,0,0,0,.854.753c.249.024.5.019.752.019h16.1c.188,0,.377-.011.565,0,.483.023.692-.215.668-.683-.017-.335-.038-.669-.064-1.131m3.556-1.6H42.047c.251,0,.5-.008.753,0,.464.013.7-.192.695-.672q-.008-3.623,0-7.246c0-.482-.242-.679-.7-.677-.251,0-.5,0-.753,0q-4.895,0-9.789,0c-1.51,0-1.731-.165-2.225-1.614a6.2,6.2,0,0,0-11.76.018c-.487,1.435-.706,1.595-2.237,1.6-3.389,0-6.777,0-10.166,0-1.011,0-1.051.048-1.054,1.075-.006,1.882,0,3.764,0,5.646,0,.408.006.815,0,1.223s.182.649.618.648c.282,0,.565.006.847.006h17.79m-1.7,6.692h3.561v-5.024H22.364Zm-3.4,2.849h10.36v-1.033a76.13,76.13,0,0,0-10.36.059Z" transform="translate(0 -90.536)" fill="#935d16"/>
            <path id="Trazado_875819" data-name="Trazado 875819" d="M37.328,162.325c.22.279.428.545.64.809a.748.748,0,0,1,0,1.1.811.811,0,0,1-1.181,0,7.824,7.824,0,0,1-.637-.685c-.052.023-.132.033-.148.07-.312.72-.585.957-1.041.846-.572-.139-.685-.611-.694-1.1-.02-1.16-.034-2.322,0-3.482.027-.873.33-1.169,1.215-1.235a2.878,2.878,0,0,1,1.976.452,1.835,1.835,0,0,1,.435,2.516c-.151.233-.347.437-.568.71" transform="translate(-27.801 -128.776)" fill="#935d16"/>
            <path id="Trazado_875820" data-name="Trazado 875820" d="M202.918,159.2a2.214,2.214,0,0,1,2.461,1.377,3.262,3.262,0,0,1-.343,3.47,3.083,3.083,0,0,1-3.2.768,1.145,1.145,0,0,1-.541-.8c-.06-1.313-.052-2.63-.027-3.945a.851.851,0,0,1,.918-.871c.219-.011.439,0,.732,0m.207,1.639a3.912,3.912,0,0,0,.039,2.39c.729-.254.913-.515.895-1.276-.016-.677-.156-.854-.934-1.114" transform="translate(-163.373 -129.215)" fill="#935d16"/>
            <path id="Trazado_875821" data-name="Trazado 875821" d="M131.071,162.62c.262.358.525.667.73,1.012a.734.734,0,0,1-.14,1.016.723.723,0,0,1-1.023-.05,9.115,9.115,0,0,1-.75-.966,3.889,3.889,0,0,0-.217.447.814.814,0,0,1-.934.722c-.562-.065-.658-.495-.658-.967,0-1.28,0-2.561,0-3.841,0-.558.26-.946.812-.942a5.612,5.612,0,0,1,2,.246,1.77,1.77,0,0,1,.656,2.757c-.145.2-.314.373-.478.567" transform="translate(-103.974 -129.116)" fill="#935d16"/>
            <path id="Trazado_875822" data-name="Trazado 875822" d="M116.891,131.754a2.657,2.657,0,1,1,2.633-2.655,2.736,2.736,0,0,1-2.633,2.655m.907-2.63a.931.931,0,0,0-1.861-.07.936.936,0,1,0,1.861.07" transform="translate(-92.714 -102.643)" fill="#935d16"/>
            <path id="Trazado_875823" data-name="Trazado 875823" d="M82.328,160.953c.418.2.842.38,1.254.587a1.662,1.662,0,0,1,.973,1.6,1.743,1.743,0,0,1-1.126,1.6,2.724,2.724,0,0,1-2.811-.475q-.635-.6-.251-1.16c.249-.365.656-.426,1.171-.176a1.394,1.394,0,0,0,1.389.178c-.488-.249-.815-.441-1.161-.588-.972-.413-1.47-1.116-1.321-1.9a1.888,1.888,0,0,1,2.037-1.438,2.2,2.2,0,0,1,1.561.534.749.749,0,0,1,.25,1,.763.763,0,0,1-1.044.35c-.278-.111-.56-.21-.841-.314l-.081.209" transform="translate(-65.125 -129.218)" fill="#935d16"/>
            <path id="Trazado_875824" data-name="Trazado 875824" d="M108.09,161.147c.319.043.582.073.844.114a.7.7,0,0,1,.644.689.735.735,0,0,1-.593.836c-.281.077-.574.112-.862.166,0,.083,0,.165-.007.248.242.04.483.1.727.117.495.045.847.256.89.784.037.453-.343.772-.957.8a13.423,13.423,0,0,1-1.409,0c-.649-.033-.963-.259-.988-.894-.052-1.312-.053-2.629,0-3.941.026-.649.327-.868.976-.9.5-.024,1-.023,1.5,0,.605.029.89.283.89.74,0,.44-.3.738-.847.838-.241.044-.482.089-.722.139-.016,0-.021.056-.09.257" transform="translate(-86.328 -129.201)" fill="#935d16"/>
            <path id="Trazado_875825" data-name="Trazado 875825" d="M181.767,161.194c.26.034.52.067.78.1a.774.774,0,0,1,.774.787c0,.476-.33.714-.782.784-.258.04-.517.075-.838.121.222.5.579.332.852.372.6.086.84.307.84.8s-.255.753-.841.789a12.309,12.309,0,0,1-1.5,0c-.639-.04-.925-.3-.94-.932-.03-1.312-.013-2.626-.007-3.939a.751.751,0,0,1,.784-.855q.89-.026,1.782,0a.7.7,0,0,1,.747.686.762.762,0,0,1-.691.856c-.317.066-.643.091-.965.134q0,.147.006.295" transform="translate(-146.199 -129.245)" fill="#935d16"/>
            <path id="Trazado_875826" data-name="Trazado 875826" d="M154.5,161.717c.275-.782.455-1.336.666-1.88.218-.561.6-.77,1.077-.624a.765.765,0,0,1,.474,1.067c-.418,1.341-.882,2.669-1.346,4a.838.838,0,0,1-.839.63.912.912,0,0,1-.9-.684c-.46-1.328-.931-2.652-1.379-3.984a.723.723,0,0,1,.414-1.006.815.815,0,0,1,1.111.55c.232.565.431,1.144.725,1.935" transform="translate(-123.546 -129.206)" fill="#935d16"/>
            <path id="Trazado_875827" data-name="Trazado 875827" d="M60.625,161.164c.233.034.464.078.7.1a.791.791,0,0,1,.046,1.58c-.256.039-.511.08-.767.12l-.005.258c.245.039.49.091.736.114.494.046.85.252.886.787.031.46-.338.769-.96.8a13.027,13.027,0,0,1-1.411,0c-.672-.038-.885-.244-.9-.938q-.034-1.928,0-3.857c.012-.7.217-.9.893-.937.532-.026,1.066-.011,1.6,0a.7.7,0,0,1,.78.652.78.78,0,0,1-.66.89c-.313.079-.639.106-.959.155l.022.272" transform="translate(-47.841 -129.22)" fill="#935d16"/>
          </g>
        </g>
      </g>
    </g>
  </g>
</svg>
