<svg xmlns="http://www.w3.org/2000/svg" xmlns:xlink="http://www.w3.org/1999/xlink" width="104" height="104" viewBox="0 0 104 104">
  <defs>
    <clipPath id="clip-path">
      <rect id="Rectángulo_402671" data-name="Rectángulo 402671" width="63.042" height="56.923" fill="none" stroke="#000" stroke-width="1"/>
    </clipPath>
  </defs>
  <g id="Grupo_1102509" data-name="Grupo 1102509" transform="translate(-758.77 -687.804)">
    <g id="Grupo_1102322" data-name="Grupo 1102322" transform="translate(0.051)">
      <g id="Grupo_1102321" data-name="Grupo 1102321">
        <g id="Grupo_1102222" data-name="Grupo 1102222" transform="translate(-359.332 -1298.196)">
          <g id="Grupo_1102218" data-name="Grupo 1102218" transform="translate(96 1592)">
            <g id="Elipse_11492" data-name="Elipse 11492" transform="translate(1022.051 394)" fill="#95dbb3" stroke="#fff" stroke-width="2">
              <circle cx="52" cy="52" r="52" stroke="none"/>
              <circle cx="52" cy="52" r="51" fill="none"/>
            </g>
            <g id="Elipse_11500" data-name="Elipse 11500" transform="translate(1030.802 402.752)" fill="none" stroke="#000" stroke-width="2" stroke-dasharray="5">
              <circle cx="43.758" cy="43.758" r="43.758" stroke="none"/>
              <circle cx="43.758" cy="43.758" r="42.758" fill="none"/>
            </g>
          </g>
        </g>
        <g id="Grupo_1102320" data-name="Grupo 1102320" transform="translate(779.198 707)">
          <g id="Grupo_1102319" data-name="Grupo 1102319" clip-path="url(#clip-path)">
            <path id="Trazado_875627" data-name="Trazado 875627" d="M6.208,51.571V24.505c-1.472,0-2.928,0-4.383,0C1.05,24.507.1,24.531,0,23.6a2.314,2.314,0,0,1,.939-1.682C10.768,14.734,20.633,7.605,30.468.433a1.5,1.5,0,0,1,2.1-.01C42.4,7.6,52.268,14.726,62.093,21.91a2.327,2.327,0,0,1,.946,1.681c-.087.931-1.037.917-1.814.916-1.426,0-2.852,0-4.369,0V51.239c.851.517,1.981.825,2.09,1.347a9.564,9.564,0,0,1-.14,3.7c-.06.305-1.052.6-1.62.606-3.834.053-7.668.028-11.5.028H6.245c-2.058,0-2.322-.267-2.326-2.327,0-.126,0-.253,0-.379,0-2.267.067-2.345,2.289-2.638m49,.051a3.773,3.773,0,0,0,.081-.489c0-8.763.017-17.526-.026-26.289a1.927,1.927,0,0,0-.758-1.281C47.163,18.052,39.788,12.585,32.448,7.071a1.252,1.252,0,0,0-1.83-.017Q19.661,15.29,8.634,23.434a2.042,2.042,0,0,0-.9,1.888c.025,8.342.015,16.683.018,25.025,0,.408.036.817.056,1.243h6.7V49.808c-2.015-.284-2.015-.284-2.015-2.3q0-2.78,0-5.56c0-2.789.643-3.647,3.44-4.459,0-.407,0-.861,0-1.314,0-2.149-.034-4.3.013-6.446a3.217,3.217,0,0,1,3.363-3.485q12.2-.063,24.392,0A3.22,3.22,0,0,1,47.094,29.7c.053,2.19.01,4.381.019,6.572,0,.448.047.9.069,1.3,2.541.57,3.356,1.59,3.364,4.091.006,1.853,0,3.707,0,5.56,0,2.156,0,2.156-2.018,2.639v1.759Zm-6.074-7.505c0-.892.008-1.681,0-2.47-.023-1.936-.648-2.546-2.607-2.549q-6.946-.011-13.892-.017-8.21,0-16.419.009c-1.332,0-2.139.577-2.247,1.727-.1,1.069-.021,2.155-.021,3.3ZM61.146,23.046c-.405-.336-.526-.448-.659-.544Q46.385,12.26,32.3,2c-.756-.553-1.169-.246-1.735.165Q16.818,12.149,3.065,22.12c-.317.23-.6.5-1.111.927a27.63,27.63,0,0,1,2.789.016A4.922,4.922,0,0,0,8.42,21.847C15.647,16.4,22.936,11.029,30.16,5.576a1.891,1.891,0,0,1,2.724,0q11.245,8.478,22.576,16.841a2.723,2.723,0,0,0,1.326.6c1.333.08,2.674.028,4.359.028M45.635,37.584c0-2.8.064-5.528-.031-8.25-.039-1.121-.9-1.673-2.015-1.674q-12.066-.012-24.131.006c-1.37,0-2.042.75-2.069,2.165-.026,1.389-.006,2.779-.007,4.169,0,1.2,0,2.4,0,3.575h1.8c0-1-.027-1.921.006-2.838a2.152,2.152,0,0,1,2.357-2.365q3.348-.049,6.7,0a2.089,2.089,0,0,1,2.275,2.291c.029.956.005,1.913.005,2.889h2c0-.99-.014-1.873,0-2.755a2.14,2.14,0,0,1,2.4-2.428q3.221-.042,6.443,0c1.683.019,2.45.8,2.493,2.491.023.906,0,1.813,0,2.726ZM57.653,53.249H5.429v2.092H57.653Zm-8.574-7.534H13.966c-.022.468-.057.841-.053,1.213,0,.405.046.81.072,1.229H49.079Zm-5.541,4.048H19.5V51.6H43.538ZM29.055,37.6a21.4,21.4,0,0,0-.043-2.9,1.309,1.309,0,0,0-.909-.871c-2.139-.08-4.283-.075-6.422-.012-.345.01-.937.42-.97.7a26.945,26.945,0,0,0-.047,3.086Zm13.336,0a21.2,21.2,0,0,0-.041-2.839c-.05-.356-.554-.915-.867-.926-2.222-.079-4.45-.068-6.673-.005a1.108,1.108,0,0,0-.774.745c-.1.981-.037,1.977-.037,3.025ZM17.931,49.765h-1.8V51.6h1.8Zm27.2,1.833h1.727V49.706H45.136Z" transform="translate(0 0)" stroke="#000" stroke-width="1"/>
            <path id="Trazado_875628" data-name="Trazado 875628" d="M112.841,53.15a3.968,3.968,0,1,1-4,3.911,4.008,4.008,0,0,1,4-3.911m2.539,3.933a2.533,2.533,0,0,0-5.065.08,2.533,2.533,0,1,0,5.065-.08" transform="translate(-81.326 -39.712)" stroke="#000" stroke-width="1"/>
          </g>
        </g>
      </g>
    </g>
  </g>
</svg>
