<svg xmlns="http://www.w3.org/2000/svg" xmlns:xlink="http://www.w3.org/1999/xlink" width="104" height="104" viewBox="0 0 104 104">
  <defs>
    <clipPath id="clip-path">
      <rect id="Rectángulo_402675" data-name="Rectángulo 402675" width="49.524" height="56.826" fill="none"/>
    </clipPath>
  </defs>
  <g id="Grupo_1102512" data-name="Grupo 1102512" transform="translate(-1073.719 -1106.804)">
    <g id="Grupo_1102335" data-name="Grupo 1102335">
      <g id="Grupo_1102334" data-name="Grupo 1102334">
        <g id="Grupo_1102222" data-name="Grupo 1102222" transform="translate(-44.332 -879.196)">
          <g id="Grupo_1102218" data-name="Grupo 1102218" transform="translate(96 1592)">
            <g id="Elipse_11492" data-name="Elipse 11492" transform="translate(1022.051 394)" fill="#95dbb3" stroke="#fff" stroke-width="2">
              <circle cx="52" cy="52" r="52" stroke="none"/>
              <circle cx="52" cy="52" r="51" fill="none"/>
            </g>
            <g id="Elipse_11500" data-name="Elipse 11500" transform="translate(1030.802 402.752)" fill="none" stroke="#000" stroke-width="2" stroke-dasharray="5">
              <circle cx="43.758" cy="43.758" r="43.758" stroke="none"/>
              <circle cx="43.758" cy="43.758" r="42.758" fill="none"/>
            </g>
          </g>
        </g>
        <g id="Grupo_1102333" data-name="Grupo 1102333" transform="translate(1100.957 1130.391)">
          <g id="Grupo_1102332" data-name="Grupo 1102332" clip-path="url(#clip-path)">
            <path id="Trazado_875659" data-name="Trazado 875659" d="M3.155,5.623a2.155,2.155,0,0,0-.39-.107C-.463,5.611.038,5.361.016,2.564,0,0,.012,0,2.569,0h45c1.865,0,1.917.054,1.919,1.944,0,.687-.035,1.377.008,2.061.068,1.063-.349,1.589-1.456,1.506-.492-.037-.989-.006-1.734-.006,1.923,2.4,1.281,5.089,1.333,7.663.068,3.4-.008,6.8.045,10.194a4.543,4.543,0,0,0,.6,1.453,10.06,10.06,0,0,1,1.146,2.87c.169,2.355.056,4.731.055,7.1,0,1.729-.017,1.746-1.832,1.982v1.223q0,7.331,0,14.661c0,2.738-1.431,4.171-4.161,4.172q-18.721.008-37.442,0c-2.8,0-4.2-1.422-4.2-4.245q-.009-7.273,0-14.547V36.8C.013,36.481.012,36.481.012,34.712c0-2.329.008-4.658,0-6.987a4.11,4.11,0,0,1,1.236-2.976,2.17,2.17,0,0,0,.573-1.34q.063-6.586.014-13.172A6.6,6.6,0,0,1,3.155,5.623M45.813,36.736H3.683c0,4.032,0,7.993,0,11.954,0,2.1.528,2.629,2.632,2.629H43.151c.267,0,.535.012.8-.005a1.8,1.8,0,0,0,1.852-1.9c.024-4.192.01-8.385.01-12.673m1.834-1.953c0-2.215,0-4.309,0-6.4,0-2.2-.5-2.712-2.662-2.712H4.489c-.343,0-.779-.122-1.011.042-.58.408-1.488.922-1.52,1.44-.158,2.529-.071,5.072-.071,7.634ZM8.223,16.485c.187-3.944,2.154-6.275,5.281-6.393,3.357-.126,5.341,2.014,5.844,6.4.434,0,.882,0,1.33,0,2.1-.017,3.14-1.065,3.15-3.184.007-1.678.03-3.357-.009-5.034a2.673,2.673,0,0,0-2.753-2.759c-4.613-.029-9.227-.037-13.84.006A3.507,3.507,0,0,0,3.722,8.8c-.1,1.71-.078,3.433-.013,5.147a2.661,2.661,0,0,0,2.507,2.527c.638.052,1.283.009,2.007.009m33.04.01h1.2c2.342,0,3.343-1,3.348-3.33,0-1.3.019-2.594,0-3.89a3.619,3.619,0,0,0-3.751-3.761q-6.748-.038-13.5,0a2.714,2.714,0,0,0-2.886,2.862c-.027,1.525.094,3.059-.029,4.575-.208,2.571,1.508,4.145,4.582,3.367.116-3.828,2.246-6.231,5.521-6.229s5.377,2.39,5.513,6.407M47.6,1.916H1.9V3.608H47.6ZM45.724,52.909c-.935.083-1.868.237-2.8.239q-18.069.024-36.139,0c-1.006,0-2.011-.144-3.018-.22-.094,1.422.557,2.054,2.291,2.054q15.382,0,30.764,0c2.325,0,4.651.019,6.976-.008a1.72,1.72,0,0,0,1.927-2.067M31.61,19.38a1.4,1.4,0,0,0-1.632-1.058c-1.952.15-3.821-.045-5.229-1.8-1.408,1.731-3.229,1.958-5.152,1.809a1.4,1.4,0,0,0-1.7,1.038,5.851,5.851,0,0,1,3.951,4.05c.052.186.446.387.685.393,1.486.036,2.974.043,4.459-.007a.948.948,0,0,0,.692-.531A5.8,5.8,0,0,1,31.61,19.38M13.8,11.923A3.66,3.66,0,1,0,17.413,15.6,3.669,3.669,0,0,0,13.8,11.923m25.6,3.661a3.658,3.658,0,1,0-3.632,3.657A3.667,3.667,0,0,0,39.4,15.584M7.62,23.764H19.884a3.268,3.268,0,0,0-3.154-2.657q-2.966-.1-5.937,0A3.29,3.29,0,0,0,7.62,23.764m21.934-.014H41.9A3.355,3.355,0,0,0,38.674,21.1c-1.94-.056-3.883-.052-5.823,0a3.449,3.449,0,0,0-3.3,2.649M9.98,19.234a6.059,6.059,0,0,0-1.6-.87c-1.541-.213-3.1-.3-4.608-.434V24.04c.738-.242,1.736-.3,1.853-.653A6.4,6.4,0,0,1,9.98,19.234m29.908.142a5.139,5.139,0,0,1,3.59,3.21c.415,1.422,1.211,1.346,2.247,1.168V17.907c-1.437.147-2.805.362-4.179.4-.821.023-1.4.192-1.658,1.069" transform="translate(0 0)"/>
          </g>
        </g>
      </g>
    </g>
  </g>
</svg>
