<svg xmlns="http://www.w3.org/2000/svg" xmlns:xlink="http://www.w3.org/1999/xlink" width="104" height="104" viewBox="0 0 104 104">
  <defs>
    <clipPath id="clip-path">
      <rect id="Rectángulo_402680" data-name="Rectángulo 402680" width="64.421" height="66.786" fill="none" stroke="#000" stroke-width="0.7"/>
    </clipPath>
  </defs>
  <g id="Grupo_1102511" data-name="Grupo 1102511" transform="translate(-180.051 -944.414)">
    <g id="Grupo_1102358" data-name="Grupo 1102358">
      <g id="Elipse_11492" data-name="Elipse 11492" transform="translate(180.051 944.414)" fill="#a98bc4" stroke="#fff" stroke-width="2">
        <circle cx="52" cy="52" r="52" stroke="none"/>
        <circle cx="52" cy="52" r="51" fill="none"/>
      </g>
      <g id="Grupo_1102357" data-name="Grupo 1102357" transform="translate(199.84 963.021)">
        <g id="Grupo_1102356" data-name="Grupo 1102356" clip-path="url(#clip-path)">
          <path id="Trazado_875692" data-name="Trazado 875692" d="M80.535,8.52c1.7,0,3.185-.019,4.666,0A3.513,3.513,0,0,1,88.927,12.2q.036,11.458,0,22.916a3.545,3.545,0,0,1-3.84,3.72c-2.486.038-4.973.01-7.46.01q-15.706,0-31.412,0c-3.314,0-4.551-1.254-4.557-4.606,0-1.256,0-2.513,0-3.932-1.572,0-3,.011-4.427,0-2.569-.024-3.99-1.4-4-3.96q-.032-11.2,0-22.392c.008-2.5,1.407-3.937,3.891-3.941q19.763-.033,39.526,0c2.478,0,3.857,1.463,3.881,3.944.015,1.473,0,2.947,0,4.559m-36.759,11c0,5.135-.007,10.107,0,15.078,0,1.74.418,2.143,2.188,2.144q19.361.008,38.723,0c1.72,0,2.146-.446,2.148-2.185q.009-6.937,0-13.874c0-.38-.044-.759-.069-1.162Zm.166-6.16H86.755c.21-2.327-.156-2.735-2.373-2.735q-19.174,0-38.347,0c-2.014,0-2.5.619-2.094,2.735M35.465,4.8H78.378c.128-2.277-.23-2.674-2.363-2.675q-19.165,0-38.331,0c-2.061,0-2.518.549-2.219,2.674M86.8,15.663H43.857v1.576H86.8ZM35.367,10.981c0,5.343-.03,10.613.054,15.882a1.791,1.791,0,0,0,1.2,1.26c1.629.154,3.281.06,4.928.06V24.234c-.536,0-.966,0-1.4,0-2-.019-2.741-.762-2.757-2.791-.01-1.179,0-2.357,0-3.536.007-2.295.68-2.984,2.937-3.023.417-.007.833-.04,1.33-.065V10.981Zm.05-2.416H78.469l-.129-1.476H35.417ZM41.53,22.038V20.677H39.618v1.451c.541,0,.972.008,1.4,0a3.614,3.614,0,0,0,.509-.086m.011-3.588c.158-1.578-.092-1.728-1.948-1.254V18.45Z" transform="translate(-24.524 0)" stroke="#000" stroke-width="0.7"/>
          <path id="Trazado_875693" data-name="Trazado 875693" d="M7.712,156.443c1.213-.928,2.43-1.833,3.618-2.774a7.889,7.889,0,0,1,7.705-1.515c4.2,1.287,8.461,2.418,12.732,3.469,2.732.672,4.7,2,5.325,5.041.878-.5,1.665-.933,2.444-1.382,3.473-2,6.939-4.021,10.419-6.014,2.863-1.64,5.9-.972,7.394,1.6s.579,5.579-2.263,7.225c-6.941,4.019-13.9,8.005-20.829,12.043a9.069,9.069,0,0,1-6.921,1.018c-2.969-.7-5.948-1.344-8.923-2.013a6.429,6.429,0,0,0-5.111,1.013,1.725,1.725,0,0,0-.667,1.306,2.078,2.078,0,0,1-1.663,2.435c-1.007.282-2.013.568-3.031.8-1.514.351-2.339-.114-2.746-1.613Q2.627,167.626.109,158.15a1.932,1.932,0,0,1,1.477-2.614c.788-.251,1.6-.438,2.4-.65,2.214-.585,2.588-.434,3.73,1.558m4.126,16.119a9.894,9.894,0,0,1,8.584-1.173c2.442.648,4.921,1.158,7.386,1.722a7,7,0,0,0,5.3-.736c6.974-4.056,13.97-8.074,20.95-12.119,1.8-1.041,2.364-2.715,1.5-4.276-.878-1.588-2.682-1.963-4.528-.9q-6.749,3.878-13.476,7.795a3.265,3.265,0,0,0-1.1,1.045,5.549,5.549,0,0,1-6.592,2.695c-2.445-.64-4.873-1.345-7.314-2-.728-.2-1.439-.459-1.227-1.358.232-.986,1.031-.88,1.8-.667,2.31.638,4.617,1.289,6.936,1.893a5.57,5.57,0,0,0,1.926.232,3.408,3.408,0,0,0,.46-6.68c-4.827-1.348-9.678-2.611-14.5-3.978a5.156,5.156,0,0,0-4.7.839q-2.275,1.655-4.467,3.423a1.284,1.284,0,0,0-.427,1.045c1.112,4.347,2.28,8.68,3.485,13.2m-9.71-14.988,5.128,19.135,3.28-.892L5.409,156.692l-3.282.882" transform="translate(0.001 -112.027)" stroke="#000" stroke-width="0.7"/>
          <path id="Trazado_875694" data-name="Trazado 875694" d="M88.84,89.507c1.655,0,3.311-.016,4.966,0a2.141,2.141,0,0,1,2.427,2.4c.034,1.525.038,3.051,0,4.576a2.077,2.077,0,0,1-2.275,2.285q-5.161.05-10.323,0a2.1,2.1,0,0,1-2.308-2.268c-.054-1.567-.054-3.139,0-4.706a2.137,2.137,0,0,1,2.422-2.291c1.7-.021,3.4,0,5.1,0m.766,2.2H87.96V96.6h1.647Zm-3.851-.029H83.51v1.347h2.181c.022-.46.04-.84.064-1.347m6.175-.021c-.206,1.574.06,1.723,2.106,1.269V91.659Zm-8.5,4.949h2.23V95.3H83.491c-.019.435-.036.8-.059,1.313m10.695,0c-.03-.519-.052-.887-.074-1.279H91.8c.025.483.045.849.067,1.279Z" transform="translate(-60.008 -66.077)" stroke="#000" stroke-width="0.7"/>
          <path id="Trazado_875695" data-name="Trazado 875695" d="M164.6,120.092q-3.916,0-7.831,0c-.738,0-1.514-.064-1.537-1-.025-1.007.783-1.115,1.571-1.115q7.9,0,15.793,0c.739,0,1.494.093,1.525,1.025.035,1.051-.78,1.086-1.559,1.085q-3.981,0-7.962,0" transform="translate(-114.607 -87.103)" stroke="#000" stroke-width="0.7"/>
          <path id="Trazado_875696" data-name="Trazado 875696" d="M184.225,103.294c1.695,0,3.389,0,5.084,0,.755,0,1.56.14,1.4,1.056a1.746,1.746,0,0,1-1.329,1.006c-3.431.086-6.865.049-10.3.042-.726,0-1.339-.248-1.323-1.092.016-.865.667-1.011,1.38-1.01q2.542,0,5.084,0" transform="translate(-131.236 -76.258)" stroke="#000" stroke-width="0.7"/>
          <path id="Trazado_875697" data-name="Trazado 875697" d="M199.157,88.4a23.987,23.987,0,0,1,3.124.044c.426.056.788.6,1.179.918-.389.377-.762,1.059-1.17,1.081a61.94,61.94,0,0,1-6.255,0c-.382-.018-.735-.656-1.1-1.007.364-.344.7-.929,1.1-.986a22.826,22.826,0,0,1,3.123-.047v0" transform="translate(-143.915 -65.242)" stroke="#000" stroke-width="0.7"/>
        </g>
      </g>
    </g>
  </g>
</svg>
