<svg xmlns="http://www.w3.org/2000/svg" xmlns:xlink="http://www.w3.org/1999/xlink" width="73.035" height="73.035" viewBox="0 0 73.035 73.035">
  <defs>
    <clipPath id="clip-path">
      <rect id="Rectángulo_402570" data-name="Rectángulo 402570" width="36.948" height="41.932" fill="none"/>
    </clipPath>
  </defs>
  <g id="Grupo_1102506" data-name="Grupo 1102506" transform="translate(-211.965 -1391.1)">
    <g id="Grupo_1102215" data-name="Grupo 1102215">
      <g id="Elipse_11493" data-name="Elipse 11493" transform="translate(211.965 1391.1)" fill="#95dbb3" stroke="#fff" stroke-width="2">
        <circle cx="36.518" cy="36.518" r="36.518" stroke="none"/>
        <circle cx="36.518" cy="36.518" r="35.518" fill="none"/>
      </g>
      <g id="Grupo_1102200" data-name="Grupo 1102200" transform="translate(230.008 1406.651)">
        <g id="Grupo_1102199" data-name="Grupo 1102199" clip-path="url(#clip-path)">
          <path id="Trazado_875185" data-name="Trazado 875185" d="M1.929,38.838c1.4-2.426,2.747-4.752,4.09-7.078q1.835-3.177,3.67-6.355c.276-.477.612-.936,1.209-.466.476.374.214.83-.025,1.243Q9.037,29.358,7.2,32.536,5.144,36.1,3.088,39.67c-.117.2-.211.421-.4.812a24.01,24.01,0,0,0,3.019-.03c.745-.1,1.332-1.827.923-2.5a2.237,2.237,0,0,1-.319-2.161,1.93,1.93,0,0,1,1.966-1.166,1.857,1.857,0,0,0,1.652-2.855c-.826-1.534-.1-3,1.646-3.072a1.893,1.893,0,0,0,1.888-1.206.811.811,0,0,1,1.271-.414.637.637,0,0,0,1.008-.324c.581-1.652,1.683-1.773,3.307-1.656A8.07,8.07,0,0,0,26.932,21a8.29,8.29,0,0,0,.011-9.045A14.053,14.053,0,0,0,18.754,5.87a1.9,1.9,0,0,0-.439,0l.149,1.749a4.6,4.6,0,0,1,3.731,1.057,3.173,3.173,0,0,1,1.288,3.156,3.045,3.045,0,0,1-3.307,2.521c-2.532-.1-4.607-2.645-3.658-4.708a5.733,5.733,0,0,0,.445-2.974A6.049,6.049,0,0,1,20.869.429a6.261,6.261,0,0,1,7.137,1.947,1.682,1.682,0,0,0,.955.475c4.341.643,7.169,3.271,7.894,7.4a8.045,8.045,0,0,1,.082,1.38q.008,8.809,0,17.618c0,.571.16,1.371-.726,1.353-.811-.016-.672-.78-.673-1.331q-.01-8.727-.005-17.454a7.189,7.189,0,0,0-6.986-7.527A6.707,6.707,0,0,0,23.332,6.3l3.539,2.913a5.938,5.938,0,0,1,.723-1.163,2.65,2.65,0,0,1,.933-.385c.095.328.328.692.253.974a3.561,3.561,0,0,1-.7,1.273c-.339.416-.248.7-.031,1.148a28.661,28.661,0,0,1,1.358,3.3c.2.6.3,1.158,1.079,1.2A1.59,1.59,0,0,0,32.139,14.5a1.45,1.45,0,0,0-.547-1.73c-.181-.154-.491-.178-.631-.352a4.842,4.842,0,0,1-.471-.9c.318-.128.66-.405.949-.358a2.95,2.95,0,0,1,2.216,3.029,2.987,2.987,0,0,1-2.647,2.765c-.429.027-.861,0-1.3,0a.835.835,0,0,0-.092.242c0,.521-.1,1.461.026,1.492a7.234,7.234,0,0,0,2.092.092c.134-.007.3-.319.363-.517.073-.225-.03-.537.09-.712.16-.234.467-.523.7-.511a.872.872,0,0,1,.593.6,11.118,11.118,0,0,1,.028,1.871c-.017.561-.394.722-.889.721-1.006,0-2.015-.044-3.016.03a1.435,1.435,0,0,0-.922.564c-.61.858-1.139,1.774-1.763,2.768l5.2,2.291c0-1.043-.005-1.922,0-2.8a3.308,3.308,0,0,1,.08-1.126.915.915,0,0,1,.686-.509.854.854,0,0,1,.594.595q.077,2.444.017,4.892c-.018.7-.494.886-1.248.557-1.918-.836-3.84-1.666-5.74-2.542a1.625,1.625,0,0,0-1.653.078,17.983,17.983,0,0,1-3,1.226c-.552.181-.794.4-.789,1.008.027,2.936,0,5.872.017,8.809.006,1.354.646,1.979,2.019,1.982q5.138.012,10.277,0c1.5,0,2.144-.647,2.152-2.125.006-1.06,0-2.121,0-3.181,0-.5.1-.992.706-.99s.7.494.7.995c0,1.223.025,2.448-.01,3.67a3.069,3.069,0,0,1-2.959,3.018q-5.668.073-11.337,0a2.951,2.951,0,0,1-2.917-2.593,25.683,25.683,0,0,1-.123-3.171c-.016-2.039-.027-4.078.007-6.117.012-.709-.191-.94-.942-1.049a1.384,1.384,0,0,0-1.691.929,2.006,2.006,0,0,1-2.114,1.213.823.823,0,0,0-.622.34,2.437,2.437,0,0,1-2.209,1.138c-1.131.028-1.245.253-.687,1.261A3.254,3.254,0,0,1,8.62,36.041c-1.111.024-1.254.277-.725,1.277a3.176,3.176,0,0,1-2.77,4.608c-3.206-.014-2.917.347-4.7-2.7a2.326,2.326,0,0,1,0-2.667,16.353,16.353,0,0,1,1.011-1.669c.2-.238.658-.256,1-.374.06.358.259.767.152,1.064a7.417,7.417,0,0,1-.912,1.632c-.4.582-.278,1.049.257,1.63M18.741,4.311a8.843,8.843,0,0,1,1.56.6,2.169,2.169,0,0,0,2.97-.356A16,16,0,0,1,26.46,2.847a4.407,4.407,0,0,0-4-1.361,4.57,4.57,0,0,0-3.722,2.825m.719,8.378c.595-1.547-.87-1.915-1.4-2.843-.729,1.081-.121,2.273,1.4,2.843m-.3-3.745a4.171,4.171,0,0,0,2.717,1.773,2.943,2.943,0,0,0-2.717-1.773" transform="translate(0 -0.001)"/>
          <path id="Trazado_875186" data-name="Trazado 875186" d="M27.662,24.2c.34,0,.542-.062.657.012.266.171.671.4.68.62a.994.994,0,0,1-.59.7,8.423,8.423,0,0,1-1.362.182,8.559,8.559,0,0,0-5.882,13.188c.912,1.413,1.447,2.51.225,3.92-.11.127.054.7.253.849a.966.966,0,0,1,.251,1.474q-2.374,4.086-4.728,8.182c-.258.446-.581.9-1.151.552s-.293-.851-.046-1.282c1.364-2.379,2.726-4.76,4.11-7.128a1.031,1.031,0,0,0,.034-1.316,1.9,1.9,0,0,1,.206-2.347,1.237,1.237,0,0,0-.061-1.653,10.044,10.044,0,0,1,6.771-15.894c.267-.045.54-.054.634-.064" transform="translate(-13.117 -20.234)"/>
          <path id="Trazado_875187" data-name="Trazado 875187" d="M163.109,183.008a21.965,21.965,0,0,1-.029,2.358c-.031.288-.39.541-.6.81a5.691,5.691,0,0,1-.743-.786c-.1-.153-.027-.423-.029-.64-.006-1.1-.752-1.608-1.752-1.148a.835.835,0,0,0-.305.583,8.67,8.67,0,0,1-.092,1.29c-.084.273-.419.64-.652.647a.918.918,0,0,1-.69-.592q-.086-2.559,0-5.123a.932.932,0,0,1,.667-.636c.229-.005.53.364.679.635a1.441,1.441,0,0,1,.063.8c-.087.775.274.983,1,.954,1.074-.043,1.069-.007,1.087-1.083.009-.558-.11-1.3.7-1.315.831-.014.692.739.7,1.292.013.651,0,1.3,0,1.954h0" transform="translate(-132.369 -150.435)"/>
          <path id="Trazado_875188" data-name="Trazado 875188" d="M79.066,92.82a.746.746,0,0,1-1.192.664c-.862-.462-1.7-.971-2.546-1.46l-5.439-3.138c-.118-.068-.289-.11-.341-.212-.165-.324-.472-.734-.384-1,.176-.524.677-.441,1.1-.2q2.338,1.332,4.667,2.68c1.177.679,2.359,1.351,3.52,2.057a3.308,3.308,0,0,1,.621.608" transform="translate(-57.867 -73.048)"/>
          <path id="Trazado_875189" data-name="Trazado 875189" d="M59.465,104.2c.32.155.57.259.8.393q3.914,2.253,7.822,4.514c.117.068.294.118.334.219a9.892,9.892,0,0,1,.283.974c-.332.068-.737.291-.983.175-.881-.412-1.711-.937-2.557-1.424q-2.715-1.562-5.426-3.132a2.31,2.31,0,0,1-.722-.511.894.894,0,0,1-.123-.732c.077-.2.372-.323.569-.477" transform="translate(-49.26 -87.202)"/>
        </g>
      </g>
      <g id="Elipse_11502" data-name="Elipse 11502" transform="translate(219.051 1398)" fill="none" stroke="#000" stroke-width="2" stroke-dasharray="5">
        <circle cx="30" cy="30" r="30" stroke="none"/>
        <circle cx="30" cy="30" r="29" fill="none"/>
      </g>
    </g>
  </g>
</svg>
