<svg xmlns="http://www.w3.org/2000/svg" xmlns:xlink="http://www.w3.org/1999/xlink" width="104" height="104" viewBox="0 0 104 104">
  <defs>
    <clipPath id="clip-path">
      <rect id="Rectángulo_402676" data-name="Rectángulo 402676" width="52.449" height="58.605" fill="none"/>
    </clipPath>
  </defs>
  <g id="Grupo_1102513" data-name="Grupo 1102513" transform="translate(-758.719 -1423.804)">
    <g id="Grupo_1102339" data-name="Grupo 1102339">
      <g id="Grupo_1102338" data-name="Grupo 1102338">
        <g id="Grupo_1102222" data-name="Grupo 1102222" transform="translate(-359.332 -562.196)">
          <g id="Grupo_1102218" data-name="Grupo 1102218" transform="translate(96 1592)">
            <g id="Elipse_11492" data-name="Elipse 11492" transform="translate(1022.051 394)" fill="#95dbb3" stroke="#fff" stroke-width="2">
              <circle cx="52" cy="52" r="52" stroke="none"/>
              <circle cx="52" cy="52" r="51" fill="none"/>
            </g>
            <g id="Elipse_11500" data-name="Elipse 11500" transform="translate(1030.802 402.752)" fill="none" stroke="#000" stroke-width="2" stroke-dasharray="5">
              <circle cx="43.758" cy="43.758" r="43.758" stroke="none"/>
              <circle cx="43.758" cy="43.758" r="42.758" fill="none"/>
            </g>
          </g>
        </g>
        <g id="Grupo_1102337" data-name="Grupo 1102337" transform="translate(784.244 1448)">
          <g id="Grupo_1102336" data-name="Grupo 1102336" clip-path="url(#clip-path)">
            <path id="Trazado_875660" data-name="Trazado 875660" d="M9.912,1.962c1.357,1.624,1.328,3.433,1.326,5.264q-.027,17.595-.009,35.19c0,2.271.442,2.723,2.66,2.723,4.568,0,9.136,0,13.819,0,.1-.542.171-1.048.287-1.544a12.36,12.36,0,0,1,6.822-8.634c.653-.325,1.495-.94,1.995.062.512,1.027-.487,1.261-1.163,1.58a10.543,10.543,0,1,0,8.426-.267c-.262-.105-.619-.12-.777-.307a7.211,7.211,0,0,1-.686-1.184c.427-.164.921-.555,1.272-.454a11.493,11.493,0,0,1,5.973,4.144,12.41,12.41,0,1,1-21.962,9.93c-.082-.436-.168-.872-.282-1.457h-1.28c-4.247,0-8.494.008-12.741,0C10.675,47,9.3,45.606,9.3,42.667q-.006-11.77,0-23.541V17.555c-2.549,0-4.967,0-7.384,0-1.86,0-1.909-.051-1.91-1.9,0-3.236-.013-6.472,0-9.708A5.645,5.645,0,0,1,5.949.007Q24.575-.008,43.2.008a5.516,5.516,0,0,1,5.855,5.861q.023,13.53.005,27.06c0,.162.063.373-.016.476-.279.366-.606.694-.915,1.036a4.511,4.511,0,0,1-.843-.971,2.754,2.754,0,0,1-.039-1.079q0-12.863,0-25.725a11.878,11.878,0,0,0-.053-1.453A3.584,3.584,0,0,0,43.528,1.88q-16.442-.032-32.884-.009a7.219,7.219,0,0,0-.731.091m-.623,13.7c0-3.443.038-6.823-.014-10.2A3.548,3.548,0,0,0,5.644,1.878,3.543,3.543,0,0,0,1.886,5.336c-.1,2.053-.041,4.115-.047,6.173,0,1.363,0,2.725,0,4.157Z" transform="translate(0 0.001)"/>
            <path id="Trazado_875661" data-name="Trazado 875661" d="M144.076,113.655a7.123,7.123,0,0,1,3.391-4.352,7.467,7.467,0,0,1,1.454-.588c1.13-.311,1.59.021,1.716,1.167a6.835,6.835,0,0,1-3.892,7.036c-.176.086-.346.184-.525.279l.721,3.485a3.834,3.834,0,0,1,1.1-.717,1.425,1.425,0,0,1,1.137.253,1.115,1.115,0,0,1-.039,1.049c-1.174,1.7-4.907,1.821-6.188.2a1.213,1.213,0,0,1-.079-1.145c.173-.231.747-.246,1.129-.206.268.028.509.31.806.507a7.851,7.851,0,0,0-3.87-6.861c-.668-.329-1.32-.661-.857-1.519.417-.773,1.11-.528,1.683-.175.778.48,1.511,1.032,2.316,1.59m1.821,1.509a4.122,4.122,0,0,0,2.833-4.281,4.294,4.294,0,0,0-2.833,4.281" transform="translate(-105.962 -82.246)"/>
            <path id="Trazado_875662" data-name="Trazado 875662" d="M71.468,26.081c0,.808.026,1.618-.007,2.425a1.882,1.882,0,0,1-2.044,2.044q-2.485.046-4.97,0A1.861,1.861,0,0,1,62.4,28.518q-.064-2.484,0-4.97a1.824,1.824,0,0,1,2.037-2.03q2.484-.053,4.97,0c1.4.03,2.022.7,2.061,2.138.022.808,0,1.616,0,2.425m-7.157,2.539h5.137V23.492H64.311Z" transform="translate(-47.228 -16.276)"/>
            <path id="Trazado_875663" data-name="Trazado 875663" d="M66.874,81.31c-.849,0-1.7.035-2.546-.009A1.827,1.827,0,0,1,62.4,79.389q-.082-2.6,0-5.213a1.819,1.819,0,0,1,2.021-1.936q2.484-.062,4.971,0a1.868,1.868,0,0,1,2.063,2.029c.04,1.656.038,3.315,0,4.971A1.892,1.892,0,0,1,69.42,81.3c-.847.035-1.7.007-2.546.006M64.3,79.316h5.138v-5.2H64.3Z" transform="translate(-47.224 -54.684)"/>
            <path id="Trazado_875664" data-name="Trazado 875664" d="M122.147,28.959q-3.274,0-6.547,0c-.687,0-1.392-.059-1.381-.952s.731-.923,1.409-.922q6.608,0,13.216,0c.678,0,1.386.031,1.374.949s-.73.922-1.4.923h-6.668" transform="translate(-86.498 -20.512)"/>
            <path id="Trazado_875665" data-name="Trazado 875665" d="M122.34,79.807c-2.142,0-4.283.01-6.425-.005-.7,0-1.632.169-1.661-.9s.878-.952,1.6-.953q6.425-.005,12.85,0c.678,0,1.519-.125,1.534.889.017,1.1-.886.956-1.595.961-2.1.015-4.2.005-6.3.005" transform="translate(-86.525 -59.029)"/>
            <path id="Trazado_875666" data-name="Trazado 875666" d="M69.919,133.089a6.875,6.875,0,0,1,.039-1.8c.11-.369.577-.631.885-.941.308.311.808.582.884.942a5.751,5.751,0,0,1,0,2.045,1.648,1.648,0,0,1-1.62,1.533c-1.9.051-3.8.067-5.691,0a1.581,1.581,0,0,1-1.637-1.729c0-1.7.03-3.39.037-5.086,0-.665.124-1.353.939-1.178a1.537,1.537,0,0,1,.826,1.159c.1,1.405.009,2.825.07,4.236.012.282.369.776.584.786,1.521.069,3.047.037,4.689.037" transform="translate(-47.539 -96.06)"/>
            <path id="Trazado_875667" data-name="Trazado 875667" d="M122.046,47.475q-3.272,0-6.542,0c-.643,0-1.29-.043-1.309-.88s.612-.922,1.265-.922q6.724,0,13.448,0c.632,0,1.29.015,1.3.879.008.95-.709.921-1.375.92h-6.784" transform="translate(-86.479 -34.59)"/>
            <path id="Trazado_875668" data-name="Trazado 875668" d="M161.969,195.748c-.151-.14-.8-.457-.9-.893-.169-.8.578-.89,1.206-.97,3.943-.5,6.1-2.733,6.584-6.671.051-.414.6-.766.921-1.147.3.4.839.8.849,1.207.1,4.274-3.849,8.31-8.663,8.474" transform="translate(-121.962 -140.909)"/>
            <path id="Trazado_875669" data-name="Trazado 875669" d="M78.811,123.828l3.881-2.661c.587-.4,1.224-.846,1.755,0,.494.788-.185,1.163-.713,1.529-1.493,1.035-3,2.046-4.493,3.086-.712.5-1.258.432-1.689-.356a9.436,9.436,0,0,1-.939-1.684,1.7,1.7,0,0,1,.166-1.444c.577-.5,1.105-.081,1.438.531.153.281.327.551.6,1" transform="translate(-57.958 -91.395)"/>
            <path id="Trazado_875670" data-name="Trazado 875670" d="M118.9,98.238a35.329,35.329,0,0,1-3.63-.044c-.4-.042-.749-.6-1.122-.923.37-.284.732-.8,1.11-.813q3.691-.111,7.387,0c.362.011.707.566,1.06.87-.35.3-.68.831-1.054.864-1.242.11-2.5.042-3.751.042" transform="translate(-86.448 -73.007)"/>
          </g>
        </g>
      </g>
    </g>
  </g>
</svg>
