<svg xmlns="http://www.w3.org/2000/svg" xmlns:xlink="http://www.w3.org/1999/xlink" width="104" height="104" viewBox="0 0 104 104">
  <defs>
    <clipPath id="clip-path">
      <rect id="Rectángulo_402677" data-name="Rectángulo 402677" width="54.006" height="54.003" fill="none"/>
    </clipPath>
  </defs>
  <g id="Grupo_1102514" data-name="Grupo 1102514" transform="translate(-1073.719 -1423.804)">
    <g id="Grupo_1102343" data-name="Grupo 1102343">
      <g id="Grupo_1102342" data-name="Grupo 1102342">
        <g id="Grupo_1102222" data-name="Grupo 1102222" transform="translate(-44.332 -562.196)">
          <g id="Grupo_1102218" data-name="Grupo 1102218" transform="translate(96 1592)">
            <g id="Elipse_11492" data-name="Elipse 11492" transform="translate(1022.051 394)" fill="#95dbb3" stroke="#fff" stroke-width="2">
              <circle cx="52" cy="52" r="52" stroke="none"/>
              <circle cx="52" cy="52" r="51" fill="none"/>
            </g>
            <g id="Elipse_11500" data-name="Elipse 11500" transform="translate(1030.802 402.752)" fill="none" stroke="#000" stroke-width="2" stroke-dasharray="5">
              <circle cx="43.758" cy="43.758" r="43.758" stroke="none"/>
              <circle cx="43.758" cy="43.758" r="42.758" fill="none"/>
            </g>
          </g>
        </g>
        <g id="Grupo_1102341" data-name="Grupo 1102341" transform="translate(1098.716 1447.799)">
          <g id="Grupo_1102340" data-name="Grupo 1102340" clip-path="url(#clip-path)">
            <path id="Trazado_875671" data-name="Trazado 875671" d="M5.232,40.039V38.766q0-15.962-.019-31.924a3.923,3.923,0,0,0-.44-1.666A3.55,3.55,0,0,1,5.646.79a3.5,3.5,0,0,1,5.315,4.334,15.876,15.876,0,0,0-.615,1.753H17.4c0-1.474-.006-2.936,0-4.4S17.584.86,19.051.859C23.828.857,28.6.844,33.38.882c.46,0,1.161.22,1.309.541s-.146.983-.432,1.351c-1.1,1.411-2.267,2.764-3.466,4.206,1.155,1.392,2.323,2.739,3.41,4.149a5.283,5.283,0,0,1,.546,1.464,5.455,5.455,0,0,1-1.495.486c-2.312.052-4.625.023-7.087.023,0,1.566,0,3.062,0,4.557,0,1.326-.212,1.542-1.517,1.544q-6.427.007-12.854,0H10.587V40.039h3.045c1.932,0,3.863,0,5.795,0,1.352,0,1.49.151,1.5,1.537,0,.589,0,1.178,0,1.84H33.079V42.226c0-3.793-.006-7.586,0-11.379a2.671,2.671,0,0,1,2.97-3.006c1.573-.01,3.146,0,4.783,0V20.925H39.7q-5.216,0-10.431,0c-1.211,0-1.413-.209-1.425-1.407-.008-.773-.005-1.545,0-2.318.007-1.314.229-1.548,1.515-1.554,1.616-.008,3.231,0,4.847,0q7.428,0,14.856,0C52.253,15.646,54,17.4,54,20.6q.007,5.532,0,11.063c0,1.262-.2,1.451-1.479,1.461-.593,0-1.187,0-1.88,0V47c.728,0,1.423.016,2.116,0,.819-.025,1.255.305,1.247,1.169-.015,1.58-.006,3.161,0,4.741A.964.964,0,0,1,52.9,54c-.246,0-.492,0-.738,0H1.8C.077,54,0,53.929,0,52.235q0-5.321,0-10.642c0-1.415.142-1.549,1.59-1.553,1.157,0,2.314,0,3.641,0m-3.458,1.82c0,3.105.053,6.086-.028,9.063-.029,1.088.292,1.331,1.347,1.329Q27,52.2,50.914,52.226a3.017,3.017,0,0,0,.837-.028c.183-.055.441-.279.447-.437.041-.966.021-1.934.021-2.989h-1.3q-5.53,0-11.06,0c-1.417,0-1.546-.14-1.554-1.588,0-.586,0-1.173,0-1.859H36.915q-8.163,0-16.326,0c-1.2,0-1.416-.232-1.431-1.409-.008-.683,0-1.366,0-2.053ZM50.526,22.664v8.57h1.625a2.984,2.984,0,0,0,.069-.4q.008-5.058.008-10.116c0-2.348-.9-3.239-3.25-3.24q-9.062-.006-18.124,0c-.372,0-.745.034-1.148.053v1.626h1.2c3.477,0,6.955.016,10.432-.011.926-.007,1.359.325,1.35,1.286q-.037,3.951,0,7.9c.011.956-.407,1.327-1.331,1.314-1.686-.024-3.372-.013-5.058,0-1.263.009-1.452.205-1.453,1.488q-.007,5.69,0,11.38c0,.3.044.6.067.891h1.609V42.182q0-4.636,0-9.273c0-1.382.2-1.571,1.6-1.574q3.688-.009,7.376,0c1.357,0,1.536.182,1.537,1.509q.005,6.481,0,12.961v1.14h1.69V22.664Zm-34.887-10.4H10.61v1.7h5.024v1.78H10.609v1.578H24.371c0-2.556-.03-5.042.017-7.526.016-.828-.234-1.077-1.07-1.068-3.932.042-7.864.017-11.8.021-.3,0-.608.042-.926.065v1.621h5.044ZM40.083,46.935h5.089V33.214H38.416v10.15c1.667.346,1.667.346,1.667,2.07,0,.482,0,.964,0,1.5M8.606,7.036H7.071V40H8.606Zm17.559,4.178h5.793c-.993-1.2-1.832-2.273-2.741-3.287a1.227,1.227,0,0,1,.023-1.913c.9-1,1.728-2.075,2.689-3.242H20.822c1.665,1.456,3.174,2.7,4.586,4.055a2.869,2.869,0,0,1,.725,1.609,21.5,21.5,0,0,1,.032,2.777m-18.409-6A1.689,1.689,0,0,0,9.529,3.651,1.686,1.686,0,0,0,7.948,1.794,1.743,1.743,0,0,0,6.154,3.355a1.749,1.749,0,0,0,1.6,1.861M19.26,6.91h3.56L19.208,3.758c0,1.052,0,1.817,0,2.581,0,.168.029.335.051.572" transform="translate(0 0)"/>
            <path id="Trazado_875672" data-name="Trazado 875672" d="M202.778,21.812a13.617,13.617,0,0,1-.263,2.077,4.356,4.356,0,0,1-8.481-.608,11.9,11.9,0,0,1,.021-3.148,4.353,4.353,0,0,1,8.639.514c.025.384,0,.772,0,1.158l.08.007m-1.772.008-.081-.012c0-.316.013-.632,0-.947a2.561,2.561,0,0,0-2.445-2.538,2.475,2.475,0,0,0-2.666,2.279,10.388,10.388,0,0,0,.067,2.613,2.46,2.46,0,0,0,2.286,1.992,2.514,2.514,0,0,0,2.554-1.645,10.363,10.363,0,0,0,.288-1.743" transform="translate(-153.069 -13.03)"/>
          </g>
        </g>
      </g>
    </g>
  </g>
</svg>
