<svg xmlns="http://www.w3.org/2000/svg" width="1070" height="325" viewBox="0 0 1070 325">
  <g id="Grupo_1102508" data-name="Grupo 1102508" transform="translate(-265.051 -1775)">
    <path id="Trazado_876049" data-name="Trazado 876049" d="M0,0H1070V35H0Z" transform="translate(265.051 1775)" fill="#e7c96e"/>
    <path id="Trazado_876050" data-name="Trazado 876050" d="M0,0H1070V131H0Z" transform="translate(265.051 1810)" fill="#eaf8f0"/>
    <path id="Trazado_874883" data-name="Trazado 874883" d="M-3926.816-9820v288.788" transform="translate(4324.051 11630)" fill="none" stroke="#5a846c" stroke-width="2" stroke-dasharray="3 3"/>
    <path id="Trazado_874884" data-name="Trazado 874884" d="M-3926.816-9820v288.788" transform="translate(4408.051 11630)" fill="none" stroke="#5a846c" stroke-width="2" stroke-dasharray="3 3"/>
    <path id="Trazado_874885" data-name="Trazado 874885" d="M-3926.816-9820v288.788" transform="translate(4479.051 11630)" fill="none" stroke="#5a846c" stroke-width="2" stroke-dasharray="3 3"/>
    <path id="Trazado_874886" data-name="Trazado 874886" d="M-3926.816-9820v288.788" transform="translate(4565.051 11630)" fill="none" stroke="#5a846c" stroke-width="2" stroke-dasharray="3 3"/>
    <path id="Trazado_874887" data-name="Trazado 874887" d="M-3926.816-9820v288.788" transform="translate(4654.051 11630)" fill="none" stroke="#5a846c" stroke-width="2" stroke-dasharray="3 3"/>
    <path id="Trazado_874888" data-name="Trazado 874888" d="M-3926.816-9820v288.788" transform="translate(4742.051 11630)" fill="none" stroke="#5a846c" stroke-width="2" stroke-dasharray="3 3"/>
    <path id="Trazado_874889" data-name="Trazado 874889" d="M-3926.816-9820v288.788" transform="translate(4874.051 11630)" fill="none" stroke="#5a846c" stroke-width="2" stroke-dasharray="3 3"/>
    <path id="Trazado_874890" data-name="Trazado 874890" d="M-3926.816-9820v288.788" transform="translate(5026.051 11630)" fill="none" stroke="#5a846c" stroke-width="2" stroke-dasharray="3 3"/>
    <path id="Trazado_874891" data-name="Trazado 874891" d="M-3926.816-9820v288.788" transform="translate(5135.051 11630)" fill="none" stroke="#5a846c" stroke-width="2" stroke-dasharray="3 3"/>
    <path id="Trazado_874892" data-name="Trazado 874892" d="M-3926.816-9820v1070" transform="translate(-8484.949 5867.816) rotate(90)" fill="none" stroke="#5a846c" stroke-width="2" stroke-dasharray="3 3"/>
    <path id="Trazado_874893" data-name="Trazado 874893" d="M-3926.816-9820v1070" transform="translate(-8484.949 5893.816) rotate(90)" fill="none" stroke="#5a846c" stroke-width="2" stroke-dasharray="3 3"/>
    <path id="Trazado_874894" data-name="Trazado 874894" d="M-3926.816-9820v1070" transform="translate(-8484.949 5919.816) rotate(90)" fill="none" stroke="#5a846c" stroke-width="2" stroke-dasharray="3 3"/>
    <path id="Trazado_874895" data-name="Trazado 874895" d="M-3926.816-9820v1070" transform="translate(-8484.949 5947.816) rotate(90)" fill="none" stroke="#5a846c" stroke-width="2" stroke-dasharray="3 3"/>
    <path id="Trazado_874896" data-name="Trazado 874896" d="M-3926.816-9820v1070" transform="translate(-8484.949 5973.816) rotate(90)" fill="none" stroke="#5a846c" stroke-width="2" stroke-dasharray="3 3"/>
    <path id="Trazado_874897" data-name="Trazado 874897" d="M-3926.816-9820v1070" transform="translate(-8484.949 5999.816) rotate(90)" fill="none" stroke="#5a846c" stroke-width="2" stroke-dasharray="3 3"/>
    <path id="Trazado_874898" data-name="Trazado 874898" d="M-3926.816-9820v1070" transform="translate(-8484.949 6025.816) rotate(90)" fill="none" stroke="#5a846c" stroke-width="2" stroke-dasharray="3 3"/>
    <path id="Trazado_876051" data-name="Trazado 876051" d="M19.953,19V6.4H27.8V9.367H23.75V11.2h3.806v2.971H23.75v1.854h4.342V19ZM33.505,7.574a1.608,1.608,0,0,1-.576,1.283,2.252,2.252,0,0,1-1.516.492,2.2,2.2,0,0,1-1.5-.51,1.612,1.612,0,0,1-.584-1.266A1.561,1.561,0,0,1,29.9,6.322a2.639,2.639,0,0,1,3.032,0A1.551,1.551,0,0,1,33.505,7.574Zm-.22,11.514a4.982,4.982,0,0,1-.466,2.167,3.2,3.2,0,0,1-1.371,1.477,4.413,4.413,0,0,1-2.153.5,4.846,4.846,0,0,1-1.494-.264V20.222a1.883,1.883,0,0,0,.9.272.7.7,0,0,0,.655-.312,1.864,1.864,0,0,0,.189-.945V10h3.744Zm5.027-3.524a1.265,1.265,0,0,0,.668.91,3.012,3.012,0,0,0,1.512.33,6.226,6.226,0,0,0,2.479-.5v2.373a8.908,8.908,0,0,1-3.3.545A5.214,5.214,0,0,1,36,18.016a4.277,4.277,0,0,1-1.31-3.313,5.467,5.467,0,0,1,.576-2.558,4.142,4.142,0,0,1,1.705-1.736,5.038,5.038,0,0,1,2.492-.628,4.9,4.9,0,0,1,2.391.545,3.63,3.63,0,0,1,1.507,1.529,4.906,4.906,0,0,1,.514,2.3v1.406Zm2.25-1.96q0-1.556-1.116-1.556a.944.944,0,0,0-.782.426A2.127,2.127,0,0,0,38.3,13.6ZM56.84,19V13.814a1.654,1.654,0,0,0-.233-.971.876.876,0,0,0-.76-.321.949.949,0,0,0-.809.391A1.79,1.79,0,0,0,54.749,14v5H51V13.9q0-1.38-.94-1.38a1,1,0,0,0-.861.4,1.933,1.933,0,0,0-.29,1.147V19H45.168V10h3.744v1.424h.035a2.9,2.9,0,0,1,.672-.769,3.946,3.946,0,0,1,1.042-.633,3.235,3.235,0,0,1,1.257-.242,3.181,3.181,0,0,1,1.613.378,2.931,2.931,0,0,1,1.094,1.2,3.207,3.207,0,0,1,1.266-1.165,3.772,3.772,0,0,1,1.758-.409,2.645,2.645,0,0,1,2.171.923,4.109,4.109,0,0,1,.756,2.663V19Zm15.583-4.772a6.4,6.4,0,0,1-.5,2.61A4.046,4.046,0,0,1,70.507,18.6a3.564,3.564,0,0,1-2.057.624,2.755,2.755,0,0,1-2.4-1.151h-.035V23.14H62.272V10h3.744v1.222h.035a3.171,3.171,0,0,1,1.16-1.059,3.364,3.364,0,0,1,1.617-.382A3.215,3.215,0,0,1,71.5,10.94,5.147,5.147,0,0,1,72.423,14.228Zm-3.8.114a2.346,2.346,0,0,0-.33-1.336,1.237,1.237,0,0,0-1.982.026,2.341,2.341,0,0,0-.369,1.4v.176a2.562,2.562,0,0,0,.316,1.362,1.044,1.044,0,0,0,.949.51,1.182,1.182,0,0,0,1.046-.558A2.849,2.849,0,0,0,68.626,14.342ZM73.83,19V5.676h3.744V19Zm15.557-4.658a4.687,4.687,0,0,1-1.375,3.577,6.355,6.355,0,0,1-7.664.031,4.546,4.546,0,0,1-1.367-3.5,4.692,4.692,0,0,1,.642-2.487,4.172,4.172,0,0,1,1.828-1.617,6.311,6.311,0,0,1,2.733-.562,6.113,6.113,0,0,1,2.773.589A4.286,4.286,0,0,1,88.758,12,4.452,4.452,0,0,1,89.386,14.342Zm-3.8.018q0-1.837-1.406-1.837t-1.406,1.925q0,2.03,1.424,2.03Q85.589,16.478,85.589,14.359Zm20.347-.132a6.4,6.4,0,0,1-.5,2.61A4.046,4.046,0,0,1,104.02,18.6a3.564,3.564,0,0,1-2.057.624,2.755,2.755,0,0,1-2.4-1.151h-.035V23.14H95.785V10h3.744v1.222h.035a3.171,3.171,0,0,1,1.16-1.059,3.364,3.364,0,0,1,1.617-.382,3.215,3.215,0,0,1,2.667,1.16A5.147,5.147,0,0,1,105.936,14.228Zm-3.8.114a2.346,2.346,0,0,0-.33-1.336,1.237,1.237,0,0,0-1.982.026,2.341,2.341,0,0,0-.369,1.4v.176a2.562,2.562,0,0,0,.316,1.362,1.044,1.044,0,0,0,.949.51,1.182,1.182,0,0,0,1.046-.558A2.849,2.849,0,0,0,102.139,14.342Zm5.2,4.658V5.676h3.744V19Zm10.538,0V17.629h-.035A2.944,2.944,0,0,1,115.1,19.22a2.625,2.625,0,0,1-2-.756,2.808,2.808,0,0,1-.721-2.021q0-2.654,3.261-3.076l2.232-.29a.851.851,0,0,0-.4-.721,1.8,1.8,0,0,0-1.063-.281,7,7,0,0,0-3.19.861V10.5a8.535,8.535,0,0,1,1.828-.519,10.639,10.639,0,0,1,1.881-.2,4.722,4.722,0,0,1,3.327.98,4.368,4.368,0,0,1,1.033,3.274V19Zm-2.215-3.059a.83.83,0,0,0,.233.606.888.888,0,0,0,.664.237,1.18,1.18,0,0,0,.954-.439,1.7,1.7,0,0,0,.365-1.125v-.343l-1.266.176Q115.666,15.212,115.666,15.941ZM128.823,19V14.087a2.184,2.184,0,0,0-.25-1.2.915.915,0,0,0-.813-.365A.88.88,0,0,0,127,12.9a1.613,1.613,0,0,0-.272.967V19h-3.744V10h3.744v1.406h.035a3.177,3.177,0,0,1,1.2-1.2,3.29,3.29,0,0,1,1.644-.426q2.953,0,2.953,3.727V19Zm11.769-.123a3.648,3.648,0,0,1-.835.233,7.634,7.634,0,0,1-1.4.11,3.357,3.357,0,0,1-2.448-.861,3.269,3.269,0,0,1-.883-2.452V12.593h-1.415V10h1.415V8.233l3.691-1.02V10h1.872v2.593h-1.872v2.7q0,1.187.94,1.187a2.551,2.551,0,0,0,.932-.193Zm5.133-11.3a1.608,1.608,0,0,1-.576,1.283,2.252,2.252,0,0,1-1.516.492,2.2,2.2,0,0,1-1.5-.51,1.612,1.612,0,0,1-.584-1.266,1.561,1.561,0,0,1,.567-1.252,2.639,2.639,0,0,1,3.032,0A1.551,1.551,0,0,1,145.724,7.574ZM141.76,19V10H145.5v9Zm5.546,0V5.676h3.744V19Zm5.546,0V5.676H156.6V19Zm10.538,0V17.629h-.035a2.944,2.944,0,0,1-2.742,1.591,2.625,2.625,0,0,1-2-.756,2.808,2.808,0,0,1-.721-2.021q0-2.654,3.261-3.076l2.232-.29a.851.851,0,0,0-.4-.721,1.8,1.8,0,0,0-1.063-.281,7,7,0,0,0-3.19.861V10.5a8.535,8.535,0,0,1,1.828-.519,10.639,10.639,0,0,1,1.881-.2,4.722,4.722,0,0,1,3.327.98,4.368,4.368,0,0,1,1.033,3.274V19Zm-2.215-3.059a.83.83,0,0,0,.233.606.888.888,0,0,0,.664.237,1.18,1.18,0,0,0,.954-.439,1.7,1.7,0,0,0,.365-1.125v-.343l-1.266.176Q161.175,15.212,161.175,15.941Zm19.178-2.733h-.018a2.112,2.112,0,0,0-.958-.22,2.087,2.087,0,0,0-1.481.527,3.5,3.5,0,0,0-.857,1.811L176.266,19h-3.744l1.222-5.739A32.246,32.246,0,0,0,174.306,10h3.683q-.1.853-.229,1.731h.035a4.464,4.464,0,0,1,1.121-1.477,2.2,2.2,0,0,1,1.4-.475,3.332,3.332,0,0,1,.791.114Zm10.4.536a5.942,5.942,0,0,1-.708,2.878,4.578,4.578,0,0,1-1.973,1.951,6.454,6.454,0,0,1-2.971.646,4.589,4.589,0,0,1-3.221-1.046,3.787,3.787,0,0,1-1.138-2.936,6.063,6.063,0,0,1,.4-2.171,5.035,5.035,0,0,1,1.125-1.789,4.789,4.789,0,0,1,1.771-1.112,6.931,6.931,0,0,1,2.4-.387,4.535,4.535,0,0,1,3.182,1.033A3.779,3.779,0,0,1,190.75,13.744Zm-3.727,0a1.408,1.408,0,0,0-.255-.91.839.839,0,0,0-.686-.312,1.136,1.136,0,0,0-.844.374,2.569,2.569,0,0,0-.567,1.028,4.458,4.458,0,0,0-.207,1.349,1.355,1.355,0,0,0,.259.9.872.872,0,0,0,.7.3,1.311,1.311,0,0,0,1.16-.773A3.928,3.928,0,0,0,187.024,13.744Zm14.6,0a5.942,5.942,0,0,1-.708,2.878,4.578,4.578,0,0,1-1.973,1.951,6.454,6.454,0,0,1-2.971.646,4.589,4.589,0,0,1-3.221-1.046,3.787,3.787,0,0,1-1.138-2.936,6.063,6.063,0,0,1,.4-2.171,5.035,5.035,0,0,1,1.125-1.789,4.789,4.789,0,0,1,1.771-1.112,6.931,6.931,0,0,1,2.4-.387,4.535,4.535,0,0,1,3.182,1.033A3.779,3.779,0,0,1,201.623,13.744Zm-3.727,0a1.408,1.408,0,0,0-.255-.91.839.839,0,0,0-.686-.312,1.136,1.136,0,0,0-.844.374,2.569,2.569,0,0,0-.567,1.028,4.458,4.458,0,0,0-.207,1.349,1.355,1.355,0,0,0,.259.9.872.872,0,0,0,.7.3,1.311,1.311,0,0,0,1.16-.773A3.928,3.928,0,0,0,197.9,13.744ZM218.673,12a7.164,7.164,0,0,1-.193,1.529L217.329,19h-3.744l1.063-4.983a3.934,3.934,0,0,0,.141-.905.524.524,0,0,0-.6-.589,1.166,1.166,0,0,0-.672.294,2.773,2.773,0,0,0-.672.773,3.134,3.134,0,0,0-.4.98L211.545,19h-3.762l1.063-4.983a4.094,4.094,0,0,0,.149-.905.524.524,0,0,0-.6-.589,1.493,1.493,0,0,0-1.028.628,3.08,3.08,0,0,0-.721,1.419L205.718,19h-3.762l1.274-5.977q.308-1.459.527-3.023h3.683a10.141,10.141,0,0,1-.176,1.547h.035a5.53,5.53,0,0,1,1.657-1.292,3.914,3.914,0,0,1,1.762-.475,1.9,1.9,0,0,1,2.145,1.986,5.219,5.219,0,0,1,1.674-1.446,4.1,4.1,0,0,1,1.982-.541A1.931,1.931,0,0,1,218.673,12Zm6.521-4.518a1.691,1.691,0,0,1-.611,1.354,2.394,2.394,0,0,1-1.6.519,2.163,2.163,0,0,1-1.433-.461,1.444,1.444,0,0,1-.554-1.156,1.708,1.708,0,0,1,.615-1.367,2.412,2.412,0,0,1,1.617-.523,2.163,2.163,0,0,1,1.415.453A1.454,1.454,0,0,1,225.195,7.478ZM222.312,19.22a2.982,2.982,0,0,1-2.083-.694,2.372,2.372,0,0,1-.765-1.846,6.335,6.335,0,0,1,.185-1.371L220.8,10h3.744l-1.1,5.186a2.972,2.972,0,0,0-.088.686q0,.5.606.5a2.458,2.458,0,0,0,.993-.22l-.58,2.725a3.613,3.613,0,0,1-.8.233A6.462,6.462,0,0,1,222.312,19.22ZM235.5,12a7.319,7.319,0,0,1-.2,1.529L234.142,19H230.4l1.063-4.983a4.094,4.094,0,0,0,.149-.905.524.524,0,0,0-.6-.589,1.493,1.493,0,0,0-1.028.628,3.08,3.08,0,0,0-.721,1.419L228.35,19h-3.779l1.274-5.977q.308-1.459.527-3.023h3.683a10.141,10.141,0,0,1-.176,1.547h.035a5.53,5.53,0,0,1,1.657-1.292,3.914,3.914,0,0,1,1.762-.475A1.935,1.935,0,0,1,235.5,12Zm3.217,11.232a7.978,7.978,0,0,1-3.023-.606l.615-2.848a5.134,5.134,0,0,0,1.327.637,4.509,4.509,0,0,0,1.354.224,2.829,2.829,0,0,0,1.934-.6,3.217,3.217,0,0,0,.932-1.811l.141-.686h-.035a3.8,3.8,0,0,1-1.261,1.248,3.08,3.08,0,0,1-1.586.431,2.446,2.446,0,0,1-2.017-.914,3.834,3.834,0,0,1-.734-2.47,6.34,6.34,0,0,1,.813-3.217,5.236,5.236,0,0,1,2.237-2.127,7.3,7.3,0,0,1,3.3-.712,18.883,18.883,0,0,1,2.25.145,21.636,21.636,0,0,1,2.3.4l-1.529,7.233a8.945,8.945,0,0,1-1.3,3.335,5.079,5.079,0,0,1-2.237,1.753A9.141,9.141,0,0,1,238.712,23.228Zm4.43-11.013a2.654,2.654,0,0,0-.606-.053,1.968,1.968,0,0,0-1.23.435,2.961,2.961,0,0,0-.892,1.2,3.99,3.99,0,0,0-.33,1.6,1.235,1.235,0,0,0,.229.8.7.7,0,0,0,.563.277,1.4,1.4,0,0,0,1.112-.708,5.8,5.8,0,0,0,.813-2.061Zm12.287,7a2.982,2.982,0,0,1-2.083-.694,2.372,2.372,0,0,1-.765-1.846,6.335,6.335,0,0,1,.185-1.371l2.074-9.633h3.744l-2.021,9.51a2.972,2.972,0,0,0-.088.686q0,.5.606.5a2.458,2.458,0,0,0,.993-.22l-.58,2.725a3.613,3.613,0,0,1-.8.233A6.462,6.462,0,0,1,255.429,19.22Zm8.429-11.742a1.691,1.691,0,0,1-.611,1.354,2.394,2.394,0,0,1-1.6.519,2.163,2.163,0,0,1-1.433-.461,1.444,1.444,0,0,1-.554-1.156,1.708,1.708,0,0,1,.615-1.367,2.412,2.412,0,0,1,1.617-.523A2.163,2.163,0,0,1,263.3,6.3,1.454,1.454,0,0,1,263.858,7.478ZM260.975,19.22a2.982,2.982,0,0,1-2.083-.694,2.372,2.372,0,0,1-.765-1.846,6.335,6.335,0,0,1,.185-1.371L259.463,10h3.744l-1.1,5.186a2.972,2.972,0,0,0-.088.686q0,.5.606.5a2.458,2.458,0,0,0,.993-.22l-.58,2.725a3.613,3.613,0,0,1-.8.233A6.462,6.462,0,0,1,260.975,19.22Zm10.2-6.557a8.144,8.144,0,0,0-1.121-.365,4.843,4.843,0,0,0-1.2-.171q-.809,0-.809.5a.438.438,0,0,0,.2.4,3.774,3.774,0,0,0,.536.268,6.838,6.838,0,0,1,1.49.76,2.1,2.1,0,0,1,.655.8,2.781,2.781,0,0,1,.211,1.156,2.683,2.683,0,0,1-.554,1.674,3.566,3.566,0,0,1-1.608,1.129,7.164,7.164,0,0,1-2.558.4,11.318,11.318,0,0,1-1.718-.127,9.451,9.451,0,0,1-1.411-.312l.483-2.584a6.845,6.845,0,0,0,2.777.712q1.1,0,1.1-.571a.487.487,0,0,0-.242-.417,2.529,2.529,0,0,0-.611-.286,4.047,4.047,0,0,1-1.854-1.063,2.442,2.442,0,0,1-.536-1.635,2.711,2.711,0,0,1,.558-1.679,3.354,3.354,0,0,1,1.538-1.107,6.566,6.566,0,0,1,2.316-.369,11.346,11.346,0,0,1,1.5.119,11.83,11.83,0,0,1,1.336.242Zm8.068-.07h-2.021l-.519,2.443a4.562,4.562,0,0,0-.123.905q0,.536.624.536a3.58,3.58,0,0,0,1.2-.246l-.536,2.593a6.048,6.048,0,0,1-1.173.277,8.951,8.951,0,0,1-1.367.119q-2.593,0-2.593-2.452a5.52,5.52,0,0,1,.119-.94q.119-.624.672-3.234h-1.362L272.788,10h1.283l.431-2.074,3.9-.9L277.78,10h2.083Zm16.084,1.635a6.4,6.4,0,0,1-.5,2.61,4.046,4.046,0,0,1-1.415,1.758,3.564,3.564,0,0,1-2.057.624,2.755,2.755,0,0,1-2.4-1.151h-.035V23.14h-3.744V10h3.744v1.222h.035a3.171,3.171,0,0,1,1.16-1.059,3.364,3.364,0,0,1,1.617-.382,3.215,3.215,0,0,1,2.667,1.16A5.147,5.147,0,0,1,295.323,14.228Zm-3.8.114a2.346,2.346,0,0,0-.33-1.336,1.237,1.237,0,0,0-1.982.026,2.341,2.341,0,0,0-.369,1.4v.176a2.562,2.562,0,0,0,.316,1.362,1.044,1.044,0,0,0,.949.51,1.182,1.182,0,0,0,1.046-.558A2.849,2.849,0,0,0,291.526,14.342ZM301.721,19V17.629h-.035a2.944,2.944,0,0,1-2.742,1.591,2.625,2.625,0,0,1-2-.756,2.808,2.808,0,0,1-.721-2.021q0-2.654,3.261-3.076l2.232-.29a.851.851,0,0,0-.4-.721,1.8,1.8,0,0,0-1.063-.281,7,7,0,0,0-3.19.861V10.5a8.535,8.535,0,0,1,1.828-.519,10.639,10.639,0,0,1,1.881-.2,4.722,4.722,0,0,1,3.327.98,4.368,4.368,0,0,1,1.033,3.274V19Zm-2.215-3.059a.83.83,0,0,0,.233.606.888.888,0,0,0,.664.237,1.18,1.18,0,0,0,.954-.439,1.7,1.7,0,0,0,.365-1.125v-.343l-1.266.176Q299.506,15.212,299.506,15.941ZM313.6,13.208a3.6,3.6,0,0,0-1.169-.255q-1.854,0-1.854,2.145V19h-3.744V10h3.744v1.582h.035a2.81,2.81,0,0,1,.976-1.3,2.506,2.506,0,0,1,1.477-.444,1.269,1.269,0,0,1,.536.105ZM319.668,19V17.629h-.035a2.944,2.944,0,0,1-2.742,1.591,2.625,2.625,0,0,1-2-.756,2.808,2.808,0,0,1-.721-2.021q0-2.654,3.261-3.076l2.232-.29a.851.851,0,0,0-.4-.721,1.8,1.8,0,0,0-1.063-.281,7,7,0,0,0-3.19.861V10.5a8.535,8.535,0,0,1,1.828-.519,10.639,10.639,0,0,1,1.881-.2,4.722,4.722,0,0,1,3.327.98,4.368,4.368,0,0,1,1.033,3.274V19Zm-2.215-3.059a.83.83,0,0,0,.233.606.888.888,0,0,0,.664.237,1.18,1.18,0,0,0,.954-.439,1.7,1.7,0,0,0,.365-1.125v-.343l-1.266.176Q317.454,15.212,317.454,15.941ZM335.577,19V13.867q0-1.345-1.028-1.345a.871.871,0,0,0-.765.382,1.689,1.689,0,0,0-.264.98V19h-3.744V5.676h3.744v5.546h.035a3.391,3.391,0,0,1,1.173-1.068,3.063,3.063,0,0,1,1.481-.374,2.7,2.7,0,0,1,2.224.936,4.273,4.273,0,0,1,.765,2.755V19ZM350.9,14.342a4.687,4.687,0,0,1-1.375,3.577,6.355,6.355,0,0,1-7.664.031,4.546,4.546,0,0,1-1.367-3.5,4.692,4.692,0,0,1,.642-2.487,4.172,4.172,0,0,1,1.828-1.617,6.311,6.311,0,0,1,2.733-.562,6.113,6.113,0,0,1,2.773.589,4.286,4.286,0,0,1,1.8,1.635A4.452,4.452,0,0,1,350.9,14.342Zm-3.8.018q0-1.837-1.406-1.837t-1.406,1.925q0,2.03,1.424,2.03Q347.1,16.478,347.1,14.359Zm11.531,4.518a3.648,3.648,0,0,1-.835.233,7.634,7.634,0,0,1-1.4.11,3.357,3.357,0,0,1-2.448-.861,3.269,3.269,0,0,1-.883-2.452V12.593h-1.415V10h1.415V8.233l3.691-1.02V10h1.872v2.593h-1.872v2.7q0,1.187.94,1.187a2.551,2.551,0,0,0,.932-.193Zm4.395-3.313a1.265,1.265,0,0,0,.668.91,3.012,3.012,0,0,0,1.512.33,6.226,6.226,0,0,0,2.479-.5v2.373a8.908,8.908,0,0,1-3.3.545,5.214,5.214,0,0,1-3.665-1.2A4.277,4.277,0,0,1,359.4,14.7a5.467,5.467,0,0,1,.576-2.558,4.142,4.142,0,0,1,1.705-1.736,5.038,5.038,0,0,1,2.492-.628,4.9,4.9,0,0,1,2.391.545,3.63,3.63,0,0,1,1.507,1.529,4.906,4.906,0,0,1,.514,2.3v1.406Zm2.25-1.96q0-1.556-1.116-1.556a.944.944,0,0,0-.782.426,2.127,2.127,0,0,0-.369,1.129ZM369.88,19V5.676h3.744V19Zm9.615-1.564a1.634,1.634,0,0,1-.562,1.292,2.283,2.283,0,0,1-1.556.492,2.14,2.14,0,0,1-1.481-.514,1.636,1.636,0,0,1-.576-1.27,1.561,1.561,0,0,1,.567-1.252,2.639,2.639,0,0,1,3.032,0A1.551,1.551,0,0,1,379.5,17.436Z" transform="translate(600.5 1781.5)" fill="#12263f"/>
    <path id="Trazado_876052" data-name="Trazado 876052" d="M19.563,19l-4.447-6.082a14.5,14.5,0,0,1-.861-1.3H14.22q.053.932.053,2.092V19H10.757V6.4h3.586l4.263,5.783q.079.114.193.272t.229.325q.114.167.215.325a2,2,0,0,1,.154.281h.035a11.423,11.423,0,0,1-.053-1.336V6.4h3.516V19Zm11.2,0V17.611h-.035a4.926,4.926,0,0,1-.839.94,3.23,3.23,0,0,1-.844.483,2.983,2.983,0,0,1-1.094.185,2.722,2.722,0,0,1-2.25-.958,4.429,4.429,0,0,1-.773-2.83V10h3.744v5.15q0,1.327.993,1.327a.972.972,0,0,0,.822-.36,1.642,1.642,0,0,0,.277-1.02V10H34.5v9Zm-.6-10.424H27.518l2.628-2.821h3.146ZM47.97,19V13.814a1.654,1.654,0,0,0-.233-.971.876.876,0,0,0-.76-.321.949.949,0,0,0-.809.391A1.79,1.79,0,0,0,45.878,14v5H42.134V13.9q0-1.38-.94-1.38a1,1,0,0,0-.861.4,1.933,1.933,0,0,0-.29,1.147V19H36.3V10h3.744v1.424h.035a2.9,2.9,0,0,1,.672-.769,3.946,3.946,0,0,1,1.042-.633,3.235,3.235,0,0,1,1.257-.242,3.181,3.181,0,0,1,1.613.378,2.931,2.931,0,0,1,1.094,1.2,3.207,3.207,0,0,1,1.266-1.165,3.772,3.772,0,0,1,1.758-.409,2.645,2.645,0,0,1,2.171.923,4.109,4.109,0,0,1,.756,2.663V19Zm8.657-3.437a1.265,1.265,0,0,0,.668.91,3.012,3.012,0,0,0,1.512.33,6.226,6.226,0,0,0,2.479-.5v2.373a8.908,8.908,0,0,1-3.3.545,5.214,5.214,0,0,1-3.665-1.2,4.277,4.277,0,0,1-1.31-3.313,5.467,5.467,0,0,1,.576-2.558,4.142,4.142,0,0,1,1.705-1.736,5.038,5.038,0,0,1,2.492-.628,4.9,4.9,0,0,1,2.391.545,3.63,3.63,0,0,1,1.507,1.529,4.906,4.906,0,0,1,.514,2.3v1.406Zm2.25-1.96q0-1.556-1.116-1.556a.944.944,0,0,0-.782.426,2.127,2.127,0,0,0-.369,1.129Zm11.373-.4a3.6,3.6,0,0,0-1.169-.255q-1.854,0-1.854,2.145V19H63.482V10h3.744v1.582h.035a2.81,2.81,0,0,1,.976-1.3,2.506,2.506,0,0,1,1.477-.444,1.269,1.269,0,0,1,.536.105Zm11.092,1.134a4.687,4.687,0,0,1-1.375,3.577,6.355,6.355,0,0,1-7.664.031,4.546,4.546,0,0,1-1.367-3.5,4.692,4.692,0,0,1,.642-2.487,4.172,4.172,0,0,1,1.828-1.617,6.311,6.311,0,0,1,2.733-.562,6.113,6.113,0,0,1,2.773.589A4.286,4.286,0,0,1,80.713,12,4.452,4.452,0,0,1,81.342,14.342Zm-3.8.018q0-1.837-1.406-1.837t-1.406,1.925q0,2.03,1.424,2.03Q77.545,16.478,77.545,14.359ZM93.752,19V17.954h-.035a3.089,3.089,0,0,1-1.169.927,3.331,3.331,0,0,1-1.424.338,3.663,3.663,0,0,1-2.03-.567,3.443,3.443,0,0,1-1.314-1.586,6.106,6.106,0,0,1-.435-2.408,5.925,5.925,0,0,1,.519-2.54A4.059,4.059,0,0,1,89.322,10.4a3.769,3.769,0,0,1,2.109-.615,3.193,3.193,0,0,1,1.024.158,2.77,2.77,0,0,1,.817.426,1.273,1.273,0,0,1,.444.532h.035V5.676H97.5V19Zm.079-4.772a1.974,1.974,0,0,0-.356-1.257,1.2,1.2,0,0,0-1.951.11,2.593,2.593,0,0,0-.382,1.49q0,1.907,1.318,1.907a1.173,1.173,0,0,0,1-.514,2.531,2.531,0,0,0,.374-1.5Zm8.692,1.336a1.265,1.265,0,0,0,.668.91,3.012,3.012,0,0,0,1.512.33,6.226,6.226,0,0,0,2.479-.5v2.373a8.908,8.908,0,0,1-3.3.545,5.214,5.214,0,0,1-3.665-1.2A4.277,4.277,0,0,1,98.9,14.7a5.467,5.467,0,0,1,.576-2.558,4.142,4.142,0,0,1,1.705-1.736,5.038,5.038,0,0,1,2.492-.628,4.9,4.9,0,0,1,2.391.545,3.63,3.63,0,0,1,1.507,1.529,4.906,4.906,0,0,1,.514,2.3v1.406Zm2.25-1.96q0-1.556-1.116-1.556a.944.944,0,0,0-.782.426,2.127,2.127,0,0,0-.369,1.129ZM9.786,46V40.867q0-1.345-1.028-1.345a.871.871,0,0,0-.765.382,1.689,1.689,0,0,0-.264.98V46H3.985V32.676H7.729v5.546h.035a3.39,3.39,0,0,1,1.173-1.068,3.063,3.063,0,0,1,1.481-.374,2.7,2.7,0,0,1,2.224.936,4.273,4.273,0,0,1,.765,2.755V46Zm10.3,0V44.629h-.035a2.944,2.944,0,0,1-2.742,1.591,2.625,2.625,0,0,1-2-.756,2.808,2.808,0,0,1-.721-2.021q0-2.654,3.261-3.076l2.232-.29a.851.851,0,0,0-.4-.721,1.8,1.8,0,0,0-1.063-.281,7,7,0,0,0-3.19.861V37.5a8.535,8.535,0,0,1,1.828-.519,10.639,10.639,0,0,1,1.881-.2,4.722,4.722,0,0,1,3.327.98,4.368,4.368,0,0,1,1.033,3.274V46Zm-2.215-3.059a.83.83,0,0,0,.233.606.888.888,0,0,0,.664.237,1.18,1.18,0,0,0,.954-.439,1.7,1.7,0,0,0,.365-1.125v-.343l-1.266.176Q17.872,42.212,17.872,42.941Zm17.473-1.714a6.586,6.586,0,0,1-.488,2.615A3.975,3.975,0,0,1,33.472,45.6a3.486,3.486,0,0,1-2.03.62,3.2,3.2,0,0,1-1.49-.321,2.683,2.683,0,0,1-.98-.831h-.035V46H25.193V32.676h3.744v5.546h.035a3.083,3.083,0,0,1,1.191-1.055,3.567,3.567,0,0,1,1.657-.387,3.157,3.157,0,0,1,2.615,1.134A5.2,5.2,0,0,1,35.344,41.228Zm-3.8.114a2.234,2.234,0,0,0-.347-1.362A1.25,1.25,0,0,0,29.249,40a1.933,1.933,0,0,0-.382,1.244v.545a2,2,0,0,0,.343,1.23,1.094,1.094,0,0,0,.923.457,1.182,1.182,0,0,0,1.046-.558A2.849,2.849,0,0,0,31.547,41.342Zm9.167-6.768a1.608,1.608,0,0,1-.576,1.283,2.252,2.252,0,0,1-1.516.492,2.2,2.2,0,0,1-1.5-.51,1.612,1.612,0,0,1-.584-1.266,1.561,1.561,0,0,1,.567-1.252,2.639,2.639,0,0,1,3.032,0A1.551,1.551,0,0,1,40.714,34.574ZM36.75,46V37h3.744v9Zm11.883-.123a3.648,3.648,0,0,1-.835.233,7.634,7.634,0,0,1-1.4.11,3.357,3.357,0,0,1-2.448-.861,3.269,3.269,0,0,1-.883-2.452V39.593H41.655V37H43.07V35.233l3.691-1.02V37h1.872v2.593H46.761v2.7q0,1.187.94,1.187a2.551,2.551,0,0,0,.932-.193ZM54.794,46V44.629h-.035a2.944,2.944,0,0,1-2.742,1.591,2.625,2.625,0,0,1-2-.756,2.808,2.808,0,0,1-.721-2.021q0-2.654,3.261-3.076l2.232-.29a.851.851,0,0,0-.4-.721,1.8,1.8,0,0,0-1.063-.281,7,7,0,0,0-3.19.861V37.5a8.535,8.535,0,0,1,1.828-.519,10.639,10.639,0,0,1,1.881-.2,4.722,4.722,0,0,1,3.327.98,4.368,4.368,0,0,1,1.033,3.274V46ZM52.58,42.941a.83.83,0,0,0,.233.606.888.888,0,0,0,.664.237,1.18,1.18,0,0,0,.954-.439,1.7,1.7,0,0,0,.365-1.125v-.343l-1.266.176Q52.58,42.212,52.58,42.941Zm14.739,2.8a3.529,3.529,0,0,1-1.134.343,10.719,10.719,0,0,1-1.784.132,5.488,5.488,0,0,1-2.544-.576,4.2,4.2,0,0,1-1.736-1.613,4.478,4.478,0,0,1-.615-2.329,5.1,5.1,0,0,1,.655-2.65,4.268,4.268,0,0,1,1.868-1.687,6.407,6.407,0,0,1,2.813-.584,9.839,9.839,0,0,1,1.578.114,2.41,2.41,0,0,1,.9.264v2.918a2.6,2.6,0,0,0-.809-.387,3.248,3.248,0,0,0-.976-.167,2.375,2.375,0,0,0-1.666.523,1.9,1.9,0,0,0-.567,1.472,1.868,1.868,0,0,0,.558,1.446,2.177,2.177,0,0,0,1.534.514,3.82,3.82,0,0,0,1.925-.5Zm5.458-11.171a1.608,1.608,0,0,1-.576,1.283,2.252,2.252,0,0,1-1.516.492,2.2,2.2,0,0,1-1.5-.51,1.612,1.612,0,0,1-.584-1.266,1.561,1.561,0,0,1,.567-1.252,2.639,2.639,0,0,1,3.032,0A1.551,1.551,0,0,1,72.777,34.574ZM68.813,46V37h3.744v9ZM84.37,41.342a4.687,4.687,0,0,1-1.375,3.577,6.355,6.355,0,0,1-7.664.031,4.546,4.546,0,0,1-1.367-3.5A4.692,4.692,0,0,1,74.6,38.96a4.172,4.172,0,0,1,1.828-1.617,6.311,6.311,0,0,1,2.733-.562,6.113,6.113,0,0,1,2.773.589A4.286,4.286,0,0,1,83.741,39,4.452,4.452,0,0,1,84.37,41.342Zm-3.8.018q0-1.837-1.406-1.837T77.76,41.447q0,2.03,1.424,2.03Q80.573,43.478,80.573,41.359ZM91.6,46V41.087a2.184,2.184,0,0,0-.25-1.2.915.915,0,0,0-.813-.365.88.88,0,0,0-.756.378,1.613,1.613,0,0,0-.272.967V46H85.767V37h3.744v1.406h.035a3.177,3.177,0,0,1,1.2-1.2,3.29,3.29,0,0,1,1.644-.426q2.953,0,2.953,3.727V46Zm8.657-3.437a1.265,1.265,0,0,0,.668.91,3.012,3.012,0,0,0,1.512.33,6.226,6.226,0,0,0,2.479-.5v2.373a8.908,8.908,0,0,1-3.3.545,5.214,5.214,0,0,1-3.665-1.2,4.277,4.277,0,0,1-1.31-3.313,5.467,5.467,0,0,1,.576-2.558,4.142,4.142,0,0,1,1.705-1.736,5.038,5.038,0,0,1,2.492-.628,4.9,4.9,0,0,1,2.391.545,3.63,3.63,0,0,1,1.507,1.529,4.906,4.906,0,0,1,.514,2.3v1.406Zm2.25-1.96q0-1.556-1.116-1.556a.944.944,0,0,0-.782.426,2.127,2.127,0,0,0-.369,1.129Zm11.918,2.408a2.749,2.749,0,0,1-1.165,2.369,5.474,5.474,0,0,1-3.248.839,11.291,11.291,0,0,1-1.5-.123,9.257,9.257,0,0,1-1.455-.3V43.17a7.162,7.162,0,0,0,2.777.738q1.1,0,1.1-.571a.451.451,0,0,0-.255-.391,9.009,9.009,0,0,0-1.336-.514,3.773,3.773,0,0,1-1.74-1,2.382,2.382,0,0,1-.545-1.626,2.594,2.594,0,0,1,1.112-2.21,5.216,5.216,0,0,1,3.125-.813,9.931,9.931,0,0,1,2.5.343v2.522a7.549,7.549,0,0,0-1.213-.4,4.9,4.9,0,0,0-1.107-.158,1.205,1.205,0,0,0-.589.123.379.379,0,0,0-.22.343.478.478,0,0,0,.237.413,4.2,4.2,0,0,0,.949.378,4.4,4.4,0,0,1,1.978,1.037A2.272,2.272,0,0,1,114.428,43.012Z" transform="translate(270.469 1846.5)" fill="#12263f"/>
    <path id="Trazado_876053" data-name="Trazado 876053" d="M15.066,9.367v2.268h3.744v2.971H15.066V19h-3.8V6.4h7.9V9.367Zm8.824,6.2a1.265,1.265,0,0,0,.668.91,3.012,3.012,0,0,0,1.512.33,6.226,6.226,0,0,0,2.479-.5v2.373a8.908,8.908,0,0,1-3.3.545,5.214,5.214,0,0,1-3.665-1.2A4.277,4.277,0,0,1,20.27,14.7a5.467,5.467,0,0,1,.576-2.558,4.142,4.142,0,0,1,1.705-1.736,5.038,5.038,0,0,1,2.492-.628,4.9,4.9,0,0,1,2.391.545,3.63,3.63,0,0,1,1.507,1.529,4.906,4.906,0,0,1,.514,2.3v1.406Zm2.25-1.96q0-1.556-1.116-1.556a.944.944,0,0,0-.782.426,2.127,2.127,0,0,0-.369,1.129Zm12.023,5.142a3.529,3.529,0,0,1-1.134.343,10.719,10.719,0,0,1-1.784.132,5.488,5.488,0,0,1-2.544-.576,4.2,4.2,0,0,1-1.736-1.613,4.478,4.478,0,0,1-.615-2.329,5.1,5.1,0,0,1,.655-2.65,4.268,4.268,0,0,1,1.868-1.687,6.407,6.407,0,0,1,2.813-.584,9.839,9.839,0,0,1,1.578.114,2.411,2.411,0,0,1,.9.264v2.918a2.6,2.6,0,0,0-.809-.387,3.248,3.248,0,0,0-.976-.167,2.375,2.375,0,0,0-1.666.523,1.9,1.9,0,0,0-.567,1.472,1.868,1.868,0,0,0,.558,1.446,2.177,2.177,0,0,0,1.534.514,3.82,3.82,0,0,0,1.925-.5ZM45.459,19V13.867q0-1.345-1.028-1.345a.871.871,0,0,0-.765.382,1.689,1.689,0,0,0-.264.98V19H39.658V5.676H43.4v5.546h.035a3.391,3.391,0,0,1,1.173-1.068,3.063,3.063,0,0,1,1.481-.374,2.7,2.7,0,0,1,2.224.936,4.273,4.273,0,0,1,.765,2.755V19Zm10.3,0V17.629h-.035a2.944,2.944,0,0,1-2.742,1.591,2.625,2.625,0,0,1-2-.756,2.808,2.808,0,0,1-.721-2.021q0-2.654,3.261-3.076l2.232-.29a.851.851,0,0,0-.4-.721,1.8,1.8,0,0,0-1.063-.281,7,7,0,0,0-3.19.861V10.5a8.535,8.535,0,0,1,1.828-.519,10.639,10.639,0,0,1,1.881-.2,4.722,4.722,0,0,1,3.327.98,4.368,4.368,0,0,1,1.033,3.274V19Zm-2.215-3.059a.83.83,0,0,0,.233.606.888.888,0,0,0,.664.237,1.18,1.18,0,0,0,.954-.439,1.7,1.7,0,0,0,.365-1.125v-.343l-1.266.176Q53.545,15.212,53.545,15.941ZM31.089,46V44.954h-.035a3.089,3.089,0,0,1-1.169.927,3.331,3.331,0,0,1-1.424.338,3.663,3.663,0,0,1-2.03-.567,3.443,3.443,0,0,1-1.314-1.586,6.106,6.106,0,0,1-.435-2.408,5.925,5.925,0,0,1,.519-2.54A4.059,4.059,0,0,1,26.659,37.4a3.769,3.769,0,0,1,2.109-.615,3.193,3.193,0,0,1,1.024.158,2.77,2.77,0,0,1,.817.426,1.273,1.273,0,0,1,.444.532h.035V32.676h3.744V46Zm.079-4.772a1.974,1.974,0,0,0-.356-1.257,1.2,1.2,0,0,0-1.951.11,2.593,2.593,0,0,0-.382,1.49q0,1.907,1.318,1.907a1.173,1.173,0,0,0,1-.514,2.531,2.531,0,0,0,.374-1.5Zm8.692,1.336a1.265,1.265,0,0,0,.668.91,3.012,3.012,0,0,0,1.512.33,6.226,6.226,0,0,0,2.479-.5v2.373a8.908,8.908,0,0,1-3.3.545,5.214,5.214,0,0,1-3.665-1.2,4.277,4.277,0,0,1-1.31-3.313,5.467,5.467,0,0,1,.576-2.558,4.142,4.142,0,0,1,1.705-1.736,5.038,5.038,0,0,1,2.492-.628,4.9,4.9,0,0,1,2.391.545,3.63,3.63,0,0,1,1.507,1.529,4.906,4.906,0,0,1,.514,2.3v1.406Zm2.25-1.96q0-1.556-1.116-1.556a.944.944,0,0,0-.782.426,2.127,2.127,0,0,0-.369,1.129ZM6.66,61.574a1.608,1.608,0,0,1-.576,1.283,2.252,2.252,0,0,1-1.516.492,2.2,2.2,0,0,1-1.5-.51,1.612,1.612,0,0,1-.584-1.266,1.561,1.561,0,0,1,.567-1.252,2.272,2.272,0,0,1,1.516-.479,2.293,2.293,0,0,1,1.516.479A1.551,1.551,0,0,1,6.66,61.574ZM2.7,73V64H6.44v9Zm11.382,0V68.087a2.184,2.184,0,0,0-.25-1.2.915.915,0,0,0-.813-.365.88.88,0,0,0-.756.378,1.613,1.613,0,0,0-.272.967V73H8.242V64h3.744v1.406h.035a3.177,3.177,0,0,1,1.2-1.2,3.29,3.29,0,0,1,1.644-.426q2.953,0,2.953,3.727V73Zm15.188-1.257a5.116,5.116,0,0,1-1.63,4.039,6.962,6.962,0,0,1-4.759,1.446,9.93,9.93,0,0,1-1.635-.132,4.5,4.5,0,0,1-1.134-.3V73.861a5.656,5.656,0,0,0,2.663.773,3.122,3.122,0,0,0,2.013-.606,1.959,1.959,0,0,0,.756-1.608v-.554H25.5a2.909,2.909,0,0,1-1.112.984,3.23,3.23,0,0,1-1.516.369,3.4,3.4,0,0,1-2.751-1.208,5.045,5.045,0,0,1-1.011-3.335,5.964,5.964,0,0,1,.527-2.575,4.018,4.018,0,0,1,1.468-1.718,3.769,3.769,0,0,1,2.074-.6,2.6,2.6,0,0,1,2.32,1.151h.035V64h3.727Zm-3.665-3.5a2.02,2.02,0,0,0-.356-1.257,1.13,1.13,0,0,0-.945-.466,1.163,1.163,0,0,0-1.011.563,2.656,2.656,0,0,0-.378,1.5,2.6,2.6,0,0,0,.316,1.38,1.092,1.092,0,0,0,1,.51,1.161,1.161,0,0,0,1.006-.523,2.408,2.408,0,0,0,.365-1.4Zm12.234-1.037a3.6,3.6,0,0,0-1.169-.255q-1.854,0-1.854,2.145V73H31.067V64h3.744v1.582h.035a2.81,2.81,0,0,1,.976-1.3,2.506,2.506,0,0,1,1.477-.444,1.269,1.269,0,0,1,.536.105Zm4.307,2.355a1.265,1.265,0,0,0,.668.91,3.012,3.012,0,0,0,1.512.33,6.226,6.226,0,0,0,2.479-.5v2.373a8.908,8.908,0,0,1-3.3.545,5.214,5.214,0,0,1-3.665-1.2A4.277,4.277,0,0,1,38.52,68.7a5.467,5.467,0,0,1,.576-2.558A4.142,4.142,0,0,1,40.8,64.409a5.038,5.038,0,0,1,2.492-.628,4.9,4.9,0,0,1,2.391.545,3.63,3.63,0,0,1,1.507,1.529,4.906,4.906,0,0,1,.514,2.3v1.406Zm2.25-1.96q0-1.556-1.116-1.556a.944.944,0,0,0-.782.426,2.127,2.127,0,0,0-.369,1.129Zm11.918,2.408a2.749,2.749,0,0,1-1.165,2.369,5.474,5.474,0,0,1-3.248.839,11.291,11.291,0,0,1-1.5-.123,9.257,9.257,0,0,1-1.455-.3V70.17a7.162,7.162,0,0,0,2.777.738q1.1,0,1.1-.571a.451.451,0,0,0-.255-.391,9.009,9.009,0,0,0-1.336-.514,3.773,3.773,0,0,1-1.74-1,2.382,2.382,0,0,1-.545-1.626,2.594,2.594,0,0,1,1.112-2.21,5.216,5.216,0,0,1,3.125-.813,9.931,9.931,0,0,1,2.5.343v2.522a7.549,7.549,0,0,0-1.213-.4,4.9,4.9,0,0,0-1.107-.158,1.205,1.205,0,0,0-.589.123.379.379,0,0,0-.22.343.478.478,0,0,0,.237.413,4.2,4.2,0,0,0,.949.378,4.4,4.4,0,0,1,1.978,1.037A2.272,2.272,0,0,1,56.309,70.012ZM67.7,68.342a4.687,4.687,0,0,1-1.375,3.577,5.375,5.375,0,0,1-3.845,1.3,5.4,5.4,0,0,1-3.819-1.27,4.546,4.546,0,0,1-1.367-3.5,4.692,4.692,0,0,1,.642-2.487,4.172,4.172,0,0,1,1.828-1.617A6.311,6.311,0,0,1,62.5,63.78a6.113,6.113,0,0,1,2.773.589A4.286,4.286,0,0,1,67.071,66,4.452,4.452,0,0,1,67.7,68.342Zm-3.8.018q0-1.837-1.406-1.837T61.09,68.447q0,2.03,1.424,2.03Q63.9,70.478,63.9,68.359Z" transform="translate(403 1836.5)" fill="#12263f"/>
    <path id="Trazado_876054" data-name="Trazado 876054" d="M7.566,9.367v2.268h3.744v2.971H7.566V19H3.77V6.4h7.9V9.367Zm8.824,6.2a1.265,1.265,0,0,0,.668.91,3.012,3.012,0,0,0,1.512.33,6.226,6.226,0,0,0,2.479-.5v2.373a8.908,8.908,0,0,1-3.3.545,5.214,5.214,0,0,1-3.665-1.2A4.277,4.277,0,0,1,12.77,14.7a5.467,5.467,0,0,1,.576-2.558,4.142,4.142,0,0,1,1.705-1.736,5.038,5.038,0,0,1,2.492-.628,4.9,4.9,0,0,1,2.391.545,3.63,3.63,0,0,1,1.507,1.529,4.906,4.906,0,0,1,.514,2.3v1.406Zm2.25-1.96q0-1.556-1.116-1.556a.944.944,0,0,0-.782.426,2.127,2.127,0,0,0-.369,1.129Zm12.023,5.142a3.529,3.529,0,0,1-1.134.343,10.719,10.719,0,0,1-1.784.132,5.488,5.488,0,0,1-2.544-.576,4.2,4.2,0,0,1-1.736-1.613,4.478,4.478,0,0,1-.615-2.329,5.1,5.1,0,0,1,.655-2.65,4.268,4.268,0,0,1,1.868-1.687,6.407,6.407,0,0,1,2.813-.584,9.839,9.839,0,0,1,1.578.114,2.411,2.411,0,0,1,.9.264v2.918a2.6,2.6,0,0,0-.809-.387,3.248,3.248,0,0,0-.976-.167,2.375,2.375,0,0,0-1.666.523,1.9,1.9,0,0,0-.567,1.472,1.868,1.868,0,0,0,.558,1.446,2.177,2.177,0,0,0,1.534.514,3.82,3.82,0,0,0,1.925-.5ZM37.959,19V13.867q0-1.345-1.028-1.345a.871.871,0,0,0-.765.382,1.689,1.689,0,0,0-.264.98V19H32.158V5.676H35.9v5.546h.035a3.391,3.391,0,0,1,1.173-1.068,3.063,3.063,0,0,1,1.481-.374,2.7,2.7,0,0,1,2.224.936,4.273,4.273,0,0,1,.765,2.755V19Zm10.3,0V17.629h-.035a2.944,2.944,0,0,1-2.742,1.591,2.625,2.625,0,0,1-2-.756,2.808,2.808,0,0,1-.721-2.021q0-2.654,3.261-3.076l2.232-.29a.851.851,0,0,0-.4-.721,1.8,1.8,0,0,0-1.063-.281,7,7,0,0,0-3.19.861V10.5a8.535,8.535,0,0,1,1.828-.519,10.639,10.639,0,0,1,1.881-.2,4.722,4.722,0,0,1,3.327.98,4.368,4.368,0,0,1,1.033,3.274V19Zm-2.215-3.059a.83.83,0,0,0,.233.606.888.888,0,0,0,.664.237,1.18,1.18,0,0,0,.954-.439,1.7,1.7,0,0,0,.365-1.125v-.343l-1.266.176Q46.045,15.212,46.045,15.941ZM23.589,46V44.954h-.035a3.089,3.089,0,0,1-1.169.927,3.331,3.331,0,0,1-1.424.338,3.663,3.663,0,0,1-2.03-.567,3.443,3.443,0,0,1-1.314-1.586,6.106,6.106,0,0,1-.435-2.408,5.925,5.925,0,0,1,.519-2.54A4.059,4.059,0,0,1,19.159,37.4a3.769,3.769,0,0,1,2.109-.615,3.193,3.193,0,0,1,1.024.158,2.77,2.77,0,0,1,.817.426,1.273,1.273,0,0,1,.444.532h.035V32.676h3.744V46Zm.079-4.772a1.974,1.974,0,0,0-.356-1.257,1.2,1.2,0,0,0-1.951.11,2.593,2.593,0,0,0-.382,1.49q0,1.907,1.318,1.907a1.173,1.173,0,0,0,1-.514,2.531,2.531,0,0,0,.374-1.5Zm8.692,1.336a1.265,1.265,0,0,0,.668.91,3.012,3.012,0,0,0,1.512.33,6.226,6.226,0,0,0,2.479-.5v2.373a8.908,8.908,0,0,1-3.3.545,5.214,5.214,0,0,1-3.665-1.2,4.277,4.277,0,0,1-1.31-3.313,5.467,5.467,0,0,1,.576-2.558,4.142,4.142,0,0,1,1.705-1.736,5.038,5.038,0,0,1,2.492-.628,4.9,4.9,0,0,1,2.391.545,3.63,3.63,0,0,1,1.507,1.529,4.906,4.906,0,0,1,.514,2.3v1.406Zm2.25-1.96q0-1.556-1.116-1.556a.944.944,0,0,0-.782.426,2.127,2.127,0,0,0-.369,1.129ZM9.939,70.012A2.749,2.749,0,0,1,8.775,72.38a5.474,5.474,0,0,1-3.248.839,11.291,11.291,0,0,1-1.5-.123,9.257,9.257,0,0,1-1.455-.3V70.17a7.162,7.162,0,0,0,2.777.738q1.1,0,1.1-.571a.451.451,0,0,0-.255-.391,9.009,9.009,0,0,0-1.336-.514,3.773,3.773,0,0,1-1.74-1A2.382,2.382,0,0,1,2.574,66.8a2.594,2.594,0,0,1,1.112-2.21,5.216,5.216,0,0,1,3.125-.813,9.931,9.931,0,0,1,2.5.343v2.522a7.549,7.549,0,0,0-1.213-.4,4.9,4.9,0,0,0-1.107-.158,1.205,1.205,0,0,0-.589.123.379.379,0,0,0-.22.343.478.478,0,0,0,.237.413,4.2,4.2,0,0,0,.949.378,4.4,4.4,0,0,1,1.978,1.037A2.272,2.272,0,0,1,9.939,70.012ZM16.312,73V71.629h-.035a2.944,2.944,0,0,1-2.742,1.591,2.625,2.625,0,0,1-2-.756,2.808,2.808,0,0,1-.721-2.021q0-2.654,3.261-3.076l2.232-.29a.851.851,0,0,0-.4-.721,1.8,1.8,0,0,0-1.063-.281,7,7,0,0,0-3.19.861V64.5a8.535,8.535,0,0,1,1.828-.519,10.639,10.639,0,0,1,1.881-.2,4.722,4.722,0,0,1,3.327.98,4.368,4.368,0,0,1,1.033,3.274V73ZM14.1,69.941a.83.83,0,0,0,.233.606.888.888,0,0,0,.664.237,1.18,1.18,0,0,0,.954-.439,1.7,1.7,0,0,0,.365-1.125v-.343l-1.266.176Q14.1,69.212,14.1,69.941ZM21.418,73V59.676h3.744V73Zm9.51-11.426a1.608,1.608,0,0,1-.576,1.283,2.252,2.252,0,0,1-1.516.492,2.2,2.2,0,0,1-1.5-.51,1.612,1.612,0,0,1-.584-1.266,1.561,1.561,0,0,1,.567-1.252,2.639,2.639,0,0,1,3.032,0A1.551,1.551,0,0,1,30.928,61.574ZM26.964,73V64h3.744v9Zm11.558,0V71.954h-.035a3.089,3.089,0,0,1-1.169.927,3.331,3.331,0,0,1-1.424.338,3.663,3.663,0,0,1-2.03-.567,3.443,3.443,0,0,1-1.314-1.586,6.106,6.106,0,0,1-.435-2.408,5.925,5.925,0,0,1,.519-2.54A4.059,4.059,0,0,1,34.092,64.4,3.769,3.769,0,0,1,36.2,63.78a3.193,3.193,0,0,1,1.024.158,2.77,2.77,0,0,1,.817.426,1.273,1.273,0,0,1,.444.532h.035V59.676h3.744V73Zm.079-4.772a1.974,1.974,0,0,0-.356-1.257,1.2,1.2,0,0,0-1.951.11,2.593,2.593,0,0,0-.382,1.49q0,1.907,1.318,1.907a1.173,1.173,0,0,0,1-.514,2.531,2.531,0,0,0,.374-1.5ZM49.06,73V71.629h-.035a2.944,2.944,0,0,1-2.742,1.591,2.625,2.625,0,0,1-2-.756,2.808,2.808,0,0,1-.721-2.021q0-2.654,3.261-3.076l2.232-.29a.851.851,0,0,0-.4-.721,1.8,1.8,0,0,0-1.063-.281,7,7,0,0,0-3.19.861V64.5a8.535,8.535,0,0,1,1.828-.519,10.639,10.639,0,0,1,1.881-.2,4.722,4.722,0,0,1,3.327.98,4.368,4.368,0,0,1,1.033,3.274V73Zm-2.215-3.059a.83.83,0,0,0,.233.606.888.888,0,0,0,.664.237,1.18,1.18,0,0,0,.954-.439,1.7,1.7,0,0,0,.365-1.125v-.343l-1.266.176Q46.845,69.212,46.845,69.941Z" transform="translate(488 1836.5)" fill="#12263f"/>
    <path id="Trazado_876055" data-name="Trazado 876055" d="M10.046,19,5.6,12.918a14.5,14.5,0,0,1-.861-1.3H4.7q.053.932.053,2.092V19H1.239V6.4H4.825L9.088,12.18q.079.114.193.272t.229.325q.114.167.215.325a2,2,0,0,1,.154.281h.035a11.423,11.423,0,0,1-.053-1.336V6.4h3.516V19Zm15.478-4.658a4.687,4.687,0,0,1-1.375,3.577,5.375,5.375,0,0,1-3.845,1.3,5.4,5.4,0,0,1-3.819-1.27,4.546,4.546,0,0,1-1.367-3.5,4.692,4.692,0,0,1,.642-2.487,4.172,4.172,0,0,1,1.828-1.617A6.311,6.311,0,0,1,20.32,9.78a6.113,6.113,0,0,1,2.773.589A4.286,4.286,0,0,1,24.9,12,4.452,4.452,0,0,1,25.523,14.342Zm-3.8.018q0-1.837-1.406-1.837t-1.406,1.925q0,2.03,1.424,2.03Q21.727,16.478,21.727,14.359ZM38.593,19V13.814a1.654,1.654,0,0,0-.233-.971.876.876,0,0,0-.76-.321.949.949,0,0,0-.809.391A1.79,1.79,0,0,0,36.5,14v5H32.757V13.9q0-1.38-.94-1.38a1,1,0,0,0-.861.4,1.933,1.933,0,0,0-.29,1.147V19H26.921V10h3.744v1.424H30.7a2.9,2.9,0,0,1,.672-.769,3.946,3.946,0,0,1,1.042-.633,3.235,3.235,0,0,1,1.257-.242,3.181,3.181,0,0,1,1.613.378,2.931,2.931,0,0,1,1.094,1.2,3.207,3.207,0,0,1,1.266-1.165A3.772,3.772,0,0,1,39.4,9.78a2.645,2.645,0,0,1,2.171.923,4.109,4.109,0,0,1,.756,2.663V19Zm15.583-4.772a6.586,6.586,0,0,1-.488,2.615A3.975,3.975,0,0,1,52.3,18.6a3.486,3.486,0,0,1-2.03.62,3.2,3.2,0,0,1-1.49-.321,2.683,2.683,0,0,1-.98-.831h-.035V19H44.024V5.676h3.744v5.546H47.8a3.083,3.083,0,0,1,1.191-1.055,3.567,3.567,0,0,1,1.657-.387,3.157,3.157,0,0,1,2.615,1.134A5.2,5.2,0,0,1,54.176,14.228Zm-3.8.114a2.234,2.234,0,0,0-.347-1.362A1.25,1.25,0,0,0,48.081,13a1.933,1.933,0,0,0-.382,1.244v.545a2,2,0,0,0,.343,1.23,1.094,1.094,0,0,0,.923.457,1.182,1.182,0,0,0,1.046-.558A2.849,2.849,0,0,0,50.379,14.342ZM62.35,13.208a3.6,3.6,0,0,0-1.169-.255q-1.854,0-1.854,2.145V19H55.582V10h3.744v1.582h.035a2.81,2.81,0,0,1,.976-1.3,2.506,2.506,0,0,1,1.477-.444,1.269,1.269,0,0,1,.536.105Zm4.307,2.355a1.265,1.265,0,0,0,.668.91,3.012,3.012,0,0,0,1.512.33,6.226,6.226,0,0,0,2.479-.5v2.373a8.908,8.908,0,0,1-3.3.545,5.214,5.214,0,0,1-3.665-1.2,4.277,4.277,0,0,1-1.31-3.313,5.467,5.467,0,0,1,.576-2.558,4.142,4.142,0,0,1,1.705-1.736,5.038,5.038,0,0,1,2.492-.628,4.9,4.9,0,0,1,2.391.545,3.63,3.63,0,0,1,1.507,1.529,4.906,4.906,0,0,1,.514,2.3v1.406Zm2.25-1.96q0-1.556-1.116-1.556a.944.944,0,0,0-.782.426,2.127,2.127,0,0,0-.369,1.129Z" transform="translate(561 1860)" fill="#12263f"/>
    <path id="Trazado_876056" data-name="Trazado 876056" d="M9.141,19l-.554-2.32H4.825L4.228,19H.123L4.465,6.4H9.176L13.263,19ZM6.75,9.139H6.662a6.123,6.123,0,0,1-.123.694q-.105.483-1.063,4.148H7.884L7,10.554A10.84,10.84,0,0,1,6.75,9.139Zm17.8,5.089a6.4,6.4,0,0,1-.5,2.61A4.046,4.046,0,0,1,22.632,18.6a3.564,3.564,0,0,1-2.057.624,2.755,2.755,0,0,1-2.4-1.151h-.035V23.14H14.4V10h3.744v1.222h.035a3.171,3.171,0,0,1,1.16-1.059,3.364,3.364,0,0,1,1.617-.382,3.215,3.215,0,0,1,2.667,1.16A5.147,5.147,0,0,1,24.548,14.228Zm-3.8.114a2.346,2.346,0,0,0-.33-1.336,1.237,1.237,0,0,0-1.982.026,2.341,2.341,0,0,0-.369,1.4v.176a2.562,2.562,0,0,0,.316,1.362,1.044,1.044,0,0,0,.949.51,1.182,1.182,0,0,0,1.046-.558A2.849,2.849,0,0,0,20.751,14.342Zm8.429,1.222a1.265,1.265,0,0,0,.668.91,3.012,3.012,0,0,0,1.512.33,6.226,6.226,0,0,0,2.479-.5v2.373a8.908,8.908,0,0,1-3.3.545,5.214,5.214,0,0,1-3.665-1.2,4.277,4.277,0,0,1-1.31-3.313,5.467,5.467,0,0,1,.576-2.558,4.142,4.142,0,0,1,1.705-1.736,5.038,5.038,0,0,1,2.492-.628,4.9,4.9,0,0,1,2.391.545,3.63,3.63,0,0,1,1.507,1.529,4.906,4.906,0,0,1,.514,2.3v1.406Zm2.25-1.96q0-1.556-1.116-1.556a.944.944,0,0,0-.782.426,2.127,2.127,0,0,0-.369,1.129ZM36.035,19V5.676h3.744V19Zm5.546,0V5.676h3.744V19Zm9.51-11.426a1.608,1.608,0,0,1-.576,1.283A2.252,2.252,0,0,1,49,9.35a2.2,2.2,0,0,1-1.5-.51,1.612,1.612,0,0,1-.584-1.266,1.561,1.561,0,0,1,.567-1.252,2.639,2.639,0,0,1,3.032,0A1.551,1.551,0,0,1,51.091,7.574ZM47.127,19V10h3.744v9Zm11.558,0V17.954h-.035a3.089,3.089,0,0,1-1.169.927,3.331,3.331,0,0,1-1.424.338,3.663,3.663,0,0,1-2.03-.567,3.443,3.443,0,0,1-1.314-1.586,6.106,6.106,0,0,1-.435-2.408,5.925,5.925,0,0,1,.519-2.54A4.059,4.059,0,0,1,54.255,10.4a3.769,3.769,0,0,1,2.109-.615,3.193,3.193,0,0,1,1.024.158,2.77,2.77,0,0,1,.817.426,1.273,1.273,0,0,1,.444.532h.035V5.676h3.744V19Zm.079-4.772a1.974,1.974,0,0,0-.356-1.257,1.2,1.2,0,0,0-1.951.11,2.593,2.593,0,0,0-.382,1.49q0,1.907,1.318,1.907a1.173,1.173,0,0,0,1-.514,2.531,2.531,0,0,0,.374-1.5Zm15.478.114a4.687,4.687,0,0,1-1.375,3.577,6.355,6.355,0,0,1-7.664.031,4.546,4.546,0,0,1-1.367-3.5,4.692,4.692,0,0,1,.642-2.487A4.172,4.172,0,0,1,66.3,10.343a6.311,6.311,0,0,1,2.733-.562,6.113,6.113,0,0,1,2.773.589A4.286,4.286,0,0,1,73.613,12,4.452,4.452,0,0,1,74.241,14.342Zm-3.8.018q0-1.837-1.406-1.837t-1.406,1.925q0,2.03,1.424,2.03Q70.444,16.478,70.444,14.359Z" transform="translate(647 1860)" fill="#12263f"/>
    <path id="Trazado_876057" data-name="Trazado 876057" d="M11.383,19,6.936,12.918a14.5,14.5,0,0,1-.861-1.3H6.04q.053.932.053,2.092V19H2.577V6.4H6.163l4.263,5.783q.079.114.193.272t.229.325q.114.167.215.325a2,2,0,0,1,.154.281h.035a11.423,11.423,0,0,1-.053-1.336V6.4h3.516V19Zm11.2,0V17.611h-.035a4.926,4.926,0,0,1-.839.94,3.23,3.23,0,0,1-.844.483,2.983,2.983,0,0,1-1.094.185,2.722,2.722,0,0,1-2.25-.958,4.429,4.429,0,0,1-.773-2.83V10h3.744v5.15q0,1.327.993,1.327a.972.972,0,0,0,.822-.36,1.642,1.642,0,0,0,.277-1.02V10h3.744v9Zm-.6-10.424H19.337l2.628-2.821h3.146ZM39.79,19V13.814a1.654,1.654,0,0,0-.233-.971.876.876,0,0,0-.76-.321.949.949,0,0,0-.809.391A1.79,1.79,0,0,0,37.7,14v5H33.954V13.9q0-1.38-.94-1.38a1,1,0,0,0-.861.4,1.933,1.933,0,0,0-.29,1.147V19H28.118V10h3.744v1.424H31.9a2.9,2.9,0,0,1,.672-.769,3.946,3.946,0,0,1,1.042-.633,3.235,3.235,0,0,1,1.257-.242,3.181,3.181,0,0,1,1.613.378,2.931,2.931,0,0,1,1.094,1.2,3.207,3.207,0,0,1,1.266-1.165A3.772,3.772,0,0,1,40.6,9.78a2.645,2.645,0,0,1,2.171.923,4.109,4.109,0,0,1,.756,2.663V19Zm8.657-3.437a1.265,1.265,0,0,0,.668.91,3.012,3.012,0,0,0,1.512.33,6.226,6.226,0,0,0,2.479-.5v2.373a8.908,8.908,0,0,1-3.3.545,5.214,5.214,0,0,1-3.665-1.2,4.277,4.277,0,0,1-1.31-3.313,5.467,5.467,0,0,1,.576-2.558,4.142,4.142,0,0,1,1.705-1.736A5.038,5.038,0,0,1,49.6,9.78a4.9,4.9,0,0,1,2.391.545A3.63,3.63,0,0,1,53.5,11.854a4.906,4.906,0,0,1,.514,2.3v1.406ZM50.7,13.6q0-1.556-1.116-1.556a.944.944,0,0,0-.782.426,2.127,2.127,0,0,0-.369,1.129Zm11.373-.4a3.6,3.6,0,0,0-1.169-.255q-1.854,0-1.854,2.145V19H55.3V10h3.744v1.582h.035a2.81,2.81,0,0,1,.976-1.3,2.506,2.506,0,0,1,1.477-.444,1.269,1.269,0,0,1,.536.105Zm11.092,1.134a4.687,4.687,0,0,1-1.375,3.577,6.355,6.355,0,0,1-7.664.031,4.546,4.546,0,0,1-1.367-3.5A4.692,4.692,0,0,1,63.4,11.96a4.172,4.172,0,0,1,1.828-1.617,6.311,6.311,0,0,1,2.733-.562,6.113,6.113,0,0,1,2.773.589A4.286,4.286,0,0,1,72.533,12,4.452,4.452,0,0,1,73.162,14.342Zm-3.8.018q0-1.837-1.406-1.837t-1.406,1.925q0,2.03,1.424,2.03Q69.365,16.478,69.365,14.359ZM12.117,46V44.954h-.035a3.089,3.089,0,0,1-1.169.927,3.331,3.331,0,0,1-1.424.338,3.663,3.663,0,0,1-2.03-.567,3.443,3.443,0,0,1-1.314-1.586,6.106,6.106,0,0,1-.435-2.408,5.925,5.925,0,0,1,.519-2.54A4.059,4.059,0,0,1,7.688,37.4,3.769,3.769,0,0,1,9.8,36.78a3.193,3.193,0,0,1,1.024.158,2.77,2.77,0,0,1,.817.426,1.273,1.273,0,0,1,.444.532h.035V32.676h3.744V46Zm.079-4.772a1.974,1.974,0,0,0-.356-1.257,1.2,1.2,0,0,0-1.951.11,2.593,2.593,0,0,0-.382,1.49q0,1.907,1.318,1.907a1.173,1.173,0,0,0,1-.514,2.531,2.531,0,0,0,.374-1.5Zm8.692,1.336a1.265,1.265,0,0,0,.668.91,3.012,3.012,0,0,0,1.512.33,6.226,6.226,0,0,0,2.479-.5v2.373a8.908,8.908,0,0,1-3.3.545,5.214,5.214,0,0,1-3.665-1.2,4.277,4.277,0,0,1-1.31-3.313,5.467,5.467,0,0,1,.576-2.558,4.142,4.142,0,0,1,1.705-1.736,5.038,5.038,0,0,1,2.492-.628,4.9,4.9,0,0,1,2.391.545,3.63,3.63,0,0,1,1.507,1.529,4.906,4.906,0,0,1,.514,2.3v1.406Zm2.25-1.96q0-1.556-1.116-1.556a.944.944,0,0,0-.782.426,2.127,2.127,0,0,0-.369,1.129Zm20.25-3.05a4.1,4.1,0,0,1-.655,2.294A4.267,4.267,0,0,1,40.866,41.4a6.78,6.78,0,0,1-2.821.549h-1.16V46h-3.8V33.4h5.168a6.119,6.119,0,0,1,3.9,1.011A3.83,3.83,0,0,1,43.389,37.554Zm-4.017.132a1.477,1.477,0,0,0-.448-1.169,1.937,1.937,0,0,0-1.318-.4h-.721v3.111h.853Q39.372,39.232,39.372,37.686ZM52.793,46l-.554-2.32H48.478L47.88,46h-4.1l4.342-12.6h4.711L56.915,46ZM50.4,36.139h-.088a6.123,6.123,0,0,1-.123.694q-.105.483-1.063,4.148h2.408l-.879-3.428A10.84,10.84,0,0,1,50.4,36.139ZM65.326,46l-1.564-3.454a2.412,2.412,0,0,1-.2-.637q-.048-.312-.075-.514h-.035q-.053.211-.123.554a3.814,3.814,0,0,1-.2.668L61.67,46H57.152l3.779-6.284L57.5,33.4h4.588L63.3,36.728a8.113,8.113,0,0,1,.308,1.23h.035a4.994,4.994,0,0,1,.325-1.248L65.4,33.4h4.228l-3.542,6.249L69.791,46Z" transform="translate(733 1850)" fill="#12263f"/>
    <path id="Trazado_876058" data-name="Trazado 876058" d="M37.862,10.554a4.1,4.1,0,0,1-.655,2.294A4.267,4.267,0,0,1,35.34,14.4a6.78,6.78,0,0,1-2.821.549h-1.16V19h-3.8V6.4h5.168a6.119,6.119,0,0,1,3.9,1.011A3.83,3.83,0,0,1,37.862,10.554Zm-4.017.132A1.477,1.477,0,0,0,33.4,9.517a1.937,1.937,0,0,0-1.318-.4h-.721v3.111h.853Q33.846,12.232,33.846,10.686ZM39.022,19V5.676h3.744V19Zm10.538,0V17.629h-.035a2.944,2.944,0,0,1-2.742,1.591,2.625,2.625,0,0,1-2-.756,2.808,2.808,0,0,1-.721-2.021q0-2.654,3.261-3.076l2.232-.29a.851.851,0,0,0-.4-.721,1.8,1.8,0,0,0-1.063-.281,7,7,0,0,0-3.19.861V10.5a8.535,8.535,0,0,1,1.828-.519,10.639,10.639,0,0,1,1.881-.2,4.722,4.722,0,0,1,3.327.98,4.368,4.368,0,0,1,1.033,3.274V19Zm-2.215-3.059a.83.83,0,0,0,.233.606.888.888,0,0,0,.664.237,1.18,1.18,0,0,0,.954-.439,1.7,1.7,0,0,0,.365-1.125v-.343l-1.266.176Q47.346,15.212,47.346,15.941ZM60.5,19V14.087a2.184,2.184,0,0,0-.25-1.2.915.915,0,0,0-.813-.365.88.88,0,0,0-.756.378,1.613,1.613,0,0,0-.272.967V19H54.667V10h3.744v1.406h.035a3.177,3.177,0,0,1,1.2-1.2,3.29,3.29,0,0,1,1.644-.426q2.953,0,2.953,3.727V19Zm16.444,0V17.954h-.035a3.089,3.089,0,0,1-1.169.927,3.331,3.331,0,0,1-1.424.338,3.663,3.663,0,0,1-2.03-.567,3.443,3.443,0,0,1-1.314-1.586,6.106,6.106,0,0,1-.435-2.408,5.925,5.925,0,0,1,.519-2.54A4.059,4.059,0,0,1,72.518,10.4a3.769,3.769,0,0,1,2.109-.615,3.193,3.193,0,0,1,1.024.158,2.77,2.77,0,0,1,.817.426,1.273,1.273,0,0,1,.444.532h.035V5.676h3.744V19Zm.079-4.772a1.974,1.974,0,0,0-.356-1.257,1.2,1.2,0,0,0-1.951.11,2.593,2.593,0,0,0-.382,1.49q0,1.907,1.318,1.907a1.173,1.173,0,0,0,1-.514,2.531,2.531,0,0,0,.374-1.5Zm8.692,1.336a1.265,1.265,0,0,0,.668.91,3.012,3.012,0,0,0,1.512.33,6.226,6.226,0,0,0,2.479-.5v2.373a8.908,8.908,0,0,1-3.3.545,5.214,5.214,0,0,1-3.665-1.2A4.277,4.277,0,0,1,82.1,14.7a5.467,5.467,0,0,1,.576-2.558,4.142,4.142,0,0,1,1.705-1.736A5.038,5.038,0,0,1,86.87,9.78a4.9,4.9,0,0,1,2.391.545,3.63,3.63,0,0,1,1.507,1.529,4.906,4.906,0,0,1,.514,2.3v1.406Zm2.25-1.96q0-1.556-1.116-1.556a.944.944,0,0,0-.782.426A2.127,2.127,0,0,0,85.7,13.6ZM7.7,46V44.629H7.663A2.944,2.944,0,0,1,4.921,46.22a2.625,2.625,0,0,1-2-.756,2.808,2.808,0,0,1-.721-2.021q0-2.654,3.261-3.076l2.232-.29a.851.851,0,0,0-.4-.721,1.8,1.8,0,0,0-1.063-.281,7,7,0,0,0-3.19.861V37.5a8.535,8.535,0,0,1,1.828-.519,10.639,10.639,0,0,1,1.881-.2,4.722,4.722,0,0,1,3.327.98,4.368,4.368,0,0,1,1.033,3.274V46ZM5.483,42.941a.83.83,0,0,0,.233.606.888.888,0,0,0,.664.237,1.18,1.18,0,0,0,.954-.439A1.7,1.7,0,0,0,7.7,42.221v-.343l-1.266.176Q5.483,42.212,5.483,42.941ZM12.8,46V32.676h3.744V46Zm9.51-11.426a1.608,1.608,0,0,1-.576,1.283,2.252,2.252,0,0,1-1.516.492,2.2,2.2,0,0,1-1.5-.51,1.612,1.612,0,0,1-.584-1.266,1.561,1.561,0,0,1,.567-1.252,2.272,2.272,0,0,1,1.516-.479,2.293,2.293,0,0,1,1.516.479A1.551,1.551,0,0,1,22.314,34.574ZM18.351,46V37h3.744v9Zm17.218,0V40.814a1.654,1.654,0,0,0-.233-.971.876.876,0,0,0-.76-.321.949.949,0,0,0-.809.391A1.79,1.79,0,0,0,33.477,41v5H29.732V40.9q0-1.38-.94-1.38a1,1,0,0,0-.861.4,1.933,1.933,0,0,0-.29,1.147V46H23.9V37h3.744v1.424h.035a2.9,2.9,0,0,1,.672-.769,3.946,3.946,0,0,1,1.042-.633,3.235,3.235,0,0,1,1.257-.242,3.181,3.181,0,0,1,1.613.378,2.931,2.931,0,0,1,1.094,1.2,3.207,3.207,0,0,1,1.266-1.165,3.772,3.772,0,0,1,1.758-.409,2.645,2.645,0,0,1,2.171.923,4.109,4.109,0,0,1,.756,2.663V46Zm8.657-3.437a1.265,1.265,0,0,0,.668.91,3.012,3.012,0,0,0,1.512.33,6.226,6.226,0,0,0,2.479-.5v2.373a8.908,8.908,0,0,1-3.3.545,5.214,5.214,0,0,1-3.665-1.2A4.277,4.277,0,0,1,40.6,41.7a5.467,5.467,0,0,1,.576-2.558,4.142,4.142,0,0,1,1.705-1.736,5.038,5.038,0,0,1,2.492-.628,4.9,4.9,0,0,1,2.391.545,3.63,3.63,0,0,1,1.507,1.529,4.906,4.906,0,0,1,.514,2.3v1.406Zm2.25-1.96q0-1.556-1.116-1.556a.944.944,0,0,0-.782.426,2.127,2.127,0,0,0-.369,1.129ZM56.917,46V41.087a2.184,2.184,0,0,0-.25-1.2.915.915,0,0,0-.813-.365.88.88,0,0,0-.756.378,1.613,1.613,0,0,0-.272.967V46H51.081V37h3.744v1.406h.035a3.177,3.177,0,0,1,1.2-1.2,3.29,3.29,0,0,1,1.644-.426q2.953,0,2.953,3.727V46Zm11.769-.123a3.648,3.648,0,0,1-.835.233,7.634,7.634,0,0,1-1.4.11,3.357,3.357,0,0,1-2.448-.861,3.269,3.269,0,0,1-.883-2.452V39.593H61.707V37h1.415V35.233l3.691-1.02V37h1.872v2.593H66.813v2.7q0,1.187.94,1.187a2.551,2.551,0,0,0,.932-.193ZM74.847,46V44.629h-.035a2.944,2.944,0,0,1-2.742,1.591,2.625,2.625,0,0,1-2-.756,2.808,2.808,0,0,1-.721-2.021q0-2.654,3.261-3.076l2.232-.29a.851.851,0,0,0-.4-.721,1.8,1.8,0,0,0-1.063-.281,7,7,0,0,0-3.19.861V37.5a8.535,8.535,0,0,1,1.828-.519,10.639,10.639,0,0,1,1.881-.2,4.722,4.722,0,0,1,3.327.98,4.368,4.368,0,0,1,1.033,3.274V46Zm-2.215-3.059a.83.83,0,0,0,.233.606.888.888,0,0,0,.664.237,1.18,1.18,0,0,0,.954-.439,1.7,1.7,0,0,0,.365-1.125v-.343l-1.266.176Q72.632,42.212,72.632,42.941Zm14.739,2.8a3.529,3.529,0,0,1-1.134.343,10.719,10.719,0,0,1-1.784.132,5.488,5.488,0,0,1-2.544-.576,4.2,4.2,0,0,1-1.736-1.613,4.478,4.478,0,0,1-.615-2.329,5.1,5.1,0,0,1,.655-2.65,4.268,4.268,0,0,1,1.868-1.687,6.407,6.407,0,0,1,2.813-.584,9.839,9.839,0,0,1,1.578.114,2.41,2.41,0,0,1,.9.264v2.918a2.6,2.6,0,0,0-.809-.387,3.248,3.248,0,0,0-.976-.167,2.375,2.375,0,0,0-1.666.523,1.9,1.9,0,0,0-.567,1.472,1.868,1.868,0,0,0,.558,1.446,2.177,2.177,0,0,0,1.534.514,3.82,3.82,0,0,0,1.925-.5Zm5.458-11.171a1.608,1.608,0,0,1-.576,1.283,2.252,2.252,0,0,1-1.516.492,2.2,2.2,0,0,1-1.5-.51,1.612,1.612,0,0,1-.584-1.266,1.561,1.561,0,0,1,.567-1.252,2.639,2.639,0,0,1,3.032,0A1.551,1.551,0,0,1,92.829,34.574ZM88.865,46V37h3.744v9Zm15.557-4.658a4.687,4.687,0,0,1-1.375,3.577,6.355,6.355,0,0,1-7.664.031,4.546,4.546,0,0,1-1.367-3.5,4.692,4.692,0,0,1,.642-2.487,4.172,4.172,0,0,1,1.828-1.617,6.311,6.311,0,0,1,2.733-.562,6.113,6.113,0,0,1,2.773.589,4.286,4.286,0,0,1,1.8,1.635A4.452,4.452,0,0,1,104.422,41.342Zm-3.8.018q0-1.837-1.406-1.837t-1.406,1.925q0,2.03,1.424,2.03Q100.625,43.478,100.625,41.359Zm-.94-5.783H97.039l2.628-2.821h3.146ZM111.655,46V41.087a2.184,2.184,0,0,0-.25-1.2.915.915,0,0,0-.813-.365.88.88,0,0,0-.756.378,1.613,1.613,0,0,0-.272.967V46h-3.744V37h3.744v1.406h.035a3.177,3.177,0,0,1,1.2-1.2,3.29,3.29,0,0,1,1.644-.426q2.953,0,2.953,3.727V46Z" transform="translate(822 1850)" fill="#12263f"/>
    <path id="Trazado_876059" data-name="Trazado 876059" d="M16.458,12.663a6.977,6.977,0,0,1-.817,3.4,5.828,5.828,0,0,1-2.285,2.329,6.557,6.557,0,0,1-3.287.831,6.563,6.563,0,0,1-3.23-.8,5.691,5.691,0,0,1-2.263-2.259,6.659,6.659,0,0,1-.809-3.292A7.263,7.263,0,0,1,4.583,9.4,5.807,5.807,0,0,1,6.877,7.025a6.673,6.673,0,0,1,3.357-.839,6.486,6.486,0,0,1,3.239.8A5.483,5.483,0,0,1,15.68,9.284,7.192,7.192,0,0,1,16.458,12.663Zm-4.025.105a4.375,4.375,0,0,0-.6-2.452,1.867,1.867,0,0,0-1.635-.9,2.067,2.067,0,0,0-1.767.861A4.054,4.054,0,0,0,7.8,12.716a4.007,4.007,0,0,0,.628,2.4,2,2,0,0,0,1.709.861,1.957,1.957,0,0,0,1.187-.387,2.477,2.477,0,0,0,.817-1.107A4.582,4.582,0,0,0,12.432,12.769ZM28.05,14.228a6.586,6.586,0,0,1-.488,2.615A3.975,3.975,0,0,1,26.178,18.6a3.486,3.486,0,0,1-2.03.62,3.2,3.2,0,0,1-1.49-.321,2.683,2.683,0,0,1-.98-.831h-.035V19H17.9V5.676h3.744v5.546h.035a3.083,3.083,0,0,1,1.191-1.055,3.567,3.567,0,0,1,1.657-.387,3.157,3.157,0,0,1,2.615,1.134A5.2,5.2,0,0,1,28.05,14.228Zm-3.8.114a2.234,2.234,0,0,0-.347-1.362A1.25,1.25,0,0,0,21.955,13a1.933,1.933,0,0,0-.382,1.244v.545a2,2,0,0,0,.343,1.23,1.094,1.094,0,0,0,.923.457,1.182,1.182,0,0,0,1.046-.558A2.849,2.849,0,0,0,24.253,14.342Zm12.516,1.67A2.749,2.749,0,0,1,35.6,18.38a5.474,5.474,0,0,1-3.248.839,11.291,11.291,0,0,1-1.5-.123,9.257,9.257,0,0,1-1.455-.3V16.17a7.162,7.162,0,0,0,2.777.738q1.1,0,1.1-.571a.451.451,0,0,0-.255-.391,9.009,9.009,0,0,0-1.336-.514,3.773,3.773,0,0,1-1.74-1A2.382,2.382,0,0,1,29.4,12.8a2.594,2.594,0,0,1,1.112-2.21A5.216,5.216,0,0,1,33.64,9.78a9.931,9.931,0,0,1,2.5.343v2.522a7.549,7.549,0,0,0-1.213-.4,4.9,4.9,0,0,0-1.107-.158,1.205,1.205,0,0,0-.589.123.379.379,0,0,0-.22.343.478.478,0,0,0,.237.413,4.2,4.2,0,0,0,.949.378,4.4,4.4,0,0,1,1.978,1.037A2.272,2.272,0,0,1,36.769,16.012Zm4.605-.448a1.265,1.265,0,0,0,.668.91,3.012,3.012,0,0,0,1.512.33,6.226,6.226,0,0,0,2.479-.5v2.373a8.908,8.908,0,0,1-3.3.545,5.214,5.214,0,0,1-3.665-1.2,4.277,4.277,0,0,1-1.31-3.313,5.467,5.467,0,0,1,.576-2.558,4.142,4.142,0,0,1,1.705-1.736,5.038,5.038,0,0,1,2.492-.628,4.9,4.9,0,0,1,2.391.545,3.63,3.63,0,0,1,1.507,1.529,4.906,4.906,0,0,1,.514,2.3v1.406Zm2.25-1.96q0-1.556-1.116-1.556a.944.944,0,0,0-.782.426,2.127,2.127,0,0,0-.369,1.129ZM55,13.208a3.6,3.6,0,0,0-1.169-.255q-1.854,0-1.854,2.145V19H48.23V10h3.744v1.582h.035a2.81,2.81,0,0,1,.976-1.3,2.506,2.506,0,0,1,1.477-.444A1.269,1.269,0,0,1,55,9.947ZM62.635,19H58.188l-3.006-9h3.9l1.1,4.913a11.366,11.366,0,0,1,.29,1.784h.053q.018-.176.048-.36T61.879,10h3.885Zm9.018,0V17.629h-.035a2.944,2.944,0,0,1-2.742,1.591,2.625,2.625,0,0,1-2-.756,2.808,2.808,0,0,1-.721-2.021q0-2.654,3.261-3.076l2.232-.29a.851.851,0,0,0-.4-.721,1.8,1.8,0,0,0-1.063-.281,7,7,0,0,0-3.19.861V10.5a8.535,8.535,0,0,1,1.828-.519,10.639,10.639,0,0,1,1.881-.2,4.722,4.722,0,0,1,3.327.98,4.368,4.368,0,0,1,1.033,3.274V19Zm-2.215-3.059a.83.83,0,0,0,.233.606.888.888,0,0,0,.664.237,1.18,1.18,0,0,0,.954-.439,1.7,1.7,0,0,0,.365-1.125v-.343l-1.266.176Q69.438,15.212,69.438,15.941Zm14.739,2.8a3.529,3.529,0,0,1-1.134.343,10.719,10.719,0,0,1-1.784.132,5.488,5.488,0,0,1-2.544-.576,4.2,4.2,0,0,1-1.736-1.613,4.478,4.478,0,0,1-.615-2.329,5.1,5.1,0,0,1,.655-2.65,4.268,4.268,0,0,1,1.868-1.687A6.407,6.407,0,0,1,81.7,9.78a9.839,9.839,0,0,1,1.578.114,2.411,2.411,0,0,1,.9.264v2.918a2.6,2.6,0,0,0-.809-.387,3.248,3.248,0,0,0-.976-.167,2.375,2.375,0,0,0-1.666.523,1.9,1.9,0,0,0-.567,1.472,1.868,1.868,0,0,0,.558,1.446,2.177,2.177,0,0,0,1.534.514,3.82,3.82,0,0,0,1.925-.5ZM89.635,7.574a1.608,1.608,0,0,1-.576,1.283,2.252,2.252,0,0,1-1.516.492,2.2,2.2,0,0,1-1.5-.51,1.612,1.612,0,0,1-.584-1.266,1.561,1.561,0,0,1,.567-1.252,2.639,2.639,0,0,1,3.032,0A1.551,1.551,0,0,1,89.635,7.574ZM85.671,19V10h3.744v9Zm15.557-4.658a4.687,4.687,0,0,1-1.375,3.577,6.355,6.355,0,0,1-7.664.031,4.546,4.546,0,0,1-1.367-3.5,4.692,4.692,0,0,1,.642-2.487,4.172,4.172,0,0,1,1.828-1.617,6.311,6.311,0,0,1,2.733-.562,6.113,6.113,0,0,1,2.773.589A4.286,4.286,0,0,1,100.6,12,4.452,4.452,0,0,1,101.228,14.342Zm-3.8.018q0-1.837-1.406-1.837t-1.406,1.925q0,2.03,1.424,2.03Q97.431,16.478,97.431,14.359ZM108.461,19V14.087a2.184,2.184,0,0,0-.25-1.2.915.915,0,0,0-.813-.365.88.88,0,0,0-.756.378,1.613,1.613,0,0,0-.272.967V19h-3.744V10h3.744v1.406h.035a3.177,3.177,0,0,1,1.2-1.2,3.29,3.29,0,0,1,1.644-.426q2.953,0,2.953,3.727V19Zm8.657-3.437a1.265,1.265,0,0,0,.668.91,3.012,3.012,0,0,0,1.512.33,6.226,6.226,0,0,0,2.479-.5v2.373a8.908,8.908,0,0,1-3.3.545,5.214,5.214,0,0,1-3.665-1.2A4.277,4.277,0,0,1,113.5,14.7a5.467,5.467,0,0,1,.576-2.558,4.142,4.142,0,0,1,1.705-1.736,5.038,5.038,0,0,1,2.492-.628,4.9,4.9,0,0,1,2.391.545,3.63,3.63,0,0,1,1.507,1.529,4.906,4.906,0,0,1,.514,2.3v1.406Zm2.25-1.96q0-1.556-1.116-1.556a.944.944,0,0,0-.782.426A2.127,2.127,0,0,0,117.1,13.6Zm11.918,2.408a2.749,2.749,0,0,1-1.165,2.369,5.474,5.474,0,0,1-3.248.839,11.291,11.291,0,0,1-1.5-.123,9.257,9.257,0,0,1-1.455-.3V16.17a7.162,7.162,0,0,0,2.777.738q1.1,0,1.1-.571a.451.451,0,0,0-.255-.391,9.009,9.009,0,0,0-1.336-.514,3.773,3.773,0,0,1-1.74-1,2.382,2.382,0,0,1-.545-1.626,2.594,2.594,0,0,1,1.112-2.21,5.216,5.216,0,0,1,3.125-.813,9.931,9.931,0,0,1,2.5.343v2.522a7.549,7.549,0,0,0-1.213-.4,4.9,4.9,0,0,0-1.107-.158,1.205,1.205,0,0,0-.589.123.379.379,0,0,0-.22.343.478.478,0,0,0,.237.413,4.2,4.2,0,0,0,.949.378,4.4,4.4,0,0,1,1.978,1.037A2.272,2.272,0,0,1,131.287,16.012Z" transform="translate(956 1860)" fill="#12263f"/>
    <path id="Trazado_876060" data-name="Trazado 876060" d="M1.239,19V6.4h3.8V19Zm11.769,0V14.087a2.184,2.184,0,0,0-.25-1.2.915.915,0,0,0-.813-.365.88.88,0,0,0-.756.378,1.613,1.613,0,0,0-.272.967V19H7.172V10h3.744v1.406h.035a3.177,3.177,0,0,1,1.2-1.2A3.29,3.29,0,0,1,13.8,9.78q2.953,0,2.953,3.727V19ZM28.2,17.743a5.116,5.116,0,0,1-1.63,4.039,6.962,6.962,0,0,1-4.759,1.446,9.93,9.93,0,0,1-1.635-.132,4.5,4.5,0,0,1-1.134-.3V19.861a5.656,5.656,0,0,0,2.663.773,3.122,3.122,0,0,0,2.013-.606,1.959,1.959,0,0,0,.756-1.608v-.554h-.035a2.909,2.909,0,0,1-1.112.984,3.23,3.23,0,0,1-1.516.369,3.4,3.4,0,0,1-2.751-1.208,5.045,5.045,0,0,1-1.011-3.335,5.964,5.964,0,0,1,.527-2.575,4.018,4.018,0,0,1,1.468-1.718,3.769,3.769,0,0,1,2.074-.6,2.6,2.6,0,0,1,2.32,1.151h.035V10H28.2Zm-3.665-3.5a2.02,2.02,0,0,0-.356-1.257,1.13,1.13,0,0,0-.945-.466,1.163,1.163,0,0,0-1.011.563,2.656,2.656,0,0,0-.378,1.5,2.6,2.6,0,0,0,.316,1.38,1.092,1.092,0,0,0,1,.51,1.161,1.161,0,0,0,1.006-.523,2.408,2.408,0,0,0,.365-1.4Zm12.234-1.037a3.6,3.6,0,0,0-1.169-.255q-1.854,0-1.854,2.145V19H30V10h3.744v1.582h.035a2.81,2.81,0,0,1,.976-1.3,2.506,2.506,0,0,1,1.477-.444,1.269,1.269,0,0,1,.536.105Zm4.307,2.355a1.265,1.265,0,0,0,.668.91,3.012,3.012,0,0,0,1.512.33,6.226,6.226,0,0,0,2.479-.5v2.373a8.908,8.908,0,0,1-3.3.545,5.214,5.214,0,0,1-3.665-1.2A4.277,4.277,0,0,1,37.45,14.7a5.467,5.467,0,0,1,.576-2.558,4.142,4.142,0,0,1,1.705-1.736,5.038,5.038,0,0,1,2.492-.628,4.9,4.9,0,0,1,2.391.545,3.63,3.63,0,0,1,1.507,1.529,4.906,4.906,0,0,1,.514,2.3v1.406Zm2.25-1.96q0-1.556-1.116-1.556a.944.944,0,0,0-.782.426,2.127,2.127,0,0,0-.369,1.129Zm11.918,2.408a2.749,2.749,0,0,1-1.165,2.369,5.474,5.474,0,0,1-3.248.839,11.291,11.291,0,0,1-1.5-.123,9.257,9.257,0,0,1-1.455-.3V16.17a7.162,7.162,0,0,0,2.777.738q1.1,0,1.1-.571a.451.451,0,0,0-.255-.391,9.009,9.009,0,0,0-1.336-.514,3.773,3.773,0,0,1-1.74-1,2.382,2.382,0,0,1-.545-1.626,2.594,2.594,0,0,1,1.112-2.21A5.216,5.216,0,0,1,52.11,9.78a9.931,9.931,0,0,1,2.5.343v2.522a7.549,7.549,0,0,0-1.213-.4,4.9,4.9,0,0,0-1.107-.158,1.205,1.205,0,0,0-.589.123.379.379,0,0,0-.22.343.478.478,0,0,0,.237.413,4.2,4.2,0,0,0,.949.378,4.4,4.4,0,0,1,1.978,1.037A2.272,2.272,0,0,1,55.239,16.012Zm11.391-1.67a4.687,4.687,0,0,1-1.375,3.577,5.375,5.375,0,0,1-3.845,1.3,5.4,5.4,0,0,1-3.819-1.27,4.546,4.546,0,0,1-1.367-3.5,4.692,4.692,0,0,1,.642-2.487,4.172,4.172,0,0,1,1.828-1.617,6.311,6.311,0,0,1,2.733-.562,6.113,6.113,0,0,1,2.773.589A4.286,4.286,0,0,1,66,12,4.452,4.452,0,0,1,66.63,14.342Zm-3.8.018q0-1.837-1.406-1.837t-1.406,1.925q0,2.03,1.424,2.03Q62.833,16.478,62.833,14.359Zm-.94-5.783H59.247l2.628-2.821h3.146Z" transform="translate(1240.469 1864.5)" fill="#12263f"/>
    <path id="Trazado_876061" data-name="Trazado 876061" d="M39.432,9.367H35.863L33.833,19H30.019l2.03-9.633H28.524L29.148,6.4H40.056Zm8.9,4.377a5.942,5.942,0,0,1-.708,2.878,4.578,4.578,0,0,1-1.973,1.951,6.454,6.454,0,0,1-2.971.646,4.589,4.589,0,0,1-3.221-1.046,3.787,3.787,0,0,1-1.138-2.936,6.063,6.063,0,0,1,.4-2.171,5.035,5.035,0,0,1,1.125-1.789,4.789,4.789,0,0,1,1.771-1.112,6.931,6.931,0,0,1,2.4-.387,4.535,4.535,0,0,1,3.182,1.033A3.779,3.779,0,0,1,48.335,13.744Zm-3.727,0a1.408,1.408,0,0,0-.255-.91.839.839,0,0,0-.686-.312,1.136,1.136,0,0,0-.844.374,2.569,2.569,0,0,0-.567,1.028,4.458,4.458,0,0,0-.207,1.349,1.355,1.355,0,0,0,.259.9.872.872,0,0,0,.7.3,1.311,1.311,0,0,0,1.16-.773A3.928,3.928,0,0,0,44.608,13.744ZM58.425,19h-3.8q.062-1.02.141-1.477h-.035a5.614,5.614,0,0,1-1.67,1.274,4.014,4.014,0,0,1-1.749.422A1.95,1.95,0,0,1,49.117,17a7.164,7.164,0,0,1,.193-1.529L50.471,10h3.744l-1.046,4.878a4.249,4.249,0,0,0-.149.993.444.444,0,0,0,.127.312.524.524,0,0,0,.4.136,1.478,1.478,0,0,0,1.16-.655,3.747,3.747,0,0,0,.712-1.613L56.263,10h3.744l-1.2,5.651q-.167.791-.272,1.749A15.077,15.077,0,0,0,58.425,19Zm9.352-5.792h-.018a2.112,2.112,0,0,0-.958-.22,2.087,2.087,0,0,0-1.481.527,3.5,3.5,0,0,0-.857,1.811L63.689,19H59.945l1.222-5.739A32.246,32.246,0,0,0,61.729,10h3.683q-.1.853-.229,1.731h.035a4.464,4.464,0,0,1,1.121-1.477,2.2,2.2,0,0,1,1.4-.475,3.332,3.332,0,0,1,.791.114ZM11.693,36.9a2.8,2.8,0,0,0-1.547-.378,2.314,2.314,0,0,0-1.727.729,2.488,2.488,0,0,0-.708,1.8q0,1.424,1.494,1.424a3.975,3.975,0,0,0,.94-.127,3.779,3.779,0,0,0,.932-.356l-.519,2.558a5.512,5.512,0,0,1-1.384.5,6.663,6.663,0,0,1-1.446.167,3.731,3.731,0,0,1-2.747-.989,3.657,3.657,0,0,1-1-2.72,5.734,5.734,0,0,1,.76-2.9,5.42,5.42,0,0,1,2.114-2.079,6.176,6.176,0,0,1,3.05-.751,5.328,5.328,0,0,1,2.391.475Zm10.846.844a5.942,5.942,0,0,1-.708,2.878,4.578,4.578,0,0,1-1.973,1.951,6.454,6.454,0,0,1-2.971.646,4.589,4.589,0,0,1-3.221-1.046,3.787,3.787,0,0,1-1.138-2.936,6.063,6.063,0,0,1,.4-2.171,5.035,5.035,0,0,1,1.125-1.789,4.789,4.789,0,0,1,1.771-1.112,6.931,6.931,0,0,1,2.4-.387,4.535,4.535,0,0,1,3.182,1.033A3.779,3.779,0,0,1,22.539,37.744Zm-3.727,0a1.408,1.408,0,0,0-.255-.91.839.839,0,0,0-.686-.312,1.136,1.136,0,0,0-.844.374,2.569,2.569,0,0,0-.567,1.028,4.458,4.458,0,0,0-.207,1.349,1.355,1.355,0,0,0,.259.9.872.872,0,0,0,.7.3,1.311,1.311,0,0,0,1.16-.773A3.928,3.928,0,0,0,18.813,37.744ZM33.8,36a7.319,7.319,0,0,1-.2,1.529L32.444,43H28.7l1.063-4.983a4.094,4.094,0,0,0,.149-.905.524.524,0,0,0-.6-.589,1.493,1.493,0,0,0-1.028.628,3.08,3.08,0,0,0-.721,1.419L26.652,43H22.873l1.274-5.977q.308-1.459.527-3.023h3.683a10.141,10.141,0,0,1-.176,1.547h.035a5.53,5.53,0,0,1,1.657-1.292,3.914,3.914,0,0,1,1.762-.475A1.935,1.935,0,0,1,33.8,36Zm10.257,7H40.346q0-.281.132-1.6h-.035a3.71,3.71,0,0,1-3.006,1.819,2.474,2.474,0,0,1-2.043-.914,3.97,3.97,0,0,1-.734-2.549,6.187,6.187,0,0,1,.778-3.116,5.339,5.339,0,0,1,2.188-2.114,6.627,6.627,0,0,1,3.151-.747q.123,0,.611.026a2.492,2.492,0,0,1,.523.053l.905-4.184h3.727L44.4,39.836a14.167,14.167,0,0,0-.242,1.582A15.619,15.619,0,0,0,44.055,43Zm-2.61-6.785a3.424,3.424,0,0,0-.554-.053,2.078,2.078,0,0,0-1.257.4,2.836,2.836,0,0,0-.9,1.226,4.106,4.106,0,0,0-.347,1.6,1.2,1.2,0,0,0,.237.8.728.728,0,0,0,.571.277,1.379,1.379,0,0,0,1.1-.708,5.923,5.923,0,0,0,.8-2.061ZM55.252,43h-3.8q.062-1.02.141-1.477h-.035a5.614,5.614,0,0,1-1.67,1.274,4.014,4.014,0,0,1-1.749.422A1.95,1.95,0,0,1,45.944,41a7.164,7.164,0,0,1,.193-1.529L47.3,34h3.744L50,38.878a4.249,4.249,0,0,0-.149.993.444.444,0,0,0,.127.312.524.524,0,0,0,.4.136,1.478,1.478,0,0,0,1.16-.655,3.747,3.747,0,0,0,.712-1.613L53.09,34h3.744l-1.2,5.651q-.167.791-.272,1.749A15.077,15.077,0,0,0,55.252,43Zm9.738-6.1a2.8,2.8,0,0,0-1.547-.378,2.314,2.314,0,0,0-1.727.729,2.488,2.488,0,0,0-.708,1.8q0,1.424,1.494,1.424a3.975,3.975,0,0,0,.94-.127,3.779,3.779,0,0,0,.932-.356l-.519,2.558a5.512,5.512,0,0,1-1.384.5,6.663,6.663,0,0,1-1.446.167,3.731,3.731,0,0,1-2.747-.989,3.657,3.657,0,0,1-1-2.72,5.734,5.734,0,0,1,.76-2.9,5.42,5.42,0,0,1,2.114-2.079,6.176,6.176,0,0,1,3.05-.751,5.328,5.328,0,0,1,2.391.475Zm7.761-.308H70.729l-.519,2.443a4.562,4.562,0,0,0-.123.905q0,.536.624.536a3.58,3.58,0,0,0,1.2-.246l-.536,2.593a6.048,6.048,0,0,1-1.173.277,8.951,8.951,0,0,1-1.367.119q-2.593,0-2.593-2.452a5.52,5.52,0,0,1,.119-.94q.119-.624.672-3.234H65.676L66.3,34h1.283l.431-2.074,3.9-.9L71.292,34h2.083Zm10.485,1.151a5.942,5.942,0,0,1-.708,2.878,4.578,4.578,0,0,1-1.973,1.951,6.454,6.454,0,0,1-2.971.646,4.589,4.589,0,0,1-3.221-1.046,3.787,3.787,0,0,1-1.138-2.936,6.063,6.063,0,0,1,.4-2.171,5.035,5.035,0,0,1,1.125-1.789,4.789,4.789,0,0,1,1.771-1.112,6.931,6.931,0,0,1,2.4-.387,4.535,4.535,0,0,1,3.182,1.033A3.779,3.779,0,0,1,83.236,37.744Zm-3.727,0a1.408,1.408,0,0,0-.255-.91.839.839,0,0,0-.686-.312,1.136,1.136,0,0,0-.844.374,2.569,2.569,0,0,0-.567,1.028,4.458,4.458,0,0,0-.207,1.349,1.355,1.355,0,0,0,.259.9.872.872,0,0,0,.7.3,1.311,1.311,0,0,0,1.16-.773A3.928,3.928,0,0,0,79.51,37.744Zm11.9-.536h-.018a2.112,2.112,0,0,0-.958-.22,2.087,2.087,0,0,0-1.481.527,3.5,3.5,0,0,0-.857,1.811L87.323,43H83.579L84.8,37.261A32.246,32.246,0,0,0,85.363,34h3.683q-.1.853-.229,1.731h.035a4.464,4.464,0,0,1,1.121-1.477,2.2,2.2,0,0,1,1.4-.475,3.332,3.332,0,0,1,.791.114ZM26.244,69.865a10.937,10.937,0,0,1-2.232-3.516,11.583,11.583,0,0,1-.721-4.175A11.808,11.808,0,0,1,26.226,54.4h2.953a14.16,14.16,0,0,0-1.956,3.766,12.656,12.656,0,0,0-.637,4.012,12.273,12.273,0,0,0,.642,4.03A13.757,13.757,0,0,0,29.2,69.865Zm10.74-8.657a3.6,3.6,0,0,0-1.169-.255q-1.854,0-1.854,2.145V67H30.216V58H33.96v1.582H34a2.81,2.81,0,0,1,.976-1.3,2.506,2.506,0,0,1,1.477-.444,1.269,1.269,0,0,1,.536.105Zm4.307,2.355a1.265,1.265,0,0,0,.668.91,3.012,3.012,0,0,0,1.512.33,6.226,6.226,0,0,0,2.479-.5v2.373a8.908,8.908,0,0,1-3.3.545,5.214,5.214,0,0,1-3.665-1.2,4.277,4.277,0,0,1-1.31-3.313,5.467,5.467,0,0,1,.576-2.558,4.142,4.142,0,0,1,1.705-1.736,5.038,5.038,0,0,1,2.492-.628,4.9,4.9,0,0,1,2.391.545,3.63,3.63,0,0,1,1.507,1.529,4.906,4.906,0,0,1,.514,2.3v1.406Zm2.25-1.96q0-1.556-1.116-1.556a.944.944,0,0,0-.782.426,2.127,2.127,0,0,0-.369,1.129Zm11.918,2.408a2.749,2.749,0,0,1-1.165,2.369,5.474,5.474,0,0,1-3.248.839,11.291,11.291,0,0,1-1.5-.123,9.257,9.257,0,0,1-1.455-.3V64.17a7.162,7.162,0,0,0,2.777.738q1.1,0,1.1-.571a.451.451,0,0,0-.255-.391,9.009,9.009,0,0,0-1.336-.514,3.773,3.773,0,0,1-1.74-1,2.382,2.382,0,0,1-.545-1.626,2.594,2.594,0,0,1,1.112-2.21,5.216,5.216,0,0,1,3.125-.813,9.931,9.931,0,0,1,2.5.343v2.522a7.549,7.549,0,0,0-1.213-.4,4.9,4.9,0,0,0-1.107-.158,1.205,1.205,0,0,0-.589.123.379.379,0,0,0-.22.343.478.478,0,0,0,.237.413,4.2,4.2,0,0,0,.949.378,4.4,4.4,0,0,1,1.978,1.037A2.272,2.272,0,0,1,55.458,64.012ZM66.99,62.228a6.4,6.4,0,0,1-.5,2.61A4.046,4.046,0,0,1,65.074,66.6a3.564,3.564,0,0,1-2.057.624,2.755,2.755,0,0,1-2.4-1.151h-.035V71.14H56.838V58h3.744v1.222h.035a3.171,3.171,0,0,1,1.16-1.059A3.364,3.364,0,0,1,63.4,57.78a3.215,3.215,0,0,1,2.667,1.16A5.147,5.147,0,0,1,66.99,62.228Zm-3.8.114a2.346,2.346,0,0,0-.33-1.336,1.237,1.237,0,0,0-1.982.026,2.341,2.341,0,0,0-.369,1.4v.176a2.562,2.562,0,0,0,.316,1.362,1.044,1.044,0,0,0,.949.51,1.182,1.182,0,0,0,1.046-.558A2.849,2.849,0,0,0,63.193,62.342Zm9.272,3.094a1.634,1.634,0,0,1-.562,1.292,2.283,2.283,0,0,1-1.556.492,2.14,2.14,0,0,1-1.481-.514,1.636,1.636,0,0,1-.576-1.27,1.561,1.561,0,0,1,.567-1.252,2.639,2.639,0,0,1,3.032,0A1.551,1.551,0,0,1,72.465,65.436ZM27.544,89.743a5.116,5.116,0,0,1-1.63,4.039,6.962,6.962,0,0,1-4.759,1.446A9.93,9.93,0,0,1,19.52,95.1a4.5,4.5,0,0,1-1.134-.3V91.861a5.656,5.656,0,0,0,2.663.773,3.122,3.122,0,0,0,2.013-.606,1.959,1.959,0,0,0,.756-1.608v-.554h-.035a2.909,2.909,0,0,1-1.112.984,3.23,3.23,0,0,1-1.516.369A3.4,3.4,0,0,1,18.4,90.011a5.045,5.045,0,0,1-1.011-3.335A5.964,5.964,0,0,1,17.92,84.1a4.018,4.018,0,0,1,1.468-1.718,3.769,3.769,0,0,1,2.074-.6,2.6,2.6,0,0,1,2.32,1.151h.035V82h3.727Zm-3.665-3.5a2.02,2.02,0,0,0-.356-1.257,1.13,1.13,0,0,0-.945-.466,1.163,1.163,0,0,0-1.011.563,2.656,2.656,0,0,0-.378,1.5,2.6,2.6,0,0,0,.316,1.38,1.092,1.092,0,0,0,1,.51,1.161,1.161,0,0,0,1.006-.523,2.408,2.408,0,0,0,.365-1.4Zm12.234-1.037a3.6,3.6,0,0,0-1.169-.255q-1.854,0-1.854,2.145V91H29.346V82H33.09v1.582h.035a2.81,2.81,0,0,1,.976-1.3,2.506,2.506,0,0,1,1.477-.444,1.269,1.269,0,0,1,.536.105ZM42.925,91V89.611H42.89a4.926,4.926,0,0,1-.839.94,3.23,3.23,0,0,1-.844.483,2.983,2.983,0,0,1-1.094.185,2.722,2.722,0,0,1-2.25-.958,4.429,4.429,0,0,1-.773-2.83V82h3.744v5.15q0,1.327.993,1.327a.972.972,0,0,0,.822-.36,1.642,1.642,0,0,0,.277-1.02V82h3.744v9Zm15.688-4.772a6.4,6.4,0,0,1-.5,2.61A4.046,4.046,0,0,1,56.7,90.6a3.564,3.564,0,0,1-2.057.624,2.755,2.755,0,0,1-2.4-1.151h-.035V95.14H48.462V82h3.744v1.222h.035a3.171,3.171,0,0,1,1.16-1.059,3.364,3.364,0,0,1,1.617-.382,3.215,3.215,0,0,1,2.667,1.16A5.147,5.147,0,0,1,58.614,86.228Zm-3.8.114a2.346,2.346,0,0,0-.33-1.336,1.237,1.237,0,0,0-1.982.026,2.341,2.341,0,0,0-.369,1.4v.176a2.562,2.562,0,0,0,.316,1.362,1.044,1.044,0,0,0,.949.51,1.182,1.182,0,0,0,1.046-.558A2.849,2.849,0,0,0,54.817,86.342Zm15.214,0a4.687,4.687,0,0,1-1.375,3.577,5.375,5.375,0,0,1-3.845,1.3,5.4,5.4,0,0,1-3.819-1.27,4.546,4.546,0,0,1-1.367-3.5,4.692,4.692,0,0,1,.642-2.487,4.172,4.172,0,0,1,1.828-1.617,6.311,6.311,0,0,1,2.733-.562,6.113,6.113,0,0,1,2.773.589A4.286,4.286,0,0,1,69.4,84,4.452,4.452,0,0,1,70.031,86.342Zm-3.8.018q0-1.837-1.406-1.837t-1.406,1.925q0,2.03,1.424,2.03Q66.234,88.478,66.234,86.359Zm10.327-.185a11.572,11.572,0,0,1-.725,4.192,10.875,10.875,0,0,1-2.228,3.5H70.655a12.654,12.654,0,0,0,2-11.659,14.091,14.091,0,0,0-1.982-3.81h2.953A11.763,11.763,0,0,1,76.561,86.175Z" transform="translate(1106 1824)" fill="#12263f"/>
  </g>
</svg>
