<svg xmlns="http://www.w3.org/2000/svg" xmlns:xlink="http://www.w3.org/1999/xlink" width="354.298" height="312.072" viewBox="0 0 354.298 312.072">
  <defs>
    <clipPath id="clip-path">
      <rect id="Rectángulo_402574" data-name="Rectángulo 402574" width="354.298" height="312.072" fill="none"/>
    </clipPath>
    <clipPath id="clip-path-3">
      <rect id="Rectángulo_402571" data-name="Rectángulo 402571" width="354.298" height="24.897" fill="none"/>
    </clipPath>
  </defs>
  <g id="Grupo_1102506" data-name="Grupo 1102506" transform="translate(-224.051 -1968.335)">
    <g id="Grupo_1102207" data-name="Grupo 1102207" transform="translate(224.051 1968.335)">
      <g id="Grupo_1102206" data-name="Grupo 1102206" clip-path="url(#clip-path)">
        <g id="Grupo_1102205" data-name="Grupo 1102205">
          <g id="Grupo_1102204" data-name="Grupo 1102204" clip-path="url(#clip-path)">
            <g id="Grupo_1102203" data-name="Grupo 1102203" transform="translate(0 287.176)" opacity="0.5" style="mix-blend-mode: multiply;isolation: isolate">
              <g id="Grupo_1102202" data-name="Grupo 1102202">
                <g id="Grupo_1102201" data-name="Grupo 1102201" clip-path="url(#clip-path-3)">
                  <path id="Trazado_875190" data-name="Trazado 875190" d="M354.3,307.309c0,6.875-79.313,12.448-177.15,12.448S0,314.184,0,307.309s79.313-12.448,177.149-12.448,177.15,5.573,177.15,12.448" transform="translate(0 -294.86)" fill="#aad9b2"/>
                </g>
              </g>
            </g>
            <path id="Trazado_875191" data-name="Trazado 875191" d="M292.548,239.11a19.728,19.728,0,0,0,5.524,2.386c4.876,1.348,9.995,1.52,15.054,1.515,9.967-.011,19.016-.192,27.284-6.671,9.372-7.345,5.752-21.869,4.785-32.133-1.613-17.107-.677-34.34-.947-51.519a5.935,5.935,0,0,0-.3-1.823c-1.012-2.978-3.406-1.878-5.391-1.86l-16.239.142-32.382.283c-2.808.024-4.673-.821-5.227,1.938-.511,2.551.311,6.062.445,8.673.426,8.316,1.05,16.778.416,25.089-1.134,14.847-4.055,30.342.507,44.9a15.782,15.782,0,0,0,6.465,9.08" transform="translate(-7.391 -3.878)" fill="#de9935"/>
            <path id="Trazado_875192" data-name="Trazado 875192" d="M299.715,194.788q-1.645-12.47-2.593-25.02-.532-7.024-.843-14.063c-.01-.209-.594-.2-.585,0q.558,12.568,1.813,25.09t3.205,24.949q1.091,6.958,2.4,13.882c.04.214.62.186.585,0q-2.335-12.361-3.981-24.837" transform="translate(-7.706 -4.054)" fill="#0d0d0d"/>
            <path id="Trazado_875193" data-name="Trazado 875193" d="M302.911,197.136c-.054-.181-.632-.149-.565.079a59.982,59.982,0,0,1,2.163,11.373c.02.212.6.2.585,0a60.414,60.414,0,0,0-2.184-11.452" transform="translate(-7.879 -5.135)" fill="#0d0d0d"/>
            <path id="Trazado_875194" data-name="Trazado 875194" d="M334.977,158.479c-.04-.214-.62-.187-.586,0q.935,5.039,1.867,10.077c.04.215.62.187.585,0q-.932-5.039-1.866-10.077" transform="translate(-8.715 -4.126)" fill="#0d0d0d"/>
            <path id="Trazado_875195" data-name="Trazado 875195" d="M293.82,237.68a31.067,31.067,0,0,1-6.409-15.664c-.024-.214-.608-.2-.585,0a31.256,31.256,0,0,0,6.43,15.744c.125.159.687.076.565-.08" transform="translate(-7.475 -5.782)" fill="#0d0d0d"/>
            <path id="Trazado_875196" data-name="Trazado 875196" d="M317.32,154.556c-.025-.213-.609-.2-.586,0q.79,7.063,1.579,14.127c.024.213.608.2.585,0q-.787-7.063-1.578-14.127" transform="translate(-8.255 -4.024)" fill="#0d0d0d"/>
            <path id="Trazado_875197" data-name="Trazado 875197" d="M327.876,236.578c-4.014,2.443-8.5,5.138-13.4,4.378-.277-.043-.546.227-.156.287,5.122.795,9.771-1.9,13.973-4.454.283-.172-.249-.312-.414-.211" transform="translate(-8.186 -6.165)" fill="#0d0d0d"/>
            <path id="Trazado_875198" data-name="Trazado 875198" d="M330.644,190.567q-.3-3.886-.759-7.757c-.025-.213-.609-.2-.585,0a185.877,185.877,0,0,1,1.2,27.806q-.123,3.9-.413,7.784c-.015.2.571.213.585,0a185.916,185.916,0,0,0-.031-27.832" transform="translate(-8.582 -4.76)" fill="#0d0d0d"/>
            <path id="Trazado_875199" data-name="Trazado 875199" d="M335.3,211.05c-.019-.212-.6-.2-.585,0a33.642,33.642,0,0,1-.036,6.576c-.02.2.563.214.585,0a33.64,33.64,0,0,0,.036-6.576" transform="translate(-8.722 -5.496)" fill="#0d0d0d"/>
            <path id="Trazado_875200" data-name="Trazado 875200" d="M168.828,305.29a6.9,6.9,0,1,1-6.9-6.9,6.9,6.9,0,0,1,6.9,6.9" transform="translate(-4.04 -7.777)" fill="#0d0d0d"/>
            <path id="Trazado_875201" data-name="Trazado 875201" d="M165.356,305.386a3.33,3.33,0,1,1-3.33-3.33,3.33,3.33,0,0,1,3.33,3.33" transform="translate(-4.136 -7.872)" fill="#de9935"/>
            <path id="Trazado_875202" data-name="Trazado 875202" d="M161.9,290.576h5.145a2.976,2.976,0,0,1,2.577,4.464l-2.573,4.457-2.572,4.456a2.976,2.976,0,0,1-5.155,0l-2.572-4.456-2.573-4.457a2.976,2.976,0,0,1,2.577-4.464Z" transform="translate(-4.008 -7.573)" fill="#0d0d0d"/>
            <path id="Trazado_875203" data-name="Trazado 875203" d="M268.627,305.29a6.9,6.9,0,1,1-6.9-6.9,6.9,6.9,0,0,1,6.9,6.9" transform="translate(-6.641 -7.777)" fill="#0d0d0d"/>
            <path id="Trazado_875204" data-name="Trazado 875204" d="M265.155,305.386a3.33,3.33,0,1,1-3.33-3.33,3.33,3.33,0,0,1,3.33,3.33" transform="translate(-6.737 -7.872)" fill="#de9935"/>
            <path id="Trazado_875205" data-name="Trazado 875205" d="M261.7,290.576h5.145a2.976,2.976,0,0,1,2.578,4.464l-2.573,4.457-2.573,4.456a2.976,2.976,0,0,1-5.155,0l-2.573-4.456-2.571-4.457a2.976,2.976,0,0,1,2.576-4.464Z" transform="translate(-6.608 -7.573)" fill="#0d0d0d"/>
            <path id="Trazado_875206" data-name="Trazado 875206" d="M150.159,253.73H143.8a13.545,13.545,0,0,1-13.546-13.545V148.921h19.908Z" transform="translate(-3.395 -3.881)" fill="#ddc773"/>
            <path id="Trazado_875207" data-name="Trazado 875207" d="M272.189,286.528h-121.5V149.221h123.84Z" transform="translate(-3.927 -3.889)" fill="#ddc773"/>
            <path id="Trazado_875208" data-name="Trazado 875208" d="M150.778,287.515h0a2.2,2.2,0,0,1-2.193-2.2c.05-58.782.086-170.678-.133-174.394a2.2,2.2,0,0,1,4.349-.6c.291,1.748.22,122.963.176,175a2.2,2.2,0,0,1-2.2,2.194M148.452,110.94c0,.048.011.083.015.105q-.009-.053-.015-.105" transform="translate(-3.868 -2.827)" fill="#0d0d0d"/>
            <path id="Trazado_875209" data-name="Trazado 875209" d="M274.253,149.675c.044,38.828.018,98.813-.015,136.717a2.2,2.2,0,0,0,2.194,2.2h0a2.2,2.2,0,0,0,2.2-2.194c.028-33.649.068-96.225.014-136.72Z" transform="translate(-7.147 -3.901)" fill="#0d0d0d"/>
            <path id="Trazado_875210" data-name="Trazado 875210" d="M344.252,292.188H143.269a2.2,2.2,0,1,1,0-4.392H344.252a2.2,2.2,0,0,1,0,4.392" transform="translate(-3.677 -7.5)" fill="#0d0d0d"/>
            <path id="Trazado_875211" data-name="Trazado 875211" d="M343.907,151.207H130.042a2.2,2.2,0,1,1,0-4.391H343.907a2.2,2.2,0,0,1,0,4.391" transform="translate(-3.332 -3.826)" fill="#0d0d0d"/>
            <path id="Trazado_875212" data-name="Trazado 875212" d="M273.968,197.531H152.006a1.464,1.464,0,0,1,0-2.928H273.968a1.464,1.464,0,1,1,0,2.928" transform="translate(-3.923 -5.072)" fill="#0d0d0d"/>
            <path id="Trazado_875213" data-name="Trazado 875213" d="M273.063,244.524H152a1.464,1.464,0,1,1,0-2.928H273.063a1.464,1.464,0,0,1,0,2.928" transform="translate(-3.923 -6.296)" fill="#0d0d0d"/>
            <path id="Trazado_875214" data-name="Trazado 875214" d="M156.706,115.586h-8.929a2.2,2.2,0,1,1,0-4.391h8.929a2.2,2.2,0,0,1,0,4.391" transform="translate(-3.794 -2.898)" fill="#0d0d0d"/>
            <path id="Trazado_875215" data-name="Trazado 875215" d="M266.078,241.333h-43.33a3.22,3.22,0,0,1,0-6.441h43.33a3.22,3.22,0,1,1,0,6.441" transform="translate(-5.721 -6.122)" fill="#fff"/>
            <path id="Trazado_875216" data-name="Trazado 875216" d="M266.078,234.72h-43.33a3.22,3.22,0,0,1,0-6.441h43.33a3.22,3.22,0,1,1,0,6.441" transform="translate(-5.721 -5.949)" fill="#fff"/>
            <path id="Trazado_875217" data-name="Trazado 875217" d="M266.078,228.107h-43.33a3.22,3.22,0,0,1,0-6.441h43.33a3.22,3.22,0,1,1,0,6.441" transform="translate(-5.721 -5.777)" fill="#fff"/>
            <path id="Trazado_875218" data-name="Trazado 875218" d="M266.078,221.493h-43.33a3.22,3.22,0,0,1,0-6.441h43.33a3.22,3.22,0,1,1,0,6.441" transform="translate(-5.721 -5.605)" fill="#fff"/>
            <path id="Trazado_875219" data-name="Trazado 875219" d="M266.078,214.88h-43.33a3.22,3.22,0,0,1,0-6.441h43.33a3.22,3.22,0,1,1,0,6.441" transform="translate(-5.721 -5.432)" fill="#fff"/>
            <path id="Trazado_875220" data-name="Trazado 875220" d="M265.368,214.79h-41.76c-.351,0-.354.3,0,.3h41.76c.351,0,.354-.3,0-.3" transform="translate(-5.821 -5.598)" fill="#aad9b2"/>
            <path id="Trazado_875221" data-name="Trazado 875221" d="M265.368,221.7h-41.76c-.351,0-.354.3,0,.3h41.76c.351,0,.354-.3,0-.3" transform="translate(-5.821 -5.778)" fill="#aad9b2"/>
            <path id="Trazado_875222" data-name="Trazado 875222" d="M265.368,228.317h-41.76c-.351,0-.354.3,0,.3h41.76c.351,0,.354-.3,0-.3" transform="translate(-5.821 -5.95)" fill="#aad9b2"/>
            <path id="Trazado_875223" data-name="Trazado 875223" d="M265.368,234.63h-41.76c-.351,0-.354.3,0,.3h41.76c.351,0,.354-.3,0-.3" transform="translate(-5.821 -6.115)" fill="#aad9b2"/>
            <path id="Trazado_875224" data-name="Trazado 875224" d="M264.265,194.353H216.544a4.831,4.831,0,0,1,0-9.661h47.721a4.831,4.831,0,1,1,0,9.661" transform="translate(-5.518 -4.813)" fill="#fff"/>
            <path id="Trazado_875225" data-name="Trazado 875225" d="M264.265,184.432H216.544a4.831,4.831,0,0,1,0-9.661h47.721a4.831,4.831,0,1,1,0,9.661" transform="translate(-5.518 -4.555)" fill="#fff"/>
            <path id="Trazado_875226" data-name="Trazado 875226" d="M265.379,184.4H216.344c-.351,0-.355.3,0,.3h49.035c.351,0,.354-.3,0-.3" transform="translate(-5.631 -4.806)" fill="#aad9b2"/>
            <path id="Trazado_875227" data-name="Trazado 875227" d="M209.857,287.538H162.136a4.831,4.831,0,1,1,0-9.661h47.721a4.831,4.831,0,1,1,0,9.661" transform="translate(-4.1 -7.242)" fill="#fff"/>
            <path id="Trazado_875228" data-name="Trazado 875228" d="M209.857,277.618H162.136a4.831,4.831,0,0,1,0-9.661h47.721a4.831,4.831,0,0,1,0,9.661" transform="translate(-4.1 -6.983)" fill="#fff"/>
            <path id="Trazado_875229" data-name="Trazado 875229" d="M210.809,269.455h-50.8c-1.233-1.757-2.707-3.231-2.707-5.049V261.33a3.292,3.292,0,0,1,3.292-3.292h50.8a3.292,3.292,0,0,1,3.293,3.292v3.077c0,1.818-1.475,3.292-3.878,5.049" transform="translate(-4.1 -6.725)" fill="#fff"/>
            <path id="Trazado_875230" data-name="Trazado 875230" d="M210.97,277.583H161.935c-.352,0-.355.3,0,.3H210.97c.351,0,.354-.3,0-.3" transform="translate(-4.213 -7.234)" fill="#aad9b2"/>
            <path id="Trazado_875231" data-name="Trazado 875231" d="M210.97,268.866H161.935c-.352,0-.355.3,0,.3H210.97c.351,0,.354-.3,0-.3" transform="translate(-4.213 -7.007)" fill="#aad9b2"/>
            <path id="Trazado_875232" data-name="Trazado 875232" d="M264.438,287.327H244.732c-5.458,0-11.117.4-16.528-.255a2.388,2.388,0,0,1-1.825-.992,3.642,3.642,0,0,1,.076-2.931,2.645,2.645,0,0,1,1.928-1.709,2.883,2.883,0,0,1-.514-5.547,3.378,3.378,0,0,1,1.853-6.132h34.715a5.908,5.908,0,0,1,5.908,5.908v5.749a5.908,5.908,0,0,1-5.908,5.909" transform="translate(-5.89 -7.03)" fill="#fff"/>
            <path id="Trazado_875233" data-name="Trazado 875233" d="M268.284,278.9a5.863,5.863,0,0,0-2.086-2.758,6.731,6.731,0,0,0-3.425-.865c-1.444-.058-2.9-.021-4.341.008-3.006.061-6.008.211-9.009.375s-6,.341-9.009.456c-1.5.057-3,.1-4.506.116-1.466.017-2.94.035-4.4-.087a18.35,18.35,0,0,1-2.159-.3c-.277-.057-.54.208-.156.287a37.585,37.585,0,0,0,8.389.374c2.884-.065,5.767-.209,8.647-.367s5.762-.326,8.645-.441c1.453-.057,2.906-.1,4.36-.123a40.268,40.268,0,0,1,4.072.038,4.654,4.654,0,0,1,3.313,1.5,6.048,6.048,0,0,1,1.474,3.407,3.579,3.579,0,0,1-1.806,3,8.931,8.931,0,0,1-3.084,1.362,29.548,29.548,0,0,1-7.3.5q-4.337-.025-8.671-.259c-5.751-.313-11.478-.954-17.206-1.544l-2.139-.22c-.274-.028-.549.247-.155.287,5.911.609,11.821,1.291,17.753,1.671q4.473.286,8.958.349a45.268,45.268,0,0,0,7.818-.275c2.142-.346,4.575-1.176,5.886-3.028a3.527,3.527,0,0,0,.144-3.458" transform="translate(-5.93 -7.173)" fill="#aad9b2"/>
            <path id="Trazado_875234" data-name="Trazado 875234" d="M264.948,279.952c-.06-.279-.469-.382-.7-.459a6.508,6.508,0,0,0-1.394-.255c-1-.105-2.009-.167-3.016-.195-2.11-.061-4.221.021-6.328.13-4.729.243-9.458.521-14.184.8-.347.021-.356.32,0,.3q5.937-.351,11.877-.676a65.2,65.2,0,0,1,11.884-.025c.277.036,1.3.115,1.261.528-.014.139-.249.318-.361.4a1.906,1.906,0,0,1-.6.281,11.173,11.173,0,0,1-2.557.213l-5.93.255c-3.952.169-7.9.366-11.859.472a104.285,104.285,0,0,1-13.422-.363c-.275-.028-.55.247-.156.287,8.378.859,16.83.272,25.219-.089l6.22-.267a14.4,14.4,0,0,0,2.582-.2,2.7,2.7,0,0,0,.911-.368c.209-.139.625-.467.56-.768" transform="translate(-5.975 -7.272)" fill="#aad9b2"/>
            <path id="Trazado_875235" data-name="Trazado 875235" d="M203.468,241.113H179.73c-6.574,0-13.39.347-19.908-.221a3.283,3.283,0,0,1-2.2-.86,2.367,2.367,0,0,1,.092-2.542,3.059,3.059,0,0,1,2.323-1.482,3.124,3.124,0,0,1-2.874-2.233,2.666,2.666,0,0,1,2.256-2.575c-3.221-1.541-1.636-5.318,2.232-5.318h41.817c3.93,0,7.117,2.294,7.117,5.123v4.986c0,2.829-3.186,5.123-7.117,5.123" transform="translate(-4.096 -5.887)" fill="#fff"/>
            <path id="Trazado_875236" data-name="Trazado 875236" d="M208.1,233.806a5.651,5.651,0,0,0-2.514-2.392,10.689,10.689,0,0,0-4.126-.75c-1.739-.051-3.49-.018-5.228.007-3.621.054-7.237.183-10.854.325s-7.231.3-10.852.4q-2.713.075-5.428.1c-1.767.014-3.541.03-5.3-.075-.874-.053-1.741-.137-2.6-.265-.333-.05-.651.181-.188.249a62.658,62.658,0,0,0,10.106.324c3.474-.056,6.946-.182,10.416-.318s6.939-.282,10.412-.383q2.627-.075,5.253-.106c1.626-.018,3.281-.068,4.9.032a6.746,6.746,0,0,1,3.991,1.3,4.671,4.671,0,0,1,1.775,2.954c.075,1.141-.962,1.972-2.176,2.6a13.147,13.147,0,0,1-3.714,1.181,49.255,49.255,0,0,1-8.8.433q-5.224-.02-10.444-.225c-6.929-.271-13.826-.827-20.725-1.338l-2.576-.191c-.33-.024-.662.214-.188.249,7.12.528,14.24,1.12,21.386,1.449q5.388.248,10.792.3a75.506,75.506,0,0,0,9.416-.238c2.58-.3,5.512-1.02,7.09-2.626a2.337,2.337,0,0,0,.173-3" transform="translate(-4.144 -6.011)" fill="#aad9b2"/>
            <path id="Trazado_875237" data-name="Trazado 875237" d="M204.082,234.718c-.073-.242-.566-.33-.845-.4a10.662,10.662,0,0,0-1.679-.221c-1.208-.092-2.42-.144-3.634-.169-2.541-.053-5.084.019-7.622.112q-8.545.317-17.087.694c-.417.018-.43.277,0,.259q7.153-.305,14.308-.586a108.856,108.856,0,0,1,14.315-.021c.333.03,1.568.1,1.519.457-.017.121-.3.276-.436.347a2.7,2.7,0,0,1-.728.244,18.5,18.5,0,0,1-3.081.185l-7.143.221c-4.761.147-9.521.318-14.285.41-5.392.1-10.8.081-16.168-.316-.33-.024-.661.214-.188.249,10.093.745,20.273.236,30.38-.077l7.492-.232a23.758,23.758,0,0,0,3.11-.174,4.093,4.093,0,0,0,1.1-.318c.252-.122.753-.405.674-.666" transform="translate(-4.198 -6.096)" fill="#aad9b2"/>
            <path id="Trazado_875238" data-name="Trazado 875238" d="M203.468,225.474H179.73c-6.574,0-13.39.347-19.908-.221a3.288,3.288,0,0,1-2.2-.86,2.367,2.367,0,0,1,.092-2.542,3.059,3.059,0,0,1,2.323-1.482,3.124,3.124,0,0,1-2.874-2.233,2.667,2.667,0,0,1,2.256-2.576c-3.221-1.54-1.636-5.317,2.232-5.317h41.817c3.93,0,7.117,2.294,7.117,5.123v4.986c0,2.829-3.186,5.123-7.117,5.123" transform="translate(-4.096 -5.479)" fill="#fff"/>
            <path id="Trazado_875239" data-name="Trazado 875239" d="M208.1,218.167a5.646,5.646,0,0,0-2.514-2.392,10.689,10.689,0,0,0-4.126-.75c-1.739-.051-3.49-.018-5.228.007-3.621.054-7.237.183-10.854.325s-7.231.3-10.852.4q-2.713.075-5.428.1c-1.767.015-3.541.031-5.3-.075-.874-.052-1.741-.137-2.6-.265-.333-.049-.651.181-.188.25a62.77,62.77,0,0,0,10.106.324c3.474-.056,6.946-.182,10.416-.318s6.939-.283,10.412-.383q2.627-.075,5.253-.106c1.626-.018,3.281-.068,4.9.032a6.739,6.739,0,0,1,3.991,1.3,4.669,4.669,0,0,1,1.775,2.953c.075,1.142-.962,1.973-2.176,2.6a13.146,13.146,0,0,1-3.714,1.18,49.256,49.256,0,0,1-8.8.434q-5.224-.02-10.444-.225c-6.929-.271-13.826-.827-20.725-1.338l-2.576-.192c-.33-.023-.662.215-.188.25,7.12.528,14.24,1.12,21.386,1.449q5.388.248,10.792.3a75.692,75.692,0,0,0,9.416-.238c2.58-.3,5.512-1.02,7.09-2.626a2.337,2.337,0,0,0,.173-3" transform="translate(-4.144 -5.603)" fill="#aad9b2"/>
            <path id="Trazado_875240" data-name="Trazado 875240" d="M204.082,219.078c-.073-.242-.566-.331-.845-.4a10.66,10.66,0,0,0-1.679-.222c-1.208-.091-2.42-.144-3.634-.168-2.541-.054-5.084.018-7.622.112q-8.545.317-17.087.694c-.417.018-.43.278,0,.259q7.153-.305,14.308-.586a109.025,109.025,0,0,1,14.315-.022c.333.031,1.568.1,1.519.458-.017.121-.3.276-.436.347a2.7,2.7,0,0,1-.728.244,18.5,18.5,0,0,1-3.081.185l-7.143.221c-4.761.147-9.521.318-14.285.41-5.392.1-10.8.081-16.168-.316-.33-.024-.661.214-.188.249,10.093.745,20.273.236,30.38-.077l7.492-.232a23.758,23.758,0,0,0,3.11-.174,4.058,4.058,0,0,0,1.1-.319c.252-.121.753-.405.674-.665" transform="translate(-4.198 -5.689)" fill="#aad9b2"/>
            <path id="Trazado_875241" data-name="Trazado 875241" d="M203.612,225.791H163.387c-.352,0-.355.3,0,.3h40.225c.351,0,.354-.3,0-.3" transform="translate(-4.251 -5.884)" fill="#aad9b2"/>
            <path id="Trazado_875242" data-name="Trazado 875242" d="M200.181,194.479H161.043a2.488,2.488,0,1,1,0-4.977h39.138a2.488,2.488,0,1,1,0,4.977" transform="translate(-4.132 -4.939)" fill="#fff"/>
            <path id="Trazado_875243" data-name="Trazado 875243" d="M200.181,189.368H161.043a2.488,2.488,0,1,1,0-4.977h39.138a2.488,2.488,0,1,1,0,4.977" transform="translate(-4.132 -4.806)" fill="#fff"/>
            <path id="Trazado_875244" data-name="Trazado 875244" d="M200.181,184.258H161.043a2.488,2.488,0,1,1,0-4.977h39.138a2.488,2.488,0,1,1,0,4.977" transform="translate(-4.132 -4.672)" fill="#fff"/>
            <path id="Trazado_875245" data-name="Trazado 875245" d="M198.5,184.039h-35.73c-.351,0-.354.3,0,.3H198.5c.351,0,.355-.3,0-.3" transform="translate(-4.235 -4.796)" fill="#aad9b2"/>
            <path id="Trazado_875246" data-name="Trazado 875246" d="M199.246,189.412H162.619c-.351,0-.354.3,0,.3h36.627c.351,0,.354-.3,0-.3" transform="translate(-4.231 -4.936)" fill="#aad9b2"/>
            <path id="Trazado_875247" data-name="Trazado 875247" d="M263.416,119.695c-3.518,2.7-7.462,2.615-11.431,3.892-3.618,1.166-7.811,1.1-11.566.823-3.68-.268-7.618-.966-11.26-.522-4.064.495-8.315.377-12.408.488q-12.169.332-24.347.084a19.465,19.465,0,0,1-7.008-1.049,47.821,47.821,0,0,1-7.065-3.24,20.192,20.192,0,0,1-7.559-7.2c-2.435-4.279,5.274-6.462,8.182-7.57a135.738,135.738,0,0,1,15.471-4.529c6.341-1.587,12.8-3.185,19.324-2.841,1.617.085,3.226.289,4.833.493a109.372,109.372,0,0,1,11.441,1.614c3.085.726,6.106,1.7,9.122,2.679a209.5,209.5,0,0,1,19.838,7.163c4.175,1.833,9.9,5.517,4.433,9.717" transform="translate(-4.438 -2.554)" fill="#fff"/>
            <path id="Trazado_875248" data-name="Trazado 875248" d="M268.746,134.095c-.1-1.255-1.19-2.184-2.25-2.864-4.5-2.894-9.879-4-15.122-5.044l-10.762-2.151c-1.664-.332-3.2-.966-4.8-1.4-1.936-.52-3.888-1-5.84-1.461a109.591,109.591,0,0,0-11.441-1.613c-1.606-.2-3.215-.408-4.833-.493-6.527-.344-12.983,1.254-19.324,2.84-6.461,1.617-12.921,3.958-19.542,4.805a23.667,23.667,0,0,0-5.324.959,1.984,1.984,0,0,0-.85.515,1.709,1.709,0,0,0-.347.886,6.974,6.974,0,0,0,1.369,4.407A57.873,57.873,0,0,0,177.5,143.7a12.139,12.139,0,0,0,3.184,2.393h70.626a32.329,32.329,0,0,0,6.129-3.169c1.742-1.067,3.487-2.134,5.19-3.262q.7-.462,1.384-.938c1.385-.961,4.886-2.73,4.73-4.628" transform="translate(-4.385 -3.102)" fill="#fff"/>
            <path id="Trazado_875249" data-name="Trazado 875249" d="M245.63,125.079a111.6,111.6,0,0,0-22.569-.95c-7.58.3-15.152.918-22.741.927a98.427,98.427,0,0,1-12.686-.727c-.148-.019-.468-.017-.54.156s.181.259.307.276a129.24,129.24,0,0,0,22.639.47c7.569-.359,15.14-.933,22.723-.8a87.662,87.662,0,0,1,12.633,1.074c.147.024.471.014.541-.156s-.182-.255-.307-.276" transform="translate(-4.876 -3.231)" fill="#de9935"/>
            <path id="Trazado_875250" data-name="Trazado 875250" d="M192.843,136.251c-5.73-.306-11.557-.625-17.071-2.341a30.355,30.355,0,0,1-4.563-1.826.718.718,0,0,0-.62,0c-.152.087-.168.233,0,.317,5.337,2.669,11.314,3.551,17.2,3.991,1.682.125,3.366.218,5.05.308.13.007.439-.045.439-.224s-.317-.218-.439-.224" transform="translate(-4.443 -3.44)" fill="#eaddaa"/>
            <path id="Trazado_875251" data-name="Trazado 875251" d="M264.143,134.735c-.069-.168-.4-.176-.54-.157a32.054,32.054,0,0,1-5.06.227c-1.688-.022-3.376-.043-5.064-.041q-5.119.006-10.234.207-5.065.2-10.119.589c-3.423.264-6.836.625-10.255.938a89.63,89.63,0,0,1-11.443.461c-.131,0-.439.044-.439.224s.317.22.439.224c6.853.251,13.669-.737,20.483-1.3s13.645-.857,20.479-.892c1.932-.011,3.864,0,5.8.031a35.407,35.407,0,0,0,5.648-.237c.13-.018.379-.1.307-.276" transform="translate(-5.499 -3.507)" fill="#eaddaa"/>
            <path id="Trazado_875252" data-name="Trazado 875252" d="M199.57,111.922c-.069-.169-.4-.176-.541-.157-6.82.947-13.756,1.731-20.641,1.032a43.126,43.126,0,0,1-5.779-.973c-.169-.041-.471-.07-.6.08s0,.269.158.307c6.919,1.672,14.094,1.488,21.124.735,2-.213,3.986-.473,5.973-.749.13-.018.379-.1.307-.276" transform="translate(-4.482 -2.913)" fill="#eaddaa"/>
            <path id="Trazado_875253" data-name="Trazado 875253" d="M233.057,113.566a48.4,48.4,0,0,0-13.764-2.018c-1.334,0-2.667.057-4,.165-.131.01-.377.1-.307.275s.4.168.541.157a46.815,46.815,0,0,1,17.084,1.809c.164.049.475.065.6-.08s0-.261-.158-.307" transform="translate(-5.603 -2.907)" fill="#eaddaa"/>
            <path id="Trazado_875254" data-name="Trazado 875254" d="M263.562,115.268c-3.285.546-6.633,1.1-9.959.582-.147-.022-.47-.014-.541.157s.182.256.307.276a31.059,31.059,0,0,0,9.795-.478c.017.229.8.272.88-.036.024-.094.049-.19.074-.284.056-.215-.471-.231-.556-.216" transform="translate(-6.595 -3.004)" fill="#eaddaa"/>
            <path id="Trazado_875255" data-name="Trazado 875255" d="M289.87,253.228l3.513,33.668h40.109L337,253.228Z" transform="translate(-7.554 -6.6)" fill="#b09ecb"/>
            <rect id="Rectángulo_402572" data-name="Rectángulo 402572" width="50.941" height="5.855" transform="translate(280.412 244.286)" fill="#b09ecb"/>
            <path id="Trazado_875256" data-name="Trazado 875256" d="M334.9,256.567H291.45c-.131,0-.44.04-.44.224s.318.224.44.224H334.9c.131,0,.439-.04.439-.224s-.317-.224-.439-.224" transform="translate(-7.584 -6.687)" fill="#9f89c0"/>
            <path id="Trazado_875257" data-name="Trazado 875257" d="M94.258,248.62c-.4-2.424-.635-4.874-.874-7.319a.993.993,0,0,1,.676-1.265c4.351-2.149,8.912-4.349,13.764-4.28,3.563.051,3.767,3.367,4.6,6.2.969,3.316,1.773,6.678,2.5,10.054,1.445,6.694,2.6,13.449,4.165,20.117,1.045,4.439,2.275,8.832,3.579,13.2.653,2.186,1.325,4.365,2,6.543.417,1.34,1.925,3.211.433,4.18a10.372,10.372,0,0,1-6.064,1.619,6.719,6.719,0,0,1-3.109-.623,5.144,5.144,0,0,1-1.316-2.354,99.642,99.642,0,0,0-4.311-9.439c-3.167-6.177-6.743-12.138-9.8-18.373a67.586,67.586,0,0,1-5.991-16.812q-.139-.722-.256-1.445" transform="translate(-2.433 -6.144)" fill="#e5d493"/>
            <path id="Trazado_875258" data-name="Trazado 875258" d="M137.5,306.08a3.946,3.946,0,0,1-1.251.355,30.7,30.7,0,0,1-4.387.2c-1.587-.042-3.167-.207-4.746-.373l-9.024-.943a5.007,5.007,0,0,1-1.464-.3,3.36,3.36,0,0,1-1.776-2.249c-.568-2.06.255-4.191,1.063-6.1a4.562,4.562,0,0,1,3.855-2.755c2.4-.391,4.493,1.015,6.494,2.257a44.885,44.885,0,0,1,6.244,4.791,12.2,12.2,0,0,0,4.126,2.847,4.352,4.352,0,0,1,1.174.461.984.984,0,0,1,.444,1.088,1.457,1.457,0,0,1-.752.726" transform="translate(-2.988 -7.658)" fill="#e5d493"/>
            <path id="Trazado_875259" data-name="Trazado 875259" d="M142.406,306.04l-.011-.017a2.689,2.689,0,0,0-1.169-1.011,6.031,6.031,0,0,0-5.214-.431,11.53,11.53,0,0,1-6.9.705,24.318,24.318,0,0,1-6.653-2.438A17.578,17.578,0,0,1,119,300.671a11.019,11.019,0,0,0-2.892-2.265c-2.431-.9-2.818,3.433-2.557,4.938a4.629,4.629,0,0,0,.887,2.115c.427.508,1.017.859,1.468,1.382a14.013,14.013,0,0,1,1.611,2.313c.482.871.667,1.794,1.082,2.67.2.425.082.361.487.354a11.451,11.451,0,0,0,2.219-.527,24.726,24.726,0,0,0-.918-3.024,1.122,1.122,0,0,1-.047-.919.883.883,0,0,1,.458-.332,7.985,7.985,0,0,1,3.868-.092,19.543,19.543,0,0,1,4,1.172,6.684,6.684,0,0,0,4.306.42l1.781-.424,2.926-.7,2.623-.624c.393-.093,2.157-.263,2.194-.742a.648.648,0,0,0-.092-.349" transform="translate(-2.958 -7.774)" fill="#0d0d0d"/>
            <path id="Trazado_875260" data-name="Trazado 875260" d="M44.412,236.654c1.251-2.114,2.637-4.147,4.022-6.177a.993.993,0,0,1,1.33-.538c4.717,1.14,9.627,2.377,13.306,5.541,2.7,2.323.733,5-.447,7.7-1.382,3.166-2.922,6.261-4.527,9.321-3.182,6.063-6.631,11.984-9.7,18.106-2.044,4.077-3.917,8.237-5.718,12.426-.9,2.095-1.782,4.2-2.66,6.3-.54,1.3-.581,3.7-2.347,3.485a10.366,10.366,0,0,1-5.692-2.646,6.708,6.708,0,0,1-1.986-2.472,5.134,5.134,0,0,1,.5-2.649,99.54,99.54,0,0,0,2.745-10.007c1.529-6.771,2.608-13.639,4.263-20.382a67.618,67.618,0,0,1,6.184-16.742q.355-.643.729-1.274" transform="translate(-0.78 -5.991)" fill="#e5d493"/>
            <path id="Trazado_875261" data-name="Trazado 875261" d="M41.186,308.446a3.969,3.969,0,0,1-1.187-.53,30.639,30.639,0,0,1-3.493-2.661c-1.19-1.05-2.3-2.19-3.4-3.33l-6.32-6.51a4.969,4.969,0,0,1-.928-1.171,3.357,3.357,0,0,1,.078-2.864c.885-1.945,2.883-3.052,4.726-4a4.562,4.562,0,0,1,4.725.356c2.093,1.241,2.8,3.661,3.536,5.9a44.722,44.722,0,0,1,1.719,7.68,12.217,12.217,0,0,0,1.341,4.83,4.3,4.3,0,0,1,.6,1.106.982.982,0,0,1-.356,1.119,1.453,1.453,0,0,1-1.042.075" transform="translate(-0.666 -7.476)" fill="#e5d493"/>
            <path id="Trazado_875262" data-name="Trazado 875262" d="M45,311.519l0-.02a2.686,2.686,0,0,0-.248-1.524,6.035,6.035,0,0,0-3.725-3.676,11.526,11.526,0,0,1-5.747-3.882,24.352,24.352,0,0,1-3.542-6.137,17.591,17.591,0,0,1-1.258-3.888,11.034,11.034,0,0,0-.766-3.593c-1.29-2.247-4.363.828-5.128,2.149a4.633,4.633,0,0,0-.676,2.193c0,.662.23,1.311.24,2a13.953,13.953,0,0,1-.247,2.808c-.187.978-.638,1.8-.881,2.743-.118.455-.168.329.148.583a11.335,11.335,0,0,0,2.04,1.018,24.762,24.762,0,0,0,1.234-2.908c.112-.3.259-.632.554-.736a.879.879,0,0,1,.564.039,7.984,7.984,0,0,1,3.026,2.409,19.541,19.541,0,0,1,2.321,3.466,6.682,6.682,0,0,0,3.034,3.082l1.64.818,2.69,1.341,2.413,1.2c.36.18,1.824,1.181,2.159.838a.654.654,0,0,0,.153-.327" transform="translate(-0.598 -7.506)" fill="#0d0d0d"/>
            <path id="Trazado_875263" data-name="Trazado 875263" d="M51.688,137.076a124.555,124.555,0,0,0,.019,26.478,100.725,100.725,0,0,1-2.332,33.933q-4.434,17.62-10.082,34.9-.9,2.763-1.837,5.516a.884.884,0,0,0,.729,1.373c8.981,2.665,18.127,4.48,27.239,6.558a41.187,41.187,0,0,0,7.144,1.148c4.249.206,8.457-.762,12.625-1.619C96.2,243.106,107.6,241.59,118.66,243.6a36.225,36.225,0,0,0-.053-4.69c-3.259-16.436-7.267-32.761-10.9-49.121-1.688-7.612-4.447-14.862-6.264-22.483-1.806-7.573-3.151-15.249-4.271-22.951-.672-4.622-1.563-8.982-1.588-13.642-.024-4.64.023-9.407-1.325-13.9-3.075-10.239-20.81-7.93-28.533-5.64-3.791,1.125-7.652,3.6-9.192,7.343a69.284,69.284,0,0,0-4.249,14.5q-.352,2.019-.6,4.051" transform="translate(-0.973 -2.846)" fill="#0d0d0d"/>
            <path id="Trazado_875264" data-name="Trazado 875264" d="M102.221,72.956a13.745,13.745,0,0,0-1.3-4.894c-2.907-5.756-6.79-10.94-10.643-16.085l-1.6-2.141c-1.013-1.353-1.305-2.723-3-3.46a21.528,21.528,0,0,0-2.83-.838,49.818,49.818,0,0,1-7.385-3.206A15.826,15.826,0,0,0,67.7,40.478a2.07,2.07,0,0,0-.991.267,2.34,2.34,0,0,0-.691.889c-.332.614-.742,1.228-1.015,1.87a9.617,9.617,0,0,1-.456,1.406,42.025,42.025,0,0,0-7.882,19.847,112.023,112.023,0,0,0-.43,24.134c.666,7.363,1.079,14.785,1.629,22.174a3.134,3.134,0,0,0,.309,1.353c.883,1.528,7.561,1.078,9.275,1.221l11.417.959,9.955.835c2.036.171,6.257,1.539,7.616-.456a6.659,6.659,0,0,0,.848-2.266,94.541,94.541,0,0,0,1.959-12.641c.389-4.007,1.406-8.055,2.044-12.059a74.651,74.651,0,0,0,1.045-10.368,40.644,40.644,0,0,0-.111-4.688" transform="translate(-1.454 -1.054)" fill="#0d0d0d"/>
            <path id="Trazado_875265" data-name="Trazado 875265" d="M87.7,37.824q-.408,1.112-.729,2.249A30.615,30.615,0,0,0,86.2,43.58a20.079,20.079,0,0,1-.872,4.171,1.655,1.655,0,0,1-.811,1.008,1.823,1.823,0,0,1-.861.041,18.983,18.983,0,0,1-3.938-.776A53,53,0,0,0,73.4,46.039c-2.258-.579-4.8-.553-4.74-3.633a9.255,9.255,0,0,1,1.274-3.862q1.76-3.5,3.528-7c.832-1.651,1.549-4.069,3.361-4.9a5.874,5.874,0,0,1,5.138.448,17.1,17.1,0,0,1,3.314,3.018c.855.811,1.408.668,2.462,1.133a2,2,0,0,1,.966,1.429c.012.054.026.109.035.162a4.386,4.386,0,0,1,.077.442C89,34.8,88.22,36.421,87.7,37.824" transform="translate(-1.789 -0.684)" fill="#e5d493"/>
            <path id="Trazado_875266" data-name="Trazado 875266" d="M88.033,37.972q-.408,1.112-.729,2.249a5.454,5.454,0,0,1-1.62-.665,13.07,13.07,0,0,1-2.6-2.26C82.031,36.19,80.4,33.8,82,32.393a2.834,2.834,0,0,1,2.008-.46,6.318,6.318,0,0,1,2.331.389,3.452,3.452,0,0,0,.916.414c.6.081,1.385-.191,1.809.243a4.386,4.386,0,0,1,.077.442c.193,1.531-.589,3.15-1.107,4.552" transform="translate(-2.12 -0.832)" fill="#c4b7d9"/>
            <path id="Trazado_875267" data-name="Trazado 875267" d="M93.837,8.947a9.819,9.819,0,0,1,.952,2.8A31.123,31.123,0,0,1,95,16.65c.026,1.454-.054,3.265,1.157,4.215q1.635,1.283,3.27,2.567a2.563,2.563,0,0,1,.7.713c.343.606-.054,1.027-.483,1.426-.48.447-1.043.8-1.512,1.26-1.508,1.48-1.085,3.573-1.322,5.471a4.662,4.662,0,0,1-2.915,4.125c-3.043,1.178-6.712.085-9.432-1.382a14.9,14.9,0,0,1-3.264-2.38,10.042,10.042,0,0,1-2.4-3.083c-.564-1.4-1.986-1.358-3.273-.988-6.786,1.495-8.821-5.8-8.625-11.116A24.775,24.775,0,0,1,68,10.524c.847-2.481,2.3-3.7,4.566-4.919A21.47,21.47,0,0,1,82.877,2.952a14.766,14.766,0,0,1,5.243.969,10.849,10.849,0,0,1,5.717,5.026" transform="translate(-1.743 -0.077)" fill="#e5d493"/>
            <path id="Trazado_875268" data-name="Trazado 875268" d="M94.221,15.7a.394.394,0,0,1-.133.244.573.573,0,0,1-.291.087,12.412,12.412,0,0,0-3.077.8c-.448.175-1.163.78-1.645.7-.064-.088.007-.207.078-.289,1.066-1.247,2.73-2.635,4.5-2.374a.674.674,0,0,1,.545.387.776.776,0,0,1,.034.334.737.737,0,0,1-.015.112" transform="translate(-2.321 -0.387)" fill="#b09ecb"/>
            <path id="Trazado_875269" data-name="Trazado 875269" d="M93.418,19.62a.825.825,0,0,0-1.068-.6c-.658.24-.56,1.368-.363,1.889a.712.712,0,0,0,1.216.467,1.745,1.745,0,0,0,.215-1.76" transform="translate(-2.393 -0.494)"/>
            <path id="Trazado_875270" data-name="Trazado 875270" d="M80.841,22.761c-.978,2.79-4.492,11.186-8.758,8.033a6.2,6.2,0,0,1-1.243-1.38c-3.006-4.106-6.047-8.5-6.589-13.563a14.776,14.776,0,0,1,2.081-9.262c2.933-4.75,8.008-6.8,13.444-6.57A20.518,20.518,0,0,1,91.764,4.712c1.4,1.094,4.242,5.569.467,3.918-.33-.145-2.911-1.056-2.919-1.442a7.541,7.541,0,0,1-1.042,3.49,35.624,35.624,0,0,1-4.551,6.853,12.808,12.808,0,0,0-2.081,2.544c-.366.813-.494,1.825-.8,2.687" transform="translate(-1.672 0)" fill="#b09ecb"/>
            <path id="Trazado_875271" data-name="Trazado 875271" d="M60.234,29.464a6.324,6.324,0,0,0-.387,4.269A5.5,5.5,0,0,0,63.4,37.189a7.833,7.833,0,0,0,5.051-.181A10.046,10.046,0,0,0,74.2,31.631a1.118,1.118,0,0,0,.058-1.059c-.162-.234-.454-.292-.637-.491-.2-.215-.142-.31-.243-.542a12.23,12.23,0,0,0-.961-1.487,28.239,28.239,0,0,0-2.448-3.124,12.178,12.178,0,0,0-1.227-1.355c-.473-.413-.907-.314-1.518-.2-2.86.513-5.531,3.079-6.768,5.6q-.118.243-.224.493" transform="translate(-1.554 -0.607)" fill="#b09ecb"/>
            <path id="Trazado_875272" data-name="Trazado 875272" d="M83.414,20.769a3.5,3.5,0,0,0-.2-.352A3.112,3.112,0,0,0,80,19.14c-2.193.505-2.393,2.47-2.007,4.307a13.041,13.041,0,0,0,2.039,4.741c.492.71,1.27,1.444,2.1,1.2a1.9,1.9,0,0,0,.874-.657A5.748,5.748,0,0,0,84.3,24.977c-.014-.828-.328-1.642-.423-2.453a5.087,5.087,0,0,0-.465-1.754" transform="translate(-2.029 -0.497)" fill="#e5d493"/>
            <path id="Trazado_875273" data-name="Trazado 875273" d="M94.972,31.085a1.863,1.863,0,0,1-.582-.077,2.241,2.241,0,0,1-.587-.274,2.318,2.318,0,0,1-.852-1.01c-.079-.179-.655-.129-.565.08a2.774,2.774,0,0,0,2.587,1.579c.09,0,.289-.024.293-.149s-.214-.151-.293-.149" transform="translate(-2.407 -0.772)" fill="#c4b7d9"/>
            <path id="Trazado_875274" data-name="Trazado 875274" d="M88.058,6.722c-1.487,4.285-3.787,8.564-7.826,10.926-.285.167.248.308.414.211,4.106-2.4,6.461-6.694,7.976-11.058.077-.219-.5-.262-.564-.079" transform="translate(-2.089 -0.172)" fill="#9f89c0"/>
            <path id="Trazado_875275" data-name="Trazado 875275" d="M85.031,9.312c-.7,2.067-2.407,3.526-4.087,4.807-.109.083.027.178.105.2a.464.464,0,0,0,.4-.054c1.7-1.3,3.442-2.788,4.146-4.879.074-.221-.5-.263-.565-.079" transform="translate(-2.108 -0.24)" fill="#9f89c0"/>
            <path id="Trazado_875276" data-name="Trazado 875276" d="M71.658,3.353a13.548,13.548,0,0,0-4.911,5.329,10.632,10.632,0,0,0-.721,7.685c.054.182.632.149.565-.079a10.443,10.443,0,0,1,.721-7.528,13.183,13.183,0,0,1,4.76-5.2c.28-.179-.251-.316-.414-.211" transform="translate(-1.71 -0.086)" fill="#9f89c0"/>
            <path id="Trazado_875277" data-name="Trazado 875277" d="M70.566,8.515a6.7,6.7,0,0,0-1.488,5.219c.031.214.614.193.585,0a6.514,6.514,0,0,1,1.408-5.068c.175-.211-.385-.3-.505-.151" transform="translate(-1.799 -0.22)" fill="#9f89c0"/>
            <path id="Trazado_875278" data-name="Trazado 875278" d="M64.029,25.982a7.665,7.665,0,0,0-.447,9.668c.121.162.685.081.565-.08a7.492,7.492,0,0,1,.388-9.437c.181-.2-.38-.292-.505-.151" transform="translate(-1.618 -0.675)" fill="#9f89c0"/>
            <path id="Trazado_875279" data-name="Trazado 875279" d="M66.085,34.885c-.816-.087-1.26-.928-1.527-1.611a4.546,4.546,0,0,1-.292-2.516c.036-.184-.543-.217-.585,0a4.807,4.807,0,0,0,.4,2.8,2.39,2.39,0,0,0,1.85,1.612c.1.01.312.012.36-.105s-.121-.174-.2-.183" transform="translate(-1.658 -0.798)" fill="#9f89c0"/>
            <path id="Trazado_875280" data-name="Trazado 875280" d="M74.342,31.553c-2.99-1.887-5.138-4.778-7-7.725-.107-.17-.677-.1-.564.08a24.065,24.065,0,0,0,7.149,7.857c.162.1.694-.034.414-.211" transform="translate(-1.74 -0.618)" fill="#9f89c0"/>
            <path id="Trazado_875281" data-name="Trazado 875281" d="M88.2,45.9a1.5,1.5,0,0,0-.268-.587,1.782,1.782,0,0,0-.823-.467C81.126,42.76,75.176,40.46,69.2,38.287a2.322,2.322,0,0,0-1.738-.127,3.339,3.339,0,0,0-1.3,1.547c-.851,1.647-2.164,3.322-2.493,5.178,2.19.448,4.406.812,6.585,1.275,6.251,1.326,12.04,3.678,18.007,5.856,1.149.42.147-5.3-.035-6.017-.009-.035-.019-.069-.027-.1" transform="translate(-1.659 -0.991)" fill="#de9935"/>
            <path id="Trazado_875282" data-name="Trazado 875282" d="M103.215,99.941A157.113,157.113,0,0,1,92.56,82.7q-2.834-5.328-5.252-10.862c-1.349-3.086-2.977-6.8-6-8.63a6.049,6.049,0,0,0-4.71-.543c-1.228.249-2.527.249-3.76.553A6.216,6.216,0,0,0,68.2,68.549C67.47,73.792,70.9,78.859,73.636,83a1.093,1.093,0,0,0,.762.372,156.739,156.739,0,0,0,12.884,22.08c2.572,3.574,5.716,7.319,10.044,8.726,3.09,1,7,.735,9.4-1.663,3.143-3.139,1.054-6.4-1.238-9.462q-1.154-1.541-2.272-3.113" transform="translate(-1.775 -1.627)" fill="#e5d493"/>
            <path id="Trazado_875283" data-name="Trazado 875283" d="M110.658,117.31a107.338,107.338,0,0,0,15.866-.6,123.557,123.557,0,0,0,16.188-2.343,6.365,6.365,0,0,0,1.91-.644,2.51,2.51,0,0,0,.233-4.146,6.3,6.3,0,0,0-3.3-.86c-8.7-.61-17.443-1.037-25.989-2.768-5.749-1.164-11.644-2.92-17.373-1.657a9.7,9.7,0,0,0-3.032,1.145c-2.461,1.52-2.724,4.233-1.325,6.706,1.592,2.814,5.145,3.744,8.34,4.24,2.817.436,5.646.74,8.483.929" transform="translate(-2.423 -2.707)" fill="#e5d493"/>
            <path id="Trazado_875284" data-name="Trazado 875284" d="M155.624,114.652q0,.3-.018.593c-.052.711.094,4.521,1.63,3.731a2.849,2.849,0,0,0,1.214-1.628c1.114-3,.667-7.993-2.785-9.277a10.313,10.313,0,0,0-3.829-.44,60.241,60.241,0,0,0-6.054.439c-2,.246-5.36,1.106-3.84,3.786a5.7,5.7,0,0,0,4.967,2.42,23.578,23.578,0,0,0,4.626-.7c.789-.2,2.862-1.506,3.512-.927a1.918,1.918,0,0,1,.516,1.215,6.517,6.517,0,0,1,.059.792" transform="translate(-3.689 -2.805)" fill="#e5d493"/>
            <path id="Trazado_875285" data-name="Trazado 875285" d="M97.874,86.621a2.435,2.435,0,0,1-.957.755,104.077,104.077,0,0,1-11.089,5.182q-2.9,1.154-5.864,2.132c-1.259.415-3.71,1.771-4.65.266a4.772,4.772,0,0,1-.352-.715c-.547-1.3-1.077-2.605-1.589-3.917-.178-.457-.357-.915-.533-1.375q-.343-.9-.682-1.812c-.176-.474-.349-.946-.522-1.42-1.019-2.8-1.984-5.627-2.928-8.455-.851-2.557-1.5-5.133-2.3-7.677A19.575,19.575,0,0,1,65.2,61.329,9.712,9.712,0,0,1,68.742,54.9a12.171,12.171,0,0,1,4.567-2.037c3.748-.925,8.039-.7,11.031,1.736,3.01,2.453,4.055,6.506,5.235,10.206,1.3,4.088,2.957,8.049,4.632,12,.178.425.359.852.542,1.276.281.665.562,1.329.84,1.995.179.427.357.857.534,1.285.245.591.489,1.186.726,1.78.413,1.03,1.78,2.3,1.027,3.478" transform="translate(-1.697 -1.365)" fill="#0d0d0d"/>
            <path id="Trazado_875286" data-name="Trazado 875286" d="M95.762,80.732q-6.082,2.354-12.166,4.7c-3.514,1.359-7.141,2.591-10.581,4.171.175.46.355.919.533,1.376,3.792-1.856,7.852-3.211,11.776-4.725L96.3,82.017c-.176-.428-.355-.858-.534-1.286m-.84-1.994c-.182-.425-.363-.852-.542-1.276L83.6,81.625C79.67,83.141,75.6,84.5,71.812,86.371c.172.474.345.946.521,1.42,4.13-2.185,8.645-3.666,12.99-5.343Z" transform="translate(-1.872 -2.019)" fill="#de9935"/>
            <path id="Trazado_875287" data-name="Trazado 875287" d="M99.141,86.236q-3.575-7.188-6.442-14.7Q91.277,67.8,90.036,64A35.2,35.2,0,0,0,87.3,56.829,8.522,8.522,0,0,0,81.843,52.6c-.346-.071-.675.261-.195.36a7.887,7.887,0,0,1,4.879,3.858,32.434,32.434,0,0,1,2.7,6.954q2.4,7.405,5.493,14.561,1.752,4.051,3.718,8c.111.222.83.151.706-.1" transform="translate(-2.122 -1.371)"/>
            <path id="Trazado_875288" data-name="Trazado 875288" d="M76.136,96.459q-3.005-6.78-5.481-13.779-.706-2-1.366-4.012c-.075-.228-.8-.181-.706.1q2.317,7.046,5.173,13.9.817,1.956,1.675,3.893c.1.224.821.161.706-.1" transform="translate(-1.787 -2.046)"/>
            <path id="Trazado_875289" data-name="Trazado 875289" d="M111.024,200.45a.55.55,0,0,0-.047-.049q-.476-2.063-.959-4.123c-2.76-11.762-6.222-23.417-8.367-35.3-1.478-8.2-2.9-16.4-4.155-24.639-.62-4.075-1.35-8.183-1.741-12.286-.116-1.215,1.327-5.73-.754-5.892a308.253,308.253,0,0,1-36.088-4.986,1.9,1.9,0,0,0-.743,3.733q5.223,1.042,10.507,1.9-.019.624-.034,1.247c-2.331.492-2.194,3.008-1.184,4.965.459.89,1.134,1.987.644,3.008-.332.693-1.127,1.064-1.636,1.6a3.684,3.684,0,0,0-.489,4.029c.617,1.668,2.015,3.09,1.845,4.986-.153,1.7-1.385,3.094-1.663,4.77a5.074,5.074,0,0,0,1.241,3.8c1.079,1.573,1.465,2.8.74,4.648-.472,1.207-1.189,2.479-1.05,3.823.161,1.563,1.432,2.485,2.3,3.659,2.139,2.9-1.164,5.89-.684,8.979.438,2.828,4.569,4.479,3.2,7.578-.6,1.359-1.509,2.4-1.644,3.949a6.422,6.422,0,0,0,1.1,4.154,6.764,6.764,0,0,0,1.664,1.637,6.319,6.319,0,0,1,1.28,1.006c.083.4.168.79.256,1.183-.212.9-1.066,1.881-1.331,2.7a6.586,6.586,0,0,0-.35,2.5,4.9,4.9,0,0,0,5.07,4.468c.335,2.005-.888,4.133.168,6.058.831,1.514,2.771,1.735,4.285,1.294,1.13-.329,2.159-1.241,3.315-.623.881.472,1.553,1.274,2.406,1.794,1.387.846,3.466,1.285,4.911.315.735-.495.8-1.629,1.485-2.049,1.113-.687,2.886.95,3.809,1.4a5.087,5.087,0,0,0,5.037.019,7.8,7.8,0,0,0,1.664-1.6c.068-.079.136-.159.2-.239.378-.017.756-.031,1.135-.049.468-.022,1.1.051,1.746.089a3.284,3.284,0,0,0,3.769.42c.14-.081.354-.227.343-.423a6.3,6.3,0,0,0-1.2-3.448" transform="translate(-1.476 -2.948)" fill="#fff"/>
            <path id="Trazado_875290" data-name="Trazado 875290" d="M39.952,123.67c-1.724,1.709.928,4.12,2.022,5.666a1.559,1.559,0,0,0,.825.71,1.576,1.576,0,0,0,1.138-.352l7.411-4.663a267.359,267.359,0,0,0-16.124,29.593.871.871,0,0,0,.545,1.441l3.79,1.415a1,1,0,0,0,1.564-.654c3.775-8.565,7.552-17.131,11.1-25.794,1.736-4.242,3.634-8.514,5.03-12.883,1.751-5.475-3.281-3.843-6.342-2.318a42.5,42.5,0,0,0-10.955,7.837" transform="translate(-0.913 -2.98)" fill="#fff"/>
            <path id="Trazado_875291" data-name="Trazado 875291" d="M94.181,122.306h-.019c-7.589-.5-15.253-1.326-22.778-2.448a.293.293,0,0,1,.086-.579c7.51,1.12,15.157,1.942,22.73,2.444a.293.293,0,0,1-.019.585" transform="translate(-1.854 -3.108)" fill="#de9935"/>
            <path id="Trazado_875292" data-name="Trazado 875292" d="M51.757,125.379a.29.29,0,0,1-.2-.078.293.293,0,0,1-.016-.414,40.585,40.585,0,0,0,5.3-7.164.293.293,0,1,1,.506.294,41.209,41.209,0,0,1-5.373,7.269.292.292,0,0,1-.215.093" transform="translate(-1.341 -3.064)" fill="#de9935"/>
            <path id="Trazado_875293" data-name="Trazado 875293" d="M43.406,128.623a.293.293,0,0,1-.239-.462,36.5,36.5,0,0,1,11.2-10.344.293.293,0,1,1,.3.5A35.937,35.937,0,0,0,43.646,128.5a.292.292,0,0,1-.24.125" transform="translate(-1.124 -3.069)" fill="#de9935"/>
            <path id="Trazado_875294" data-name="Trazado 875294" d="M74.162,151.026q-.606-7.281-1.349-14.55-.418-4.086-.879-8.167c-.03-.267-.76-.245-.731,0q.815,7.223,1.5,14.462.682,7.274,1.229,14.56.307,4.095.57,8.195c.018.264.748.253.732,0q-.467-7.255-1.068-14.5" transform="translate(-1.856 -3.339)" fill="#de9935"/>
            <path id="Trazado_875295" data-name="Trazado 875295" d="M94.263,201.376c-3.737-.355-7.842-.819-10.518-3.759a18.173,18.173,0,0,1-3.091-5.393,36.651,36.651,0,0,1-1.945-6.235,37.182,37.182,0,0,1-.834-7.338c0-.26-.735-.259-.731,0a37.316,37.316,0,0,0,2.6,13.173,20.48,20.48,0,0,0,3.026,5.587,10.388,10.388,0,0,0,4.754,3.164,28.473,28.473,0,0,0,6.542,1.16c.116.011.4.018.45-.131s-.138-.218-.255-.229" transform="translate(-2.01 -4.651)" fill="#de9935"/>
            <path id="Trazado_875296" data-name="Trazado 875296" d="M108.062,201.169c-.059-.145-.332-.141-.45-.131l-4.03.368c-.109.011-.315.087-.255.23s.331.141.45.131l4.03-.368c.109-.011.314-.087.255-.23" transform="translate(-2.693 -5.239)" fill="#de9935"/>
          </g>
        </g>
      </g>
    </g>
  </g>
</svg>
