<svg xmlns="http://www.w3.org/2000/svg" xmlns:xlink="http://www.w3.org/1999/xlink" width="73.035" height="73.035" viewBox="0 0 73.035 73.035">
  <defs>
    <clipPath id="clip-path">
      <rect id="Rectángulo_402775" data-name="Rectángulo 402775" width="51.59" height="46.84" fill="none"/>
    </clipPath>
  </defs>
  <g id="Grupo_1102514" data-name="Grupo 1102514" transform="translate(-361.965 -1567.046)">
    <g id="Grupo_1102457" data-name="Grupo 1102457">
      <g id="Elipse_11493" data-name="Elipse 11493" transform="translate(361.965 1567.046)" fill="#95dbb3" stroke="#fff" stroke-width="2">
        <circle cx="36.518" cy="36.518" r="36.518" stroke="none"/>
        <circle cx="36.518" cy="36.518" r="35.518" fill="none"/>
      </g>
      <g id="Grupo_1102456" data-name="Grupo 1102456" transform="translate(372.688 1580.144)">
        <g id="Grupo_1102455" data-name="Grupo 1102455" clip-path="url(#clip-path)">
          <path id="Trazado_875996" data-name="Trazado 875996" d="M22.722,19.355c-2.407,0-4.815-.027-7.221.012a4.351,4.351,0,0,1-2.954-1.026C10.78,16.9,9.018,15.453,7.167,14.129a4.06,4.06,0,0,1-1.919-4.014c.043-.392.006-.792.006-1.334-.708,0-1.335.028-1.958-.006A3.484,3.484,0,0,1,.062,5.961c-.189-.946.03-1.23.984-1.244C2.385,4.7,3.725,4.694,5.064,4.68c.025,0,.05-.042.19-.166,0-1.058.036-2.222-.012-3.382C5.208.287,5.567.075,6.368.021a5.907,5.907,0,0,1,6.015,3.17c.479.842,1.076,1.616,1.6,2.43A2.916,2.916,0,0,0,16.5,7.036a14.818,14.818,0,0,0,3.156-.207L15.11,3.453a3.347,3.347,0,0,1-.635-.488c-.173-.212-.4-.536-.344-.735a.863.863,0,0,1,.677-.437c3.293-.017,6.606-.4,9.607,1.647a48.863,48.863,0,0,0,5.841,3.117,4.556,4.556,0,0,0,1.894.469q4.622.071,9.246.011A4.889,4.889,0,0,1,46.35,10.1c.137.3.335.586.444.9a4.807,4.807,0,0,0,2.934,3.04,2.658,2.658,0,0,1,1.683,3.17A2.8,2.8,0,0,1,48.5,19.347c-3.786.02-7.572.038-11.358-.011a5.473,5.473,0,0,0-3.136.8,19.907,19.907,0,0,0-2.383,1.52h3.758c1.608,0,3.216,0,4.825,0a5.471,5.471,0,0,1,4.477,2.083C46.7,26.2,48.736,28.644,50.755,31.1a4.3,4.3,0,0,1,.4,4.466c-.216.585-1.181.936-1.861,1.287a2.008,2.008,0,0,1-1.092.027c-1.435-.193-2.643.037-3.191,1.764h2.71c.871,0,1.747-.054,2.611.025.387.036,1.059.327,1.068.525.032.735-.637.6-1.113.607-1.575.015-3.149.006-4.724.006H33.744a17.39,17.39,0,0,0,.647,2.395c.692,1.587-.049,2.878-1.734,2.886-.368,0-.738.021-1.105,0a2.737,2.737,0,0,0-2.383.85,3.413,3.413,0,0,1-4.866-.263,2.03,2.03,0,0,0-1.262-.557q-4.924-.068-9.849,0a1.841,1.841,0,0,0-1.172.518,3.565,3.565,0,0,1-5.272.039,2.374,2.374,0,0,0-1.26-.557,11.821,11.821,0,0,0-1.806-.024c-1.768-.005-2.563-1.43-1.721-3.009A3.11,3.11,0,0,0,2.339,40.7c.028-4.422.012-8.845.019-13.268q.006-4,4.026-4c3.484,0,6.969.005,10.453-.01a1.908,1.908,0,0,0,1.039-.223c1.659-1.176,3.283-2.4,4.919-3.61ZM29.5,26.928a2.321,2.321,0,0,0-2.585-2.307q-10.4-.011-20.805,0a2.3,2.3,0,0,0-2.589,2.521c-.032,2.479-.009,4.958,0,7.437a1.709,1.709,0,0,0,.078.394c.745.136,1.65.041,2.029.442s.231,1.3.325,2.065H16.712a2.246,2.246,0,0,1,.8.028c.233.094.4.349.6.534-.189.2-.345.467-.576.572a2.036,2.036,0,0,1-.794.042q-4.875,0-9.749,0h-.82c-.339.706-.454,1.406-.845,1.636-.449.265-1.143.116-1.8.15.023.42.04.735.059,1.1a19.722,19.722,0,0,0,2.1-.021,1.721,1.721,0,0,0,.992-.467,3.538,3.538,0,0,1,5.4,0,1.55,1.55,0,0,0,.991.465q5.075.051,10.151,0a1.574,1.574,0,0,0,1-.453,3.5,3.5,0,0,1,5.386-.013,1.313,1.313,0,0,0,.7.46c.79.059,1.587.022,2.4.022V40.11a6.785,6.785,0,0,1-2.242-.993,6.221,6.221,0,0,1-.8-2.225s-.2,0-.4,0c-1.484-.02-1.654-.156-1.954-1.567a3.293,3.293,0,0,1-.127-.588c-.015-.672-.387-.826-.989-.8-.8.039-1.608.02-2.412.006-1.172-.021-1.51-.34-1.529-1.493-.021-1.273-.013-2.546,0-3.819.011-1.393.32-1.7,1.742-1.7,1.807-.008,3.613,0,5.526,0M6.542,11.158l-.22.274a8.976,8.976,0,0,0,1.073,1.325,39.61,39.61,0,0,0,3.166,2.47,3.055,3.055,0,0,0,1.615.558q18.387.046,36.775.021c.314,0,.628-.034.941-.051a5.462,5.462,0,0,0-3.317-1.67c-1.976-.035-3.952-.012-5.928-.01-.831,0-1.618-.216-1.857-1.071-.508-1.813-.292-3.816,2.263-3.641,1.068.073,2.145.012,3.424.012A3.941,3.941,0,0,0,41.326,8.21c-8.139,0-16.278-.013-24.416.013A4.384,4.384,0,0,1,12.875,6.07Q11.887,4.5,10.81,2.982A4.194,4.194,0,0,0,6.482,1.276V4.617c2.131.5,3.2,1.486,3.416,3.062C10,8.434,9.807,8.839,8.963,8.8c-.821-.037-1.645-.008-2.527-.008.023.473.038.79.057,1.176,1.375,0,2.679.05,3.977-.013a3.793,3.793,0,0,1,3.445,1.654,4.984,4.984,0,0,0,1.621,1.232c.374.2.979.2.741.779-.1.233-.71.388-1.067.354-1.1-.1-1.658-1-2.361-1.721a3.2,3.2,0,0,0-1.7-1.046c-1.524-.148-3.072-.049-4.61-.049M28.015,23.216c1.39,1.627,3.087,1.424,4.748,1.4q1.959-.028,3.918,0a1.743,1.743,0,0,1,1.928,1.93c.02.9.007,1.808,0,2.713,0,1.816-.573,2.376-2.422,2.38-1.179,0-2.359,0-3.578,0,.464,1.722.464,1.722,2,1.722,2.21,0,4.421-.02,6.631.032.282.007.555.4.833.611-.277.175-.549.49-.833.5-1.438.052-2.879.025-4.319.025H33.691c-.022.948.342,1.2,1.156,1.194,4.286-.041,8.573-.019,12.86-.019,2.562,0,2.681-.122,2.587-2.644-.041-1.08-.384-1.419-1.469-1.421-2.344,0-4.689.014-7.033-.009a1.774,1.774,0,0,1-2-1.981c-.017-1.072-.024-2.144,0-3.215a1.7,1.7,0,0,1,1.824-1.82c.678-.021,1.358,0,2.208,0a4.158,4.158,0,0,0-3.548-1.771c-3.55,0-7.1-.016-10.65.015a7.939,7.939,0,0,0-1.617.358m9.012-6L36.977,17c-2.471,0-4.942.031-7.412-.017a3.4,3.4,0,0,0-2.3.74C25.093,19.4,22.861,21,20.655,22.631c-.276.2-.533.436-.967.794,1.939,0,3.64,0,5.341-.007a1.285,1.285,0,0,0,.568-.148q5.719-3.022,11.43-6.059M32.707,35.666c-.868-2.472-1.676-4.8-2.518-7.122a.772.772,0,0,0-.558-.424c-2.033-.031-4.067-.019-6.169-.019v4.687c1.246,0,2.443.017,3.638-.007a.909.909,0,0,1,1.07.9c.089.657.264,1.3.408,1.98ZM30.513,25.8c.519,1.495.979,2.882,1.5,4.246a.885.885,0,0,0,.68.39c1.3.038,2.609.063,3.907-.017a1.11,1.11,0,0,0,.786-.732,20.815,20.815,0,0,0,0-3.2.948.948,0,0,0-.651-.654c-2.032-.052-4.065-.03-6.226-.03m18.168,4.65c-1.294-1.574-2.4-2.948-3.548-4.291a1.171,1.171,0,0,0-.76-.349,15.726,15.726,0,0,0-2.6.021,1.112,1.112,0,0,0-.764.741,18.6,18.6,0,0,0,0,3.1c.022.276.427.742.666.748,2.255.057,4.511.034,7.008.034M28.13,7.038l.063-.246a75.5,75.5,0,0,0-7.017-3.53c-1.327-.517-2.943-.293-4.428-.4l-.043.313Q19.16,4.987,21.619,6.8a1.031,1.031,0,0,0,.537.232c1.991.016,3.982.01,5.973.01M11.683,43.365a2.323,2.323,0,1,0-2.318,2.279,2.312,2.312,0,0,0,2.318-2.279M26.79,45.633a2.279,2.279,0,0,0,2.429-2.147,2.315,2.315,0,0,0-2.188-2.506,2.38,2.38,0,0,0-2.459,2.267,2.333,2.333,0,0,0,2.218,2.387M46.351,12.908c-.254-.571-.492-1.019-.655-1.493a1.154,1.154,0,0,0-1.339-.869c-1.23.066-2.466.04-3.7.012-.843-.019-.871.5-.868,1.122s-.037,1.237.87,1.232c1.831-.012,3.663,0,5.691,0M26.066,17.071H12.981a3.023,3.023,0,0,0,2.541,1.12c2.676-.04,5.355-.061,8.029.01a3.107,3.107,0,0,0,2.514-1.13m12.051.689.113.415c3.442,0,6.884.007,10.326-.006A1.491,1.491,0,0,0,50.171,17c-3.125,0-6.16-.06-9.191.035a13.353,13.353,0,0,0-2.863.726M12.9,43.847H23.337V42.81H12.9ZM1.427,5.921l-.211.4C1.805,6.73,2.368,7.446,2.988,7.5c1.846.159,3.714.057,5.661.057A2.094,2.094,0,0,0,6.737,5.94C4.969,5.875,3.2,5.921,1.427,5.921M30.444,43.832h2.921c-.026-.4-.046-.717-.067-1.04H30.444ZM4.611,36.356H3.6v2.812H4.611Zm-1.6,7.495h2.8V42.792h-2.8Zm32.54-6.924c1.111,1.5,2.913,1.454,3.7,0Zm8.987.06H40.8c1.231,1.416,2.762,1.387,3.734,0m-11.808-.356a8.954,8.954,0,0,0-1.583.793.929.929,0,0,0,.12.86,6.341,6.341,0,0,0,1.463.449Zm1.267,1.927H35.24L33.993,36.9Z" transform="translate(0 0)"/>
          <path id="Trazado_875997" data-name="Trazado 875997" d="M57,137.529c0,.637.015,1.274,0,1.909-.033,1.073-.4,1.438-1.461,1.48-3.24.129-3.255.115-3.255-3.107,0-.837-.008-1.675,0-2.512a1.248,1.248,0,0,1,1.36-1.394c3.242-.03,3.447-.259,3.357,3.12,0,.167,0,.335,0,.5m-3.483,2.128h2.212v-4.531H53.519Z" transform="translate(-41.768 -106.97)"/>
          <path id="Trazado_875998" data-name="Trazado 875998" d="M27.873,137.445c0,.737.025,1.475-.007,2.211a1.164,1.164,0,0,1-1.272,1.247c-.7.008-1.407.005-2.11,0a1.162,1.162,0,0,1-1.3-1.222c-.038-1.506-.033-3.015,0-4.522a1.2,1.2,0,0,1,1.276-1.264c.033,0,.067,0,.1,0,3.567-.047,3.352-.139,3.314,3.554m-3.479,2.228h2.246v-4.547H24.394Z" transform="translate(-18.502 -106.96)"/>
          <path id="Trazado_875999" data-name="Trazado 875999" d="M86.073,137.451c0,.7.011,1.407,0,2.11a1.255,1.255,0,0,1-1.359,1.385c-3.268.178-3.352.111-3.351-3.114,0-.871-.036-1.744.017-2.612.07-1.142.49-1.317,2.851-1.3,1.326.01,1.78.316,1.835,1.32.04.735.008,1.473.009,2.211m-3.487,2.233h2.22v-4.538h-2.22Z" transform="translate(-64.993 -106.992)"/>
          <path id="Trazado_876000" data-name="Trazado 876000" d="M97.558,185.016c.434.343,1,.581,1.014.842.029.716-.628.61-1.112.609s-1.158.083-1.084-.631c.029-.274.672-.485,1.181-.82" transform="translate(-76.994 -147.815)"/>
          <path id="Trazado_876001" data-name="Trazado 876001" d="M125.061,46.619c2.919,0,2.919,0,2.9,2.947-.01,1.465-.287,1.743-1.776,1.753-.9.006-1.807.01-2.71-.006a1.241,1.241,0,0,1-1.365-1.378c0-.1,0-.2,0-.3-.035-3.014-.035-3.014,2.953-3.014m1.67,1.266h-3.389V50.1h3.389Z" transform="translate(-97.55 -37.245)"/>
          <path id="Trazado_876002" data-name="Trazado 876002" d="M159.964,51.3c-2.9,0-2.9,0-2.891-2.865.005-1.5.331-1.828,1.818-1.833.9,0,1.807-.016,2.71.007a1.192,1.192,0,0,1,1.317,1.308c0,.636.013,1.272,0,1.907-.021,1.083-.363,1.431-1.449,1.472-.5.019-1,0-1.506,0M158.3,50.061h3.366v-2.21H158.3Z" transform="translate(-125.489 -37.223)"/>
          <path id="Trazado_876003" data-name="Trazado 876003" d="M90.132,46.619c2.939,0,2.939,0,2.917,2.932-.011,1.481-.281,1.757-1.763,1.767-.937.006-1.874.01-2.81-.012A1.2,1.2,0,0,1,87.2,50.051c-.013-.166-.005-.334-.007-.5-.023-2.931-.023-2.931,2.941-2.931m-1.711,3.448H91.8v-2.2H88.421Z" transform="translate(-69.657 -37.245)"/>
          <path id="Trazado_876004" data-name="Trazado 876004" d="M45.38,213.271c-.338.288-.541.595-.736.59a.532.532,0,0,1-.071-1.061c.191-.033.436.239.807.471" transform="translate(-35.233 -170.01)"/>
          <path id="Trazado_876005" data-name="Trazado 876005" d="M132.618,213.288c-.355.276-.573.576-.776.566a.533.533,0,0,1-.039-1.065c.2-.025.441.254.815.5" transform="translate(-104.898 -170.002)"/>
        </g>
      </g>
    </g>
  </g>
</svg>
