<svg xmlns="http://www.w3.org/2000/svg" xmlns:xlink="http://www.w3.org/1999/xlink" width="73.035" height="73.035" viewBox="0 0 73.035 73.035">
  <defs>
    <clipPath id="clip-path">
      <rect id="Rectángulo_402776" data-name="Rectángulo 402776" width="34.161" height="52.056" fill="none"/>
    </clipPath>
  </defs>
  <g id="Grupo_1102515" data-name="Grupo 1102515" transform="translate(-658.583 -1567.046)">
    <g id="Grupo_1102460" data-name="Grupo 1102460">
      <g id="Elipse_11493" data-name="Elipse 11493" transform="translate(658.583 1567.046)" fill="#95dbb3" stroke="#fff" stroke-width="2">
        <circle cx="36.518" cy="36.518" r="36.518" stroke="none"/>
        <circle cx="36.518" cy="36.518" r="35.518" fill="none"/>
      </g>
      <g id="Grupo_1102459" data-name="Grupo 1102459" transform="translate(678.021 1577.535)">
        <g id="Grupo_1102458" data-name="Grupo 1102458" clip-path="url(#clip-path)">
          <path id="Trazado_876006" data-name="Trazado 876006" d="M8.712,37.154A46.96,46.96,0,0,1,2.168,26.588C.236,22.063-.712,17.422.624,12.538a17.069,17.069,0,0,1,33.371,2.231,22.306,22.306,0,0,1-2.813,13.5c-1.4,2.654-3.166,5.113-4.781,7.651-.268.421-.6.8-.935,1.236.865.446,1.7.817,2.474,1.284,5.037,3.028,5.072,7.927.031,10.956-4.05,2.433-8.538,2.895-13.143,2.566A17.83,17.83,0,0,1,7.778,50.2a15.3,15.3,0,0,1-3.785-2.659,4.989,4.989,0,0,1,0-7.285,12.208,12.208,0,0,1,2.2-1.785,27.677,27.677,0,0,1,2.519-1.322m8.39,6.5c5.581-5.313,10.473-10.976,13.505-18.017,1.592-3.7,2.461-7.541,1.614-11.583A15.467,15.467,0,1,0,1.933,20.344,33.459,33.459,0,0,0,7.7,33a64.9,64.9,0,0,0,9.4,10.657m1.038,6.805c1.036-.171,3.122-.41,5.155-.881a10.882,10.882,0,0,0,5.573-2.968c1.6-1.68,1.715-3.633.065-5.224a22.944,22.944,0,0,0-3.672-2.465c-.638-.41-1.093-.238-1.631.339-1.8,1.932-3.694,3.772-5.524,5.675a1.216,1.216,0,0,1-2.048,0q-2.813-2.93-5.688-5.8c-.223-.224-.665-.49-.889-.41a9.352,9.352,0,0,0-4.6,3.017,3.206,3.206,0,0,0,.045,4.37,10.624,10.624,0,0,0,2.83,2.246c2.89,1.574,6.071,2.017,10.382,2.1" transform="translate(0 0)"/>
          <path id="Trazado_876007" data-name="Trazado 876007" d="M43.689,29.924A13.822,13.822,0,1,1,29.908,16.06,13.839,13.839,0,0,1,43.689,29.924m-1.628.052a12.194,12.194,0,1,0-12.313,12.1,12.217,12.217,0,0,0,12.313-12.1" transform="translate(-12.782 -12.795)"/>
          <path id="Trazado_876008" data-name="Trazado 876008" d="M50.54,62.647H40.96c-.09.282-.163.569-.273.841A2.426,2.426,0,0,1,38.1,65.033a2.386,2.386,0,0,1-2.093-2.271q-.066-4.214,0-8.43a2.384,2.384,0,0,1,2.094-2.27,2.422,2.422,0,0,1,2.583,1.545c.1.249.16.515.267.871H47.19c1.625,0,3.25-.015,4.875.005a2.494,2.494,0,0,1,2.647,2.587,5.545,5.545,0,0,0,.412,1.271,5.246,5.246,0,0,1,.366,1.231c.056.911.026,1.827.016,2.741a2.454,2.454,0,0,1-4.867.634c-.027-.093-.061-.184-.1-.3m3.332-3.282h-.855q-6.189,0-12.379,0c-1.242,0-1.393-.159-1.4-1.414,0-1.048.067-2.1-.037-3.142-.039-.393-.427-1.009-.739-1.066-.685-.124-.849.466-.847,1.074q.01,3.7,0,7.407c0,.59.084,1.157.8,1.168s.865-.544.819-1.141c-.076-1,.425-1.285,1.35-1.277,3.348.03,6.7.011,10.045.012,1.478,0,1.432.009,1.662,1.487.054.346.53.626.812.936.256-.3.7-.586.733-.91.1-1,.035-2.012.035-3.133m-.848-1.685c.046-1.411-.1-1.565-1.4-1.567q-4.913,0-9.827,0c-.292,0-.584.035-.88.053v1.512Z" transform="translate(-28.663 -41.46)"/>
        </g>
      </g>
    </g>
  </g>
</svg>
