<svg xmlns="http://www.w3.org/2000/svg" xmlns:xlink="http://www.w3.org/1999/xlink" width="104" height="104" viewBox="0 0 104 104">
  <defs>
    <clipPath id="clip-path">
      <rect id="Rectángulo_402575" data-name="Rectángulo 402575" width="59.605" height="54.151" fill="none"/>
    </clipPath>
  </defs>
  <g id="Grupo_1102506" data-name="Grupo 1102506" transform="translate(-803.051 -1986)">
    <g id="Grupo_1102220" data-name="Grupo 1102220">
      <g id="Grupo_1102505" data-name="Grupo 1102505">
        <g id="Grupo_1102217" data-name="Grupo 1102217" transform="translate(-219 1592)">
          <g id="Elipse_11492" data-name="Elipse 11492" transform="translate(1022.051 394)" fill="#95dbb3" stroke="#fff" stroke-width="2">
            <circle cx="52" cy="52" r="52" stroke="none"/>
            <circle cx="52" cy="52" r="51" fill="none"/>
          </g>
          <g id="Elipse_11500" data-name="Elipse 11500" transform="translate(1030.802 402.752)" fill="none" stroke="#000" stroke-width="2" stroke-dasharray="5">
            <circle cx="43.758" cy="43.758" r="43.758" stroke="none"/>
            <circle cx="43.758" cy="43.758" r="42.758" fill="none"/>
          </g>
        </g>
      </g>
      <g id="Grupo_1102212" data-name="Grupo 1102212" transform="translate(12.646 7.925)">
        <g id="Grupo_1102211" data-name="Grupo 1102211" transform="translate(813.051 2003)">
          <g id="Grupo_1102210" data-name="Grupo 1102210" clip-path="url(#clip-path)">
            <path id="Trazado_875297" data-name="Trazado 875297" d="M51.462,124.989c-1.675,0-3.144-.009-4.613,0-.667.006-1.342-.052-1.35-.888-.007-.816.655-.947,1.325-.948q4.942,0,9.884-.006c.3,0,.6-.045.982-.075v-2.548H1.906c-.028.343-.067.646-.074.95-.012.5,0,.994,0,1.677H3.4q18.9,0,37.794.011c.75,0,1.887-.306,1.871.931s-1.157.877-1.895.878q-15.757.028-31.514.013H8.144c0,1.262.012,2.412,0,3.562-.021,1.67-.655,2.286-2.342,2.312-3.784.058-3.914-.071-3.915-3.872v-1.827C.21,124.474,0,124.159,0,122.368c0-.116,0-.233,0-.349,0-3.1.1-3.212,3.317-3.464v-2.932c0-.737-.006-1.473,0-2.209.02-1.846.681-2.5,2.536-2.532.571-.008,1.143,0,1.868,0,0-1.679,0-3.218,0-4.757,0-1.318-.027-2.637.01-3.954a1.971,1.971,0,0,1,2.181-2.155,36.7,36.7,0,0,1,3.718.036c.374.031.71.516,1.063.793-.358.313-.7.862-1.078.9-1.3.113-2.612.043-3.979.043v9.006h5.449a13.339,13.339,0,0,1-.159-2.032,3.438,3.438,0,0,1,3.459-3.121c1.937-.036,3.876-.024,5.814-.007a3.505,3.505,0,0,1,3.607,4.575c-.033.148-.048.3-.089.566h4.094a11.913,11.913,0,0,1,.036-2.695,3.262,3.262,0,0,1,3.292-2.441c1.938-.03,3.876-.024,5.814-.005a3.5,3.5,0,0,1,3.589,4.587c-.033.148-.041.3-.074.56h5.28v-8.988H19.093a2.466,2.466,0,0,1-1.033-.033,5.866,5.866,0,0,1-1.075-.921,9.677,9.677,0,0,1,1.073-.805c.176-.1.456-.021.688-.021q15.118,0,30.235,0c2.113,0,2.7.583,2.7,2.675,0,2.668,0,5.335,0,8.2.855,0,1.614-.022,2.371,0a2.012,2.012,0,0,1,2.223,2.25c.033,1.776.008,3.554.008,5.4.4.039.7.087.994.094,1.769.048,2.315.61,2.325,2.418,0,.465,0,.93,0,1.4,0,1.731-.235,2.069-1.885,2.688,0,1.207.022,2.445-.006,3.682a1.847,1.847,0,0,1-2,2.045c-.735.027-1.473.027-2.209,0a1.855,1.855,0,0,1-2.029-2.031c-.038-1.231-.008-2.464-.008-3.837m2.913-12.241H5.25v5.8H54.376Zm-32.9-5.3v-.005c-.966,0-1.934-.028-2.9.007-1.17.043-1.815.65-1.839,1.653a1.62,1.62,0,0,0,1.743,1.745q2.954.077,5.912,0a1.7,1.7,0,1,0-.019-3.389c-.964-.045-1.932-.009-2.9-.009m16.712,0v.009c-1.043,0-2.089-.047-3.129.013a1.53,1.53,0,0,0-1.571,1.657,1.505,1.505,0,0,0,1.533,1.689c2.084.066,4.173.063,6.257.008a1.529,1.529,0,0,0,1.575-1.657,1.59,1.59,0,0,0-1.652-1.708c-1-.056-2.009-.012-3.014-.012m-31.978,17.6H3.827v3.98H6.213Zm47.175,3.96h2.4V125.05h-2.4Z" transform="translate(0 -76.726)"/>
            <path id="Trazado_875298" data-name="Trazado 875298" d="M170.288,21.1a10.548,10.548,0,1,1,4.633-20.05c.279.134.548.288.817.441.557.316.973.754.609,1.408s-.942.506-1.5.179a8.536,8.536,0,0,0-6.929-.9A8.738,8.738,0,1,0,178.144,6.6c-.335-.667-1.211-1.5-.03-2.034,1.075-.49,1.342.647,1.677,1.317a10.53,10.53,0,0,1-9.5,15.215" transform="translate(-122.625 0)"/>
            <path id="Trazado_875299" data-name="Trazado 875299" d="M45.583,36.341a11.776,11.776,0,0,1,2.267.041c.4.08.724.579,1.082.889-.35.28-.688.78-1.054.8a46.221,46.221,0,0,1-4.643.01,1.338,1.338,0,0,1-.971-.616,1.17,1.17,0,0,1,.315-1c1-1.017,2.071-1.974,3.115-2.952l-.146-.371a9.864,9.864,0,0,1-2.1-.038c-.465-.1-.849-.567-1.269-.869.405-.314.791-.863,1.22-.9a31.264,31.264,0,0,1,4.178-.018c.44.022,1.086.249,1.231.568.138.3-.145.95-.437,1.267-.932,1.007-1.954,1.931-2.941,2.887l.158.3" transform="translate(-32.366 -23.988)"/>
            <path id="Trazado_875300" data-name="Trazado 875300" d="M70.966,64.858a6.041,6.041,0,0,1-1.568-.035c-.324-.09-.808-.559-.77-.781.059-.344.485-.865.787-.886a36.8,36.8,0,0,1,4.053-.022c.282.011.75.293.784.5a1.521,1.521,0,0,1-.292,1.123c-.657.739-1.415,1.388-2.134,2.072l.128.3a4.261,4.261,0,0,1,1.424.036c.385.145.656.594.978.908-.3.3-.583.821-.9.845a29.561,29.561,0,0,1-3.936.026c-.981-.057-1.274-.9-.586-1.646s1.469-1.42,2.209-2.125l-.174-.316" transform="translate(-52.611 -48.416)"/>
            <path id="Trazado_875301" data-name="Trazado 875301" d="M188.521,34.544c1.033-1.592,1.981-3.046,2.921-4.505.356-.552.762-1.093,1.479-.639s.425,1.047.061,1.607c-1.054,1.619-2.114,3.234-3.144,4.869a1.171,1.171,0,0,1-1.833.469c-1.133-.663-2.344-1.2-3.442-1.908-.335-.217-.409-.836-.6-1.271.469-.1,1.022-.414,1.39-.265a34.809,34.809,0,0,1,3.171,1.644" transform="translate(-141.176 -22.433)"/>
          </g>
        </g>
      </g>
    </g>
  </g>
</svg>
