<svg xmlns="http://www.w3.org/2000/svg" xmlns:xlink="http://www.w3.org/1999/xlink" width="369.158" height="303.643" viewBox="0 0 369.158 303.643">
  <defs>
    <clipPath id="clip-path">
      <rect id="Rect치ngulo_402759" data-name="Rect치ngulo 402759" width="287.416" height="303.642" fill="none"/>
    </clipPath>
  </defs>
  <g id="Grupo_1102509" data-name="Grupo 1102509" transform="translate(-1020 -1988.02)">
    <g id="Grupo_1102406" data-name="Grupo 1102406" transform="translate(0 562.623)">
      <rect id="Rect치ngulo_402102" data-name="Rect치ngulo 402102" width="369.158" height="301.376" rx="20" transform="translate(1020 1427.663)" fill="#f59b25"/>
      <g id="Grupo_1102404" data-name="Grupo 1102404" transform="translate(1060.871 1425.396)">
        <g id="Grupo_1102403" data-name="Grupo 1102403" clip-path="url(#clip-path)">
          <path id="Trazado_875836" data-name="Trazado 875836" d="M243.777,412.892c0,2.918-32.672,5.283-72.974,5.283s-72.974-2.366-72.974-5.283,32.672-5.283,72.974-5.283,72.974,2.366,72.974,5.283" transform="translate(-27.489 -114.534)" fill="#e3dded"/>
          <path id="Trazado_875837" data-name="Trazado 875837" d="M69.013,347.721c3.211-1.107,6.813-2.34,9.933-1.3l.064-.174c-3.864-1.279-6.2-5.326-6.938-9.329s-.233-8.121-.34-12.189-.961-8.391-3.841-11.273c-5.32-5.345-15.09-3.555-20.495-8.817-2.421-2.361-3.511-5.731-4.631-8.921a83.966,83.966,0,0,0-5.147-11.926c-2.207-4.1-5.258-8.228-9.765-9.394-3.19-.833-6.612.005-9.573,1.458-4.688,2.311-8.665,6.373-10.1,11.4a18.029,18.029,0,0,0,1.429,12.771,25.821,25.821,0,0,0,8.718,9.656c6.281,4.294,14.239,6.6,18.717,12.754,2.783,3.828,3.8,8.62,5.13,13.161s3.246,9.262,7.133,11.971a15.573,15.573,0,0,0,9.755,2.437,36.953,36.953,0,0,0,9.952-2.286" transform="translate(-2.132 -77.01)" fill="#e4ab59"/>
          <path id="Trazado_875838" data-name="Trazado 875838" d="M25.537,299.32l-8.883-2.394c-.477-.129-.372-.9.11-.769l8.042,2.168a60.069,60.069,0,0,1-8.452-15.369c-.167-.47.556-.758.723-.284a59.237,59.237,0,0,0,8.279,15.091q.45-3.916.9-7.832a.389.389,0,0,1,.769.11q-.5,4.316-.993,8.633c.761,1.015,1.535,2.02,2.333,3.007,2.774,3.434,5.694,6.757,8.689,10.009q.038-3.914.077-7.828c.005-.493.777-.59.772-.089l-.086,8.742q2.63,2.831,5.324,5.593,4.7,4.8,9.65,9.351-.791-5.49-1.58-10.979a.389.389,0,0,1,.772-.089q.833,5.79,1.666,11.578a.347.347,0,0,1-.047.232q6.989,6.389,14.408,12.282l-2.189-10.46c-.1-.49.67-.576.772-.089q1.181,5.646,2.363,11.292,4.111,3.233,8.341,6.315c.406.295-.072.908-.476.615q-4-2.9-7.88-5.958a.388.388,0,0,1-.268.089l-12.883-.613c-.5-.024-.386-.793.11-.769l12.116.577q-7.757-6.128-15.049-12.814a.355.355,0,0,1-.331.132l-9.811-1.174a.389.389,0,0,1,.11-.769l9.261,1.108q-4.954-4.572-9.679-9.389-2.535-2.588-5.014-5.243a.483.483,0,0,1-.064.008.394.394,0,0,1-.472.188l-8.11-2.634c-.477-.155-.171-.87.3-.715l7.752,2.517c-3.334-3.6-6.57-7.287-9.624-11.112q-.893-1.118-1.754-2.262" transform="translate(-4.588 -79.36)" fill="#de9935"/>
          <path id="Trazado_875839" data-name="Trazado 875839" d="M58.921,263.961c-4.487,12.294-3.365,26.372,2.368,38.138A57.991,57.991,0,0,0,87.954,328.3l.385-.809a51.863,51.863,0,0,0,3.617-18.185c.407-10.561-1.3-21.311-5.83-30.866S74.14,260.6,64.672,255.888l-.623-.314a20.463,20.463,0,0,0-5.128,8.387" transform="translate(-15.781 -71.814)" fill="#de9935"/>
          <path id="Trazado_875840" data-name="Trazado 875840" d="M62.7,293.14c-.424-.261-.071-.954.355-.691l15.321,9.444Q75.305,293.515,72.617,285a.389.389,0,0,1-.053-.024l-10.65-7.588c-.408-.29.116-.866.519-.579l9.813,6.992q-4.012-12.839-7.133-25.942c-.114-.483.625-.725.741-.237Q68.927,270.585,72.9,283.3q2.632-6.334,5.262-12.668c.192-.462.882-.1.691.356l-5.557,13.379a.364.364,0,0,1-.044.065q2.849,9.054,6.132,17.964L87.2,288.288c.242-.437.934-.083.691.355L79.939,302.99a.366.366,0,0,1-.264.191q2.638,7.1,5.56,14.084L90.975,307c.244-.436.936-.082.691.356q-3.023,5.408-6.049,10.817c1.253,2.986,2.531,5.962,3.86,8.916.2.455-.536.689-.74.237q-1.873-4.164-3.647-8.37a.324.324,0,0,1-.36.005l-15.381-8.978c-.431-.251-.078-.943.356-.691l15.011,8.762Q81.6,310.62,78.8,303.062L62.7,293.14" transform="translate(-17.356 -72.315)" fill="#f4ddbc"/>
          <path id="Trazado_875841" data-name="Trazado 875841" d="M39.275,321.993a37.312,37.312,0,0,1,1.189,20.7c-.218-.133-.438-.259-.655-.391a33.24,33.24,0,0,1-7.879-11.08,20.27,20.27,0,0,1-1.58-11.009c.32-1.872,1.377-3.973,3.269-4.164a3.732,3.732,0,0,1,2.691,1.015,11.1,11.1,0,0,1,2.964,4.926" transform="translate(-8.464 -88.804)" fill="#f4ddbc"/>
          <path id="Trazado_875842" data-name="Trazado 875842" d="M65.438,355.231l-.031.063c-7.937-3.368-13.235-10.247-15.727-18.5a7.267,7.267,0,0,1-.408-2.954,2.9,2.9,0,0,1,1.618-2.368,3.215,3.215,0,0,1,1.955-.063,10.115,10.115,0,0,1,5.173,3.561c4.864,5.635,5.9,12.976,7.419,20.264" transform="translate(-13.836 -93.088)" fill="#f4ddbc"/>
          <path id="Trazado_875843" data-name="Trazado 875843" d="M63.1,365.036c-3.51,6.235-8.289,12.1-14.832,15A9.114,9.114,0,0,1,44.08,381a4.223,4.223,0,0,1-3.546-2.133c-.784-1.629-.092-3.6.945-5.076,2.276-3.266,6-5.225,9.752-6.564A53.04,53.04,0,0,1,62.645,364.9l.456.133" transform="translate(-11.295 -102.534)" fill="#f4ddbc"/>
          <path id="Trazado_875844" data-name="Trazado 875844" d="M18.783,330.958l-.191.263c-7.813-3.276-15.183-8.85-18.074-16.81-.681-1.881-.916-4.381.723-5.523a3.418,3.418,0,0,1,3.177-.2,8.329,8.329,0,0,1,2.663,1.951c5.72,5.684,9.179,13.216,12.176,20.728-.162-.13-.316-.274-.475-.411" transform="translate(0 -86.656)" fill="#f4ddbc"/>
          <path id="Trazado_875845" data-name="Trazado 875845" d="M35.213,352.884a.5.5,0,0,0,.075.068c-3,2.537-5.564,5.564-8.549,8.123-3,2.57-6.6,4.719-10.556,4.969-1.3.076-2.914-.278-3.287-1.526a2.969,2.969,0,0,1,.474-2.221,16.071,16.071,0,0,1,6.6-6.216,31.012,31.012,0,0,1,8.7-2.857,23.35,23.35,0,0,1,6.542-.34" transform="translate(-3.603 -99.127)" fill="#f4ddbc"/>
          <path id="Trazado_875846" data-name="Trazado 875846" d="M85.327,373.194a49.479,49.479,0,0,1,6.977-3.282,90.838,90.838,0,0,1-3.45,10.83,26.594,26.594,0,0,1-2.817,5.661,8.573,8.573,0,0,1-3.493,3.1,4.531,4.531,0,0,1-4.492-.4,5.014,5.014,0,0,1-1.677-3.493A10.314,10.314,0,0,1,79.02,378.2a25,25,0,0,1,6.307-5" transform="translate(-21.451 -103.941)" fill="#f4ddbc"/>
          <path id="Trazado_875847" data-name="Trazado 875847" d="M75.657,333.06c1.747-.628,3.632.485,5.01,1.728a27.181,27.181,0,0,1,6.959,11.056,92.291,92.291,0,0,1,3.52,13.574,1.233,1.233,0,0,1-.251-.013,30.953,30.953,0,0,1-17.061-19.213,9.159,9.159,0,0,1-.485-4.009,3.9,3.9,0,0,1,2.308-3.123" transform="translate(-20.591 -93.536)" fill="#f4ddbc"/>
          <path id="Trazado_875848" data-name="Trazado 875848" d="M24.747,338.758a87.22,87.22,0,0,0,53.742,22.524.389.389,0,0,0,.05-.776,86.378,86.378,0,0,1-53.2-22.254c-.366-.333-.959.17-.59.505" transform="translate(-6.921 -95.015)" fill="#de9935"/>
          <path id="Trazado_875849" data-name="Trazado 875849" d="M361.948,375.734c-10.318,9.211-24.58,13.612-38.374,12.581a61.292,61.292,0,0,1-36.153-15.94l.645-.694a54.8,54.8,0,0,1,16.442-10.659c10.211-4.527,21.431-7.056,32.585-6.339s22.21,4.794,30.533,12.25l.551.489a21.625,21.625,0,0,1-6.229,8.313" transform="translate(-80.763 -99.628)" fill="#de9935"/>
          <path id="Trazado_875850" data-name="Trazado 875850" d="M333.448,386.171c.422.314.965-.3.54-.619L318.727,374.2q9.428-.255,18.837-.943a.367.367,0,0,0,.045.044l11.613,7.491c.444.287.8-.452.365-.736l-10.7-6.9q14.174-1.079,28.259-3.136c.52-.077.468-.9-.056-.82q-13.927,2.048-27.962,3.118L349.511,362.2c.379-.37-.243-.907-.619-.539l-10.966,10.685a.424.424,0,0,0-.047.068q-10,.742-20.036,1l10.8-13.19c.334-.408-.283-.95-.619-.539L317.041,373.1a.382.382,0,0,0-.085.333q-8,.183-16,.045l7.834-9.647c.333-.41-.285-.951-.619-.54l-8.257,10.168c-3.422-.063-6.843-.155-10.263-.3-.528-.023-.467.8.056.819q4.82.213,9.643.31a.342.342,0,0,0,.136.355L314.31,386.23c.416.325.958-.293.54-.619L300.38,374.3q8.518.151,17.033-.054l16.035,11.928" transform="translate(-81.285 -101.026)" fill="#f4ddbc"/>
          <path id="Trazado_875851" data-name="Trazado 875851" d="M296.9,344.691c-3.437-1.035-7.291-2.187-10.544-.958l-.075-.181c4.026-1.512,6.324-5.884,6.937-10.141s-.093-8.586-.15-12.885.664-8.9,3.584-12.065c5.4-5.867,15.787-4.384,21.274-10.167,2.458-2.594,3.468-6.2,4.518-9.615a88.692,88.692,0,0,1,4.936-12.809c2.159-4.417,5.208-8.909,9.919-10.328,3.333-1.013,6.982-.271,10.17,1.14,5.047,2.245,9.417,6.367,11.142,11.618a19.053,19.053,0,0,1-.975,13.546,27.282,27.282,0,0,1-8.8,10.56c-6.453,4.8-14.76,7.568-19.231,14.251-2.78,4.159-3.656,9.262-4.868,14.113s-3.04,9.916-7.031,12.939a16.458,16.458,0,0,1-10.2,2.981,39.026,39.026,0,0,1-10.6-2" transform="translate(-80.443 -74.482)" fill="#e4ab59"/>
          <path id="Trazado_875852" data-name="Trazado 875852" d="M344.929,291.486l9.28-2.9c.5-.156.356-.965-.149-.808l-8.4,2.626a63.483,63.483,0,0,0,8.283-16.583c.156-.5-.618-.776-.776-.27a62.624,62.624,0,0,1-8.111,16.283l-1.279-8.234a.411.411,0,0,0-.807.149q.7,4.537,1.409,9.075c-.761,1.1-1.537,2.2-2.338,3.274-2.786,3.742-5.73,7.373-8.758,10.932q-.2-4.132-.408-8.264c-.026-.521-.846-.59-.819-.061q.228,4.614.456,9.228-2.658,3.1-5.388,6.13-4.766,5.266-9.8,10.278l1.21-11.66a.411.411,0,0,0-.819-.062q-.638,6.147-1.276,12.3a.366.366,0,0,0,.06.244q-7.114,7.039-14.7,13.572l1.874-11.138c.088-.521-.731-.58-.819-.061q-1.012,6.012-2.023,12.023-4.207,3.586-8.545,7.017c-.416.329.113.956.528.63q4.1-3.234,8.072-6.622a.406.406,0,0,0,.288.083l13.578-1.186c.526-.046.375-.853-.149-.808l-12.77,1.116q7.936-6.795,15.357-14.16a.373.373,0,0,0,.354.126l10.311-1.65a.411.411,0,0,0-.148-.807l-9.734,1.557q5.04-5.035,9.828-10.319,2.569-2.84,5.076-5.746a.521.521,0,0,0,.068.007.418.418,0,0,0,.507.179l8.453-3.121c.5-.183.145-.926-.348-.743l-8.082,2.982c3.371-3.936,6.633-7.97,9.7-12.137q.9-1.218,1.759-2.462" transform="translate(-82.086 -76.789)" fill="#de9935"/>
          <path id="Trazado_875853" data-name="Trazado 875853" d="M324.239,300.053a39.423,39.423,0,0,1-21.4,4.706c.1-.249.2-.5.3-.748a35.123,35.123,0,0,1,10.242-10.078,21.419,21.419,0,0,1,11.224-3.491c2.006.02,4.375.772,4.892,2.714a3.943,3.943,0,0,1-.609,2.978,11.727,11.727,0,0,1-4.644,3.918" transform="translate(-85.094 -81.611)" fill="#f4ddbc"/>
          <path id="Trazado_875854" data-name="Trazado 875854" d="M295.4,332.731l-.071-.021c2.186-8.847,8.476-15.526,16.676-19.508a7.649,7.649,0,0,1,3.014-.92,3.058,3.058,0,0,1,2.742,1.292,3.4,3.4,0,0,1,.393,2.029,10.691,10.691,0,0,1-2.85,5.994c-5.065,6.02-12.552,8.327-19.9,11.133" transform="translate(-82.984 -87.747)" fill="#f4ddbc"/>
          <path id="Trazado_875855" data-name="Trazado 875855" d="M287.191,332.545c-7.094-2.619-14.01-6.624-18.137-12.965a9.634,9.634,0,0,1-1.7-4.211,4.461,4.461,0,0,1,1.633-4.057c1.568-1.091,3.742-.7,5.455.137,3.789,1.828,6.456,5.383,8.481,9.077a56.036,56.036,0,0,1,4.331,11.522c-.02.163-.042.334-.063.5" transform="translate(-75.117 -87.288)" fill="#f4ddbc"/>
          <path id="Trazado_875856" data-name="Trazado 875856" d="M313.539,279.994l-.307-.154c2.11-8.7,6.692-17.326,14.515-21.675,1.849-1.025,4.418-1.689,5.884-.171a3.614,3.614,0,0,1,.739,3.283,8.823,8.823,0,0,1-1.59,3.105c-4.973,6.92-12.254,11.79-19.591,16.176.109-.189.233-.376.35-.564" transform="translate(-88.003 -72.243)" fill="#f4ddbc"/>
          <path id="Trazado_875857" data-name="Trazado 875857" d="M296.274,301.343a.512.512,0,0,0-.057.09c-3.15-2.707-6.738-4.875-9.909-7.56-3.184-2.7-6.029-6.1-6.952-10.183-.3-1.345-.2-3.087,1.043-3.686a3.14,3.14,0,0,1,2.4.122,16.991,16.991,0,0,1,7.591,5.851,32.764,32.764,0,0,1,4.438,8.6,24.688,24.688,0,0,1,1.449,6.769" transform="translate(-78.457 -78.624)" fill="#f4ddbc"/>
          <path id="Trazado_875858" data-name="Trazado 875858" d="M280.812,357.249a52.308,52.308,0,0,1,4.592,6.731,96.105,96.105,0,0,1-11.878-1.787,28.1,28.1,0,0,1-6.378-1.992,9.059,9.059,0,0,1-3.819-3.126,4.791,4.791,0,0,1-.337-4.755,5.3,5.3,0,0,1,3.363-2.334,10.9,10.9,0,0,1,8.181,1.518,26.429,26.429,0,0,1,6.276,5.744" transform="translate(-73.762 -98.267)" fill="#f4ddbc"/>
          <path id="Trazado_875859" data-name="Trazado 875859" d="M319.31,339.748c.948,1.718.1,3.87-.965,5.518a28.725,28.725,0,0,1-10.372,9.112,97.577,97.577,0,0,1-13.575,5.946,1.279,1.279,0,0,1-.028-.264,32.709,32.709,0,0,1,17.192-21.019,9.677,9.677,0,0,1,4.1-1.178,4.118,4.118,0,0,1,3.645,1.886" transform="translate(-82.715 -94.936)" fill="#f4ddbc"/>
          <path id="Trazado_875860" data-name="Trazado 875860" d="M308.4,287.356a92.173,92.173,0,0,0-14.507,59.85.411.411,0,0,0,.818-.078,91.282,91.282,0,0,1,14.315-59.241c.286-.437-.337-.973-.626-.531" transform="translate(-82.443 -80.698)" fill="#de9935"/>
          <path id="Trazado_875861" data-name="Trazado 875861" d="M229.207,246.326a1.419,1.419,0,0,1,1.409,1.419,1.451,1.451,0,0,1-.416,1.007,1.433,1.433,0,0,1-1,.409l-117.276-.424a1.421,1.421,0,0,1-.992-2.427,1.443,1.443,0,0,1,1-.409Z" transform="translate(-31.053 -69.096)" fill="#a3a3a3"/>
          <path id="Trazado_875862" data-name="Trazado 875862" d="M229.6,165.937a1.416,1.416,0,0,1,.993,2.419,1.434,1.434,0,0,1-1,.41l-117.268-.425a1.416,1.416,0,0,1-1-2.419,1.447,1.447,0,0,1,1.009-.409Z" transform="translate(-31.162 -46.507)" fill="#a3a3a3"/>
          <path id="Trazado_875863" data-name="Trazado 875863" d="M189.556,347.4a1.419,1.419,0,0,1,1.409,1.419,1.451,1.451,0,0,1-.416,1.007,1.433,1.433,0,0,1-1,.409l-77.591-.28a1.418,1.418,0,1,1,.01-2.836Z" transform="translate(-31.062 -97.536)" fill="#a3a3a3"/>
          <path id="Trazado_875864" data-name="Trazado 875864" d="M229.388,186.419a1.419,1.419,0,0,1,1.409,1.419,1.41,1.41,0,0,1-1.419,1.41l-117.268-.425A1.419,1.419,0,0,1,110.7,187.4a1.41,1.41,0,0,1,1.419-1.409Z" transform="translate(-31.106 -52.263)" fill="#a3a3a3"/>
          <path id="Trazado_875865" data-name="Trazado 875865" d="M229.074,227.392a1.415,1.415,0,1,1-.01,2.829L111.8,229.8a1.416,1.416,0,0,1-.992-2.419,1.443,1.443,0,0,1,1-.409Z" transform="translate(-31.017 -63.776)" fill="#a3a3a3"/>
          <path id="Trazado_875866" data-name="Trazado 875866" d="M236.059,97.384,235.3,306.99l-137.471-.5.759-209.607,21.148.076a24.716,24.716,0,0,0-.015,4.153l47.584.172h.378l47.591.173a24.685,24.685,0,0,0,.015-4.153Zm-8.727,50.69a1.42,1.42,0,0,0-1.41-1.42l-117.268-.424a1.449,1.449,0,0,0-1.01.409,1.416,1.416,0,0,0,1,2.419l117.268.425a1.412,1.412,0,0,0,1.42-1.409m.053-28.348a1.419,1.419,0,0,0-1.409-1.419l-117.268-.425a1.41,1.41,0,0,0-1.419,1.409,1.42,1.42,0,0,0,1.409,1.42l117.268.424a1.41,1.41,0,0,0,1.419-1.409m-.333,86.147a1.419,1.419,0,0,0-1.409-1.419l-117.275-.424a1.41,1.41,0,0,0-1.42,1.409,1.421,1.421,0,0,0,1.409,1.427l117.276.424a1.43,1.43,0,0,0,1-.409,1.448,1.448,0,0,0,.417-1.007m.128-43.074a1.419,1.419,0,0,0-1.409-1.419L108.5,160.956a1.415,1.415,0,0,0-.01,2.829l117.268.424a1.41,1.41,0,0,0,1.419-1.409m-.074,14.734a1.422,1.422,0,0,0-1.41-1.427l-117.268-.424A1.434,1.434,0,0,0,107,177.1a1.421,1.421,0,0,0,1.416,1.42l117.268.424a1.412,1.412,0,0,0,1.42-1.409m.134-43.081a1.421,1.421,0,0,0-1.416-1.42l-117.268-.424a1.41,1.41,0,0,0-1.42,1.409,1.421,1.421,0,0,0,1.409,1.427l117.268.425a1.435,1.435,0,0,0,1.427-1.416m-.279,57.807a1.421,1.421,0,0,0-1.416-1.419l-117.268-.425a1.41,1.41,0,0,0-1.419,1.41,1.419,1.419,0,0,0,1.409,1.419l117.268.425a1.424,1.424,0,0,0,1-.41,1.41,1.41,0,0,0,.423-1m-31.513,71.547a1.42,1.42,0,0,0-1.409-1.42l-85.63-.31a1.412,1.412,0,0,0-1.42,1.409,1.421,1.421,0,0,0,1.41,1.42l85.63.31a1.412,1.412,0,0,0,1.419-1.409m-.056-13.614a1.421,1.421,0,0,0-1.409-1.427l-85.63-.31a1.418,1.418,0,0,0-.01,2.837l85.63.31a1.41,1.41,0,0,0,1.419-1.409m-8,28.311a1.419,1.419,0,0,0-1.41-1.419l-77.591-.281a1.418,1.418,0,0,0-.01,2.836l77.591.28a1.432,1.432,0,0,0,1-.409,1.448,1.448,0,0,0,.417-1.007m-.168-58.04a1.421,1.421,0,0,0-1.409-1.427l-77.591-.281a1.429,1.429,0,0,0-1,.41,1.448,1.448,0,0,0-.417,1.007,1.42,1.42,0,0,0,1.41,1.42l77.591.28a1.41,1.41,0,0,0,1.419-1.409" transform="translate(-27.489 -27.224)" fill="#fff"/>
          <path id="Trazado_875867" data-name="Trazado 875867" d="M301,95.965l-.762,210.552a8.589,8.589,0,0,1-8.624,8.561l-5.665-.021a8.589,8.589,0,0,0,8.624-8.561l.762-210.552a8.589,8.589,0,0,0-8.561-8.623l5.665.02A8.59,8.59,0,0,1,301,95.965" transform="translate(-80.349 -24.536)" fill="#eee4ba"/>
          <path id="Trazado_875868" data-name="Trazado 875868" d="M197.62,326.943a1.419,1.419,0,0,1,1.409,1.419,1.41,1.41,0,0,1-1.419,1.41l-85.63-.31a1.42,1.42,0,0,1-1.409-1.42,1.409,1.409,0,0,1,1.419-1.409Z" transform="translate(-31.069 -91.781)" fill="#a3a3a3"/>
          <path id="Trazado_875869" data-name="Trazado 875869" d="M197.542,308a1.421,1.421,0,0,1,1.409,1.427,1.409,1.409,0,0,1-1.419,1.409l-85.63-.31a1.418,1.418,0,0,1,.01-2.836Z" transform="translate(-31.047 -86.458)" fill="#a3a3a3"/>
          <path id="Trazado_875870" data-name="Trazado 875870" d="M189.322,266.664a1.418,1.418,0,1,1-.01,2.836l-77.591-.28a1.42,1.42,0,0,1-1.409-1.42,1.41,1.41,0,0,1,1.419-1.416Z" transform="translate(-30.997 -74.851)" fill="#a3a3a3"/>
          <path id="Trazado_875871" data-name="Trazado 875871" d="M223.814,97.338a24.674,24.674,0,0,1-.015,4.152l-47.591-.172h-.378l-47.584-.173a24.71,24.71,0,0,1,.015-4.152Z" transform="translate(-36.014 -27.254)" fill="#dbd3e8"/>
          <path id="Trazado_875872" data-name="Trazado 875872" d="M240.259,95.758,239.5,306.31a8.59,8.59,0,0,1-8.624,8.561L98.5,314.391a8.589,8.589,0,0,1-8.561-8.623L90.7,95.216a8.589,8.589,0,0,1,8.623-8.561l20.063.073a20.812,20.812,0,0,0-1.869,7.361l-21.148-.077-.759,209.607,137.471.5.759-209.607-20.77-.075a20.809,20.809,0,0,0-1.815-7.373l20.441.073a8.59,8.59,0,0,1,8.561,8.624" transform="translate(-25.272 -24.349)" fill="#f5efd6"/>
          <path id="Trazado_875873" data-name="Trazado 875873" d="M229.673,126.512a1.416,1.416,0,0,1,.993,2.419,1.447,1.447,0,0,1-1,.41l-117.268-.425a1.416,1.416,0,0,1-.992-2.419,1.443,1.443,0,0,1,1-.409Z" transform="translate(-31.186 -35.429)" fill="#a3a3a3"/>
          <path id="Trazado_875874" data-name="Trazado 875874" d="M222.765,78.743,130.9,78.411a11.142,11.142,0,0,1,8.377-6.391c11.905-2.128,17.01-3.9,20.8-9.365,3.562-5.12,15.4-5.567,16.869-5.6h.028c1.877.07,13.275.685,16.716,5.719,3.762,5.49,8.853,7.3,20.743,9.515a11.153,11.153,0,0,1,8.33,6.452m-41.11-12.516a5.508,5.508,0,1,0-5.524,5.484,5.507,5.507,0,0,0,5.524-5.484" transform="translate(-36.78 -16.033)" fill="#dbd3e8"/>
          <path id="Trazado_875875" data-name="Trazado 875875" d="M229.282,206.9a1.421,1.421,0,0,1,1.409,1.427,1.409,1.409,0,0,1-1.419,1.409L112,209.313a1.421,1.421,0,0,1-1.416-1.419,1.434,1.434,0,0,1,1.427-1.416Z" transform="translate(-31.074 -58.018)" fill="#a3a3a3"/>
          <path id="Trazado_875876" data-name="Trazado 875876" d="M223.85,94.461,128.3,94.115a20.817,20.817,0,0,1,1.869-7.361l91.869.333a20.809,20.809,0,0,1,1.815,7.373" transform="translate(-36.05 -24.377)" fill="#efebf4"/>
          <path id="Trazado_875877" data-name="Trazado 875877" d="M229.463,146.993a1.421,1.421,0,0,1,1.416,1.42,1.434,1.434,0,0,1-1.427,1.416L112.184,149.4a1.421,1.421,0,0,1-1.409-1.426,1.41,1.41,0,0,1,1.419-1.409Z" transform="translate(-31.127 -41.184)" fill="#a3a3a3"/>
          <path id="Trazado_875878" data-name="Trazado 875878" d="M143.209,293.557c-5.982.453-11.619.295-11.619.295l-2.524-8.139-1.79,6.974-1.172-.244-5.349-1.107s5.385-2.912,4.127-14.157a51.382,51.382,0,0,1,1.79-20.2c.079-.043.165-.079.244-.122q5.457-2.739,10.915-5.479l.41.5a94.33,94.33,0,0,1,16.293,13.51c.007.05.014.108.022.158l1.848,24.626c-1.711,1.747-6.2,2.682-10.893,3.178-.762.079-1.539.151-2.3.209" transform="translate(-33.931 -70.633)" fill="#1f1f1f"/>
          <path id="Trazado_875879" data-name="Trazado 875879" d="M150.9,267.218a34.352,34.352,0,0,1-7.058,14.456c-.293.354.214.866.508.508a35.109,35.109,0,0,0,7.243-14.773c.1-.451-.592-.643-.693-.191" transform="translate(-40.394 -75.013)"/>
          <path id="Trazado_875880" data-name="Trazado 875880" d="M158.4,272.846a49.2,49.2,0,0,1-6.535,12.822c-.268.377.355.737.621.362a49.853,49.853,0,0,0,6.607-12.993c.148-.439-.546-.628-.693-.191" transform="translate(-42.655 -76.597)"/>
          <path id="Trazado_875881" data-name="Trazado 875881" d="M133.725,257.6c.086-.452-.608-.646-.693-.191a113.734,113.734,0,0,0-1.677,29.379c.033.459.753.462.719,0a112.986,112.986,0,0,1,1.651-29.188" transform="translate(-36.825 -72.257)"/>
          <path id="Trazado_875882" data-name="Trazado 875882" d="M198.021,248.225a5.76,5.76,0,0,1-.158,1.043c-.4,1.733-.626,3.3-2.042,3.839a4.525,4.525,0,0,1-2.337.108,9.916,9.916,0,0,0,1.409-3.573h.007s.209-.158.5-.417a5.85,5.85,0,0,0,1.539-1.92c.4-.992,1.165-.647,1.079.92" transform="translate(-54.367 -69.333)" fill="#dff1e2"/>
          <path id="Trazado_875883" data-name="Trazado 875883" d="M162.1,214.926l-.259.151c-.014.029-.022.065-.036.093q-6.525-6.1-12.511-12.726l-.108.036c-.877-2.5-1.654-4.724-2.229-6.327a13.077,13.077,0,0,0-3.178-5.127l.18-.2c.338-.956.676-1.905,1.014-2.862l.072.029q1.855,2.761,3.689,5.536,6.924,10.537,13.366,21.4" transform="translate(-40.402 -52.816)" fill="#e9dba4"/>
          <path id="Trazado_875884" data-name="Trazado 875884" d="M163.923,220.829q-.841,2.233-1.7,4.465-1,2.653-2.013,5.292l-1.294-.467s-4.429-12.842-7.614-21.98l.108-.036q5.986,6.622,12.511,12.726" transform="translate(-42.515 -58.475)" fill="#e9dba4"/>
          <path id="Trazado_875885" data-name="Trazado 875885" d="M163.746,214.656c.014-.029.022-.065.036-.093l.259-.151q-6.428-10.85-13.366-21.4l.209-.137q6.363,6.482,12.734,12.957l.036.022q6.288-9.987,13.007-19.694l.014-.029c.065.029.122.065.187.093.956.5,1.905,1,2.862,1.5.1.058.194.108.295.158l.158.007a20,20,0,0,1-1.632,4.609q-6.374,14.085-12.978,28.056l-.093.1a13.759,13.759,0,0,1-2.919-1.345l-.5-.187q.852-2.233,1.7-4.465" transform="translate(-42.338 -52.301)" fill="#e9dba4"/>
          <path id="Trazado_875886" data-name="Trazado 875886" d="M188.471,172.776h.022a10.437,10.437,0,0,1,2.25-.467,1.551,1.551,0,0,1,1.984,1.618,13.513,13.513,0,0,1,.05,4.134,4.036,4.036,0,0,1-.848,2.215c-.633.7-1.639.985-2.3,1.668-.956-.5-1.905-.992-2.862-1.5q-.367-5.3-.733-10.605a18.639,18.639,0,0,1-.022-3.638.82.82,0,0,1,.194-.518.6.6,0,0,1,.777.058,1.627,1.627,0,0,1,.388.748,23.969,23.969,0,0,1,1.1,6.284" transform="translate(-52.244 -46.523)" fill="#dff1e2"/>
          <path id="Trazado_875887" data-name="Trazado 875887" d="M141.168,184.353c.223.137.446.266.669.4l.072.058c-.1.28-.194.561-.295.841-.338.956-.676,1.905-1.014,2.862l-.18.2a8.938,8.938,0,0,0-5.313-2.574l-.388.173q-1.5-1.478-2.9-3.027a10.639,10.639,0,0,0,2.459-3.559,75.424,75.424,0,0,0,6.9,4.63" transform="translate(-37.038 -50.5)" fill="#fff"/>
          <path id="Trazado_875888" data-name="Trazado 875888" d="M133.745,188.816l.388-.173a8.937,8.937,0,0,1,5.313,2.574,13.077,13.077,0,0,1,3.178,5.127c.575,1.6,1.352,3.825,2.229,6.327,3.185,9.139,7.614,21.98,7.614,21.98l1.294.467,22.829,8.2a9.917,9.917,0,0,1-1.409,3.573,6.064,6.064,0,0,1-.4.561q-10.472-2.524-20.93-5.062-2.89-.69-5.781-1.395l.022-.1q-7.355-10.257-14.143-20.916a46.36,46.36,0,0,1-4.817-9.052,10.138,10.138,0,0,1-.719-4.825,9.277,9.277,0,0,1,1.51-3.645,9.966,9.966,0,0,1,3.818-3.638" transform="translate(-36.064 -53.007)" fill="#e9dba4"/>
          <path id="Trazado_875889" data-name="Trazado 875889" d="M123.616,201.67c-.324-5.788,1.064-11.806,4.889-16.127l-.022-.036a8.684,8.684,0,0,0,1.014-.834q1.4,1.553,2.9,3.027a9.966,9.966,0,0,0-3.818,3.638,9.277,9.277,0,0,0-1.51,3.645,10.138,10.138,0,0,0,.719,4.825,46.359,46.359,0,0,0,4.817,9.052q6.784,10.645,14.143,20.916l-.022.1q2.89.7,5.781,1.395,1.726,7.614,2.811,15.372a94.328,94.328,0,0,0-16.293-13.51l-.41-.5q-5.468,2.729-10.915,5.479l-.316-.626q1.176-5.436,2.351-10.879a9.552,9.552,0,0,0,.324-2.847,9.772,9.772,0,0,0-.892-2.869c-2.445-5.731-4.81-11.612-5.45-17.81-.05-.467-.086-.935-.108-1.409" transform="translate(-34.722 -51.891)" fill="#e9dba4"/>
          <path id="Trazado_875890" data-name="Trazado 875890" d="M158.1,215.066l0-.009a.3.3,0,0,0-.1-.359.322.322,0,0,0-.039-.147q-6.262-10.84-13.087-21.337c-.252-.386-.874-.027-.621.363q6.383,9.817,12.268,19.941l-10.6-10.172a.37.37,0,0,0-.109-.069c-.934-2.679-1.821-5.4-2.942-8a11.122,11.122,0,0,0-4.645-5.7c-4.385-2.345-8.754,1.033-9.319,5.577a15.142,15.142,0,0,0,1.56,7.851,98.083,98.083,0,0,0,4.464,8.758c3.813,6.8,8.164,13.271,12.508,19.736a.35.35,0,0,0,.35.156l6.055,1.232c.452.092.645-.6.191-.694l-6.1-1.24c-3.126-4.651-6.25-9.306-9.175-14.088a96.992,96.992,0,0,1-8.1-15.262c-1.049-2.716-1.653-5.823-.418-8.583a5.433,5.433,0,0,1,7.857-2.686c2.528,1.461,3.783,4.226,4.76,6.848,1.04,2.791,2.013,5.608,3.017,8.412l6.9,19.282c.155.433.85.246.693-.191l-7.149-19.965,10.955,10.511-1.616,4.5c-.157.436.538.624.694.191l1.583-4.407a.351.351,0,0,0,.162-.453" transform="translate(-36.199 -53.056)" fill="#ddc773"/>
          <path id="Trazado_875891" data-name="Trazado 875891" d="M139.4,238.857a43.961,43.961,0,0,1-6.439-7.657c-.255-.384-.878-.024-.621.363a44.832,44.832,0,0,0,6.552,7.8c.336.319.845-.189.508-.508" transform="translate(-37.169 -64.919)" fill="#ddc773"/>
          <path id="Trazado_875892" data-name="Trazado 875892" d="M137.785,242.106l-2.238-2.286c-.324-.331-.833.178-.508.508l2.238,2.286c.324.331.833-.178.508-.508" transform="translate(-37.915 -67.357)" fill="#ddc773"/>
          <path id="Trazado_875893" data-name="Trazado 875893" d="M139.635,157.181a14.6,14.6,0,0,0,9.29-9.628c.029.086.05.165.072.252a18.2,18.2,0,0,1,.669,4.393,6.558,6.558,0,0,0,.331,2.488,5.123,5.123,0,0,0,1.021,1.4c.475.5.956.978,1.452,1.445.18.173.381.381.338.633a.641.641,0,0,1-.129.273c-.726,1.05-1.927,1.776-2.394,2.962a6.085,6.085,0,0,0-.309,1.762,25.427,25.427,0,0,1-.475,3.113,5.857,5.857,0,0,1-.741,2.042,4.374,4.374,0,0,1-4.408,1.632,7.216,7.216,0,0,1-2.207-.805l-.029.05a37.243,37.243,0,0,0-.352,6l-.072.115a75.421,75.421,0,0,1-6.9-4.63c.108-.252.208-.518.295-.777a13.754,13.754,0,0,0-.288-8.952,14.012,14.012,0,0,1-1.122-3.782,3.078,3.078,0,0,1,1.819-3.192,2.905,2.905,0,0,1,2.862.971,6.863,6.863,0,0,1,1.273,2.229" transform="translate(-37.562 -41.461)" fill="#dff1e2"/>
          <path id="Trazado_875894" data-name="Trazado 875894" d="M143.22,175.648a27.545,27.545,0,0,1-4.794-4.867c-.278-.362-.9-.005-.621.363a28.229,28.229,0,0,0,4.907,5.012c.359.285.871-.221.508-.508" transform="translate(-38.702 -47.945)" fill="#c5e5cb"/>
          <path id="Trazado_875895" data-name="Trazado 875895" d="M128.755,306.107l1.79-6.974,2.524,8.139s5.637.158,11.619-.295l-8.808,60.785-.151,1.035h-5.817s-4.781-31.148-3.746-34.764,4.781-10.864,4.781-10.864l-3.365-17.3v-.007Z" transform="translate(-35.41 -84.053)" fill="#dff1e2"/>
          <path id="Trazado_875896" data-name="Trazado 875896" d="M139.733,394.59h2.639l3.617,6.78,7.24,5.63H148.85l-5.062-3.3-4.264-8.082.151-1.035Z" transform="translate(-39.205 -110.874)" fill="#ddc773"/>
          <path id="Trazado_875897" data-name="Trazado 875897" d="M150.843,309.753l-8.412,61h-2.639l-.058-.007,8.808-60.785c.762-.057,1.539-.129,2.3-.209" transform="translate(-39.264 -87.037)" fill="#dff1e2"/>
          <path id="Trazado_875898" data-name="Trazado 875898" d="M146.577,407.4l2.567,1.675H137.46l-4.472-4.846v4.587h-1.553v-12.8h5.817l4.264,8.082Z" transform="translate(-36.932 -111.278)" fill="#ddc773"/>
          <path id="Trazado_875899" data-name="Trazado 875899" d="M146.906,310.25q-2.329,30.143-7.264,60c-.075.453.618.648.693.191q4.949-29.922,7.29-60.192c.036-.462-.684-.459-.719,0" transform="translate(-39.236 -87.08)" fill="#c5e5cb"/>
          <path id="Trazado_875900" data-name="Trazado 875900" d="M123.425,166.527a10.639,10.639,0,0,1-2.459,3.559,8.68,8.68,0,0,1-1.014.834l.022.036c-3.825,4.321-5.213,10.339-4.889,16.127a14.107,14.107,0,0,1-11.662-1.905c-3.365-2.473-5.17-7.169-3.681-11.073a10.448,10.448,0,0,1-4.767-2.783c-2.207-2.481-2.251-6.406-.661-9.326a13.992,13.992,0,0,1,7.636-6.047c2.056-.762,4.292-1.23,6-2.6,2.43-1.956,3.228-5.234,4.285-8.168a23.016,23.016,0,0,1,4.53-7.873,13.755,13.755,0,0,1,7.823-4.415A11.3,11.3,0,0,1,137.6,143.246a.6.6,0,0,1-.043.151,14.6,14.6,0,0,1-9.29,9.628,6.863,6.863,0,0,0-1.273-2.229,2.905,2.905,0,0,0-2.862-.971,3.078,3.078,0,0,0-1.819,3.192,14.013,14.013,0,0,0,1.122,3.782,13.754,13.754,0,0,1,.288,8.952c-.086.259-.187.525-.295.777" transform="translate(-26.19 -37.305)" fill="#1f1f1f"/>
          <path id="Trazado_875901" data-name="Trazado 875901" d="M133.928,135.894a11.6,11.6,0,0,0-12.966,2.225c-3.952,3.927-3.389,9.613-5.271,14.476-2.5,6.466-9.2,6.345-14.758,8.449-3.878,1.468-7.794,5.262-6.054,9.756.165.427.861.242.693-.191-2.35-6.071,5.058-8.924,9.52-10.029,3.871-.958,7.975-2.03,10.237-5.62,2.657-4.218,1.928-9.6,4.318-13.92a10.847,10.847,0,0,1,13.918-4.525c.42.185.786-.434.363-.621" transform="translate(-26.541 -37.888)"/>
          <path id="Trazado_875902" data-name="Trazado 875902" d="M137.815,139.972c.175,6.807-9.462,6.233-13.4,9.43-4.081,3.311-2.682,8.845-2.647,13.379.027,3.5-1.063,6.413-4.183,8.238-2.581,1.51-5.588,1.983-8.318,3.14-3.776,1.6-7.608,5.507-5.2,9.814a.359.359,0,0,0,.62-.362c-1.932-3.451.808-6.762,3.8-8.307,2.548-1.314,5.429-1.772,8.036-2.944,4.629-2.078,6.16-5.853,5.918-10.746-.129-2.622-.567-5.3.08-7.893.824-3.3,3.562-4.85,6.589-5.827,3.949-1.273,9.553-2.718,9.418-7.922a.36.36,0,0,0-.719,0" transform="translate(-29.031 -39.233)"/>
          <path id="Trazado_875903" data-name="Trazado 875903" d="M122.489,192.068a13.57,13.57,0,0,0-7.086,11.567c-.014.463.705.462.719,0a12.842,12.842,0,0,1,6.73-10.946c.406-.221.044-.842-.363-.621" transform="translate(-32.427 -53.956)"/>
          <path id="Trazado_875904" data-name="Trazado 875904" d="M270.027,408.073v5.687l-22.383.69,14.186-6.378Z" transform="translate(-69.586 -114.664)" fill="#080808"/>
          <path id="Trazado_875905" data-name="Trazado 875905" d="M227.539,405.1l.546,8.513H203.524l15.71-8.513Z" transform="translate(-57.188 -113.83)" fill="#080808"/>
          <path id="Trazado_875906" data-name="Trazado 875906" d="M228.322,280.261a21.059,21.059,0,0,1,1.949-1.8l4.472,2.193,6.6,30.889-1.532,3.494c1.97,4.458,1.532,7.37,1.532,7.37l-7.665,47.11h-8.3l2.358-88.618c.187-.216.381-.431.59-.64" transform="translate(-63.328 -78.245)" fill="#1f1f1f"/>
          <path id="Trazado_875907" data-name="Trazado 875907" d="M265.683,368.965h-8.2l-14.229-60.109-6.6-30.889-4.472-2.193c.762-.626,1.553-1.222,2.344-1.819q3.171-2.394,6.349-4.789l.151-.273a221.753,221.753,0,0,0,19.96,9.771s-.05.935-.129,2.473c-.359,6.68-1.395,24.8-2.1,28.106,0,0,4.408,6.787,5.5,12.41s1.424,47.311,1.424,47.311" transform="translate(-65.241 -75.556)" fill="#1f1f1f"/>
          <path id="Trazado_875908" data-name="Trazado 875908" d="M238.547,285.013c-.061-.444-.715-.27-.692.158l-7.673-4.339a.359.359,0,0,0-.362.621l7.7,4.356a.332.332,0,0,0,.406-.045q1.8,13.1,3.605,26.2c.063.456.756.262.693-.191l-3.682-26.757" transform="translate(-64.528 -78.897)"/>
          <path id="Trazado_875909" data-name="Trazado 875909" d="M263.035,318.512l-4.278,10.271c-.178.426.518.613.693.191l4.278-10.271c.178-.427-.518-.613-.693-.191" transform="translate(-72.7 -89.432)"/>
          <path id="Trazado_875910" data-name="Trazado 875910" d="M265.822,327.292l-3.159,5.786c-.221.406.4.77.621.363l3.158-5.786c.222-.406-.4-.77-.62-.363" transform="translate(-73.793 -91.916)"/>
          <path id="Trazado_875911" data-name="Trazado 875911" d="M240.8,338.478q-2.215,4.66-4.43,9.321c-.2.416.422.782.62.363l4.43-9.321c.2-.416-.422-.782-.62-.363" transform="translate(-66.407 -95.057)"/>
          <path id="Trazado_875912" data-name="Trazado 875912" d="M242.669,346.317l-2.519,5.623c-.188.418.432.785.621.363l2.519-5.623c.188-.419-.431-.785-.62-.363" transform="translate(-67.47 -97.259)"/>
          <path id="Trazado_875913" data-name="Trazado 875913" d="M196.868,245.913a2.494,2.494,0,0,1,2.286-1.265,3.678,3.678,0,0,1,1.891,1.136l.014.043.28,1.05a3.669,3.669,0,0,0-.884.1,6.236,6.236,0,0,0-1.718.654c.086-1.567-.676-1.913-1.079-.92a5.85,5.85,0,0,1-1.539,1.92l-.086-.1a7.347,7.347,0,0,1,.834-2.617" transform="translate(-55.084 -68.74)" fill="#c5e5cb"/>
          <path id="Trazado_875914" data-name="Trazado 875914" d="M203.421,251.1c.007,1.194.065,2.545-.777,3.394a3.623,3.623,0,0,1-3.25.6,4.3,4.3,0,0,1-2.387-1.1l-.273-.6c1.416-.539,1.639-2.107,2.042-3.84a5.758,5.758,0,0,0,.158-1.043,6.235,6.235,0,0,1,1.718-.654,3.667,3.667,0,0,1,.884-.1,1.791,1.791,0,0,1,.8.194,2.059,2.059,0,0,1,.971,1.4,5.966,5.966,0,0,1,.115,1.388Z" transform="translate(-55.28 -69.616)" fill="#c5e5cb"/>
          <path id="Trazado_875915" data-name="Trazado 875915" d="M203.3,241.38l-.28-1.05q8.456-7.625,16.918-15.257l.1.007c-.309,4.328-.367,8.678-.244,13.028l-.7.022q-6.805,3.419-13.906,6.234a5.968,5.968,0,0,0-.115-1.388,2.059,2.059,0,0,0-.971-1.4,1.791,1.791,0,0,0-.8-.194" transform="translate(-57.048 -63.243)" fill="#e4ab59"/>
          <path id="Trazado_875916" data-name="Trazado 875916" d="M239.366,246.636l-.151.273q-3.171,2.394-6.349,4.789c-.791.6-1.582,1.194-2.344,1.819a21.048,21.048,0,0,0-1.949,1.8c-1.007-9.016-2-18.09-2.243-27.15-.122-4.35-.065-8.7.244-13.028.108-1.531.244-3.063.424-4.594,4.372-7.607,9.146-15.142,15.739-20.858a9.163,9.163,0,0,0-1.057,5.594c.4,2.7,2.056,5.019,3.7,7.19q6.223,8.218,13.172,15.861-3.333,7.388-6.464,14.876v.007a131.538,131.538,0,0,1,7.391,23.159l-.158.036a221.766,221.766,0,0,1-19.96-9.771" transform="translate(-63.58 -53.299)" fill="#e4ab59"/>
          <path id="Trazado_875917" data-name="Trazado 875917" d="M252.845,172.554c.338-.244.676-.489,1.014-.741q.032,3.473.065,6.931h-.194c-.1,0-.194.007-.295.014a12.932,12.932,0,0,0-8.254,3.142,10.488,10.488,0,0,0-2.157,2.761c-6.593,5.716-11.368,13.251-15.739,20.858.043-.431.1-.87.158-1.3.244-.748.489-1.488.733-2.236.575-1.754,1.158-3.516,1.884-5.22a43.214,43.214,0,0,1,9.965-13.855c.093-.093.194-.187.288-.28a120.038,120.038,0,0,1,12.532-10.073" transform="translate(-63.864 -48.278)" fill="#e09e3f"/>
          <path id="Trazado_875918" data-name="Trazado 875918" d="M244.508,181.828q-.356-2.869-.561-5.745a1.639,1.639,0,0,1,.079-.834,1.039,1.039,0,0,1,.2-.266,2.453,2.453,0,0,1,.467-.345,81.513,81.513,0,0,1,11.6-5.975,7.687,7.687,0,0,0,.575.511l.252-.288a1.115,1.115,0,0,1,.029.151,16.326,16.326,0,0,1,.367,2.632,120.044,120.044,0,0,0-12.532,10.073c-.093.093-.194.187-.288.28Z" transform="translate(-68.542 -47.393)" fill="#fff"/>
          <path id="Trazado_875919" data-name="Trazado 875919" d="M248.728,187.376a10.488,10.488,0,0,1,2.157-2.761,12.932,12.932,0,0,1,8.254-3.142,238.167,238.167,0,0,1,19,32.866l.036.007c-.266,3.236-.661,6.464-1.05,9.678q-1.467,11.961-2.926,23.921c-.1,0-.194.007-.295.007-1.244.036-2.488.065-3.732.093-.058,0-.108.007-.165.007q-2.319-14.819-3.394-29.789-1.046-1.111-2.064-2.243-6.935-7.636-13.172-15.861c-1.647-2.171-3.307-4.494-3.7-7.19a9.163,9.163,0,0,1,1.057-5.594" transform="translate(-69.569 -50.992)" fill="#e4ab59"/>
          <path id="Trazado_875920" data-name="Trazado 875920" d="M265.572,218.783a93.193,93.193,0,0,1-15.821-27.556c-.157-.431-.853-.245-.693.191a94.19,94.19,0,0,0,16.006,27.873c.3.357.8-.155.508-.508" transform="translate(-69.976 -53.664)" fill="#de9935"/>
          <path id="Trazado_875921" data-name="Trazado 875921" d="M243.468,244.333,232.958,258c-.282.367.343.725.621.363L244.088,244.7c.282-.367-.342-.725-.62-.363" transform="translate(-65.439 -68.613)" fill="#de9935"/>
          <path id="Trazado_875922" data-name="Trazado 875922" d="M248.732,250.826a67.32,67.32,0,0,0-12.708,9.4c-.339.317.171.825.508.508a66.537,66.537,0,0,1,12.563-9.284.36.36,0,0,0-.363-.621" transform="translate(-66.289 -70.466)" fill="#de9935"/>
          <path id="Trazado_875923" data-name="Trazado 875923" d="M283.948,223.824l-2.755,4.5c-.242.4.379.757.621.363l2.755-4.5c.242-.4-.379-.758-.62-.363" transform="translate(-78.997 -62.844)" fill="#de9935"/>
          <path id="Trazado_875924" data-name="Trazado 875924" d="M226.5,225.883c.063-.452-.63-.649-.693-.191a54.442,54.442,0,0,0-.37,11.6c.035.459.754.462.719,0a53.541,53.541,0,0,1,.344-11.4" transform="translate(-63.302 -63.344)" fill="#de9935"/>
          <path id="Trazado_875925" data-name="Trazado 875925" d="M315.794,283.569c-.914.049-1.956.1-3.117.147-6.632.314-16.961.756-27.98,1.1l-.55-9.85c17.85-1.585,33.929-2.652,35.286-2.727,3.159-.175,5.871.613,6.148,5.574s-2.376,5.367-5.535,5.543c-.373.024-1.888.1-4.252.217" transform="translate(-79.843 -76.489)" fill="#1f1f1f"/>
          <path id="Trazado_875926" data-name="Trazado 875926" d="M224.315,285.81l-.026-.524-.187-3.361-.037-.647c9.437-1.942,27.048-3.8,43.2-5.241l.551,9.85q-1.931.059-3.882.106c-15.081.407-30.787.553-39.618-.183" transform="translate(-62.96 -77.563)" fill="#474747"/>
          <path id="Trazado_875927" data-name="Trazado 875927" d="M319.78,287.706s-5.058,4.766-6.427,5.385-27.317.473-27.317.473l-2.838-3.792,7.365-.183-.618,2.053,22.16.011,2.254-3.671Z" transform="translate(-79.575 -80.842)" fill="#cbbfdd"/>
          <path id="Trazado_875928" data-name="Trazado 875928" d="M223.756,283.7l-.847.142.166,3.742.907.2Z" transform="translate(-62.635 -79.716)" fill="#cbbfdd"/>
          <path id="Trazado_875929" data-name="Trazado 875929" d="M221.311,285.072l-3.694.507s-.606.342-.519.7.835.454.835.454l3.455.084Z" transform="translate(-61 -80.102)" fill="#9f89c0"/>
          <path id="Trazado_875930" data-name="Trazado 875930" d="M282.8,282.554a1.178,1.178,0,0,1-.137.741,1.144,1.144,0,0,1-.741.367,12.686,12.686,0,0,1-6.651-.453.851.851,0,0,1-.381-.223.517.517,0,0,1-.122-.367,1.74,1.74,0,0,1,.1-.5q1.359-4.088,2.941-8.089c1.244-.029,2.488-.058,3.732-.093a44.066,44.066,0,0,1,1.258,8.621" transform="translate(-77.206 -76.972)" fill="#c5e5cb"/>
          <path id="Trazado_875931" data-name="Trazado 875931" d="M233.48,155.979a10.636,10.636,0,0,1-2.574-1.618l-.122-.086c1.179-1.647,2.344-3.293,3.5-4.954a10.413,10.413,0,0,1-.18-4.954,7.267,7.267,0,0,1,1.833-3.444,10.557,10.557,0,0,0,7.054.676l.057.23a18.15,18.15,0,0,0-1.38,4.134,6.106,6.106,0,0,0,.683,4.213,1.765,1.765,0,0,0,1.416.956,1.971,1.971,0,0,0,1.337-.87,12.609,12.609,0,0,0,1.179-1.7,4.593,4.593,0,0,1,1.532-1.913c1.215-.661,2.8.209,3.451,1.431a4.283,4.283,0,0,1-.237,4.364,10.093,10.093,0,0,0-1.517,2.128,3.971,3.971,0,0,0,.633,3.185,13.384,13.384,0,0,0,2.459,3.113,81.507,81.507,0,0,0-11.6,5.975,2.453,2.453,0,0,0-.467.345c-.029-1.309-.058-2.61-.086-3.911a65.235,65.235,0,0,1-6.708-.1h-.014c-.187-2.394-.273-4.8-.244-7.2" transform="translate(-64.848 -39.598)" fill="#c5e5cb"/>
          <path id="Trazado_875932" data-name="Trazado 875932" d="M252.437,163.972l-7.746,5.12c-.385.255-.024.877.363.621l7.746-5.121c.384-.254.024-.876-.363-.62" transform="translate(-68.709 -46.058)" fill="#aad9b2"/>
          <path id="Trazado_875933" data-name="Trazado 875933" d="M260.4,139.784a2.757,2.757,0,0,1,1.927,1.833,5.505,5.505,0,0,1,.029,2.977,11.723,11.723,0,0,1-2.114,4.573,51.936,51.936,0,0,1-3.739,3.919,9.626,9.626,0,0,0-2.488,4.12,1.114,1.114,0,0,0-.029-.151l-.252.288a7.686,7.686,0,0,1-.575-.511,13.385,13.385,0,0,1-2.459-3.113,3.971,3.971,0,0,1-.633-3.185,10.093,10.093,0,0,1,1.517-2.128,4.283,4.283,0,0,0,.237-4.364c-.654-1.222-2.236-2.092-3.451-1.431a4.593,4.593,0,0,0-1.531,1.913,12.612,12.612,0,0,1-1.179,1.7,1.971,1.971,0,0,1-1.337.87,1.765,1.765,0,0,1-1.416-.956,6.106,6.106,0,0,1-.683-4.213,18.152,18.152,0,0,1,1.38-4.134l-.058-.23a10.557,10.557,0,0,1-7.053-.676c-.065-.029-.122-.058-.187-.086a6.6,6.6,0,0,1-3.164-2.991,3.806,3.806,0,0,1,.51-4.142c1.258-1.309,3.343-1.251,5.134-.963s3.739.7,5.335-.165c.942-.51,1.647-1.416,2.646-1.79,1.531-.582,3.243.244,4.465,1.33s2.215,2.452,3.617,3.286c1.726,1.021,3.955,1.15,5.421,2.517a4.323,4.323,0,0,1,.129,5.9" transform="translate(-65.404 -35.561)" fill="#1f1f1f"/>
          <path id="Trazado_875934" data-name="Trazado 875934" d="M258.905,145.935c-.571-3.225-3.519-3.248-5.85-4.661-1.925-1.166-1.322-3.3-2.409-4.948a5.434,5.434,0,0,0-2.5-1.931c-3.386-1.375-10.672.452-11.212-4.707-.047-.456-.767-.461-.719,0,.281,2.683,2.591,4.057,5.07,4.465,1.85.3,3.789.109,5.61.594a5.651,5.651,0,0,1,2.724,1.461,5.524,5.524,0,0,1,1.146,2.949c.731,3.28,3.916,2.916,6.126,4.679,3.478,2.775-.31,7.792-1.073,10.981-.107.449.586.641.694.191.72-3.014,2.966-5.832,2.392-9.073" transform="translate(-66.374 -36.345)"/>
          <path id="Trazado_875935" data-name="Trazado 875935" d="M266.716,143.513a4.323,4.323,0,0,0-1.572-1.481c-.994-.648-1.747-1.028-2.2-2.261a9.342,9.342,0,0,1-.371-2.07,5.9,5.9,0,0,0-2.552-4.676c-2.531-1.7-7.128-1.98-7.381-5.791-.03-.459-.749-.462-.719,0,.366,5.521,8.041,4.168,9.609,8.721.623,1.807.154,3.991,1.564,5.505a18.6,18.6,0,0,0,2.109,1.46c2.183,1.792.908,4.163-.242,6.058a.36.36,0,0,0,.62.363c1.023-1.686,2.211-3.865,1.138-5.828" transform="translate(-70.786 -35.654)"/>
          <path id="Trazado_875936" data-name="Trazado 875936" d="M251.355,144.907l-5.393,2.495c-.419.194-.055.814.363.621l5.393-2.495c.419-.193.055-.815-.363-.621" transform="translate(-69.061 -40.707)"/>
          <path id="Trazado_875937" data-name="Trazado 875937" d="M251.3,147.856l-4.433,1.808c-.423.173-.238.869.191.694l4.433-1.809c.423-.173.238-.868-.191-.693" transform="translate(-69.301 -41.538)"/>
          <path id="Trazado_875938" data-name="Trazado 875938" d="M249.674,151.405l-2.369.89c-.429.161-.244.856.191.693l2.368-.89c.429-.161.243-.856-.191-.693" transform="translate(-69.422 -42.536)"/>
          <path id="Trazado_875939" data-name="Trazado 875939" d="M81.655,98.623l16.657,14.684L91.517,98.623h9.712a14.159,14.159,0,0,0,14.159-14.159V64.58a2.12,2.12,0,0,0-2.12-2.12H71.408A14.483,14.483,0,0,0,56.925,76.943V96.035a2.119,2.119,0,0,0,2.094,2.12Z" transform="translate(-15.995 -17.551)" fill="#f6e4ca"/>
          <path id="Trazado_875940" data-name="Trazado 875940" d="M165.87,21.327a21.063,21.063,0,0,1-10.891,18.19c-3.967,4.226-14.492,9.663-16.459,10.656,3.195-1.821,4.552-7.519,4.552-7.519-12.582,0-22.79-9.55-22.79-21.327S130.491,0,143.072,0s22.8,9.55,22.8,21.327" transform="translate(-33.798)" fill="#e4ab59"/>
          <path id="Trazado_875941" data-name="Trazado 875941" d="M209.056,44.7A18.529,18.529,0,0,0,225.528,64.39h.007l13.79,5.592a.04.04,0,0,0,.045-.065l-4.994-5.357a.04.04,0,0,1,.029-.068h11.117c9.778,0,18.228-7.4,18.915-17.15a18.518,18.518,0,0,0-18.426-19.8H227.985c-9.782,0-18.241,7.4-18.929,17.156" transform="translate(-58.729 -7.74)" fill="#f6e4ca"/>
          <path id="Trazado_875942" data-name="Trazado 875942" d="M314.976,91.8v7.268a9.115,9.115,0,0,1-9.115,9.115H276.776l-11.167,8.638,3.647-8.638h-.367a6.335,6.335,0,0,1-6.335-6.335V92.219a9,9,0,0,1,9-9h34.841a8.583,8.583,0,0,1,8.583,8.583" transform="translate(-73.775 -23.384)" fill="#e4ab59"/>
        </g>
      </g>
    </g>
  </g>
</svg>
