<?xml version="1.0" encoding="UTF-8"?>
<svg id="Capa_1" xmlns="http://www.w3.org/2000/svg" xmlns:xlink="http://www.w3.org/1999/xlink" version="1.1" viewBox="0 0 813.96 690.17">
  <!-- Generator: Adobe Illustrator 29.5.1, SVG Export Plug-In . SVG Version: 2.1.0 Build 141)  -->
  <defs>
    <style>
      .st0, .st1 {
        fill: none;
      }

      .st2 {
        font-size: 20px;
      }

      .st2, .st3 {
        fill: #12263f;
        font-family: Roboto-Bold, Roboto;
        font-weight: 700;
      }

      .st2, .st3, .st4 {
        isolation: isolate;
      }

      .st3 {
        font-size: 16px;
      }

      .st5 {
        fill: #eaf8f0;
      }

      .st1 {
        stroke: #e8e8e8;
      }

      .st6 {
        fill: #e7c96e;
      }

      .st7 {
        clip-path: url(#clippath);
      }
    </style>
    <clipPath id="clippath">
      <rect class="st0" x="42.73" y="9.36" width="55.68" height="68.37"/>
    </clipPath>
  </defs>
  <path id="Trazado_874670" class="st1" d="M1.73,83.82v605.27"/>
  <path id="Trazado_874671" class="st1" d="M42.73,83.03v606.06"/>
  <path id="Trazado_874698" class="st1" d="M390.73,83.03v606.06"/>
  <path id="Trazado_874678" class="st1" d="M216.73,83.03v606.06"/>
  <path id="Trazado_874691" class="st1" d="M564.73,83.03v606.06"/>
  <path id="Trazado_874676" class="st1" d="M117.73,83.03v606.06"/>
  <path id="Trazado_874693" class="st1" d="M465.73,83.03v606.06"/>
  <path id="Trazado_874681" class="st1" d="M291.73,83.03v606.06"/>
  <path id="Trazado_874686" class="st1" d="M639.73,83.03v606.06"/>
  <path id="Trazado_874702" class="st1" d="M739.73,83.03v606.06"/>
  <path id="Trazado_874672" class="st1" d="M68.73,82.53v606.56"/>
  <path id="Trazado_874697" class="st1" d="M416.73,83.03v606.06"/>
  <path id="Trazado_874679" class="st1" d="M242.73,83.03v606.06"/>
  <path id="Trazado_874689" class="st1" d="M590.73,83.03v606.06"/>
  <path id="Trazado_874675" class="st1" d="M141.73,83.03v606.06"/>
  <path id="Trazado_874694" class="st1" d="M489.73,83.03v606.06"/>
  <path id="Trazado_874682" class="st1" d="M315.73,83.03v606.06"/>
  <path id="Trazado_874687" class="st1" d="M663.73,83.03v606.06"/>
  <path id="Trazado_874701" class="st1" d="M763.73,83.03v606.06"/>
  <path id="Trazado_874673" class="st1" d="M92.73,83.03v606.06"/>
  <path id="Trazado_874695" class="st1" d="M440.73,83.03v606.06"/>
  <path id="Trazado_874680" class="st1" d="M266.73,83.03v606.06"/>
  <path id="Trazado_874690" class="st1" d="M614.73,83.03v606.06"/>
  <path id="Trazado_874696" class="st1" d="M515.73,83.03v606.06"/>
  <path id="Trazado_874683" class="st1" d="M341.73,83.03v606.06"/>
  <path id="Trazado_874688" class="st1" d="M689.73,83.03v606.06"/>
  <path id="Trazado_874699" class="st1" d="M789.73,83.03v606.06"/>
  <path id="Trazado_874677" class="st1" d="M192.73,83.03v606.06"/>
  <path id="Trazado_874692" class="st1" d="M540.73,83.03v606.06"/>
  <path id="Trazado_874684" class="st1" d="M366.73,83.03v606.06"/>
  <path id="Trazado_874685" class="st1" d="M714.73,83.03v606.06"/>
  <path id="Trazado_874700" class="st1" d="M813.73,83.03v606.06"/>
  <path id="Trazado_874704" class="st1" d="M813.73,295.58H1.21"/>
  <path id="Trazado_874705" class="st1" d="M813.73,138.58H1.21"/>
  <path id="Trazado_874706" class="st1" d="M813.73,502.58H1.21"/>
  <path id="Trazado_874708" class="st1" d="M813.73,365.58H1.21"/>
  <path id="Trazado_874709" class="st1" d="M813.73,208.58H1.21"/>
  <path id="Trazado_874710" class="st1" d="M813.73,570.58H1.21"/>
  <path id="Trazado_874711" class="st1" d="M813.73,663.58H1.21"/>
  <path id="Trazado_874737" class="st1" d="M813.73,688.58H1.21"/>
  <path id="Trazado_874713" class="st1" d="M813.73,319.58H1.21"/>
  <path id="Trazado_874714" class="st1" d="M813.73,159.58H1.21"/>
  <path id="Trazado_874715" class="st1" d="M813.73,524.58H1.21"/>
  <path id="Trazado_874717" class="st1" d="M813.73,389.58H1.21"/>
  <path id="Trazado_874718" class="st1" d="M813.73,228.58H1.21"/>
  <path id="Trazado_874719" class="st1" d="M813.73,592.58H1.21"/>
  <path id="Trazado_874722" class="st1" d="M813.73,341.58H1.21"/>
  <path id="Trazado_874723" class="st1" d="M813.73,183.58H1.21"/>
  <path id="Trazado_874724" class="st1" d="M813.73,547.58H1.21"/>
  <path id="Trazado_874726" class="st1" d="M813.73,433.58H1.21"/>
  <path id="Trazado_874735" class="st1" d="M813.73,410.58H1.21"/>
  <path id="Trazado_874727" class="st1" d="M813.73,251.58H1.21"/>
  <path id="Trazado_874728" class="st1" d="M813.73,615.58H1.21"/>
  <path id="Trazado_874730" class="st1" d="M813.73,114.58H1.21"/>
  <path id="Trazado_874731" class="st1" d="M813.73,478.58H1.21"/>
  <path id="Trazado_874736" class="st1" d="M813.73,456.58H1.21"/>
  <path id="Trazado_874732" class="st1" d="M813.73,273.58H1.21"/>
  <path id="Trazado_874733" class="st1" d="M813.73,640.58H1.21"/>
  <g id="HAB" class="st4">
    <g class="st4">
      <text class="st3" transform="translate(5.49 111.26)"><tspan x="0" y="0">HAB</tspan></text>
    </g>
  </g>
  <g id="_101_201_202_203_204_205_206_207_208_209" class="st4">
    <g class="st4">
      <text class="st3" transform="translate(10.49 132.58)"><tspan x="0" y="0">101</tspan></text>
    </g>
    <g class="st4">
      <text class="st3" transform="translate(10.49 155.58)"><tspan x="0" y="0">201</tspan></text>
    </g>
    <g class="st4">
      <text class="st3" transform="translate(10.49 178.58)"><tspan x="0" y="0">202</tspan></text>
    </g>
    <g class="st4">
      <text class="st3" transform="translate(10.49 201.58)"><tspan x="0" y="0">203</tspan></text>
    </g>
    <g class="st4">
      <text class="st3" transform="translate(10.49 224.58)"><tspan x="0" y="0">204</tspan></text>
    </g>
    <g class="st4">
      <text class="st3" transform="translate(10.49 247.58)"><tspan x="0" y="0">205</tspan></text>
    </g>
    <g class="st4">
      <text class="st3" transform="translate(10.49 270.58)"><tspan x="0" y="0">206</tspan></text>
    </g>
    <g class="st4">
      <text class="st3" transform="translate(10.49 293.58)"><tspan x="0" y="0">207</tspan></text>
    </g>
    <g class="st4">
      <text class="st3" transform="translate(10.49 316.58)"><tspan x="0" y="0">208</tspan></text>
    </g>
    <g class="st4">
      <text class="st3" transform="translate(10.49 339.58)"><tspan x="0" y="0">209</tspan></text>
    </g>
    <g class="st4">
      <text class="st3" transform="translate(10.49 362.58)"><tspan x="0" y="0">210</tspan></text>
    </g>
  </g>
  <g id="_211_212_301_302_303_304_305_306_307_308_309_310_311_312" class="st4">
    <g class="st4">
      <text class="st3" transform="translate(10.49 383.42)"><tspan x="0" y="0">211</tspan></text>
    </g>
    <g class="st4">
      <text class="st3" transform="translate(10.49 406.42)"><tspan x="0" y="0">212</tspan></text>
    </g>
    <g class="st4">
      <text class="st3" transform="translate(10.49 429.42)"><tspan x="0" y="0">301</tspan></text>
    </g>
    <g class="st4">
      <text class="st3" transform="translate(10.49 452.42)"><tspan x="0" y="0">302</tspan></text>
    </g>
    <g class="st4">
      <text class="st3" transform="translate(10.49 475.42)"><tspan x="0" y="0">303</tspan></text>
    </g>
    <g class="st4">
      <text class="st3" transform="translate(10.49 498.42)"><tspan x="0" y="0">304</tspan></text>
    </g>
    <g class="st4">
      <text class="st3" transform="translate(10.49 521.42)"><tspan x="0" y="0">305</tspan></text>
    </g>
    <g class="st4">
      <text class="st3" transform="translate(10.49 544.42)"><tspan x="0" y="0">306</tspan></text>
    </g>
    <g class="st4">
      <text class="st3" transform="translate(10.49 567.42)"><tspan x="0" y="0">307</tspan></text>
    </g>
    <g class="st4">
      <text class="st3" transform="translate(10.49 590.42)"><tspan x="0" y="0">308</tspan></text>
    </g>
    <g class="st4">
      <text class="st3" transform="translate(10.49 613.42)"><tspan x="0" y="0">309</tspan></text>
    </g>
    <g class="st4">
      <text class="st3" transform="translate(10.49 636.42)"><tspan x="0" y="0">310</tspan></text>
    </g>
    <g class="st4">
      <text class="st3" transform="translate(10.49 659.42)"><tspan x="0" y="0">311</tspan></text>
    </g>
    <g class="st4">
      <text class="st3" transform="translate(10.49 682.42)"><tspan x="0" y="0">312</tspan></text>
    </g>
  </g>
  <g id="_1_2_3_4_5_6_7_8_9_10_11_12_13_14_15_16_17_18_19_20_21_22_23_24_25_26_27_28_29_30_31" class="st4">
    <g class="st4">
      <text class="st3" transform="translate(50.49 111.26)"><tspan x="0" y="0" xml:space="preserve">1    2    3   4   5     6    7    8   9   10  11 12  13 14 15  16  17 18  19 20  21 22 23  24  25 26  27 28  29 30  31</tspan></text>
    </g>
  </g>
  <path id="Trazado_874674" class="st1" d="M167.73,83.03v606.06"/>
  <rect id="Rectángulo_402396" class="st5" x="150.23" y="3.76" width="664.5" height="79.57"/>
  <g id="Planning_por_número_de_habitaciones" class="st4">
    <g class="st4">
      <text class="st2" transform="translate(186.36 52.76)"><tspan x="0" y="0">PLANNING POR NÚMERO DE HABITACIONES</tspan></text>
    </g>
  </g>
  <g id="Mes" class="st4">
    <g class="st4">
      <text class="st2" transform="translate(712.6 51.76)"><tspan x="0" y="0">MES__</tspan></text>
    </g>
  </g>
  <g id="Grupo_1102081">
    <g id="Grupo_1102078">
      <g class="st7">
        <g id="Grupo_1102077">
          <path id="Trazado_874738" d="M96.77,41.67v-1.02h-2.28v-9.15h1.98c.07,0,.13-.06.13-.13v-.04l-2.67-8.83s-.07-.09-.12-.09h-10.21c-.17-7.38-6.29-13.22-13.66-13.05-7.14.16-12.89,5.91-13.05,13.05h-10.37c-.06,0-.11.04-.12.09l-2.67,8.83c-.02.07.02.14.08.16h2.02v9.16h-1.96v1.02h1.96v10.2h-2.12v1.02h52.91v-1.02h-2.12v-10.2h2.28,0ZM46.58,37.58h47.15v.31h-47.15v-.31ZM47.74,38.27h.58v2.38h-.58v-2.38ZM48.83,38.27h.58v2.38h-.58v-2.38ZM49.92,38.27h.58v2.38h-.58v-2.38ZM51,38.27h.58v2.38h-.57v-2.38h-.01ZM52.09,38.27h.58v2.38h-.58v-2.38ZM53.18,38.27h.58v2.38h-.58v-2.38ZM54.26,38.27h.58v2.38h-.58v-2.38ZM55.35,38.27h.58v2.38h-.58v-2.38ZM56.44,38.27h.58v2.38h-.58v-2.38ZM57.53,38.27h.58v2.38h-.58v-2.38ZM58.61,38.27h.58v2.38h-.58v-2.38ZM59.7,38.27h.58v2.38h-.58v-2.38ZM60.79,38.27h.58v2.38h-.58v-2.38ZM61.87,38.27h.58v2.38h-.58v-2.38ZM62.96,38.27h.58v2.38h-.58v-2.38ZM64.05,38.27h.58v2.38h-.58v-2.38ZM65.13,38.27h.57v2.38h-.58v-2.38h.01ZM66.22,38.27h.58v2.38h-.58v-2.38ZM67.31,38.27h.58v2.38h-.58v-2.38ZM68.4,38.27h.58v2.38h-.58v-2.38ZM69.48,38.27h.58v2.38h-.58v-2.38ZM70.57,38.27h.58v2.38h-.58v-2.38ZM71.66,38.27h.48v2.38h-.48v-2.38ZM72.65,38.27h.58v2.38h-.58v-2.38ZM73.74,38.27h.57v2.38h-.58v-2.38h.01ZM74.82,38.27h.58v2.38h-.58v-2.38ZM75.91,38.27h.58v2.38h-.58v-2.38ZM77,38.27h.58v2.38h-.58v-2.38ZM78.08,38.27h.58v2.38h-.58v-2.38ZM79.17,38.27h.58v2.38h-.58v-2.38ZM80.26,38.27h.58v2.38h-.58v-2.38ZM81.35,38.27h.58v2.38h-.58v-2.38ZM82.43,38.27h.57v2.38h-.58v-2.38h.01ZM83.52,38.27h.58v2.38h-.58v-2.38ZM84.61,38.27h.58v2.38h-.58v-2.38ZM85.69,38.27h.58v2.38h-.58v-2.38ZM86.78,38.27h.58v2.38h-.58v-2.38ZM87.87,38.27h.48v2.38h-.48v-2.38ZM88.86,38.27h.58v2.38h-.58v-2.38ZM89.95,38.27h.58v2.38h-.58v-2.38ZM91.03,38.27h.57v2.38h-.58v-2.38h.01ZM92.12,38.27h.58v2.38h-.58v-2.38ZM93.21,38.27h.52v2.38h-.52v-2.38ZM70.23,10.32c6.73,0,12.22,5.37,12.39,12.1h-24.78c.17-6.73,5.66-12.09,12.39-12.1M93.73,37.2h-47.15v-5.7h47.15v5.7ZM46.58,38.27h.66v2.38h-.66v-2.38ZM93.73,51.87h-47.15v-10.2h47.15v10.2Z"/>
          <path id="Trazado_874739" d="M53.97,32.39h-4.13v4.13h4.13v-4.13ZM53.59,34.12h-3.36v-.31h3.36v.31ZM50.23,32.77h3.36v.65h-3.36v-.65ZM53.59,36.14h-3.36v-1.64h3.36v1.64Z"/>
          <path id="Trazado_874740" d="M61.29,32.39h-4.13v4.13h4.13v-4.13ZM60.91,34.12h-3.36v-.31h3.36v.31ZM57.55,32.77h3.36v.65h-3.36v-.65ZM60.91,36.13h-3.36v-1.63h3.36v1.63Z"/>
          <path id="Trazado_874741" d="M68.61,32.39h-4.13v4.13h4.13v-4.13ZM64.86,33.8h3.36v.31h-3.36v-.31ZM64.86,32.77h3.36v.65h-3.36v-.65ZM68.23,36.13h-3.36v-1.63h3.36v1.63Z"/>
          <rect id="Rectángulo_402398" x="65.28" y="42.83" width="4.76" height="8.37"/>
          <rect id="Rectángulo_402399" x="70.49" y="42.83" width="4.76" height="8.37"/>
          <rect id="Rectángulo_402400" x="58.01" y="42.83" width="3.28" height="7.27"/>
          <rect id="Rectángulo_402401" x="79.29" y="42.83" width="3.28" height="7.27"/>
          <rect id="Rectángulo_402402" x="86.39" y="42.83" width="3.28" height="7.27"/>
          <rect id="Rectángulo_402403" x="50.91" y="42.83" width="3.28" height="7.27"/>
          <path id="Trazado_874742" d="M75.61,32.39h-4.13v4.13h4.13v-4.13ZM75.23,34.12h-3.36v-.31h3.36v.31ZM71.86,32.77h3.36v.65h-3.36v-.65ZM75.23,36.14h-3.36v-1.64h3.36v1.64Z"/>
          <path id="Trazado_874743" d="M82.93,32.39h-4.13v4.13h4.13v-4.13ZM82.55,34.12h-3.36v-.31h3.36v.31ZM79.18,32.77h3.36v.65h-3.36v-.65ZM82.55,36.14h-3.36v-1.64h3.36v1.64Z"/>
          <path id="Trazado_874744" d="M90.25,32.39h-4.13v4.13h4.13v-4.13ZM86.5,33.8h3.36v.31h-3.36v-.31ZM86.5,32.77h3.36v.65h-3.36v-.65ZM89.86,36.13h-3.36v-1.63h3.36v1.63Z"/>
          <rect id="Rectángulo_402404" x="62.71" y="58.97" width="14.89" height="1.02"/>
          <rect id="Rectángulo_402405" x="63.6" y="57.2" width="13.11" height="1.02"/>
          <rect id="Rectángulo_402406" x="64.75" y="55.43" width="10.81" height="1.02"/>
          <rect id="Rectángulo_402407" x="66.25" y="53.66" width="7.81" height="1.02"/>
        </g>
      </g>
    </g>
    <path id="Trazado_874745" d="M49.45,62.03v4.54h-4.98v-4.54h-1.74v10.59h1.74v-4.63h4.98v4.63h1.74v-10.59h-1.74Z"/>
    <g id="Grupo_1102080">
      <g id="Grupo_1102100">
        <path id="Trazado_874746" d="M55.96,72.03c-.82-.45-1.5-1.12-1.97-1.93-.97-1.74-.97-3.85,0-5.58.47-.81,1.15-1.47,1.97-1.93,1.7-.92,3.75-.92,5.45,0,.82.45,1.49,1.12,1.96,1.93.95,1.74.95,3.85,0,5.58-.46.81-1.14,1.48-1.96,1.93-1.7.92-3.75.92-5.45,0M60.56,70.73c.55-.32,1-.8,1.29-1.37.32-.64.48-1.35.47-2.06.02-.71-.14-1.42-.47-2.06-.29-.57-.74-1.04-1.29-1.36-1.17-.63-2.58-.63-3.75,0-.55.32-1,.79-1.29,1.36-.32.64-.48,1.34-.47,2.06-.02.72.14,1.42.47,2.06.29.57.74,1.05,1.29,1.37,1.17.64,2.58.64,3.75,0"/>
        <path id="Trazado_874747" d="M67.75,72.35c-.54-.22-1-.59-1.34-1.06-.33-.47-.5-1.03-.49-1.6h1.86c.03.43.22.84.54,1.13.38.31.86.47,1.35.44.5.03,1-.12,1.4-.43.33-.28.51-.69.5-1.12.01-.32-.1-.63-.31-.87-.22-.23-.48-.41-.78-.52-.42-.16-.85-.29-1.29-.4-.57-.14-1.14-.33-1.68-.56-.44-.19-.81-.49-1.1-.88-.32-.46-.49-1.02-.46-1.58-.01-.57.15-1.12.46-1.6.32-.47.76-.83,1.28-1.05.6-.25,1.25-.38,1.9-.37.9-.04,1.79.23,2.52.77.65.51,1.05,1.28,1.09,2.11h-1.92c-.03-.39-.23-.75-.55-.99-.38-.29-.85-.43-1.32-.41-.44-.02-.87.12-1.22.38-.32.27-.5.68-.47,1.1-.01.3.1.58.3.8.21.22.47.39.75.5.41.16.83.29,1.25.4.58.15,1.16.35,1.71.58.45.2.83.5,1.13.89.33.47.49,1.03.46,1.61,0,.54-.15,1.07-.43,1.52-.31.49-.74.89-1.26,1.15-.61.3-1.28.45-1.96.43-.66.01-1.31-.12-1.92-.37"/>
        <path id="Trazado_874748" d="M82.6,62.03v1.42h-2.82v9.17h-1.73v-9.17h-2.83v-1.42h7.39,0Z"/>
        <path id="Trazado_874749" d="M86.47,63.43v3.11h3.66v1.42h-3.66v3.24h4.11v1.42h-5.85v-10.6h5.85v1.42h-4.11Z"/>
        <path id="Trazado_874750" d="M94.84,71.21h3.58v1.4h-5.32v-10.59h1.74s0,9.19,0,9.19Z"/>
      </g>
    </g>
  </g>
  <path id="Trazado_874778" class="st1" d="M813.73,83.53H1.21"/>
  <rect id="Rectángulo_402424" class="st6" x="1.21" y="-.24" width="813.52" height="5"/>
</svg>