<?xml version="1.0" encoding="UTF-8"?>
<svg id="Capa_1" xmlns="http://www.w3.org/2000/svg" version="1.1" viewBox="0 0 1157.48 569.87">
  <!-- Generator: Adobe Illustrator 29.5.1, SVG Export Plug-In . SVG Version: 2.1.0 Build 141)  -->
  <defs>
    <style>
      .st0, .st1 {
        fill: none;
      }

      .st2, .st3, .st4, .st5, .st6 {
        isolation: isolate;
      }

      .st2, .st3, .st5, .st6 {
        fill: #12263f;
        font-family: Roboto-Bold, Roboto;
        font-weight: 700;
      }

      .st2, .st5, .st6 {
        font-size: 20px;
      }

      .st3 {
        font-size: 24px;
      }

      .st1 {
        stroke: #e8e8e8;
        stroke-width: 2px;
      }

      .st7 {
        fill: #95dbb3;
      }

      .st8 {
        fill: #effaf4;
      }

      .st9 {
        fill: #e7c96e;
      }

      .st5 {
        letter-spacing: .04em;
      }

      .st6 {
        letter-spacing: .05em;
      }
    </style>
  </defs>
  <rect id="Rectángulo_402414" class="st7" x="77.37" y="135.91" width="487" height="32"/>
  <rect id="Rectángulo_402415" class="st7" x="112.37" y="167.91" width="243" height="30"/>
  <rect id="Rectángulo_402416" class="st7" x="112.37" y="197.91" width="314" height="30"/>
  <rect id="Rectángulo_402417" class="st7" x="78.37" y="227.91" width="104" height="34"/>
  <rect id="Rectángulo_402420" class="st7" x="78.37" y="319.91" width="348" height="34"/>
  <rect id="Rectángulo_402421" class="st7" x="78.37" y="352.91" width="485" height="30"/>
  <rect id="Rectángulo_402422" class="st7" x="78.37" y="382.91" width="485" height="31"/>
  <rect id="Rectángulo_402425" class="st7" x="78.37" y="412.91" width="277" height="31"/>
  <rect id="Rectángulo_402426" class="st7" x="78.37" y="443.91" width="104" height="31"/>
  <rect id="Rectángulo_402427" class="st7" x="78.37" y="473.91" width="415" height="31"/>
  <rect id="Rectángulo_402418" class="st7" x="146.37" y="260.91" width="417" height="30"/>
  <rect id="Rectángulo_402428" class="st9" x="321.37" y="227.91" width="104" height="33"/>
  <rect id="Rectángulo_402429" class="st9" x="321.37" y="443.91" width="383" height="30"/>
  <rect id="Rectángulo_402430" class="st9" x="426.37" y="320.91" width="520" height="32"/>
  <rect id="Rectángulo_402431" class="st9" x="564.37" y="227.91" width="313" height="63"/>
  <rect id="Rectángulo_402432" class="st9" x="564.37" y="197.91" width="382" height="30"/>
  <rect id="Rectángulo_402433" class="st9" x="564.37" y="167.91" width="451" height="30"/>
  <rect id="Rectángulo_402434" class="st9" x="564.37" y="135.91" width="591" height="32"/>
  <rect id="Rectángulo_402419" class="st7" x="112.37" y="290.91" width="243" height="30"/>
  <rect id="Rectángulo_402412" class="st8" x=".82" y="5.3" width="1155.55" height="67.23"/>
  <g id="Rectángulo_402413">
    <rect class="st0" x=".82" y="72.53" width="78.55" height="497.38"/>
    <rect class="st1" x="1.82" y="73.53" width="76.55" height="495.38"/>
  </g>
  <path id="Trazado_874769" class="st1" d="M79.37,103.26h1075.97"/>
  <path id="Trazado_874770" class="st1" d="M.82,135.78h1154.52"/>
  <path id="Trazado_874771" class="st1" d="M.82,168.31h1154.52"/>
  <path id="Trazado_874836" class="st1" d="M.82,72.91h1154.52"/>
  <path id="Trazado_874772" class="st1" d="M.82,198.31h1154.52"/>
  <path id="Trazado_874773" class="st1" d="M.82,228.31h1154.52"/>
  <path id="Trazado_874774" class="st1" d="M.82,260.83h1154.52"/>
  <path id="Trazado_874775" class="st1" d="M.82,290.83h1154.52"/>
  <path id="Trazado_874776" class="st1" d="M.82,320.83h1154.52"/>
  <path id="Trazado_874777" class="st1" d="M.82,353.35h1154.52"/>
  <path id="Trazado_874779" class="st1" d="M.82,382.35h1154.52"/>
  <path id="Trazado_874780" class="st1" d="M.82,413.35h1154.52"/>
  <path id="Trazado_874781" class="st1" d="M.82,444.35h1154.52"/>
  <path id="Trazado_874782" class="st1" d="M.82,474.35h1154.52"/>
  <path id="Trazado_874783" class="st1" d="M.82,505.35h1154.52"/>
  <path id="Trazado_874784" class="st1" d="M.82,536.35h1154.52"/>
  <path id="Trazado_874785" class="st1" d="M.82,569.35h1155.5"/>
  <path id="Trazado_874786" class="st1" d="M111.97,103.26v32.52"/>
  <path id="Trazado_874829" class="st1" d="M111.97,168.31v60"/>
  <path id="Trazado_874830" class="st1" d="M111.97,260.83v60"/>
  <path id="Trazado_874787" class="st1" d="M146.57,103.26v32.52"/>
  <path id="Trazado_874790" class="st1" d="M182.57,103.26v65.04"/>
  <path id="Trazado_874791" class="st1" d="M217.16,103.26v466.09"/>
  <path id="Trazado_874792" class="st1" d="M252.76,103.26v466.09"/>
  <path id="Trazado_874793" class="st1" d="M285.36,103.26v466.09"/>
  <path id="Trazado_874794" class="st1" d="M320.96,103.26v466.09"/>
  <path id="Trazado_874795" class="st1" d="M355.56,103.26v125.04"/>
  <path id="Trazado_874796" class="st1" d="M355.56,260.83v183.52"/>
  <path id="Trazado_874798" class="st1" d="M355.56,474.35v95"/>
  <path id="Trazado_874799" class="st1" d="M394.85,474.35v95"/>
  <path id="Trazado_874797" class="st1" d="M394.85,103.26v341.09"/>
  <path id="Trazado_874800" class="st1" d="M426.16,103.26v466.08"/>
  <path id="Trazado_874801" class="st1" d="M464.49,103.26v217.56"/>
  <path id="Trazado_874803" class="st1" d="M499.09,103.26v217.56"/>
  <path id="Trazado_874806" class="st1" d="M532.74,103.26v466.08"/>
  <path id="Trazado_874807" class="st1" d="M563.55,103.26v466.08"/>
  <path id="Trazado_874808" class="st1" d="M601.94,353.35v216"/>
  <path id="Trazado_874825" class="st1" d="M601.94,320.83v32.52"/>
  <path id="Trazado_874826" class="st1" d="M601.94,103.26v32.52"/>
  <path id="Trazado_874809" class="st1" d="M636.53,290.83v278.52"/>
  <path id="Trazado_874827" class="st1" d="M636.53,228.31v32.52"/>
  <path id="Trazado_874828" class="st1" d="M636.53,103.26v32.52"/>
  <path id="Trazado_874810" class="st1" d="M668.35,103.26v466.08"/>
  <path id="Trazado_874811" class="st1" d="M704.35,103.26v466.08"/>
  <path id="Trazado_874812" class="st1" d="M737.95,103.26v466.08"/>
  <path id="Trazado_874813" class="st1" d="M772.55,103.26v466.08"/>
  <path id="Trazado_874814" class="st1" d="M807.14,103.26v466.08"/>
  <path id="Trazado_874815" class="st1" d="M840.74,103.26v466.08"/>
  <path id="Trazado_874816" class="st1" d="M876.74,103.26v466.08"/>
  <path id="Trazado_874817" class="st1" d="M911.34,103.26v466.08"/>
  <path id="Trazado_874818" class="st1" d="M945.94,103.26v466.08"/>
  <path id="Trazado_874819" class="st1" d="M980.54,103.26v466.08"/>
  <path id="Trazado_874820" class="st1" d="M1015.14,103.26v466.08"/>
  <path id="Trazado_874821" class="st1" d="M1051.14,103.26v466.08"/>
  <path id="Trazado_874822" class="st1" d="M1084.74,103.26v466.08"/>
  <path id="Trazado_874823" class="st1" d="M1119.33,103.26v466.08"/>
  <path id="Trazado_874824" class="st1" d="M1155.33,71.87v497.48"/>
  <path id="Trazado_874802" class="st1" d="M464.49,353.35v214.86"/>
  <path id="Trazado_874804" class="st1" d="M498.09,353.35v214.86"/>
  <path id="Trazado_874788" class="st1" d="M146.57,260.83v30"/>
  <path id="Trazado_874831" class="st1" d="M182.57,320.82v248.52"/>
  <path id="Trazado_874832" class="st1" d="M146.97,353.35v29"/>
  <path id="Trazado_874833" class="st1" d="M146.97,413.35v31"/>
  <path id="Trazado_874834" class="st1" d="M146.97,474.35v95.56"/>
  <path id="Trazado_874835" class="st1" d="M112.37,505.35v64.56"/>
  <path id="Trazado_874789" class="st1" d="M182.57,228.31v32.52"/>
  <g id="planilla_de_reservas" class="st4">
    <g class="st4">
      <g class="st4">
        <text class="st3" transform="translate(442.13 36.97)"><tspan x="0" y="0">PLANILLA DE RESERVAS</tspan></text>
      </g>
    </g>
  </g>
  <g id="mes" class="st4">
    <g class="st4">
      <g class="st4">
        <text class="st3" transform="translate(79.37 61.91)"><tspan x="0" y="0">MES</tspan></text>
      </g>
    </g>
  </g>
  <g id="habit." class="st4">
    <g class="st4">
      <g class="st4">
        <text class="st2" transform="translate(6.37 93.91)"><tspan x="0" y="0">HABIT.</tspan></text>
      </g>
    </g>
  </g>
  <g id="año_2011" class="st4">
    <g class="st4">
      <g class="st4">
        <text class="st3" transform="translate(260.37 61.91)"><tspan x="0" y="0">AÑO 2011</tspan></text>
      </g>
    </g>
  </g>
  <g id="Enero" class="st4">
    <g class="st4">
      <g class="st4">
        <text class="st2" transform="translate(168.37 61.91)"><tspan x="0" y="0">Enero</tspan></text>
      </g>
    </g>
  </g>
  <g id="DIA" class="st4">
    <g class="st4">
      <g class="st4">
        <text class="st2" transform="translate(600.37 94.91)"><tspan x="0" y="0">DIA</tspan></text>
      </g>
    </g>
  </g>
  <g id="Martinez" class="st4">
    <g class="st4">
      <g class="st4">
        <text class="st2" transform="translate(86.37 157.91)"><tspan x="0" y="0">Martinez</tspan></text>
      </g>
    </g>
  </g>
  <g id="Gómez" class="st4">
    <g class="st4">
      <g class="st4">
        <text class="st2" transform="translate(119.37 190.91)"><tspan x="0" y="0">Gómez</tspan></text>
      </g>
    </g>
  </g>
  <g id="Salazar" class="st4">
    <g class="st4">
      <g class="st4">
        <text class="st2" transform="translate(119.37 219.91)"><tspan x="0" y="0">Salazar</tspan></text>
      </g>
    </g>
  </g>
  <g id="Fiocca" class="st4">
    <g class="st4">
      <g class="st4">
        <text class="st2" transform="translate(83.37 250.91)"><tspan x="0" y="0">Fiocca</tspan></text>
      </g>
    </g>
  </g>
  <g id="Solís" class="st4">
    <g class="st4">
      <g class="st4">
        <text class="st2" transform="translate(152.37 282.91)"><tspan x="0" y="0">Solís</tspan></text>
      </g>
    </g>
  </g>
  <g id="Salas" class="st4">
    <g class="st4">
      <g class="st4">
        <text class="st2" transform="translate(326.37 251.91)"><tspan x="0" y="0">Salas</tspan></text>
      </g>
    </g>
  </g>
  <g id="Gonzáles" class="st4">
    <g class="st4">
      <g class="st4">
        <text class="st2" transform="translate(568.37 158.91)"><tspan x="0" y="0">Gonzáles</tspan></text>
      </g>
    </g>
  </g>
  <g id="Repetto" class="st4">
    <g class="st4">
      <g class="st4">
        <text class="st2" transform="translate(568.37 190.91)"><tspan x="0" y="0">Repetto</tspan></text>
      </g>
    </g>
  </g>
  <g id="Pastore" class="st4">
    <g class="st4">
      <g class="st4">
        <text class="st2" transform="translate(568.37 219.91)"><tspan x="0" y="0">Pastore</tspan></text>
      </g>
    </g>
  </g>
  <g id="López" class="st4">
    <g class="st4">
      <g class="st4">
        <text class="st2" transform="translate(568.37 251.91)"><tspan x="0" y="0">López</tspan></text>
      </g>
    </g>
  </g>
  <g id="Cortiñas" class="st4">
    <g class="st4">
      <g class="st4">
        <text class="st2" transform="translate(568.37 282.91)"><tspan x="0" y="0">Cortiñas</tspan></text>
      </g>
    </g>
  </g>
  <g id="Levi" class="st4">
    <g class="st4">
      <g class="st4">
        <text class="st2" transform="translate(568.37 313.91)"><tspan x="0" y="0">Levi</tspan></text>
      </g>
    </g>
  </g>
  <g id="Carbone" class="st4">
    <g class="st4">
      <g class="st4">
        <text class="st2" transform="translate(431.37 343.91)"><tspan x="0" y="0">Carbone</tspan></text>
      </g>
    </g>
  </g>
  <g id="Troncaro" class="st4">
    <g class="st4">
      <g class="st4">
        <text class="st2" transform="translate(327.37 465.91)"><tspan x="0" y="0">Troncaro</tspan></text>
      </g>
    </g>
  </g>
  <g id="Entrada" class="st4">
    <g class="st4">
      <g class="st4">
        <text class="st2" transform="translate(117.37 312.91)"><tspan x="0" y="0">Entrada</tspan></text>
      </g>
    </g>
  </g>
  <g id="Gutiérrez" class="st4">
    <g class="st4">
      <g class="st4">
        <text class="st2" transform="translate(84.37 344.91)"><tspan x="0" y="0">Gutiérrez</tspan></text>
      </g>
    </g>
  </g>
  <g id="Pérez" class="st4">
    <g class="st4">
      <g class="st4">
        <text class="st2" transform="translate(84.37 374.91)"><tspan x="0" y="0">Pérez</tspan></text>
      </g>
    </g>
  </g>
  <g id="Calderón" class="st4">
    <g class="st4">
      <g class="st4">
        <text class="st2" transform="translate(84.37 404.91)"><tspan x="0" y="0">Calderón</tspan></text>
      </g>
    </g>
  </g>
  <g id="Arias" class="st4">
    <g class="st4">
      <g class="st4">
        <text class="st2" transform="translate(84.37 435.91)"><tspan x="0" y="0">Arias</tspan></text>
      </g>
    </g>
  </g>
  <g id="Méndez" class="st4">
    <g class="st4">
      <g class="st4">
        <text class="st2" transform="translate(84.37 465.91)"><tspan x="0" y="0">Méndez</tspan></text>
      </g>
    </g>
  </g>
  <g id="Muler" class="st4">
    <g class="st4">
      <g class="st4">
        <text class="st2" transform="translate(84.37 495.91)"><tspan x="0" y="0">Muler</tspan></text>
      </g>
    </g>
  </g>
  <g id="_101_102_103_104_105_106_201_202_203_204_205_206_301_302" class="st4">
    <g class="st4">
      <g class="st4">
        <text class="st2" transform="translate(21.97 157.73)"><tspan x="0" y="0">101</tspan></text>
      </g>
    </g>
    <g class="st4">
      <g class="st4">
        <text class="st2" transform="translate(21.97 188.73)"><tspan x="0" y="0">102</tspan></text>
      </g>
    </g>
    <g class="st4">
      <g class="st4">
        <text class="st2" transform="translate(21.97 219.73)"><tspan x="0" y="0">103</tspan></text>
      </g>
    </g>
    <g class="st4">
      <g class="st4">
        <text class="st2" transform="translate(21.97 250.73)"><tspan x="0" y="0">104</tspan></text>
      </g>
    </g>
    <g class="st4">
      <g class="st4">
        <text class="st2" transform="translate(21.97 281.73)"><tspan x="0" y="0">105</tspan></text>
      </g>
    </g>
    <g class="st4">
      <g class="st4">
        <text class="st2" transform="translate(21.97 312.73)"><tspan x="0" y="0">106</tspan></text>
      </g>
    </g>
    <g class="st4">
      <g class="st4">
        <text class="st2" transform="translate(21.97 343.73)"><tspan x="0" y="0">201</tspan></text>
      </g>
    </g>
    <g class="st4">
      <g class="st4">
        <text class="st2" transform="translate(21.97 374.73)"><tspan x="0" y="0">202</tspan></text>
      </g>
    </g>
    <g class="st4">
      <g class="st4">
        <text class="st2" transform="translate(21.97 405.73)"><tspan x="0" y="0">203</tspan></text>
      </g>
    </g>
    <g class="st4">
      <g class="st4">
        <text class="st2" transform="translate(21.97 436.73)"><tspan x="0" y="0">204</tspan></text>
      </g>
    </g>
    <g class="st4">
      <g class="st4">
        <text class="st2" transform="translate(21.97 467.73)"><tspan x="0" y="0">205</tspan></text>
      </g>
    </g>
    <g class="st4">
      <g class="st4">
        <text class="st2" transform="translate(21.97 498.73)"><tspan x="0" y="0">206</tspan></text>
      </g>
    </g>
    <g class="st4">
      <g class="st4">
        <text class="st2" transform="translate(21.97 529.73)"><tspan x="0" y="0">301</tspan></text>
      </g>
    </g>
    <g class="st4">
      <g class="st4">
        <text class="st2" transform="translate(21.97 560.73)"><tspan x="0" y="0">302</tspan></text>
      </g>
    </g>
  </g>
  <g id="_1_2_3_4_5_6_7_8_9_10_11_12" class="st4">
    <g class="st4">
      <g class="st4">
        <text class="st5" transform="translate(89.65 125.86) scale(.96 1)"><tspan x="0" y="0" xml:space="preserve">1    2</tspan></text>
      </g>
      <g class="st4">
        <text class="st6" transform="translate(159.63 125.86) scale(.96 1)"><tspan x="0" y="0">3</tspan></text>
      </g>
      <g class="st4">
        <text class="st5" transform="translate(193.33 125.86) scale(.96 1)"><tspan x="0" y="0">4</tspan></text>
      </g>
      <g class="st4">
        <text class="st5" transform="translate(227.89 125.86) scale(.96 1)"><tspan x="0" y="0">5</tspan></text>
      </g>
      <g class="st4">
        <text class="st5" transform="translate(262.45 125.86) scale(.96 1)"><tspan x="0" y="0">7</tspan></text>
      </g>
      <g class="st4">
        <text class="st5" transform="translate(297.01 125.86) scale(.96 1)"><tspan x="0" y="0">8</tspan></text>
      </g>
      <g class="st4">
        <text class="st5" transform="translate(331.57 125.86) scale(.96 1)"><tspan x="0" y="0">9</tspan></text>
      </g>
      <g class="st4">
        <text class="st5" transform="translate(366.13 125.86) scale(.96 1)"><tspan x="0" y="0">10</tspan></text>
      </g>
      <g class="st4">
        <text class="st5" transform="translate(400.69 125.86) scale(.96 1)"><tspan x="0" y="0">11</tspan></text>
      </g>
      <g class="st4">
        <text class="st5" transform="translate(435.25 125.86) scale(.96 1)"><tspan x="0" y="0">12</tspan></text>
      </g>
      <g class="st4">
        <text class="st5" transform="translate(469.81 125.86) scale(.96 1)"><tspan x="0" y="0">13</tspan></text>
      </g>
      <g class="st4">
        <text class="st5" transform="translate(504.37 125.86) scale(.96 1)"><tspan x="0" y="0">14</tspan></text>
      </g>
      <g class="st4">
        <text class="st5" transform="translate(538.93 125.86) scale(.96 1)"><tspan x="0" y="0">15</tspan></text>
      </g>
      <g class="st4">
        <text class="st6" transform="translate(573.49 125.86) scale(.96 1)"><tspan x="0" y="0">16</tspan></text>
      </g>
      <g class="st4">
        <text class="st5" transform="translate(608.05 125.86) scale(.96 1)"><tspan x="0" y="0">17</tspan></text>
      </g>
      <g class="st4">
        <text class="st5" transform="translate(642.61 125.86) scale(.96 1)"><tspan x="0" y="0">18</tspan></text>
      </g>
      <g class="st4">
        <text class="st5" transform="translate(677.17 125.86) scale(.96 1)"><tspan x="0" y="0">19</tspan></text>
      </g>
      <g class="st4">
        <text class="st5" transform="translate(711.73 125.86) scale(.96 1)"><tspan x="0" y="0">20</tspan></text>
      </g>
      <g class="st4">
        <text class="st5" transform="translate(746.3 125.86) scale(.96 1)"><tspan x="0" y="0">21</tspan></text>
      </g>
      <g class="st4">
        <text class="st5" transform="translate(780.86 125.86) scale(.96 1)"><tspan x="0" y="0">22</tspan></text>
      </g>
      <g class="st4">
        <text class="st5" transform="translate(815.42 125.86) scale(.96 1)"><tspan x="0" y="0">23</tspan></text>
      </g>
      <g class="st4">
        <text class="st6" transform="translate(849.98 125.86) scale(.96 1)"><tspan x="0" y="0">24</tspan></text>
      </g>
      <g class="st4">
        <text class="st5" transform="translate(884.54 125.86) scale(.96 1)"><tspan x="0" y="0">25</tspan></text>
      </g>
      <g class="st4">
        <text class="st6" transform="translate(919.09 125.86) scale(.96 1)"><tspan x="0" y="0">25</tspan></text>
      </g>
      <g class="st4">
        <text class="st6" transform="translate(953.65 125.86) scale(.96 1)"><tspan x="0" y="0">26</tspan></text>
      </g>
      <g class="st4">
        <text class="st5" transform="translate(988.21 125.86) scale(.96 1)"><tspan x="0" y="0">27</tspan></text>
      </g>
      <g class="st4">
        <text class="st6" transform="translate(1022.77 125.86) scale(.96 1)"><tspan x="0" y="0">28</tspan></text>
      </g>
      <g class="st4">
        <text class="st5" transform="translate(1057.33 125.86) scale(.96 1)"><tspan x="0" y="0">29</tspan></text>
      </g>
      <g class="st4">
        <text class="st5" transform="translate(1091.89 125.86) scale(.96 1)"><tspan x="0" y="0">30</tspan></text>
      </g>
      <g class="st4">
        <text class="st6" transform="translate(1126.45 125.86) scale(.96 1)"><tspan x="0" y="0">31</tspan></text>
      </g>
    </g>
  </g>
  <rect id="Rectángulo_402423" class="st9" x=".82" y=".3" width="1155.31" height="5"/>
</svg>