<svg xmlns="http://www.w3.org/2000/svg" xmlns:xlink="http://www.w3.org/1999/xlink" width="73.035" height="73.035" viewBox="0 0 73.035 73.035">
  <defs>
    <clipPath id="clip-path">
      <rect id="Rectángulo_402782" data-name="Rectángulo 402782" width="45.872" height="45.815" fill="none"/>
    </clipPath>
  </defs>
  <g id="Grupo_1102517" data-name="Grupo 1102517" transform="translate(-510.965 -1674.046)">
    <g id="Grupo_1102466" data-name="Grupo 1102466">
      <g id="Elipse_11493" data-name="Elipse 11493" transform="translate(510.965 1674.046)" fill="#95dbb3" stroke="#fff" stroke-width="2">
        <circle cx="36.518" cy="36.518" r="36.518" stroke="none"/>
        <circle cx="36.518" cy="36.518" r="35.518" fill="none"/>
      </g>
      <g id="Grupo_1102465" data-name="Grupo 1102465" transform="translate(524.546 1686.656)">
        <g id="Grupo_1102464" data-name="Grupo 1102464" clip-path="url(#clip-path)">
          <path id="Trazado_876012" data-name="Trazado 876012" d="M25.883,51.659V47.341H5.97c-.026.41-.054.841-.1,1.481a30.65,30.65,0,0,1-3.861-.255,2.668,2.668,0,0,1-2-2.675q-.029-9.717,0-19.433a2.827,2.827,0,0,1,2.615-2.819c1.247-.094,2.506-.031,3.759-.037.292,0,.585,0,.936,0v1.48c-1.235,0-2.449,0-3.663,0a5.275,5.275,0,0,0-.98.055,1.458,1.458,0,0,0-1.2,1.548,1.477,1.477,0,0,0,1.434,1.35c.952.042,1.907.01,2.959.01V45.739H25.842v-1.4c-1.048,0-2.083-.015-3.117,0a1.8,1.8,0,0,1-2-1.149c-.084-.216-.618-.313-.96-.365a2.259,2.259,0,0,1-2-1.98,2.169,2.169,0,0,1,1.4-2.266,4.229,4.229,0,0,1,1.317-.165c1.815-.017,3.631-.007,5.325-.007l1.335-3.477a9.788,9.788,0,0,1-6.413-8.278,6.166,6.166,0,0,1-1.1-.139c-.39-.118-.919-.245-1.087-.54-.573-1.005-1.451-.924-2.377-.9-1.4.031-2.8.008-4.261.008V23.6c1.654,0,3.326-.117,4.971.041,1.108.106,1.378-.752,1.94-1.262.129-.118-.108-.707-.253-1.047a8.616,8.616,0,0,1,.09-7.531A8.39,8.39,0,0,1,25.82,8.879a49.423,49.423,0,0,1,5.1-.064c2.927.067,5.789-.138,8.486-1.7,3.716,4.641,4.4,9.668,2.341,15.22a2.277,2.277,0,0,1,.991,2.819c-.466,1.223-1.541,1.468-2.786,1.447a10.425,10.425,0,0,1-2.686,5.887c1.323,0,2.413,0,3.5,0q5.1.007,5.1,5.133c0,2.388.009,4.776,0,7.165a3.7,3.7,0,0,1-3.888,3.971c-1.126.03-2.253.005-3.472.005v2.893Zm-.852-35.688c1.666,2.621,2.707,3.183,5.794,3.183,1.7,0,3.4-.061,5.1.024a5.728,5.728,0,0,1,2.713.591c.706.454,1.073,1.434,1.6,2.195-.1.064-.026.045-.007,0a12.832,12.832,0,0,0-.9-12.475c-.272-.442-.535-.413-.954-.244a15.427,15.427,0,0,1-5.947,1.066c-2.118-.012-4.242-.085-6.354.032A6.934,6.934,0,0,0,19.949,14.5c-1.275,2.607-.725,5.115.7,7.605-.253-2.764,1.728-3.527,3.749-4.235L23.746,16.5l1.284-.527m-2.822,7.988c0,.686-.01,1.373,0,2.059a8.108,8.108,0,0,0,16.142.918,40.419,40.419,0,0,0,.12-4.467c.005-1.281-.516-1.789-1.793-1.8-2.178-.011-4.357,0-6.535-.005a6.987,6.987,0,0,1-4.2-1.295,1.044,1.044,0,0,0-.787-.215,9.14,9.14,0,0,0-2.194.98,2.082,2.082,0,0,0-.722,1.318,17.886,17.886,0,0,0-.031,2.5M1.472,29.346v.928c0,4.921.044,9.842-.023,14.762-.024,1.754.657,2.645,2.948,2.071V29.6l-2.925-.255M22.272,39.9v2.911c1.912,0,3.761.059,5.6-.015a4.8,4.8,0,0,0,4.623-4.3,2.48,2.48,0,1,0-4.885-.761c-.121.7-.237,1.4-.365,2.167Zm5.16,10.293h9.482V48.853a2.889,2.889,0,0,0-.32-.072c-2.913-.27-4.031-1.5-4.032-4.455,0-.692,0-1.383,0-2.314a6.953,6.953,0,0,1-5.13,2.358Zm9.609-2.954c1.864,0,3.679.059,5.488-.025a1.743,1.743,0,0,0,1.724-1.564c.128-1.4.034-2.827.034-4.236-.717-.116-1.393-.241-1.626.715-.047.194-.3.373-.494.491a2.811,2.811,0,0,1-3.806-1.2H37.04Zm7.253-7.423a30.3,30.3,0,0,0-.03-3.542,2.572,2.572,0,0,0-2.349-2.242c-1.738-.1-3.486-.025-5.022-.025v5.834h1.523l-.14-.206c.434-.391.812-.982,1.317-1.125a5.842,5.842,0,0,1,2.211-.019,1.143,1.143,0,0,1,.82.595c.3.947.936.891,1.67.731m-9.16-5.4-.32-.044c-.25.481-.7.955-.715,1.443-.076,2.309-.034,4.622-.034,6.95h1.417c0-2.5.013-4.933-.015-7.366a3.385,3.385,0,0,0-.332-.984m-1.009,9.972c-.2,1.45.245,2.288,1.321,2.577V44.388ZM20.672,41.516V39.732a7.119,7.119,0,0,0-1.3.557.741.741,0,0,0,.016.7,6.428,6.428,0,0,0,1.279.526m19.348-.24h1.319V39.927H40.02ZM20.672,23.468a6.861,6.861,0,0,0-1.281.524.747.747,0,0,0-.012.7,7.034,7.034,0,0,0,1.293.525ZM39.98,25.246a7.683,7.683,0,0,0,1.328-.589.759.759,0,0,0-.054-.7,6.482,6.482,0,0,0-1.274-.46Z" transform="translate(0 -5.844)"/>
          <path id="Trazado_876013" data-name="Trazado 876013" d="M23.01,20.034c-2.079-3.667-4.144-7.121-6.018-10.676a6.382,6.382,0,0,1,1.831-7.9,6.731,6.731,0,0,1,8.223-.115,6.338,6.338,0,0,1,2.046,7.839c-1.857,3.627-3.975,7.121-6.081,10.85m0-2.956c1.691-3.041,3.425-5.83,4.818-8.781a4.565,4.565,0,0,0-1.253-5.4,5.117,5.117,0,0,0-5.653-.972,4.847,4.847,0,0,0-3.055,4.641,3.91,3.91,0,0,0,.33,1.823c1.526,2.855,3.13,5.668,4.813,8.686" transform="translate(-13.386 0)"/>
          <path id="Trazado_876014" data-name="Trazado 876014" d="M59.861,146.028H58.415c0-.9.008-1.787,0-2.671-.013-1.065-.53-1.673-1.424-1.7-.932-.025-1.5.592-1.5,1.7-.015,1.849.032,3.7-.017,5.547a2.955,2.955,0,0,1-4.393,2.7,2.7,2.7,0,0,1-1.5-2.387c-.037-2.833-.05-5.666-.012-8.5.015-1.109.874-.377,1.476-.627,0,.435,0,.749,0,1.063,0,2.535-.005,5.07,0,7.6,0,1.109.558,1.737,1.484,1.723.889-.013,1.426-.624,1.434-1.682.014-1.879-.022-3.758.016-5.636a2.96,2.96,0,0,1,5.594-1.392,2.382,2.382,0,0,1,.275.933c.034,1.068.013,2.138.013,3.317" transform="translate(-40.667 -114.991)"/>
          <path id="Trazado_876015" data-name="Trazado 876015" d="M41.429,115.975l-1.74,1.424-.937-1.1,1.488-1.3-1.48-1.282.9-1.12L41.434,114l1.745-1.4.924,1.089L42.638,115l1.456,1.276-.913,1.123-1.752-1.423" transform="translate(-31.81 -92.421)"/>
          <path id="Trazado_876016" data-name="Trazado 876016" d="M155.778,124.209c-.593,3.115-1.9,4.522-4.008,4.4s-3.452-1.754-3.633-4.4ZM150,125.669a1.957,1.957,0,0,0,2.2,1.4,1.788,1.788,0,0,0,1.647-1.4Z" transform="translate(-121.599 -101.957)"/>
          <path id="Trazado_876017" data-name="Trazado 876017" d="M136.5,93.812h-1.3l.176-.207-1.094-1.213-.933,1.2.172.2h-1.339A2.254,2.254,0,0,1,133,91.35a2.163,2.163,0,0,1,2.432-.142,2.35,2.35,0,0,1,1.061,2.605" transform="translate(-108.434 -74.615)"/>
          <path id="Trazado_876018" data-name="Trazado 876018" d="M186.251,93.771h-1.28l.172-.2-.986-1.21-1.009,1.174.194.229h-1.285a2.163,2.163,0,0,1,.857-2.509,2.124,2.124,0,0,1,2.435-.017,2.218,2.218,0,0,1,.9,2.532" transform="translate(-149.374 -74.586)"/>
          <path id="Trazado_876019" data-name="Trazado 876019" d="M40.434,20.314a3.69,3.69,0,1,1-3.692-3.681,3.661,3.661,0,0,1,3.692,3.681m-3.708,2.215a2.2,2.2,0,1,0-2.193-2.235,2.235,2.235,0,0,0,2.193,2.235" transform="translate(-27.133 -13.653)"/>
        </g>
      </g>
    </g>
  </g>
</svg>
