<svg xmlns="http://www.w3.org/2000/svg" xmlns:xlink="http://www.w3.org/1999/xlink" width="104" height="104" viewBox="0 0 104 104">
  <defs>
    <clipPath id="clip-path">
      <rect id="Rectángulo_402577" data-name="Rectángulo 402577" width="55.265" height="55.433" fill="none"/>
    </clipPath>
  </defs>
  <g id="Grupo_1102508" data-name="Grupo 1102508" transform="translate(-803.051 -2454)">
    <g id="Grupo_1102240" data-name="Grupo 1102240">
      <g id="Grupo_1102228" data-name="Grupo 1102228">
        <g id="Grupo_1102221" data-name="Grupo 1102221" transform="translate(0 468)">
          <g id="Grupo_1102217" data-name="Grupo 1102217" transform="translate(-219 1592)">
            <g id="Elipse_11492" data-name="Elipse 11492" transform="translate(1022.051 394)" fill="#95dbb3" stroke="#fff" stroke-width="2">
              <circle cx="52" cy="52" r="52" stroke="none"/>
              <circle cx="52" cy="52" r="51" fill="none"/>
            </g>
            <g id="Elipse_11500" data-name="Elipse 11500" transform="translate(1030.802 402.752)" fill="none" stroke="#000" stroke-width="2" stroke-dasharray="5">
              <circle cx="43.758" cy="43.758" r="43.758" stroke="none"/>
              <circle cx="43.758" cy="43.758" r="42.758" fill="none"/>
            </g>
          </g>
        </g>
        <g id="Grupo_1102227" data-name="Grupo 1102227" transform="translate(827.418 2478.284)">
          <g id="Grupo_1102226" data-name="Grupo 1102226" clip-path="url(#clip-path)">
            <path id="Trazado_875309" data-name="Trazado 875309" d="M43.428,79.789c-1.532-2.885-.249-5.919,2.719-6.655q2.813-.7,5.656-1.274a4.351,4.351,0,0,1,5.315,3.33c.2.752.349,1.515.569,2.481a45.82,45.82,0,0,0,.524-4.959,3.415,3.415,0,0,0-3.529-3.351c-2.616-.069-5.234-.006-7.851-.031-.546,0-.712.3-.919.713a20.929,20.929,0,0,1-1.7,3.095c-1.09,1.485-2.454,2.489-4.863,1.437a2.208,2.208,0,0,0-.924-.26c-1.19.059-1.5-.854-2.032-1.666a4.4,4.4,0,0,1,3.4.023c1.715.567,2.17.416,3.2-1.1,1.6-2.353,1.522-2.652-1.228-3.067-2.545-.384-5.113-.627-7.679-.84a3.457,3.457,0,0,0-1.815.451c-2.683,1.459-2.668,1.465-5.662,1.09a16.888,16.888,0,0,0-5.9.428A12.9,12.9,0,0,1,21.79,70.8c.432.611.8,1.27,1.2,1.9.469.739.947,1.473,1.421,2.209l.223-.057-.554,1.656a4.339,4.339,0,0,1-2.718-2.673,4.914,4.914,0,0,0-2.118-2.631,8.16,8.16,0,0,0-.367,1.88c.06,1.248.26,2.49.414,3.733a1.486,1.486,0,0,0,.977,1.369,4.069,4.069,0,0,1,2.5,3.729l3.949-.352c-1.841-3.241-1.763-6.228,1.517-8.512a5.557,5.557,0,0,1,6.785.547c2.164,1.9,2.393,4.289.693,8.057H41.4c-.857,1.111-1.457,1.931-2.85,1.906-4.409-.077-8.819-.037-13.229-.023-1.861.006-2.8,1.06-2.454,2.883H36.975c-.178,2.209-.238,1.832-1.8,1.84-3.729.018-7.458.006-11.186.006H22.773V89.78c.379.022.755.063,1.132.063,3.765,0,7.532.08,11.293-.036a2.727,2.727,0,0,1,3.033,1.874c-1.288.066-2.544.024-3.8.031-1.291.008-2.582,0-3.872,0H22.808c-.058.394-.089.671-.14.945a3.065,3.065,0,0,1-3.382,2.486,2.968,2.968,0,0,1-2.743-2.93c-.037-1.828-.03-3.657,0-5.485a1.234,1.234,0,0,0-.651-1.219,3.925,3.925,0,0,1-1.914-4.031,3.837,3.837,0,0,1,2.636-3.366c.786-.281.835-.733.755-1.393-.151-1.242-.31-2.486-.387-3.734a11.851,11.851,0,0,1,.183-1.7,2.589,2.589,0,0,0-.025-.916c-.261-.9-.189-1.156.667-1.65a11.215,11.215,0,0,1,5.452-1.434c1.822-.038,3.647.129,5.471.151a2.195,2.195,0,0,0,1.3-.34c1.944-1.538,4.2-1.555,6.45-1.274,2.8.35,5.572.915,8.358,1.373a14.247,14.247,0,0,0,2.119.257c2.581.031,5.163,0,7.744.017a5.24,5.24,0,0,1,5.418,5.536,29.5,29.5,0,0,1-.328,3.417c-.17,1.257-.194,1.24.9,1.8a4.132,4.132,0,0,1,2.456,3.746,3.215,3.215,0,0,1-1.8,3.071,1.41,1.41,0,0,0-.788,1.468c.041,1.792.022,3.585.01,5.378a3.093,3.093,0,0,1-6.17.454c-.011-.069-.039-.136-.092-.317-.267.223-.514.4-.727.611-1.273,1.262-2.526,2.545-3.81,3.8-1.472,1.433-2.871,1.453-4.323.029q-3.072-3.012-6.086-6.083c-1.443-1.467-1.458-2.869-.034-4.321q3.012-3.072,6.083-6.086c1.492-1.468,2.885-1.448,4.4.034,1.231,1.2,2.435,2.432,3.656,3.645.242.24.506.459.88.8V82.129l-2.195-1.784c.614-.192.955-.333,1.309-.4a2.446,2.446,0,0,0,2.04-3.256,10.579,10.579,0,0,1-.252-1.042,2.4,2.4,0,0,0-3.009-1.86c-1.821.382-3.643.766-5.454,1.2a2.345,2.345,0,0,0-2.007,2.9c.1,1-.8,1.242-1.345,1.914M47.6,80.81a5.705,5.705,0,0,0-.824.562q-3.014,2.985-6,6c-.646.654-.652,1-.019,1.639q2.98,3.019,6,6c.653.645,1,.652,1.639.02q3.019-2.98,6-6c.645-.653.651-1,.019-1.64q-2.98-3.019-6-6a6.408,6.408,0,0,0-.814-.58M20.833,87h0c0-1.644.034-3.289-.011-4.932A2.369,2.369,0,0,0,18.742,79.7a2.635,2.635,0,0,0-2.77,1.739,2.234,2.234,0,0,0,1.42,2.666,1.489,1.489,0,0,1,1.015,1.655c-.045,1-.011,2-.011,3,0,.929-.01,1.859,0,2.788.016,1.048.515,1.721,1.236,1.7s1.172-.682,1.195-1.748c0-.179,0-.358,0-.536V87m35.3,3.957.154.041a7.056,7.056,0,0,0,.01,1.071,1.2,1.2,0,0,0,1.2,1.16,1.218,1.218,0,0,0,1.179-1.184,5.573,5.573,0,0,0,.026-.857c0-1.825.057-3.653-.02-5.475a1.866,1.866,0,0,1,1.365-2.188A1.566,1.566,0,0,0,61.083,81.3a2.671,2.671,0,0,0-2.767-1.6A2.371,2.371,0,0,0,56.28,82a24.385,24.385,0,0,0,0,3c.054.763.325,1.509.4,2.272a8.215,8.215,0,0,1-.05,1.976,12.131,12.131,0,0,1-.5,1.7M34.67,79.266a2.631,2.631,0,0,0-.119-2.766,9.92,9.92,0,0,1-6.926-.051v2.862a9.984,9.984,0,0,1,7.045-.046m-1.458,1.646c-1.833-.508-2.755-.483-3.864.068a3.042,3.042,0,0,0,3.864-.068m-.1-6.1a2.847,2.847,0,0,0-3.752.017,4.728,4.728,0,0,0,3.752-.017" transform="translate(-10.94 -51.556)"/>
            <path id="Trazado_875310" data-name="Trazado 875310" d="M107.333,12.2c-2.773-.253-5.407-.49-8.04-.736-1.921-.179-3.839-.387-5.761-.551-1.288-.11-1.609-.374-1.494-1.662.24-2.7.539-5.4.842-8.1.1-.921.383-1.17,1.357-1.107,1.961.128,3.918.318,5.875.5,2.7.252,5.4.536,8.109.774,1.359.12,1.667.364,1.545,1.72-.241,2.7-.538,5.4-.846,8.1-.108.949-.414,1.1-1.586,1.062M94.021,9l13.054,1.21c.244-2.413.471-4.655.7-6.971l-13.05-1.2C94.483,4.46,94.257,6.678,94.021,9" transform="translate(-72.219 -0.029)"/>
            <path id="Trazado_875311" data-name="Trazado 875311" d="M1.816,5.87c0-1.046-.011-2.045,0-3.044A2.6,2.6,0,0,1,4.508,0,2.589,2.589,0,0,1,7.122,2.793c.015,1.029,0,2.058,0,3.154H8.7c0-.778,0-1.548,0-2.317,0-.358-.01-.717.007-1.075A2.581,2.581,0,0,1,11.342,0,2.574,2.574,0,0,1,14,2.527c.028.572.009,1.147.01,1.72,0,.531,0,1.062,0,1.642.326.057.562.11.8.137a.871.871,0,0,1,.891.991c-.037.617-.451.858-1.025.862-1.183.008-2.365,0-3.548.009s-2.5-.288-3.507.137C6.574,8.466,5.814,9.6,4.944,10.451c-.974.952-1.921,1.931-2.9,2.88a1.582,1.582,0,0,1-.787.51c-.308.031-.82-.1-.92-.314a1.4,1.4,0,0,1,.012-1.159,9.14,9.14,0,0,1,1.313-1.41Q3.086,9.526,4.516,8.1l-.1-.217c-.989,0-1.978,0-2.967,0C.8,7.891.163,7.826.128,6.993S.691,6.017,1.361,6a2.5,2.5,0,0,0,.456-.132m3.426.091c0-1.153.061-2.187-.038-3.205-.029-.3-.509-.56-.782-.838-.241.274-.667.533-.691.825C3.648,3.793,3.7,4.853,3.7,5.961Zm5.332.055,1.558-.073c0-1.12.06-2.121-.034-3.107a1.2,1.2,0,0,0-.718-.873c-.54-.093-.791.4-.8.909-.019.991-.006,1.983-.006,3.143" transform="translate(-0.099 0)"/>
            <path id="Trazado_875312" data-name="Trazado 875312" d="M67.383,209.191a10.382,10.382,0,0,1-1.8-1.053c-1.089-.983-2.121-2.033-3.118-3.11a5.16,5.16,0,0,1-1.123-1.682,7.956,7.956,0,0,0-2.1-3.064c-1.557-1.516-1.141-3.415.907-4.235a1.74,1.74,0,0,1,1.9.364c.4.358.735.8,1.162,1.114.621.466,1.3.856,1.952,1.279a21.114,21.114,0,0,1,2.4,1.583c1.027.888,1.958,1.89,2.9,2.873a2.526,2.526,0,0,1-.011,3.816,8.074,8.074,0,0,1-1.229,1.2,14.863,14.863,0,0,1-1.84.919M61.125,197.8c-.963.534-.792.9-.372,1.271a8.349,8.349,0,0,1,2.388,3.509,4.16,4.16,0,0,0,.91,1.308c.652.713,1.358,1.376,2.041,2.06,1.435,1.435,1.537,1.416,2.89-.12a.849.849,0,0,0-.049-1.373c-.747-.722-1.488-1.45-2.2-2.206a7.4,7.4,0,0,0-2.636-1.786,7.907,7.907,0,0,1-2.025-1.365,6.807,6.807,0,0,1-.949-1.3" transform="translate(-45.76 -153.759)"/>
            <path id="Trazado_875313" data-name="Trazado 875313" d="M199.98,209.166c-1.784-.194-4.05-2.554-3.862-4.216a3.072,3.072,0,0,1,.738-1.6c1.029-1.144,2.134-2.222,3.261-3.271a4.768,4.768,0,0,1,1.605-1.048,7.061,7.061,0,0,0,3.054-2.107c1.774-2.027,3.264-.639,4.217.948a1.565,1.565,0,0,1-.351,1.886c-.411.449-.891.84-1.268,1.313-.4.5-.7,1.063-1.054,1.6a30.18,30.18,0,0,1-1.886,2.825,22.962,22.962,0,0,1-2.658,2.655,10.133,10.133,0,0,1-1.8,1.019m6.6-11.093a13.674,13.674,0,0,1-3,2.222c-2.29.858-3.6,2.773-5.257,4.316a.9.9,0,0,0-.184.826,10.591,10.591,0,0,0,1.506,1.506.7.7,0,0,0,.665-.09,26.964,26.964,0,0,0,3.707-3.993c.863-1.345,1.464-2.846,2.72-3.924.439-.377.266-.671-.162-.863" transform="translate(-153.915 -153.761)"/>
            <path id="Trazado_875314" data-name="Trazado 875314" d="M205.161,14.457a5.145,5.145,0,0,1-5.167-5.3,5.234,5.234,0,1,1,10.467.133,5.144,5.144,0,0,1-5.3,5.166m.015-1.877a3.481,3.481,0,0,0,3.408-3.334,3.357,3.357,0,0,0-6.713-.1,3.48,3.48,0,0,0,3.305,3.435" transform="translate(-156.965 -3.132)"/>
            <path id="Trazado_875315" data-name="Trazado 875315" d="M129.525,213.995A3.511,3.511,0,1,1,126,217.52a3.421,3.421,0,0,1,3.525-3.525m.028,5.128a1.617,1.617,0,1,0-1.658-1.548,1.743,1.743,0,0,0,1.658,1.548" transform="translate(-98.891 -167.954)"/>
            <path id="Trazado_875316" data-name="Trazado 875316" d="M18.825,214.684c0,.779-.642,1.289-1.26.955a19.37,19.37,0,0,1-2.851-1.9A1.215,1.215,0,0,1,14.6,212.6a1.056,1.056,0,0,1,.97-.379c1.054.593,2.05,1.294,3.044,1.988.145.1.171.373.215.475" transform="translate(-11.389 -166.538)"/>
            <path id="Trazado_875317" data-name="Trazado 875317" d="M4.429,229.13a2.459,2.459,0,0,1-.5.689c-.739.552-1.512,1.064-2.3,1.546-.633.388-1.231.288-1.491-.215a.985.985,0,0,1,.412-1.377c.794-.538,1.575-1.1,2.409-1.572.742-.417,1.452-.019,1.471.929" transform="translate(0 -178.975)"/>
            <path id="Trazado_875318" data-name="Trazado 875318" d="M155.839,174.093c.708-.686,1.218-1.174,1.721-1.669.46-.452.985-.671,1.5-.176s.337,1.042-.114,1.5c-.7.715-1.393,1.436-2.124,2.117a1.025,1.025,0,0,1-1.679,0c-.907-.859-1.776-1.758-2.655-2.646-.457-.462-.641-.987-.116-1.5s1.056-.313,1.494.16c.651.7,1.275,1.43,1.969,2.211" transform="translate(-119.343 -134.54)"/>
            <path id="Trazado_875319" data-name="Trazado 875319" d="M221.479,22.958c-.315-.182-.938-.337-1.01-.628a3.971,3.971,0,0,1,.1-1.839,1.011,1.011,0,0,1,.894-.291,7.534,7.534,0,0,1,1.506,1.544c.109.15-.118.7-.342.894s-.653.2-1.147.319" transform="translate(-172.979 -15.83)"/>
          </g>
        </g>
      </g>
    </g>
  </g>
</svg>
