<svg xmlns="http://www.w3.org/2000/svg" xmlns:xlink="http://www.w3.org/1999/xlink" width="104" height="104" viewBox="0 0 104 104">
  <defs>
    <clipPath id="clip-path">
      <rect id="Rectángulo_402578" data-name="Rectángulo 402578" width="58.427" height="60.496" fill="none"/>
    </clipPath>
  </defs>
  <g id="Grupo_1102509" data-name="Grupo 1102509" transform="translate(-1118.051 -2454)">
    <g id="Grupo_1102241" data-name="Grupo 1102241">
      <g id="Grupo_1102231" data-name="Grupo 1102231">
        <g id="Grupo_1102222" data-name="Grupo 1102222" transform="translate(0 468)">
          <g id="Grupo_1102218" data-name="Grupo 1102218" transform="translate(96 1592)">
            <g id="Elipse_11492" data-name="Elipse 11492" transform="translate(1022.051 394)" fill="#95dbb3" stroke="#fff" stroke-width="2">
              <circle cx="52" cy="52" r="52" stroke="none"/>
              <circle cx="52" cy="52" r="51" fill="none"/>
            </g>
            <g id="Elipse_11500" data-name="Elipse 11500" transform="translate(1030.802 402.752)" fill="none" stroke="#000" stroke-width="2" stroke-dasharray="5">
              <circle cx="43.758" cy="43.758" r="43.758" stroke="none"/>
              <circle cx="43.758" cy="43.758" r="42.758" fill="none"/>
            </g>
          </g>
        </g>
        <g id="Grupo_1102230" data-name="Grupo 1102230" transform="translate(1141.787 2473.363)">
          <g id="Grupo_1102229" data-name="Grupo 1102229" clip-path="url(#clip-path)">
            <path id="Trazado_875320" data-name="Trazado 875320" d="M11.359,118.646c-.5-.533-.8-.81-1.054-1.119a2.27,2.27,0,0,1,.034-3.2q2.817-2.935,5.752-5.756a2.407,2.407,0,0,1,3.576.155c1.907,1.872,3.759,3.8,5.678,5.658a2.212,2.212,0,0,0,1.325.591c1.7.069,3.4.07,5.1,0a2.221,2.221,0,0,0,1.315-.614c1.919-1.859,3.772-3.786,5.683-5.653a2.45,2.45,0,0,1,3.757.046c1.71,1.668,3.39,3.366,5.072,5.063,1.515,1.528,1.526,2.623.069,4.176-.135.144-.265.292-.589.65h2.568c2.065,0,4.13-.013,6.194.005a2.276,2.276,0,0,1,2.568,2.537q.038,5.892,0,11.784a3.063,3.063,0,0,1-3.343,3.316c-.729.008-1.459.033-2.186-.006-.706-.037-1.061.186-1.017.955a21.493,21.493,0,0,1,0,2.307c-.036.721.225,1.037.974,1.007.97-.039,1.943-.014,2.914,0,.6.008,1.221.115,1.177.886-.041.712-.662.705-1.2.706q-3.036.006-6.073,0H3.747c-.364,0-.729,0-1.093,0-.541-.009-1.153-.016-1.162-.742-.009-.775.621-.843,1.214-.851.85-.012,1.7-.061,2.549.008,1,.082,1.329-.27,1.319-1.292-.028-2.967.014-2.967-2.889-2.976-2.562-.008-3.674-1.122-3.68-3.718q-.012-5.527,0-11.055c.005-2.1.772-2.865,2.851-2.87,2.741-.007,5.482,0,8.5,0m17.868,11.478q13.112,0,26.224,0c1.351,0,1.358-.013,1.361-1.345q.008-3.522,0-7.043c-.005-1.36-.12-1.482-1.443-1.482q-26.163-.005-52.326,0c-1.267,0-1.412.14-1.421,1.383-.015,2.145-.011,4.291,0,6.436.009,2.211-.241,2.053,1.993,2.054q12.809,0,25.617,0m.106,1.719H3.474c-.364,0-.729.014-1.093.008-.582-.01-.751.309-.769.843-.047,1.409.58,1.993,2.222,1.993q24.645,0,49.291,0c.647,0,1.3.017,1.942-.006,1.2-.042,1.775-.726,1.738-1.985s-1-.835-1.613-.837q-12.93-.038-25.859-.017M12.388,140.4h33.5c-1.353-4.1-1.353-4.1-5.352-4.1h-.849c-8.047,0-16.094-.008-24.141.019-.465,0-1.162.142-1.353.459-.682,1.126-1.192,2.356-1.806,3.626m5.376-21.954a13.75,13.75,0,0,1,2.3.021c1.729.3,2.813-.6,3.822-1.794a.944.944,0,0,0-.033-1.476q-2.62-2.615-5.234-5.237a.983.983,0,0,0-1.579-.034q-2.66,2.662-5.325,5.318a.861.861,0,0,0-.045,1.367c1.023,1.116,2.011,2.21,3.791,1.859a12.113,12.113,0,0,1,2.3-.024m22.813-.006a13.3,13.3,0,0,1,2.3.022c1.738.31,2.8-.633,3.817-1.8a.918.918,0,0,0-.021-1.462q-2.628-2.608-5.236-5.236a.987.987,0,0,0-1.581-.054q-2.668,2.654-5.329,5.314a.887.887,0,0,0-.044,1.383c1.017,1.127,2.013,2.207,3.791,1.858a12.154,12.154,0,0,1,2.3-.024m-6.445.183a5.847,5.847,0,0,1-.851-.951,2.191,2.191,0,0,0-2.435-1.076,15.25,15.25,0,0,1-3.268-.016c-1.715-.27-2.319.9-3.178,2.043ZM12.555,136.289c-.609,0-.966,0-1.324,0-3.139-.013-3.144-.013-3.066,3.11.011.444-.184,1.111.563,1.1.7-.008,1.585.435,2.055-.506.572-1.147,1.108-2.312,1.772-3.705m33.315,0c.6,1.268,1.093,2.319,1.6,3.362.421.866,1.074,1.108,2.206.872.957-.2.508-.958.567-1.479.072-.637,0-1.289.019-1.934.014-.537-.17-.835-.76-.826-1.124.017-2.249,0-3.632,0" transform="translate(0 -81.649)"/>
            <path id="Trazado_875321" data-name="Trazado 875321" d="M106.892,2.577a7.3,7.3,0,0,1-.7,1.32c-.959,1.253-2.023,2.427-2.957,3.7a2.257,2.257,0,0,0-.423,1.524,4.879,4.879,0,0,1-1.108,3.955,14.628,14.628,0,0,0-3.392,7.278,16.457,16.457,0,0,0,.151,4.081c.236,1.677-.474,2.424-2.1,1.9A23.086,23.086,0,0,1,84.808,18.26,31.814,31.814,0,0,1,82.6,14.926c-.715-1.225-.154-2.27,1.231-2.218,4.091.155,7.267-1.673,9.92-4.547,1.4-1.513,2.833-2.75,5.03-2.771.311,0,.671-.4.918-.688,1.1-1.293,2.158-2.627,3.262-3.92a2.138,2.138,0,0,1,2.543-.6,2.247,2.247,0,0,1,1.393,2.4M96.753,24.533c-.866-4.857.864-8.836,3.7-12.476a4.2,4.2,0,0,0,.283-.395,2.982,2.982,0,0,0,.067-3.222,2.712,2.712,0,0,0-2.814-1.275A3.617,3.617,0,0,0,95.567,8.62c-2.464,2.738-5.3,4.886-9.041,5.526-.734.126-1.485.156-2.255.233.887,1.946,1.384,2.149,3.186,1.269.613-.3,1.137-.789,1.758-1.064a3.167,3.167,0,0,1,1.189-.025,3.962,3.962,0,0,1-.249,1.26,2.349,2.349,0,0,1-.94.744c-.833.453-1.691.858-2.608,1.318l2.369,2.584c1.294-1.526,2.386-2.86,3.535-4.144.382-.427.956-.772,1.471-.193.547.615-.053.97-.411,1.408-.889,1.09-1.753,2.2-2.549,3.361a1.048,1.048,0,0,0,.094,1.017,17.737,17.737,0,0,0,1.955,1.281c.477-1.386.862-2.61,1.326-3.8.2-.5.588-.959,1.226-.627s.434.835.226,1.365a13.321,13.321,0,0,0-.837,2.518c-.248,1.432.043,1.707,1.739,1.887M101.7,6.86c1.18-1.448,2.266-2.742,3.291-4.082.163-.212.054-.633.071-.957-.35.062-.842,0-1.026.207-1.112,1.265-2.154,2.591-3.268,3.958l.932.874" transform="translate(-62.293 0)"/>
            <path id="Trazado_875322" data-name="Trazado 875322" d="M19.493,92.7q0,2.123,0,4.247c0,.552-.049,1.128-.777,1.127-.706,0-.81-.56-.81-1.118,0-2.953-.07-5.908.025-8.857a4.787,4.787,0,0,1,4.876-4.6c2.3-.1,4.609-.031,6.913-.016.58,0,1.238.09,1.245.844s-.645.843-1.23.847c-2.143.015-4.286,0-6.429.013-2.648.012-3.8,1.187-3.808,3.877,0,1.213,0,2.427,0,3.64Z" transform="translate(-13.535 -63.17)"/>
            <path id="Trazado_875323" data-name="Trazado 875323" d="M194.838,92.806c0,1.455.007,2.91,0,4.365,0,.6-.08,1.217-.866,1.182-.722-.032-.723-.64-.723-1.177,0-2.627,0-5.254-.005-7.88-.008-2.653-1.181-3.815-3.847-3.834a18.236,18.236,0,0,1-2.538-.074c-.329-.049-.6-.51-.894-.784.3-.273.593-.779.891-.78a21.633,21.633,0,0,1,4.568.239,4.6,4.6,0,0,1,3.407,4.5c.043,1.413.008,2.828.009,4.243" transform="translate(-140.783 -63.45)"/>
            <path id="Trazado_875324" data-name="Trazado 875324" d="M162.363,76.341a3.116,3.116,0,0,1-3.051,3.128,3.207,3.207,0,0,1-3.1-3.111,3.17,3.17,0,0,1,3.023-3.055,3.093,3.093,0,0,1,3.128,3.038m-4.421.081a1.368,1.368,0,0,0,1.347,1.411,1.447,1.447,0,0,0,.058-2.892,1.412,1.412,0,0,0-1.405,1.481" transform="translate(-118.26 -55.494)"/>
            <path id="Trazado_875325" data-name="Trazado 875325" d="M95.656,10.707a2.737,2.737,0,0,1-.01-5.474,2.737,2.737,0,1,1,.01,5.474m-.1-1.187a7.11,7.11,0,0,0,1.166-1.474c.19-.5-.591-1.336-1.085-1.146a1.735,1.735,0,0,0-1.026,1.077c-.049.382.483.837.944,1.543" transform="translate(-70.353 -3.962)"/>
            <path id="Trazado_875326" data-name="Trazado 875326" d="M81.581,86.4a2.584,2.584,0,0,1,2.566,2.531,2.519,2.519,0,0,1-2.415,2.533,2.585,2.585,0,0,1-2.644-2.45A2.63,2.63,0,0,1,81.581,86.4m1.269,2.579c-.564-.432-.937-.909-1.16-.847-.363.1-.627.555-.933.86.294.261.567.693.888.732.286.035.626-.364,1.205-.744" transform="translate(-59.872 -65.409)"/>
          </g>
        </g>
      </g>
    </g>
  </g>
</svg>
